<?xml version="1.0" encoding="utf-8"?>
<!-- Generator: Adobe Illustrator 21.0.2, SVG Export Plug-In . SVG Version: 6.00 Build 0)  -->
<svg version="1.1" id="Слой_1" xmlns="http://www.w3.org/2000/svg" xmlns:xlink="http://www.w3.org/1999/xlink" x="0px" y="0px"
	 viewBox="0 0 238 152.9" style="enable-background:new 0 0 238 152.9;" xml:space="preserve">
<g>
	<path d="M230.6,66.8c-4-0.2-7.9-0.9-11.7-2c-4.5-1.5-6.9-2.4-8.1-2.9c-0.4-7.9-0.6-16.6-0.2-18.2c0.3-0.6,0.3-1.3,0-1.9
		c-0.8-1.6-2.7-2.2-15-4.4c-5.2-0.9-13.1-2.4-14.4-3.3c-1.1-1-0.7-7.5-0.6-9.9c0.2-3.9,0.3-5.5-0.7-6.6c-0.6-0.6-1.6-0.9-3.8-1.6
		c-2.8-0.9-7.5-2.4-9.1-4.5c-0.6-0.8-1.5-1.4-2.6-2c0-0.2,0-0.3-0.1-0.4c-0.2-0.2-0.5-0.2-0.7,0c0,0,0,0,0,0
		c-3.5-1.6-8.9-2.6-14.5-3.3c0-0.1,0-0.2,0.1-0.2c0.1-0.3-0.1-0.5-0.3-0.6c0,0,0,0,0,0c-0.3-0.1-0.5,0-0.6,0.3
		c0,0.1-0.1,0.3-0.1,0.4c-0.4,0-0.7-0.1-1.1-0.1c0.1-1.4,0.3-2.8,0.6-4.2c0,0,0,0,0,0c0.1-0.3-0.1-0.5-0.4-0.6
		c-0.3-0.1-0.5,0.1-0.6,0.4c-0.4,1.4-0.6,2.9-0.6,4.3c-0.3,0-0.7-0.1-1-0.1c-0.1-0.2-0.1-0.4-0.2-0.7c-0.1-0.3-0.4-0.4-0.6-0.3
		c-0.3,0.1-0.4,0.4-0.3,0.6c0,0.1,0,0.2,0.1,0.3c-6.5-0.5-12.7-0.6-15.9-0.6c-0.4,0-0.8,0-1.3,0c0-0.2-0.1-0.4-0.3-0.5
		c-0.3-0.1-0.5,0-0.7,0.3c0,0.1,0,0.1-0.1,0.2c-0.4,0-0.8,0-1.2,0c0.1-1.4,0.3-2.7,0.6-4.1c0.1-0.3-0.1-0.5-0.4-0.6
		s-0.5,0.1-0.6,0.4c-0.4,1.4-0.6,2.9-0.6,4.3c-0.3,0-0.7,0-1,0c-0.1-0.2-0.1-0.5-0.2-0.7c-0.1-0.3-0.4-0.4-0.6-0.3
		c-0.3,0.1-0.4,0.4-0.3,0.6c0,0.1,0.1,0.3,0.1,0.4C113.7,4.8,105.8,5.3,98,6c-0.7,0.1-1.5,0.2-2.1,0.3c0,0-0.1,0-0.1,0
		c-0.5,0.1-1,0.2-1.6,0.2c0.1-1.3,0.3-2.5,0.6-3.8c0.1-0.3-0.1-0.5-0.4-0.6c-0.3-0.1-0.5,0.1-0.6,0.4c-0.4,1.4-0.6,2.8-0.6,4.2
		c-0.3,0.1-0.7,0.1-1,0.2C92.1,6.6,92,6.4,92,6.1c0,0,0,0,0,0c-0.1-0.3-0.4-0.4-0.6-0.3c0,0,0,0,0,0c-0.3,0.1-0.4,0.4-0.3,0.6
		c0.1,0.2,0.1,0.4,0.2,0.6c-7.7,1.5-11.2,3.8-11.2,7c0,1.9,0.2,4.5,0.5,7.3c0.4,4.2,1.1,13-0.1,14.5c-2.6,1.5-23.6,3.7-42.5,4.9
		c-0.6,0-1.2,0.4-1.5,0.9c-0.3,0.5-0.4,1.1-0.3,1.7c0.8,2.7,2.5,10.3,0.5,13.9c-0.4,0.7-1,1.3-1.8,1.5c-0.3,0.1-2,0.3-3.7,0.6
		C7.6,63,0,65.4,0,69.6c-0.2,1.8,0.6,3.5,1.9,4.7c0.6,0.6,1.3,1.2,1.3,4.6c0,2.2-0.1,4.6-0.2,7C2.6,93.6,2.6,96.7,4,98.2
		c0.4,0.4,0.9,0.7,1.5,0.8c0.3,0.1,0.9,0.3,1.8,0.5c0,0.4-0.1,1.2-0.2,2c-2.2,18.3-1.6,22.9,0.1,24.7c1.2,1.1,2.7,1.9,4.3,2.4
		c1.9,0.7,1.9,0.8,1.9,1.3c0,2.7,0,8.2,6.5,8.2c1.4,0,7.7,1.7,13.9,3.4c11.1,3,25,6.8,31.3,6.8c6.2,0,13.7-0.2,19.3-0.4
		c3.5-0.1,6.3-0.2,7.7-0.2c3.5,0,7.7-2.3,9.4-3.3c3.7,0.6,19.8,3.3,29.2,3.3c3.4,0,6.6-0.1,9.5-0.3c4.2-0.2,9.3-0.4,10.3,0.3
		c0.4,0.5,0.8,1.1,1,1.8c0.5,1.3,1.3,3.5,4.3,3.5c0.1,0,0.1,0,0.2,0c1.1-0.1,28.3-2.5,44.9-7.2c22.1-6.3,27-9.4,28.8-11.2
		c2.1-2.1,1.7-7.6,0.4-19c-0.4-3.8-0.8-7.4-0.8-9.5c0-4.2,1.7-6.4,2.5-7.2c4.4-0.1,6.5-1.2,6.5-3.3V70.1
		C238,67.5,235,67.2,230.6,66.8z M179.3,71L179.3,71C179.3,71,179.3,71,179.3,71C179.3,71,179.3,71,179.3,71z M174,68.3
		C174,68.3,174,68.3,174,68.3C174,68.3,174,68.3,174,68.3C174,68.3,174,68.3,174,68.3C174,68.3,174,68.3,174,68.3
		C174,68.3,174,68.3,174,68.3C174,68.3,174,68.3,174,68.3z M96.7,66.7L96.7,66.7C96.7,66.7,96.7,66.7,96.7,66.7
		C96.7,66.7,96.7,66.7,96.7,66.7z M92.1,68.9L92.1,68.9C92.1,68.9,92.1,68.9,92.1,68.9C92.1,68.9,92.1,68.9,92.1,68.9z M40.5,44.6
		c0.3,0,0.5,0,0.8-0.1c5.9,1.3,18.3,4,29.5,6.1c12.6,2.4,16.4,2.6,18.3,2.4c0,4.3,0.5,8.5,1.4,12.7c-6-0.4-22.8-2.6-34.3-5.3
		c-6.7-1.6-12.1-2.1-15.8-2.1C42.3,54.2,41.3,48.1,40.5,44.6z M116.8,17.3c2.1,6,1.9,16.5,1.7,20.9c-6.7,0-15.8-0.7-23.3-1.4
		c0.7-2.6,0-5.9-0.8-7.9c-0.6-1.4-1.2-2.2-1.9-2.4c-0.4-1.1-0.6-5.5-0.5-9.6c0.8,0.1,2.1,0.1,3.9,0.1C102.1,17,110,17.1,116.8,17.3z
		 M110.7,15.8L110.7,15.8C110.7,15.8,110.7,15.8,110.7,15.8C110.7,15.8,110.7,15.8,110.7,15.8z M120.9,16.1L120.9,16.1
		C120.9,16.1,120.9,16.1,120.9,16.1C120.9,16.1,120.9,16.1,120.9,16.1z M127.8,17.7c2.2,0.1,4.3,0.4,6.4,0.8
		c0.9,0.2,1.7,0.3,2.5,0.3c-0.8,5.8,1.1,13.4,1.2,13.8c0.1,0.4,0.5,0.8,1,0.8l0,0c0.1,0,0.2,0,0.2,0c0.5-0.1,0.9-0.7,0.7-1.2
		c0-0.1-2-7.9-1.1-13.4c0.6-0.1,1.3-0.3,2.1-0.5c5.1-1.8,10.6-2.5,16-2c4.3,0.5,5.8,1.3,6.2,1.6c0.1,0.1,0.2,0.2,0.3,0.3
		c0,0,0,0,0,0c0,0,0,0,0,0c0.5,0.4,0.6,1.8,0.6,3.2c0.1,2.2,0.2,5,2.4,6.6c1.7,1.2,2.6,5.7,2.9,9.2c-6.9,0.7-15.4,0.2-19.6,0
		c-1.7-0.1-2.9-0.2-3.7-0.2c-3.9,0-22.5,1-26.5,1.2c0.2-4.4,0.4-14.6-1.7-20.8C121.7,17.4,125.2,17.5,127.8,17.7z M142.6,16.2
		L142.6,16.2C142.6,16.2,142.6,16.2,142.6,16.2C142.6,16.2,142.6,16.2,142.6,16.2z M176.8,20.9c0,0.9-0.1,2.1-0.1,3
		c-0.3,4.7-0.4,8.7,0.6,11.3c-1.5,0.8-3.6,1.3-6.1,1.7c-0.2-3.2-1.1-8.7-3.7-10.6c-1.4-1-1.5-3.1-1.6-5.1c0-0.7-0.1-1.5-0.2-2.1
		c2.5,0.9,6.3,2,9.4,2C175.8,21.1,176.3,21,176.8,20.9z M166.9,55.4c0.1,2.1,1.5,4,3.5,4.6l1.8,5.4c-0.3,0-0.6,0-0.9,0
		c-2.2-1.2-4.7-3.5-5.4-5.1c-0.8-1.4-2-2.6-3.5-3.3c-1.1-0.5-2.1-1.3-2.8-2.4c-0.8-1.5,0.6-4.3,1.3-5.5c0.6-0.1,1.1-0.2,1.6-0.3
		c1.9-0.4,3.2-0.7,4.2-0.3c0.4,0.1,0.8,0.3,1.2,0.5c0.3,0.1,0.6,0.2,0.9,0.3C167.8,50.7,166.6,53,166.9,55.4z M150.6,53.5
		L150.6,53.5C150.6,53.5,150.6,53.5,150.6,53.5C150.6,53.5,150.6,53.5,150.6,53.5z M157.8,55.5c0.9,1.4,2.1,2.5,3.5,3.2
		c1.1,0.5,2.1,1.3,2.7,2.4c0.1,0.1,0.1,0.3,0.2,0.4c-0.7-0.3-1.3-0.6-2.1-0.6c-0.9,0-1.7-0.6-2-1.5c-0.6-1.4-1.9-2.4-3.4-2.5
		c-1.8-0.2-3.1-2.1-4-3.4c-0.3-0.4-0.5-0.7-0.7-1c0.7-0.8,1.5-2,1.7-3.1c1.5,0.3,3.1,0.3,4.7,0.2C157.6,51.1,156.8,53.6,157.8,55.5z
		 M162.1,46.8c-0.4,0.1-0.9,0.2-1.4,0.3c-0.9-0.8-2.5-1.6-5.3-2.8c-0.7-0.3-1.5-0.7-2.3-1.1c-1.1-0.5-2-1.2-2.7-2.1
		c3,0.2,5.9,0.3,8.7,0.3c1.3,1,2.7,2,4.2,2.8c0.9,0.5,1.6,1.2,2.3,2C164.5,46.2,163.4,46.5,162.1,46.8z M93.2,39.6L93.2,39.6
		C93.2,39.6,93.2,39.6,93.2,39.6C93.2,39.6,93.2,39.6,93.2,39.6z M90,15.7c-0.1,4.1-0.1,11,1.1,12.3c0.2,0.2,0.5,0.4,0.8,0.4
		c0.9,1.5,1.5,3.2,1.6,5c0.1,1.2,0,2.3-0.3,3.1c-3.6-0.3-6.6-0.7-8.6-0.9c0.7-3.2,0.4-8.2-0.1-14.6c-0.2-2.3-0.4-4.5-0.4-6.2
		c2.2-0.3,4.9-0.4,6.3-0.1C90.1,15,90,15.3,90,15.7z M82.1,39.4c3.8,0.4,24.4,2.8,36.8,2.8h0.1c0.2,0,22.8-1.3,27-1.3
		c0.4,0,1.1,0,1.9,0.1c1,1.7,2.5,3.2,4.4,4c0.8,0.4,1.6,0.7,2.3,1.1c1,0.4,2.1,0.9,3,1.5c-1.7,0.1-3.5-0.1-5.2-0.5
		c-0.2-0.1-0.3-0.2-0.5-0.2c-0.6,0-1.1,0.4-1.2,1s0.4,1.1,1,1.2c0.1,0.4-0.7,1.5-1.6,2.5c-3,0-18-0.1-18.7-0.1c-0.5,0-1,0.4-1,0.9
		c0,0,0,0,0,0c-1.4,0.1-4.2,0.3-9.9,0.3c-7.9,0.1-15.9-0.7-23.6-2.4c-0.6-0.2-1.2-0.3-1.9-0.4c-0.1-0.1-0.3-0.1-0.4-0.1
		c-0.2,0-0.3,0-0.4,0.1c-0.9,0.1-1.7,0.3-2.5,0.7c-0.6,0.2-1.2,0.4-1.8,0.6c-1.5,0.2-3.4,0.6-18.8-2.3c-7.9-1.5-16.4-3.3-22.8-4.6
		C61.9,43,77.5,41.4,82.1,39.4z M92.6,65.9c-1-4.3-1.4-8.7-1.5-13.1c0.4-0.1,0.9-0.3,1.3-0.4c0.3-0.2,0.7-0.3,1.1-0.4
		c-0.2,3-0.6,9.5,0.7,12.7c-0.3,0.3-0.5,0.5-0.6,0.9c0,0.1-0.1,0.1-0.1,0.2C93.2,65.8,92.9,65.9,92.6,65.9z M96.7,63.7
		c-0.2,0-0.4,0-0.7,0c-0.8-2.3-0.8-7.7-0.4-11.8c0.3,0.1,0.7,0.1,1,0.2c7.9,1.8,16,2.6,24.1,2.5c5.2,0,8.2-0.1,10.1-0.3
		c-0.6,2.9-0.4,6.4-0.4,6.6c0,0.5,0.5,0.9,1,0.9v0c0,0,0,0,0.1,0c0.5,0,1-0.5,0.9-1.1c0,0-0.3-4.3,0.5-6.9c0.3-0.1,0.4-0.3,0.5-0.5
		c6.2,0,15.5,0,17,0.1c0.3,0.3,0.5,0.7,0.8,1c1.1,1.6,2.8,4,5.4,4.3c0.9,0,1.6,0.6,1.9,1.4c0.6,1.5,2,2.5,3.5,2.6
		c1.3,0.1,2.5,1,3.9,2.1c0.3,0.2,0.6,0.5,0.9,0.7c-8.2,0.5-21.7,1.2-30,1.2c-8.5,0-23.9-1.5-33-2.5C99.4,63.9,97.3,63.7,96.7,63.7z
		 M174.4,65.3l-2.3-6.6c-0.1-0.4-0.5-0.6-0.8-0.7c-1.4-0.2-2.4-1.5-2.4-2.9c-0.2-2.5,1.7-5.1,2.4-5.9c1.3,0.1,4.3,1.1,6.3,2
		c1.5,6.6,2.4,13.9,1.7,16.8c0,0,0,0-0.1,0c-0.8-0.1-1.5-0.5-2-1.1C176.5,66.1,175.5,65.5,174.4,65.3z M179.7,51.4
		c1.8-0.2,6.1-0.5,14.8-0.5c4.3,0,7-0.4,8.6-1c-0.1,3.5-0.1,9.9,0.7,13.5c-1.4,0.5-2.9,1-4.3,1.3c-4.4,1-13.7,2.6-18.1,3.1
		C182.1,63.3,180.6,55.3,179.7,51.4z M205.7,62.6c-0.6-3.3-0.7-9.7-0.5-14.1c0.5-0.6,0.7-1.2,0.9-1.9c0.1-0.3,0.2-0.5,0.3-0.8
		c-0.2,3.4,0,8.8,0.4,16.2C206.4,62.3,206.1,62.5,205.7,62.6z M205.9,43.5c-0.3,0.2-0.6,0.5-0.8,0.8c-0.5,0.5-0.8,1.1-0.9,1.8
		c-0.1,0.3-0.2,0.6-0.4,0.9c-0.3,0.1-0.5,0.3-0.6,0.6c-1,0.7-3.3,1.3-8.8,1.3c-10.6,0-14.8,0.5-15.9,0.6c-1.4-0.6-5.7-2.5-7.8-2.3
		c0,0,0,0,0,0c-1.6,0-2.6-1.1-3.7-2.3c-0.8-1-1.8-1.8-2.9-2.5c-0.6-0.3-1.1-0.7-1.7-1c7.6-0.1,14.2-0.9,17.7-3.4
		c2.4,1,7,1.9,14.6,3.3C198.6,42,203.4,42.9,205.9,43.5z M170.8,18.4c-2.1-0.5-4.4-1.2-6.3-2c0,0,0,0,0,0c-0.7-0.6-1.1-1.8-1.3-3.2
		c0.3,0.2,0.5,0.4,0.7,0.6C165.4,15.9,168.1,17.3,170.8,18.4z M148.4,9.5L148.4,9.5C148.4,9.5,148.4,9.5,148.4,9.5
		C148.4,9.5,148.4,9.5,148.4,9.5z M133.4,9.6c-0.1-0.1-0.1-0.1-0.2-0.1c-0.3-0.1-0.5,0-0.6,0.3c0,0.1,0,0.1-0.1,0.2
		c-0.5,0.2-0.9,0.4-1.2,0.5c0-0.3,0-0.7,0-1c0.6-0.2,1.3-0.4,1.8-0.8c0.6,0,1.2,0,1.8,0C134.5,9.1,134,9.3,133.4,9.6z M130.9,11.7
		L130.9,11.7C130.9,11.7,130.9,11.7,130.9,11.7C130.9,11.7,130.9,11.7,130.9,11.7z M122.3,9.3c0,0.3,0.2,0.5,0.5,0.5h0
		c0.3,0,0.5-0.2,0.5-0.5c0-0.2,0-0.4,0-0.6c0.2,0,0.3,0,0.5,0c0.1,0.4,0.1,0.7,0.2,1.1c0.1,0.2,0.3,0.4,0.5,0.4c0,0,0.1,0,0.1,0
		c0,0,0,0,0,0c0.3-0.1,0.4-0.3,0.4-0.6c-0.1-0.3-0.1-0.6-0.2-0.9c0.3,0,0.6,0,0.9,0c0.1,0,0.2,0.1,0.3,0.1c0,0,0.1,0,0.1,0
		c0,0,0,0,0,0c0.1,0,0.1,0,0.2-0.1c0.6,0,1.2,0,1.8,0c0.8,0,1.7,0,2.5,0c0,0,0,0,0,0c-0.1,0-0.2,0-0.3,0.1c-0.3,0-0.5,0.3-0.4,0.6
		c0,0.2,0.2,0.4,0.5,0.4h0h0.1c0,0,0,0,0,0c-0.1,1.8,0,3.6,0.4,5.4c0.1,0.2,0.3,0.4,0.5,0.4c0,0,0.1,0,0.1,0c0,0,0,0,0,0
		c0.3-0.1,0.4-0.3,0.4-0.6c-0.2-1.1-0.3-2.2-0.4-3.3c0.2-0.1,0.5-0.2,0.9-0.4c-0.1,0.8-0.1,1.7,0,2.5c0.1,0.2,0.3,0.4,0.5,0.4
		c0,0,0.1,0,0.1,0c0.3-0.1,0.4-0.3,0.4-0.6c-0.2-0.9-0.1-1.9,0.1-2.8c1.1-0.5,2.4-1.1,3.6-1.9c0.6,0,1.2,0.1,1.8,0.1
		c-1.1,0.7-2.3,1.3-3.5,1.8c-0.2,0.1-0.3,0.3-0.3,0.5c0,0.3,0.2,0.5,0.5,0.5c0.1,0,0.1,0,0.2,0c1.7-0.7,3.4-1.5,4.9-2.6
		c1.5,0.1,2.9,0.2,4.3,0.3c0,0.2,0,0.5,0.1,0.7c0,0.3,0.2,0.5,0.5,0.5h0h0c0,0,0,0,0,0c0.3,0,0.5-0.2,0.5-0.5c0-0.2,0-0.4,0-0.6
		c0.2,0,0.3,0,0.5,0c0.1,0.4,0.1,0.7,0.2,1.1c0.1,0.2,0.3,0.4,0.5,0.4c0,0,0.1,0,0.1,0c0,0,0,0,0,0c0.3-0.1,0.4-0.3,0.4-0.6
		c0-0.2-0.1-0.5-0.1-0.7c2.4,0.3,4.6,0.6,6.6,0.9c-0.4,0.2-0.9,0.3-1.4,0.3c-0.3,0-0.5,0.3-0.4,0.6c0,0.2,0.2,0.4,0.5,0.4h0.1
		c1-0.2,2-0.5,2.9-1c0.5,0.1,0.9,0.2,1.4,0.3c-2,1-3.9,1.7-3.9,1.7c0,0,0,0,0,0c-0.3,0.1-0.4,0.4-0.3,0.6c0.1,0.2,0.3,0.3,0.5,0.3
		c0.1,0,0.1,0,0.2,0c0.1,0,2.6-0.9,5.1-2.3c0.4,0.1,0.9,0.2,1.3,0.3c-0.7,0.4-1.4,0.7-2.2,1c-0.3,0.1-0.4,0.4-0.3,0.6
		c0.1,0.2,0.3,0.3,0.5,0.3c0.1,0,0.1,0,0.2,0c1.1-0.4,2.2-0.9,3.2-1.5c0,0,0,0,0.1,0c0.1,0.8,0.2,1.9,0.5,2.9
		c-1.1-0.3-2.6-0.6-4.5-0.9c-3.8-0.4-7.7-0.1-11.4,0.6c1.3-0.7,2.6-1.6,3.7-2.6c0.2-0.2,0.2-0.5,0-0.7c-0.2-0.2-0.5-0.2-0.7,0
		c-1.8,1.6-3.9,2.9-6.2,3.8c-0.2,0.1-0.3,0.2-0.3,0.4c-0.7,0.2-1.3,0.4-2,0.6c-0.8,0.3-1.5,0.4-2.1,0.5c0,0,0,0,0,0
		c-0.1,0-0.3,0-0.4,0c-0.9,0-1.8-0.1-3.1-0.3c-2.2-0.4-4.4-0.7-6.6-0.8c-1.5-0.1-3.4-0.2-5.4-0.3c1.9-0.9,3.6-2,5.1-3.4
		c0.2-0.2,0.2-0.5,0-0.7s-0.5-0.2-0.7,0c-1.8,1.6-3.9,2.9-6.2,3.8c-0.1,0-0.2,0.1-0.3,0.2c-0.6,0-1.3,0-1.9-0.1
		c1.7-0.7,4.2-2,5.9-3.4c0.2-0.2,0.2-0.5,0.1-0.7c-0.2-0.2-0.5-0.2-0.7-0.1c-2.6,2.3-7.5,4-7.5,4c-0.1,0-0.1,0.1-0.2,0.1
		c-1.6,0-3.2-0.1-4.9-0.1c-0.2-1.2-0.4-2.5-0.4-3.7c0.3-0.1,0.6-0.2,1-0.4c-0.2,1-0.2,2,0,3c0.1,0.2,0.3,0.4,0.5,0.4
		c0,0,0.1,0,0.1,0c0.3-0.1,0.4-0.3,0.4-0.6c-0.2-1.1-0.1-2.2,0.2-3.3c1-0.4,2.1-1,3.1-1.7c0.6,0,1.3,0,2-0.1
		c-1.2,0.8-2.4,1.4-3.8,1.9c-0.2,0.1-0.3,0.3-0.3,0.5c0,0.3,0.2,0.5,0.5,0.5c0.1,0,0.1,0,0.2,0c1.9-0.7,3.6-1.7,5.2-2.9
		c0.8,0,1.6,0,2.4,0C122.3,8.9,122.3,9.1,122.3,9.3z M110,11.7L110,11.7C110,11.7,110,11.7,110,11.7C110,11.7,110,11.7,110,11.7z
		 M111.8,9c0.7,0,1.4-0.1,2.1-0.1c-1.2,0.6-2.3,1.1-3.1,1.4c0-0.3,0-0.6,0.1-1C111.2,9.3,111.5,9.1,111.8,9z M91.9,11.5
		c0,0.3,0.2,0.5,0.5,0.5h0c0.3,0,0.5-0.2,0.5-0.5c0-0.2,0-0.4,0-0.6c0.2,0,0.3-0.1,0.5-0.1c0.1,0.4,0.1,0.8,0.2,1.2
		c0.1,0.2,0.3,0.4,0.5,0.4c0,0,0.1,0,0.1,0c0.3-0.1,0.4-0.3,0.4-0.6c-0.1-0.4-0.1-0.8-0.2-1.1c0.2,0,0.5-0.1,0.8-0.1
		c0,0,0,0.1,0,0.1c0.1,0.2,0.3,0.4,0.5,0.4c0,0,0.1,0,0.1,0c0.3-0.1,0.4-0.3,0.4-0.6c0,0,0,0,0,0c3.3-0.5,7.6-0.9,12.8-1.2
		c0,0,0,0.1,0,0.2c0,0.2,0.2,0.4,0.5,0.4h0.1c0.1,0,0.3-0.1,0.4-0.1c0,0.4,0,0.7-0.1,1.1c-0.2,0.1-0.4,0.4-0.3,0.6
		c0,0.1,0.2,0.2,0.3,0.3c0,1.2,0.1,2.3,0.4,3.5c-0.2,0-0.4,0-0.6,0c0-0.1,0-0.1,0-0.2c-0.1-1.8-0.4-3.6-0.9-5.3c0,0,0,0,0,0
		c-0.1-0.3-0.4-0.4-0.6-0.3c0,0,0,0,0,0c-0.3,0.1-0.4,0.4-0.3,0.6c0,0,0,0.1,0,0.1c0,0-0.1,0-0.1,0.1c-1.8,1.6-3.9,2.9-6.2,3.8
		c-0.2,0.1-0.3,0.3-0.3,0.5c0,0.3,0.2,0.5,0.5,0.5c0.1,0,0.1,0,0.2,0c2.3-0.9,4.4-2.2,6.3-3.8c0.3,1.3,0.5,2.6,0.6,3.9
		c0,0.1,0,0.1,0,0.2C104.2,15,99.7,15,95.9,15c-1.4,0-2.4,0-3-0.1c0.1-0.2,0.1-0.4,0.1-0.6c-0.1-0.6-0.5-1.1-1.1-1.3
		c-1.3-0.6-3.6-0.6-5.7-0.5c1.2-0.5,3.1-1,5.7-1.6C91.9,11.2,91.9,11.4,91.9,11.5z M31.8,63.3c2.4-0.4,3.4-0.5,4-0.7
		c0.7-0.1,8.1-1,19.6,1.8c13.2,3.2,32.6,5.5,36.7,5.5c3,0,4.1-1,4.8-2.2c0.9,0.1,3.7,0.3,6.5,0.6c9.2,0.9,24.7,2.5,33.4,2.5
		c9,0,23.9-0.8,31.9-1.3c2.4-0.1,4.5-0.2,5-0.3c0.3,0.2,0.6,0.4,0.8,0.7c1.2,1.2,2.8,2,4.6,2.1l0,0c2.8,0,15.7-2.2,21.1-3.4
		c3-0.7,5.9-1.7,8.6-3.1c1.2,0.4,3.6,1.4,8.6,3.1c4.1,1.2,8.3,2,12.6,2.2c1.3,0.1,2.8,0.3,3.8,0.4c-4.1,4.8-12.3,7.7-16,9l-0.4,0.2
		c-3.4,1-6.8,1.7-10.3,2.1c-1,0.2-1.8,0.3-2.3,0.4c-1.1,0.2-2.1,0.8-2.8,1.8c-1.2,0.2-4.3,0.8-8.5,1.5c-3.2,0.5-7.6,0.2-12.7-0.1
		c-3.2-0.2-6.8-0.4-10.5-0.4c-3.8,0-7.7,0-11.2,0.1c-0.1,0-0.1,0-0.2-0.1c-0.2,0-0.3,0-0.5,0.1c-4.6,0.1-8.3,0.3-10,0.5l-1.3,0.1
		c-3.3,0.3-10,0.9-12.3,0.7s-4.2-2.4-4.3-2.4c-0.2-0.2-0.5-0.4-0.8-0.3c-0.1,0-7.5,0.8-19.1,0.8c-8.5,0-10.4-1-11.7-1.6
		c1.5-1.1,3.8-2.6,5.4-3.4c0.5-0.3,0.7-0.9,0.4-1.4c-0.3-0.5-0.9-0.7-1.4-0.4c-0.5,0.3-4.9,2.8-6.7,4.5c-1.5-0.1-4.1,0.3-7.1,0.8
		c-1.3,0.2-2.4,0.4-3,0.4c-0.8,0-4.4-0.6-7.8-1.2c-3.1-0.5-6.6-1.1-9.6-1.5L67.1,81c-8.2-0.9-16.3-2.4-24.3-4.5
		c-7.1-1.7-14.4-2.4-21.7-1.9c-1.1,0-2.1,0.1-2.9,0.1c-1.5,0.2-3.1-0.5-4-1.8c-0.9-1.1-2-2-3.3-2.7c-1.5-0.8-3.2-1.3-4.8-1.5
		C9.3,67.4,16.5,65.7,31.8,63.3z M225.9,116c0,0.1,0,0.3,0,0.4c-3.9,1.9-7.9,3.5-12.1,4.7c0.1-2.4,0.4-4.7,0.9-7.1
		c0.8-5.1,1-7,0.3-7.7c-0.4-0.4-0.9-2.1-1.2-3.9c4.4-1.2,8.6-2.3,12.5-3c-0.8,1.6-1.3,3.8-1.3,6.5C225,108.4,225.4,112.1,225.9,116z
		 M213.3,122.6L213.3,122.6L213.3,122.6C213.3,122.6,213.3,122.6,213.3,122.6z M211.9,123L211.9,123C211.9,123,211.9,123,211.9,123
		C211.9,123,211.9,123,211.9,123z M202.2,125.3c-0.8,0.6-1.5,1.2-4.6,2c-6.4,1.7-32.2,3.4-38,3.8c0.2-3.5,1-14.3,1.1-19.6
		c6.1-0.4,21.2-1.9,30.7-3.5c6.2-1,12.7-2.8,18.9-4.5c0.4-0.1,0.9-0.2,1.3-0.4c0.5,5.4,0,15.8-0.2,18.6c-0.2,0.1-0.4,0.1-0.7,0.2
		C204.6,123.4,203.3,124.4,202.2,125.3z M155.4,129.2c0-3.4,0.3-6.8,0.7-10.2c0.3-2.5,0.5-5,0.6-7.6c0.5,0.2,1,0.2,1.5,0.3v0
		c0.1,0,0.2,0,0.4,0c-0.1,5-0.8,14.9-1,18.8L155.4,129.2z M103.6,126.5L103.6,126.5C103.6,126.5,103.6,126.5,103.6,126.5
		C103.6,126.5,103.6,126.5,103.6,126.5z M94.9,143c-0.6-0.7-1.1-1.4-1.4-2.3c-0.2-1.2-0.3-2.4-0.3-3.7c0.1-1.2-0.1-2.3-0.5-3.4
		c-0.4-0.6-0.5-2.1,0-4.3c0.7-0.1,1.5-0.6,2.1-1c0.8-0.6,1.7-1,2.6-1.2c0.1,0,0.2,0,0.3,0c0.2,1.1,0.1,4,0.1,5.8
		c0,1.1-0.1,2.2-0.1,3.1c0,1.8,0.5,3.5,1.3,5.1C98,141.7,96.4,142.4,94.9,143z M36.9,119.7c-0.3-2.3-0.5-4.7-0.6-7
		c-0.1-3.9-0.1-4.3-1.6-5.5c-0.2-0.2-0.4-0.3-0.7-0.6c-0.9-0.7-1.1-1.9-1.2-2.9c1.7,0.1,3.4,0.2,5.1,0.2c9.6,0,26.3,2.5,38.5,4.3
		c6.6,1,11.7,1.8,14.3,2c-0.6,2.3-0.5,5.1-0.4,7.2c0,0.6,0,1.1,0,1.4c0,1,0.2,2,0.3,3c0.3,1.6,0.5,3.4,0.4,4.9c-5-1.8-26.8-2-27.1-2
		c-3.7,0-7.5-1-11.9-2.2C47.2,121.1,42.1,120.1,36.9,119.7z M36.6,121.3L36.6,121.3C36.6,121.3,36.6,121.3,36.6,121.3
		C36.6,121.3,36.6,121.3,36.6,121.3z M34.3,108.1c1,0.8,1,1,1,4.6c0,2.3,0.2,4.6,0.6,6.9c-0.4,0-0.8-0.1-1.1-0.1c-0.3,0-0.7,0-1,0
		C34,117.3,34.6,111.9,34.3,108.1z M8.9,95.7c-0.6-0.3-1.3-0.6-2.1-0.7c-0.2-3-0.2-6,0-9c0.1-2.4,0.2-4.9,0.2-7.2
		c0-4.8-1.2-6.3-2.5-7.5c-0.3-0.2-0.5-0.5-0.6-0.8c2,0.1,4,0.6,5.9,1.5c1.1,0.6,2,1.4,2.7,2.3c0.5,0.6,1,1.1,1.7,1.6
		c0.6,0.9,1.8,5.3,2.3,12.8c0.1,2.5,0.1,4.9,0,7.4c0,0.5-0.1,1-0.1,1.5C13.4,96.8,10.7,96.2,8.9,95.7z M18.5,97.8c0-0.4,0-1,0.1-1.7
		c0.2-2.5,0.2-5.1,0-7.6c-0.3-4.9-1-9.2-1.8-11.8c0.4,0,0.8,0.1,1.3,0.1c0.9,0,1.9,0,3-0.1c7-0.5,14.1,0.2,21,1.8
		c0.5,6.3,1.1,15.2,0.8,16.3c-0.2,0.9,0.2,1.8,0.7,2.8c0.5,0.7,0.8,1.6,0.9,2.5c-2.4-0.2-4.7-0.3-6.7-0.3
		C31.2,99.8,24.2,98.9,18.5,97.8z M170.4,87.6c3.6,0,7,0.2,10.4,0.4c5.2,0.3,9.7,0.6,13.1,0c3.4-0.5,6.1-1.1,7.7-1.4
		c-0.4,2.9-1.2,9.8-0.5,15.1c-3.5,0.9-7.1,1.7-10.5,2.3c-10.4,1.7-27.2,3.3-31.5,3.6c-0.2-4-0.4-13.2,0.7-19.9
		C163.1,87.7,166.7,87.6,170.4,87.6z M202.4,104.4L202.4,104.4C202.4,104.4,202.4,104.4,202.4,104.4
		C202.4,104.4,202.4,104.4,202.4,104.4z M158.2,110.7L158.2,110.7L158.2,110.7C158.2,110.7,158.2,110.7,158.2,110.7z M156.8,106.4
		c-0.1-0.4-0.4-0.7-0.7-0.9c0.3-4.5,0.8-10.1,1.2-14c-0.5,5.7-0.4,11.8-0.2,15.3C157,106.7,156.9,106.6,156.8,106.4z M154.1,105.2
		c-1.9,0-7,0.2-12.3,0.3c-0.1-3.6-0.2-11.6,0.7-16.7c1.8-0.1,3.6-0.3,4.9-0.4l1.3-0.1c1.1-0.1,3.7-0.3,7.1-0.4
		C155.1,91.8,154.4,101.1,154.1,105.2z M140.8,105.5c-3,0.1-6.1,0.1-8.7,0.1c1.4-4,3-10.7,3.2-16.5c0.3,0,0.6,0,1,0
		c1.4,0,3.3-0.1,5.2-0.2C140.6,94.1,140.7,102,140.8,105.5z M131.2,105.1c0.3-5.1-0.3-13.9-0.6-17.8c1.1,0.8,2.4,1.4,3.7,1.7
		C134,94.5,133,99.9,131.2,105.1z M129.5,86.3c0.3,3.3,1.1,14.1,0.7,19.3c-0.8,0-1.6,0-2.2,0c-4.4,0-12.9-0.6-19.8-1.1
		c-4.1-0.3-7.4-0.5-8.8-0.6c-0.1-3-0.3-6-0.6-9L98.5,94c-0.4-2.2-1.2-7-0.8-8.9c0.1,0.1,0.3,0.1,0.4,0.2c1.4,0.7,3.6,1.8,12.6,1.8
		C120.7,87.1,127.6,86.5,129.5,86.3z M97.1,125.1c-1.2,0.3-2.3,0.7-3.4,1.5c-0.2,0.1-0.4,0.3-0.6,0.4c0.2-1.8-0.1-3.8-0.4-5.4
		c-0.2-0.9-0.3-1.8-0.3-2.7c0-0.4,0-0.9,0-1.5c-0.1-2-0.2-5.1,0.5-7.1c2.8-0.1,4-0.9,5-1.7c0.1-0.1,0.2-0.2,0.4-0.3
		c0,3.9-0.1,12.1-0.1,14c0,0.8-0.3,1.6-0.7,2.2C97.3,124.6,97.2,124.8,97.1,125.1C97.1,125.1,97.1,125.1,97.1,125.1z M92.7,106.1
		c-0.1-2.6,0-7.7,0.1-11.1c0.1-2.7,0.1-4.5,0.1-5.4c0.6-0.6,1.8-1.8,2.7-3.2c0,2.1,0.4,4.9,0.9,7.9l0.2,1.1c0.3,2.9,0.5,5.9,0.6,8.9
		c-0.7,0.2-1.3,0.6-1.9,1C94.9,105.7,94.4,106.1,92.7,106.1z M92.1,87.6c-0.6-0.7-1.5-1.4-2.4-2c0.1,0,0.1,0,0.2,0
		c1.2-0.2,2.8-0.5,4.1-0.6C93.6,85.9,92.8,86.8,92.1,87.6z M86.5,86c2.2,1.1,4.3,2.6,4.4,3.2c0,0.5,0,3.1-0.1,5.7
		c-0.1,5.5-0.2,9-0.1,11.1c-2.6-0.2-7.8-1-13.7-1.9c-9.5-1.4-21.7-3.3-31.3-4c-0.1-1.1-0.5-2.1-1.1-3c-0.4-0.6-0.7-1.4-0.7-2.1
		c0.4-1.5-0.4-12.5-0.8-16.3c7.8,1.9,15.7,3.4,23.7,4.3l2.2,0.3c2.9,0.4,6.4,1,9.5,1.5C82.7,85.6,85.3,86,86.5,86z M100.2,122.2
		c0-1.9,0-10.2,0.1-14.1c0.9,0,2.1,0.1,3.5,0.2c0.3,6.4,0.5,14.8-0.4,17.1c-1.4-0.2-2.8-0.3-4-0.4
		C99.9,124.1,100.2,123.2,100.2,122.2z M104.8,108.4c1,0.1,2,0.1,3.1,0.2c6.9,0.5,15.6,1.1,20.1,1.1c6.2,0,21.6-0.3,25.9-0.4
		c0.3,0.4,0.6,0.8,0.9,1.1c-0.1,2.8-0.3,5.7-0.7,8.5c-0.4,3.3-0.7,6.5-0.7,9.8c-1.5-0.3-4.3-0.8-8.1-1.4c-6.2-1-34-1-34.2-1
		c-1.5,0-3.8-0.3-6.1-0.6c-0.2,0-0.4,0-0.6-0.1C105.4,122.2,105,112.7,104.8,108.4z M212.6,102.9c0.1,0,0.2-0.1,0.3-0.1
		c0.3,1.6,0.8,3.7,1.4,4.3c0.3,0.5-0.2,4.1-0.6,6.8c-0.5,2.5-0.8,5-0.9,7.5c-0.1,0-0.3,0.1-0.4,0.1
		C212.6,118.3,213.1,108.2,212.6,102.9z M209.2,99.6c-2,0.6-4.1,1.1-6.1,1.6c-0.7-6,0.5-14.6,0.7-15.6c0.3-0.6,0.8-0.9,1.5-0.9
		c0.5-0.1,1.3-0.2,2.2-0.4c2.3-0.3,4.7-0.7,7-1.3c-0.5,4,0.4,11.4,0.9,14.8C213.3,98.5,211.3,99.1,209.2,99.6z M31.8,103.6
		c0.1,1.2,0.4,2.7,1.4,3.6c0.4,3.6-0.2,9.8-0.4,12.2c-8.7-0.8-18.6-5.2-22.8-7.2c0.2-2.7,0.6-6.1,1.1-10.3c0.1-0.7,0.1-1.2,0.2-1.5
		C16.2,101.6,23.8,103.1,31.8,103.6z M19.8,134c-2,0-2.5-0.4-2.5-4.2c0-3.4-2.7-4.4-4.5-5c-1-0.3-1.9-0.8-2.8-1.4
		c-0.3-0.6-0.7-2.7-0.3-9c5,2.4,15.7,6.9,24.9,7.2c3.2,0.2,6.4,0.6,9.6,1.2c1.4,5.4,1.4,13.8,1.3,17.7c-3.7-1-7.5-2-10.8-2.9
		C26.2,135.2,21.6,134,19.8,134z M84.2,143.8c-5.5,0.2-13,0.4-19.2,0.4c-3.7,0-11-1.6-18.4-3.5c0.1-3.8,0.1-12-1.2-17.7
		c2.1,0.4,4.2,1,6.3,1.6c4.4,1.1,8.5,2.2,12.4,2.2c10.5,0,25.1,0.9,26.5,1.9c0,0,0.1,0.1,0.1,0.1c-0.8,3.5-0.2,5.2,0.2,5.8
		c0.2,0.8,0.3,1.7,0.3,2.5c0,1.3,0.2,2.6,0.4,3.9c0.2,1,0.6,1.8,1.2,2.5c-0.2,0-0.4,0-0.6,0C90.5,143.6,87.7,143.6,84.2,143.8z
		 M139.9,143.3c-2.8,0.1-6,0.3-9.3,0.3c-10.2,0-29.1-3.3-29.3-3.3c-0.2,0-0.3,0-0.5,0c-0.7-1.3-1.1-2.7-1.1-4.2c0-0.9,0-2,0.1-3.1
		c0.1-2.8,0.1-4.6-0.1-5.9c1.7,0.1,3.3,0.2,5,0.5c2.1,0.3,4.2,0.5,6.3,0.6c5.8,0,28.6,0.2,33.9,1c4,0.6,7,1.2,8.4,1.5
		c-0.2,5.6-2.7,10.4-4,12.7C147,143,143.9,143.1,139.9,143.3z M151.4,143.7c1.4-2.5,3.5-6.9,3.9-12.2l2.2,1.3
		c0.6,3.1,1.7,10.3,1.1,12.7c-0.4,1.2-1.1,2.4-2,3.3c-0.5,0.1-0.9,0.1-1.1,0.1h-0.1l0,0h0c-0.2-0.3-0.3-0.6-0.4-0.9
		c-0.4-1.2-1-2.3-1.9-3.2C152.7,144.3,152.1,143.9,151.4,143.7z M199.6,141.9c-12.5,3.6-31.9,5.8-40.2,6.7c0.5-0.8,0.9-1.6,1.2-2.5
		c0.7-2.9-0.4-10-0.9-12.9c5.8-0.4,31.7-2.1,38.4-3.9c3.5-0.9,4.4-1.6,5.4-2.4c0.5-0.4,1-0.8,2-1.2c-0.3,3.1-0.7,9.8-0.1,14.5
		C203.5,140.7,201.6,141.3,199.6,141.9z M226.6,131.8c-1.2,1.1-5.3,3.5-19.4,7.8c-0.5-5,0.1-12.5,0.3-14.7c1-0.3,2.2-0.7,3.8-1.1
		c7.1-1.8,12.2-3.9,14.9-5.2C226.7,123.8,227.3,130.3,226.6,131.8z M230.8,94.9C230.8,94.9,230.7,94.9,230.8,94.9
		c-0.1,0-0.1,0-0.2,0c-4.4,0.4-9.3,1.5-14.3,2.8c-0.5-3.6-1.4-11.2-0.8-14.8c0.9-0.2,1.8-0.5,2.7-0.7l0.4-0.2
		c3.5-1.2,10.8-3.7,15.4-8v20.6C232.9,94.8,231.9,94.9,230.8,94.9z"/>
	<polygon points="175.2,21 175.2,21 175.2,21 	"/>
	<path d="M137.5,14.3C137.5,14.3,137.6,14.2,137.5,14.3c1.3-0.2,2.4-0.6,3.4-1.3c0,0,0,0,0,0c0.2-0.2,0.3-0.5,0.1-0.7c0,0,0,0,0,0
		c-0.2-0.2-0.5-0.3-0.7-0.1c-0.9,0.6-1.9,0.9-2.9,1.1c-0.3,0-0.5,0.3-0.5,0.5C137,14.1,137.2,14.3,137.5,14.3z"/>
	<polygon points="114.5,11.7 114.5,11.7 114.5,11.7 	"/>
	<path d="M129.1,14.6c0,0.3,0.2,0.5,0.5,0.5h0c0,0,0,0,0,0c0.3,0,0.5-0.2,0.5-0.5c-0.1-1.8-0.4-3.6-0.9-5.3
		c-0.1-0.3-0.4-0.4-0.6-0.3c-0.3,0.1-0.4,0.4-0.3,0.6C128.7,11.2,129,12.9,129.1,14.6z"/>
	<polygon points="95.6,11 95.6,11 95.6,11 	"/>
	<path d="M137.6,15.7c0,0.3,0.2,0.5,0.5,0.5c0.1,0,0.1,0,0.2,0c0.2-0.1,5.1-1.8,7.8-4.2c0.2-0.2,0.2-0.5,0-0.7
		c-0.2-0.2-0.5-0.2-0.7-0.1c-2.6,2.3-7.5,4-7.5,4C137.7,15.3,137.6,15.5,137.6,15.7z"/>
	<polygon points="137.5,14.3 137.5,14.3 137.5,14.3 	"/>
	<path d="M96.4,12.9C96.4,12.9,96.5,12.8,96.4,12.9c1.3-0.2,2.4-0.6,3.4-1.3c0,0,0,0,0,0c0.2-0.2,0.3-0.5,0.1-0.7c0,0,0,0,0,0
		c-0.2-0.2-0.5-0.3-0.7-0.1c-0.9,0.6-1.9,0.9-2.9,1.1c-0.3,0-0.5,0.3-0.5,0.5C95.9,12.7,96.2,12.9,96.4,12.9z"/>
	<polygon points="94,12.4 94,12.4 94,12.4 	"/>
	<polygon points="138.1,16.2 138.1,16.2 138.1,16.2 	"/>
	<polygon points="96.4,12.9 96.4,12.9 96.4,12.9 	"/>
	<polygon points="97,14.8 97,14.8 97,14.8 	"/>
	<path d="M96.5,14.3c0,0.3,0.3,0.5,0.5,0.5c0.1,0,0.1,0,0.2,0c0.2-0.1,5.1-1.8,7.8-4.2c0,0,0,0,0,0c0.2-0.2,0.2-0.5,0-0.7
		c-0.2-0.2-0.5-0.2-0.7-0.1c-2.6,2.3-7.5,4-7.5,4C96.6,13.9,96.5,14.1,96.5,14.3z"/>
	<polygon points="101.5,14.8 101.5,14.8 101.5,14.8 	"/>
	<polygon points="135.4,11.7 135.4,11.7 135.4,11.7 	"/>
	<polygon points="146.9,10.9 146.9,10.9 146.9,10.9 	"/>
	<polygon points="153.1,13.7 153.1,13.7 153.1,13.7 	"/>
	<polygon points="157.6,13.7 157.6,13.7 157.6,13.7 	"/>
	<path d="M119.3,12.2c-0.2-0.2-0.5-0.3-0.7-0.1c-0.9,0.6-1.9,0.9-2.9,1.1c-0.3,0-0.5,0.3-0.5,0.5c0,0.3,0.3,0.5,0.5,0.5
		c0,0,0,0,0.1,0c1.2-0.2,2.3-0.6,3.3-1.3c0,0,0,0,0,0C119.4,12.7,119.5,12.4,119.3,12.2C119.3,12.2,119.3,12.2,119.3,12.2z"/>
	<polygon points="112.2,14.4 112.2,14.4 112.2,14.4 	"/>
	<polygon points="115.8,14.1 115.8,14.1 115.8,14.1 	"/>
	<polygon points="124.4,10.2 124.4,10.2 124.4,10.2 	"/>
	<polygon points="126,8.7 126,8.7 126,8.7 	"/>
	<polygon points="132.8,14.1 132.8,14.1 132.8,14.1 	"/>
	<polygon points="131.3,15.5 131.3,15.5 131.3,15.5 	"/>
</g>
</svg>
