<?xml version="1.0" encoding="utf-8"?>
<!-- Generator: Adobe Illustrator 21.0.2, SVG Export Plug-In . SVG Version: 6.00 Build 0)  -->
<svg version="1.1" id="Слой_1" xmlns="http://www.w3.org/2000/svg" xmlns:xlink="http://www.w3.org/1999/xlink" x="0px" y="0px"
	 viewBox="0 0 238 152.9" style="enable-background:new 0 0 238 152.9;" xml:space="preserve">
<style type="text/css">
	.st0{fill:#161616;}
</style>
<g>
	<path class="st0" d="M235.1,86.6V61.7c0-2.5-2.7-2.8-7.3-3.2c-3.4-0.3-7.7-0.7-11.4-1.9c-4.4-1.5-6.7-2.3-7.9-2.8
		c-0.4-7.6-0.6-16.2-0.2-17.6c0.3-0.6,0.3-1.3,0-1.9c-0.8-1.4-2.2-1.7-10.5-2.4c0.1-0.8,0.3-1.7,0.5-2.5c0.1-0.3-0.1-0.5-0.4-0.6
		c-0.3-0.1-0.5,0.1-0.6,0.4c-0.2,1-0.4,1.9-0.5,2.7c-0.3,0-0.5,0-0.8-0.1c-5-0.5-14-1.3-16.4-2.3c-0.1-0.5-0.2-0.9-0.6-1.4
		c-0.5-0.7-1.4-1.8-7.6-2.5c0,0,0,0,0-0.1c0.1-0.3,0-0.5-0.3-0.6s-0.5,0-0.6,0.3c0,0.1-0.1,0.2-0.1,0.3c-0.4,0-0.7-0.1-1.1-0.1
		c0.1-1.2,0.2-2.5,0.6-3.9c0.1-0.3-0.1-0.5-0.4-0.6s-0.5,0.1-0.6,0.4c-0.4,1.5-0.6,2.8-0.6,4c-0.3,0-0.7-0.1-1.1-0.1
		c0-0.2-0.1-0.3-0.1-0.5c-0.1-0.3-0.4-0.4-0.6-0.3c-0.3,0.1-0.4,0.4-0.3,0.6v0.1c-4.4-0.3-10.3-0.5-18.4-0.5V5.9
		c0-2.6-3.5-3.6-7.4-4.3c-3.8-0.7-8.9-1-14.2-1c-5.4,0-10.4,0.4-14.2,1c-3.8,0.7-7.4,1.7-7.4,4.3v19C97.3,25,89.8,25.2,83,25.9
		c0.1-0.5,0.2-1,0.3-1.5c0.1-0.3-0.1-0.5-0.4-0.6c-0.3-0.1-0.5,0.1-0.6,0.4c-0.2,0.6-0.3,1.3-0.4,1.9c-1,0.1-1.9,0.3-2.9,0.4
		c-2,0.3-13,2.1-22.7,3.8c0.1-0.9,0.3-1.9,0.5-2.9c0.1-0.3-0.1-0.5-0.4-0.6c-0.3-0.1-0.5,0.1-0.6,0.4c-0.3,1.2-0.5,2.2-0.6,3.3
		c-0.4,0.1-0.8,0.1-1.3,0.2l0,0c-0.1-0.3-0.4-0.4-0.6-0.3c-0.2,0.1-0.4,0.3-0.3,0.5c-7.4,1.3-13.5,2.2-13.5,2.2
		c-0.6,0.1-1.1,0.4-1.4,0.9c-0.3,0.5-0.4,1.1-0.2,1.6c0.8,2.6,2.4,10,0.5,13.5c-0.4,0.8-1,1.3-1.8,1.5c-0.3,0.1-1.9,0.3-3.6,0.6
		c-23,3.7-30.3,6.1-30.3,10.1c0,2.5,0.9,3.6,1.9,4.6C5.3,66.4,6,67,6,70.3c0,2.1-0.1,4.5-0.2,6.8c-0.5,7.5-0.5,10.4,1,11.9
		c0.4,0.4,0.9,0.7,1.5,0.8c0.3,0.1,0.9,0.3,1.8,0.5c0,1.6-0.5,8.3-1.8,11.6c0,0,0,0,0,0.1c0,0.1,0,0.1-0.1,0.2c0,0.1,0,0.1,0,0.2
		c0,0.1,0,0.1,0,0.2c0,0.1,0,0.1,0,0.2c0,0.1,0,0.1,0,0.2c0,0.1,0,0.1,0,0.2c0,0.1,0,0.1,0.1,0.2c0,0.1,0,0.1,0.1,0.2
		c0,0.1,0.1,0.1,0.1,0.2c0,0.1,0.1,0.1,0.1,0.2c0,0.1,0.1,0.1,0.1,0.1l0.1,0.1l0.1,0.1c0.1,0,0.1,0.1,0.2,0.1c0,0,0,0,0.1,0
		c0.3,0.1,2.8,1.5,6.5,3c-0.6,0.3-1.3,0.6-1.9,1c-4.1,2.4-6.2,5.8-6.2,10c0,10,10.1,16,19.9,16c1.7,0,3.3-0.1,5.1-0.1
		c8.1-0.3,16.5-0.6,21.7,4.7c7.8,7.8,22.8,12.8,38.4,12.8c3.1,0,6.7,0.1,10.4,0.3c4.1,0.2,8.4,0.3,12.7,0.3
		c12.5,0,25.2-1.4,31.9-8.1c7.5-7.5,15.9-6.3,24.7-5.2c3.3,0.5,6.6,1,10,1c6.3,0,13.6,0.9,20.8,1.8c6.3,0.8,12.4,1.6,17.1,1.6
		c6,0,12-3.7,14.1-8.8c1.7-3.9,0.7-7.9-2.7-11.3c-2.7-2.7-5.5-4.5-7.7-5.8c-2.2-1.5-3.9-2.4-4-3.6c-0.1-0.7,0.4-1.7,1.3-2.8
		c3.2-1.4,5.1-2.4,5.2-2.5l0,0c0.1,0,0.1-0.1,0.2-0.1s0.1-0.1,0.2-0.1l0,0c2.1-2.1,1.4-4.3,0.8-6c-0.5-1.4-1.1-3-1.1-5.6
		c0-4.1,1.8-6.1,2.4-6.9C233.2,89.6,235.1,88.6,235.1,86.6z M228.1,85.9L228.1,85.9c-0.1,0-0.1,0-0.2,0c-0.1,0-0.2,0-0.3,0l3.6-3.6
		v3.2C230.5,85.7,229.3,85.9,228.1,85.9z M223.8,103.7c0.5,1.3,0.5,1.5,0.3,1.8c-1,0.6-5.4,2.8-12.5,4.9c0.2-1.8,0.5-3.9,0.8-5.8
		c0.8-4.9,1-6.8,0.3-7.4c-0.4-0.4-0.9-2-1.2-3.7c4.3-1.2,8.4-2.1,12.2-2.8c-0.8,1.6-1.3,3.7-1.3,6.3
		C222.4,99.9,223.2,102.2,223.8,103.7z M199.5,114.7c-0.7,0.6-1.4,1.1-4.2,1.8c-1.8,0.5-5,0.9-8.8,1.4l0.3-0.2
		c0.2-0.1,0.2-0.3,0.1-0.5c-0.1-0.2-0.3-0.2-0.5-0.1l-0.7,0.4c-0.2,0.1-0.2,0.3-0.1,0.5c-1.5,0.2-2.9,0.3-4.5,0.5c0-0.1,0-0.2,0-0.2
		c-0.1-0.2-0.3-0.2-0.5-0.1l-0.7,0.4c0,0-0.1,0-0.1,0.1c-8.6,0.8-17.9,1.5-21.3,1.7c0.3-4.2,0.9-13.4,1-18
		c5.9-0.4,20.7-1.9,29.9-3.4c0.3,0,0.6-0.1,0.8-0.1l0,0l-0.7,0.4c-0.2,0.1-0.2,0.3-0.1,0.5c0.1,0.1,0.2,0.2,0.3,0.2
		c0.1,0,0.1,0,0.2-0.1l0.7-0.4c0.2-0.1,0.2-0.3,0.1-0.5c-0.1-0.1-0.2-0.2-0.3-0.2c5.2-0.9,10.5-2.3,15.8-3.7c0,0,0,0,0.1,0
		s0.1,0,0.2-0.1l0.1-0.1c0.5-0.1,0.9-0.2,1.4-0.4c0.4-0.1,0.9-0.2,1.3-0.4c0.1,1.4,0.2,3,0.2,4.8l-0.4,0.2c-0.2,0.1-0.2,0.3-0.1,0.5
		c0.1,0.1,0.2,0.2,0.3,0.2s0.1,0,0.2-0.1l0,0c0,3.1-0.1,6.5-0.2,9.1l-0.2,0.1c-0.2,0.1-0.2,0.3-0.1,0.5c0.1,0.1,0.2,0.2,0.3,0.2
		c0,0.6-0.1,1.2-0.1,1.6c-0.3,0.1-0.6,0.2-0.9,0.2C202.6,112.6,201,113.5,199.5,114.7z M144.8,116.2c-6.2-1-33.3-1.1-33.5-1.1
		c-1.5,0-3.7-0.3-5.8-0.5c-0.2,0-0.3,0-0.5-0.1c0.7-3.8,0.4-11.9,0.2-15.7c1,0.1,1.9,0.1,3,0.2c1.1,0.1,2.2,0.2,3.4,0.2l0,0
		c0.1,0.1,0.2,0.2,0.3,0.2c0.1,0,0.1,0,0.2-0.1l0.2-0.1c5.8,0.4,11.9,0.8,15.5,0.8c6,0,21.1-0.3,25.3-0.4c0.3,0.4,0.6,0.7,0.9,1.1
		c-0.1,3-0.4,5.6-0.7,8.3c-0.2,1.7-0.4,3.3-0.5,5.1c-0.1-0.1-0.3-0.1-0.4,0l-0.7,0.4c-0.2,0.1-0.2,0.3-0.1,0.5
		c0.1,0.1,0.2,0.2,0.3,0.2c0.1,0,0.1,0,0.2-0.1l0.7-0.4l0,0c-0.1,0.9-0.1,1.9-0.1,2.9C151.1,117.3,148.3,116.8,144.8,116.2z
		 M123,135.7L123,135.7c-0.2-1.8-1.8-3.2-3.6-3.2c-1.6,0-2.8,1-3.4,2.2h-0.1c-5.8-1.3-8.4-3.3-8.4-4.7v-11.2
		c1.4,0.2,2.6,0.3,3.6,0.3c5.3,0,27.9,0.2,33,1c0.3,0,0.6,0.1,0.9,0.1v9.8c0,2.7-8,5.8-18.7,5.8C125.2,135.8,124.1,135.8,123,135.7z
		 M122.1,136.3c0,0.1-0.1,0.2-0.1,0.3c0,0.1,0,0.1,0,0.1c-0.3,1.2-1.4,2-2.6,2c-1.5,0-2.6-1.2-2.6-2.6s1.2-2.6,2.6-2.6
		s2.6,1.2,2.6,2.6C122.1,136.2,122.1,136.3,122.1,136.3z M84.6,114.7c0.1-0.1,0.1-0.3,0-0.4c-0.1-0.2-0.3-0.2-0.5-0.1l-0.7,0.4l0,0
		c-4.4-0.4-9.3-0.5-12.9-0.6l0.3-0.2c0.2-0.1,0.2-0.3,0.1-0.5c-0.1-0.2-0.3-0.2-0.5-0.1l-0.7,0.4c-0.1,0.1-0.2,0.2-0.2,0.4
		c-2.4,0-4.1,0-4.2,0c-3.4,0-7.1-1-11.4-2c-4.5-1.2-9.6-2.4-15.2-2.8c-0.2-1.4-0.4-3.4-0.4-5.8c-0.1-3.8-0.1-4.2-1.6-5.4
		c-0.2-0.2-0.4-0.3-0.7-0.6c-0.5-0.4-0.8-1-1-1.7l0.7-0.4c0.2-0.1,0.2-0.3,0.1-0.5c-0.2-0.2-0.4-0.3-0.6-0.2L35,94.9
		c0-0.2,0-0.3,0-0.5c1.7,0.1,3.3,0.2,5,0.2c0.2,0,0.4,0,0.5,0c0.1,0.1,0.2,0.2,0.3,0.2s0.1,0,0.2-0.1l0.2-0.1c1.2,0,2.4,0.1,3.8,0.2
		l-0.5,0.3c-0.2,0.1-0.2,0.3-0.1,0.5c0.1,0.1,0.2,0.2,0.3,0.2s0.1,0,0.2-0.1l0.7-0.4c0.2-0.1,0.2-0.3,0.1-0.5
		c2.6,0.2,5.5,0.5,8.5,0.8c0.1,0.1,0.2,0.1,0.3,0.1s0.1,0,0.2-0.1l0,0c4.9,0.6,9.9,1.3,14.8,1.9l-0.6,0.4c-0.2,0.1-0.2,0.3-0.1,0.5
		c0.1,0.1,0.2,0.2,0.3,0.2s0.1,0,0.2-0.1l0.7-0.4c0.2-0.1,0.2-0.3,0.1-0.5c2.6,0.4,5.2,0.8,7.5,1.1c1.8,0.3,3.4,0.5,5,0.8
		c0.1,0.1,0.1,0.1,0.2,0.1h0.1c3.9,0.6,6.9,1,8.7,1.1c-0.6,2.2-0.5,5-0.4,7c0,0.6,0,1,0,1.4c0,0.8,0.2,1.9,0.3,2.9
		c0.2,1.3,0.4,2.5,0.4,3.8C90.2,115.3,87.6,115,84.6,114.7z M36.3,98.8c1,0.8,1,1,1,4.4c0,2.3,0.2,4.3,0.4,5.8c-0.3,0-0.6,0-1-0.1
		c-0.3,0-0.6,0-0.9,0C36.1,106.3,36.5,101.9,36.3,98.8z M20.9,88.7c0-0.4,0-1,0.1-1.7c0-0.8,0.1-1.7,0.1-2.6L37,68.6
		c1.5,0.2,3,0.5,4.7,0.8L22.1,88.9C21.7,88.8,21.3,88.8,20.9,88.7z M21.1,83c0-1,0-2.1-0.1-3.4c0-0.6-0.1-1.3-0.1-1.9l9.7-9.7
		c1.6,0,3.3,0.2,5.1,0.4L21.1,83z M20.8,76.5c-0.2-1.8-0.4-3.3-0.7-4.8l3.6-3.6c1.6-0.1,3.5-0.1,5.6-0.1L20.8,76.5z M9.6,77.2
		c0-0.6,0.1-1.3,0.1-1.9l7.5-7.5c0.3,0.8,0.7,2.2,1.1,4.4L9.5,81C9.5,79.8,9.5,78.4,9.6,77.2z M9.5,86c-0.1-0.8-0.2-2-0.1-3.5
		l9.1-9.1c0.2,1.4,0.4,3,0.6,4.9L11,86.4C10.5,86.2,10.1,86.1,9.5,86z M19.9,70.6c-0.2-1-0.4-1.8-0.6-2.4c0.4,0,0.8,0.1,1.3,0.1
		c0.5,0,1.2,0,1.8,0L19.9,70.6z M9.7,73.9c0-1.3,0.1-2.5,0.1-3.7c0-0.7,0-1.3-0.1-1.8l4.1-4.1c0.6,0.5,1,1,1.4,1.4
		c0.4,0.5,0.8,0.9,1.4,1.3L9.7,73.9z M9.6,67.3c-0.4-2.3-1.3-3.4-2.2-4.3c-0.3-0.3-0.5-0.5-0.6-0.8c1.6,0.1,3.7,0.4,5.8,1.5
		c0.2,0.1,0.3,0.2,0.5,0.3L9.6,67.3z M12,86.8l7.1-7.1v0.1c0.1,2.1,0.1,3.9,0.1,5.3l-2.8,2.8C14.6,87.5,13.1,87.1,12,86.8z
		 M19.1,86.5c0,0.2,0,0.3,0,0.5c0,0.5-0.1,1-0.1,1.4c-0.5-0.1-1-0.2-1.5-0.3L19.1,86.5z M42.8,69.6c0.4,0.1,0.8,0.2,1.2,0.3
		c0.1,1.2,0.2,2.4,0.3,3.6L27.9,89.8c-1.7-0.2-3.2-0.5-4.8-0.7L42.8,69.6z M86.9,58.2c-0.1-2.4-0.3-7.9-0.5-9.5
		c0-0.3-0.3-0.5-0.6-0.4c-0.3,0-0.5,0.3-0.4,0.6c0.2,1.5,0.4,6.7,0.5,9.3c-0.7-0.1-1.4-0.2-2.1-0.3c-0.1-2.5-0.3-9.7-0.7-13.1
		c2.9,0.4,4.7,0.6,5.8,0.6c0.4,0,0.7,0,0.9,0c0.1,6.2,1.1,11.1,1.6,13.4C90.3,58.6,88.8,58.4,86.9,58.2z M78.2,57.1
		c-0.1-2.2-0.3-8.1-0.5-9.7c0-0.3-0.3-0.5-0.6-0.4c-0.3,0-0.5,0.3-0.4,0.6c0.2,1.5,0.4,7.1,0.5,9.5c-0.7-0.1-1.5-0.2-2.1-0.3
		c-0.1-2.4-0.3-9.8-0.7-13.4c3.2,0.6,5.7,1,7.7,1.3c0.4,3.2,0.6,10.4,0.7,13.2C81.4,57.5,79.8,57.3,78.2,57.1z M68.7,55.7
		c-0.1-2-0.3-8.4-0.5-9.9c0-0.3-0.3-0.5-0.6-0.4c-0.3,0-0.5,0.3-0.4,0.6c0.2,1.6,0.4,7.5,0.5,9.7c-0.7-0.1-1.5-0.3-2.1-0.4
		c-0.1-2.2-0.3-9.9-0.7-13.6c2.3,0.5,4.8,1,7.1,1.4c0.5,0.1,1,0.2,1.5,0.3c0.4,3.2,0.6,10.7,0.7,13.4C72.3,56.3,70.4,56,68.7,55.7z
		 M60.8,54.1c-0.1-2.2-0.3-8.1-0.5-9.7c0-0.3-0.3-0.5-0.6-0.4c-0.3,0-0.5,0.3-0.4,0.6c0.2,1.5,0.4,6.9,0.5,9.4
		c-0.8-0.2-1.5-0.3-2.1-0.5C57.6,50.7,57.4,43.2,57,40c2.2,0.5,4.6,1,6.9,1.5c0.4,3.2,0.7,11.1,0.7,13.6
		C63.2,54.6,62,54.4,60.8,54.1z M42,51.2c2.2-4.2,1.2-10.9,0.4-14.3c0,0,0,0,0.1,0c0.9,0.2,1.9,0.4,2.9,0.7
		c0.4,3.8,0.9,11.6,0.1,14.1c-1.4-0.1-2.5-0.1-3.6-0.1C41.9,51.3,42,51.3,42,51.2z M46.4,37.6c1.3,0.3,2.6,0.6,4.2,0.9
		c0.4,3.8,0.8,10.8,0.1,13.6c-1.6-0.2-2.9-0.4-4.2-0.5C47.2,48.5,46.7,40.7,46.4,37.6z M51.5,38.8c1.4,0.3,2.8,0.6,4.3,0.9
		c0.4,2.7,0.7,10.4,0.8,13.6c-1.8-0.4-3.4-0.7-5-1C52.3,49.2,51.8,41.9,51.5,38.8z M93.5,58.6c-0.5-1.9-1.6-7.1-1.7-13.7
		c0.5-0.1,0.9-0.3,1.3-0.4c0.4-0.1,0.7-0.3,1.1-0.4c-0.3,3.3-0.7,10.6,1.2,13.3c-0.1,0.2-0.2,0.3-0.3,0.4
		C94.8,58.2,94.6,58.5,93.5,58.6z M97,56.4c-1.3-1.4-1.3-8-0.9-12.7c0.2-0.1,0.5-0.2,0.7-0.3c-0.2,4.1-0.2,10,1,13.1
		c-0.3,0-0.5,0-0.6,0C97.2,56.6,97.1,56.6,97,56.4z M104.7,62c-0.3-0.2-0.7-0.4-1.1-0.5c0.3-0.1,0.7-0.3,1.1-0.4V62z M104.7,60.1
		c-0.4,0.1-0.8,0.3-1.1,0.4c0.1-0.2,0.1-0.4,0.1-0.6c0-0.8-0.7-1.9-1.1-2.4c0.6-0.2,1.3-0.4,2-0.6V60.1z M104.7,54.9
		c-1,0.2-1.9,0.5-2.6,0.8c-0.4-3.8,0.1-12.7,0.3-16.2c0-0.1,0-0.1,0-0.2c0.7-0.2,1.5-0.3,2.4-0.5L104.7,54.9L104.7,54.9z M101.1,56
		c-0.4,0.2-0.8,0.3-1.2,0.5c-1.3-1.5-1.5-9.3-0.9-16c0,0,0,0,0-0.1c0.1-0.1,0.6-0.5,2.2-1C101.2,40.9,100.6,51.6,101.1,56z
		 M101.6,57.8c0.5,0.6,1.1,1.6,1.1,2.1c0,0.8-0.9,1.3-0.9,1.3c-0.1,0.1-0.2,0.1-0.2,0.2c-1.9-0.8-2.6-1.4-2.6-1.9
		C99,59.4,99.6,58.6,101.6,57.8z M108.6,62.4V9.1c0.2,0.1,0.5,0.1,0.7,0.2v54.1c-0.3-0.1-0.6-0.1-0.9-0.2
		C108.5,63,108.6,62.7,108.6,62.4z M157,57.4c-0.5-0.4-1.2-0.8-1.9-1.2c0-0.1,0.1-0.2,0.1-0.3c0-0.5-0.3-11.8-0.8-16.5
		c1.3,0.4,1.9,0.7,2,0.9C157,46.7,157.4,53.8,157,57.4z M176.2,43.5c1.7,7.3,2.6,15.6,1.3,17.3c-0.9-0.1-1.5-0.7-2.2-1.3
		c-0.5-0.4-1-0.9-1.6-1.1c0.3-2.5,1-10-1.3-16.3C173.7,42.4,175.1,43,176.2,43.5z M178.3,43.6c1-0.1,2.6-0.2,5.3-0.3
		c0.5,3.1,0.8,13.8,0.9,16.7c-1.9,0.3-3.5,0.5-4.8,0.7C180.8,56.5,179.2,47.7,178.3,43.6z M204.3,38.2c-0.2,3.5,0,9.1,0.5,16.9
		c-0.3,0.1-0.6,0.3-0.9,0.4c-0.9-2.6-1-9.9-0.8-14.7c0.5-0.6,0.7-1.2,0.9-1.9C204.1,38.6,204.2,38.3,204.3,38.2z M202.1,56.2
		c-1.2,0.4-2.4,0.9-3.9,1.2c-0.1-2.6-0.3-7.5-0.5-9c0-0.3-0.3-0.5-0.6-0.4c-0.3,0-0.5,0.3-0.4,0.6c0.2,1.4,0.4,6.5,0.5,9.1
		c-0.7,0.1-1.4,0.3-2.1,0.5c-0.1-2.8-0.4-11.3-0.8-15c3.4-0.1,5.6-0.4,6.9-1C201,45.8,201,53,202.1,56.2z M193.2,43.1
		c0.4,3.5,0.8,12.5,0.9,15.2c-1.8,0.3-3.6,0.7-5.5,1c-0.1-2.5-0.3-7.8-0.5-9.3c0-0.3-0.3-0.5-0.6-0.4c-0.3,0-0.5,0.3-0.4,0.6
		c0.2,1.5,0.4,6.9,0.5,9.4c-0.8,0.1-1.5,0.2-2.1,0.4c-0.1-2.9-0.4-13.3-0.9-16.6c2.1-0.1,4.9-0.1,8.3-0.1
		C192.8,43.1,193,43.1,193.2,43.1z M170.1,41.4c2.6,5.9,1.9,14,1.7,16.6c-0.4,0-0.9,0-1.6,0.1c0.9-3.6-0.4-11.1-1.6-16.6
		c0.3,0,0.6,0,1.1-0.1C169.8,41.4,170,41.4,170.1,41.4z M166.6,41c1.9,8.4,2.6,16.2,1.8,17.3c-0.3,0-0.5,0-0.8,0
		c-0.4,0-0.9,0-1.3,0.1c-0.1-2-0.3-8.3-0.5-9.9c0-0.3-0.3-0.5-0.6-0.4c-0.3,0-0.5,0.3-0.4,0.6c0.2,1.6,0.4,7.9,0.5,9.8
		c-0.7,0-1.5,0.1-2.1,0.1c-0.1-2.6-0.5-14.5-1-17.4c0-0.1-0.1-0.2-0.2-0.3c1.7-0.4,2.8-0.6,3.8-0.2C166,40.8,166.3,40.9,166.6,41z
		 M162,58.6c-1.1,0.1-2.1,0.1-3.3,0.2c0.5-2.5,0.7-7.5-0.3-17.3c1-0.2,1.9-0.4,2.6-0.5c-0.1,0.1-0.1,0.2-0.1,0.3
		C161.6,44.1,162,56.1,162,58.6z M162.2,78.9l-3.8,3.8c0.1-1.3,0.3-2.5,0.5-3.7C159.8,78.9,161,78.9,162.2,78.9z M220.7,87.1
		l10.5-10.5v4.4l-5.2,5.2C224.3,86.4,222.5,86.7,220.7,87.1z M211.4,104.6C211.3,104.5,211.3,104.5,211.4,104.6
		c-0.1-0.3-0.4-0.3-0.5-0.2l-0.4,0.2c0.1-3,0.1-6.2,0-8.9c0,0,0,0,0.1,0l0.5-0.3c0.3,1.1,0.6,1.9,1.1,2.3c0.3,0.5-0.2,4-0.6,6.6
		C211.4,104.4,211.4,104.5,211.4,104.6z M207,90.5c-0.7,0.2-1.4,0.4-2,0.6l7.4-7.4c0.1,1.5,0.3,2.8,0.5,4l-1.5,1.5
		c-0.1,0.1-0.1,0.1-0.1,0.2C209.9,89.7,208.5,90.1,207,90.5z M189.7,94.7l9.3-9.3c-0.1,1.5-0.1,3,0,4.5l-3.6,3.6
		C193.4,94,191.5,94.4,189.7,94.7z M199,84l-11,11c-1.7,0.3-3.4,0.5-5.3,0.8L199.4,79C199.3,80.3,199.1,82.1,199,84z M197.1,93.1
		l1.9-1.9c0,0.5,0.1,1,0.2,1.4C198.5,92.7,197.8,92.9,197.1,93.1z M201.1,92c-0.1-0.9-0.2-1.9-0.2-2.7L212,78.2
		c0,1.4,0.1,2.8,0.3,4.2l-9.2,9.2C202.5,91.8,201.8,92,201.1,92z M210.8,94.6l-0.4,0.3c0-0.4-0.1-0.9-0.1-1.3c0.1,0,0.2-0.1,0.3-0.1
		C210.6,93.9,210.7,94.3,210.8,94.6z M214,88.6c0-0.2-0.1-0.4-0.1-0.6l17.4-17.4v4.4l-12.3,12.3C217.3,87.8,215.6,88.2,214,88.6z
		 M231.2,69.2l-17.5,17.5c-0.2-1.2-0.3-2.6-0.5-4l14.6-14.6c1.3-0.8,2.3-1.7,3.4-2.6V69.2z M213.2,81.5c-0.1-1.5-0.2-2.9-0.2-4.3
		l4.1-4.1c1.9-0.7,4.8-1.8,7.6-3.1L213.2,81.5z M213,75.9c0-0.6,0.1-1.1,0.1-1.5c0.7-0.2,1.3-0.3,1.9-0.5L213,75.9z M212,76.8
		L200.9,88c0-1.6,0.1-3.2,0.2-4.7l8.2-8.2c1-0.2,1.9-0.4,2.9-0.6C212,75.2,212,76,212,76.8z M201.1,81.8c0.2-2.5,0.5-4.5,0.6-4.9
		c0-0.1,0.3-0.7,1.5-0.9c0.5-0.1,1.3-0.2,2.1-0.4c0.7-0.1,1.5-0.2,2.2-0.4L201.1,81.8z M181.2,95.9c-1.7,0.2-3.4,0.4-5.1,0.6
		L193.7,79c2.2-0.4,4.1-0.7,5.5-1L181.2,95.9z M174.6,96.7c-2.1,0.2-4.2,0.5-6.1,0.7l17.8-17.8c0.4,0,0.8,0,1.2,0
		c1.7,0,3.2-0.1,4.6-0.3L174.6,96.7z M166.9,97.5c-1.9,0.2-3.5,0.3-5,0.5l18.5-18.5c0.1-0.1,0.1-0.1,0.1-0.2
		c1.6,0.1,2.9,0.2,4.4,0.2L166.9,97.5z M127.7,96.3c-3.3,0-9.1-0.4-14.6-0.7l0.6-0.4c0.2-0.1,0.2-0.3,0.1-0.5
		c-0.1-0.2-0.3-0.2-0.5-0.1l-0.7,0.4c-0.2,0.1-0.2,0.3-0.1,0.5l0,0c-1.5-0.1-2.8-0.2-4.2-0.3c-1.6-0.1-3-0.2-4.2-0.3
		c0-0.1,0-0.2,0-0.3c-0.1-0.2-0.3-0.2-0.5-0.1l-0.5,0.3c-1-0.1-1.8-0.1-2.4-0.1c4-3.1,9.6-7.1,12-8.9c0.1,0,0.1,0.1,0.2,0.1
		c0.1,0,0.1,0,0.2-0.1l0.7-0.4c0.1-0.1,0.2-0.2,0.2-0.3c2.6,0.3,5.6,0.6,8.5,0.7c0.1,0,0.1,0,0.2,0h0.1c1.7,0.1,3.3,0.1,5,0.1
		c1.6,0,3,0,4.6-0.1c0,0,0,0,0.1,0h0.1c3.4-0.1,6.7-0.4,9.7-0.8l-0.3,0.2c-0.2,0.1-0.2,0.3-0.1,0.5c0.1,0.1,0.2,0.2,0.3,0.2
		s0.1,0,0.2-0.1l0.6-0.4c1.2,2.3,5.4,7.1,8.2,10.4C145.4,96,133,96.3,127.7,96.3z M91.5,80.3c0,0.1,0,0.3,0,0.5l-13.9,14
		c-1.6-0.2-3.1-0.5-4.8-0.7l16-16C90.3,79,91.5,80,91.5,80.3z M112.3,83.8c-0.1,0.1-0.2,0.1-0.3,0.2v-1.7l0.3-0.3V83.8z M105.9,88.3
		l5.4-5.4v1c0,0.2,0.1,0.3,0.2,0.3C110.2,85.2,108.2,86.7,105.9,88.3z M112.3,80.6l-0.3,0.3v-5.5l0.2-0.2L112.3,80.6z M112,67v0.2
		l0,0V67C112,67.1,112,67.1,112,67z M112.1,68.6l0.1,5.4l-0.1,0.1V68.6L112.1,68.6z M111.2,74.8L93.4,92.7c0-1.9,0.1-3.8,0.1-5.6
		l17.8-17.8L111.2,74.8L111.2,74.8z M78.7,95.1l12.8-12.8c0,1.1,0,2.3-0.1,3.7c0,0.7,0,1.3,0,1.9l-7.9,7.9
		C82,95.6,80.4,95.3,78.7,95.1z M91.4,89.2c0,2.2-0.1,4.1-0.1,5.5l-1.9,1.9c-1.4-0.2-2.9-0.4-4.8-0.7L91.4,89.2z M91.4,96
		c0,0.2,0,0.5,0,0.7c-0.2,0-0.4,0-0.7-0.1L91.4,96z M93.4,96.8c0-0.7,0-1.7,0-2.6l17.9-17.9v5.5l-10.9,10.9c-1.4,1-2.5,1.9-3.5,2.8
		c-0.3,0.2-0.6,0.4-0.9,0.6C95.5,96.3,95,96.7,93.4,96.8z M155.9,96.9c-0.2-0.3-0.4-0.5-0.6-0.7c0.1-1.1,0.2-2.2,0.3-3.4l0.6-0.6
		c0,1.7,0,3.1,0.1,4.4L155.9,96.9z M152.4,94.5c-0.7-0.8-1.4-1.6-2-2.3l3.5-3.5c-0.2,1.8-0.3,3.4-0.4,4.9L152.4,94.5z M153.3,94.9
		c0,0.2,0,0.4,0,0.6c-0.1-0.1-0.2-0.2-0.3-0.3L153.3,94.9z M155.6,91.3c0.1-1.7,0.3-3.3,0.4-4.9l0.2-0.2c-0.1,1.6-0.1,3.1-0.1,4.6
		L155.6,91.3z M156.1,84.9c0.1-0.9,0.2-1.7,0.3-2.4C156.3,83.3,156.2,84.1,156.1,84.9L156.1,84.9z M154,87.1l-4.3,4.3
		c-0.7-0.9-1.4-1.7-2-2.4l6.8-6.8C154.3,83.6,154.1,85.3,154,87.1z M160.4,98.1c-1,0.1-1.8,0.1-2.3,0.2c0-0.6-0.1-1.4-0.1-2.2
		L175.1,79c1.5,0.1,2.8,0.2,4.2,0.2l0,0L160.4,98.1z M158,94.7c0-1.4,0-2.8,0-4.5l11.4-11.4c1.5,0,2.9,0.1,4.4,0.1L158,94.7z
		 M158,88.8c0-1.6,0.1-3.1,0.2-4.7l5.4-5.4c1.5,0,2.9,0,4.5,0L158,88.8z M155.1,78.3c-0.1,0.6-0.3,1.3-0.4,2.1l-7.7,7.7
		c-0.8-1-1.5-1.9-1.9-2.5l8.6-8.6C154.2,77.4,154.7,77.9,155.1,78.3z M144.6,84.7c-0.1-0.1-0.1-0.3-0.1-0.4
		c-0.1-0.5-0.1-1.9-0.1-3.9l6.4-6.4c0.8,0.8,1.6,1.6,2.2,2.2L144.6,84.7z M144.3,79.1c0-1.1,0-2.2,0-3.5l4-4
		c0.6,0.6,1.2,1.2,1.8,1.8L144.3,79.1z M144.3,74.2c0-2.3,0-4.8,0.1-6.7c0.9,1,2,2.1,3.2,3.4L144.3,74.2z M122.1,24.7
		c1.4,0.3,2.7,0.7,4.1,1.2c3.2,1.2,6.2,1.7,9,1.7c3.7,0,6.8-0.9,8.9-2.2V55c-0.9,0.7-2.2,1.6-4.1,2.3c-2.6,1-7.9,2.2-13.2-0.8
		c-4.5-2.6-4.6-4.7-4.4-17c0-2.2,0.1-4.7,0.1-7.6C122.4,29.3,122.3,26.8,122.1,24.7z M144.1,24.1c-0.1,0-0.1,0.1-0.2,0.1
		c-3.3,2.3-9.9,3.4-17.5,0.7c-1.5-0.5-2.9-1-4.5-1.3c-0.3-2.2-0.6-4.1-1-5.8c1.8,0.2,3.5,0.6,5.2,1.2c5.7,2.1,11.4,2.3,15.2,2.4
		c1,0,1.9,0.1,2.7,0.1L144.1,24.1L144.1,24.1z M148,62.3v-1.9c0.5,0.1,1.1,0.3,1.5,0.4C148.9,61,148.2,61.5,148,62.3z M149.2,59.7
		c-0.4-0.1-0.8-0.2-1.3-0.3v-3.1c0.9,0.2,1.7,0.4,2.3,0.5c-0.6,0.5-1.2,1.2-1.2,2.1C149.1,59.2,149.2,59.5,149.2,59.7z M150.9,61.2
		L150.9,61.2c0.7,0.2,1.3,0.4,1.8,0.7c-1,0.3-2.2,0.7-3.7,1C149.1,61.7,150.9,61.2,150.9,61.2z M153.7,61.5c0-0.1-0.1-0.2-0.2-0.2
		c-0.8-0.5-1.8-0.9-3-1.3c-0.2-0.2-0.3-0.5-0.3-1.1c0-0.9,1-1.6,1.5-1.9c3.7,1.1,4.8,2.1,4.8,2.5C156.3,60,155.8,60.8,153.7,61.5z
		 M153.3,39.3c0.5,4.1,0.8,15.2,0.9,16.6c-0.6-0.2-1.2-0.4-1.9-0.6c-0.1-1.9-0.3-5.8-0.5-8.8c0-0.3-0.3-0.5-0.5-0.5
		c-0.3,0-0.5,0.3-0.5,0.5c0.2,2.8,0.4,6.4,0.5,8.4c-1-0.3-2.1-0.5-3.3-0.7V38.3C150.3,38.6,152.1,39,153.3,39.3z M144.1,20.7
		c-0.8-0.1-1.7-0.1-2.7-0.1c-3.7-0.1-9.4-0.3-14.9-2.3c-1.9-0.7-3.8-1.1-5.8-1.3c-0.8-2.9-1.8-5-2.6-6.3c2.5,0.2,5.4,0.3,8.2,0.3
		c5.4,0,10.3-0.4,14.1-1c1.5-0.2,2.6-0.5,3.6-0.8L144.1,20.7L144.1,20.7z M109.5,6.4c2.4-0.8,8.2-1.7,16.8-1.7s14.2,0.9,16.8,1.7
		c-2.6,0.8-8.2,1.7-16.8,1.7S112.2,7.1,109.5,6.4z M110.2,9.5c0.6,0.1,1.3,0.3,1.9,0.4c1.1,0.2,2.2,0.3,3.4,0.5
		c1.5,1.9,4.9,7.6,4.9,21.6c0,2.8,0,5.4-0.1,7.6c-0.1,12.1-0.2,15.4,5.4,18.6c2.8,1.7,5.6,2.2,8.1,2.2c4.4,0,8-1.8,9.4-2.5
		c0.2-0.1,0.5-0.3,0.8-0.5v6c0,0.1,0,0.1,0,0.2c-0.3,0-0.5,0.1-0.7,0.1l0,0l0,0c-0.1,0-0.2,0.1-0.3,0.1l0,0
		c-0.1,0.1-0.2,0.1-0.2,0.2c0,0,0,0.1-0.1,0.1c0,0.1-0.1,0.1-0.1,0.2v0.1c0,0.1,0,0.1,0,0.1c0,1-0.1,6.5-0.1,11.5
		c-0.1,0.2-0.1,0.4,0,0.6c0,2.5,0,4.8,0,6.3c-4.5,0.6-9.6,1-14.7,1c-4.7,0-9.4-0.3-13.5-0.8L114,64.8l0,0c0-0.1,0-0.1,0-0.2v-0.1
		c-0.1-0.2-0.2-0.4-0.4-0.5V46.4c0-0.1-0.1-0.2-0.2-0.2c-0.1,0-0.2,0.1-0.2,0.2v17.4c-0.1,0-0.1,0-0.2,0c-0.3,0-0.6-0.1-0.9-0.1
		V21.2c0-0.2-0.2-0.4-0.4-0.4c-0.2,0-0.4,0.2-0.4,0.4v42.5c-0.4,0-0.7-0.1-1-0.2v-54H110.2z M111.2,68L93.5,85.8
		c0.1-2.4,0.1-4.1,0.1-5c1.4-0.9,4.6-3,5.1-5.4c1.1-1.1,4.3-3,6.1-4.1c2.2-1.2,4.7-2.6,6.5-3.8L111.2,68L111.2,68z M92.9,78.9
		c-0.6-0.8-1.5-1.5-2.4-2c0.1,0,0.1,0,0.2,0c1.7-0.3,4-0.7,5.6-0.8C95.5,77,94.1,78.1,92.9,78.9z M87.2,77.2
		c0.2,0.1,0.5,0.3,0.7,0.4L71.6,94c-1.6-0.2-3.1-0.5-4.8-0.7l16.6-16.6C85.3,77,86.5,77.2,87.2,77.2z M65.7,93.1
		c-1.6-0.2-3.2-0.5-4.8-0.7l16.7-16.7c0.7,0.1,1.3,0.2,1.9,0.3c1,0.2,1.9,0.3,2.7,0.5L65.7,93.1z M59.6,92.3
		c-1.7-0.2-3.2-0.4-4.9-0.6l16.9-17c1.6,0.2,3.1,0.5,4.7,0.8L59.6,92.3z M53.5,91.6c-1.7-0.2-3.3-0.4-5-0.5L65.6,74
		c0.9,0.1,1.7,0.2,2.4,0.3l2.1,0.3c0.1,0,0.2,0,0.3,0L53.5,91.6z M45.5,88.5c0.4,0.8,0.8,1.6,1,2.4c-1.6-0.1-2.9-0.2-4.3-0.2
		l2.9-2.9C45.2,88.1,45.4,88.2,45.5,88.5z M47.4,90.9c-0.2-1.1-0.7-1.9-1.1-2.7c-0.2-0.4-0.4-0.8-0.5-1.1l13.8-13.9
		c1.7,0.3,3.2,0.5,4.8,0.7L47.4,90.9z M45.8,85.7c0.1-0.9,0-2.9-0.1-5.4l8.2-8.2c1.6,0.3,3.1,0.6,4.6,0.8L45.8,85.7z M45.6,79.1
		c-0.1-1.8-0.2-3.5-0.4-5.1l3-3c1.6,0.4,3,0.7,4.5,1L45.6,79.1z M45.2,72.6c-0.1-1-0.1-1.9-0.2-2.5c0.7,0.2,1.5,0.4,2.1,0.6
		L45.2,72.6z M44.3,74.9c0.1,1.8,0.2,3.5,0.3,5.1L34.2,90.5c-1.7-0.1-3.3-0.3-5-0.5L44.3,74.9z M44.7,81.3c0.1,2.3,0.1,4.1,0,4.5
		c-0.1,0.3-0.1,0.6,0,1l-3.9,3.9c-0.3,0-0.6,0-0.9,0c-1.5,0-2.9,0-4.4-0.1L44.7,81.3z M93.7,115.8c0-0.3,0-0.5,0-0.8l0.5-0.3
		c0.2-0.1,0.2-0.3,0.1-0.5c-0.1-0.2-0.3-0.2-0.5-0.1l-0.2,0.1c-0.1-0.9-0.2-1.8-0.4-2.5c-0.2-1-0.3-1.9-0.3-2.6V109l0.2-0.1
		c0.2-0.1,0.2-0.3,0.1-0.5c-0.1-0.1-0.2-0.2-0.4-0.2c0-0.2,0-0.4,0-0.6c-0.1-1.9-0.2-4.9,0.5-6.9c2.7-0.1,3.9-0.9,5-1.7
		c0.2-0.1,0.3-0.2,0.4-0.3c0,2.1,0,5.6,0,8.6l-0.7,0.4c-0.2,0.1-0.2,0.3-0.1,0.5c0.1,0.1,0.2,0.2,0.3,0.2c0.1,0,0.1,0,0.2-0.1
		l0.3-0.2c0,1.9,0,3.5,0,4.3c0,0.8-0.2,1.4-0.5,1.8c-0.3,0-0.6,0-0.8,0.1C96,114.5,94.7,115.2,93.7,115.8
		C93.8,115.7,93.7,115.8,93.7,115.8z M100.7,112.4c0-1.9,0-9.9,0.1-13.7c0.4,0,1,0.1,1.5,0.1l-0.3,0.2c-0.2,0.1-0.2,0.3-0.1,0.5
		c0.1,0.1,0.2,0.2,0.3,0.2s0.1,0,0.2-0.1l0.7-0.4c0.1-0.1,0.2-0.2,0.2-0.3c0.3,0,0.6,0,1,0.1c0.3,5.4,0.4,12.1-0.1,15.3
		c-0.1-0.2-0.3-0.2-0.5-0.1l-0.6,0.3c-1-0.1-1.9-0.2-2.7-0.3C100.5,113.7,100.7,113.1,100.7,112.4z M155.3,109.3
		c0.3-2.2,0.5-4.6,0.7-7.3c0.4,0.1,0.9,0.2,1.5,0.2c0.1,0,0.2,0,0.4,0c0,0.5,0,1,0,1.6l-0.1,0.1c-0.2,0.1-0.2,0.3-0.1,0.5
		c0.1,0.1,0.1,0.1,0.2,0.2c0,0.9-0.1,1.9-0.1,2.8c-0.1,0-0.2,0-0.3,0l-0.7,0.4c-0.2,0.1-0.2,0.3-0.1,0.5c0.1,0.1,0.2,0.2,0.3,0.2
		c0.1,0,0.1,0,0.2-0.1l0.5-0.3c-0.2,3.1-0.4,6.5-0.6,9.3l-0.4,0.2c-0.2,0.1-0.2,0.3-0.1,0.5c0.1,0.1,0.2,0.2,0.3,0.2h0.1
		c0,0.5-0.1,0.9-0.1,1.3l-2.2-1.3l0,0C154.6,114.8,154.9,111.9,155.3,109.3z M210.4,108.8c0.1-0.1,0.1-0.3,0-0.4l0,0
		c0-0.9,0.1-1.9,0.1-2.9c0,0,0,0,0.1,0l0.7-0.4l0.1-0.1c-0.3,2-0.6,4-0.8,5.8c-0.1,0-0.2,0.1-0.4,0.1
		C210.3,110.2,210.3,109.5,210.4,108.8z M215.2,60.3c4.1,1.4,8.9,1.9,12.3,2.1c1.3,0.1,2.7,0.3,3.7,0.4c-4,4.7-12.4,7.6-15.7,8.8
		l-0.4,0.2c-2.7,1-7.3,1.7-10.1,2c-1,0.2-1.8,0.3-2.2,0.4c-1.5,0.3-2.3,1.1-2.7,1.8c-1.2,0.2-4.2,0.8-8.3,1.5
		c-3.1,0.5-7.4,0.2-12.4-0.1c-3.1-0.2-6.6-0.4-10.2-0.4c-4.1,0-8,0-11,0.1l0,0c-0.1,0-0.3,0-0.4,0c-0.4,0-0.8,0-1.2,0
		c-4-3.9-9.2-9.2-11.3-11.5c0.2,0,0.3,0,0.5-0.1c0.1,0,0.2,0,0.3,0c0.3,0,0.6-0.1,0.9-0.2c4.6-0.8,9.1-1.9,10.7-3.9
		c0.1-0.1,0.3-0.3,0.5-0.6c3.4-0.2,6.5-0.4,9.1-0.5c0.2,0.3,0.4,0.4,1.1,0.4c0.8,0,2.1-0.2,4.5-0.7c0.3,0,0.9,0.5,1.4,0.9
		c1,0.8,2.1,1.9,3.8,1.9l0,0l0,0l0,0c2.5,0,14.3-1.9,19.8-3.1h0.1l0,0c0.1,0,0.2,0,0.3-0.1c0.1,0,0.2,0,0.2-0.1
		c3.3-0.8,5.9-1.9,7.5-2.6c0.1,0.1,0.2,0.1,0.3,0.2C206.1,57,207.7,57.7,215.2,60.3z M160.3,28.6c-0.3,1.2-0.5,2.3-0.6,3.3
		c-0.4,0.2-0.7,0.5-1.1,0.7c-0.1-0.2-0.1-0.4-0.2-0.6c0-0.1-0.2-0.3-0.3-0.3c0.4-0.3,0.8-0.6,1.2-0.9c0.2-0.2,0.2-0.5,0-0.7
		c-0.2-0.2-0.5-0.2-0.7,0c-2.5,2.2-7.3,3.9-7.3,3.9c-0.3,0.1-0.4,0.4-0.3,0.6c0.1,0.2,0.3,0.3,0.5,0.3c0.1,0,0.1,0,0.2,0
		c0.2-0.1,3.2-1.2,5.8-2.8c0,0.1,0,0.1,0,0.2c0.1,0.3,0.2,0.5,0.2,0.8c-1.2,0.6-2,0.9-2,0.9c-0.3,0.1-0.4,0.4-0.3,0.6
		c0.1,0.2,0.3,0.3,0.5,0.3c0.1,0,0.1,0,0.2,0c0.1,0,0.9-0.3,1.9-0.9c0.4,1.8,0.4,3.1,0.4,3.1c0,0.3,0.2,0.5,0.5,0.5l0,0
		c0.3,0,0.5-0.2,0.5-0.5c0-0.1,0-1.7-0.5-3.6c0.2-0.1,0.5-0.3,0.8-0.4c-0.1,2.6,0.4,4.4,0.4,4.5c0.1,0.2,0.3,0.4,0.5,0.4h0.1
		c0.3-0.1,0.4-0.3,0.4-0.6c0,0-0.5-2-0.3-5c0.6-0.4,1.3-0.9,1.9-1.5c0.2-0.2,0.2-0.5,0-0.7c-0.2-0.2-0.5-0.2-0.7,0
		c-0.3,0.3-0.7,0.6-1.1,0.9c0.1-0.8,0.2-1.6,0.5-2.4v-0.1c2.2,0.1,4.2,0.2,5.8,0.3c0.1,0.6,0.1,0.9,0.1,0.9c0,0.3,0.2,0.5,0.5,0.5
		l0,0c0.3,0,0.5-0.2,0.5-0.5c0,0,0-0.3,0-0.8c0.2,0,0.3,0,0.5,0c0.1,0.8,0.2,1.2,0.2,1.3c0.1,0.2,0.3,0.4,0.5,0.4h0.1
		c0.3-0.1,0.4-0.3,0.4-0.6c0,0-0.1-0.3-0.2-0.9c3.9,0.4,5.6,0.9,6.1,1.1c0.1,0.4,0.2,0.8,0.5,1.2c1.3,1.9,5.4,2.7,15.4,3.6
		c-0.1,0-0.1,0-0.1,0.1c-2.5,2.4-6,3.7-6,3.7c-0.3,0.1-0.4,0.4-0.3,0.6c0.1,0.2,0.3,0.3,0.5,0.3c0.1,0,0.1,0,0.2,0
		c0.2-0.1,3.7-1.4,6.4-3.9c0.2-0.2,0.2-0.5,0-0.7c0,0-0.1,0-0.1-0.1c1,0.1,2,0.2,3.1,0.3c0.2,1.3,0.2,2.2,0.2,2.2
		c0,0.3,0.2,0.5,0.5,0.5l0,0c0.3,0,0.5-0.2,0.5-0.5c0-0.1,0-0.9-0.2-2.1c0.2,0,0.3,0,0.5,0c0.1,1.6,0.3,2.4,0.4,2.5
		c0.1,0.2,0.3,0.4,0.5,0.4h0.1c0.3-0.1,0.4-0.3,0.4-0.6c0,0-0.2-0.9-0.3-2.2c0.3,0,0.5,0,0.8,0.1c0,0.6,0.1,1,0.1,1
		c0.1,0.2,0.3,0.4,0.5,0.4h0.1c0.3-0.1,0.4-0.3,0.4-0.6c0,0-0.1-0.3-0.1-0.7c1.5,0.1,2.9,0.3,4,0.5c-0.2,0.1-0.3,0.3-0.5,0.4
		c-0.6,0.6-0.8,1.2-0.9,1.8c-0.1,0.3-0.2,0.6-0.4,0.9c-0.2,0.1-0.4,0.3-0.5,0.6c-1,0.7-3.2,1.3-8.6,1.3c-10.3,0-14.4,0.5-15.5,0.6
		c-1.4-0.6-5.8-2.4-7.7-2.2c-1.1,0.1-1.3,0.1-1.9-0.2c-0.3-0.1-0.8-0.3-1.4-0.5c-1.6-0.5-3-0.2-5.2,0.3c-0.9,0.2-1.8,0.4-2.8,0.6
		c-0.4-0.9-2.2-2.2-10.2-3.2v-7.9C152.9,28.5,157,28.5,160.3,28.6z M55.2,34.6c0.1,1.2,0.3,1.9,0.3,1.9c0.1,0.2,0.3,0.4,0.5,0.4h0.1
		c0.3-0.1,0.4-0.3,0.4-0.6c0,0-0.2-0.7-0.3-1.9c0.3,0,0.5-0.1,0.8-0.1c0,0.5,0.1,0.8,0.1,0.8c0.1,0.2,0.3,0.4,0.5,0.4h0.1
		c0.3-0.1,0.4-0.3,0.4-0.6c0,0-0.1-0.3-0.1-0.8c9.6-1.6,19.8-3.3,21.7-3.6c0.2,0,0.4-0.1,0.6-0.1c0.3,1.6,0.3,2.6,0.3,2.6
		c0,0.3,0.2,0.5,0.5,0.5l0,0c0.3,0,0.5-0.2,0.5-0.5c0-0.1,0-1.2-0.3-2.8c0.2,0,0.4-0.1,0.6-0.1c0.1,1.9,0.4,3.3,0.4,3.3
		c0.1,0.2,0.3,0.4,0.5,0.4h0.1c0.3-0.1,0.4-0.3,0.4-0.6c0,0-0.3-1.3-0.4-3.2c0.3,0,0.6-0.1,0.9-0.1c-0.1,1.3,0.1,2.1,0.1,2.2
		c0.1,0.2,0.3,0.4,0.5,0.4h0.1c0.3-0.1,0.4-0.3,0.4-0.6c0,0-0.2-0.9,0-2.1c6.2-0.7,13.3-0.9,20.1-1v7.8c-6.4,1.1-7.5,2.3-7.6,3.4
		l0,0v0.1c0,1.4-1.9,1.7-1.9,1.7c-1,0-1.9,0.4-2.6,0.7c-0.6,0.2-1.2,0.4-1.8,0.5c-1.5,0.2-3.3,0.6-18.3-2.2
		c-8.8-1.7-18.3-3.6-24.8-5.1c1.9-0.3,4-0.7,6.2-1.1c0.1,0.8,0.1,1.2,0.1,1.3c0,0.3,0.2,0.5,0.5,0.5l0,0c0.3,0,0.5-0.2,0.5-0.5
		c0,0,0-0.6-0.1-1.4C54.9,34.7,55.1,34.7,55.2,34.6z M33.9,55.2c2.5-0.4,3.6-0.6,4-0.7c0.9-0.2,1.6-0.6,2.2-1.1
		c3.2-0.1,9.1,0,17,1.9c12.6,3,31.7,5.4,35.6,5.4l0,0l0,0l0,0c2.7,0,3.4-0.9,4-1.9c0.2-0.3,0.2-0.3,0.5-0.3c0,0,0.1,0,0.2,0
		c-0.2,0.4-0.3,0.8-0.3,1.2c0,3.2,7,5,13.6,5.9c-1.7,1.1-4.4,2.7-6.9,4.1c-0.5,0.3-4.8,2.6-6.5,4.4c-1.5-0.1-4,0.3-6.9,0.8
		c-1.3,0.2-2.3,0.4-2.9,0.4c-0.8,0-4.3-0.6-7.6-1.2c-3-0.5-6.4-1.1-9.4-1.5l-2.1-0.3c-6.4-0.9-14.4-1.9-23.7-4.4
		c-8.7-2.3-16.2-2-21.3-1.9c-1.1,0-2,0.1-2.8,0.1c-2.3,0-2.9-0.7-3.9-1.8c-0.7-0.8-1.6-1.8-3.2-2.6c-1.6-0.9-3.2-1.3-4.7-1.5
		C12,59.2,19,57.4,33.9,55.2z M30.7,94.1c-0.1,0.1-0.2,0.3-0.1,0.5c0.1,0.1,0.2,0.2,0.3,0.2c0.1,0,0.1,0,0.2-0.1l0.7-0.4
		c0,0,0.1,0,0.1-0.1c0.7,0.1,1.4,0.1,2,0.2c0.1,1.2,0.4,2.5,1.4,3.5c0.2,1.8,0.2,4.2,0,6.5l-0.7,0.4c-0.2,0.1-0.2,0.3-0.1,0.5
		c0.1,0.1,0.2,0.2,0.3,0.2s0.1,0,0.2-0.1l0.2-0.1c-0.1,1.3-0.2,2.5-0.3,3.5c-1.5-0.1-2.9-0.4-4.4-0.7l0.3-0.2
		c0.2-0.1,0.2-0.3,0.1-0.5c-0.1-0.2-0.3-0.2-0.5-0.1l-0.7,0.4c-0.1,0-0.1,0.1-0.1,0.2c-7.2-1.7-14.2-4.9-17.3-6.3
		c0.9-3.5,1.3-8.2,1.5-10.3C18,92.2,24.1,93.4,30.7,94.1z M217.9,114.1c0.2,2,2.2,3.3,4.9,5c2.1,1.4,4.8,3,7.3,5.6
		c3.5,3.5,3.2,6.9,2.2,9.2c-1.8,4.3-7.1,7.5-12.3,7.5c-4.6,0-10.5-0.8-16.9-1.6c-7.2-0.9-14.6-1.8-21.1-1.8c-3.2,0-6.5-0.5-9.7-0.9
		c-8.9-1.3-18-2.5-26.2,5.7c-8.5,8.5-27.7,7.8-43.1,7.2c-3.7-0.1-7.3-0.3-10.4-0.3c-17.2,0-30.9-6.1-37-12.2
		c-5.8-5.8-15.1-5.6-23.2-5.3c-1.8,0.1-3.4,0.1-5.1,0.1c-8.8,0-17.9-5.3-17.9-14c0-3.5,1.8-6.3,5.2-8.4c1.3-0.8,2.6-1.3,3.6-1.7
		c5.4,2,12.2,4.2,18.4,4.4c1.6,0,3.1,0.2,4.6,0.4c0.1,0.3,0.4,0.5,0.7,0.5c0.3,0,0.5-0.1,0.6-0.4c3.8,0.6,7.3,1.5,10.5,2.2
		c4.3,1.2,8.4,2.1,12.4,2.1c9.6,0,23.2,0.8,25.3,1.7c1.9,1.7,4,0.4,5.2-0.4c0.7-0.5,1.5-0.9,2.1-1c0.1,0,0.1,0,0.2,0
		c0.1,0,0.1,0,0.2-0.1l0,0c1.4-0.1,4.1,0.2,6.5,0.5c0.2,0,0.5,0.1,0.7,0.1v11.4c0,2.8,3.6,5.3,9.9,6.6c0.1,0,0.1,0,0.2,0h0.1
		c0.3,1.8,1.8,3.1,3.6,3.1c1.5,0,2.7-0.9,3.3-2.1c0.1,0,0.1,0,0.2,0c1.2,0.1,2.2,0.1,3.4,0.1c10,0,20.7-2.7,20.7-7.7v-9.5
		c3,0.5,5.1,0.9,5.8,1.1l3.7,2.2c0.3,0.2,0.7,0.3,1,0.3h0.1c1.3-0.1,31.5-1.9,38.7-3.9c3.3-0.9,4.4-1.6,5.6-2.4
		c0.9-0.7,1.9-1.5,7.3-2.8c3.5-0.9,6.4-1.9,8.9-2.7C218,112.9,217.9,113.5,217.9,114.1z"/>
	<path class="st0" d="M162.2,36.7L162.2,36.7c0.4-0.1,0.5-0.3,0.5-0.6c0,0-0.3-1.6,0.3-3.3c0.1-0.3,0-0.5-0.3-0.6
		c-0.3-0.1-0.5,0-0.6,0.3c-0.7,1.9-0.3,3.7-0.3,3.8C161.7,36.5,161.9,36.7,162.2,36.7z"/>
	<path class="st0" d="M91.2,32.6c-0.3-0.1-0.5,0.1-0.6,0.4c-0.1,0.2-0.1,0.4-0.1,0.6c-0.1,0-0.1,0.1-0.2,0.1
		C90,33.7,89.9,34,90,34.2c0,0.1,0.1,0.2,0.3,0.3c-0.8,4.3,0.1,7.5,0.1,7.6c0.1,0.2,0.3,0.4,0.5,0.4H91c0.3-0.1,0.4-0.3,0.4-0.6
		c0,0-0.9-3.4,0-7.6c1.5-0.6,4.9-1.9,7-3.8c0.2-0.2,0.2-0.5,0-0.7s-0.5-0.2-0.7,0c-1.8,1.6-4.5,2.8-6,3.4
		C91.6,32.8,91.5,32.6,91.2,32.6z"/>
	<path class="st0" d="M88.8,41.5c0,0.3,0.2,0.5,0.5,0.5l0,0c0.3,0,0.5-0.2,0.5-0.5c0-0.1-0.1-2.5-0.9-5.2c-0.1-0.3-0.4-0.4-0.6-0.3
		c-0.3,0.1-0.4,0.4-0.3,0.6C88.8,39.2,88.8,41.5,88.8,41.5z"/>
	<path class="st0" d="M92.9,36.6c-0.3-0.1-0.5,0-0.6,0.3c-0.7,1.9-0.3,3.7-0.3,3.8c0.1,0.2,0.3,0.4,0.5,0.4h0.1
		c0.3-0.1,0.4-0.3,0.4-0.6c0,0-0.3-1.6,0.3-3.3C93.3,37,93.1,36.7,92.9,36.6z"/>
	<path class="st0" d="M180.8,39.5c0.1,0.2,0.3,0.3,0.5,0.3c0.1,0,0.1,0,0.2,0c0.2-0.1,5-1.8,7.6-4.1c0.2-0.2,0.2-0.5,0-0.7
		c-0.2-0.2-0.5-0.2-0.7,0c-2.5,2.2-7.3,3.9-7.3,3.9C180.8,39,180.7,39.3,180.8,39.5z"/>
	<path class="st0" d="M180.6,37.9C180.6,37.9,180.7,37.9,180.6,37.9c0.2,0,1.9-0.3,3.3-1.3c0.2-0.2,0.3-0.5,0.1-0.7
		c-0.2-0.2-0.5-0.3-0.7-0.1c-1.2,0.8-2.8,1.1-2.8,1.1c-0.3,0-0.5,0.3-0.4,0.6C180.2,37.7,180.4,37.9,180.6,37.9z"/>
	<path class="st0" d="M164.7,37.4c0.1,0.2,0.3,0.3,0.5,0.3c0.1,0,0.1,0,0.2,0c0.2-0.1,5-1.8,7.6-4.1c0.2-0.2,0.2-0.5,0-0.7
		c-0.2-0.2-0.5-0.2-0.7,0c-2.5,2.2-7.3,3.9-7.3,3.9C164.8,36.9,164.6,37.2,164.7,37.4z"/>
	<path class="st0" d="M169.1,37.4c0.1,0.2,0.3,0.3,0.5,0.3c0.1,0,0.1,0,0.2,0c0.2-0.1,3.7-1.4,6.4-3.9c0.2-0.2,0.2-0.5,0-0.7
		c-0.2-0.2-0.5-0.2-0.7,0c-2.5,2.4-6,3.7-6,3.7C169.2,36.9,169,37.2,169.1,37.4z"/>
	<path class="st0" d="M164.6,35.8L164.6,35.8c0.2,0,1.9-0.3,3.3-1.3c0.2-0.2,0.3-0.5,0.1-0.7c-0.2-0.2-0.5-0.3-0.7-0.1
		c-1.2,0.8-2.8,1.1-2.8,1.1c-0.3,0-0.5,0.3-0.4,0.6C164.1,35.6,164.4,35.8,164.6,35.8z"/>
	<path class="st0" d="M151.1,33.1L151.1,33.1c0.2,0,1.9-0.3,3.3-1.3c0.2-0.2,0.3-0.5,0.1-0.7c-0.2-0.2-0.5-0.3-0.7-0.1
		c-1.2,0.8-2.8,1.1-2.8,1.1c-0.3,0-0.5,0.3-0.4,0.6C150.6,32.9,150.8,33.1,151.1,33.1z"/>
	<path class="st0" d="M62,37.2c0.1,0.2,0.3,0.3,0.5,0.3c0.1,0,0.1,0,0.2,0c0.2-0.1,5-1.8,7.6-4.1c0.2-0.2,0.2-0.5,0.1-0.7
		c-0.2-0.2-0.5-0.2-0.7-0.1c-2.5,2.2-7.3,3.9-7.3,3.9C62.1,36.6,61.9,36.9,62,37.2z"/>
	<path class="st0" d="M66.4,37.2c0.1,0.2,0.3,0.3,0.5,0.3c0.1,0,0.1,0,0.2,0c0.2-0.1,3.7-1.4,6.4-3.9c0.2-0.2,0.2-0.5,0-0.7
		s-0.5-0.2-0.7,0c-2.5,2.4-6,3.7-6,3.7C66.4,36.6,66.3,36.9,66.4,37.2z"/>
	<path class="st0" d="M61.9,35.6L61.9,35.6c0.2,0,1.9-0.3,3.3-1.3c0.2-0.2,0.3-0.5,0.1-0.7c-0.2-0.2-0.5-0.3-0.7-0.1
		c-1.2,0.8-2.8,1.1-2.8,1.1c-0.3,0-0.5,0.3-0.4,0.6C61.4,35.4,61.6,35.6,61.9,35.6z"/>
	<path class="st0" d="M75.3,40.1c0.1,0.2,0.3,0.3,0.5,0.3c0.1,0,0.1,0,0.2,0c0.2-0.1,5-1.8,7.6-4.1c0.2-0.2,0.2-0.5,0-0.7
		c-0.2-0.2-0.5-0.2-0.7,0c-2.5,2.2-7.3,3.9-7.3,3.9C75.3,39.5,75.2,39.8,75.3,40.1z"/>
	<path class="st0" d="M79.6,40.1c0.1,0.2,0.3,0.3,0.5,0.3c0.1,0,0.1,0,0.2,0c0.2-0.1,3.7-1.4,6.4-3.9c0.2-0.2,0.2-0.5,0-0.7
		c-0.2-0.2-0.5-0.2-0.7,0c-2.5,2.4-6,3.7-6,3.7C79.7,39.5,79.5,39.8,79.6,40.1z"/>
	<path class="st0" d="M75.1,38.4C75.2,38.4,75.2,38.4,75.1,38.4c0.2,0,1.9-0.3,3.3-1.3c0.2-0.2,0.3-0.5,0.1-0.7
		c-0.2-0.2-0.5-0.3-0.7-0.1c-1.2,0.8-2.8,1.1-2.8,1.1c-0.3,0-0.5,0.3-0.4,0.6C74.7,38.3,74.9,38.4,75.1,38.4z"/>
	<path class="st0" d="M94.4,34.1c0.1,0.2,0.3,0.3,0.5,0.3c0.1,0,0.1,0,0.2,0c0.2-0.1,3.7-1.4,6.4-3.9c0.2-0.2,0.2-0.5,0-0.7
		s-0.5-0.2-0.7,0c-2.5,2.4-6,3.7-6,3.7C94.4,33.7,94.3,33.9,94.4,34.1z"/>
	<path class="st0" d="M89.9,32.6L89.9,32.6c0.2,0,1.9-0.3,3.3-1.3c0.2-0.2,0.3-0.5,0.1-0.7c-0.2-0.2-0.5-0.3-0.7-0.1
		c-1.2,0.8-2.8,1.1-2.8,1.1c-0.3,0-0.5,0.3-0.4,0.6C89.5,32.4,89.7,32.6,89.9,32.6z"/>
	<path class="st0" d="M69.5,126.4c-2.2,0-4,1.9-4,4c0,2.1,1.9,4,4,4c2.1,0,4-1.9,4-4C73.5,128.2,71.7,126.4,69.5,126.4z M69.5,133.4
		c-1.7,0-3-1.4-3-3c0-1.7,1.4-3,3-3c1.7,0,3,1.4,3,3C72.5,132,71.2,133.4,69.5,133.4z"/>
	<path class="st0" d="M68.2,124.5c0-0.9-0.8-1.7-1.7-1.7s-1.7,0.8-1.7,1.7s0.8,1.7,1.7,1.7S68.2,125.4,68.2,124.5z M65.7,124.5
		c0-0.5,0.4-0.9,0.9-0.9s0.9,0.4,0.9,0.9s-0.4,0.9-0.9,0.9S65.7,125,65.7,124.5z"/>
	<path class="st0" d="M127,133.3c0-0.9-0.8-1.7-1.7-1.7s-1.7,0.8-1.7,1.7c0,0.9,0.8,1.7,1.7,1.7S127,134.2,127,133.3z M125.3,134.2
		c-0.5,0-0.9-0.4-0.9-0.9c0-0.5,0.4-0.9,0.9-0.9c0.5,0,0.9,0.4,0.9,0.9C126.2,133.8,125.8,134.2,125.3,134.2z"/>
	<path class="st0" d="M117.1,139.9c-0.9,0-1.7,0.8-1.7,1.7c0,0.9,0.8,1.7,1.7,1.7c0.9,0,1.7-0.8,1.7-1.7
		C118.7,140.7,117.9,139.9,117.1,139.9z M117.1,142.6c-0.5,0-0.9-0.4-0.9-0.9s0.4-0.9,0.9-0.9c0.5,0,0.9,0.4,0.9,0.9
		S117.5,142.6,117.1,142.6z"/>
	<path class="st0" d="M120.9,127.6c-0.6,0-1.1,0.5-1.1,1.1c0,0.6,0.5,1.1,1.1,1.1c0.6,0,1.1-0.5,1.1-1.1
		C122,128.1,121.5,127.6,120.9,127.6z M120.9,129.2c-0.3,0-0.6-0.3-0.6-0.6s0.3-0.6,0.6-0.6c0.3,0,0.6,0.3,0.6,0.6
		S121.2,129.2,120.9,129.2z"/>
	<path class="st0" d="M128.7,144c-0.6,0-1.1,0.5-1.1,1.1s0.5,1.1,1.1,1.1c0.6,0,1.1-0.5,1.1-1.1S129.2,144,128.7,144z M128.7,145.6
		c-0.3,0-0.6-0.3-0.6-0.6c0-0.3,0.3-0.6,0.6-0.6s0.6,0.3,0.6,0.6C129.2,145.3,128.9,145.6,128.7,145.6z"/>
	<path class="st0" d="M130.6,36.1c2,0,3.6-1.7,3.6-3.6s-1.7-3.6-3.6-3.6c-1.9,0-3.6,1.7-3.6,3.6S128.7,36.1,130.6,36.1z M130.6,29.8
		c1.5,0,2.6,1.2,2.6,2.6c0,1.5-1.2,2.6-2.6,2.6c-1.5,0-2.6-1.2-2.6-2.6C128,30.9,129.1,29.8,130.6,29.8z"/>
	<path class="st0" d="M136.5,31.2L136.5,31.2C136.5,31.2,136.5,31.2,136.5,31.2c1,0,1.7-0.7,1.7-1.7c0-0.9-0.7-1.7-1.7-1.7
		c-0.9,0-1.7,0.7-1.7,1.7C134.9,30.4,135.6,31.1,136.5,31.2z M136.5,28.6c0.5,0,0.9,0.4,0.9,1c0,0.5-0.4,0.9-0.9,0.9l0,0
		c-0.5,0-0.9-0.4-0.9-1C135.7,28.9,136.1,28.6,136.5,28.6z"/>
	<path class="st0" d="M135.1,49.5L135.1,49.5c-1,0-1.7,0.7-1.7,1.7c0,0.9,0.7,1.7,1.7,1.7l0,0l0,0c0.9,0,1.7-0.7,1.7-1.7
		c0-0.5-0.2-0.9-0.5-1.2C136,49.7,135.6,49.5,135.1,49.5z M135.1,52.1L135.1,52.1c-0.5,0-1-0.4-0.9-1s0.4-0.9,1-0.9
		c0.5,0,0.9,0.4,0.9,1C136,51.7,135.6,52.1,135.1,52.1z"/>
	<path class="st0" d="M128.3,39.5c0.9,0,1.7-0.8,1.7-1.7c0-0.9-0.8-1.7-1.7-1.7c-0.9,0-1.7,0.8-1.7,1.7
		C126.6,38.7,127.4,39.5,128.3,39.5z M128.3,37c0.5,0,0.9,0.4,0.9,0.9c0,0.5-0.4,0.9-0.9,0.9c-0.5,0-0.9-0.4-0.9-0.9
		C127.4,37.4,127.8,37,128.3,37z"/>
	<path class="st0" d="M132.2,23.9c-0.6,0-1.1,0.5-1.1,1.1c0,0.6,0.5,1.1,1.1,1.1c0.6,0,1.1-0.5,1.1-1.1
		C133.2,24.4,132.7,23.9,132.2,23.9z M132.2,25.5c-0.3,0-0.6-0.3-0.6-0.6c0-0.3,0.3-0.6,0.6-0.6c0.3,0,0.6,0.3,0.6,0.6
		C132.7,25.3,132.5,25.5,132.2,25.5z"/>
	<path class="st0" d="M139.9,42.3c0.6,0,1.1-0.5,1.1-1.1s-0.5-1.1-1.1-1.1c-0.6,0-1.1,0.5-1.1,1.1S139.3,42.3,139.9,42.3z
		 M139.9,40.8c0.3,0,0.6,0.3,0.6,0.6s-0.3,0.6-0.6,0.6s-0.6-0.3-0.6-0.6S139.6,40.8,139.9,40.8z"/>
	<path class="st0" d="M141.3,34.7c0.4,0,0.7-0.3,0.7-0.7s-0.3-0.7-0.7-0.7s-0.7,0.3-0.7,0.7S140.9,34.7,141.3,34.7z M141.3,33.7
		c0.1,0,0.2,0.1,0.2,0.2s-0.1,0.2-0.2,0.2c-0.1,0-0.2-0.1-0.2-0.2S141.1,33.7,141.3,33.7z"/>
	<path class="st0" d="M142.2,23.9c0.4,0,0.7-0.3,0.7-0.7c0-0.4-0.3-0.7-0.7-0.7s-0.7,0.3-0.7,0.7C141.5,23.6,141.8,23.9,142.2,23.9z
		 M142.2,22.9c0.1,0,0.2,0.1,0.2,0.2c0,0.1-0.1,0.2-0.2,0.2c-0.1,0-0.2-0.1-0.2-0.2C142,23,142.1,22.9,142.2,22.9z"/>
	<path class="st0" d="M141.5,52.9c0,0.4,0.3,0.7,0.7,0.7s0.7-0.3,0.7-0.7s-0.3-0.7-0.7-0.7S141.5,52.5,141.5,52.9z M142.2,52.7
		c0.1,0,0.2,0.1,0.2,0.2s-0.1,0.2-0.2,0.2c-0.1,0-0.2-0.1-0.2-0.2S142.1,52.7,142.2,52.7z"/>
	<path class="st0" d="M130,22.4c-0.4,0-0.7,0.3-0.7,0.7c0,0.4,0.3,0.7,0.7,0.7s0.7-0.3,0.7-0.7C130.7,22.7,130.4,22.4,130,22.4z
		 M130,23.4c-0.1,0-0.2-0.1-0.2-0.2c0-0.1,0.1-0.2,0.2-0.2c0.1,0,0.2,0.1,0.2,0.2C130.2,23.3,130.1,23.4,130,23.4z"/>
	<path class="st0" d="M128.3,53.1c-0.4,0-0.7,0.3-0.7,0.7s0.3,0.7,0.7,0.7s0.7-0.3,0.7-0.7C128.9,53.5,128.7,53.1,128.3,53.1z
		 M128.3,54.1c-0.1,0-0.2-0.1-0.2-0.2c0-0.1,0.1-0.2,0.2-0.2s0.2,0.1,0.2,0.2S128.4,54.1,128.3,54.1z"/>
	<path class="st0" d="M124.6,28.5c0.4,0,0.7-0.3,0.7-0.7s-0.3-0.7-0.7-0.7c-0.4,0-0.7,0.3-0.7,0.7C123.8,28.2,124.2,28.5,124.6,28.5
		z M124.6,27.6c0.1,0,0.2,0.1,0.2,0.2s-0.1,0.2-0.2,0.2c-0.1,0-0.2-0.1-0.2-0.2C124.3,27.7,124.4,27.6,124.6,27.6z"/>
	<path class="st0" d="M134.2,48.1c0-0.6-0.5-1.1-1.1-1.1c-0.6,0-1.1,0.5-1.1,1.1s0.5,1.1,1.1,1.1C133.7,49.2,134.2,48.7,134.2,48.1z
		 M133.1,48.6c-0.3,0-0.6-0.3-0.6-0.6s0.3-0.6,0.6-0.6s0.6,0.3,0.6,0.6S133.4,48.6,133.1,48.6z"/>
	<path class="st0" d="M213.7,124.6c0-2-1.7-3.6-3.6-3.6c-1.9,0-3.6,1.7-3.6,3.6c0,1.9,1.7,3.6,3.6,3.6
		C212,128.2,213.7,126.7,213.7,124.6z M210.1,127.3c-1.5,0-2.6-1.2-2.6-2.6s1.2-2.6,2.6-2.6s2.6,1.2,2.6,2.6
		S211.5,127.3,210.1,127.3z"/>
	<path class="st0" d="M213.1,128.8c-0.5,0-0.9,0.2-1.2,0.5c-0.3,0.3-0.5,0.7-0.5,1.2s0.2,0.9,0.5,1.2c0.3,0.3,0.7,0.5,1.2,0.5l0,0
		c0.4,0,0.9-0.2,1.2-0.5s0.5-0.7,0.5-1.2s-0.2-0.9-0.5-1.2C213.9,129,213.5,128.9,213.1,128.8z M213.7,131.1
		c-0.2,0.2-0.4,0.3-0.7,0.3c-0.3,0-0.5-0.1-0.7-0.3c-0.2-0.2-0.3-0.4-0.3-0.7l0,0c0-0.3,0.1-0.5,0.3-0.7c0.2-0.2,0.4-0.3,0.7-0.3
		l0,0c0.3,0,0.5,0.1,0.7,0.3c0.2,0.2,0.3,0.4,0.3,0.7S213.9,130.9,213.7,131.1z"/>
	<path class="st0" d="M191.4,127.4c-0.4,0-0.9,0.2-1.2,0.5c-0.3,0.3-0.5,0.7-0.5,1.2c0,0.5,0.2,0.9,0.5,1.2c0.3,0.3,0.7,0.5,1.2,0.5
		l0,0c0.4,0,0.9-0.2,1.2-0.5c0.3-0.3,0.5-0.7,0.5-1.2c0-0.5-0.2-0.9-0.5-1.2C192.2,127.6,191.8,127.4,191.4,127.4z M192,129.8
		c-0.2,0.2-0.4,0.3-0.7,0.3c-0.3,0-0.5-0.1-0.7-0.3c-0.2-0.2-0.3-0.4-0.3-0.7l0,0c0-0.3,0.1-0.5,0.3-0.7c0.2-0.2,0.4-0.3,0.7-0.3
		l0,0c0.3,0,0.5,0.1,0.7,0.3c0.2,0.2,0.3,0.4,0.3,0.7C192.3,129.3,192.2,129.6,192,129.8z"/>
	<path class="st0" d="M204.6,120.6c-0.9,0-1.7,0.8-1.7,1.7s0.8,1.7,1.7,1.7s1.7-0.8,1.7-1.7S205.6,120.6,204.6,120.6z M204.6,123.1
		c-0.5,0-0.9-0.4-0.9-0.9s0.4-0.9,0.9-0.9s0.9,0.4,0.9,0.9C205.6,122.8,205.2,123.1,204.6,123.1z"/>
	<path class="st0" d="M216.6,126.2c0,0.6,0.5,1.1,1.1,1.1s1.1-0.5,1.1-1.1s-0.5-1.1-1.1-1.1S216.6,125.6,216.6,126.2z M218.2,126.2
		c0,0.3-0.3,0.6-0.6,0.6c-0.3,0-0.6-0.3-0.6-0.6c0-0.3,0.3-0.6,0.6-0.6C217.9,125.6,218.2,125.9,218.2,126.2z"/>
	<path class="st0" d="M201.2,132.8c-0.6,0-1.1,0.5-1.1,1.1s0.5,1.1,1.1,1.1c0.6,0,1.1-0.5,1.1-1.1S201.8,132.8,201.2,132.8z
		 M201.2,134.4c-0.3,0-0.6-0.3-0.6-0.6s0.3-0.6,0.6-0.6s0.6,0.3,0.6,0.6S201.5,134.4,201.2,134.4z"/>
	<path class="st0" d="M208.5,134.6c-0.4,0-0.7,0.3-0.7,0.7s0.3,0.7,0.7,0.7s0.7-0.3,0.7-0.7S208.9,134.6,208.5,134.6z M208.5,135.5
		c-0.1,0-0.2-0.1-0.2-0.2s0.1-0.2,0.2-0.2s0.2,0.1,0.2,0.2S208.6,135.5,208.5,135.5z"/>
	<path class="st0" d="M219.3,136.9c0.4,0,0.7-0.3,0.7-0.7s-0.3-0.7-0.7-0.7s-0.7,0.3-0.7,0.7C218.6,136.6,218.9,136.9,219.3,136.9z
		 M219.3,136c0.1,0,0.2,0.1,0.2,0.2s-0.1,0.2-0.2,0.2c-0.1,0-0.2-0.1-0.2-0.2S219.2,136,219.3,136z"/>
	<path class="st0" d="M189.7,135.5c-0.4,0-0.7,0.3-0.7,0.7s0.3,0.7,0.7,0.7s0.7-0.3,0.7-0.7S190.1,135.5,189.7,135.5z M189.7,136.4
		c-0.1,0-0.2-0.1-0.2-0.2c0-0.1,0.1-0.2,0.2-0.2c0.1,0,0.2,0.1,0.2,0.2S189.8,136.4,189.7,136.4z"/>
	<path class="st0" d="M219.3,124.7c0.4,0,0.7-0.3,0.7-0.7c0-0.4-0.3-0.7-0.7-0.7s-0.7,0.3-0.7,0.7
		C218.6,124.4,218.9,124.7,219.3,124.7z M219.3,123.8c0.1,0,0.2,0.1,0.2,0.2c0,0.1-0.1,0.2-0.2,0.2c-0.1,0-0.2-0.1-0.2-0.2
		C219.1,123.9,219.2,123.8,219.3,123.8z"/>
	<path class="st0" d="M189.3,122.3c0-0.4-0.3-0.7-0.7-0.7s-0.7,0.3-0.7,0.7c0,0.4,0.3,0.7,0.7,0.7S189.3,122.7,189.3,122.3z
		 M188.6,122.5c-0.1,0-0.2-0.1-0.2-0.2c0-0.1,0.1-0.2,0.2-0.2s0.2,0.1,0.2,0.2C188.8,122.4,188.7,122.5,188.6,122.5z"/>
	<path class="st0" d="M214.7,117.8c-0.4,0-0.7,0.3-0.7,0.7s0.3,0.7,0.7,0.7s0.7-0.3,0.7-0.7S215.1,117.8,214.7,117.8z M214.7,118.8
		c-0.1,0-0.2-0.1-0.2-0.2c0-0.1,0.1-0.2,0.2-0.2s0.2,0.1,0.2,0.2C214.9,118.7,214.8,118.8,214.7,118.8z"/>
	<path class="st0" d="M194.5,126.1c-0.6,0-1.1,0.5-1.1,1.1s0.5,1.1,1.1,1.1s1.1-0.5,1.1-1.1S195,126.1,194.5,126.1z M194.5,127.6
		c-0.3,0-0.6-0.3-0.6-0.6c0-0.3,0.3-0.6,0.6-0.6s0.6,0.3,0.6,0.6C195,127.3,194.8,127.6,194.5,127.6z"/>
	<path class="st0" d="M40.9,119.1c0-2-1.7-3.6-3.6-3.6c-2,0-3.6,1.7-3.6,3.6c0,1.9,1.7,3.6,3.6,3.6
		C39.3,122.7,40.9,121.1,40.9,119.1z M37.3,121.7c-1.5,0-2.6-1.2-2.6-2.6s1.2-2.6,2.6-2.6c1.5,0,2.6,1.2,2.6,2.6
		S38.8,121.7,37.3,121.7z"/>
	<path class="st0" d="M40.2,123.2c-0.9,0-1.7,0.7-1.7,1.7c0,1,0.7,1.7,1.7,1.7l0,0c0.9,0,1.7-0.7,1.7-1.7
		C41.9,124,41.1,123.2,40.2,123.2z M40.2,125.9L40.2,125.9c-0.5,0-1-0.4-0.9-1s0.5-0.9,1-0.9s0.9,0.4,0.9,1
		C41.1,125.5,40.7,125.9,40.2,125.9z"/>
	<path class="st0" d="M18.6,121.9L18.6,121.9c-1,0-1.7,0.7-1.7,1.7c0,0.9,0.7,1.7,1.7,1.7l0,0c0.9,0,1.7-0.7,1.7-1.7
		c0-0.5-0.2-0.9-0.5-1.2C19.5,122.1,19.1,121.9,18.6,121.9z M18.6,124.4c-0.5,0-0.9-0.4-0.9-1s0.4-0.9,1-0.9c0.5,0,0.9,0.4,0.9,1
		C19.5,124,19.1,124.4,18.6,124.4z"/>
	<path class="st0" d="M31.8,115.1c-0.9,0-1.7,0.8-1.7,1.7c0,0.9,0.8,1.7,1.7,1.7c0.9,0,1.7-0.8,1.7-1.7
		C33.5,115.8,32.7,115.1,31.8,115.1z M31.8,117.6c-0.5,0-0.9-0.4-0.9-0.9c0-0.5,0.4-0.9,0.9-0.9s0.9,0.4,0.9,0.9
		C32.7,117.2,32.3,117.6,31.8,117.6z"/>
	<path class="st0" d="M44.8,119.5c-0.6,0-1.1,0.5-1.1,1.1s0.5,1.1,1.1,1.1c0.6,0,1.1-0.5,1.1-1.1S45.4,119.5,44.8,119.5z
		 M44.8,121.1c-0.3,0-0.6-0.3-0.6-0.6c0-0.3,0.3-0.6,0.6-0.6s0.6,0.3,0.6,0.6C45.4,120.8,45.1,121.1,44.8,121.1z"/>
	<path class="st0" d="M28.4,127.2c-0.6,0-1.1,0.5-1.1,1.1c0,0.6,0.5,1.1,1.1,1.1c0.6,0,1.1-0.5,1.1-1.1
		C29.5,127.7,29,127.2,28.4,127.2z M28.4,128.8c-0.3,0-0.6-0.3-0.6-0.6s0.3-0.6,0.6-0.6c0.3,0,0.6,0.3,0.6,0.6
		C29,128.6,28.7,128.8,28.4,128.8z"/>
	<path class="st0" d="M35.7,129c-0.4,0-0.7,0.3-0.7,0.7s0.3,0.7,0.7,0.7s0.7-0.3,0.7-0.7S36.1,129,35.7,129z M35.7,130
		c-0.1,0-0.2-0.1-0.2-0.2c0-0.1,0.1-0.2,0.2-0.2s0.2,0.1,0.2,0.2S35.8,130,35.7,130z"/>
	<path class="st0" d="M46.6,130c-0.4,0-0.7,0.3-0.7,0.7s0.3,0.7,0.7,0.7c0.4,0,0.7-0.3,0.7-0.7S47,130,46.6,130z M46.6,130.9
		c-0.1,0-0.2-0.1-0.2-0.2c0-0.1,0.1-0.2,0.2-0.2c0.1,0,0.2,0.1,0.2,0.2S46.7,130.9,46.6,130.9z"/>
	<path class="st0" d="M46.6,117.7c-0.4,0-0.7,0.3-0.7,0.7c0,0.4,0.3,0.7,0.7,0.7c0.4,0,0.7-0.3,0.7-0.7
		C47.2,118.1,47,117.7,46.6,117.7z M46.6,118.7c-0.1,0-0.2-0.1-0.2-0.2c0-0.1,0.1-0.2,0.2-0.2c0.1,0,0.2,0.1,0.2,0.2
		C46.8,118.6,46.7,118.7,46.6,118.7z"/>
	<path class="st0" d="M15.9,115.9c-0.4,0-0.7,0.3-0.7,0.7s0.3,0.7,0.7,0.7s0.7-0.3,0.7-0.7S16.2,115.9,15.9,115.9z M15.9,116.9
		c-0.1,0-0.2-0.1-0.2-0.2c0-0.1,0.1-0.2,0.2-0.2c0.1,0,0.2,0.1,0.2,0.2C16,116.8,15.9,116.9,15.9,116.9z"/>
	<path class="st0" d="M21.7,120.5c-0.6,0-1.1,0.5-1.1,1.1c0,0.6,0.5,1.1,1.1,1.1c0.6,0,1.1-0.5,1.1-1.1
		C22.8,121,22.3,120.5,21.7,120.5z M21.7,122.1c-0.3,0-0.6-0.3-0.6-0.6c0-0.3,0.3-0.6,0.6-0.6s0.6,0.3,0.6,0.6
		C22.3,121.8,22,122.1,21.7,122.1z"/>
	<path class="st0" d="M58.6,127.8c-0.6,0-1.1,0.5-1.1,1.1c0,0.6,0.5,1.1,1.1,1.1c0.6,0,1.1-0.5,1.1-1.1
		C59.6,128.3,59.1,127.8,58.6,127.8z M58.6,129.4c-0.3,0-0.6-0.3-0.6-0.6c0-0.3,0.3-0.6,0.6-0.6c0.3,0,0.6,0.3,0.6,0.6
		C59.1,129.1,58.8,129.4,58.6,129.4z"/>
	<path class="st0" d="M74.9,120.1c-0.6,0-1.1,0.5-1.1,1.1s0.5,1.1,1.1,1.1s1.1-0.5,1.1-1.1S75.5,120.1,74.9,120.1z M74.9,121.7
		c-0.3,0-0.6-0.3-0.6-0.6c0-0.3,0.3-0.6,0.6-0.6c0.3,0,0.6,0.3,0.6,0.6C75.5,121.4,75.2,121.7,74.9,121.7z"/>
	<path class="st0" d="M67.6,120.4c0.4,0,0.7-0.3,0.7-0.7c0-0.4-0.3-0.7-0.7-0.7s-0.7,0.3-0.7,0.7C66.9,120.1,67.2,120.4,67.6,120.4z
		 M67.6,119.5c0.1,0,0.2,0.1,0.2,0.2c0,0.1-0.1,0.2-0.2,0.2c-0.1,0-0.2-0.1-0.2-0.2C67.4,119.6,67.5,119.5,67.6,119.5z"/>
	<path class="st0" d="M56.8,118.1c-0.4,0-0.7,0.3-0.7,0.7c0,0.4,0.3,0.7,0.7,0.7s0.7-0.3,0.7-0.7S57.2,118.1,56.8,118.1z
		 M56.8,119.1c-0.1,0-0.2-0.1-0.2-0.2c0-0.1,0.1-0.2,0.2-0.2s0.2,0.1,0.2,0.2C57,118.9,56.9,119.1,56.8,119.1z"/>
	<path class="st0" d="M56.8,130.3c-0.4,0-0.7,0.3-0.7,0.7s0.3,0.7,0.7,0.7s0.7-0.3,0.7-0.7S57.2,130.3,56.8,130.3z M56.8,131.2
		c-0.1,0-0.2-0.1-0.2-0.2c0-0.1,0.1-0.2,0.2-0.2s0.2,0.1,0.2,0.2C57,131.1,56.9,131.2,56.8,131.2z"/>
	<path class="st0" d="M87.5,132c-0.4,0-0.7,0.3-0.7,0.7s0.3,0.7,0.7,0.7c0.4,0,0.7-0.3,0.7-0.7S87.9,132,87.5,132z M87.5,133
		c-0.1,0-0.2-0.1-0.2-0.2s0.1-0.2,0.2-0.2c0.1,0,0.2,0.1,0.2,0.2S87.6,133,87.5,133z"/>
	<path class="st0" d="M61.4,135.8c-0.4,0-0.7,0.3-0.7,0.7s0.3,0.7,0.7,0.7c0.4,0,0.7-0.3,0.7-0.7S61.8,135.8,61.4,135.8z
		 M61.4,136.7c-0.1,0-0.2-0.1-0.2-0.2s0.1-0.2,0.2-0.2c0.1,0,0.2,0.1,0.2,0.2S61.6,136.7,61.4,136.7z"/>
	<path class="st0" d="M81.7,128.9c0.6,0,1.1-0.5,1.1-1.1c0-0.6-0.5-1.1-1.1-1.1s-1.1,0.5-1.1,1.1C80.6,128.4,81.1,128.9,81.7,128.9z
		 M81.7,127.3c0.3,0,0.6,0.3,0.6,0.6c0,0.3-0.3,0.6-0.6,0.6c-0.3,0-0.6-0.3-0.6-0.6C81.1,127.6,81.4,127.3,81.7,127.3z"/>
	<path class="st0" d="M111.6,146.4c-0.6,0-1.1,0.5-1.1,1.1c0,0.6,0.5,1.1,1.1,1.1c0.6,0,1.1-0.5,1.1-1.1
		C112.7,146.8,112.2,146.4,111.6,146.4z M111.6,147.9c-0.3,0-0.6-0.3-0.6-0.6s0.3-0.6,0.6-0.6c0.3,0,0.6,0.3,0.6,0.6
		S112,147.9,111.6,147.9z"/>
	<path class="st0" d="M103.9,130c-0.6,0-1.1,0.5-1.1,1.1c0,0.6,0.5,1.1,1.1,1.1s1.1-0.5,1.1-1.1C105,130.5,104.5,130,103.9,130z
		 M103.9,131.6c-0.3,0-0.6-0.3-0.6-0.6c0-0.3,0.3-0.6,0.6-0.6c0.3,0,0.6,0.3,0.6,0.6C104.5,131.3,104.2,131.6,103.9,131.6z"/>
	<path class="st0" d="M82.9,138.7c-1.9,0-3.3,1.5-3.3,3.3s1.5,3.3,3.3,3.3s3.3-1.5,3.3-3.3C86.3,140.2,84.8,138.7,82.9,138.7z
		 M82.9,144.5c-1.3,0-2.3-1.1-2.3-2.3s1.1-2.3,2.3-2.3c1.3,0,2.3,1.1,2.3,2.3S84.3,144.5,82.9,144.5z"/>
	<path class="st0" d="M102.5,137.6c-0.4,0-0.7,0.3-0.7,0.7s0.3,0.7,0.7,0.7c0.4,0,0.7-0.3,0.7-0.7
		C103.2,138,102.9,137.6,102.5,137.6z M102.5,138.6c-0.1,0-0.2-0.1-0.2-0.2c0-0.1,0.1-0.2,0.2-0.2s0.2,0.1,0.2,0.2
		C102.7,138.5,102.6,138.6,102.5,138.6z"/>
	<path class="st0" d="M101.5,148.5c-0.4,0-0.7,0.3-0.7,0.7s0.3,0.7,0.7,0.7s0.7-0.3,0.7-0.7C102.2,148.8,101.9,148.5,101.5,148.5z
		 M101.5,149.4c-0.1,0-0.2-0.1-0.2-0.2c0-0.1,0.1-0.2,0.2-0.2c0.1,0,0.2,0.1,0.2,0.2C101.7,149.3,101.6,149.4,101.5,149.4z"/>
	<path class="st0" d="M113.7,148.5c-0.4,0-0.7,0.3-0.7,0.7s0.3,0.7,0.7,0.7c0.4,0,0.7-0.3,0.7-0.7
		C114.5,148.8,114.1,148.5,113.7,148.5z M113.7,149.4c-0.1,0-0.2-0.1-0.2-0.2c0-0.1,0.1-0.2,0.2-0.2c0.1,0,0.2,0.1,0.2,0.2
		C114,149.3,113.9,149.4,113.7,149.4z"/>
	<path class="st0" d="M119.3,143.8c-0.4,0-0.7,0.3-0.7,0.7s0.3,0.7,0.7,0.7c0.4,0,0.7-0.3,0.7-0.7S119.7,143.8,119.3,143.8z
		 M119.3,144.8c-0.1,0-0.2-0.1-0.2-0.2s0.1-0.2,0.2-0.2c0.1,0,0.2,0.1,0.2,0.2C119.5,144.6,119.4,144.8,119.3,144.8z"/>
	<path class="st0" d="M110.6,123.2c-0.6,0-1.1,0.5-1.1,1.1s0.5,1.1,1.1,1.1s1.1-0.5,1.1-1.1S111.2,123.2,110.6,123.2z M110.6,124.8
		c-0.3,0-0.6-0.3-0.6-0.6c0-0.3,0.3-0.6,0.6-0.6s0.6,0.3,0.6,0.6C111.2,124.5,110.9,124.8,110.6,124.8z"/>
	<path class="st0" d="M151.6,135.3c-0.6,0-1.1,0.5-1.1,1.1c0,0.6,0.5,1.1,1.1,1.1c0.6,0,1.1-0.5,1.1-1.1
		C152.6,135.8,152.1,135.3,151.6,135.3z M151.6,137c-0.3,0-0.6-0.3-0.6-0.6s0.3-0.6,0.6-0.6c0.3,0,0.6,0.3,0.6,0.6
		S151.9,137,151.6,137z"/>
	<path class="st0" d="M167.9,127.6c-0.6,0-1.1,0.5-1.1,1.1c0,0.6,0.5,1.1,1.1,1.1c0.6,0,1.1-0.5,1.1-1.1
		C169,128.1,168.5,127.6,167.9,127.6z M167.9,129.2c-0.3,0-0.6-0.3-0.6-0.6s0.3-0.6,0.6-0.6s0.6,0.3,0.6,0.6
		S168.2,129.2,167.9,129.2z"/>
	<path class="st0" d="M180,125.1c-0.4,0-0.7,0.3-0.7,0.7s0.3,0.7,0.7,0.7s0.7-0.3,0.7-0.7S180.4,125.1,180,125.1z M180,126.1
		c-0.1,0-0.2-0.1-0.2-0.2c0-0.1,0.1-0.2,0.2-0.2s0.2,0.1,0.2,0.2C180.2,126,180.2,126.1,180,126.1z"/>
	<path class="st0" d="M149.8,125.6c-0.4,0-0.7,0.3-0.7,0.7s0.3,0.7,0.7,0.7s0.7-0.3,0.7-0.7S150.2,125.6,149.8,125.6z M149.8,126.6
		c-0.1,0-0.2-0.1-0.2-0.2c0-0.1,0.1-0.2,0.2-0.2s0.2,0.1,0.2,0.2C150,126.5,149.9,126.6,149.8,126.6z"/>
	<path class="st0" d="M149.8,137.8c-0.4,0-0.7,0.3-0.7,0.7s0.3,0.7,0.7,0.7s0.7-0.3,0.7-0.7C150.5,138.2,150.2,137.8,149.8,137.8z
		 M149.8,138.7c-0.1,0-0.2-0.1-0.2-0.2s0.1-0.2,0.2-0.2s0.2,0.1,0.2,0.2C150,138.7,149.9,138.7,149.8,138.7z"/>
	<path class="st0" d="M174.7,134c0.4,0,0.7-0.3,0.7-0.7s-0.3-0.7-0.7-0.7s-0.7,0.3-0.7,0.7C174,133.6,174.3,134,174.7,134z
		 M174.7,133c0.1,0,0.2,0.1,0.2,0.2c0,0.1-0.1,0.2-0.2,0.2c-0.1,0-0.2-0.1-0.2-0.2S174.6,133,174.7,133z"/>
	<path class="st0" d="M158.7,131.5c-0.4,0-0.7,0.3-0.7,0.7s0.3,0.7,0.7,0.7s0.7-0.3,0.7-0.7C159.4,131.9,159.1,131.5,158.7,131.5z
		 M158.7,132.5c-0.1,0-0.2-0.1-0.2-0.2c0-0.1,0.1-0.2,0.2-0.2s0.2,0.1,0.2,0.2C158.9,132.4,158.8,132.5,158.7,132.5z"/>
	<path class="st0" d="M174.7,134.4c-0.6,0-1.1,0.5-1.1,1.1c0,0.6,0.5,1.1,1.1,1.1c0.6,0,1.1-0.5,1.1-1.1
		C175.7,134.8,175.3,134.4,174.7,134.4z M174.7,135.9c-0.3,0-0.6-0.3-0.6-0.6s0.3-0.6,0.6-0.6s0.6,0.3,0.6,0.6
		C175.3,135.7,175,135.9,174.7,135.9z"/>
	<path class="st0" d="M138.7,93.6L138,94c-0.2,0.1-0.2,0.3-0.1,0.5c0.1,0.1,0.2,0.2,0.3,0.2s0.1,0,0.2-0.1l0.7-0.4
		c0.2-0.1,0.2-0.3,0.1-0.5C139.1,93.6,138.9,93.5,138.7,93.6z"/>
	<path class="st0" d="M142.6,94.6l-0.7,0.4c-0.2,0.1-0.2,0.3-0.1,0.5c0.1,0.1,0.2,0.2,0.3,0.2s0.1,0,0.2-0.1l0.7-0.4
		c0.2-0.1,0.2-0.3,0.1-0.5C143,94.6,142.8,94.5,142.6,94.6z"/>
	<path class="st0" d="M138.7,103.4l-0.7,0.4c-0.2,0.1-0.2,0.3-0.1,0.5c0.1,0.1,0.2,0.2,0.3,0.2s0.1,0,0.2-0.1l0.7-0.4
		c0.2-0.1,0.2-0.3,0.1-0.5C139.1,103.4,138.9,103.3,138.7,103.4z"/>
	<path class="st0" d="M142.6,104.3l-0.7,0.4c-0.2,0.1-0.2,0.3-0.1,0.5c0.1,0.1,0.2,0.2,0.3,0.2s0.1,0,0.2-0.1l0.7-0.4
		c0.2-0.1,0.2-0.3,0.1-0.5C143,104.3,142.8,104.2,142.6,104.3z"/>
	<path class="st0" d="M142.1,108.4c-0.1-0.2-0.3-0.2-0.5-0.1l-0.7,0.4c-0.2,0.1-0.2,0.3-0.1,0.5c0.1,0.1,0.2,0.2,0.3,0.2
		c0.1,0,0.1,0,0.2-0.1l0.7-0.4C142.2,108.8,142.2,108.5,142.1,108.4z"/>
	<path class="st0" d="M138.2,107.5c-0.1-0.2-0.3-0.2-0.5-0.1l-0.7,0.4c-0.2,0.1-0.2,0.3-0.1,0.5c0.1,0.1,0.2,0.2,0.3,0.2
		s0.1,0,0.2-0.1l0.7-0.4C138.3,107.8,138.3,107.6,138.2,107.5z"/>
	<path class="st0" d="M138.7,113.1l-0.7,0.4c-0.2,0.1-0.2,0.3-0.1,0.5c0.1,0.1,0.2,0.2,0.3,0.2s0.1,0,0.2-0.1l0.7-0.4
		c0.2-0.1,0.2-0.3,0.1-0.5C139.1,113.1,138.9,113,138.7,113.1z"/>
	<path class="st0" d="M142.6,114.1l-0.7,0.4c-0.2,0.1-0.2,0.3-0.1,0.5c0.1,0.1,0.2,0.2,0.3,0.2s0.1,0,0.2-0.1l0.7-0.4
		c0.2-0.1,0.2-0.3,0.1-0.5C143,114.1,142.8,114,142.6,114.1z"/>
	<path class="st0" d="M142.1,88.9c-0.1-0.2-0.3-0.2-0.5-0.1l-0.7,0.4c-0.2,0.1-0.2,0.3-0.1,0.5c0.1,0.1,0.2,0.2,0.3,0.2
		c0.1,0,0.1,0,0.2-0.1l0.7-0.4C142.2,89.3,142.2,89,142.1,88.9z"/>
	<path class="st0" d="M138.2,88c-0.1-0.2-0.3-0.2-0.5-0.1l-0.7,0.4c-0.2,0.1-0.2,0.3-0.1,0.5c0.1,0.1,0.2,0.2,0.3,0.2s0.1,0,0.2-0.1
		l0.7-0.4C138.3,88.3,138.3,88.1,138.2,88z"/>
	<path class="st0" d="M128.9,93.6l-0.7,0.4c-0.2,0.1-0.2,0.3-0.1,0.5c0.1,0.1,0.2,0.2,0.3,0.2c0.1,0,0.1,0,0.2-0.1l0.7-0.4
		c0.2-0.1,0.2-0.3,0.1-0.5C129.3,93.6,129.1,93.5,128.9,93.6z"/>
	<path class="st0" d="M132.8,94.6l-0.7,0.4c-0.2,0.1-0.2,0.3-0.1,0.5c0.1,0.1,0.2,0.2,0.3,0.2s0.1,0,0.2-0.1l0.7-0.4
		c0.2-0.1,0.2-0.3,0.1-0.5C133.2,94.6,133,94.5,132.8,94.6z"/>
	<path class="st0" d="M128.9,103.4l-0.7,0.4c-0.2,0.1-0.2,0.3-0.1,0.5c0.1,0.1,0.2,0.2,0.3,0.2c0.1,0,0.1,0,0.2-0.1l0.7-0.4
		c0.2-0.1,0.2-0.3,0.1-0.5C129.3,103.4,129.1,103.3,128.9,103.4z"/>
	<path class="st0" d="M132.8,104.3l-0.7,0.4c-0.2,0.1-0.2,0.3-0.1,0.5c0.1,0.1,0.2,0.2,0.3,0.2s0.1,0,0.2-0.1l0.7-0.4
		c0.2-0.1,0.2-0.3,0.1-0.5C133.2,104.3,133,104.2,132.8,104.3z"/>
	<path class="st0" d="M132.4,108.4c-0.1-0.2-0.3-0.2-0.5-0.1l-0.7,0.4c-0.2,0.1-0.2,0.3-0.1,0.5c0.1,0.1,0.2,0.2,0.3,0.2
		c0.1,0,0.1,0,0.2-0.1l0.7-0.4C132.5,108.8,132.5,108.5,132.4,108.4z"/>
	<path class="st0" d="M128.5,107.5c-0.1-0.2-0.3-0.2-0.5-0.1l-0.7,0.4c-0.2,0.1-0.2,0.3-0.1,0.5c0.1,0.1,0.2,0.2,0.3,0.2
		c0.1,0,0.1,0,0.2-0.1l0.7-0.4C128.6,107.8,128.6,107.6,128.5,107.5z"/>
	<path class="st0" d="M128.9,113.1l-0.7,0.4c-0.2,0.1-0.2,0.3-0.1,0.5c0.1,0.1,0.2,0.2,0.3,0.2c0.1,0,0.1,0,0.2-0.1l0.7-0.4
		c0.2-0.1,0.2-0.3,0.1-0.5C129.3,113.1,129.1,113,128.9,113.1z"/>
	<path class="st0" d="M132.8,114.1l-0.7,0.4c-0.2,0.1-0.2,0.3-0.1,0.5c0.1,0.1,0.2,0.2,0.3,0.2s0.1,0,0.2-0.1l0.7-0.4
		c0.2-0.1,0.2-0.3,0.1-0.5C133.2,114.1,133,114,132.8,114.1z"/>
	<path class="st0" d="M132.4,88.9c-0.1-0.2-0.3-0.2-0.5-0.1l-0.7,0.4c-0.2,0.1-0.2,0.3-0.1,0.5c0.1,0.1,0.2,0.2,0.3,0.2
		c0.1,0,0.1,0,0.2-0.1l0.7-0.4C132.5,89.3,132.5,89,132.4,88.9z"/>
	<path class="st0" d="M128.5,88c-0.1-0.2-0.3-0.2-0.5-0.1l-0.7,0.4c-0.2,0.1-0.2,0.3-0.1,0.5c0.1,0.1,0.2,0.2,0.3,0.2
		c0.1,0,0.1,0,0.2-0.1l0.7-0.4C128.6,88.3,128.6,88.1,128.5,88z"/>
	<path class="st0" d="M119.2,93.6l-0.7,0.4c-0.2,0.1-0.2,0.3-0.1,0.5c0.1,0.1,0.2,0.2,0.3,0.2c0.1,0,0.1,0,0.2-0.1l0.7-0.4
		c0.2-0.1,0.2-0.3,0.1-0.5C119.6,93.6,119.4,93.5,119.2,93.6z"/>
	<path class="st0" d="M123.1,94.6l-0.7,0.4c-0.2,0.1-0.2,0.3-0.1,0.5c0.1,0.1,0.2,0.2,0.3,0.2c0.1,0,0.1,0,0.2-0.1l0.7-0.4
		c0.2-0.1,0.2-0.3,0.1-0.5C123.5,94.6,123.3,94.5,123.1,94.6z"/>
	<path class="st0" d="M119.2,103.4l-0.7,0.4c-0.2,0.1-0.2,0.3-0.1,0.5c0.1,0.1,0.2,0.2,0.3,0.2c0.1,0,0.1,0,0.2-0.1l0.7-0.4
		c0.2-0.1,0.2-0.3,0.1-0.5C119.6,103.4,119.4,103.3,119.2,103.4z"/>
	<path class="st0" d="M123.1,104.3l-0.7,0.4c-0.2,0.1-0.2,0.3-0.1,0.5c0.1,0.1,0.2,0.2,0.3,0.2c0.1,0,0.1,0,0.2-0.1l0.7-0.4
		c0.2-0.1,0.2-0.3,0.1-0.5C123.5,104.3,123.3,104.2,123.1,104.3z"/>
	<path class="st0" d="M122.6,108.4c-0.1-0.2-0.3-0.2-0.5-0.1l-0.7,0.4c-0.2,0.1-0.2,0.3-0.1,0.5c0.1,0.1,0.2,0.2,0.3,0.2
		c0.1,0,0.1,0,0.2-0.1l0.7-0.4C122.7,108.8,122.7,108.5,122.6,108.4z"/>
	<path class="st0" d="M118.7,107.5c-0.1-0.2-0.3-0.2-0.5-0.1l-0.7,0.4c-0.2,0.1-0.2,0.3-0.1,0.5c0.1,0.1,0.2,0.2,0.3,0.2
		c0.1,0,0.1,0,0.2-0.1l0.7-0.4C118.8,107.8,118.8,107.6,118.7,107.5z"/>
	<path class="st0" d="M119.2,113.1l-0.7,0.4c-0.2,0.1-0.2,0.3-0.1,0.5c0.1,0.1,0.2,0.2,0.3,0.2c0.1,0,0.1,0,0.2-0.1l0.7-0.4
		c0.2-0.1,0.2-0.3,0.1-0.5C119.6,113.1,119.4,113,119.2,113.1z"/>
	<path class="st0" d="M123.1,114.1l-0.7,0.4c-0.2,0.1-0.2,0.3-0.1,0.5c0.1,0.1,0.2,0.2,0.3,0.2c0.1,0,0.1,0,0.2-0.1l0.7-0.4
		c0.2-0.1,0.2-0.3,0.1-0.5C123.5,114.1,123.3,114,123.1,114.1z"/>
	<path class="st0" d="M122.6,88.9c-0.1-0.2-0.3-0.2-0.5-0.1l-0.7,0.4c-0.2,0.1-0.2,0.3-0.1,0.5c0.1,0.1,0.2,0.2,0.3,0.2
		c0.1,0,0.1,0,0.2-0.1l0.7-0.4C122.7,89.3,122.7,89,122.6,88.9z"/>
	<path class="st0" d="M118.7,88c-0.1-0.2-0.3-0.2-0.5-0.1l-0.7,0.4c-0.2,0.1-0.2,0.3-0.1,0.5c0.1,0.1,0.2,0.2,0.3,0.2
		c0.1,0,0.1,0,0.2-0.1l0.7-0.4C118.8,88.3,118.8,88.1,118.7,88z"/>
	<path class="st0" d="M109.4,93.6l-0.7,0.4c-0.2,0.1-0.2,0.3-0.1,0.5c0.1,0.1,0.2,0.2,0.3,0.2c0.1,0,0.1,0,0.2-0.1l0.7-0.4
		c0.2-0.1,0.2-0.3,0.1-0.5C109.8,93.6,109.6,93.5,109.4,93.6z"/>
	<path class="st0" d="M109.4,103.4l-0.7,0.4c-0.2,0.1-0.2,0.3-0.1,0.5c0.1,0.1,0.2,0.2,0.3,0.2c0.1,0,0.1,0,0.2-0.1l0.7-0.4
		c0.2-0.1,0.2-0.3,0.1-0.5C109.8,103.4,109.6,103.3,109.4,103.4z"/>
	<path class="st0" d="M113.3,104.3l-0.7,0.4c-0.2,0.1-0.2,0.3-0.1,0.5c0.1,0.1,0.2,0.2,0.3,0.2c0.1,0,0.1,0,0.2-0.1l0.7-0.4
		c0.2-0.1,0.2-0.3,0.1-0.5C113.7,104.3,113.5,104.2,113.3,104.3z"/>
	<path class="st0" d="M112.9,108.4c-0.1-0.2-0.3-0.2-0.5-0.1l-0.7,0.4c-0.2,0.1-0.2,0.3-0.1,0.5c0.1,0.1,0.2,0.2,0.3,0.2
		c0.1,0,0.1,0,0.2-0.1l0.7-0.4C113,108.8,113,108.5,112.9,108.4z"/>
	<path class="st0" d="M109,107.5c-0.1-0.2-0.3-0.2-0.5-0.1l-0.7,0.4c-0.2,0.1-0.2,0.3-0.1,0.5c0.1,0.1,0.2,0.2,0.3,0.2
		c0.1,0,0.1,0,0.2-0.1l0.7-0.4C109.1,107.8,109.1,107.6,109,107.5z"/>
	<path class="st0" d="M109.4,113.1l-0.7,0.4c-0.2,0.1-0.2,0.3-0.1,0.5c0.1,0.1,0.2,0.2,0.3,0.2c0.1,0,0.1,0,0.2-0.1l0.7-0.4
		c0.2-0.1,0.2-0.3,0.1-0.5C109.8,113.1,109.6,113,109.4,113.1z"/>
	<path class="st0" d="M113.3,114.1l-0.7,0.4c-0.2,0.1-0.2,0.3-0.1,0.5c0.1,0.1,0.2,0.2,0.3,0.2c0.1,0,0.1,0,0.2-0.1l0.7-0.4
		c0.2-0.1,0.2-0.3,0.1-0.5C113.7,114.1,113.5,114,113.3,114.1z"/>
	<path class="st0" d="M112.4,88.7l-0.7,0.4c-0.2,0.1-0.2,0.3-0.1,0.5c0.1,0.1,0.2,0.2,0.3,0.2c0.1,0,0.1,0,0.2-0.1l0.7-0.4
		c0.2-0.1,0.2-0.3,0.1-0.5C112.8,88.7,112.6,88.6,112.4,88.7z"/>
	<path class="st0" d="M103.1,105.5c0.1,0,0.1,0,0.2-0.1l0.7-0.4c0.2-0.1,0.2-0.3,0.1-0.5c-0.1-0.2-0.3-0.2-0.5-0.1l-0.7,0.4
		c-0.2,0.1-0.2,0.3-0.1,0.5C102.8,105.4,102.9,105.5,103.1,105.5z"/>
	<path class="st0" d="M103.1,108.4c-0.1-0.2-0.3-0.2-0.5-0.1l-0.7,0.4c-0.2,0.1-0.2,0.3-0.1,0.5c0.1,0.1,0.2,0.2,0.3,0.2
		s0.1,0,0.2-0.1l0.7-0.4C103.2,108.8,103.2,108.5,103.1,108.4z"/>
	<path class="st0" d="M89.9,103.4l-0.7,0.4c-0.2,0.1-0.2,0.3-0.1,0.5c0.1,0.1,0.2,0.2,0.3,0.2c0.1,0,0.1,0,0.2-0.1l0.7-0.4
		c0.2-0.1,0.2-0.3,0.1-0.5C90.3,103.4,90.1,103.3,89.9,103.4z"/>
	<path class="st0" d="M94.3,104.5c-0.1-0.2-0.3-0.2-0.5-0.1l-0.7,0.4c-0.2,0.1-0.2,0.3-0.1,0.5c0.1,0.1,0.2,0.2,0.3,0.2
		c0.1,0,0.1,0,0.2-0.1l0.7-0.4C94.4,104.9,94.4,104.6,94.3,104.5z"/>
	<path class="st0" d="M89.5,107.5c-0.1-0.2-0.3-0.2-0.5-0.1l-0.7,0.4c-0.2,0.1-0.2,0.3-0.1,0.5c0.1,0.1,0.2,0.2,0.3,0.2
		c0.1,0,0.1,0,0.2-0.1l0.7-0.4C89.6,107.8,89.6,107.6,89.5,107.5z"/>
	<path class="st0" d="M89.9,113.1l-0.7,0.4c-0.2,0.1-0.2,0.3-0.1,0.5c0.1,0.1,0.2,0.2,0.3,0.2c0.1,0,0.1,0,0.2-0.1l0.7-0.4
		c0.2-0.1,0.2-0.3,0.1-0.5C90.3,113.1,90.1,113,89.9,113.1z"/>
	<path class="st0" d="M80.2,103.4l-0.7,0.4c-0.2,0.1-0.2,0.3-0.1,0.5c0.1,0.1,0.2,0.2,0.3,0.2c0.1,0,0.1,0,0.2-0.1l0.7-0.4
		c0.2-0.1,0.2-0.3,0.1-0.5C80.6,103.4,80.4,103.3,80.2,103.4z"/>
	<path class="st0" d="M84.1,104.3l-0.7,0.4c-0.2,0.1-0.2,0.3-0.1,0.5c0.1,0.1,0.2,0.2,0.3,0.2c0.1,0,0.1,0,0.2-0.1l0.7-0.4
		c0.2-0.1,0.2-0.3,0.1-0.5C84.5,104.3,84.3,104.2,84.1,104.3z"/>
	<path class="st0" d="M83.1,108.2l-0.7,0.4c-0.2,0.1-0.2,0.3-0.1,0.5c0.1,0.1,0.2,0.2,0.3,0.2s0.1,0,0.2-0.1l0.7-0.4
		c0.2-0.1,0.2-0.3,0.1-0.5C83.5,108.2,83.3,108.1,83.1,108.2z"/>
	<path class="st0" d="M79.7,107.5c-0.1-0.2-0.3-0.2-0.5-0.1l-0.7,0.4c-0.2,0.1-0.2,0.3-0.1,0.5c0.1,0.1,0.2,0.2,0.3,0.2
		c0.1,0,0.1,0,0.2-0.1l0.7-0.4C79.8,107.8,79.8,107.6,79.7,107.5z"/>
	<path class="st0" d="M80.2,113.1l-0.7,0.4c-0.2,0.1-0.2,0.3-0.1,0.5c0.1,0.1,0.2,0.2,0.3,0.2c0.1,0,0.1,0,0.2-0.1l0.7-0.4
		c0.2-0.1,0.2-0.3,0.1-0.5C80.6,113.1,80.4,113,80.2,113.1z"/>
	<path class="st0" d="M72.9,99.7c0.1,0,0.1,0,0.2-0.1l0.7-0.4c0.2-0.1,0.2-0.3,0.1-0.5c-0.1-0.2-0.3-0.2-0.5-0.1L72.7,99
		c-0.2,0.1-0.2,0.3-0.1,0.5C72.6,99.6,72.7,99.7,72.9,99.7z"/>
	<path class="st0" d="M70.4,103.4l-0.7,0.4c-0.2,0.1-0.2,0.3-0.1,0.5c0.1,0.1,0.2,0.2,0.3,0.2c0.1,0,0.1,0,0.2-0.1l0.7-0.4
		c0.2-0.1,0.2-0.3,0.1-0.5C70.8,103.4,70.6,103.3,70.4,103.4z"/>
	<path class="st0" d="M74.3,104.3l-0.7,0.4c-0.2,0.1-0.2,0.3-0.1,0.5c0.1,0.1,0.2,0.2,0.3,0.2c0.1,0,0.1,0,0.2-0.1l0.7-0.4
		c0.2-0.1,0.2-0.3,0.1-0.5C74.7,104.3,74.5,104.2,74.3,104.3z"/>
	<path class="st0" d="M73.4,108.2l-0.7,0.4c-0.2,0.1-0.2,0.3-0.1,0.5c0.1,0.1,0.2,0.2,0.3,0.2s0.1,0,0.2-0.1l0.7-0.4
		c0.2-0.1,0.2-0.3,0.1-0.5C73.8,108.2,73.6,108.1,73.4,108.2z"/>
	<path class="st0" d="M69.5,107.3l-0.7,0.4c-0.2,0.1-0.2,0.3-0.1,0.5c0.1,0.1,0.2,0.2,0.3,0.2s0.1,0,0.2-0.1l0.7-0.4
		c0.2-0.1,0.2-0.3,0.1-0.5C69.9,107.3,69.7,107.2,69.5,107.3z"/>
	<path class="st0" d="M63.1,99.7c0.1,0,0.1,0,0.2-0.1l0.7-0.4c0.2-0.1,0.2-0.3,0.1-0.5s-0.3-0.2-0.5-0.1L62.9,99
		c-0.2,0.1-0.2,0.3-0.1,0.5C62.8,99.6,62.9,99.7,63.1,99.7z"/>
	<path class="st0" d="M59.2,98.7c0.1,0,0.1,0,0.2-0.1l0.7-0.4c0.2-0.1,0.2-0.3,0.1-0.5c-0.1-0.2-0.3-0.3-0.5-0.2L59,97.9
		c-0.2,0.1-0.2,0.3-0.1,0.5C58.9,98.6,59,98.7,59.2,98.7z"/>
	<path class="st0" d="M60.7,103.4l-0.7,0.4c-0.2,0.1-0.2,0.3-0.1,0.5c0.1,0.1,0.2,0.2,0.3,0.2s0.1,0,0.2-0.1l0.7-0.4
		c0.2-0.1,0.2-0.3,0.1-0.5C61.1,103.4,60.9,103.3,60.7,103.4z"/>
	<path class="st0" d="M64.6,104.3l-0.7,0.4c-0.2,0.1-0.2,0.3-0.1,0.5c0.1,0.1,0.2,0.2,0.3,0.2c0.1,0,0.1,0,0.2-0.1l0.7-0.4
		c0.2-0.1,0.2-0.3,0.1-0.5C65,104.3,64.8,104.2,64.6,104.3z"/>
	<path class="st0" d="M63.6,108.2l-0.7,0.4c-0.2,0.1-0.2,0.3-0.1,0.5c0.1,0.1,0.2,0.2,0.3,0.2s0.1,0,0.2-0.1l0.7-0.4
		c0.2-0.1,0.2-0.3,0.1-0.5C64,108.2,63.8,108.1,63.6,108.2z"/>
	<path class="st0" d="M59.7,107.3l-0.7,0.4c-0.2,0.1-0.2,0.3-0.1,0.5c0.1,0.1,0.2,0.2,0.3,0.2s0.1,0,0.2-0.1l0.7-0.4
		c0.2-0.1,0.2-0.3,0.1-0.5C60.1,107.3,59.9,107.2,59.7,107.3z"/>
	<path class="st0" d="M53.4,99.7c0.1,0,0.1,0,0.2-0.1l0.7-0.4c0.2-0.1,0.2-0.3,0.1-0.5c-0.1-0.2-0.3-0.2-0.5-0.1L53.2,99
		c-0.2,0.1-0.2,0.3-0.1,0.5C53.1,99.6,53.2,99.7,53.4,99.7z"/>
	<path class="st0" d="M49.5,98.7c0.1,0,0.1,0,0.2-0.1l0.7-0.4c0.2-0.1,0.2-0.3,0.1-0.5c-0.1-0.2-0.3-0.3-0.5-0.2l-0.7,0.4
		c-0.2,0.1-0.2,0.3-0.1,0.5C49.2,98.6,49.3,98.7,49.5,98.7z"/>
	<path class="st0" d="M50.9,103.4l-0.7,0.4c-0.2,0.1-0.2,0.3-0.1,0.5c0.1,0.1,0.2,0.2,0.3,0.2s0.1,0,0.2-0.1l0.7-0.4
		c0.2-0.1,0.2-0.3,0.1-0.5C51.3,103.4,51.1,103.3,50.9,103.4z"/>
	<path class="st0" d="M54.8,104.3l-0.7,0.4c-0.2,0.1-0.2,0.3-0.1,0.5c0.1,0.1,0.2,0.2,0.3,0.2s0.1,0,0.2-0.1l0.7-0.4
		c0.2-0.1,0.2-0.3,0.1-0.5C55.2,104.3,55,104.2,54.8,104.3z"/>
	<path class="st0" d="M53.9,108.2l-0.7,0.4c-0.2,0.1-0.2,0.3-0.1,0.5c0.1,0.1,0.2,0.2,0.3,0.2s0.1,0,0.2-0.1l0.7-0.4
		c0.2-0.1,0.2-0.3,0.1-0.5C54.3,108.2,54.1,108.1,53.9,108.2z"/>
	<path class="st0" d="M50,107.3l-0.7,0.4c-0.2,0.1-0.2,0.3-0.1,0.5c0.1,0.1,0.2,0.2,0.3,0.2s0.1,0,0.2-0.1l0.7-0.4
		c0.2-0.1,0.2-0.3,0.1-0.5C50.4,107.3,50.2,107.2,50,107.3z"/>
	<path class="st0" d="M44.6,98.7c-0.1-0.2-0.3-0.2-0.5-0.1L43.4,99c-0.2,0.1-0.2,0.3-0.1,0.5c0.1,0.1,0.2,0.2,0.3,0.2s0.1,0,0.2-0.1
		l0.7-0.4C44.7,99.1,44.7,98.8,44.6,98.7z"/>
	<path class="st0" d="M39.7,98.7c0.1,0,0.1,0,0.2-0.1l0.7-0.4c0.2-0.1,0.2-0.3,0.1-0.5c-0.1-0.2-0.3-0.3-0.5-0.2l-0.7,0.4
		c-0.2,0.1-0.2,0.3-0.1,0.5C39.4,98.6,39.5,98.7,39.7,98.7z"/>
	<path class="st0" d="M41.2,103.4l-0.7,0.4c-0.2,0.1-0.2,0.3-0.1,0.5c0.1,0.1,0.2,0.2,0.3,0.2s0.1,0,0.2-0.1l0.7-0.4
		c0.2-0.1,0.2-0.3,0.1-0.5C41.6,103.4,41.4,103.3,41.2,103.4z"/>
	<path class="st0" d="M45.1,104.3l-0.7,0.4c-0.2,0.1-0.2,0.3-0.1,0.5c0.1,0.1,0.2,0.2,0.3,0.2s0.1,0,0.2-0.1l0.7-0.4
		c0.2-0.1,0.2-0.3,0.1-0.5C45.5,104.3,45.3,104.2,45.1,104.3z"/>
	<path class="st0" d="M40.2,107.3l-0.7,0.4c-0.2,0.1-0.2,0.3-0.1,0.5c0.1,0.1,0.2,0.2,0.3,0.2c0.1,0,0.1,0,0.2-0.1l0.7-0.4
		c0.2-0.1,0.2-0.3,0.1-0.5C40.6,107.3,40.4,107.2,40.2,107.3z"/>
	<path class="st0" d="M33.9,99.7c0.1,0,0.1,0,0.2-0.1l0.7-0.4c0.2-0.1,0.2-0.3,0.1-0.5s-0.3-0.2-0.5-0.1L33.7,99
		c-0.2,0.1-0.2,0.3-0.1,0.5C33.6,99.6,33.7,99.7,33.9,99.7z"/>
	<path class="st0" d="M30,98.7c0.1,0,0.1,0,0.2-0.1l0.7-0.4c0.2-0.1,0.2-0.3,0.1-0.5s-0.3-0.3-0.5-0.2l-0.7,0.4
		c-0.2,0.1-0.2,0.3-0.1,0.5C29.7,98.6,29.8,98.7,30,98.7z"/>
	<path class="st0" d="M30.7,104.3c0.1,0.1,0.2,0.2,0.3,0.2c0.1,0,0.1,0,0.2-0.1l0.7-0.4c0.2-0.1,0.2-0.3,0.1-0.5s-0.3-0.2-0.5-0.1
		l-0.7,0.4C30.6,103.9,30.5,104.1,30.7,104.3z"/>
	<path class="st0" d="M21.2,94.8c0.1,0,0.1,0,0.2-0.1l0.7-0.4c0.2-0.1,0.2-0.3,0.1-0.5s-0.3-0.3-0.5-0.2L21,94
		c-0.2,0.1-0.2,0.3-0.1,0.5C20.9,94.7,21,94.8,21.2,94.8z"/>
	<path class="st0" d="M25.1,95.8c0.1,0,0.1,0,0.2-0.1l0.7-0.4c0.2-0.1,0.2-0.3,0.1-0.5c-0.1-0.2-0.3-0.3-0.5-0.2L24.9,95
		c-0.2,0.1-0.2,0.3-0.1,0.5C24.8,95.7,24.9,95.8,25.1,95.8z"/>
	<path class="st0" d="M24.1,99.7c0.1,0,0.1,0,0.2-0.1l0.7-0.4c0.2-0.1,0.2-0.3,0.1-0.5s-0.3-0.2-0.5-0.1L23.9,99
		c-0.2,0.1-0.2,0.3-0.1,0.5C23.8,99.6,23.9,99.7,24.1,99.7z"/>
	<path class="st0" d="M20.2,98.7c0.1,0,0.1,0,0.2-0.1l0.7-0.4c0.2-0.1,0.2-0.3,0.1-0.5s-0.3-0.3-0.5-0.2L20,97.9
		c-0.2,0.1-0.2,0.3-0.1,0.5C19.9,98.6,20,98.7,20.2,98.7z"/>
	<path class="st0" d="M21.7,103.4l-0.7,0.4c-0.2,0.1-0.2,0.3-0.1,0.5c0.1,0.1,0.2,0.2,0.3,0.2c0.1,0,0.1,0,0.2-0.1l0.7-0.4
		c0.2-0.1,0.2-0.3,0.1-0.5C22.1,103.4,21.9,103.3,21.7,103.4z"/>
	<path class="st0" d="M25.6,104.3l-0.7,0.4c-0.2,0.1-0.2,0.3-0.1,0.5c0.1,0.1,0.2,0.2,0.3,0.2c0.1,0,0.1,0,0.2-0.1l0.7-0.4
		c0.2-0.1,0.2-0.3,0.1-0.5C26,104.3,25.8,104.2,25.6,104.3z"/>
	<path class="st0" d="M15.4,95.8c0.1,0,0.1,0,0.2-0.1l0.7-0.4c0.2-0.1,0.2-0.3,0.1-0.5s-0.3-0.3-0.5-0.2L15.2,95
		c-0.2,0.1-0.2,0.3-0.1,0.5C15.1,95.7,15.2,95.8,15.4,95.8z"/>
	<path class="st0" d="M14,99.5c0.1,0.1,0.2,0.2,0.3,0.2s0.1,0,0.2-0.1l0.7-0.4c0.2-0.1,0.2-0.3,0.1-0.5c-0.1-0.2-0.3-0.2-0.5-0.1
		L14.1,99C14,99.1,13.9,99.3,14,99.5z"/>
	<path class="st0" d="M216.7,93.6L216,94c-0.2,0.1-0.2,0.3-0.1,0.5c0.1,0.1,0.2,0.2,0.3,0.2s0.1,0,0.2-0.1l0.7-0.4
		c0.2-0.1,0.2-0.3,0.1-0.5C217.1,93.6,216.9,93.5,216.7,93.6z"/>
	<path class="st0" d="M220.6,94.6l-0.7,0.4c-0.2,0.1-0.2,0.3-0.1,0.5c0.1,0.1,0.2,0.2,0.3,0.2c0.1,0,0.1,0,0.2-0.1l0.7-0.4
		c0.2-0.1,0.2-0.3,0.1-0.5C221,94.6,220.8,94.5,220.6,94.6z"/>
	<path class="st0" d="M220.1,98.7c-0.1-0.2-0.3-0.2-0.5-0.1l-0.7,0.4c-0.2,0.1-0.2,0.3-0.1,0.5c0.1,0.1,0.2,0.2,0.3,0.2
		s0.1,0,0.2-0.1l0.7-0.4C220.2,99.1,220.2,98.8,220.1,98.7z"/>
	<path class="st0" d="M215.2,98.7c0.1,0,0.1,0,0.2-0.1l0.7-0.4c0.2-0.1,0.2-0.3,0.1-0.5c-0.1-0.2-0.3-0.2-0.5-0.1L215,98
		c-0.2,0.1-0.2,0.3-0.1,0.5C214.9,98.6,215.1,98.7,215.2,98.7z"/>
	<path class="st0" d="M216.7,103.4l-0.7,0.4c-0.2,0.1-0.2,0.3-0.1,0.5c0.1,0.1,0.2,0.2,0.3,0.2s0.1,0,0.2-0.1l0.7-0.4
		c0.2-0.1,0.2-0.3,0.1-0.5C217.1,103.4,216.9,103.3,216.7,103.4z"/>
	<path class="st0" d="M220.6,104.3l-0.7,0.4c-0.2,0.1-0.2,0.3-0.1,0.5c0.1,0.1,0.2,0.2,0.3,0.2c0.1,0,0.1,0,0.2-0.1l0.7-0.4
		c0.2-0.1,0.2-0.3,0.1-0.5C221,104.3,220.8,104.2,220.6,104.3z"/>
	<path class="st0" d="M215.7,107.3l-0.7,0.4c-0.2,0.1-0.2,0.3-0.1,0.5c0.1,0.1,0.2,0.2,0.3,0.2c0.1,0,0.1,0,0.2-0.1l0.7-0.4
		c0.2-0.1,0.2-0.3,0.1-0.5C216.1,107.3,215.9,107.2,215.7,107.3z"/>
	<path class="st0" d="M205.5,98.7c0.1,0,0.1,0,0.2-0.1l0.7-0.4c0.2-0.1,0.2-0.3,0.1-0.5c-0.1-0.2-0.3-0.2-0.5-0.1l-0.7,0.4
		c-0.2,0.1-0.2,0.3-0.1,0.5C205.2,98.6,205.4,98.7,205.5,98.7z"/>
	<path class="st0" d="M206.9,103.4l-0.7,0.4c-0.2,0.1-0.2,0.3-0.1,0.5c0.1,0.1,0.2,0.2,0.3,0.2s0.1,0,0.2-0.1l0.7-0.4
		c0.2-0.1,0.2-0.3,0.1-0.5C207.3,103.4,207.1,103.3,206.9,103.4z"/>
	<path class="st0" d="M206,107.3l-0.7,0.4c-0.2,0.1-0.2,0.3-0.1,0.5c0.1,0.1,0.2,0.2,0.3,0.2c0.1,0,0.1,0,0.2-0.1l0.7-0.4
		c0.2-0.1,0.2-0.3,0.1-0.5C206.4,107.3,206.2,107.2,206,107.3z"/>
	<path class="st0" d="M199.6,99.7c0.1,0,0.1,0,0.2-0.1l0.7-0.4c0.2-0.1,0.2-0.3,0.1-0.5c-0.1-0.2-0.3-0.2-0.5-0.1l-0.7,0.4
		c-0.2,0.1-0.2,0.3-0.1,0.5C199.3,99.6,199.5,99.7,199.6,99.7z"/>
	<path class="st0" d="M195.7,98.7c0.1,0,0.1,0,0.2-0.1l0.7-0.4c0.2-0.1,0.2-0.3,0.1-0.5c-0.1-0.2-0.3-0.2-0.5-0.1l-0.7,0.4
		c-0.2,0.1-0.2,0.3-0.1,0.5C195.4,98.6,195.6,98.7,195.7,98.7z"/>
	<path class="st0" d="M197.2,103.4l-0.7,0.4c-0.2,0.1-0.2,0.3-0.1,0.5c0.1,0.1,0.2,0.2,0.3,0.2s0.1,0,0.2-0.1l0.7-0.4
		c0.2-0.1,0.2-0.3,0.1-0.5C197.6,103.4,197.4,103.3,197.2,103.4z"/>
	<path class="st0" d="M201.1,104.3l-0.7,0.4c-0.2,0.1-0.2,0.3-0.1,0.5c0.1,0.1,0.2,0.2,0.3,0.2c0.1,0,0.1,0,0.2-0.1l0.7-0.4
		c0.2-0.1,0.2-0.3,0.1-0.5C201.5,104.3,201.3,104.2,201.1,104.3z"/>
	<path class="st0" d="M200.1,108.2l-0.7,0.4c-0.2,0.1-0.2,0.3-0.1,0.5c0.1,0.1,0.2,0.2,0.3,0.2s0.1,0,0.2-0.1l0.7-0.4
		c0.2-0.1,0.2-0.3,0.1-0.5C200.5,108.2,200.3,108.1,200.1,108.2z"/>
	<path class="st0" d="M196.7,107.5c-0.1-0.2-0.3-0.2-0.5-0.1l-0.7,0.4c-0.2,0.1-0.2,0.3-0.1,0.5c0.1,0.1,0.2,0.2,0.3,0.2
		c0.1,0,0.1,0,0.2-0.1l0.7-0.4C196.8,107.8,196.8,107.6,196.7,107.5z"/>
	<path class="st0" d="M197.2,113.1l-0.7,0.4c-0.2,0.1-0.2,0.3-0.1,0.5c0.1,0.1,0.2,0.2,0.3,0.2s0.1,0,0.2-0.1l0.7-0.4
		c0.2-0.1,0.2-0.3,0.1-0.5C197.6,113.1,197.4,113,197.2,113.1z"/>
	<path class="st0" d="M187.4,103.4l-0.7,0.4c-0.2,0.1-0.2,0.3-0.1,0.5c0.1,0.1,0.2,0.2,0.3,0.2s0.1,0,0.2-0.1l0.7-0.4
		c0.2-0.1,0.2-0.3,0.1-0.5C187.8,103.4,187.6,103.3,187.4,103.4z"/>
	<path class="st0" d="M191.3,104.3l-0.7,0.4c-0.2,0.1-0.2,0.3-0.1,0.5c0.1,0.1,0.2,0.2,0.3,0.2c0.1,0,0.1,0,0.2-0.1l0.7-0.4
		c0.2-0.1,0.2-0.3,0.1-0.5C191.7,104.3,191.5,104.2,191.3,104.3z"/>
	<path class="st0" d="M190.9,108.4c-0.1-0.2-0.3-0.2-0.5-0.1l-0.7,0.4c-0.2,0.1-0.2,0.3-0.1,0.5c0.1,0.1,0.2,0.2,0.3,0.2
		c0.1,0,0.1,0,0.2-0.1l0.7-0.4C191,108.8,191,108.5,190.9,108.4z"/>
	<path class="st0" d="M187,107.5c-0.1-0.2-0.3-0.2-0.5-0.1l-0.7,0.4c-0.2,0.1-0.2,0.3-0.1,0.5c0.1,0.1,0.2,0.2,0.3,0.2
		c0.1,0,0.1,0,0.2-0.1l0.7-0.4C187.1,107.8,187.1,107.6,187,107.5z"/>
	<path class="st0" d="M187.4,113.1l-0.7,0.4c-0.2,0.1-0.2,0.3-0.1,0.5c0.1,0.1,0.2,0.2,0.3,0.2s0.1,0,0.2-0.1l0.7-0.4
		c0.2-0.1,0.2-0.3,0.1-0.5C187.8,113.1,187.6,113,187.4,113.1z"/>
	<path class="st0" d="M191.3,114.1l-0.7,0.4c-0.2,0.1-0.2,0.3-0.1,0.5c0.1,0.1,0.2,0.2,0.3,0.2c0.1,0,0.1,0,0.2-0.1l0.7-0.4
		c0.2-0.1,0.2-0.3,0.1-0.5C191.7,114.1,191.5,114,191.3,114.1z"/>
	<path class="st0" d="M177.7,103.4l-0.7,0.4c-0.2,0.1-0.2,0.3-0.1,0.5c0.1,0.1,0.2,0.2,0.3,0.2s0.1,0,0.2-0.1l0.7-0.4
		c0.2-0.1,0.2-0.3,0.1-0.5C178.1,103.4,177.9,103.3,177.7,103.4z"/>
	<path class="st0" d="M181.6,104.3l-0.7,0.4c-0.2,0.1-0.2,0.3-0.1,0.5c0.1,0.1,0.2,0.2,0.3,0.2c0.1,0,0.1,0,0.2-0.1l0.7-0.4
		c0.2-0.1,0.2-0.3,0.1-0.5C182,104.3,181.8,104.2,181.6,104.3z"/>
	<path class="st0" d="M181.1,108.4c-0.1-0.2-0.3-0.2-0.5-0.1l-0.7,0.4c-0.2,0.1-0.2,0.3-0.1,0.5c0.1,0.1,0.2,0.2,0.3,0.2
		c0.1,0,0.1,0,0.2-0.1l0.7-0.4C181.2,108.8,181.2,108.5,181.1,108.4z"/>
	<path class="st0" d="M176.2,108.4c0.1,0,0.1,0,0.2-0.1l0.7-0.4c0.2-0.1,0.2-0.3,0.1-0.5c-0.1-0.2-0.3-0.2-0.5-0.1l-0.7,0.4
		c-0.2,0.1-0.2,0.3-0.1,0.5C175.9,108.3,176.1,108.4,176.2,108.4z"/>
	<path class="st0" d="M177.7,113.1l-0.7,0.4c-0.2,0.1-0.2,0.3-0.1,0.5c0.1,0.1,0.2,0.2,0.3,0.2s0.1,0,0.2-0.1l0.7-0.4
		c0.2-0.1,0.2-0.3,0.1-0.5C178.1,113.1,177.9,113,177.7,113.1z"/>
	<path class="st0" d="M181.6,114.1l-0.7,0.4c-0.2,0.1-0.2,0.3-0.1,0.5c0.1,0.1,0.2,0.2,0.3,0.2c0.1,0,0.1,0,0.2-0.1l0.7-0.4
		c0.2-0.1,0.2-0.3,0.1-0.5C182,114.1,181.8,114,181.6,114.1z"/>
	<path class="st0" d="M176.7,117l-0.7,0.4c-0.2,0.1-0.2,0.3-0.1,0.5c0.1,0.1,0.2,0.2,0.3,0.2c0.1,0,0.1,0,0.2-0.1l0.7-0.4
		c0.2-0.1,0.2-0.3,0.1-0.5C177.1,117,176.9,116.9,176.7,117z"/>
	<path class="st0" d="M167.9,103.4l-0.7,0.4c-0.2,0.1-0.2,0.3-0.1,0.5c0.1,0.1,0.2,0.2,0.3,0.2s0.1,0,0.2-0.1l0.7-0.4
		c0.2-0.1,0.2-0.3,0.1-0.5C168.3,103.4,168.1,103.3,167.9,103.4z"/>
	<path class="st0" d="M171.8,104.3l-0.7,0.4c-0.2,0.1-0.2,0.3-0.1,0.5c0.1,0.1,0.2,0.2,0.3,0.2c0.1,0,0.1,0,0.2-0.1l0.7-0.4
		c0.2-0.1,0.2-0.3,0.1-0.5C172.2,104.3,172,104.2,171.8,104.3z"/>
	<path class="st0" d="M170.4,109.4c0.1,0,0.1,0,0.2-0.1l0.7-0.4c0.2-0.1,0.2-0.3,0.1-0.5c-0.1-0.2-0.3-0.2-0.5-0.1l-0.7,0.4
		c-0.2,0.1-0.2,0.3-0.1,0.5C170.1,109.3,170.3,109.4,170.4,109.4z"/>
	<path class="st0" d="M166.5,108.4c0.1,0,0.1,0,0.2-0.1l0.7-0.4c0.2-0.1,0.2-0.3,0.1-0.5c-0.1-0.2-0.3-0.2-0.5-0.1l-0.7,0.4
		c-0.2,0.1-0.2,0.3-0.1,0.5C166.2,108.3,166.4,108.4,166.5,108.4z"/>
	<path class="st0" d="M167.9,113.1l-0.7,0.4c-0.2,0.1-0.2,0.3-0.1,0.5c0.1,0.1,0.2,0.2,0.3,0.2s0.1,0,0.2-0.1l0.7-0.4
		c0.2-0.1,0.2-0.3,0.1-0.5C168.3,113.1,168.1,113,167.9,113.1z"/>
	<path class="st0" d="M171.8,114.1l-0.7,0.4c-0.2,0.1-0.2,0.3-0.1,0.5c0.1,0.1,0.2,0.2,0.3,0.2c0.1,0,0.1,0,0.2-0.1l0.7-0.4
		c0.2-0.1,0.2-0.3,0.1-0.5C172.2,114.1,172,114,171.8,114.1z"/>
	<path class="st0" d="M170.9,118l-0.7,0.4c-0.2,0.1-0.2,0.3-0.1,0.5c0.1,0.1,0.2,0.2,0.3,0.2c0.1,0,0.1,0,0.2-0.1l0.7-0.4
		c0.2-0.1,0.2-0.3,0.1-0.5C171.3,118,171.1,117.9,170.9,118z"/>
	<path class="st0" d="M167,117l-0.7,0.4c-0.2,0.1-0.2,0.3-0.1,0.5c0.1,0.1,0.2,0.2,0.3,0.2c0.1,0,0.1,0,0.2-0.1l0.7-0.4
		c0.2-0.1,0.2-0.3,0.1-0.5C167.4,117,167.2,116.9,167,117z"/>
	<path class="st0" d="M162.1,104.3l-0.7,0.4c-0.2,0.1-0.2,0.3-0.1,0.5c0.1,0.1,0.2,0.2,0.3,0.2c0.1,0,0.1,0,0.2-0.1l0.7-0.4
		c0.2-0.1,0.2-0.3,0.1-0.5C162.5,104.3,162.3,104.2,162.1,104.3z"/>
	<path class="st0" d="M160.6,109.4c0.1,0,0.1,0,0.2-0.1l0.7-0.4c0.2-0.1,0.2-0.3,0.1-0.5c-0.1-0.2-0.3-0.2-0.5-0.1l-0.7,0.4
		c-0.2,0.1-0.2,0.3-0.1,0.5C160.3,109.3,160.5,109.4,160.6,109.4z"/>
	<path class="st0" d="M162.1,114.1l-0.7,0.4c-0.2,0.1-0.2,0.3-0.1,0.5c0.1,0.1,0.2,0.2,0.3,0.2c0.1,0,0.1,0,0.2-0.1l0.7-0.4
		c0.2-0.1,0.2-0.3,0.1-0.5C162.5,114.1,162.3,114,162.1,114.1z"/>
	<path class="st0" d="M161.1,118l-0.7,0.4c-0.2,0.1-0.2,0.3-0.1,0.5c0.1,0.1,0.2,0.2,0.3,0.2c0.1,0,0.1,0,0.2-0.1l0.7-0.4
		c0.2-0.1,0.2-0.3,0.1-0.5C161.5,118,161.3,117.9,161.1,118z"/>
	<path class="st0" d="M148,94.8c0.1,0,0.1,0,0.2-0.1l0.7-0.4c0.2-0.1,0.2-0.3,0.1-0.5c-0.1-0.2-0.3-0.2-0.5-0.1l-0.7,0.4
		c-0.2,0.1-0.2,0.3-0.1,0.5C147.7,94.7,147.9,94.8,148,94.8z"/>
	<path class="st0" d="M148.4,103.4l-0.7,0.4c-0.2,0.1-0.2,0.3-0.1,0.5c0.1,0.1,0.2,0.2,0.3,0.2s0.1,0,0.2-0.1l0.7-0.4
		c0.2-0.1,0.2-0.3,0.1-0.5C148.8,103.4,148.6,103.3,148.4,103.4z"/>
	<path class="st0" d="M151.9,105.5c0.1,0,0.1,0,0.2-0.1l0.7-0.4c0.2-0.1,0.2-0.3,0.1-0.5c-0.1-0.2-0.3-0.2-0.5-0.1l-0.7,0.4
		c-0.2,0.1-0.2,0.3-0.1,0.5C151.6,105.4,151.8,105.5,151.9,105.5z"/>
	<path class="st0" d="M151.9,108.4c-0.1-0.2-0.3-0.2-0.5-0.1l-0.7,0.4c-0.2,0.1-0.2,0.3-0.1,0.5c0.1,0.1,0.2,0.2,0.3,0.2
		c0.1,0,0.1,0,0.2-0.1l0.7-0.4C152,108.8,152,108.5,151.9,108.4z"/>
	<path class="st0" d="M148,107.5c-0.1-0.2-0.3-0.2-0.5-0.1l-0.7,0.4c-0.2,0.1-0.2,0.3-0.1,0.5c0.1,0.1,0.2,0.2,0.3,0.2
		s0.1,0,0.2-0.1l0.7-0.4C148.1,107.8,148.1,107.6,148,107.5z"/>
	<path class="st0" d="M148.4,113.1l-0.7,0.4c-0.2,0.1-0.2,0.3-0.1,0.5c0.1,0.1,0.2,0.2,0.3,0.2s0.1,0,0.2-0.1l0.7-0.4
		c0.2-0.1,0.2-0.3,0.1-0.5C148.8,113.1,148.6,113,148.4,113.1z"/>
</g>
</svg>
