<?xml version="1.0" encoding="utf-8"?>
<!-- Generator: Adobe Illustrator 21.0.2, SVG Export Plug-In . SVG Version: 6.00 Build 0)  -->
<svg version="1.1" id="Слой_1" xmlns="http://www.w3.org/2000/svg" xmlns:xlink="http://www.w3.org/1999/xlink" x="0px" y="0px"
	 viewBox="0 0 238 152.9" style="enable-background:new 0 0 238 152.9;" xml:space="preserve">
<style type="text/css">
	.st0{fill:#161616;}
</style>
<g>
	<path class="st0" d="M86.1,153.8c-0.2,0-0.4-0.1-0.5-0.3l-2.1-4.7c-0.1-0.3,0-0.5,0.3-0.7c0.3-0.1,0.5,0,0.7,0.3l1.9,4.2l4-1.8
		c0.3-0.1,0.5,0,0.7,0.3c0.1,0.3,0,0.5-0.3,0.7l-4.4,2C86.3,153.7,86.2,153.8,86.1,153.8z M95.2,149.7c-0.2,0-0.4-0.1-0.5-0.3
		c-0.1-0.3,0-0.5,0.3-0.7l9.1-4.1c0.3-0.1,0.5,0,0.7,0.3c0.1,0.3,0,0.5-0.3,0.7l-9.1,4.1C95.3,149.7,95.2,149.7,95.2,149.7z
		 M82,144.5c-0.2,0-0.4-0.1-0.5-0.3l-4.1-9.1c-0.1-0.3,0-0.5,0.3-0.7c0.3-0.1,0.5,0,0.7,0.3l4.1,9.1c0.1,0.3,0,0.5-0.3,0.7
		C82.2,144.5,82.1,144.5,82,144.5z M108.9,143.6c-0.2,0-0.4-0.1-0.5-0.3c-0.1-0.3,0-0.5,0.3-0.7l9.1-4.1c0.3-0.1,0.5,0,0.7,0.3
		c0.1,0.3,0,0.5-0.3,0.7l-9.1,4.1C109,143.6,108.9,143.6,108.9,143.6z M122.6,137.5c-0.2,0-0.4-0.1-0.5-0.3c-0.1-0.3,0-0.5,0.3-0.7
		l9.1-4.1c0.3-0.1,0.5,0,0.7,0.3c0.1,0.3,0,0.5-0.3,0.7l-9.1,4.1C122.7,137.5,122.6,137.5,122.6,137.5z M136.2,131.4
		c-0.2,0-0.4-0.1-0.5-0.3c-0.1-0.3,0-0.5,0.3-0.7l9.1-4.1c0.3-0.1,0.5,0,0.7,0.3c0.1,0.3,0,0.5-0.3,0.7l-9.1,4.1
		C136.4,131.4,136.3,131.4,136.2,131.4z M75.9,130.8c-0.2,0-0.4-0.1-0.5-0.3l-4.1-9.1c-0.1-0.3,0-0.5,0.3-0.7c0.3-0.1,0.5,0,0.7,0.3
		l4.1,9.1c0.1,0.3,0,0.5-0.3,0.7C76,130.8,76,130.8,75.9,130.8z M149.9,125.3c-0.2,0-0.4-0.1-0.5-0.3c-0.1-0.3,0-0.5,0.3-0.7
		l9.1-4.1c0.3-0.1,0.5,0,0.7,0.3c0.1,0.3,0,0.5-0.3,0.7l-9.1,4.1C150.1,125.3,150,125.3,149.9,125.3z M163.6,119.2
		c-0.2,0-0.4-0.1-0.5-0.3c-0.1-0.3,0-0.5,0.3-0.7l9.1-4.1c0.3-0.1,0.5,0,0.7,0.3c0.1,0.3,0,0.5-0.3,0.7l-9.1,4.1
		C163.8,119.1,163.7,119.2,163.6,119.2z M69.8,117.1c-0.2,0-0.4-0.1-0.5-0.3l-4.1-9.1c-0.1-0.3,0-0.5,0.3-0.7c0.3-0.1,0.5,0,0.7,0.3
		l4.1,9.1c0.1,0.3,0,0.5-0.3,0.7C69.9,117.1,69.9,117.1,69.8,117.1z M177.3,113c-0.2,0-0.4-0.1-0.5-0.3c-0.1-0.3,0-0.5,0.3-0.7
		l9.1-4.1c0.3-0.1,0.5,0,0.7,0.3c0.1,0.3,0,0.5-0.3,0.7l-9.1,4.1C177.5,113,177.4,113,177.3,113z M191,106.9c-0.2,0-0.4-0.1-0.5-0.3
		c-0.1-0.3,0-0.5,0.3-0.7l8.7-3.9l-3.5-7.6c-0.1-0.3,0-0.5,0.2-0.7s0.5,0,0.7,0.2l3.7,8c0.1,0.1,0.1,0.3,0,0.4s-0.1,0.2-0.3,0.3
		l-9.1,4.1C191.2,106.9,191.1,106.9,191,106.9z M63.7,103.4c-0.2,0-0.4-0.1-0.5-0.3L59.1,94c-0.1-0.3,0-0.5,0.3-0.7
		c0.3-0.1,0.5,0,0.7,0.3l4.1,9.1c0.1,0.3,0,0.5-0.3,0.7C63.8,103.4,63.7,103.4,63.7,103.4z M194.4,90.3c-0.2,0-0.4-0.1-0.5-0.3
		l-4.2-9.1c-0.1-0.3,0-0.5,0.2-0.7c0.3-0.1,0.5,0,0.7,0.2l4.2,9.1c0.1,0.3,0,0.5-0.2,0.7C194.5,90.3,194.4,90.3,194.4,90.3z
		 M57.6,89.7c-0.2,0-0.4-0.1-0.5-0.3L53,80.3c-0.1-0.3,0-0.5,0.3-0.7c0.3-0.1,0.5,0,0.7,0.3L58,89c0.1,0.3,0,0.5-0.3,0.7
		C57.7,89.7,57.6,89.7,57.6,89.7z M188.1,76.7c-0.2,0-0.4-0.1-0.5-0.3l-4.2-9.1c-0.1-0.3,0-0.5,0.2-0.7c0.3-0.1,0.5,0,0.7,0.2
		l4.2,9.1c0.1,0.3,0,0.5-0.2,0.7C188.2,76.7,188.1,76.7,188.1,76.7z M51.4,76c-0.2,0-0.4-0.1-0.5-0.3l-4.1-9.1
		c-0.1-0.3,0-0.5,0.3-0.7c0.3-0.1,0.5,0,0.7,0.3l4.1,9.1c0.1,0.3,0,0.5-0.3,0.7C51.6,76,51.5,76,51.4,76z M181.8,63.1
		c-0.2,0-0.4-0.1-0.5-0.3l-4.2-9.1c-0.1-0.3,0-0.5,0.2-0.7c0.3-0.1,0.5,0,0.7,0.2l4.2,9.1c0.1,0.3,0,0.5-0.2,0.7
		C181.9,63,181.9,63.1,181.8,63.1z M45.3,62.3c-0.2,0-0.4-0.1-0.5-0.3l-4.1-9.1c-0.1-0.3,0-0.5,0.3-0.7c0.3-0.1,0.5,0,0.7,0.3
		l4.1,9.1c0.1,0.3,0,0.5-0.3,0.7C45.5,62.3,45.4,62.3,45.3,62.3z M175.5,49.4c-0.2,0-0.4-0.1-0.5-0.3l-4.2-9.1
		c-0.1-0.3,0-0.5,0.2-0.7c0.3-0.1,0.5,0,0.7,0.2l4.2,9.1c0.1,0.3,0,0.5-0.2,0.7C175.6,49.4,175.6,49.4,175.5,49.4z M41.3,49.4
		c-0.2,0-0.4-0.1-0.5-0.3c-0.1-0.3,0-0.5,0.3-0.7l9.2-4c0.3-0.1,0.5,0,0.7,0.3c0.1,0.3,0,0.5-0.3,0.7l-9.2,4
		C41.4,49.4,41.3,49.4,41.3,49.4z M55,43.5c-0.2,0-0.4-0.1-0.5-0.3c-0.1-0.3,0-0.5,0.3-0.7l9.2-4c0.3-0.1,0.5,0,0.7,0.3
		c0.1,0.3,0,0.5-0.3,0.7l-9.2,4C55.2,43.5,55.1,43.5,55,43.5z M68.8,37.6c-0.2,0-0.4-0.1-0.5-0.3c-0.1-0.3,0-0.5,0.3-0.7l9.2-4
		c0.3-0.1,0.5,0,0.7,0.3c0.1,0.3,0,0.5-0.3,0.7l-9.2,4C68.9,37.6,68.9,37.6,68.8,37.6z M169.2,35.8c-0.2,0-0.4-0.1-0.5-0.3l-4.2-9.1
		c-0.1-0.3,0-0.5,0.2-0.7c0.3-0.1,0.5,0,0.7,0.2l4.2,9.1c0.1,0.3,0,0.5-0.2,0.7C169.3,35.8,169.3,35.8,169.2,35.8z M82.6,31.6
		c-0.2,0-0.4-0.1-0.5-0.3c-0.1-0.3,0-0.5,0.3-0.7l9.2-4c0.3-0.1,0.5,0,0.7,0.3c0.1,0.3,0,0.5-0.3,0.7l-9.2,4
		C82.7,31.6,82.7,31.6,82.6,31.6z M96.4,25.7c-0.2,0-0.4-0.1-0.5-0.3c-0.1-0.3,0-0.5,0.3-0.7l9.2-4c0.3-0.1,0.5,0,0.7,0.3
		c0.1,0.3,0,0.5-0.3,0.7l-9.2,4C96.5,25.7,96.4,25.7,96.4,25.7z M162.9,22.2c-0.2,0-0.4-0.1-0.5-0.3l-4.2-9.1
		c-0.1-0.3,0-0.5,0.2-0.7c0.3-0.1,0.5,0,0.7,0.2l4.2,9.1c0.1,0.3,0,0.5-0.2,0.7C163.1,22.2,163,22.2,162.9,22.2z M110.1,19.8
		c-0.2,0-0.4-0.1-0.5-0.3c-0.1-0.3,0-0.5,0.3-0.7l9.2-4c0.3-0.1,0.5,0,0.7,0.3c0.1,0.3,0,0.5-0.3,0.7l-9.2,4
		C110.3,19.8,110.2,19.8,110.1,19.8z M123.9,13.9c-0.2,0-0.4-0.1-0.5-0.3c-0.1-0.3,0-0.5,0.3-0.7l9.2-4c0.3-0.1,0.5,0,0.7,0.3
		c0.1,0.3,0,0.5-0.3,0.7l-9.2,4C124.1,13.8,124,13.9,123.9,13.9z M156.6,8.6c-0.2,0-0.4-0.1-0.5-0.3L153,1.4l-1.3,0.6
		c-0.3,0.1-0.5,0-0.7-0.3c-0.1-0.3,0-0.5,0.3-0.7l1.7-0.8c0.2-0.1,0.5,0,0.7,0.2l3.4,7.4c0.1,0.3,0,0.5-0.2,0.7
		C156.8,8.6,156.7,8.6,156.6,8.6z M137.7,7.9c-0.2,0-0.4-0.1-0.5-0.3c-0.1-0.3,0-0.5,0.3-0.7l9.2-4c0.3-0.1,0.5,0,0.7,0.3
		c0.1,0.3,0,0.5-0.3,0.7l-9.2,4C137.8,7.9,137.8,7.9,137.7,7.9z"/>
	<g>
		<path class="st0" d="M59.8,65.6c-0.6,0-1.1-0.3-1.4-0.9L54,54.6c-0.2-0.4-0.2-0.8,0-1.2c0.1-0.4,0.4-0.7,0.8-0.8l91.5-39.5
			c0.7-0.3,1.6,0,2,0.7l19.2,41.5c0.3,0.8,0,1.6-0.7,2c-0.7,0.3-1.6,0-2-0.7l-18.6-40.1L57.4,54.8l3.8,8.7c0.3,0.8,0,1.6-0.8,2
			C60.2,65.5,60,65.6,59.8,65.6z"/>
		<path class="st0" d="M88.7,131.3c-0.6,0-1.1-0.3-1.4-0.9l-19.7-45c-0.3-0.8,0-1.6,0.8-2c0.8-0.3,1.6,0,2,0.8l19.7,45
			c0.3,0.8,0,1.6-0.8,2C89.1,131.3,88.9,131.3,88.7,131.3z"/>
		<path class="st0" d="M92.9,141c-0.2,0-0.4,0-0.5-0.1c-0.4-0.1-0.7-0.4-0.8-0.8l-4.3-9.7c-0.3-0.8,0-1.6,0.8-2c0.8-0.3,1.6,0,2,0.8
			l3.6,8.3l46.4-21.2c0.8-0.3,1.6,0,2,0.7c0.3,0.8,0,1.6-0.7,2l-47.8,21.9C93.3,141,93.1,141,92.9,141z"/>
		<path class="st0" d="M154,62.7c-0.6,0-1.1-0.3-1.4-0.9c-0.3-0.8,0-1.6,0.8-2l12.1-5.2c0.8-0.3,1.6,0,2,0.8s0,1.6-0.8,2l-12.1,5.2
			C154.4,62.7,154.2,62.7,154,62.7z"/>
		<path class="st0" d="M74.6,97c-0.6,0-1.1-0.3-1.4-0.9c-0.3-0.8,0-1.6,0.8-2l62.4-27c0.8-0.3,1.6,0,2,0.8c0.3,0.8,0,1.6-0.8,2
			l-62.4,27C75,97,74.8,97,74.6,97z"/>
		<path class="st0" d="M140.7,118.2c-0.6,0-1.1-0.3-1.4-0.9l-5.9-12.8c-0.3-0.8,0-1.6,0.7-2c0.8-0.4,1.6,0,2,0.7l5.9,12.8
			c0.3,0.8,0,1.6-0.7,2C141.1,118.1,140.9,118.2,140.7,118.2z"/>
		<path class="st0" d="M128.4,91.5c-0.6,0-1.1-0.3-1.4-0.9l-6.7-14.5c-0.3-0.8,0-1.6,0.7-2c0.8-0.4,1.6,0,2,0.7l6.7,14.5
			c0.3,0.8,0,1.6-0.7,2C128.8,91.4,128.6,91.5,128.4,91.5z"/>
		<path class="st0" d="M73.1,98.7c-0.1,0-0.3-0.1-0.3-0.2L54.5,56.7c-0.1-0.2,0-0.4,0.2-0.5c0.2-0.1,0.4,0,0.5,0.2l18.3,41.7
			c0.1,0.2,0,0.4-0.2,0.5C73.2,98.6,73.2,98.7,73.1,98.7z"/>
		<path class="st0" d="M75.2,95.8c-0.1,0-0.3-0.1-0.3-0.2L56.5,53.8c-0.1-0.2,0-0.4,0.2-0.5c0.2-0.1,0.4,0,0.5,0.2l18.3,41.7
			c0.1,0.2,0,0.4-0.2,0.5C75.3,95.7,75.2,95.8,75.2,95.8z"/>
		<path class="st0" d="M153.3,61.1c0,0-0.1,0-0.2,0l-16.6-5.3c-0.3-0.1-0.4-0.4-0.3-0.6c0.1-0.3,0.4-0.4,0.6-0.3l16.6,5.3
			c0.3,0.1,0.4,0.4,0.3,0.6C153.7,61,153.5,61.1,153.3,61.1z"/>
		<path class="st0" d="M144.9,95.5c0,0-0.1,0-0.2,0l-16.6-5.3c-0.3-0.1-0.4-0.4-0.3-0.6c0.1-0.3,0.4-0.4,0.6-0.3l16.6,5.3
			c0.3,0.1,0.4,0.4,0.3,0.6C145.3,95.4,145.1,95.5,144.9,95.5z"/>
		<path class="st0" d="M76,92.5c-0.2,0-0.4-0.1-0.5-0.3l-16-36.3c-0.1-0.3,0-0.5,0.3-0.7l17.6-7.7c0.3-0.1,0.5,0,0.7,0.3L94,84
			c0.1,0.1,0.1,0.3,0,0.4c0,0.1-0.1,0.2-0.3,0.3l-17.6,7.7C76.1,92.4,76.1,92.5,76,92.5z M60.7,55.9l15.6,35.4L92.9,84L77.3,48.6
			L60.7,55.9z"/>
		<g>
			<path class="st0" d="M145.6,36.2c-0.1,0-0.1,0-0.2,0c-0.1,0-0.2-0.1-0.3-0.3l-5.7-13c-0.1-0.3,0-0.5,0.3-0.7l8.5-3.7
				c0.1-0.1,0.3-0.1,0.4,0c0.1,0,0.2,0.1,0.3,0.3l5.7,13c0.1,0.3,0,0.5-0.3,0.7l-8.5,3.7C145.7,36.1,145.6,36.2,145.6,36.2z
				 M140.5,22.9l5.3,12.1l7.5-3.3l-5.3-12.1L140.5,22.9z"/>
			<path class="st0" d="M147.4,35.4c-0.2,0-0.4-0.1-0.5-0.3l-5.7-13c-0.1-0.1-0.1-0.3,0-0.4c0-0.1,0.1-0.2,0.3-0.3l6.6-2.9
				c0.3-0.1,0.5,0,0.7,0.3l5.7,13c0.1,0.1,0.1,0.3,0,0.4c0,0.1-0.1,0.2-0.3,0.3l-6.6,2.9C147.5,35.3,147.5,35.4,147.4,35.4z
				 M142.3,22.1l5.3,12.1l5.7-2.5l-5.3-12.1L142.3,22.1z"/>
			<path class="st0" d="M134.9,38.4c-2.1,0-4.1-1.2-5.1-3.3l-0.2-0.4c-0.6-1.3-0.6-2.8-0.1-4.2c0.5-1.4,1.6-2.5,2.9-3l6.4-2.8
				c1.1-0.5,2.4,0,2.9,1.1l2.9,6.5c0.5,1.1,0,2.4-1.1,2.9l-6.4,2.8C136.4,38.2,135.7,38.4,134.9,38.4z M139.8,25.4
				c-0.2,0-0.3,0-0.5,0.1l-6.4,2.8c-1.1,0.5-2,1.4-2.4,2.5s-0.4,2.3,0.1,3.5l0.2,0.4l0,0c1,2.3,3.7,3.3,5.9,2.3l6.4-2.8
				c0.6-0.3,0.9-1,0.6-1.6l-2.9-6.5C140.7,25.6,140.3,25.4,139.8,25.4z"/>
			<path class="st0" d="M135.2,36.2c-0.5,0-0.9-0.1-1.4-0.3c-0.9-0.4-1.7-1.1-2.1-2s-0.4-2-0.1-2.9c0.4-0.9,1.1-1.7,2-2.1l5.6-2.4
				c0.3-0.1,0.5,0,0.7,0.3l2.7,6.1c0.1,0.1,0.1,0.3,0,0.4c0,0.1-0.1,0.2-0.3,0.3l-5.6,2.3C136.2,36.1,135.7,36.2,135.2,36.2z
				 M139.1,27.7l-5.1,2.2c-0.7,0.3-1.2,0.8-1.5,1.5c-0.3,0.7-0.3,1.5,0,2.1c0.3,0.7,0.9,1.2,1.6,1.5c0.7,0.3,1.5,0.3,2.1,0l5.1-2.2
				L139.1,27.7z"/>
		</g>
		<g>
			<path class="st0" d="M86.6,125.3c-0.1,0-0.1,0-0.2,0c-0.1,0-0.2-0.1-0.3-0.3l-5.7-13c-0.1-0.3,0-0.5,0.3-0.7l8.5-3.7
				c0.1-0.1,0.3-0.1,0.4,0c0.1,0,0.2,0.1,0.3,0.3l5.7,13c0.1,0.3,0,0.5-0.3,0.7l-8.5,3.7C86.8,125.3,86.7,125.3,86.6,125.3z
				 M81.6,112.1l5.3,12.1l7.5-3.3l-5.3-12.1L81.6,112.1z"/>
			<path class="st0" d="M86.6,125.3c-0.1,0-0.1,0-0.2,0c-0.1,0-0.2-0.1-0.3-0.3l-5.7-13c-0.1-0.3,0-0.5,0.3-0.7l6.6-2.9
				c0.1-0.1,0.3-0.1,0.4,0c0.1,0,0.2,0.1,0.3,0.3l5.7,13c0.1,0.3,0,0.5-0.3,0.7l-6.6,2.9C86.8,125.3,86.7,125.3,86.6,125.3z
				 M81.6,112.1l5.3,12.1l5.7-2.5l-5.3-12.1L81.6,112.1z"/>
			<path class="st0" d="M95.1,119.4c-0.3,0-0.5-0.1-0.8-0.2c-0.5-0.2-1-0.6-1.2-1.2l-2.9-6.5c-0.2-0.5-0.2-1.1,0-1.7s0.6-1,1.2-1.2
				l6.4-2.8c1.3-0.6,2.8-0.6,4.2-0.1c1.4,0.5,2.5,1.6,3,2.9l0.2,0.4c1.2,2.8,0,6-2.8,7.3l-6.4,2.8C95.7,119.4,95.4,119.4,95.1,119.4
				z M100,106.4c-0.6,0-1.2,0.1-1.8,0.4l-6.4,2.8c-0.6,0.3-0.9,1-0.6,1.6l2.9,6.5c0.3,0.6,1,0.9,1.6,0.6l6.4-2.8
				c2.3-1,3.3-3.7,2.3-5.9l-0.2-0.4l0,0c-0.5-1.1-1.4-2-2.5-2.4C101.2,106.5,100.6,106.4,100,106.4z"/>
			<path class="st0" d="M95.6,117.3c-0.2,0-0.4-0.1-0.5-0.3l-2.7-6.1c-0.1-0.1-0.1-0.3,0-0.4c0-0.1,0.1-0.2,0.3-0.3l5.6-2.3
				c1.9-0.8,4.2,0,5,2c0.8,1.9,0,4.2-2,5l-5.6,2.4C95.7,117.2,95.6,117.3,95.6,117.3z M93.6,111l2.3,5.1l5.1-2.2
				c1.4-0.6,2.1-2.3,1.4-3.7c-0.6-1.4-2.3-2.1-3.7-1.4L93.6,111z"/>
		</g>
		<path class="st0" d="M79.7,87.7c-2.3,0-4.4-1.3-5.4-3.5l-9.6-21.8c-0.6-1.4-0.7-3-0.1-4.5c0.6-1.5,1.7-2.6,3.1-3.3l3.7-1.6
			c3-1.3,6.5,0,7.8,3l9.6,21.8c1.3,3,0,6.5-3,7.8l-3.7,1.6C81.3,87.6,80.5,87.7,79.7,87.7z M75.2,83.8c1.1,2.5,4,3.6,6.5,2.5
			l3.7-1.6c2.5-1.1,3.6-4,2.5-6.5l-9.6-21.8c-1.1-2.5-4-3.6-6.5-2.5l-3.7,1.6C66.9,56,66,57,65.5,58.2C65,59.4,65,60.8,65.6,62
			L75.2,83.8z"/>
		<circle class="st0" cx="71" cy="57.6" r="1.1"/>
		<g>
			<path class="st0" d="M113.5,78.7c-0.2,0-0.4-0.1-0.5-0.3l-4.8-11c-0.5-1.1-0.5-2.2-0.1-3.3s1.2-1.9,2.3-2.4h0l8.8-3.9
				c2.2-1,4.7,0,5.7,2.2l4.8,11c0.1,0.1,0.1,0.3,0,0.4c0,0.1-0.1,0.2-0.3,0.3l-15.8,7C113.7,78.7,113.6,78.7,113.5,78.7z
				 M110.8,62.7c-0.8,0.4-1.4,1-1.8,1.8s-0.3,1.7,0.1,2.5l4.6,10.5l14.9-6.6L124,60.5c-0.7-1.7-2.7-2.4-4.4-1.7L110.8,62.7z"/>
			<path class="st0" d="M115.3,73.7c-1.4,0-2.7-0.8-3.3-2.2l-1.5-3.5c-0.4-0.9-0.4-1.9-0.1-2.8c0.4-0.9,1-1.6,1.9-2l6.6-2.9
				c0.9-0.4,1.9-0.4,2.8-0.1c0.9,0.4,1.6,1,2,1.9l1.5,3.5c0.4,0.9,0.4,1.9,0.1,2.8c-0.4,0.9-1,1.6-1.9,2l-6.6,2.9
				C116.3,73.6,115.8,73.7,115.3,73.7z M120.4,61.1c-0.4,0-0.7,0.1-1.1,0.2l-6.6,2.9h0c-0.6,0.3-1.1,0.8-1.4,1.5s-0.2,1.4,0,2
				l1.5,3.5c0.6,1.3,2.1,1.9,3.5,1.3l6.6-2.9c0.6-0.3,1.1-0.8,1.4-1.5s0.2-1.4,0-2l-1.5-3.5C122.4,61.6,121.4,61.1,120.4,61.1z
				 M112.6,63.7L112.6,63.7L112.6,63.7z"/>
			<circle class="st0" cx="118.7" cy="68.5" r="1.1"/>
		</g>
	</g>
</g>
</svg>
