<?xml version="1.0" encoding="utf-8"?>
<!-- Generator: Adobe Illustrator 21.0.2, SVG Export Plug-In . SVG Version: 6.00 Build 0)  -->
<svg version="1.1" id="Слой_1" xmlns="http://www.w3.org/2000/svg" xmlns:xlink="http://www.w3.org/1999/xlink" x="0px" y="0px"
	 viewBox="0 0 238 152.9" style="enable-background:new 0 0 238 152.9;" xml:space="preserve">
<style type="text/css">
	.st0{fill:#161616;}
</style>
<g>
	<path class="st0" d="M76.4,80.1c-0.2-0.2-0.5-0.2-0.7,0c-3,2.6-8.6,4.6-8.7,4.6c-0.3,0.1-0.4,0.4-0.3,0.6c0.1,0.2,0.3,0.3,0.5,0.3
		c0.1,0,0.1,0,0.2,0c0.2-0.1,5.8-2,9-4.8C76.5,80.6,76.6,80.3,76.4,80.1z"/>
	<path class="st0" d="M79.3,80.3c-3,2.9-7.1,4.3-7.2,4.4c-0.3,0.1-0.4,0.4-0.3,0.6c0.1,0.2,0.3,0.3,0.5,0.3c0.1,0,0.1,0,0.2,0
		c0.2-0.1,4.3-1.6,7.5-4.6c0.2-0.2,0.2-0.5,0-0.7C79.9,80.1,79.5,80.1,79.3,80.3z"/>
	<path class="st0" d="M66.4,82.4c-0.3,0-0.5,0.3-0.4,0.6c0,0.2,0.2,0.4,0.5,0.4c0,0,0,0,0.1,0c0.1,0,2.2-0.3,3.8-1.4
		c0.2-0.2,0.3-0.5,0.1-0.7C70.3,81,70,81,69.8,81.1C68.4,82.1,66.4,82.4,66.4,82.4z"/>
	<path class="st0" d="M97.9,93.5c0.1,0.2,0.3,0.3,0.5,0.3c0.1,0,0.1,0,0.2,0c0.2-0.1,5.8-2,9-4.8c0.2-0.2,0.2-0.5,0-0.7
		c-0.2-0.2-0.5-0.2-0.7,0c-3,2.6-8.6,4.6-8.7,4.6C97.9,93,97.8,93.3,97.9,93.5z"/>
	<path class="st0" d="M103,93.5c0.1,0.2,0.3,0.3,0.5,0.3c0.1,0,0.1,0,0.2,0c0.2-0.1,4.3-1.6,7.5-4.6c0.2-0.2,0.2-0.5,0-0.7
		c-0.2-0.2-0.5-0.2-0.7,0c-3,2.9-7.1,4.3-7.2,4.4C103.1,93,102.9,93.3,103,93.5z"/>
	<path class="st0" d="M97.6,91.6C97.7,91.6,97.7,91.6,97.6,91.6c0.2,0,2.3-0.3,3.9-1.4c0.2-0.2,0.3-0.5,0.1-0.7
		c-0.2-0.2-0.5-0.3-0.7-0.1c-1.4,1-3.4,1.3-3.4,1.3c-0.3,0-0.5,0.3-0.4,0.6C97.2,91.4,97.4,91.6,97.6,91.6z"/>
	<path class="st0" d="M118.2,92.6c0.1,0.2,0.3,0.3,0.5,0.3c0.1,0,0.1,0,0.2,0c0.2-0.1,5.8-2,9-4.8c0.2-0.2,0.2-0.5,0-0.7
		c-0.2-0.2-0.5-0.2-0.7,0c-3,2.6-8.6,4.6-8.7,4.6C118.2,92,118.1,92.3,118.2,92.6z"/>
	<path class="st0" d="M123.3,92.6c0.1,0.2,0.3,0.3,0.5,0.3c0.1,0,0.1,0,0.2,0c0.2-0.1,4.3-1.6,7.5-4.6c0.2-0.2,0.2-0.5,0-0.7
		c-0.2-0.2-0.5-0.2-0.7,0c-3,2.9-7.1,4.3-7.2,4.4C123.4,92,123.2,92.3,123.3,92.6z"/>
	<path class="st0" d="M118,90.7C118,90.7,118,90.7,118,90.7c0.2,0,2.3-0.3,3.9-1.4c0.2-0.2,0.3-0.5,0.1-0.7
		c-0.2-0.2-0.5-0.3-0.7-0.1c-1.4,1-3.4,1.3-3.4,1.3c-0.3,0-0.5,0.3-0.4,0.6C117.5,90.5,117.7,90.7,118,90.7z"/>
	<path class="st0" d="M126.7,98.4c0.1,0.2,0.3,0.3,0.5,0.3c0.1,0,0.1,0,0.2,0c0.2-0.1,5.8-2,9-4.8c0.2-0.2,0.2-0.5,0-0.7
		c-0.2-0.2-0.5-0.2-0.7,0c-3,2.6-8.6,4.6-8.7,4.6C126.7,97.8,126.6,98.1,126.7,98.4z"/>
	<path class="st0" d="M131.8,98.4c0.1,0.2,0.3,0.3,0.5,0.3c0.1,0,0.1,0,0.2,0c0.2-0.1,4.3-1.6,7.5-4.6c0.2-0.2,0.2-0.5,0-0.7
		c-0.2-0.2-0.5-0.2-0.7,0c-3,2.9-7.1,4.3-7.2,4.4C131.9,97.8,131.7,98.1,131.8,98.4z"/>
	<path class="st0" d="M130.5,94.4c-0.2-0.2-0.5-0.3-0.7-0.1c-1.4,1-3.4,1.3-3.4,1.3c-0.3,0-0.5,0.3-0.4,0.6c0,0.2,0.2,0.4,0.5,0.4
		c0,0,0,0,0.1,0c0.1,0,2.2-0.3,3.8-1.4C130.6,94.9,130.6,94.6,130.5,94.4z"/>
	<path class="st0" d="M159,106c0.1,0.2,0.3,0.3,0.5,0.3c0.1,0,0.1,0,0.2,0c0.2-0.1,4.3-1.6,7.5-4.6c0.2-0.2,0.2-0.5,0-0.7
		c-0.2-0.2-0.5-0.2-0.7,0c-3,2.9-7.1,4.3-7.2,4.4C159.1,105.4,158.9,105.7,159,106z"/>
	<path class="st0" d="M153.7,104.1C153.7,104.1,153.7,104.1,153.7,104.1c0.2,0,2.3-0.3,3.9-1.4c0.2-0.2,0.3-0.5,0.1-0.7
		c-0.2-0.2-0.5-0.3-0.7-0.1c-1.4,1-3.4,1.3-3.4,1.3c-0.3,0-0.5,0.3-0.4,0.6C153.2,103.9,153.4,104.1,153.7,104.1z"/>
	<path class="st0" d="M168.9,78.9c-0.2-0.2-0.5-0.2-0.7-0.1c-3,2.6-8.6,4.6-8.7,4.6c-0.3,0.1-0.4,0.4-0.3,0.6
		c0.1,0.2,0.3,0.3,0.5,0.3c0.1,0,0.1,0,0.2,0c0.2-0.1,5.8-2,9-4.8C169.1,79.4,169.1,79.1,168.9,78.9z"/>
	<path class="st0" d="M172.6,79.1c-0.2-0.2-0.5-0.2-0.7,0c-3,2.9-7.1,4.3-7.2,4.4c-0.3,0.1-0.4,0.4-0.3,0.6c0.1,0.2,0.3,0.3,0.5,0.3
		c0.1,0,0.1,0,0.2,0c0.2-0.1,4.3-1.6,7.5-4.6C172.8,79.6,172.8,79.3,172.6,79.1z"/>
	<path class="st0" d="M163,80c-0.2-0.2-0.5-0.3-0.7-0.1c-1.4,1-3.4,1.3-3.4,1.3c-0.3,0-0.5,0.3-0.4,0.6c0,0.2,0.2,0.4,0.5,0.4
		c0,0,0,0,0.1,0c0.1,0,2.2-0.3,3.8-1.4C163.1,80.6,163.2,80.3,163,80z"/>
	<path class="st0" d="M187.9,91.6C188,91.6,188,91.6,187.9,91.6c0.2,0,2.3-0.3,3.9-1.4c0.2-0.2,0.3-0.5,0.1-0.7
		c-0.2-0.2-0.5-0.3-0.7-0.1c-1.4,1-3.4,1.3-3.4,1.3c-0.3,0-0.5,0.3-0.4,0.6C187.5,91.4,187.7,91.6,187.9,91.6z"/>
	<path class="st0" d="M107.8,104.6c0.1,0.2,0.3,0.3,0.5,0.3c0.1,0,0.1,0,0.2,0c0.2-0.1,5.8-2,9-4.8c0.2-0.2,0.2-0.5,0-0.7
		c-0.2-0.2-0.5-0.2-0.7,0c-3,2.6-8.6,4.6-8.7,4.6C107.9,104.1,107.7,104.4,107.8,104.6z"/>
	<path class="st0" d="M120.5,99.7c-3,2.9-7.1,4.3-7.2,4.4c-0.3,0.1-0.4,0.4-0.3,0.6c0.1,0.2,0.3,0.3,0.5,0.3c0.1,0,0.1,0,0.2,0
		c0.2-0.1,4.3-1.6,7.5-4.6c0.2-0.2,0.2-0.5,0-0.7C121,99.5,120.7,99.5,120.5,99.7z"/>
	<path class="st0" d="M111.6,100.6c-0.2-0.2-0.5-0.3-0.7-0.1c-1.4,1-3.4,1.3-3.4,1.3c-0.3,0-0.5,0.3-0.4,0.6c0,0.2,0.2,0.4,0.5,0.4
		c0,0,0,0,0.1,0c0.1,0,2.2-0.3,3.8-1.4C111.7,101.2,111.8,100.8,111.6,100.6z"/>
	<path class="st0" d="M61.9,86.4c-3,2.9-7.1,4.3-7.2,4.4c-0.3,0.1-0.4,0.4-0.3,0.6c0.1,0.2,0.3,0.3,0.5,0.3c0.1,0,0.1,0,0.2,0
		c0.2-0.1,4.3-1.6,7.5-4.6c0.2-0.2,0.2-0.5,0-0.7C62.4,86.2,62.1,86.2,61.9,86.4z"/>
	<path class="st0" d="M48.6,89.1c0,0.2,0.2,0.4,0.5,0.4c0,0,0,0,0.1,0c0.1,0,2.2-0.3,3.8-1.4c0.2-0.2,0.3-0.5,0.1-0.7
		s-0.5-0.3-0.7-0.1c-1.4,1-3.4,1.3-3.4,1.3C48.7,88.6,48.5,88.8,48.6,89.1z"/>
	<path class="st0" d="M42.6,85.1c0.1,0.2,0.3,0.3,0.5,0.3c0.1,0,0.1,0,0.2,0c0.2-0.1,4.3-1.6,7.5-4.6c0.2-0.2,0.2-0.5,0-0.7
		c-0.2-0.2-0.5-0.2-0.7,0c-3,2.9-7.1,4.3-7.2,4.4C42.6,84.5,42.5,84.8,42.6,85.1z"/>
	<path class="st0" d="M56.4,81.8c0.1,0.2,0.3,0.3,0.5,0.3c0.1,0,0.1,0,0.2,0c0.2-0.1,5.8-2,9-4.8c0.2-0.2,0.2-0.5,0-0.7
		c-0.2-0.2-0.5-0.2-0.7,0c-3,2.6-8.6,4.6-8.7,4.6C56.4,81.2,56.3,81.5,56.4,81.8z"/>
	<path class="st0" d="M61.5,81.8c0.1,0.2,0.3,0.3,0.5,0.3c0.1,0,0.1,0,0.2,0c0.2-0.1,4.3-1.6,7.5-4.6c0.2-0.2,0.2-0.5,0-0.7
		c-0.2-0.2-0.5-0.2-0.7,0c-3,2.9-7.1,4.3-7.2,4.4C61.5,81.2,61.4,81.5,61.5,81.8z"/>
	<path class="st0" d="M56.1,79.9C56.2,79.9,56.2,79.9,56.1,79.9c0.2,0,2.3-0.3,3.9-1.4c0.2-0.2,0.3-0.5,0.1-0.7
		c-0.2-0.2-0.5-0.3-0.7-0.1c-1.4,1-3.4,1.3-3.4,1.3c-0.3,0-0.5,0.3-0.4,0.6C55.7,79.7,55.9,79.9,56.1,79.9z"/>
	<path class="st0" d="M94,101c0.1,0,0.2,0,0.2-0.1c0,0,0.7-0.4,1.6-1c0.2-0.2,0.3-0.5,0.1-0.7c-0.2-0.2-0.5-0.3-0.7-0.1
		c-0.8,0.6-1.5,1-1.5,1c-0.2,0.1-0.3,0.4-0.2,0.7C93.7,100.9,93.8,101,94,101z"/>
	<path class="st0" d="M98,98.4c0.1,0,0.3,0,0.4-0.1c0.3-0.3,0.6-0.6,0.8-0.9c0.2-0.2,0.1-0.5-0.1-0.7c-0.2-0.2-0.5-0.1-0.7,0.1
		c-0.3,0.3-0.5,0.6-0.8,0.9c-0.2,0.2-0.2,0.5,0,0.7C97.8,98.4,97.9,98.4,98,98.4z"/>
	<path class="st0" d="M97.6,100.8c0.1,0,0.2,0,0.3-0.1c0,0,0.4-0.2,0.9-0.6c0.2-0.2,0.3-0.5,0.1-0.7c-0.2-0.2-0.5-0.3-0.7-0.1
		c-0.5,0.4-0.8,0.5-0.8,0.6c-0.2,0.1-0.3,0.4-0.2,0.7C97.3,100.7,97.5,100.8,97.6,100.8z"/>
	<path class="st0" d="M94.6,98.2c0.1,0,0.1,0,0.2,0c0.3-0.1,0.6-0.3,0.8-0.5c0.2-0.2,0.3-0.5,0.1-0.7c-0.2-0.2-0.5-0.3-0.7-0.1
		c-0.2,0.1-0.4,0.3-0.6,0.4c-0.2,0.1-0.4,0.4-0.2,0.7C94.3,98.1,94.5,98.2,94.6,98.2z"/>
	<path class="st0" d="M80.9,89.8c-0.8,0.6-1.5,1-1.5,1c-0.2,0.1-0.3,0.4-0.2,0.7c0.1,0.2,0.3,0.3,0.4,0.3c0.1,0,0.2,0,0.2-0.1
		c0,0,0.7-0.4,1.6-1c0.2-0.2,0.3-0.5,0.1-0.7C81.4,89.7,81.1,89.6,80.9,89.8z"/>
	<path class="st0" d="M84.2,87.4c-0.3,0.3-0.5,0.6-0.8,0.9c-0.2,0.2-0.2,0.5,0,0.7c0.1,0.1,0.2,0.1,0.4,0.1s0.3,0,0.4-0.1
		c0.3-0.3,0.6-0.6,0.8-0.9c0.2-0.2,0.1-0.5-0.1-0.7C84.6,87.2,84.3,87.2,84.2,87.4z"/>
	<path class="st0" d="M83.9,90c-0.5,0.4-0.8,0.5-0.8,0.6c-0.2,0.1-0.3,0.4-0.2,0.7c0.1,0.2,0.3,0.2,0.4,0.2c0.1,0,0.2,0,0.3-0.1
		c0,0,0.4-0.2,0.9-0.6c0.2-0.2,0.3-0.5,0.1-0.7C84.4,89.9,84.1,89.9,83.9,90z"/>
	<path class="st0" d="M80.3,88.9c0.1,0,0.1,0,0.2,0c0.3-0.1,0.6-0.3,0.8-0.5c0.2-0.2,0.3-0.5,0.1-0.7c-0.2-0.2-0.5-0.3-0.7-0.1
		c-0.2,0.1-0.4,0.3-0.6,0.4c-0.2,0.1-0.4,0.4-0.2,0.7C80,88.8,80.1,88.9,80.3,88.9z"/>
	<path class="st0" d="M204.3,96.9c0.1,0,0.3,0,0.4-0.1c0.3-0.3,0.6-0.6,0.8-0.9c0.2-0.2,0.1-0.5-0.1-0.7c-0.2-0.2-0.5-0.1-0.7,0.1
		c-0.3,0.3-0.5,0.6-0.8,0.9c-0.2,0.2-0.2,0.5,0,0.7C204,96.9,204.2,96.9,204.3,96.9z"/>
	<path class="st0" d="M203.9,99.3c0.1,0,0.2,0,0.2-0.1c0,0,0.4-0.2,0.9-0.6c0.2-0.2,0.3-0.5,0.1-0.7c-0.2-0.2-0.5-0.3-0.7-0.1
		c-0.5,0.4-0.8,0.5-0.8,0.6c-0.2,0.1-0.3,0.4-0.2,0.7C203.5,99.2,203.7,99.3,203.9,99.3z"/>
	<path class="st0" d="M200.9,96.7c0.1,0,0.1,0,0.2,0c0.3-0.1,0.6-0.3,0.8-0.5c0.2-0.2,0.3-0.5,0.1-0.7c-0.2-0.2-0.5-0.3-0.7-0.1
		c-0.2,0.1-0.4,0.3-0.6,0.4c-0.2,0.1-0.4,0.4-0.2,0.7C200.5,96.6,200.7,96.7,200.9,96.7z"/>
	<path class="st0" d="M168.3,105.6c-0.8,0.6-1.5,1-1.5,1c-0.2,0.1-0.3,0.4-0.2,0.7c0.1,0.2,0.3,0.3,0.4,0.3c0.1,0,0.2,0,0.2-0.1
		c0,0,0.7-0.4,1.6-1c0.2-0.2,0.3-0.5,0.1-0.7S168.5,105.4,168.3,105.6z"/>
	<path class="st0" d="M171.1,104.9c0.1,0,0.3,0,0.4-0.1c0.3-0.3,0.6-0.6,0.8-0.9c0.2-0.2,0.1-0.5-0.1-0.7c-0.2-0.2-0.5-0.1-0.7,0.1
		c-0.3,0.3-0.5,0.6-0.8,0.9c-0.2,0.2-0.2,0.5,0,0.7C170.9,104.8,171,104.9,171.1,104.9z"/>
	<path class="st0" d="M170.7,107.3c0.1,0,0.2,0,0.2-0.1c0,0,0.4-0.2,0.9-0.6c0.2-0.2,0.3-0.5,0.1-0.7c-0.2-0.2-0.5-0.3-0.7-0.1
		c-0.5,0.4-0.8,0.5-0.8,0.6c-0.2,0.1-0.3,0.4-0.2,0.7C170.4,107.2,170.5,107.3,170.7,107.3z"/>
	<path class="st0" d="M167.3,104.4c0.1,0.2,0.3,0.3,0.5,0.3c0.1,0,0.1,0,0.2,0c0.3-0.1,0.6-0.3,0.8-0.5c0.2-0.2,0.3-0.5,0.1-0.7
		c-0.2-0.2-0.5-0.3-0.7-0.1c-0.2,0.1-0.4,0.3-0.6,0.4C167.3,103.8,167.1,104.1,167.3,104.4z"/>
	<path class="st0" d="M141.9,101.3c0.1,0,0.2,0,0.2-0.1c0,0,0.7-0.4,1.6-1c0.2-0.2,0.3-0.5,0.1-0.7s-0.5-0.3-0.7-0.1
		c-0.8,0.6-1.5,1-1.5,1c-0.2,0.1-0.3,0.4-0.2,0.7C141.6,101.2,141.7,101.3,141.9,101.3z"/>
	<path class="st0" d="M145.9,98.7c0.1,0,0.3,0,0.4-0.1c0.3-0.3,0.6-0.6,0.8-0.9c0.2-0.2,0.1-0.5-0.1-0.7c-0.2-0.2-0.5-0.1-0.7,0.1
		c-0.3,0.3-0.5,0.6-0.8,0.9c-0.2,0.2-0.2,0.5,0,0.7C145.7,98.6,145.8,98.7,145.9,98.7z"/>
	<path class="st0" d="M145.5,101.1c0.1,0,0.2,0,0.3-0.1c0,0,0.4-0.2,0.9-0.6c0.2-0.2,0.3-0.5,0.1-0.7c-0.2-0.2-0.5-0.3-0.7-0.1
		c-0.5,0.4-0.8,0.5-0.8,0.6c-0.2,0.1-0.3,0.4-0.2,0.7C145.2,101,145.3,101.1,145.5,101.1z"/>
	<path class="st0" d="M142.5,98.4c0.1,0,0.1,0,0.2,0c0.3-0.1,0.6-0.3,0.8-0.5c0.2-0.2,0.3-0.5,0.1-0.7c-0.2-0.2-0.5-0.3-0.7-0.1
		c-0.2,0.1-0.4,0.3-0.6,0.4c-0.2,0.1-0.4,0.4-0.2,0.7C142.2,98.3,142.3,98.4,142.5,98.4z"/>
	<path class="st0" d="M75,77.4c0.1,0,0.2,0,0.2-0.1c0,0,0.7-0.4,1.6-1c0.2-0.2,0.3-0.5,0.1-0.7c-0.2-0.2-0.5-0.3-0.7-0.1
		c-0.8,0.6-1.5,1-1.5,1c-0.2,0.1-0.3,0.4-0.2,0.7C74.6,77.3,74.8,77.4,75,77.4z"/>
	<path class="st0" d="M78.6,77.1c0.1,0,0.2,0,0.3-0.1c0,0,0.4-0.2,0.9-0.6c0.2-0.2,0.3-0.5,0.1-0.7c-0.2-0.2-0.5-0.3-0.7-0.1
		c-0.5,0.4-0.8,0.5-0.8,0.6c-0.2,0.1-0.3,0.4-0.2,0.7C78.2,77.1,78.4,77.1,78.6,77.1z"/>
	<path class="st0" d="M85.5,83.6c0.1,0,0.2,0,0.2-0.1c0,0,0.7-0.4,1.6-1c0.2-0.2,0.3-0.5,0.1-0.7s-0.5-0.3-0.7-0.1
		c-0.8,0.6-1.5,1-1.5,1c-0.2,0.1-0.3,0.4-0.2,0.7C85.2,83.5,85.3,83.6,85.5,83.6z"/>
	<path class="st0" d="M89.6,81c0.1,0,0.3,0,0.4-0.1c0.3-0.3,0.6-0.6,0.8-0.9c0.2-0.2,0.1-0.5-0.1-0.7C90.5,79,90.1,79,90,79.3
		c-0.3,0.3-0.5,0.6-0.8,0.9c-0.2,0.2-0.2,0.5,0,0.7C89.3,80.9,89.4,81,89.6,81z"/>
	<path class="st0" d="M89.1,83.4c0.1,0,0.2,0,0.2-0.1c0,0,0.4-0.2,0.9-0.6c0.2-0.2,0.3-0.5,0.1-0.7c-0.2-0.2-0.5-0.3-0.7-0.1
		c-0.5,0.4-0.8,0.5-0.8,0.6c-0.2,0.1-0.3,0.4-0.2,0.7C88.8,83.3,89,83.4,89.1,83.4z"/>
	<path class="st0" d="M86.1,80.7c0.1,0,0.1,0,0.2,0c0.3-0.1,0.6-0.3,0.8-0.5c0.2-0.2,0.3-0.5,0.1-0.7c-0.2-0.2-0.5-0.3-0.7-0.1
		c-0.2,0.1-0.4,0.3-0.6,0.4c-0.2,0.1-0.4,0.4-0.2,0.7C85.8,80.6,86,80.7,86.1,80.7z"/>
	<path class="st0" d="M173.4,85.5c-0.8,0.6-1.5,1-1.5,1c-0.2,0.1-0.3,0.4-0.2,0.7c0.1,0.2,0.3,0.3,0.4,0.3c0.1,0,0.2,0,0.2-0.1
		c0,0,0.7-0.4,1.6-1c0.2-0.2,0.3-0.5,0.1-0.7C174,85.4,173.6,85.4,173.4,85.5z"/>
	<path class="st0" d="M172.4,84.3c0.1,0.2,0.3,0.3,0.5,0.3c0.1,0,0.1,0,0.2,0c0.3-0.1,0.6-0.3,0.8-0.5c0.2-0.2,0.3-0.5,0.1-0.7
		s-0.5-0.3-0.7-0.1c-0.2,0.1-0.4,0.3-0.6,0.4C172.4,83.8,172.3,84.1,172.4,84.3z"/>
	<path class="st0" d="M112.2,94.1c-0.8,0.6-1.5,1-1.5,1c-0.2,0.1-0.3,0.4-0.2,0.7c0.1,0.2,0.3,0.3,0.4,0.3c0.1,0,0.2,0,0.2-0.1
		c0,0,0.7-0.4,1.6-1c0.2-0.2,0.3-0.5,0.1-0.7C112.8,94,112.4,93.9,112.2,94.1z"/>
	<path class="st0" d="M115.1,93.4c0.1,0,0.3,0,0.4-0.1c0.3-0.3,0.6-0.6,0.8-0.9c0.2-0.2,0.1-0.5-0.1-0.7c-0.2-0.2-0.5-0.1-0.7,0.1
		c-0.3,0.3-0.5,0.6-0.8,0.9c-0.2,0.2-0.2,0.5,0,0.7C114.8,93.3,114.9,93.4,115.1,93.4z"/>
	<path class="st0" d="M114.6,95.8c0.1,0,0.2,0,0.3-0.1c0,0,0.4-0.2,0.9-0.6c0.2-0.2,0.3-0.5,0.1-0.7c-0.2-0.2-0.5-0.3-0.7-0.1
		c-0.5,0.4-0.8,0.5-0.8,0.6c-0.2,0.1-0.3,0.4-0.2,0.7C114.3,95.7,114.5,95.8,114.6,95.8z"/>
	<path class="st0" d="M111.2,92.9c0.1,0.2,0.3,0.3,0.5,0.3c0.1,0,0.1,0,0.2,0c0.3-0.1,0.6-0.3,0.8-0.5c0.2-0.2,0.3-0.5,0.1-0.7
		c-0.2-0.2-0.5-0.3-0.7-0.1c-0.2,0.1-0.4,0.3-0.6,0.4C111.2,92.3,111.1,92.6,111.2,92.9z"/>
	<path class="st0" d="M217.9,98.3C217.9,98.3,217.9,98.3,217.9,98.3c0-0.2,0-0.2-0.1-0.3c0,0,0-0.1,0-0.1c0-0.1-0.1-0.1-0.1-0.2
		c0,0,0-0.1-0.1-0.1c-0.1-0.1-0.2-0.2-0.3-0.2l0,0c0,0,0,0,0,0l-16.1-7.9c0.1-0.1,0.2-0.1,0.3-0.2c0.2-0.2,0.2-0.5,0-0.7
		c-0.2-0.2-0.5-0.2-0.7,0c-0.2,0.2-0.4,0.3-0.5,0.5l-13.1-6.4c0.1-0.2,0.3-0.4,0.5-0.6c0.2-0.2,0.2-0.5,0-0.7s-0.5-0.2-0.7,0
		c-0.3,0.3-0.5,0.5-0.7,0.8l-0.8-0.4c0.4-3.1,1.6-7,4.7-10.1c0.2-0.2,0.2-0.5,0-0.7s-0.5-0.2-0.7,0c-3.3,3.3-4.5,7.1-5,10.4
		l-1.1-0.6c-0.3-0.7-0.8-1.4-1.4-2c-0.2-0.2-0.5-0.2-0.7,0s-0.2,0.5,0,0.7c0.2,0.2,0.3,0.3,0.5,0.5l-2.7-1.3L179,68
		c0.5-0.1,1.1-0.3,1.8-0.7c1.4,0.3,2.9,0.8,4.4,1.4c2,0.7,3.8,1.4,5.4,1.4c4.4,0,7.3-0.3,12.4-5.3c0.8-0.8,1.8-2,1.5-3.3
		c-0.4-1.4-2.1-1.8-3.9-2.1c-2-0.4-3.5-0.8-3.5-1.8c0-1.4,0.7-2,2.1-2.9c1.4-1,3.1-2.2,3.1-4.9c0-4.6-0.6-5.6-2.8-7
		c-0.7-0.4-1.5-0.6-2.4-0.8c-2.3-0.5-3.7-1-3.7-3.5c0-1.5-0.5-2.7-1.3-3.5c-1.9-1.9-5.1-1.8-7.5-1.8l-0.6,0c-0.6,0-1.3-1.6-1.8-2.9
		c-1.1-2.7-2.6-6.3-6.5-6.3c-4.4,0-5.5,4.4-6.1,7.8l-18.6-26c-0.2-0.3-0.5-0.5-0.9-0.4l-12.3,1.1L95,10.3c0,0,0,0-0.1,0
		c-0.1,0-0.2,0-0.2,0.1c0,0-0.1,0-0.1,0.1c-0.1,0-0.2,0.1-0.2,0.2c0,0,0,0-0.1,0.1c0,0,0,0-0.1,0.1L78.7,35.9
		c-0.2,0.4-0.2,0.9,0.1,1.2l1.9,1.9c0,0,0,0,0,0c0.1,0.1,0.2,0.2,0.3,0.2c0,0,0,0,0.1,0c0.1,0,0.2,0,0.3,0c0,0,0.1,0,0.1,0
		c0,0,0,0,0,0c0,0,0,0,0,0c0,0,0,0,0.1,0l0.7-0.1v29.5L81,69.2c-0.2,0.1-0.3,0.3-0.3,0.5v1.1c-0.1,0-0.3,0-0.4,0L55,75.6l-0.1-13
		c0.5-0.1,1.1-0.3,1.8-0.7c1.4,0.3,2.9,0.8,4.4,1.4c2,0.7,3.8,1.4,5.4,1.4c4.4,0,7.3-0.3,12.4-5.3c0.8-0.8,1.8-2,1.5-3.3
		c-0.4-1.4-2.1-1.8-3.9-2.1c-2-0.4-3.5-0.8-3.5-1.8c0-1.4,0.7-2,2.1-2.9c1.4-1,3.1-2.2,3.1-4.9c0-4.6-0.6-5.6-2.8-7
		c-0.7-0.4-1.5-0.6-2.4-0.8c-2.3-0.5-3.7-1-3.7-3.5c0-1.5-0.5-2.7-1.3-3.5c-1.9-1.9-5.1-1.8-7.5-1.8l-0.6,0c-0.6,0-1.3-1.6-1.8-2.9
		c-1.1-2.7-2.6-6.3-6.5-6.3c-5,0-5.8,5.7-6.2,9c-0.1,1-0.3,2.1-0.4,2.5c-0.3,0.1-1.3-0.4-2-0.7c-1.9-0.8-4.4-1.9-6.6-0.5
		c-2.4,1.6-1.5,4.4-0.8,6.6c0.5,1.6,1,3.2,0.5,4.1c-0.4,0.6-0.5,0.6-1.7,0.4c-1.7-0.3-4.2-0.8-7.1,3.3c-4.7,6.6,0.2,11.5,4.5,15.8
		l0.2,0.2c1.9,1.9,3.9,2.3,5.7,2.1c0,0.1,0.1,0.2,0.2,0.2c2.1,2.1,4.6,3.4,7,3.7c0,0,0,0,0,0c0.1,0.6,0.3,1.2,0.6,1.8
		c-2.6,3.8-3.2,8-3.2,10.9l0,0c-0.2-1.9-0.7-4.1-2.2-5.6c-0.2-0.2-0.5-0.2-0.7,0s-0.2,0.5,0,0.7c1.3,1.3,1.8,3.4,1.9,5.1l-9.9,1.9
		c0,0-0.1,0-0.1,0c0,0,0,0-0.1,0c0,0,0,0-0.1,0c-0.1,0-0.2,0.1-0.2,0.1c0,0-0.1,0-0.1,0.1c-0.1,0.1-0.2,0.2-0.2,0.3c0,0,0,0,0,0.1
		c0,0.1-0.1,0.1-0.1,0.2c0,0,0,0,0,0.1c0,0,0,0.1,0,0.1c0,0.1,0,0.2,0,0.3c0,0,0,0,0,0.1c0.5,1.4,0.2,9.2-0.1,13.9
		c0,0.4,0.2,0.8,0.5,0.9l3.4,1.9c0.1,0.5,0.1,1.1,0.1,1.9c0,0,0,0,0,0c-0.1,0.1-0.1,0.3,0,0.4c-0.1,1.7-0.3,3.8-0.5,5.2
		c-0.1,0.4,0.1,0.8,0.5,1l77.1,42.2c0.1,0.1,0.3,0.1,0.5,0.1c0.1,0,0.2,0,0.2,0l101.7-25.8c0.5-0.1,0.8-0.5,0.8-1c0,0-0.2-4.3,0-8
		l2.7-0.7c0.5-0.1,0.8-0.5,0.8-1C217.9,112.4,217.7,102.4,217.9,98.3z M202.4,115.1l13.4-13.4c0,1.9,0,4,0,5.8l-5.6,5.6L202.4,115.1
		z M143,130.2c-3.8,0-8.7-0.8-13.1-1.6c-3.7-0.6-7.3-1.2-9.6-1.2c-1-0.1-11.8-1.1-18.9,5.4l-10.8-5.9c1.6,0.2,4.1,0.4,7,0.4
		c4.4,0,9.8-0.5,14-2.4c8.3-3.7,17.5-7.1,28-7.1c5.1,0,8.7,1.8,12.5,3.7c3.1,1.5,6.2,3.1,10.2,3.9L143,130.2z M51.8,93.6l-7.7,7.7
		l-5.8-3.2l7.7-7.7L51.8,93.6z M52.7,94.1l5.8,3.2l-7.7,7.7l-5.8-3.2L52.7,94.1z M59.4,97.8l2.9,1.6c0,0,0,0,0,0l0,0
		c0.1,0.1,0.2,0.1,0.3,0.1c0,0,0,0,0,0c0,0,0,0,0,0c0,0,0.1,0,0.1,0c0.2,0,0.4-0.1,0.6-0.2c0,0,0,0,0,0c0.1-0.1,0.2-0.2,0.3-0.3
		c0.1-0.1,0.1-0.2,0.1-0.3c0,0,0,0,0,0c0,0,0,0,0,0c0,0,0,0,0,0c0-0.3,0.2-0.7,0.4-1.2c0-0.1,0.1-0.1,0.1-0.2c0,0,0,0,0,0
		c0.2-0.4,0.5-0.9,0.9-1.5c0.2-0.2,0.5-0.4,0.8-0.5c1.3-0.5,3.2,0.3,4.9,1.1L58.1,109l-6.4-3.5L59.4,97.8z M93.9,91.6
		c0,0.1,0,0.2,0,0.4c-0.2,0.3-0.6,0.6-1,0.9c-1.4,0.9-4.3,1.6-10.1,0.3c-0.3-0.1-0.5,0.1-0.6,0.4c-0.1,0.3,0.1,0.5,0.4,0.6
		c2.3,0.5,4.2,0.8,5.8,0.8c2.5,0,4.1-0.6,5.1-1.2c0.2-0.2,0.5-0.3,0.7-0.5c0,0.1,0,0.1,0.1,0.2c0.6,1.8,2.3,2.1,3.9,2.5
		c0.7,0.2,1.5,0.4,2.3,0.7c1.9,0.8,2.3,1.2,2.1,4c-0.1,2.2-1,4.5-6.7,6.9c-4,1.7-9.2,1.5-11.1,1.4c-0.2-1.5-0.9-4.5-2.5-6.9
		c-2.1-3-4.1-5.1-7.2-6.2c-0.5-0.2-1.2-0.5-2-0.9c-1.6-0.8-3.5-1.8-5.4-1.9c2.3-2.5,5.6-5.1,9.3-6.2c3.7-1.1,8-0.4,8.9,0
		c0.4,0.2,0.8,0.3,1.4,0.4c1.3,0.4,3.3,0.9,5.4,2.5C93.9,90.9,93.9,91.2,93.9,91.6z M154.1,107.4c3.8,1.7,7.7,3.4,16.1,3.5
		c0.4,1.5,0.8,4,0.9,6.3c-8.9-0.2-13.3-2.3-17.1-4.2c0-2.4-0.4-4.7-0.6-5.9C153.7,107.2,153.9,107.3,154.1,107.4z M154.9,95.8
		c-0.3-0.1-0.5,0-0.6,0.3c-0.1,0.4-0.2,0.8-0.3,1.2c-0.4-0.1-0.7-0.2-1.1-0.3c0-1.5,0.2-3.2,0.7-5c0.1-0.3-0.1-0.5-0.4-0.6
		c-0.3-0.1-0.5,0.1-0.6,0.4c-0.5,1.8-0.6,3.5-0.7,5c-0.4-0.1-0.7-0.2-1.1-0.4c-0.1-0.3-0.1-0.5-0.2-0.8c-0.1-0.3-0.4-0.4-0.6-0.3
		c-0.3,0.1-0.4,0.4-0.3,0.6c0,0,0,0,0,0.1c-7.5-3.1-11.5-8.7-12.7-10.5l13.4-3.4c0.9,0.9,6.5,6.6,18.5,7.7
		c7.9,0.7,14.3,1.9,19.2,3.5c0,0.1,0,0.2,0,0.2c0.1,0.2,0.3,0.3,0.5,0.3c0.1,0,0.1,0,0.2,0c0,0,0.2-0.1,0.5-0.2
		c5.5,1.9,9.1,4.5,10.9,7.8l-17.7,4.5c-3.5-4.4-10.4-5.5-19-6.9c-2.7-0.4-5.5-0.9-8.5-1.5c0.1-0.3,0.1-0.7,0.3-1.1
		C155.3,96.2,155.2,95.9,154.9,95.8z M99.3,81c-0.2-0.1-0.5,0-0.6,0.2l-1.3-0.7c0.1-1,0.3-2.1,0.6-3.3c0-0.1,0-0.2,0-0.2l14.8,7.2
		c0,0,0,0,0,0c0.1,0.1,0.3,0.1,0.4,0.1c0,0,0,0,0,0c0,0,0,0,0,0c0,0,0,0,0,0c0.1,0,0.2,0,0.2,0l52.7-12.8c0,0,0,0,0,0
		c0.1,0,0.2-0.1,0.2-0.1c0,0,0,0,0.1,0c0.1-0.1,0.2-0.1,0.2-0.2c0,0,0,0,0-0.1c0-0.1,0.1-0.1,0.1-0.2c0,0,0,0,0,0c0,0,0-0.1,0-0.1
		l1.4,0.7v2.3l-17.5,4.6l-3-1.5c-0.1-0.1-0.2-0.1-0.3,0l-14.5,3.7c0,0,0,0,0,0c0,0,0,0-0.1,0c0,0-0.1,0-0.1,0.1c0,0,0,0,0,0
		c0,0-0.1,0.1-0.1,0.1c0,0,0,0,0,0c0,0,0,0,0,0c0,0,0,0.1,0,0.1c0,0,0,0,0,0.1c0,0,0,0,0,0v2.4l-19.3,5.1l-13.7-6.7c0,0,0,0,0,0
		C99.7,81.4,99.6,81.1,99.3,81z M107.9,52.5v10.6l-3,0.6V53L107.9,52.5z M98.3,12l20,34.9l-2.2,0.4L96.7,12.2L98.3,12z M104.8,11.4
		l19.7,34.4l-5.2,0.9L99.4,11.9L104.8,11.4z M112.5,10.7l19.8,33.8l-6.8,1.2l-19.6-34.4L112.5,10.7z M119.8,10L140.7,43l-7.4,1.3
		l-19.7-33.7L119.8,10z M129.2,9.2l19.2,32.4l-6.7,1.2L121,9.9L129.2,9.2z M145.2,7.7l17.3,25.9c-0.8,0-1.6,0.2-2.4,0.7
		c-2,1.3-1.7,3.4-1.1,5.4l-0.4,0.1L138.7,8.3L145.2,7.7z M159.8,45.1c-0.4,0.6-0.5,0.6-1.7,0.4c-1.7-0.3-4.2-0.8-7.1,3.3
		c-0.6,0.8-1,1.6-1.3,2.3l-12.7-3.5v-0.3l22.9-4C160.1,44,160.1,44.6,159.8,45.1z M180.3,65.2c-0.5-0.1-0.9-0.1-1.4-0.1l0-5.4
		c0-0.1,0-0.2-0.1-0.3c1-0.5,2.7-0.9,4.3-0.9C182.9,62.2,181.6,64.2,180.3,65.2z M92.9,60.4l3,1.2v3.8l-3,0.6V60.4z M91.9,66.2
		l-3,0.6v-8l3,1.2V66.2z M96.9,62l3,1.2v1.4l-3,0.6V62z M100.9,63.7l1.3,0.5l-1.3,0.2V63.7z M112.3,64.4v3l-4.9-2L112.3,64.4z
		 M103.9,65.9v11.7l-3-1.4v-9.7L103.9,65.9z M104.9,65.7l0.6-0.1l2.4,1v13l-3-1.4V65.7z M108.9,67l3.4,1.4v13.2l-3.4-1.6V67z
		 M114.3,68.6l3.6-0.7v13.3l-3.6,0.9V68.6z M118.8,67.6l4-0.8v13.1l-4,1V67.6z M123.8,66.6l4-0.8v12.9l-4,1V66.6z M128.8,65.5
		l3.7-0.8v12.8l-3.7,0.9V65.5z M133.4,63.8c-0.1-0.1-0.3-0.1-0.4-0.1l-18.7,3.9V64l2.7-0.5c0.1,0.1,0.2,0.1,0.3,0.1
		c0.2,0,0.4-0.1,0.5-0.3l18.2-3.4l3.2,1.2c0.1,0.1,0.2,0.3,0.4,0.3c0.1,0,0.1,0,0.1,0l22.9,8.9l-29.1,7.1V64.2
		C133.6,64,133.5,63.9,133.4,63.8z M149.6,56.8V63l-2.7-1V51.3l2.5,0.7C148.9,53.7,149.1,55.3,149.6,56.8z M145.9,61.6l-2.7-1V50.3
		l2.7,0.7V61.6z M142.3,60.2l-2.2-0.8v-9.9l2.2,0.6V60.2z M139.1,58.9l-2-0.8v-9.6l2,0.6V58.9z M124.8,50v10l-3,0.6V50.4L124.8,50z
		 M125.8,49.8l3-0.5v9.8l-3,0.6V49.8z M129.8,49.2l3-0.5v9.7l-3,0.6V49.2z M133.8,48.6l1.2-0.2V58l-1.2,0.2V48.6z M120.8,50.6v10.1
		l-3,0.6V51L120.8,50.6z M177,74.1c-1.2,0-3.7-0.1-5.2-1.4c-0.6-0.5-0.9-1.1-1.1-1.9c2-0.2,3.8-1.1,5.3-2.6c0.3-0.3,0.6-0.5,0.9-0.7
		L177,74.1z M176.9,61.1l0,4.3c-0.8,0.3-1.6,0.7-2.3,1.4c-1.2,1.2-2.6,1.9-4.1,2v-4.1C174.1,64.5,175.6,62.7,176.9,61.1z
		 M168.5,68.7c-0.5-0.1-1-0.2-1.6-0.4v-3.1c0.5-0.1,1-0.3,1.6-0.3V68.7z M165,67.2c-0.4-0.3-0.9-0.6-1.3-1c0.4-0.1,0.8-0.3,1.3-0.4
		V67.2z M150.6,63.4v-4.6c1.3,2.1,3.1,3.9,4.9,5.7l0.2,0.2c0.6,0.6,1.1,1,1.7,1.3L150.6,63.4z M159.3,66.8c0.7,0.1,1.4,0.1,2.1,0.1
		c0,0.1,0.1,0.2,0.2,0.2c0.4,0.4,0.8,0.7,1.2,1.1L159.3,66.8z M137.6,8.4L157.5,40l-8,1.4L130.3,9.1L137.6,8.4z M116.8,51.2v10.3
		l-2.6,0.5V51.6L116.8,51.2z M112.3,62.3l-3.4,0.6V52.4l3.4-0.5V62.3z M103.9,63.9l-3-1.2v-9.1l3-0.5V63.9z M99.9,62.2l-3-1.2v-6.8
		l3-0.5V62.2z M95.9,60.5l-3-1.2v-4.5l3-0.5V60.5z M91.9,58.9l-3-1.2v-2.3l3-0.5V58.9z M87.9,57.2l-3-1.2l3-0.4V57.2z M87.9,58.3
		v8.6l-3.5,0.7V56.8L87.9,58.3z M87.9,69v0.9l-1.4-0.7L87.9,69z M88.9,68.8l3-0.6v3.6l-3-1.4V68.8z M92.9,68l3-0.6v6.3l-3-1.4V68z
		 M96.9,67.3l3-0.6v9l-3-1.4V67.3z M136.3,81.8l-1.8-0.9l13-3.3l1.8,0.9L136.3,81.8z M136.7,82.8l13.5-3.4v1.8l-13.5,3.4V82.8z
		 M133.6,81.6l2.2,1.1v1.7l-2.2-1.1V81.6z M187.8,106.7L172.4,122c0.7-1.9,0.8-4.3,0.6-6.4l6.9-6.9L187.8,106.7z M89.1,124.6
		c-0.1,0-0.2,0-0.3,0c-0.2-1.2-0.2-3.1,0.1-5.4c2.6,0.1,9.8,0.3,14.4,0.3c0,1.7,0.2,3.5,0.8,5.2C96.8,125.8,89.2,124.7,89.1,124.6z
		 M106.1,124.5c-0.6-1.6-0.8-3.3-0.8-4.9c3.3-0.2,6-1.6,9.2-3.2c5.5-2.8,12.3-6.2,26.2-6.2c5.2,0,8.2,1.3,11.4,2.9
		c0,2.2-0.2,4.4-0.9,5.5c0,0,0,0.1,0,0.1c-3.4-1.6-6.8-2.9-11.4-2.9c-10.8,0-20.2,3.5-28.8,7.3C109.4,123.7,107.7,124.1,106.1,124.5
		z M154,114.1c3.8,2,8.4,4,17.1,4.1c-0.1,1.5-0.3,2.9-0.9,4c-0.5,0.9-1.2,1.4-2.1,1.6c-6.6,0-10.9-2.2-15-4.2c0,0-0.1,0-0.1-0.1
		C153.7,118.2,154,116.2,154,114.1z M172.9,114.3c-0.2-1.5-0.5-2.8-0.7-3.7l5.8-1.5L172.9,114.3z M152,111.9
		c-3-1.5-6.2-2.8-11.3-2.8c-14.1,0-21,3.5-26.6,6.3c-3.1,1.6-5.7,2.8-8.7,3.1c0.1-2.2,0.6-4,0.9-4.9c1.9-0.4,3.7-0.9,5.4-1.6
		c0.9-0.4,1.8-0.8,2.6-1.2c7.6-3.4,14.1-6.4,26.9-6.4c4.7,0,7.6,0.8,10.2,1.7c-0.1,0.2-0.1,0.3,0,0.5
		C151.6,107.8,151.8,109.8,152,111.9z M103.3,118.6c-4.5,0-11.7-0.3-14.3-0.3c0.2-1.3,0.4-2.8,0.8-4.3c2.3,0.3,8.3,0.9,14.3,0.1
		C103.7,115.1,103.4,116.7,103.3,118.6z M71.9,96.7c0.8,0.4,1.6,0.8,2.2,1c1.6,0.6,2.9,1.5,4,2.7l-12.6,12.6l-6.4-3.5L71.9,96.7z
		 M78.7,101.2c0.5,0.6,1,1.3,1.5,2c0.8,1.1,1.3,2.5,1.7,3.7l-9.8,9.8l-5.8-3.2L78.7,101.2z M82.2,108.1c0.2,1.1,0.3,1.9,0.3,1.9
		c0,0,0,0.1,0,0.1c0,0,0,0.1,0,0.1c0,0.1,0.1,0.1,0.1,0.2c0,0,0,0.1,0.1,0.1c0.1,0.1,0.1,0.1,0.2,0.2c0,0,0,0,0.1,0l0,0c0,0,0,0,0,0
		l3.5,1.9l-7.7,7.7l-5.8-3.2L82.2,108.1z M87.5,113.2l0.3,0.2c-1.3,5.8-1.4,9.3-1,11.4l-7.1-3.9L87.5,113.2z M189.6,106.2l7.8-2
		l-16.3,16.3l-7.8,2L189.6,106.2z M199.3,103.7l7.8-2l-16.3,16.3l-7.8,2L199.3,103.7z M209,101.3l6.8-1.7c0,0.3,0,0.5,0,0.8
		l-15.3,15.3l-7.8,2L209,101.3z M193.3,93.5c0.1,0.2,0.3,0.3,0.5,0.3c0.1,0,0.1,0,0.2,0c0.1-0.1,2.8-1,5.6-3L214,98l-12.8,3.2
		c-0.3-0.6-0.7-1.2-1.1-1.7c0,0,0.1,0,0.1,0c0.1,0,0.2,0,0.2-0.1c0,0,0.7-0.4,1.6-1c0.2-0.2,0.3-0.5,0.1-0.7
		c-0.2-0.2-0.5-0.3-0.7-0.1c-0.8,0.6-1.5,1-1.5,1c-0.2,0.1-0.3,0.3-0.2,0.5c-2-2.4-5-4.4-9.1-5.9c1.7-0.7,4.3-1.9,6.4-3.5l1.5,0.7
		c-2.5,1.7-4.8,2.5-4.9,2.5C193.3,93,193.2,93.3,193.3,93.5z M182.9,82.8c0.5,2.4,0.2,4.7,0.2,4.8c0,0.3,0.2,0.5,0.4,0.6
		c0,0,0,0,0.1,0c0.2,0,0.5-0.2,0.5-0.4c0-0.1,0.3-2.1-0.1-4.3l0.2,0.1c-0.1,2.5,0.2,4.3,0.3,4.5c0,0.2,0.3,0.4,0.5,0.4
		c0,0,0.1,0,0.1,0c0.3-0.1,0.4-0.3,0.4-0.6c0,0-0.3-1.6-0.2-3.8l0.2,0.1c-0.3,1.6,0.2,2.9,0.2,3c0.1,0.2,0.3,0.3,0.5,0.3
		c0.1,0,0.1,0,0.2,0c0.3-0.1,0.4-0.4,0.3-0.6c0-0.1-0.4-1-0.2-2.2l9.5,4.6c-2.3,1.6-5.3,2.9-6.7,3.4c-5.1-1.8-11.8-3-20.2-3.8
		c-11.3-1-16.8-6.2-17.8-7.3c0,0,0,0,0,0v-2.4l16.8-4.4c0,0.4,0.2,0.8,0.5,1l8.5,4.2l0,3c-0.2,0-0.3,0-0.4,0.2
		c-0.3,0.3-0.5,0.6-0.8,0.9c-0.2,0.2-0.2,0.5,0,0.7c0.1,0.1,0.2,0.1,0.4,0.1s0.3,0,0.4-0.1c0.2-0.2,0.3-0.4,0.5-0.5l0,1.7
		c0,0,0,0,0,0c-0.2-0.2-0.5-0.3-0.7-0.1c-0.5,0.4-0.8,0.5-0.8,0.6c-0.2,0.1-0.3,0.4-0.2,0.7c0.1,0.2,0.3,0.2,0.4,0.2
		c0.1,0,0.2,0,0.3-0.1c0,0,0.4-0.2,0.9-0.6c0,0,0.1-0.1,0.1-0.1l0,1.4c0,0.6,0.5,1,1,1c0,0,0,0,0,0c0.6,0,1-0.5,1-1l0-6.9
		L182.9,82.8z M169.4,73.9c0,0-0.1,0-0.1,0v-1.3c0.3,0.6,0.7,1.1,1.2,1.6c1.9,1.7,4.6,1.9,6.2,1.9c0.1,0,0.2,0,0.3,0l0,1.6
		L169.4,73.9z M197.9,53c-1.3,0.9-2.9,2.1-2.9,4.5c0,2.6,2.9,3.2,5.1,3.7c0.8,0.2,2.2,0.5,2.4,0.7c0,0,0,0.4-1,1.3
		c-4.7,4.7-7.2,4.7-11,4.7c-1.2,0-2.9-0.6-4.7-1.3c-1-0.4-2.1-0.8-3.2-1.1c1.2-1.4,2.3-3.6,2.5-7.1c0.3,0.1,0.5,0.1,0.8,0.2
		c1.1,0.4,1.5,1.2,1.5,2.2c0,0.6,0.4,1,1,1s1-0.4,1-1c0-1.9-1-3.4-2.8-4.1c-0.5-0.2-1.1-0.4-1.8-0.5c-0.2-0.2-0.4-0.3-0.7-0.3
		c-0.2,0-0.4,0.1-0.6,0.2c-2.8-0.1-5.8,0.8-7.1,2.1c-0.4,0.4-0.8,0.9-1.2,1.3c-1.4,1.6-2.5,3-5.9,3c-1.9,0-3.6,0.6-5.2,1.2
		c-2.8,1-4.8,1.7-7.2-0.6l-0.2-0.2c-1.1-1.1-2.2-2.2-3.1-3.3c1,0.2,2.3,0.3,4.1,0.3c2.9,0,4.8-1.3,6.6-2.5c1.9-1.3,3.6-2.5,6.6-2.5
		c4.9,0,9.4-0.5,9.4-4.2c0-0.3-0.2-0.5-0.5-0.5s-0.5,0.2-0.5,0.5c0,1.6-1,3.2-8.4,3.2c-3.3,0-5.3,1.3-7.2,2.6
		c-1.8,1.2-3.4,2.3-6,2.3c-2.8,0-4.3-0.3-5.1-0.6c-1.9-2.6-2.5-5.3-0.1-8.7c2.2-3,3.7-2.8,5.1-2.5c1.1,0.2,2.7,0.5,3.8-1.3
		c0,0,0,0,0,0c1.9,4.5,3.4,4.6,6,4.3c1-0.1,2.1-0.3,3.5,0c3.9,0.8,4.9-1.3,5.8-3.1c0.4-0.8,0.8-1.6,1.4-2.1c0.6-0.5,2,0.7,3.6,2.1
		c2.7,2.3,6.4,5.5,11.3,5.5c3.1,0,5-0.6,6.3-1.2C199.1,52.1,198.6,52.6,197.9,53z M196.4,43.9c0.7,0.2,1.4,0.3,1.8,0.6
		c1.5,0.9,1.9,1.2,1.9,5.3c0,0.1,0,0.2,0,0.3c-0.9,0.7-2.8,1.7-6.9,1.7c-4.5,0-8.1-3-10.7-5.2c-2.1-1.8-3.7-3.1-4.9-2.1
		c-0.8,0.7-1.3,1.6-1.7,2.5c-0.9,1.8-1.6,3.2-4.7,2.5c-1.5-0.3-2.8-0.2-3.8,0c-2.2,0.3-3.5,0.4-5.4-4.8c0.1-0.8,0-1.7-0.3-2.6
		c0,0,0,0,0,0c0,0,0,0,0,0c-0.1-0.6-0.3-1.1-0.5-1.6c-0.8-2.4-1-3.6,0-4.3c1.3-0.9,3.1-0.1,4.7,0.6c0.4,0.2,0.9,0.4,1.3,0.5
		c1.1,1,2.2,1.5,3.2,1.5c1.5,0,2.5-1.1,3.4-2.1c0.8-0.8,1.5-1.6,2.3-1.6c1.5,0,2.9,1.7,4.4,3.5c1.8,2.1,3.6,4.3,6.2,4.4
		c0.1,0,0.1,0,0.2,0c1.5,0,3-0.7,4.6-2.1C192.5,43,194.8,43.5,196.4,43.9z M175.3,26c2.4,0,3.4,2.1,4.7,5.1c0.9,2.1,1.7,4.2,3.7,4.2
		l0.7,0c2,0,4.8,0,6.1,1.2c0.5,0.5,0.8,1.2,0.8,2.1c0,0.4,0,0.9,0.1,1.2c-1.6,1.5-3.1,2.3-4.5,2.2c-2.1-0.1-3.8-2.1-5.4-4.1
		c-1.6-2-3.2-3.8-5.2-3.8c-1.2,0-2.1,1-3,1.9c-0.9,0.9-1.7,1.8-2.7,1.8c0,0,0,0,0,0c-0.4,0-0.8-0.1-1.2-0.3c0.5-0.1,0.9-0.4,1.2-1
		c0.2-0.5,0.4-1.1,0.5-1.9c0,0,0,0,0,0c0.1-0.4,0.1-0.8,0.2-1.2C171.6,29.3,172.3,26,175.3,26z M168.9,34.6
		c-0.1,0.4-0.1,0.7-0.2,0.9c-0.3,0.1-1.3-0.4-2-0.7c-0.9-0.4-1.9-0.8-3-1L146.3,7.6l3.1-0.3L168.9,34.6z M95,13.3l19.3,35l-0.5,0.5
		l-17.7-32c-0.2-0.3-0.5-0.5-0.8-0.5c0,0,0,0,0,0c-0.3,0-0.7,0.2-0.8,0.5L81.3,36.7l-0.5-0.5L95,13.3z M84.4,35.7l10.8-16.5
		l7.8,14.2l-18.6,3.4V35.7z M104,35.2l8.2,14.9v0.8l-7.7,1.2c0,0-0.1,0-0.1,0c-0.1,0-0.2,0-0.3,0.1l-19.8,3V38.8L104,35.2z M81.6,70
		l1.1-0.4c0.1,0,0.1,0.1,0.2,0.1l14.4,6.9c-0.1,0.1-0.2,0.2-0.3,0.3c-0.3,1.1-0.5,2.1-0.6,3.1l-14.8-7.2V70z M46.4,59.4
		c3.6-0.3,5.1-2.1,6.4-3.7l0,4.3c-0.8,0.3-1.6,0.7-2.3,1.4c-1.2,1.2-2.6,1.9-4.1,2V59.4z M56.2,59.8c-0.5-0.1-0.9-0.1-1.4-0.1l0-5.4
		c0-0.1,0-0.2-0.1-0.3c1-0.5,2.7-0.9,4.3-0.9C58.8,56.9,57.5,58.8,56.2,59.8z M47.9,65.4c0.1-0.1,0.1-0.2,0.1-0.3
		c1.4-0.4,2.8-1.2,3.9-2.4c0.3-0.3,0.6-0.5,0.9-0.7l0,6.6c-1.2,0-3.7-0.1-5.2-1.4c-0.3-0.3-0.5-0.6-0.7-0.9
		C47.3,66.1,47.6,65.8,47.9,65.4z M46.3,31c0.3-0.7,0.5-1.8,0.7-3.1c0.6-4,1.3-7.3,4.3-7.3c2.4,0,3.4,2.1,4.7,5.1
		c0.9,2.1,1.7,4.2,3.7,4.2l0.7,0c2,0,4.8,0,6.1,1.2c0.5,0.5,0.8,1.2,0.8,2.1c0,0.4,0,0.8,0.1,1.2c-1.6,1.5-3.1,2.3-4.5,2.2
		c-2.1-0.1-3.8-2.1-5.4-4.1c-1.6-2-3.2-3.8-5.2-3.8c-1.2,0-2.1,1-3,1.9c-0.9,0.9-1.7,1.8-2.7,1.8c0,0,0,0,0,0
		c-0.4,0-0.8-0.1-1.2-0.3C45.6,31.9,46,31.6,46.3,31z M37.1,30.7c1.3-0.9,3.1-0.1,4.7,0.6c0.4,0.2,0.9,0.4,1.3,0.5
		c1.1,1,2.2,1.5,3.2,1.5c0,0,0,0,0,0c1.5,0,2.5-1.1,3.4-2.1c0.8-0.8,1.5-1.6,2.3-1.6c1.5,0,2.9,1.7,4.4,3.5c1.8,2.1,3.6,4.3,6.2,4.4
		c0.1,0,0.1,0,0.2,0c1.5,0,3-0.7,4.6-2.1c0.9,2.2,3.2,2.7,4.8,3.1c0.7,0.2,1.4,0.3,1.8,0.6c1.5,0.9,1.9,1.2,1.9,5.3
		c0,0.1,0,0.2,0,0.3c-0.9,0.7-2.8,1.7-6.9,1.7c-4.5,0-8.1-3-10.7-5.2c-2.1-1.8-3.7-3.1-4.9-2.1c-0.8,0.7-1.3,1.6-1.7,2.5
		c-0.9,1.8-1.6,3.2-4.7,2.5c-1.5-0.3-2.8-0.2-3.8,0c-2.2,0.3-3.5,0.4-5.4-4.8c0.2-1.4-0.3-2.9-0.8-4.2
		C36.4,32.5,36.1,31.3,37.1,30.7z M33,58l-0.2-0.2c-1.1-1.1-2.2-2.2-3.1-3.3c1,0.2,2.3,0.3,4.1,0.3c2.9,0,4.8-1.3,6.6-2.5
		c1.9-1.3,3.6-2.5,6.6-2.5c4.9,0,9.4-0.5,9.4-4.2c0-0.3-0.2-0.5-0.5-0.5s-0.5,0.2-0.5,0.5c0,1.6-1,3.2-8.4,3.2
		c-3.3,0-5.3,1.3-7.2,2.6c-1.8,1.2-3.4,2.3-6,2.3c-2.8,0-4.3-0.3-5.1-0.6c-1.9-2.6-2.5-5.3-0.1-8.7c2.2-3,3.7-2.8,5.1-2.5
		c1.1,0.2,2.7,0.5,3.8-1.3c0,0,0,0,0,0c1.9,4.5,3.4,4.6,6,4.3c1-0.1,2.1-0.3,3.5,0c3.9,0.8,4.9-1.3,5.8-3.1c0.4-0.8,0.8-1.6,1.4-2.1
		c0.6-0.5,2,0.7,3.6,2.1c2.7,2.3,6.4,5.5,11.3,5.5c3.1,0,5-0.6,6.3-1.2c-0.4,0.5-1,1-1.7,1.4c-1.3,0.9-2.9,2.1-2.9,4.5
		c0,2.6,2.9,3.2,5.1,3.7c0.8,0.2,2.2,0.5,2.4,0.7c0,0,0,0.4-1,1.3c-4.7,4.7-7.2,4.7-11,4.7c-1.2,0-2.9-0.6-4.7-1.3
		c-1-0.4-2.1-0.8-3.2-1.1c1.2-1.4,2.3-3.6,2.5-7.1c0.3,0.1,0.5,0.1,0.8,0.2c1.1,0.4,1.5,1.2,1.5,2.2c0,0.6,0.4,1,1,1s1-0.4,1-1
		c0-1.9-1-3.4-2.8-4.1c-0.5-0.2-1.1-0.4-1.8-0.5c-0.2-0.2-0.4-0.3-0.7-0.3c-0.2,0-0.4,0.1-0.6,0.2c-2.8-0.1-5.8,0.8-7.1,2.1
		c-0.4,0.4-0.8,0.9-1.2,1.3c-1.4,1.6-2.5,3-5.9,3c-1.9,0-3.6,0.6-5.2,1.2C37.4,59.6,35.4,60.3,33,58z M40.9,60.5
		c1.1-0.4,2.3-0.8,3.5-1v3.9c-1.7-0.3-3.3-1.1-4.8-2.4C40,60.8,40.5,60.6,40.9,60.5z M45.7,68.1c0.2,0.3,0.4,0.5,0.7,0.7
		c1.9,1.7,4.6,1.9,6.2,1.9c0.1,0,0.2,0,0.3,0l0,5.3l-8.7,1.7c0.2-0.6,0.5-1.2,1.1-1.8c0.2-0.2,0.2-0.5,0-0.7s-0.5-0.2-0.7,0
		c-0.9,0.9-1.3,1.8-1.4,2.7l-0.2,0C43,75.2,43.6,71.5,45.7,68.1z M40.9,80.3c0,0.2,0,0.4,0,0.5c-0.1,0-0.3,0-0.4,0.1
		c-1.4,1-3.4,1.3-3.4,1.3c-0.3,0-0.5,0.3-0.4,0.6c0,0.2,0.2,0.4,0.5,0.4c0,0,0,0,0.1,0c0.1,0,2.2-0.3,3.7-1.4
		c0.1,0.1,0.1,0.1,0.2,0.1c0,0,0,0,0.1,0c0.2,0,0.5-0.2,0.5-0.4c0-0.1,0.1-0.6,0.1-1.3l0.1,0c0.1,0.9,0.2,1.5,0.2,1.6
		c0,0.2,0.3,0.4,0.5,0.4c0,0,0.1,0,0.1,0c0.3-0.1,0.4-0.3,0.4-0.6c0,0-0.1-0.6-0.2-1.6l0.2,0c0.1,0.5,0.2,0.9,0.2,0.9
		c0.1,0.2,0.3,0.3,0.5,0.3c0.1,0,0.1,0,0.2,0c0.3-0.1,0.4-0.4,0.3-0.6c0,0-0.1-0.3-0.2-0.8L53,78l0,4.4c0,0.6,0.5,1,1,1c0,0,0,0,0,0
		c0.6,0,1-0.5,1-1l0-4.7l20.2-3.8c-0.1,0.1-0.1,0.3,0,0.4c0.1,0.2,0.3,0.3,0.5,0.3c0.1,0,0.1,0,0.2,0c0.3-0.1,0.6-0.3,0.8-0.5
		c0.2-0.1,0.2-0.3,0.2-0.5l2.7-0.5c0,0-0.1,0-0.1,0.1c-0.3,0.3-0.5,0.6-0.8,0.9c-0.2,0.2-0.2,0.5,0,0.7c0.1,0.1,0.2,0.1,0.4,0.1
		s0.3,0,0.4-0.1c0.3-0.3,0.6-0.6,0.8-0.9c0.2-0.2,0.1-0.5-0.1-0.7c0,0-0.1-0.1-0.2-0.1l0.7-0.1c0,0,0,0,0,0v0.4
		c0,0.2,0.1,0.4,0.3,0.4l15.4,7.6c-0.2,3.3,0.4,5.7,0.4,5.8c0.1,0.2,0.3,0.4,0.5,0.4c0,0,0.1,0,0.1,0c0.3-0.1,0.4-0.3,0.4-0.6
		c0,0-0.5-2.1-0.4-5.1l1.1,0.5c-0.4,1.8-0.1,3.2-0.1,3.3c0.1,0.2,0.3,0.4,0.5,0.4c0,0,0.1,0,0.1,0c0.3-0.1,0.4-0.3,0.4-0.6
		c0,0-0.2-1.2,0-2.6l13.6,6.7c0.1,0,0.1,0.1,0.2,0.1c0,0,0.1,0,0.1,0l19.6-5.2l2.9,1.4c0.6,1.1,5.1,8.2,14.1,11.6
		c0.5,2.3,0.6,4.1,0.6,4.1c0,0.3,0.2,0.5,0.5,0.5c0,0,0,0,0,0c0.3,0,0.5-0.2,0.5-0.5c0-0.1,0-1.6-0.5-3.7c0.3,0.1,0.5,0.2,0.8,0.3
		c0,2.3,0.4,3.8,0.4,4c0.1,0.2,0.3,0.4,0.5,0.4c0,0,0.1,0,0.1,0c0.3-0.1,0.4-0.3,0.4-0.6c0,0-0.3-1.4-0.4-3.4
		c0.3,0.1,0.6,0.2,0.9,0.2c-0.1,1.1,0.1,1.9,0.1,1.9c0.1,0.2,0.3,0.4,0.5,0.4c0,0,0.1,0,0.1,0c0.3-0.1,0.4-0.3,0.4-0.6
		c0,0-0.1-0.6-0.1-1.5c2.9,0.6,5.7,1,8.4,1.5c8.2,1.3,14.8,2.4,18.1,6.2l-10.5,2.7c-7.9,0-11.7-1.5-15.2-3c1.8-0.7,5.5-2.3,7.8-4.4
		c0.2-0.2,0.2-0.5,0-0.7c-0.2-0.2-0.5-0.2-0.7,0c-2.7,2.4-7.5,4.2-8.5,4.6c-3.4-1.5-6.7-2.8-13.2-2.8c-13.2,0-20.3,3.2-27.8,6.6
		c-0.9,0.4-1.7,0.8-2.6,1.2c-7.8,3.4-20,1.9-21.5,1.6l-1.5-0.8c2.5-0.1,5.8-0.4,8.6-1.6c5.4-2.2,7.7-4.8,8-8.6
		c0.2-3.5-0.5-4.7-3.3-6c-0.9-0.4-1.8-0.6-2.6-0.8c-1.5-0.4-2.2-0.6-2.4-1.2c-0.2-0.4-0.1-0.7-0.1-1c0.1-1.2-0.2-2.1-2.3-3.7
		c-2.4-1.8-4.6-2.4-6.1-2.9c-0.5-0.1-0.9-0.2-1.1-0.3c-1.5-0.7-6.3-1.3-10.3,0c-5.3,1.6-10,6-12.5,9.6c-0.5,0.5-0.8,1.1-1.1,1.9
		c-0.1,0.2-0.2,0.5-0.3,0.7l-10.7-5.9c1.9-0.8,5.3-2.3,7.5-4.2c0.2-0.2,0.2-0.5,0.1-0.7c-0.2-0.2-0.5-0.2-0.7-0.1
		c-2.4,2.1-6.4,3.7-8,4.4l-10.6-5.8c1.9-0.8,5.2-2.3,7.3-4.2c0.2-0.2,0.2-0.5,0-0.7c-0.2-0.2-0.5-0.2-0.7,0c-2.3,2-6.1,3.6-7.8,4.3
		l-4.5-2.5L40.9,80.3z M32.4,83l6,3.3l-6.1,6.1C32.4,89.6,32.5,85.6,32.4,83z M32.2,93.9l7.1-7.1l5.8,3.2l-7.7,7.7l-2-1.1
		c0,0-0.1,0-0.1-0.1l-3.1-1.7C32.2,94.6,32.2,94.3,32.2,93.9z M104.4,139C104.4,139,104.4,139,104.4,139c0.1,0,0.1,0,0.2,0.1
		c0,0,0,0,0,0c0.1,0,0.2,0,0.3-0.1c0,0,0,0,0,0c0.1,0,5.5-4,8.7-3.4c1.6,0.3,15.1,2.5,20.4,1.7c0,0,0,0,0.1,0l0,0
		c0.2,0,0.5-0.1,0.7-0.1c0.1,0,0.1,0,0.2-0.1l77.4-19.6c0,0.5,0,0.9,0,1.3l-100.6,25.5L36,102.8c0-0.4,0.1-0.8,0.1-1.1L104.4,139z
		 M35.9,103.9l75.3,41.2v1.5l-75.5-41.3C35.7,104.9,35.8,104.4,35.9,103.9z M112.2,146.8v-1.6l100.1-25.4c0,0.6,0,1.2,0,1.6
		L112.2,146.8z M212.3,116.5l-78.4,19.8c-5.1,0.8-18.6-1.5-20.1-1.7c-3.2-0.5-8,2.6-9.2,3.4l-68.4-37.4c0-0.4,0-0.9,0-1.3l64.9,35.5
		c0,0,0,0,0.1,0c0,0,0.1,0,0.1,0c0.1,0,0.2,0.1,0.3,0.1c0,0,0,0,0,0c0,0,0,0,0,0c0,0,0,0,0,0c0.1,0,0.2,0,0.3-0.1c0,0,0.1,0,0.1,0
		c0.1,0,0.2-0.1,0.3-0.2c0,0,0,0,0,0c0,0,0,0,0,0c0,0,0,0,0,0c6.5-6.5,17.7-5.3,17.8-5.3c0,0,0.1,0,0.1,0c2.2,0,5.7,0.6,9.4,1.2
		c4.5,0.7,9.5,1.6,13.5,1.6c0,0,0,0,0,0s0,0,0,0c0,0,0,0,0,0c0,0,0,0,0,0c0.1,0,0.2,0,0.2,0l65.6-16.6c0,0,0.1,0,0.1,0
		c0.1,0,0.2,0,0.3-0.1l3-0.8C212.3,115.3,212.3,115.9,212.3,116.5z M212.1,112.7l3.7-3.7c0,1.1,0,2.1,0,2.7L212.1,112.7z"/>
	<path class="st0" d="M36.5,49c0,0-1,0.9-2.8,0.9c-1.7,0-2.3-0.9-2.4-1c-0.2-0.2-0.5-0.3-0.7-0.1c-0.2,0.2-0.3,0.5-0.1,0.7
		c0,0.1,1,1.4,3.2,1.4c2.2,0,3.4-1.1,3.5-1.1c0.2-0.2,0.2-0.5,0-0.7S36.7,48.8,36.5,49z"/>
	<path class="st0" d="M43,41c0.4,0.1,0.7,0.1,1,0.1c0.9,0,1.5-0.3,1.5-0.3c0.2-0.1,0.3-0.4,0.2-0.7c-0.1-0.2-0.4-0.3-0.7-0.2
		c0,0-0.8,0.4-1.8,0.1c-1-0.2-1.2-0.8-1.2-0.9c-0.1-0.3-0.4-0.4-0.6-0.3c-0.3,0.1-0.4,0.4-0.3,0.6C41.1,39.6,41.5,40.7,43,41z"/>
	<path class="st0" d="M160.6,54.3c0,0-1,0.9-2.8,0.9c-1.7,0-2.3-0.9-2.4-1c-0.2-0.2-0.5-0.3-0.7-0.1c-0.2,0.2-0.3,0.5-0.1,0.7
		c0,0.1,1,1.4,3.2,1.4c2.2,0,3.4-1.1,3.5-1.1c0.2-0.2,0.2-0.5,0-0.7C161.1,54.2,160.8,54.2,160.6,54.3z"/>
	<path class="st0" d="M169.2,45.3c0,0-0.8,0.4-1.8,0.1c-1-0.2-1.2-0.9-1.2-0.9c-0.1-0.3-0.4-0.4-0.6-0.3c-0.3,0.1-0.4,0.4-0.3,0.6
		c0,0,0.4,1.1,1.9,1.5c0.4,0.1,0.7,0.1,1,0.1c0.9,0,1.5-0.3,1.5-0.3c0.2-0.1,0.3-0.4,0.2-0.7C169.7,45.3,169.4,45.2,169.2,45.3z"/>
	<path class="st0" d="M95,86.4c0,0.3,0.2,0.5,0.5,0.5c0,0,0,0,0,0c0.3,0,0.5-0.2,0.5-0.5c0-0.1-0.1-2.7-1-5.6
		c-0.1-0.3-0.4-0.4-0.6-0.3c-0.3,0.1-0.4,0.4-0.3,0.6C94.9,83.9,95,86.4,95,86.4z"/>
</g>
</svg>
