<?xml version="1.0" encoding="utf-8"?>
<!-- Generator: Adobe Illustrator 21.0.2, SVG Export Plug-In . SVG Version: 6.00 Build 0)  -->
<svg version="1.1" id="Слой_1" xmlns="http://www.w3.org/2000/svg" xmlns:xlink="http://www.w3.org/1999/xlink" x="0px" y="0px"
	 viewBox="0 0 238 152.9" style="enable-background:new 0 0 238 152.9;" xml:space="preserve">
<style type="text/css">
	.st0{fill:#161616;}
</style>
<g>
	<path class="st0" d="M97.9,119.9c-0.8,0-1.5-0.7-1.5-1.5v-17.9c0-0.8,0.7-1.5,1.5-1.5s1.5,0.7,1.5,1.5v17.9
		C99.4,119.2,98.7,119.9,97.9,119.9z"/>
	<path class="st0" d="M91.9,116.7c-0.8,0-1.5-0.7-1.5-1.5V97.5c0-0.8,0.7-1.5,1.5-1.5s1.5,0.7,1.5,1.5v17.7
		C93.4,116,92.7,116.7,91.9,116.7z"/>
	<path class="st0" d="M85.9,113.4c-0.8,0-1.5-0.7-1.5-1.5V94.5c0-0.8,0.7-1.5,1.5-1.5s1.5,0.7,1.5,1.5v17.5
		C87.4,112.8,86.7,113.4,85.9,113.4z"/>
	<path class="st0" d="M79.9,110.2c-0.8,0-1.5-0.7-1.5-1.5V91.5c0-0.8,0.7-1.5,1.5-1.5s1.5,0.7,1.5,1.5v17.2
		C81.4,109.6,80.7,110.2,79.9,110.2z"/>
	<path class="st0" d="M73.9,107c-0.8,0-1.5-0.7-1.5-1.5v-17c0-0.8,0.7-1.5,1.5-1.5s1.5,0.7,1.5,1.5v17C75.4,106.3,74.7,107,73.9,107
		z"/>
	<path class="st0" d="M67.9,103.8c-0.8,0-1.5-0.7-1.5-1.5V85.5c0-0.8,0.7-1.5,1.5-1.5s1.5,0.7,1.5,1.5v16.8
		C69.4,103.1,68.7,103.8,67.9,103.8z"/>
	<path class="st0" d="M61.9,100.6c-0.8,0-1.5-0.7-1.5-1.5V82.5c0-0.8,0.7-1.5,1.5-1.5s1.5,0.7,1.5,1.5v16.6
		C63.4,99.9,62.7,100.6,61.9,100.6z"/>
	<path class="st0" d="M55.9,97.4c-0.8,0-1.5-0.7-1.5-1.5V79.5c0-0.8,0.7-1.5,1.5-1.5s1.5,0.7,1.5,1.5v16.4
		C57.4,96.7,56.7,97.4,55.9,97.4z"/>
	<path class="st0" d="M49.9,94.1c-0.8,0-1.5-0.7-1.5-1.5V76.5c0-0.8,0.7-1.5,1.5-1.5s1.5,0.7,1.5,1.5v16.2
		C51.4,93.5,50.7,94.1,49.9,94.1z"/>
	<path class="st0" d="M43.9,90.9c-0.8,0-1.5-0.7-1.5-1.5v-16c0-0.8,0.7-1.5,1.5-1.5s1.5,0.7,1.5,1.5v16
		C45.4,90.3,44.7,90.9,43.9,90.9z"/>
	<path class="st0" d="M37.9,87.7c-0.8,0-1.5-0.7-1.5-1.5V70.5c0-0.8,0.7-1.5,1.5-1.5s1.5,0.7,1.5,1.5v15.7
		C39.4,87,38.7,87.7,37.9,87.7z"/>
	<path class="st0" d="M31.9,84.5c-0.8,0-1.5-0.7-1.5-1.5V67.5c0-0.8,0.7-1.5,1.5-1.5c0.8,0,1.5,0.7,1.5,1.5V83
		C33.4,83.8,32.7,84.5,31.9,84.5z"/>
</g>
<g>
	<path class="st0" d="M133.8,76.4c0,0,0.1,0,0.1,0l9.7-2c0.2,0,0.4-0.3,0.4-0.5V60.7c0-0.2-0.1-0.3-0.2-0.4
		c-0.1-0.1-0.3-0.1-0.4-0.1l-9.7,2.2c-0.2,0.1-0.4,0.3-0.4,0.5v13.1c0,0.2,0.1,0.3,0.2,0.4C133.6,76.4,133.7,76.4,133.8,76.4z
		 M143,73.5l-3.8,0.8V62.2l3.8-0.9V73.5z M134.3,63.3l3.8-0.9v12.1l-3.8,0.8V63.3z"/>
	<path class="st0" d="M145,57.7l-13.3,3.1c-0.2,0.1-0.4,0.3-0.4,0.5v16.9c0,0.2,0.1,0.3,0.2,0.4c0.1,0.1,0.2,0.1,0.3,0.1
		c0,0,0.1,0,0.1,0l13.3-2.9c0.2,0,0.4-0.3,0.4-0.5V58.2c0-0.2-0.1-0.3-0.2-0.4C145.3,57.7,145.2,57.7,145,57.7z M144.6,74.9
		l-12.3,2.7V61.7l12.3-2.9V74.9z"/>
	<path class="st0" d="M112,62.4l-4.1-1.9c0,0,0,0,0,0l-4.4-2c-0.2-0.1-0.3-0.1-0.5,0c-0.1,0.1-0.2,0.2-0.2,0.4v13.2
		c0,0.2,0.1,0.4,0.3,0.5l8.4,3.7c0.1,0,0.1,0,0.2,0c0.1,0,0.2,0,0.3-0.1c0.1-0.1,0.2-0.2,0.2-0.4V62.9
		C112.3,62.7,112.2,62.5,112,62.4z M111.3,68.9l-3.1-1.5v-5.6l3.1,1.4V68.9z M103.8,59.8l3.4,1.6v5.9c0,0-0.1,0.1-0.1,0.1
		c-0.1,0.2,0,0.4,0.1,0.6v5.5l-3.4-1.5V59.8z M108.2,73.8v-5.4l3.1,1.5v5.2L108.2,73.8z"/>
	<path class="st0" d="M101.7,74l11.6,5.6c0.1,0,0.1,0,0.2,0c0.1,0,0.2,0,0.3-0.1c0.1-0.1,0.2-0.3,0.2-0.4V61.3
		c0-0.2-0.1-0.4-0.3-0.5l-11.6-5.3c-0.2-0.1-0.3-0.1-0.5,0c-0.1,0.1-0.2,0.3-0.2,0.4v17.6C101.4,73.7,101.5,73.9,101.7,74z
		 M102.4,56.8l10.6,4.9v16.7l-10.6-5.1V56.8z"/>
	<path class="st0" d="M97.1,56.2l-8.4-3.9c-0.2-0.1-0.3-0.1-0.5,0c-0.1,0.1-0.2,0.2-0.2,0.4V66c0,0.2,0.1,0.4,0.3,0.5l8.4,3.7
		c0.1,0,0.1,0,0.2,0c0.1,0,0.2,0,0.3-0.1c0.1-0.1,0.2-0.2,0.2-0.4V56.6C97.4,56.4,97.3,56.2,97.1,56.2z M96.4,62.5l-3.2-1.6v-5.4
		l3.2,1.5V62.5z M89,53.5l3.2,1.5V67L89,65.6V53.5z M93.2,67.5V62l3.2,1.6v5.3L93.2,67.5z"/>
	<path class="st0" d="M86.9,67.7l11.6,5.6c0.1,0,0.1,0,0.2,0c0.1,0,0.2,0,0.3-0.1c0.1-0.1,0.2-0.3,0.2-0.4V55c0-0.2-0.1-0.4-0.3-0.5
		l-11.6-5.3c-0.2-0.1-0.3-0.1-0.5,0c-0.1,0.1-0.2,0.3-0.2,0.4v17.6C86.6,67.5,86.7,67.6,86.9,67.7z M87.6,50.5l10.6,4.8V72L87.6,67
		V50.5z"/>
	<path class="st0" d="M95.4,44.6l8.4,3.7c0.1,0,0.1,0,0.2,0c0.1,0,0.2,0,0.3-0.1c0.1-0.1,0.2-0.2,0.2-0.4V34.8
		c0-0.2-0.1-0.4-0.3-0.5l-4.2-1.9c0,0,0,0,0,0l-4.2-1.9c-0.2-0.1-0.3-0.1-0.5,0c-0.1,0.1-0.2,0.2-0.2,0.4v13.2
		C95.1,44.3,95.2,44.5,95.4,44.6z M103.5,47.1l-3.2-1.4v-12l3.2,1.5V47.1z M96.1,31.7l3.2,1.5v12.1l-3.2-1.4V31.7z"/>
	<path class="st0" d="M216.2,100.5C216.2,100.5,216.2,100.5,216.2,100.5c0-0.2,0-0.2-0.1-0.3c0,0,0-0.1,0-0.1c0-0.1-0.1-0.1-0.1-0.2
		c0,0,0-0.1-0.1-0.1c-0.1-0.1-0.2-0.2-0.3-0.2l0,0c0,0,0,0,0,0L195,89.3l-1.8-10.9c-0.2-1.4-1.5-2.5-2.9-2.3l-2.5,0.3
		c-1.5,0.2-2.7,1.6-2.7,3.2l0,3.6l-0.9,0.8l-2.8-1.4v-2.9c0-0.2-0.2-0.4-0.4-0.5l-1.3-0.3V46.5l4.9-0.8c0.2,0,0.4-0.1,0.6-0.3l1.9-2
		c0.1-0.1,0.1-0.2,0.2-0.3c0.1-0.1,0.2-0.2,0.3-0.4c0.1-0.3,0.1-0.7-0.1-1l-0.7-1l2.1-2.1c0.2-0.2,0.2-0.5,0-0.7s-0.5-0.2-0.7,0
		l-1.9,1.9l-25-35c-0.2-0.3-0.6-0.4-0.9-0.4l-13.1,1.2V4.8c0-0.4-0.3-0.8-0.7-0.9l-7.5-2.8C139,1,138.9,1,138.8,1h-7.5
		c-0.6,0-1,0.4-1,1v5.3l-22,2c0,0-0.1,0-0.1,0l-10.9,1c0,0,0,0-0.1,0c-0.1,0-0.2,0-0.3,0.1c0,0-0.1,0-0.1,0
		c-0.1,0.1-0.2,0.1-0.2,0.2c0,0,0,0-0.1,0.1c0,0,0,0-0.1,0.1L78.6,39.6c-0.2,0.4-0.2,0.9,0.1,1.2L81,43c0.2,0.2,0.5,0.3,0.8,0.3
		c0.3,0,0.6-0.2,0.7-0.4l0.4-0.6v9.6l-1.4,1.4c-0.2,0.2-0.2,0.5,0,0.7c0.1,0.1,0.2,0.1,0.4,0.1s0.3,0,0.4-0.1l0.7-0.7v9
		c-0.1,0-0.2,0.1-0.3,0.1l-3.9,3.9c-0.2,0.2-0.2,0.5,0,0.7c0.1,0.1,0.2,0.1,0.4,0.1s0.3,0,0.4-0.1l3.5-3.5v6.8l-18,3.4l1.5-1.5
		c0.2-0.2,0.2-0.5,0-0.7s-0.5-0.2-0.7,0l-1.8,1.8c-0.2,0.2-0.2,0.4-0.1,0.6l-18.4,3.5l-14.9-7.7c-0.5-0.3-1.1-0.1-1.3,0.4
		c-0.3,0.5-0.1,1.1,0.4,1.3l12.7,6.5l-10,1.9l-1.8-0.9c-0.5-0.3-1.1-0.1-1.3,0.4c-0.2,0.4-0.1,0.8,0.1,1.1l-6.6,1.3c0,0-0.1,0-0.1,0
		c0,0,0,0-0.1,0c0,0,0,0-0.1,0c-0.1,0-0.2,0.1-0.2,0.1c0,0-0.1,0-0.1,0.1c-0.1,0.1-0.2,0.2-0.2,0.3c0,0,0,0,0,0
		c0,0.1-0.1,0.2-0.1,0.2c0,0,0,0,0,0.1c0,0,0,0.1,0,0.1c0,0.1,0,0.2,0,0.3c0,0,0,0,0,0.1c0.5,1.5,0.2,9.6-0.1,14.4
		c0,0.4,0.2,0.8,0.5,0.9l3.5,1.9c0.1,0.5,0.1,1.2,0.1,2c0,0,0,0,0,0c-0.1,0.2-0.1,0.3,0,0.5c-0.1,1.8-0.3,3.9-0.6,5.3
		c-0.1,0.4,0.1,0.8,0.5,1l79.9,43.7c0.1,0.1,0.3,0.1,0.5,0.1c0.1,0,0.2,0,0.2,0l105.3-26.7c0.5-0.1,0.8-0.5,0.8-1c0,0-0.2-4.5,0-8.4
		l2.9-0.7c0.5-0.1,0.8-0.5,0.8-1C216.2,115.1,216,104.8,216.2,100.5z M200.1,118l14-14c0,2,0,4.2,0,6.1l-5.8,5.8L200.1,118z
		 M210.5,121.8L106.9,148l0-1.4l103.6-26.2C210.5,120.9,210.5,121.4,210.5,121.8z M27.9,104l78,42.7l0,1.3l-78.1-42.7
		C27.9,104.8,27.9,104.4,27.9,104z M44.3,95.7l-8.1,8.1l-6-3.3l8.1-8.1L44.3,95.7z M45.2,96.2l6,3.3l-8.1,8.1l-6-3.3L45.2,96.2z
		 M52.1,100l6.7,3.7l-8.1,8.1L44,108L52.1,100z M59.7,104.1l6.7,3.7l-8.1,8.1l-6.7-3.7L59.7,104.1z M67.3,108.3l6,3.3l-8.1,8.1
		l-6-3.3L67.3,108.3z M74.3,112.1l6,3.3l-8.1,8.1l-6-3.3L74.3,112.1z M81.2,115.9l6,3.3l-8.1,8.1l-6-3.3L81.2,115.9z M88.1,119.7
		l6,3.3l-8.1,8.1l-6-3.3L88.1,119.7z M95,123.5l6,3.3l-8.1,8.1l-6-3.3L95,123.5z M102,127.2l3.3,1.8v4.2l-5.4,5.4l-6-3.3L102,127.2z
		 M106.3,141.8v-4.9l10.4-10.4l8.1-2.1l-17,17L106.3,141.8z M106.3,135.5v-6.4l8.5-2.2L106.3,135.5z M105.3,134.7v1.8
		c-0.1,0.2-0.1,0.4,0,0.6v4.4l-4.4-2.4L105.3,134.7z M126.7,123.9l8.2-2.1l-17,17l-8.2,2.1L126.7,123.9z M133.4,112.5
		c-2-1.5-1.6-2.4-0.5-4.9c0.4-0.9,0.9-2,1.4-3.3c0.9-2.4,4.5-3,8-3.6c3-0.5,5.9-0.9,7.3-2.6c0.7-0.9,0.6-1.5,0.5-2
		c-0.6-1.3-3.4-1.9-5.7-2.1l15.5-4.1l3.2,1.6c0.1,0,0.1,0.1,0.2,0.1c0,0,0.1,0,0.1,0l12-3h0c1.6-0.4,2.6-0.4,3.1,0.1
		c0.6,0.6,0.1,2.3-0.3,3.8c-0.2,0.7-0.4,1.5-0.5,2.1c-0.1,0.3,0,0.6,0,0.9c-0.2-0.2-0.5-0.2-0.7,0l-3.9,3.9c-0.2,0.2-0.2,0.5,0,0.7
		c0.1,0.1,0.2,0.1,0.4,0.1s0.3,0,0.4-0.1l3.9-3.9c0.1-0.1,0.1-0.2,0.1-0.3c0.1,0.1,0.1,0.2,0.2,0.3c0.9,1.1,3.2,1.3,7.2,1.3l0,3
		c-0.4-0.1-0.7-0.2-1-0.3c-0.3-0.1-0.4-0.3-0.4-0.4c0-0.1-0.1-0.2-0.2-0.2s-0.2,0.1-0.2,0.2c0,0.3,0.2,0.6,0.7,0.8
		c0.6,0.3,1.7,0.5,2.7,0.5c0.9,0,1.8-0.2,2.3-0.5c0.1-0.1,0.1-0.2,0-0.4c-0.1-0.1-0.2-0.1-0.4,0c-0.2,0.2-0.5,0.3-0.9,0.3l0.3-3.1
		c0.4,0,0.9,0,1.4,0l0.7,5l0.4,0c0.1,0,0.2,0,0.4,0c0.5,0,1.1-0.1,1.4-0.4c0.2-0.2,0.2-0.4,0.2-0.6c0-1.3-0.1-2.7-0.1-4.2
		c1.4,0,2.8,0,4.3,0c0,0,0.1,0,0.1,0c7.6,0,10.8,1.8,12.1,3.2c-0.5,0-1.2,0-2,0.2c-3.4,0.7-27.3,6.6-34.5,8.3
		c-7.6,1.9-20.8,5.8-26.1,7.4c-4.7,1.4-8,2.4-10.5,3.2l-1.3,0.3c0.4-0.6,0.8-1.3,0.9-2.1C135.9,115.8,135.1,113.7,133.4,112.5z
		 M176.2,82.4l2.3,1.1l-15.2,3.8l-2.3-1.1L176.2,82.4z M163.7,90.5v-2.2l15.7-3.9v2.2L163.7,90.5z M162.7,88.2v2.1l-2.7-1.3v-2.1
		L162.7,88.2z M188.6,91.3l0.7,5.1c-0.4,0-0.8,0-1.1,0L188.6,91.3z M192.2,87.6l0.1,0.4l-0.1,0C192.2,87.8,192.2,87.7,192.2,87.6z
		 M158.1,113.9c5.5-1.6,10.8-3.1,14.6-4c5.7-1.4,22-5.4,30.1-7.3L158.1,113.9z M136.8,121.4l8.1-2.1l-17,17l-8.1,2.1L136.8,121.4z
		 M146.8,118.8l8.2-2.1l-17,17l-8.2,2.1L146.8,118.8z M156.9,116.3l8.1-2.1l-17,17l-8.1,2.1L156.9,116.3z M166.9,113.7l8.2-2.1
		l-17,17l-8.2,2.1L166.9,113.7z M177,111.2l8.1-2.1l-17,17l-8.1,2.1L177,111.2z M187,108.6l8.2-2.1l-17,17l-8.2,2.1L187,108.6z
		 M197,106.1l8.1-2.1l-17,17l-8.1,2.1L197,106.1z M207.1,103.6l7-1.8c0,0.3,0,0.6,0,0.8l-15.9,15.9l-8.2,2.1L207.1,103.6z
		 M210.5,100.6c-1-1.5-4.1-4.4-13.6-4.4c0,0-0.1,0-0.1,0c-1.6,0-3,0-4.4,0c-0.1-2.3-0.1-4.5-0.2-6.1l20.1,10L210.5,100.6z
		 M180.7,87.1l0.8,0.7c0.3,0.2,0.7,0.4,1.1,0.4c0.3,0,0.7-0.1,1-0.3l1.6-1.2l0.1,0l0,9.7c-3.4,0-5.8-0.2-6.4-0.9
		c-0.1-0.1-0.2-0.3-0.2-0.7c0.1-0.6,0.3-1.3,0.5-2c0.5-1.9,1.1-3.8,0-4.8c-0.1-0.1-0.2-0.2-0.3-0.2l1.1-0.3c0.2-0.1,0.4-0.3,0.4-0.5
		v-2.3l0.5-0.1l1.8,0.9L180.7,87.1z M180.6,82.7c-0.2,0.1-0.3,0.2-0.4,0.4c0,0.1,0,0.1-0.1,0.2c0,0,0,0,0,0l-3.6-1.8c0,0,0,0,0,0
		l0,0c0,0,0,0,0,0c0,0-0.1,0-0.1,0c0,0-0.1,0-0.1,0c0,0-0.1,0-0.1,0l-16.7,4.2c0,0,0,0,0,0c0,0,0,0-0.1,0c0,0-0.1,0-0.1,0.1
		c0,0,0,0,0,0c0,0-0.1,0.1-0.1,0.1c0,0,0,0,0,0c0,0,0,0,0,0c0,0,0,0.1,0,0.1c0,0,0,0,0,0.1c0,0,0,0,0,0v3.1l-40.7,10.8L81.8,82.1
		v-3.3l1.4-0.5c0.1,0,0.1,0.1,0.2,0.1L117.9,95c0,0,0,0,0,0c0.1,0.1,0.3,0.1,0.4,0.1c0,0,0,0,0,0c0,0,0,0,0,0c0,0,0,0,0,0
		c0.1,0,0.2,0,0.2,0l60.6-14.8c0.2,0,0.4-0.2,0.5-0.3l0.9,0.2V82.7z M101.1,11.9l23.1,40.5l-2.7,0.5L99,12.1L101.1,11.9z
		 M108.6,11.2l22.8,39.9l-6.1,1.1l-23.1-40.4L108.6,11.2z M117.4,10.4l22.9,39.1l-7.9,1.4l-22.8-39.8L117.4,10.4z M125.9,9.7
		L150,47.8l-8.6,1.5l-22.9-39L125.9,9.7z M155,7l4.2,6.4l-1.2,1.2c-0.2,0.2-0.2,0.5,0,0.7c0.1,0.1,0.2,0.1,0.4,0.1s0.3,0,0.4-0.1
		l1-1l19,28.5l-4.3,0.8c-0.1,0-0.2,0-0.3,0l-3.8,0.7l-2.3-3.7l0.5-0.5c0.2-0.2,0.2-0.5,0-0.7s-0.5-0.2-0.7,0l-0.3,0.3l-5.1-8.1
		c0.1-0.2,0.1-0.4-0.1-0.6c-0.1-0.1-0.2-0.1-0.4-0.1L147.4,7.7L155,7z M160,46.1l-12.8-21.6c0.1-0.1,0.1-0.3,0.1-0.5V9.3l13.9,22.1
		l-3.5,3.5c-0.2,0.2-0.2,0.5,0,0.7c0.1,0.1,0.2,0.1,0.4,0.1s0.3,0,0.4-0.1l3.3-3.3l5.1,8l-2.9,2.9c-0.2,0.2-0.2,0.5,0,0.7
		c0.1,0.1,0.2,0.1,0.4,0.1s0.3,0,0.4-0.1l2.7-2.7l2,3.2L160,46.1z M145.3,5.5V23l-6,0.7v-18l5.7-0.3L145.3,5.5z M138.6,3l4,1.5
		l-3.7,0.2l-4-1.7H138.6z M138.3,5.5V23l-6-8.2V3h0.1L138.3,5.5z M137.5,25.4c0.2,0.3,0.5,0.4,0.8,0.4c0,0,0.1,0,0.1,0l7.8-0.9
		l12.6,21.3l-7.8,1.4l-17.5-27.7L137.5,25.4z M171.6,80v-6.6l0.5-0.5v7L171.6,80z M170.6,73l-2.7,2.7c-0.2,0.2-0.2,0.5,0,0.7
		c0.1,0.1,0.2,0.1,0.4,0.1s0.3,0,0.4-0.1l2-2v5.8l-9.9,2.4V56.6l9.9-2.1V73z M172.1,71.7c-0.1,0-0.2,0.1-0.3,0.1l-0.2,0.2V53.9
		c0-0.2-0.1-0.3-0.2-0.4c-0.1-0.1-0.3-0.1-0.4-0.1l-10.9,2.3c-0.2,0-0.4,0.3-0.4,0.5v26.7l-1.8,0.4V53.9l14.1-3V71.7z M177.9,54.3
		l-0.9,0.9c-0.2,0.2-0.2,0.5,0,0.7c0.1,0.1,0.2,0.1,0.4,0.1s0.3,0,0.4-0.1l0.2-0.2v22.8l-4.9,1.2V50.3c0-0.2-0.1-0.3-0.2-0.4
		c-0.1-0.1-0.3-0.1-0.4-0.1L157.3,53c-0.2,0-0.4,0.3-0.4,0.5v30.1l-37.6,9.2V57.1l23.2-4.1c0.1,0.1,0.2,0.1,0.3,0.1
		c0.1,0,0.3,0,0.4-0.1l0.1-0.1l26.9-4.7c0,0,0,0,0,0c0.1,0.1,0.2,0.1,0.4,0.1s0.3,0,0.4-0.1l0.2-0.2l6.9-1.2V54.3z M172.7,24.3
		c-0.1,0-0.2,0.1-0.3,0.1l-1.8,1.8c-0.2,0.2-0.2,0.5,0,0.7c0.1,0.1,0.2,0.1,0.4,0.1s0.3,0,0.4-0.1l1.8-1.8c0,0,0.1-0.1,0.1-0.1
		l11.7,16.3l-0.4,0.4l-4.6,0.8l-4.6-6.9c0,0,0,0,0.1,0c0.1,0,0.3,0,0.4-0.1l1.8-1.8c0.2-0.2,0.2-0.5,0-0.7s-0.5-0.2-0.7,0l-1.8,1.8
		c-0.1,0.1-0.1,0.1-0.1,0.2l-14.4-21.5l0,0c0.2-0.2,0.2-0.5,0-0.7c-0.2-0.2-0.4-0.2-0.6-0.1l-3.8-5.8l3.8-0.3L172.7,24.3z
		 M130.3,14.8L127,9.6l3.3-0.3V14.8z M81.5,40.7L80.7,40l16.6-26.7l22.4,40.6l-0.8,0.8l-20.5-37C98.3,17.2,98,17,97.6,17
		c0,0,0,0,0,0c-0.3,0-0.7,0.2-0.8,0.5L81.5,40.7z M105.3,34v16.2l-10.6-5.1V28.7l10.2,4.7L105.3,34z M97.5,20l6.6,11.9l-9.7-4.4
		c-0.2-0.1-0.3-0.1-0.5,0c-0.1,0.1-0.2,0.3-0.2,0.4v17.6c0,0.2,0.1,0.4,0.3,0.5l11.6,5.6c0.1,0,0.1,0,0.2,0c0.1,0,0.2,0,0.3-0.1
		c0.1-0.1,0.2-0.3,0.2-0.4V35.9l11,19.9v36.7L84.9,76.8V39.2L97.5,20z M31.9,82.1l71,37.2c0.1,0.1,0.3,0.1,0.5,0.1
		c0.4,0,0.7-0.2,0.9-0.5c0.3-0.5,0.1-1.1-0.4-1.3l-68.7-36l10-1.9l57.8,29.8c0.1,0.1,0.3,0.1,0.5,0.1c0.4,0,0.7-0.2,0.9-0.5
		c0.3-0.5,0.1-1.1-0.4-1.3L48.3,79l11.6-2.2c0,0-0.1,0.1-0.1,0.1c-0.2,0.1-0.4,0.4-0.2,0.7c0.1,0.2,0.3,0.3,0.5,0.3
		c0.1,0,0.1,0,0.2,0c0.3-0.1,0.6-0.3,0.8-0.5c0.2-0.2,0.3-0.5,0.1-0.7c0,0,0,0,0,0l21.8-4.2v4.9l-1.8,0.7c-0.2,0.1-0.3,0.3-0.3,0.5
		v4c0,0.2,0.1,0.4,0.3,0.4l37,18.1c0.1,0,0.1,0.1,0.2,0.1c0,0,0.1,0,0.1,0l22.7-6c3,0,7.4,0.5,8,1.7c0.1,0.2,0,0.5-0.3,0.9
		c-1.1,1.4-3.9,1.8-6.7,2.2c-3.8,0.6-7.7,1.2-8.8,4.2c-0.5,1.3-0.9,2.3-1.4,3.2c-1.2,2.5-1.9,4.1,0.8,6.1c1.4,1,2,2.7,1.7,4.3
		c-0.2,1.1-0.9,2-1.8,2.7l-26.8,6.8L25.7,83.3L31.9,82.1z M24.1,84.6l6.3,3.5L24,94.5C24.1,91.5,24.3,87.3,24.1,84.6z M23.9,96
		l7.4-7.4l6,3.3l-8.1,8.1l-2.1-1.1c0,0-0.1,0-0.1-0.1L23.9,97C23.9,96.7,23.9,96.4,23.9,96z M105.3,143.8c0.1,0.1,0.3,0.1,0.5,0.1
		c0.1,0,0.2,0,0.2,0l0,1.6l-78-42.7c0-0.5,0-0.9,0-1.4L105.3,143.8z M27.7,106.3l78.2,42.8l0,1.6l-78.3-42.8
		C27.6,107.4,27.6,106.9,27.7,106.3z M106.8,150.8l0-1.8l103.7-26.3c0,0.7,0,1.3,0,1.7L106.8,150.8z M210.5,119.4L107,145.6l0.1-1.9
		l99.9-25.3c0,0,0.1,0,0.1,0c0.1,0,0.3,0,0.4-0.1l3.1-0.8C210.5,118.1,210.5,118.7,210.5,119.4z M210.2,115.5l3.9-3.9
		c0,1.2,0,2.3,0,2.9L210.2,115.5z"/>
	<path class="st0" d="M161.9,70.6c0.5,0,1-0.4,1-1c0-0.5-0.4-1-1-1c-0.5,0-1,0.4-1,1C160.9,70.2,161.3,70.6,161.9,70.6z M162.4,69.6
		l-0.5,0c0,0,0,0,0,0H162.4z"/>
	<path class="st0" d="M66.4,82.9c-0.9,0.6-1.5,1-1.5,1c-0.2,0.1-0.3,0.4-0.2,0.7c0.1,0.2,0.3,0.3,0.4,0.3c0.1,0,0.2,0,0.2-0.1
		c0,0,0.7-0.4,1.6-1.1c0.2-0.2,0.3-0.5,0.1-0.7C66.9,82.7,66.6,82.7,66.4,82.9z"/>
	<path class="st0" d="M69.8,80.4c-0.3,0.3-0.5,0.6-0.8,0.9c-0.2,0.2-0.2,0.5,0,0.7c0.1,0.1,0.2,0.1,0.4,0.1s0.3,0,0.4-0.1
		c0.3-0.3,0.6-0.6,0.9-1c0.2-0.2,0.1-0.5-0.1-0.7C70.2,80.1,69.9,80.2,69.8,80.4z"/>
	<path class="st0" d="M69.4,83.1c-0.5,0.4-0.8,0.6-0.8,0.6c-0.2,0.1-0.3,0.4-0.2,0.7c0.1,0.2,0.3,0.2,0.4,0.2c0.1,0,0.2,0,0.2-0.1
		c0,0,0.4-0.2,0.9-0.6c0.2-0.2,0.3-0.5,0.1-0.7C70,83,69.7,82.9,69.4,83.1z"/>
	<path class="st0" d="M65.8,81.9c0.1,0,0.1,0,0.2,0c0.3-0.1,0.6-0.3,0.8-0.5c0.2-0.2,0.3-0.5,0.1-0.7c-0.2-0.2-0.5-0.3-0.7-0.1
		c-0.2,0.1-0.4,0.3-0.6,0.4c-0.2,0.1-0.4,0.4-0.2,0.7C65.4,81.8,65.6,81.9,65.8,81.9z"/>
	<path class="st0" d="M60.6,78.8c-0.9,0.6-1.5,1-1.5,1c-0.2,0.1-0.3,0.4-0.2,0.7c0.1,0.2,0.3,0.3,0.4,0.3c0.1,0,0.2,0,0.2-0.1
		c0,0,0.7-0.4,1.6-1.1c0.2-0.2,0.3-0.5,0.1-0.7C61.1,78.7,60.8,78.6,60.6,78.8z"/>
	<path class="st0" d="M63.5,78c0.1,0,0.3,0,0.4-0.1c0.3-0.3,0.6-0.6,0.9-1c0.2-0.2,0.1-0.5-0.1-0.7c-0.2-0.2-0.5-0.1-0.7,0.1
		c-0.3,0.3-0.5,0.6-0.8,0.9c-0.2,0.2-0.2,0.5,0,0.7C63.2,78,63.4,78,63.5,78z"/>
	<path class="st0" d="M63.6,79c-0.5,0.4-0.8,0.6-0.8,0.6c-0.2,0.1-0.3,0.4-0.2,0.7c0.1,0.2,0.3,0.2,0.4,0.2c0.1,0,0.2,0,0.2-0.1
		c0,0,0.4-0.2,0.9-0.6c0.2-0.2,0.3-0.5,0.1-0.7C64.2,78.9,63.9,78.8,63.6,79z"/>
	<path class="st0" d="M73.1,77.3c-0.2-0.2-0.5-0.3-0.7-0.1c-0.9,0.6-1.5,1-1.5,1c-0.2,0.1-0.3,0.4-0.2,0.7c0.1,0.2,0.3,0.3,0.4,0.3
		c0.1,0,0.2,0,0.2-0.1c0,0,0.7-0.4,1.6-1.1C73.2,77.8,73.3,77.5,73.1,77.3z"/>
	<path class="st0" d="M75.3,76.5c0.1,0,0.3,0,0.4-0.1c0.3-0.3,0.6-0.6,0.9-1c0.2-0.2,0.1-0.5-0.1-0.7c-0.2-0.2-0.5-0.1-0.7,0.1
		c-0.3,0.3-0.5,0.6-0.8,0.9c-0.2,0.2-0.2,0.5,0,0.7C75.1,76.4,75.2,76.5,75.3,76.5z"/>
	<path class="st0" d="M76.1,77.5c-0.2-0.2-0.5-0.3-0.7-0.1c-0.5,0.4-0.8,0.6-0.8,0.6c-0.2,0.1-0.3,0.4-0.2,0.7
		c0.1,0.2,0.3,0.2,0.4,0.2c0.1,0,0.2,0,0.2-0.1c0,0,0.4-0.2,0.9-0.6C76.3,78,76.3,77.7,76.1,77.5z"/>
	<path class="st0" d="M71.8,76.2c0.1,0,0.1,0,0.2,0c0.3-0.1,0.6-0.3,0.8-0.5c0.2-0.2,0.3-0.5,0.1-0.7c-0.2-0.2-0.5-0.3-0.7-0.1
		c-0.2,0.1-0.4,0.3-0.6,0.4c-0.2,0.1-0.4,0.4-0.2,0.7C71.4,76.1,71.6,76.2,71.8,76.2z"/>
	<path class="st0" d="M73.6,83.3c-0.9,0.6-1.5,1-1.5,1c-0.2,0.1-0.3,0.4-0.2,0.7c0.1,0.2,0.3,0.3,0.4,0.3c0.1,0,0.2,0,0.2-0.1
		c0,0,0.7-0.4,1.6-1.1c0.2-0.2,0.3-0.5,0.1-0.7C74.2,83.2,73.8,83.2,73.6,83.3z"/>
	<path class="st0" d="M76.2,82.5c0.1,0.1,0.2,0.1,0.4,0.1s0.3,0,0.4-0.1c0.3-0.3,0.6-0.6,0.9-1c0.2-0.2,0.1-0.5-0.1-0.7
		c-0.2-0.2-0.5-0.1-0.7,0.1c-0.3,0.3-0.5,0.6-0.8,0.9C76,81.9,76,82.3,76.2,82.5z"/>
	<path class="st0" d="M76.4,85c0,0,0.4-0.2,0.9-0.6c0.2-0.2,0.3-0.5,0.1-0.7c-0.2-0.2-0.5-0.3-0.7-0.1c-0.5,0.4-0.8,0.6-0.8,0.6
		c-0.2,0.1-0.3,0.4-0.2,0.7c0.1,0.2,0.3,0.2,0.4,0.2C76.2,85.1,76.3,85.1,76.4,85z"/>
	<path class="st0" d="M72.6,82.1c0.1,0.2,0.3,0.3,0.5,0.3c0.1,0,0.1,0,0.2,0c0.3-0.1,0.6-0.3,0.8-0.5c0.2-0.2,0.3-0.5,0.1-0.7
		c-0.2-0.2-0.5-0.3-0.7-0.1c-0.2,0.2-0.4,0.3-0.7,0.4C72.5,81.5,72.4,81.8,72.6,82.1z"/>
	<path class="st0" d="M77.7,88.2c-0.9,0.6-1.5,1-1.5,1c-0.2,0.1-0.3,0.4-0.2,0.7c0.1,0.2,0.3,0.3,0.4,0.3c0.1,0,0.2,0,0.2-0.1
		c0,0,0.7-0.4,1.6-1.1c0.2-0.2,0.3-0.5,0.1-0.7C78.2,88.1,77.9,88.1,77.7,88.2z"/>
	<path class="st0" d="M81,85.8c-0.3,0.3-0.5,0.6-0.8,0.9c-0.2,0.2-0.2,0.5,0,0.7c0.1,0.1,0.2,0.1,0.4,0.1s0.3,0,0.4-0.1
		c0.3-0.3,0.6-0.6,0.9-1c0.2-0.2,0.1-0.5-0.1-0.7C81.5,85.5,81.2,85.6,81,85.8z"/>
	<path class="st0" d="M80.7,88.5c-0.5,0.4-0.8,0.6-0.8,0.6c-0.2,0.1-0.3,0.4-0.2,0.7c0.1,0.2,0.3,0.2,0.4,0.2c0.1,0,0.2,0,0.2-0.1
		c0,0,0.4-0.2,0.9-0.6c0.2-0.2,0.3-0.5,0.1-0.7C81.2,88.3,80.9,88.3,80.7,88.5z"/>
	<path class="st0" d="M77.5,85.9c-0.2,0.1-0.4,0.3-0.7,0.4c-0.2,0.1-0.4,0.4-0.2,0.7c0.1,0.2,0.3,0.3,0.5,0.3c0.1,0,0.1,0,0.2,0
		c0.3-0.1,0.6-0.3,0.8-0.5c0.2-0.2,0.3-0.5,0.1-0.7C78,85.8,77.7,85.8,77.5,85.9z"/>
	<path class="st0" d="M85.1,89.9c-0.9,0.6-1.5,1-1.5,1c-0.2,0.1-0.3,0.4-0.2,0.7c0.1,0.2,0.3,0.3,0.4,0.3c0.1,0,0.2,0,0.2-0.1
		c0,0,0.7-0.4,1.6-1.1c0.2-0.2,0.3-0.5,0.1-0.7C85.6,89.8,85.3,89.8,85.1,89.9z"/>
	<path class="st0" d="M88.4,87.5c-0.3,0.3-0.5,0.6-0.8,0.9c-0.2,0.2-0.2,0.5,0,0.7c0.1,0.1,0.2,0.1,0.4,0.1s0.3,0,0.4-0.1
		c0.3-0.3,0.6-0.6,0.9-1c0.2-0.2,0.1-0.5-0.1-0.7C88.9,87.2,88.6,87.2,88.4,87.5z"/>
	<path class="st0" d="M88.1,90.2c-0.5,0.4-0.8,0.6-0.8,0.6c-0.2,0.1-0.3,0.4-0.2,0.7c0.1,0.2,0.3,0.2,0.4,0.2c0.1,0,0.2,0,0.2-0.1
		c0,0,0.4-0.2,0.9-0.6c0.2-0.2,0.3-0.5,0.1-0.7C88.6,90,88.3,90,88.1,90.2z"/>
	<path class="st0" d="M84.4,89c0.1,0,0.1,0,0.2,0c0.3-0.1,0.6-0.3,0.8-0.5c0.2-0.2,0.3-0.5,0.1-0.7c-0.2-0.2-0.5-0.3-0.7-0.1
		c-0.2,0.1-0.4,0.3-0.6,0.4c-0.2,0.1-0.4,0.4-0.2,0.7C84.1,88.8,84.3,89,84.4,89z"/>
	<path class="st0" d="M91.5,94.4c-0.9,0.6-1.5,1-1.5,1c-0.2,0.1-0.3,0.4-0.2,0.7c0.1,0.2,0.3,0.3,0.4,0.3c0.1,0,0.2,0,0.2-0.1
		c0,0,0.7-0.4,1.6-1.1c0.2-0.2,0.3-0.5,0.1-0.7C92,94.3,91.7,94.2,91.5,94.4z"/>
	<path class="st0" d="M94.8,91.9c-0.3,0.3-0.5,0.6-0.8,0.9c-0.2,0.2-0.2,0.5,0,0.7c0.1,0.1,0.2,0.1,0.4,0.1s0.3,0,0.4-0.1
		c0.3-0.3,0.6-0.6,0.9-1c0.2-0.2,0.1-0.5-0.1-0.7C95.3,91.7,95,91.7,94.8,91.9z"/>
	<path class="st0" d="M94.5,94.6c-0.5,0.4-0.8,0.6-0.8,0.6c-0.2,0.1-0.3,0.4-0.2,0.7c0.1,0.2,0.3,0.2,0.4,0.2c0.1,0,0.2,0,0.2-0.1
		c0,0,0.4-0.2,0.9-0.6c0.2-0.2,0.3-0.5,0.1-0.7C95.1,94.5,94.8,94.5,94.5,94.6z"/>
	<path class="st0" d="M90.9,93.4c0.1,0,0.1,0,0.2,0c0.3-0.1,0.6-0.3,0.8-0.5c0.2-0.2,0.3-0.5,0.1-0.7c-0.2-0.2-0.5-0.3-0.7-0.1
		c-0.2,0.1-0.4,0.3-0.6,0.4c-0.2,0.1-0.4,0.4-0.2,0.7C90.5,93.3,90.7,93.4,90.9,93.4z"/>
	<path class="st0" d="M98.4,96.4c-0.9,0.6-1.5,1-1.5,1c-0.2,0.1-0.3,0.4-0.2,0.7c0.1,0.2,0.3,0.3,0.4,0.3c0.1,0,0.2,0,0.2-0.1
		c0,0,0.7-0.4,1.6-1.1c0.2-0.2,0.3-0.5,0.1-0.7C98.9,96.3,98.6,96.2,98.4,96.4z"/>
	<path class="st0" d="M102.5,93.8c-0.2-0.2-0.5-0.1-0.7,0.1c-0.3,0.3-0.5,0.6-0.8,0.9c-0.2,0.2-0.2,0.5,0,0.7
		c0.1,0.1,0.2,0.1,0.4,0.1s0.3,0,0.4-0.1c0.3-0.3,0.6-0.6,0.9-1C102.7,94.3,102.7,94,102.5,93.8z"/>
	<path class="st0" d="M101.5,96.6c-0.5,0.4-0.8,0.6-0.8,0.6c-0.2,0.1-0.3,0.4-0.2,0.7c0.1,0.2,0.3,0.2,0.4,0.2c0.1,0,0.2,0,0.2-0.1
		c0,0,0.4-0.2,0.9-0.6c0.2-0.2,0.3-0.5,0.1-0.7C102,96.5,101.7,96.4,101.5,96.6z"/>
	<path class="st0" d="M97.8,95.4c0.1,0,0.1,0,0.2,0c0.3-0.1,0.6-0.3,0.8-0.5c0.2-0.2,0.3-0.5,0.1-0.7c-0.2-0.2-0.5-0.3-0.7-0.1
		c-0.2,0.1-0.4,0.3-0.6,0.4c-0.2,0.1-0.4,0.4-0.2,0.7C97.4,95.3,97.6,95.4,97.8,95.4z"/>
	<path class="st0" d="M104.4,101.3c-0.9,0.6-1.5,1-1.5,1c-0.2,0.1-0.3,0.4-0.2,0.7c0.1,0.2,0.3,0.3,0.4,0.3c0.1,0,0.2,0,0.2-0.1
		c0,0,0.7-0.4,1.6-1.1c0.2-0.2,0.3-0.5,0.1-0.7C105,101.2,104.6,101.1,104.4,101.3z"/>
	<path class="st0" d="M107.3,100.5c0.1,0,0.3,0,0.4-0.1c0.3-0.3,0.6-0.6,0.9-1c0.2-0.2,0.1-0.5-0.1-0.7c-0.2-0.2-0.5-0.1-0.7,0.1
		c-0.3,0.3-0.5,0.6-0.8,0.9c-0.2,0.2-0.2,0.5,0,0.7C107.1,100.5,107.2,100.5,107.3,100.5z"/>
	<path class="st0" d="M106.9,103c0.1,0,0.2,0,0.2-0.1c0,0,0.4-0.2,0.9-0.6c0.2-0.2,0.3-0.5,0.1-0.7c-0.2-0.2-0.5-0.3-0.7-0.1
		c-0.5,0.4-0.8,0.6-0.8,0.6c-0.2,0.1-0.3,0.4-0.2,0.7C106.6,102.9,106.7,103,106.9,103z"/>
	<path class="st0" d="M103.8,100.3c0.1,0,0.1,0,0.2,0c0.3-0.1,0.6-0.3,0.8-0.5c0.2-0.2,0.3-0.5,0.1-0.7c-0.2-0.2-0.5-0.3-0.7-0.1
		c-0.2,0.1-0.4,0.3-0.6,0.4c-0.2,0.1-0.4,0.4-0.2,0.7C103.4,100.2,103.6,100.3,103.8,100.3z"/>
	<path class="st0" d="M110.7,107.3c0.1,0,0.2,0,0.2-0.1c0,0,0.7-0.4,1.6-1.1c0.2-0.2,0.3-0.5,0.1-0.7c-0.2-0.2-0.5-0.3-0.7-0.1
		c-0.9,0.6-1.5,1-1.5,1c-0.2,0.1-0.3,0.4-0.2,0.7C110.3,107.2,110.5,107.3,110.7,107.3z"/>
	<path class="st0" d="M114.9,104.6c0.1,0,0.3,0,0.4-0.1c0.3-0.3,0.6-0.6,0.9-1c0.2-0.2,0.1-0.5-0.1-0.7c-0.2-0.2-0.5-0.1-0.7,0.1
		c-0.3,0.3-0.5,0.6-0.8,0.9c-0.2,0.2-0.2,0.5,0,0.7C114.6,104.6,114.7,104.6,114.9,104.6z"/>
	<path class="st0" d="M114.4,107.1c0.1,0,0.2,0,0.2-0.1c0,0,0.4-0.2,0.9-0.6c0.2-0.2,0.3-0.5,0.1-0.7c-0.2-0.2-0.5-0.3-0.7-0.1
		c-0.5,0.4-0.8,0.6-0.8,0.6c-0.2,0.1-0.3,0.4-0.2,0.7C114.1,107,114.3,107.1,114.4,107.1z"/>
	<path class="st0" d="M111.3,104.4c0.1,0,0.1,0,0.2,0c0.3-0.1,0.6-0.3,0.8-0.5c0.2-0.2,0.3-0.5,0.1-0.7c-0.2-0.2-0.5-0.3-0.7-0.1
		c-0.2,0.1-0.4,0.3-0.6,0.4c-0.2,0.1-0.4,0.4-0.2,0.7C111,104.3,111.1,104.4,111.3,104.4z"/>
	<path class="st0" d="M112.8,115.1c0.1,0.2,0.3,0.3,0.4,0.3c0.1,0,0.2,0,0.2-0.1c0,0,0.7-0.4,1.6-1.1c0.2-0.2,0.3-0.5,0.1-0.7
		c-0.2-0.2-0.5-0.3-0.7-0.1c-0.9,0.6-1.5,1-1.5,1C112.7,114.6,112.6,114.9,112.8,115.1z"/>
	<path class="st0" d="M117.4,112.7c0.1,0,0.3,0,0.4-0.1c0.3-0.3,0.6-0.6,0.9-1c0.2-0.2,0.1-0.5-0.1-0.7c-0.2-0.2-0.5-0.1-0.7,0.1
		c-0.3,0.3-0.5,0.6-0.8,0.9c-0.2,0.2-0.2,0.5,0,0.7C117.1,112.6,117.3,112.7,117.4,112.7z"/>
	<path class="st0" d="M116.9,115.1c0.1,0,0.2,0,0.2-0.1c0,0,0.4-0.2,0.9-0.6c0.2-0.2,0.3-0.5,0.1-0.7c-0.2-0.2-0.5-0.3-0.7-0.1
		c-0.5,0.4-0.8,0.6-0.8,0.6c-0.2,0.1-0.3,0.4-0.2,0.7C116.6,115.1,116.8,115.1,116.9,115.1z"/>
	<path class="st0" d="M113.8,112.4c0.1,0,0.1,0,0.2,0c0.3-0.1,0.6-0.3,0.8-0.5c0.2-0.2,0.3-0.5,0.1-0.7c-0.2-0.2-0.5-0.3-0.7-0.1
		c-0.2,0.1-0.4,0.3-0.6,0.4c-0.2,0.1-0.4,0.4-0.2,0.7C113.5,112.3,113.7,112.4,113.8,112.4z"/>
	<path class="st0" d="M123.3,106.8c0.1,0,0.2,0,0.2-0.1c0,0,0.7-0.4,1.6-1.1c0.2-0.2,0.3-0.5,0.1-0.7c-0.2-0.2-0.5-0.3-0.7-0.1
		c-0.9,0.6-1.5,1-1.5,1c-0.2,0.1-0.3,0.4-0.2,0.7C123,106.7,123.2,106.8,123.3,106.8z"/>
	<path class="st0" d="M127.5,104.1c0.1,0,0.3,0,0.4-0.1c0.3-0.3,0.6-0.6,0.9-1c0.2-0.2,0.1-0.5-0.1-0.7c-0.2-0.2-0.5-0.1-0.7,0.1
		c-0.3,0.3-0.5,0.6-0.8,0.9c-0.2,0.2-0.2,0.5,0,0.7C127.3,104.1,127.4,104.1,127.5,104.1z"/>
	<path class="st0" d="M127.1,106.6c0.1,0,0.2,0,0.2-0.1c0,0,0.4-0.2,0.9-0.6c0.2-0.2,0.3-0.5,0.1-0.7c-0.2-0.2-0.5-0.3-0.7-0.1
		c-0.5,0.4-0.8,0.6-0.8,0.6c-0.2,0.1-0.3,0.4-0.2,0.7C126.7,106.5,126.9,106.6,127.1,106.6z"/>
	<path class="st0" d="M124,103.9c0.1,0,0.1,0,0.2,0c0.3-0.1,0.6-0.3,0.8-0.5c0.2-0.2,0.3-0.5,0.1-0.7c-0.2-0.2-0.5-0.3-0.7-0.1
		c-0.2,0.1-0.4,0.3-0.7,0.4c-0.2,0.1-0.4,0.4-0.2,0.7C123.6,103.8,123.8,103.9,124,103.9z"/>
	<path class="st0" d="M122.2,120.2c0.1,0,0.2,0,0.2-0.1c0,0,0.7-0.4,1.6-1.1c0.2-0.2,0.3-0.5,0.1-0.7c-0.2-0.2-0.5-0.3-0.7-0.1
		c-0.9,0.6-1.5,1-1.5,1c-0.2,0.1-0.3,0.4-0.2,0.7C121.9,120.1,122,120.2,122.2,120.2z"/>
	<path class="st0" d="M126.4,117.5c0.1,0,0.3,0,0.4-0.1c0.3-0.3,0.6-0.6,0.9-1c0.2-0.2,0.1-0.5-0.1-0.7c-0.2-0.2-0.5-0.1-0.7,0.1
		c-0.3,0.3-0.5,0.6-0.8,0.9c-0.2,0.2-0.2,0.5,0,0.7C126.1,117.4,126.3,117.5,126.4,117.5z"/>
	<path class="st0" d="M126,120c0.1,0,0.2,0,0.2-0.1c0,0,0.4-0.2,0.9-0.6c0.2-0.2,0.3-0.5,0.1-0.7c-0.2-0.2-0.5-0.3-0.7-0.1
		c-0.5,0.4-0.8,0.6-0.8,0.6c-0.2,0.1-0.3,0.4-0.2,0.7C125.6,119.9,125.8,120,126,120z"/>
	<path class="st0" d="M122.9,117.2c0.1,0,0.1,0,0.2,0c0.3-0.1,0.6-0.3,0.8-0.5c0.2-0.2,0.3-0.5,0.1-0.7c-0.2-0.2-0.5-0.3-0.7-0.1
		c-0.2,0.1-0.4,0.3-0.6,0.4c-0.2,0.1-0.4,0.4-0.2,0.7C122.5,117.1,122.7,117.2,122.9,117.2z"/>
	<path class="st0" d="M109.3,123.9c0.1,0,0.2,0,0.2-0.1c0,0,0.7-0.4,1.6-1.1c0.2-0.2,0.3-0.5,0.1-0.7c-0.2-0.2-0.5-0.3-0.7-0.1
		c-0.9,0.6-1.5,1-1.5,1c-0.2,0.1-0.3,0.4-0.2,0.7C108.9,123.8,109.1,123.9,109.3,123.9z"/>
	<path class="st0" d="M113.9,119.4c-0.3,0.3-0.5,0.6-0.8,0.9c-0.2,0.2-0.2,0.5,0,0.7c0.1,0.1,0.2,0.1,0.4,0.1s0.3,0,0.4-0.1
		c0.3-0.3,0.6-0.6,0.9-1c0.2-0.2,0.1-0.5-0.1-0.7C114.4,119.2,114.1,119.2,113.9,119.4z"/>
	<path class="st0" d="M113.6,122.1c-0.5,0.4-0.8,0.6-0.8,0.6c-0.2,0.1-0.3,0.4-0.2,0.7c0.1,0.2,0.3,0.2,0.4,0.2c0.1,0,0.2,0,0.2-0.1
		c0,0,0.4-0.2,0.9-0.6c0.2-0.2,0.3-0.5,0.1-0.7C114.1,122,113.8,122,113.6,122.1z"/>
	<path class="st0" d="M109.9,120.9c0.1,0,0.1,0,0.2,0c0.3-0.1,0.6-0.3,0.8-0.5c0.2-0.2,0.3-0.5,0.1-0.7c-0.2-0.2-0.5-0.3-0.7-0.1
		c-0.2,0.1-0.4,0.3-0.6,0.4c-0.2,0.1-0.4,0.4-0.2,0.7C109.5,120.8,109.7,120.9,109.9,120.9z"/>
	<path class="st0" d="M104.4,113.7c-0.9,0.6-1.5,1-1.5,1c-0.2,0.1-0.3,0.4-0.2,0.7c0.1,0.2,0.3,0.3,0.4,0.3c0.1,0,0.2,0,0.2-0.1
		c0,0,0.7-0.4,1.6-1.1c0.2-0.2,0.3-0.5,0.1-0.7C105,113.6,104.6,113.6,104.4,113.7z"/>
	<path class="st0" d="M107.8,111.3c-0.3,0.3-0.5,0.6-0.8,0.9c-0.2,0.2-0.2,0.5,0,0.7c0.1,0.1,0.2,0.1,0.4,0.1s0.3,0,0.4-0.1
		c0.3-0.3,0.6-0.6,0.9-1c0.2-0.2,0.1-0.5-0.1-0.7C108.3,111,108,111,107.8,111.3z"/>
	<path class="st0" d="M106.9,115.5c0.1,0,0.2,0,0.2-0.1c0,0,0.4-0.2,0.9-0.6c0.2-0.2,0.3-0.5,0.1-0.7c-0.2-0.2-0.5-0.3-0.7-0.1
		c-0.5,0.4-0.8,0.6-0.8,0.6c-0.2,0.1-0.3,0.4-0.2,0.7C106.6,115.4,106.7,115.5,106.9,115.5z"/>
	<path class="st0" d="M103.8,112.8c0.1,0,0.1,0,0.2,0c0.3-0.1,0.6-0.3,0.8-0.5c0.2-0.2,0.3-0.5,0.1-0.7c-0.2-0.2-0.5-0.3-0.7-0.1
		c-0.2,0.1-0.4,0.3-0.6,0.4c-0.2,0.1-0.4,0.4-0.2,0.7C103.4,112.6,103.6,112.8,103.8,112.8z"/>
	<path class="st0" d="M168.4,94.8c1.3,0,2.5-0.1,2.8-0.2c0.1,0,0.2-0.1,0.2-0.3c0-0.1-0.1-0.2-0.3-0.2c-1.3,0.1-4.9,0.4-5.7-0.4
		c-0.1-0.1-0.1-0.2-0.1-0.2c0-0.1-0.1-0.2-0.2-0.2s-0.2,0.1-0.2,0.2c0,0.2,0.1,0.5,0.3,0.6C165.7,94.7,167.1,94.8,168.4,94.8z"/>
	<path class="st0" d="M167.4,97.2c2.8,0,5.3-0.3,5.6-0.3c0.1,0,0.2-0.1,0.2-0.3c0-0.1-0.1-0.2-0.3-0.2c-0.1,0-9.5,1-11.6-0.8
		c-0.2-0.2-0.3-0.4-0.3-0.7c0-0.1-0.1-0.2-0.2-0.2s-0.2,0.1-0.2,0.2c0,0.4,0.2,0.8,0.5,1.1C162.1,97,164.9,97.2,167.4,97.2z"/>
	<path class="st0" d="M148.6,107.4c1.3,0,2.5-0.1,2.8-0.2c0.1,0,0.2-0.1,0.2-0.3c0-0.1-0.1-0.2-0.3-0.2c-1.3,0.1-4.9,0.4-5.7-0.4
		c-0.1-0.1-0.1-0.2-0.1-0.2c0-0.1-0.1-0.2-0.2-0.2s-0.2,0.1-0.2,0.2c0,0.2,0.1,0.5,0.3,0.6C145.8,107.3,147.3,107.4,148.6,107.4z"/>
	<path class="st0" d="M147.6,109.8c2.8,0,5.3-0.3,5.6-0.3c0.1,0,0.2-0.1,0.2-0.3c0-0.1-0.1-0.2-0.3-0.2c-0.1,0-9.5,1-11.6-0.8
		c-0.2-0.2-0.3-0.4-0.3-0.7c0-0.1-0.1-0.2-0.2-0.2s-0.2,0.1-0.2,0.2c0,0.4,0.2,0.8,0.5,1.1C142.3,109.6,145,109.8,147.6,109.8z"/>
	<path class="st0" d="M169.9,103.7c-1.3,0.1-4.9,0.4-5.7-0.4c-0.1-0.1-0.1-0.2-0.1-0.2c0-0.1-0.1-0.2-0.2-0.2s-0.2,0.1-0.2,0.2
		c0,0.2,0.1,0.5,0.3,0.6c0.6,0.5,2,0.6,3.3,0.6c1.3,0,2.5-0.1,2.8-0.2c0.1,0,0.2-0.1,0.2-0.3C170.2,103.8,170,103.7,169.9,103.7z"/>
	<path class="st0" d="M168.7,105.6c-1.1,0.1-2.8,0.1-3.1-0.2c0,0,0,0,0-0.1c0-0.1-0.1-0.2-0.2-0.2s-0.2,0.1-0.2,0.2
		c0,0.2,0.1,0.3,0.2,0.4c0.3,0.3,1.2,0.4,1.9,0.4c0.7,0,1.4-0.1,1.6-0.1c0.1,0,0.2-0.1,0.2-0.3C169,105.7,168.9,105.6,168.7,105.6z"
		/>
	<path class="st0" d="M189.9,103c0.3,0.1,0.7,0.2,1.1,0.2c0.9,0,1.8-0.3,2.2-0.6c0.1-0.1,0.1-0.3,0-0.4c-0.1-0.1-0.3-0.1-0.4,0
		c-0.4,0.4-1.9,0.6-2.7,0.3c-0.3-0.1-0.3-0.3-0.3-0.4c0-0.1-0.1-0.2-0.2-0.2s-0.2,0.1-0.2,0.2C189.3,102.5,189.5,102.8,189.9,103z"
		/>
	<path class="st0" d="M185.8,102.3c0.3,0,0.7,0,0.9-0.1c0.1,0,0.2-0.2,0.2-0.3c0-0.1-0.2-0.2-0.3-0.2c-0.9,0.2-2,0-2.1-0.3
		c0-0.1-0.2-0.2-0.3-0.2c-0.1,0-0.2,0.2-0.2,0.3C184.2,102.1,185,102.3,185.8,102.3z"/>
	<path class="st0" d="M188.4,68.8L188.4,68.8l-0.2-0.1c-0.2-0.1-0.3-0.1-0.5,0l-0.2,0.1c-0.2,0-0.4,0.1-0.5,0.2l-0.1,0.1
		c-0.5,0.5-0.8,1.7-0.7,2.4l0.2,1.9c0.1,1.1,1,2,2.1,2h0.2c1.1,0,2-0.9,2.1-2l0.2-1.9c0.1-0.8-0.4-1.7-1.2-1.9c0,0-0.5-0.1-0.6-0.2
		C189,69.5,188.6,69.1,188.4,68.8z"/>
	<path class="st0" d="M150.2,77.7l-3.9,3.9c-0.2,0.2-0.2,0.5,0,0.7c0.1,0.1,0.2,0.1,0.4,0.1s0.3,0,0.4-0.1l3.9-3.9
		c0.2-0.2,0.2-0.5,0-0.7S150.4,77.5,150.2,77.7z"/>
	<path class="st0" d="M184.2,34.4c0.1,0.1,0.2,0.1,0.4,0.1s0.3,0,0.4-0.1l3.9-3.9c0.2-0.2,0.2-0.5,0-0.7s-0.5-0.2-0.7,0l-3.9,3.9
		C184,33.9,184,34.2,184.2,34.4z"/>
	<path class="st0" d="M183.3,25c0.1,0,0.3,0,0.4-0.1l3.9-3.9c0.2-0.2,0.2-0.5,0-0.7s-0.5-0.2-0.7,0l-3.9,3.9c-0.2,0.2-0.2,0.5,0,0.7
		C183,25,183.1,25,183.3,25z"/>
	<path class="st0" d="M197.6,41.8c0.1,0,0.3,0,0.4-0.1l3.9-3.9c0.2-0.2,0.2-0.5,0-0.7s-0.5-0.2-0.7,0l-3.9,3.9
		c-0.2,0.2-0.2,0.5,0,0.7C197.4,41.8,197.5,41.8,197.6,41.8z"/>
	<path class="st0" d="M205.1,51.4l-3.9,3.9c-0.2,0.2-0.2,0.5,0,0.7c0.1,0.1,0.2,0.1,0.4,0.1s0.3,0,0.4-0.1l3.9-3.9
		c0.2-0.2,0.2-0.5,0-0.7S205.3,51.2,205.1,51.4z"/>
	<path class="st0" d="M186.9,60.5c-0.2-0.2-0.5-0.2-0.7,0l-3.9,3.9c-0.2,0.2-0.2,0.5,0,0.7c0.1,0.1,0.2,0.1,0.4,0.1s0.3,0,0.4-0.1
		l3.9-3.9C187,61,187,60.7,186.9,60.5z"/>
	<path class="st0" d="M206.2,43.2c0.1,0.1,0.2,0.1,0.4,0.1s0.3,0,0.4-0.1l3.9-3.9c0.2-0.2,0.2-0.5,0-0.7s-0.5-0.2-0.7,0l-3.9,3.9
		C206.1,42.7,206.1,43,206.2,43.2z"/>
	<path class="st0" d="M178,12.5c0.1,0,0.3,0,0.4-0.1l3.9-3.9c0.2-0.2,0.2-0.5,0-0.7s-0.5-0.2-0.7,0l-3.9,3.9c-0.2,0.2-0.2,0.5,0,0.7
		C177.8,12.5,177.9,12.5,178,12.5z"/>
	<path class="st0" d="M203.5,14.5c0.1,0,0.3,0,0.4-0.1l3.9-3.9c0.2-0.2,0.2-0.5,0-0.7s-0.5-0.2-0.7,0l-3.9,3.9
		c-0.2,0.2-0.2,0.5,0,0.7C203.3,14.4,203.4,14.5,203.5,14.5z"/>
	<path class="st0" d="M208.9,69c-0.2-0.2-0.5-0.2-0.7,0l-3.9,3.9c-0.2,0.2-0.2,0.5,0,0.7c0.1,0.1,0.2,0.1,0.4,0.1s0.3,0,0.4-0.1
		l3.9-3.9C209.1,69.5,209.1,69.2,208.9,69z"/>
	<path class="st0" d="M198,30.6c0.1,0,0.3,0,0.4-0.1l1.8-1.8c0.2-0.2,0.2-0.5,0-0.7s-0.5-0.2-0.7,0l-1.8,1.8c-0.2,0.2-0.2,0.5,0,0.7
		C197.8,30.6,197.9,30.6,198,30.6z"/>
	<path class="st0" d="M191.4,12.7c0.1,0,0.3,0,0.4-0.1l1.8-1.8c0.2-0.2,0.2-0.5,0-0.7s-0.5-0.2-0.7,0l-1.8,1.8
		c-0.2,0.2-0.2,0.5,0,0.7C191.2,12.6,191.3,12.7,191.4,12.7z"/>
	<path class="st0" d="M192,54.5c0.1,0.1,0.2,0.1,0.4,0.1s0.3,0,0.4-0.1l1.8-1.8c0.2-0.2,0.2-0.5,0-0.7s-0.5-0.2-0.7,0l-1.8,1.8
		C191.8,54,191.8,54.3,192,54.5z"/>
	<path class="st0" d="M214.6,27.1c0.1,0,0.3,0,0.4-0.1l1.8-1.8c0.2-0.2,0.2-0.5,0-0.7s-0.5-0.2-0.7,0l-1.8,1.8
		c-0.2,0.2-0.2,0.5,0,0.7C214.4,27.1,214.5,27.1,214.6,27.1z"/>
	<path class="st0" d="M203.7,63.6c-0.2,0.2-0.2,0.5,0,0.7c0.1,0.1,0.2,0.1,0.4,0.1s0.3,0,0.4-0.1l1.8-1.8c0.2-0.2,0.2-0.5,0-0.7
		s-0.5-0.2-0.7,0L203.7,63.6z"/>
	<path class="st0" d="M154,97.8c0.1,0,0.3,0,0.4-0.1l1.8-1.8c0.2-0.2,0.2-0.5,0-0.7s-0.5-0.2-0.7,0l-1.8,1.8c-0.2,0.2-0.2,0.5,0,0.7
		C153.8,97.7,153.9,97.8,154,97.8z"/>
	<path class="st0" d="M213.6,49.3c0.1,0,0.3,0,0.4-0.1l1.8-1.8c0.2-0.2,0.2-0.5,0-0.7s-0.5-0.2-0.7,0l-1.8,1.8
		c-0.2,0.2-0.2,0.5,0,0.7C213.4,49.3,213.5,49.3,213.6,49.3z"/>
	<path class="st0" d="M194.3,62.6c0.1,0.1,0.2,0.1,0.4,0.1s0.3,0,0.4-0.1l1.8-1.8c0.2-0.2,0.2-0.5,0-0.7s-0.5-0.2-0.7,0l-1.8,1.8
		C194.1,62.1,194.1,62.4,194.3,62.6z"/>
	<path class="st0" d="M203.2,84.1c0.1,0,0.3,0,0.4-0.1l1.8-1.8c0.2-0.2,0.2-0.5,0-0.7s-0.5-0.2-0.7,0l-1.8,1.8
		c-0.2,0.2-0.2,0.5,0,0.7C202.9,84,203.1,84.1,203.2,84.1z"/>
	<path class="st0" d="M218.4,57.7c-0.2-0.2-0.5-0.2-0.7,0l-1.8,1.8c-0.2,0.2-0.2,0.5,0,0.7c0.1,0.1,0.2,0.1,0.4,0.1s0.3,0,0.4-0.1
		l1.8-1.8C218.6,58.2,218.6,57.9,218.4,57.7z"/>
	<path class="st0" d="M217,75.7l-1.8,1.8c-0.2,0.2-0.2,0.5,0,0.7c0.1,0.1,0.2,0.1,0.4,0.1s0.3,0,0.4-0.1l1.8-1.8
		c0.2-0.2,0.2-0.5,0-0.7S217.2,75.5,217,75.7z"/>
	<path class="st0" d="M205.7,90.9c0.1,0,0.3,0,0.4-0.1l1.8-1.8c0.2-0.2,0.2-0.5,0-0.7s-0.5-0.2-0.7,0l-1.8,1.8
		c-0.2,0.2-0.2,0.5,0,0.7C205.4,90.8,205.6,90.9,205.7,90.9z"/>
	<path class="st0" d="M158.4,56.9c0.1,0,0.3,0,0.4-0.1l1.8-1.8c0.2-0.2,0.2-0.5,0-0.7s-0.5-0.2-0.7,0l-1.8,1.8
		c-0.2,0.2-0.2,0.5,0,0.7C158.2,56.9,158.3,56.9,158.4,56.9z"/>
	<path class="st0" d="M166.9,58.8c0.1,0,0.3,0,0.4-0.1l1.8-1.8c0.2-0.2,0.2-0.5,0-0.7s-0.5-0.2-0.7,0l-1.8,1.8
		c-0.2,0.2-0.2,0.5,0,0.7C166.6,58.7,166.7,58.8,166.9,58.8z"/>
	<path class="st0" d="M148.5,28.7c-0.2-0.2-0.5-0.2-0.7,0l-1.8,1.8c-0.2,0.2-0.2,0.5,0,0.7c0.1,0.1,0.2,0.1,0.4,0.1s0.3,0,0.4-0.1
		l1.8-1.8C148.7,29.2,148.7,28.9,148.5,28.7z"/>
	<path class="st0" d="M153.3,62.7l-1.8,1.8c-0.2,0.2-0.2,0.5,0,0.7c0.1,0.1,0.2,0.1,0.4,0.1s0.3,0,0.4-0.1l1.8-1.8
		c0.2-0.2,0.2-0.5,0-0.7S153.4,62.5,153.3,62.7z"/>
	<path class="st0" d="M51.5,35.5c0.1,0,0.3,0,0.4-0.1l3.9-3.9c0.2-0.2,0.2-0.5,0-0.7s-0.5-0.2-0.7,0l-3.9,3.9
		c-0.2,0.2-0.2,0.5,0,0.7C51.2,35.5,51.3,35.5,51.5,35.5z"/>
	<path class="st0" d="M57.7,39.8c0.1,0,0.3,0,0.4-0.1l3.9-3.9c0.2-0.2,0.2-0.5,0-0.7s-0.5-0.2-0.7,0L57.4,39c-0.2,0.2-0.2,0.5,0,0.7
		C57.5,39.8,57.6,39.8,57.7,39.8z"/>
	<path class="st0" d="M71.4,25.8c0.1,0.1,0.2,0.1,0.4,0.1s0.3,0,0.4-0.1l3.9-3.9c0.2-0.2,0.2-0.5,0-0.7s-0.5-0.2-0.7,0l-3.9,3.9
		C71.2,25.3,71.2,25.6,71.4,25.8z"/>
	<path class="st0" d="M70.5,16.4c0.1,0,0.3,0,0.4-0.1l3.9-3.9c0.2-0.2,0.2-0.5,0-0.7s-0.5-0.2-0.7,0l-3.9,3.9
		c-0.2,0.2-0.2,0.5,0,0.7C70.2,16.4,70.3,16.4,70.5,16.4z"/>
	<path class="st0" d="M45.3,27.2c0.1,0,0.3,0,0.4-0.1l3.9-3.9c0.2-0.2,0.2-0.5,0-0.7s-0.5-0.2-0.7,0l-3.9,3.9
		c-0.2,0.2-0.2,0.5,0,0.7C45,27.2,45.2,27.2,45.3,27.2z"/>
	<path class="st0" d="M74.3,49.5l-3.9,3.9c-0.2,0.2-0.2,0.5,0,0.7c0.1,0.1,0.2,0.1,0.4,0.1s0.3,0,0.4-0.1l3.9-3.9
		c0.2-0.2,0.2-0.5,0-0.7S74.5,49.3,74.3,49.5z"/>
	<path class="st0" d="M70.4,67.7c0.1,0,0.3,0,0.4-0.1l3.9-3.9c0.2-0.2,0.2-0.5,0-0.7s-0.5-0.2-0.7,0L70,66.8c-0.2,0.2-0.2,0.5,0,0.7
		C70.1,67.6,70.3,67.7,70.4,67.7z"/>
	<path class="st0" d="M50.4,68.4c0.1,0,0.3,0,0.4-0.1l3.9-3.9c0.2-0.2,0.2-0.5,0-0.7s-0.5-0.2-0.7,0l-3.9,3.9
		c-0.2,0.2-0.2,0.5,0,0.7C50.2,68.3,50.3,68.4,50.4,68.4z"/>
	<path class="st0" d="M75.4,29.4l-3.9,3.9c-0.2,0.2-0.2,0.5,0,0.7c0.1,0.1,0.2,0.1,0.4,0.1s0.3,0,0.4-0.1l3.9-3.9
		c0.2-0.2,0.2-0.5,0-0.7S75.6,29.2,75.4,29.4z"/>
	<path class="st0" d="M62.6,27.1c0.1,0,0.3,0,0.4-0.1l1.8-1.8c0.2-0.2,0.2-0.5,0-0.7s-0.5-0.2-0.7,0l-1.8,1.8
		c-0.2,0.2-0.2,0.5,0,0.7C62.3,27.1,62.5,27.1,62.6,27.1z"/>
	<path class="st0" d="M85.2,22.1c0.1,0,0.3,0,0.4-0.1l1.8-1.8c0.2-0.2,0.2-0.5,0-0.7s-0.5-0.2-0.7,0l-1.8,1.8
		c-0.2,0.2-0.2,0.5,0,0.7C85,22,85.1,22.1,85.2,22.1z"/>
	<path class="st0" d="M79.9,46l1.8-1.8c0.2-0.2,0.2-0.5,0-0.7s-0.5-0.2-0.7,0l-1.8,1.8c-0.2,0.2-0.2,0.5,0,0.7
		c0.1,0.1,0.2,0.1,0.4,0.1S79.8,46.1,79.9,46z"/>
	<path class="st0" d="M88.5,10.1c0.1,0,0.3,0,0.4-0.1l1.8-1.8c0.2-0.2,0.2-0.5,0-0.7s-0.5-0.2-0.7,0l-1.8,1.8
		c-0.2,0.2-0.2,0.5,0,0.7C88.2,10.1,88.4,10.1,88.5,10.1z"/>
	<path class="st0" d="M45.8,59.5L44,61.3c-0.2,0.2-0.2,0.5,0,0.7c0.1,0.1,0.2,0.1,0.4,0.1s0.3,0,0.4-0.1l1.8-1.8
		c0.2-0.2,0.2-0.5,0-0.7S46,59.3,45.8,59.5z"/>
	<path class="st0" d="M75.4,38.6c0.1,0.1,0.2,0.1,0.4,0.1s0.3,0,0.4-0.1l1.8-1.8c0.2-0.2,0.2-0.5,0-0.7s-0.5-0.2-0.7,0l-1.8,1.8
		C75.2,38.1,75.2,38.4,75.4,38.6z"/>
	<path class="st0" d="M56.5,55.9c0.1,0.1,0.2,0.1,0.4,0.1s0.3,0,0.4-0.1l1.8-1.8c0.2-0.2,0.2-0.5,0-0.7s-0.5-0.2-0.7,0l-1.8,1.8
		C56.3,55.4,56.3,55.7,56.5,55.9z"/>
	<path class="st0" d="M64,60.5l-1.8,1.8c-0.2,0.2-0.2,0.5,0,0.7c0.1,0.1,0.2,0.1,0.4,0.1s0.3,0,0.4-0.1l1.8-1.8
		c0.2-0.2,0.2-0.5,0-0.7S64.2,60.4,64,60.5z"/>
	<path class="st0" d="M47.8,45.7c-0.2-0.2-0.5-0.2-0.7,0l-1.8,1.8c-0.2,0.2-0.2,0.5,0,0.7c0.1,0.1,0.2,0.1,0.4,0.1s0.3,0,0.4-0.1
		l1.8-1.8C48,46.2,48,45.9,47.8,45.7z"/>
	<path class="st0" d="M34.4,55.1c0.1,0,0.3,0,0.4-0.1l1.8-1.8c0.2-0.2,0.2-0.5,0-0.7s-0.5-0.2-0.7,0L34,54.3c-0.2,0.2-0.2,0.5,0,0.7
		C34.1,55.1,34.3,55.1,34.4,55.1z"/>
	<path class="st0" d="M64.2,47.3c0.1,0.1,0.2,0.1,0.4,0.1s0.3,0,0.4-0.1l1.8-1.8c0.2-0.2,0.2-0.5,0-0.7s-0.5-0.2-0.7,0l-1.8,1.8
		C64.1,46.8,64.1,47.1,64.2,47.3z"/>
	<path class="st0" d="M55.5,47.6l-1.8,1.8c-0.2,0.2-0.2,0.5,0,0.7c0.1,0.1,0.2,0.1,0.4,0.1s0.3,0,0.4-0.1l1.8-1.8
		c0.2-0.2,0.2-0.5,0-0.7S55.7,47.4,55.5,47.6z"/>
	<path class="st0" d="M58.1,18.6c0.1,0,0.3,0,0.4-0.1l1.8-1.8c0.2-0.2,0.2-0.5,0-0.7s-0.5-0.2-0.7,0l-1.8,1.8
		c-0.2,0.2-0.2,0.5,0,0.7C57.9,18.5,58,18.6,58.1,18.6z"/>
	<path class="st0" d="M42,71.3c0.1,0,0.3,0,0.4-0.1l1.8-1.8c0.2-0.2,0.2-0.5,0-0.7s-0.5-0.2-0.7,0l-1.8,1.8c-0.2,0.2-0.2,0.5,0,0.7
		C41.7,71.2,41.8,71.3,42,71.3z"/>
	<path class="st0" d="M43.8,40.7c0.1,0,0.3,0,0.4-0.1l1.8-1.8c0.2-0.2,0.2-0.5,0-0.7s-0.5-0.2-0.7,0l-1.8,1.8
		c-0.2,0.2-0.2,0.5,0,0.7C43.5,40.7,43.6,40.7,43.8,40.7z"/>
</g>
</svg>
