<?xml version="1.0" encoding="utf-8"?>
<!-- Generator: Adobe Illustrator 21.0.2, SVG Export Plug-In . SVG Version: 6.00 Build 0)  -->
<svg version="1.1" id="Слой_1" xmlns="http://www.w3.org/2000/svg" xmlns:xlink="http://www.w3.org/1999/xlink" x="0px" y="0px"
	 viewBox="0 0 238 152.9" style="enable-background:new 0 0 238 152.9;" xml:space="preserve">
<g>
	<polygon points="119.1,9.7 119.1,9.7 119.1,9.7 	"/>
	<polygon points="105.6,81.4 105.6,81.4 105.6,81.4 	"/>
	<polygon points="130.6,69.2 130.6,69.2 130.6,69.2 	"/>
	<polygon points="155.6,152.9 155.6,152.9 155.6,152.9 	"/>
	<polygon points="107.8,10.2 107.8,10.2 107.8,10.2 	"/>
	<polygon points="117.6,11.1 117.6,11.1 117.5,11.1 	"/>
	<polygon points="192.2,26.9 192.2,26.9 192.2,26.9 	"/>
	<path d="M122.7,71.9c-5.5,2.6-11.3,5.5-17.3,8.6c-0.2,0.1-0.3,0.3-0.3,0.5c0,0.3,0.2,0.5,0.5,0.5c0.1,0,0.2,0,0.2-0.1
		c5.9-3.1,11.7-5.9,17.2-8.6c0.3-0.1,0.4-0.4,0.2-0.7C123.2,71.9,122.9,71.8,122.7,71.9z"/>
	<polygon points="160.4,107 160.3,107 160.3,107 	"/>
	<polygon points="97.4,125.2 97.4,125.2 97.4,125.2 	"/>
	<polygon points="158.2,111.7 158.2,111.7 158.2,111.7 	"/>
	<path d="M238,89.7c-0.1-1-0.2-2-0.4-3c-0.7-4.7-2.3-15.8-1.4-20.8c0.2-1.1-0.5-2.1-1.5-2.3c-16.5-3.5-23.9-9.2-24-12.1
		c1-5.9,3.2-10.4,5.3-14.8c2.6-5.3,5.1-10.3,5-17.1c0-0.2,0-0.4,0-0.5c-0.3-1.8-2.4-2-6.7-2.4c-1.9-0.2-4.3-0.3-6.9-0.5
		c0.3-0.5,0.6-1.1,1.1-1.5c0,0,0,0,0,0c0.2-0.2,0.2-0.5,0-0.7c-0.2-0.2-0.5-0.2-0.7,0c-0.7,0.7-1.2,1.4-1.5,2.2
		c-0.5,0-0.9-0.1-1.4-0.1c0.1-1.3,0.3-2.6,0.5-3.9c0.1-0.3-0.1-0.5-0.4-0.6c-0.3-0.1-0.5,0.1-0.6,0.4c-0.3,1.3-0.5,2.7-0.6,4
		c-0.4,0-0.7,0-1.1-0.1c-0.5-2.2-1.3-4.4-3-6c-0.2-0.2-0.5-0.2-0.7,0c0,0,0,0,0,0c-0.2,0.2-0.2,0.5,0,0.7c1.4,1.4,2.2,3.3,2.6,5.2
		c-3.2-0.2-6.6-0.4-10-0.7c0-0.4,0-0.8,0.1-1.2c1.1-3.7,3-7.6,6.4-11c0,0,0,0,0,0c0.2-0.2,0.2-0.5,0-0.7c0,0,0,0,0,0
		c-0.2-0.2-0.5-0.2-0.7,0c-3.1,3.1-5,6.6-6.2,10c-0.1,0.1-0.1,0.1-0.2,0.2c-0.1,0.4-0.2,0.8-0.3,1.3c-0.1,0.4-0.2,0.8-0.3,1.3
		c-0.1,0-0.3,0-0.4,0c-0.1,0-0.1,0-0.2,0c-0.1-2.1,0-4.3,0.6-6.3c0.1-0.3-0.1-0.5-0.4-0.6s-0.5,0.1-0.6,0.4
		c-0.6,2.2-0.8,4.6-0.6,6.9l-0.5,0.2c-0.2-1.2-0.4-2.4-0.8-3.5c-0.1-0.3-0.4-0.4-0.6-0.3c-0.3,0.1-0.4,0.4-0.3,0.6
		c0.4,1.2,0.6,2.4,0.8,3.7l-0.5,0.2c-0.4-0.7-0.9-1.4-1.5-2c0,0,0,0,0,0c-0.2-0.2-0.5-0.2-0.7,0c0,0,0,0,0,0c-0.2,0.2-0.2,0.5,0,0.7
		c0.5,0.5,1,1.1,1.3,1.8l-9,4.6c0.1-0.6,0.2-1.2,0.4-1.8c0.1-0.3-0.1-0.5-0.4-0.6s-0.5,0.1-0.6,0.4c-0.2,0.9-0.4,1.7-0.5,2.6
		l-1.5,0.8c-0.1-0.1-0.3-0.2-0.5-0.1c-0.2,0.1-0.4,0.3-0.3,0.5l-10.6,5.4c0.1-1.1,0.3-2.2,0.6-3.3c0.1-0.3-0.1-0.5-0.4-0.6
		s-0.5,0.1-0.6,0.4c-0.4,1.3-0.6,2.7-0.6,4.1l-0.9,0.5c-0.1-0.3-0.2-0.7-0.3-1c-0.1-0.3-0.4-0.4-0.6-0.3c-0.3,0.1-0.4,0.4-0.3,0.6
		c0.1,0.4,0.2,0.8,0.3,1.2l-8.4,4.3c-0.6,0.3-1.1,0.9-1.2,1.7c0,0.1,0,0.3,0,0.4c0.1,1.1,0.1,2.1,0.2,3.2c-1.3-0.8-2.3-2-2.9-3.5
		c-0.4-1.2-0.8-5.6-1-8.8c-0.2-2.8-0.4-5.2-0.6-6.5c-0.6-3.2-5.5-13.1-6-14.2c0,0,0,0,0,0c0-0.1-0.1-0.2-0.2-0.2c0,0,0-0.1-0.1-0.1
		c-0.1-0.1-0.1-0.1-0.2-0.2c0,0-0.1-0.1-0.1-0.1c-0.1-0.1-0.1-0.1-0.2-0.2c0,0-0.1,0-0.1-0.1c-0.1,0-0.2-0.1-0.3-0.1c0,0,0,0-0.1,0
		c0,0,0,0,0,0c-0.1,0-0.2,0-0.2,0c-0.1,0-0.1,0-0.2,0c0,0,0,0,0,0C135.1,5,131.6,5,128,5c-2.2,0-5.8,0-10.3,0.1
		c0.1-1.2,0.3-2.3,0.6-3.5c0.1-0.3-0.1-0.5-0.4-0.6s-0.5,0.1-0.6,0.4c-0.3,1.2-0.5,2.5-0.6,3.8c-0.4,0-0.8,0-1.2,0
		c0-0.1,0-0.1-0.1-0.2c0,0,0,0,0,0c-0.1-0.3-0.4-0.4-0.6-0.3c0,0,0,0,0,0c-0.2,0.1-0.4,0.3-0.3,0.5c-1.4,0-3,0-4.6,0.1
		c0-0.1,0.1-0.3,0.1-0.4c0.1-0.3,0-0.5-0.3-0.6c-0.3-0.1-0.5,0-0.6,0.3c-0.1,0.2-0.1,0.5-0.2,0.7c-0.3,0-0.7,0-1,0
		c0-1.5,0.2-3.1,0.6-4.6c0.1-0.3-0.1-0.5-0.4-0.6c-0.3-0.1-0.5,0.1-0.6,0.4c-0.4,1.6-0.6,3.2-0.7,4.9c-0.3,0-0.5,0-0.8,0
		c-0.1-0.4-0.2-0.9-0.4-1.3c-0.1-0.3-0.4-0.4-0.6-0.3c-0.3,0.1-0.4,0.4-0.3,0.6c0.1,0.3,0.2,0.7,0.3,1c-4.8,0.1-9.9,0.2-15.3,0.4
		c0-0.1,0-0.2,0.1-0.3c0,0,0,0,0,0c0.1-0.3-0.1-0.5-0.4-0.6c-0.3-0.1-0.5,0.1-0.6,0.4c-0.1,0.2-0.1,0.4-0.1,0.6
		C84.5,5.8,80.2,6,75.9,6.2c-0.1-0.1-0.2-0.2-0.3-0.3c-0.3-0.1-0.5,0-0.6,0.3c0,0,0,0,0,0c-0.4,0-0.8,0-1.2,0.1
		c0.1-1.3,0.3-2.6,0.6-3.9c0.1-0.3-0.1-0.5-0.4-0.6s-0.5,0.1-0.6,0.4c-0.4,1.4-0.6,2.8-0.6,4.2c-0.3,0-0.7,0-1,0
		c-0.1-0.2-0.1-0.4-0.2-0.7c0,0,0,0,0,0c-0.1-0.3-0.4-0.4-0.6-0.3c0,0,0,0,0,0c-0.3,0.1-0.4,0.4-0.3,0.6c0,0.1,0.1,0.3,0.1,0.4
		c-7,0.3-13.2,0.7-18.5,1.2c0.1-0.6,0.2-1.2,0.3-1.8c0,0,0,0,0,0c0.1-0.3-0.1-0.5-0.4-0.6c0,0,0,0,0,0c-0.3-0.1-0.5,0.1-0.6,0.4
		c-0.1,0.7-0.3,1.4-0.4,2.1c-0.6,0.1-1.2,0.1-1.7,0.2c-0.5-1.6-1.3-3.1-2.5-4.3c0,0,0,0,0,0c-0.2-0.2-0.5-0.2-0.7,0c0,0,0,0,0,0
		C46,3.7,46,4,46.2,4.2c1,1,1.7,2.3,2.2,3.7c-2.5,0.2-4.7,0.5-6.8,0.7c-2.3,0.3-4.3,0.6-6,0.9c0.1-1,0.3-2,0.5-3c0,0,0,0,0,0
		c0.1-0.3-0.1-0.5-0.4-0.6c-0.3-0.1-0.5,0.1-0.6,0.4c-0.3,1.1-0.5,2.3-0.6,3.4c-0.4,0.1-0.8,0.2-1.2,0.3c0,0,0-0.1,0-0.1
		c-0.1-0.3-0.4-0.4-0.6-0.3c-0.3,0.1-0.4,0.4-0.3,0.6c0,0,0,0,0,0c-3.7,1-5.3,2.2-5.5,3.9c0,0.1,0,0.2,0,0.3c0,0,0,0,0,0
		c0,0,0,0,0,0c0,0.1,0,0.2,0,0.3c0.1,1.6,1.1,4.1,3,8.4c2.1,4.9,4.8,10.9,6,16.6c0.8,3.9,0.6,17.5-1.3,19.2c-0.5,0.1-2,0.3-3.6,0.6
		C7.6,63.2,0,65.6,0,69.7c-0.2,1.8,0.6,3.5,1.9,4.7C2.6,75,3.2,75.6,3.2,79c0,2.2-0.1,4.6-0.2,7C2.6,93.7,2.6,96.8,4,98.3
		c0.5,0.5,1.1,0.8,1.8,0.8c0.3,0.1,0.8,0.2,1.4,0.4c0,0,0,0,0.1,0c0,0.4-0.1,1.2-0.2,2c-2.2,18.3-1.6,22.9,0.1,24.6
		c1.2,1.1,2.7,1.9,4.3,2.4c1.9,0.7,1.9,0.8,1.9,1.3c0,2.7,0,8.2,6.5,8.2c1.4,0,7.7,1.7,13.9,3.4c11.1,3,25,6.8,31.3,6.8
		c6.2,0,13.7-0.2,19.3-0.4c3.5-0.1,6.3-0.2,7.7-0.2c0.8,0,2.3,0.1,4.2,0.3c7.4,0.6,21.2,1.6,34.7-0.3c12.5-1.8,18.6-0.7,19.5,0
		c0.4,0.5,0.8,1.1,1,1.8c0.5,1.3,1.3,3.5,4.3,3.5c0.1,0,0.1,0,0.2,0c1.1-0.1,28.3-2.5,44.9-7.2c22.1-6.3,27-9.4,28.8-11.1
		c2.1-2.1,1.7-7.6,0.4-18.9c-0.4-3.8-0.8-7.4-0.8-9.5c0-5.3,2.3-8.1,2.6-8.4c0.2-0.1,0.3-0.3,0.5-0.4c0,0,0,0,0,0c0,0,0,0,0,0
		C238,91.8,238,90.5,238,89.7z M229.6,94.2C229.5,94.2,229.5,94.2,229.6,94.2c-2.9,2.4-7,4.2-11.7,5.8l0.4-17.3
		c3.3-1.2,9.4-6.8,13.7-12.2c0.1,5.7,1.1,12.8,1.7,16.8c0.1,0.8,0.3,1.7,0.3,2.2C232.6,91.1,231.1,92.7,229.6,94.2z M217.3,102.7
		L217.3,102.7C217.3,102.7,217.3,102.7,217.3,102.7L217.3,102.7z M214.3,107.1c0.4,0.5-0.2,4.1-0.6,6.8c-0.5,2.5-0.8,5-0.9,7.5
		c-0.1,0-0.2,0.1-0.3,0.1c0.3-3,0.9-11.2,0.5-15.9c0.1,0,0.3-0.1,0.4-0.1C213.6,106.1,213.9,106.7,214.3,107.1z M211.9,123
		L211.9,123C211.9,123,211.9,123,211.9,123C211.9,123,211.9,123,211.9,123z M202.1,125.3c-0.8,0.6-1.5,1.2-4.6,2
		c-6.4,1.7-32.2,3.4-38,3.8c0.2-3.5,1-14.1,1.1-19.4c6.5-0.2,23.7-0.8,33.6-2.4c6-1,12.1-2.1,17.7-3.5c0.4,4.8-0.3,13.5-0.5,16
		c-0.2,0.1-0.4,0.1-0.7,0.2C204.6,123.4,203.3,124.4,202.1,125.3z M158.5,133.2L158.5,133.2C158.5,133.2,158.5,133.2,158.5,133.2
		C158.5,133.2,158.5,133.2,158.5,133.2z M155.4,129.2c0-3.4,0.3-6.8,0.7-10.2c0.3-2.5,0.5-5,0.6-7.5c0.5,0.2,1,0.3,1.5,0.3
		c0.1,0,0.2,0,0.4,0c-0.1,5-0.8,14.9-1,18.8L155.4,129.2z M92,127.1c-2.3-2.3-27.7-2.4-27.9-2.4c-3.7,0-7.5-1-11.9-2.2
		c-5-1.5-10.1-2.4-15.2-2.8c-0.3-2.3-0.5-4.7-0.6-7c-0.1-3.9-0.1-4.3-1.6-5.5c-0.2-0.2-0.4-0.3-0.7-0.6c0,0,0,0,0,0c0,0,0,0,0,0
		c-0.8-0.7-1.1-1.9-1.2-2.9c1.7,0.1,3.4,0.2,5.1,0.2c2.2,0,5,0.1,8.3,0.4c5.6,8.2,28.8,19.5,36.6,20.2c4.3,0.4,9.3,0.7,14.6,0.7
		c16.5,0,35.3-3,40.6-15.6c6.3-0.1,13.2-0.3,15.8-0.3c0.3,0.4,0.6,0.8,0.9,1.1c-0.1,2.8-0.3,5.6-0.7,8.4c-0.4,3.2-0.7,6.5-0.7,9.8
		c-1.5-0.3-4.3-0.8-8.1-1.4c-6.2-1-34-1-34.2-1c-1.2,0-3.5,0.2-6.2,0.5C100.7,127,93.1,127.7,92,127.1z M36.6,121.3L36.6,121.3
		C36.6,121.3,36.6,121.3,36.6,121.3C36.6,121.3,36.6,121.3,36.6,121.3z M33.2,121L33.2,121C33.2,121,33.2,121,33.2,121
		C33.2,121,33.2,121,33.2,121z M34.3,108.2c1,0.8,1,1,1,4.5c0,2.3,0.2,4.6,0.6,6.9c-0.4,0-0.8-0.1-1.1-0.1c-0.3,0-0.7,0-1,0
		C34,117.3,34.6,111.9,34.3,108.2z M18.2,101.3L18.2,101.3C18.2,101.3,18.2,101.3,18.2,101.3C18.2,101.3,18.2,101.3,18.2,101.3z
		 M8.7,95.7c-0.6-0.3-1.2-0.5-1.8-0.6c-0.2-3-0.2-6,0-9c0.1-2.4,0.2-4.9,0.2-7.2c0-4.8-1.2-6.3-2.5-7.5c-0.2-0.1-0.3-0.3-0.4-0.4
		c2,0.1,3.9,0.6,5.7,1.5c1.1,0.6,2,1.3,2.7,2.3c0.5,0.6,1,1.1,1.7,1.6c0.6,0.9,1.8,5.3,2.3,12.7c0.1,2.5,0.1,4.9,0,7.4
		c0,0.4,0,0.7-0.1,1C13.3,96.9,10.5,96.2,8.7,95.7z M18.6,97.9c0-0.4,0-0.8,0.1-1.3c0.2-2.5,0.2-5.1,0-7.6c-0.3-4.8-1-9.2-1.8-11.8
		c0.4,0,0.8,0.1,1.3,0.1c0.9,0,1.9,0,3-0.1c4.9-0.3,9.7-0.1,14.6,0.6c2.5,4.9,8.2,17,9.1,22.4c-2.7-0.2-4.9-0.3-6.9-0.3
		C31.2,99.9,24.2,98.9,18.6,97.9z M37.6,78L37.6,78C37.6,78,37.6,78,37.6,78C37.6,78,37.6,78,37.6,78z M76.5,80.5
		c2.4,0.7,4.7,1.9,6.7,3.5c3.5,2.5,7.1,5,16.2,5l0,0c7.5,0,15-0.8,22.3-2.2c3.7-0.8,7.4-1.2,11.2-1.4c0.1,0.3,0.2,0.5,0.4,0.7
		c0.2,0.3,6,7.3,1.5,20.8c-0.1,0.3-0.3,0.7-0.4,1c-4,2.5-15.4,8.1-35.8,8.1c-20.8,0-33.3-13.3-36.2-16.8c8.2-2.4,16.3-5.3,24.2-8.7
		c0,0,0,0,0,0c0.3-0.1,0.4-0.4,0.3-0.7c0,0,0,0,0,0c-0.1-0.3-0.4-0.4-0.7-0.3C78.3,93.1,70.2,96,62,98.4c-0.1-0.1-0.2-0.2-0.3-0.2
		c-0.2-0.8-0.5-2.2-1-4.9c-0.8-4-2.9-10.4-3.5-12.5C60.4,80.2,70.4,78.8,76.5,80.5z M146.4,89c0.3,3.2,0.5,6.4,0.5,9.7
		c-0.1,2-0.3,3.9-0.6,5.9c0,0.3,0.1,0.5,0.4,0.6h0.1c0.2,0,0.5-0.2,0.5-0.4c0.3-2,0.5-4,0.6-6c0-3.3-0.1-6.5-0.5-9.8
		c1.7-0.1,5.9-0.4,9.7-0.6l-1.1,14.4c0,0.3,0.2,0.5,0.5,0.5h0c0.3,0,0.5-0.2,0.5-0.5l1-14.3c0.4,0.2,0.7,0.4,1,0.7
		c0.5,0.6,1.1,1,1.8,1.2l-1.6,15.5c0,0,0,0,0,0c-0.1,0.5,0.3,1,0.9,1.1c0,0,0.1,0,0.1,0c0.5,0,0.9-0.4,1-0.9l1.6-15.4
		c1-0.1,2.2-0.2,3.3-0.3c1.6-0.2,3.3-0.4,4.9-0.4c7.6,0.1,15.2-0.3,22.7-1.3c3.5-0.6,6.4-1.1,7.9-1.4v16.6c-2.7,0.5-5.5,1-8.2,1.4
		c-11.4,1.9-33.2,2.4-35.3,2.4c-0.6-0.2-1.2-0.7-1.4-1.3c-0.3-0.8-1.1-1.2-1.9-1.2c-0.1,0-8,0.2-15.6,0.3c2.3-8.9,0.6-15.2-1-18.7
		c0.4,0.1,0.8,0.2,1.1,0.4C142,88.1,144.6,88.9,146.4,89z M60.5,100.2c2.5,3.1,15.7,17.8,38.1,17.8l0,0c17,0,27.9-3.8,33.6-6.6
		c-9.4,11.2-36.7,10.1-49,9c-8-0.7-28.5-12-33.2-17.6C52.2,102.4,55.9,101.5,60.5,100.2z M203.8,103.5V86.2c0.3-0.5,0.8-0.8,1.4-0.9
		c0.5-0.1,1.3-0.2,2.2-0.4c3.3-0.4,6.6-1.1,9.9-2l-0.4,17.3C212.8,101.5,208.4,102.6,203.8,103.5z M232,67.1
		C232,67.1,232,67.1,232,67.1c-4.2,5.9-11.5,12.7-14.6,13.8c-3.4,1-6.9,1.7-10.4,2.1c-1,0.2-1.8,0.3-2.3,0.4
		c-1.1,0.2-2.1,0.8-2.8,1.8c-1.2,0.2-4.3,0.8-8.5,1.5c-7.4,1-14.9,1.5-22.4,1.3c-1.7,0-3.4,0.2-5.1,0.4c-1.5,0.2-2.9,0.3-4,0.4h0
		c-0.6-0.2-1.1-0.5-1.6-1c-0.7-0.8-1.7-1.3-2.7-1.4c-4.4,0.2-9.7,0.6-10.9,0.7c-1.4,0.1-4.2-0.8-6.7-1.7c-0.6-0.2-1.2-0.4-1.8-0.6
		l14.2-11.3c4.6-0.2,9.5-0.4,14.3-0.5c22.6-0.6,37.7-1.5,42.2-6.8c1.1-1.2,1.6-2.9,1.3-4.5c0,0,0,0,0-0.1c-0.1-1.3-0.2-2.5-0.2-3.7
		C215.9,62.8,227,65.9,232,67.1z M163.4,33.8c-0.1-0.4-0.1-0.8-0.2-1.2l0.7-0.4c0,0.1,0,0.2,0,0.4c0,0.2,0.3,0.4,0.5,0.4l0,0
		c0,0,0.1,0,0.1,0c0,0,0,0,0,0c0.3-0.1,0.4-0.3,0.4-0.6c0-0.2-0.1-0.4-0.1-0.6l0.9-0.4c0.1,0.2,0.3,0.3,0.4,0.3h0.1
		c1.2-0.2,2.3-0.6,3.3-1.3c0,0,0,0,0,0c0.2-0.2,0.3-0.5,0.1-0.7c0,0,0,0,0,0c-0.1-0.1-0.2-0.1-0.3-0.2l5.1-2.6
		c0,0.4,0.1,0.7,0.1,1.1c0,0.3,0.2,0.5,0.5,0.5h0c0.3,0,0.5-0.2,0.5-0.5c0-0.5-0.1-1-0.1-1.6l0.5-0.2c0.1,0.6,0.1,1.2,0.2,1.8
		c-0.2,0.1-0.3,0.4-0.3,0.6c0.1,0.4,0.2,0.8,0.3,1.2c-1.6,1.2-3.3,2.2-5.1,2.9c-0.3,0.1-0.4,0.4-0.3,0.6c0.1,0.2,0.3,0.3,0.5,0.3
		l0,0c0.1,0,0.1,0,0.2,0c1.8-0.7,3.5-1.6,5-2.7c0.2,0.9,0.3,1.9,0.3,2.8c0,0,0,0.1,0,0.1c-4.3,0.4-8.8,0.6-13.5,0.5
		C163.4,34.1,163.4,34,163.4,33.8z M177.4,25.4C177.4,25.4,177.4,25.4,177.4,25.4l0.1,0c0.1,0,0.1,0,0.2,0c0,0.4,0,0.7,0,1.1
		c-0.2,0.1-0.2,0.3-0.2,0.5c0.1,0.2,0.3,0.3,0.5,0.3l0,0c0,0,0,0,0,0c0,0,0.1,0,0.1,0c-0.1,0.5-0.1,1-0.1,1.5c0,0,0,0,0-0.1
		c-0.2-0.2-0.5-0.2-0.7,0c-0.1,0.1-0.2,0.1-0.2,0.2c0-0.1,0-0.1-0.1-0.2c0.2-0.1,0.3-0.3,0.2-0.5c-0.2-0.8-0.3-1.7-0.3-2.6
		L177.4,25.4z M178.9,34.5L178.9,34.5C178.9,34.5,178.9,34.5,178.9,34.5C178.9,34.5,178.9,34.5,178.9,34.5z M178,29.5
		c0,1.4,0.1,2.7,0.3,4.1c-0.2,0-0.4,0-0.6,0.1c0,0,0,0,0,0c-0.1-1.2-0.2-2.3-0.5-3.5C177.6,29.9,177.8,29.7,178,29.5
		C178,29.5,178,29.5,178,29.5z M164.4,38.3c9.7,0,18.8-0.9,26.8-2.6c-2.5,8.9-2.3,20.9-2.3,21c0,0.3,0.2,0.5,0.5,0.5h0
		c0.3,0,0.5-0.2,0.5-0.5c0-0.1-0.2-12.4,2.4-21.2c3-0.6,5.8-1.4,8.4-2.3c-5.7,11.3-4.6,28-4.1,33.7c-8.1,1.3-19.8,1.7-29.8,1.9
		c-4.3,0.1-8.6,0.2-12.7,0.4c0.9-10.4,1.2-20.9,0.7-31.3C158,38.1,161.2,38.3,164.4,38.3z M192.7,26.2c0-0.1-0.4-1.2-0.4-2.7
		c1.5-0.6,5-2,7.2-3.9c0,0,0,0,0,0c0.6,0,1.2,0.1,1.8,0.1c-1.5,1.2-3.3,2.3-5.1,3c-0.1-0.1-0.1-0.1-0.2-0.2
		c-0.3-0.1-0.5,0.1-0.6,0.4c-0.2,0.7-0.3,1.5-0.5,2.3c-0.4,0.1-0.9,0.3-1.3,0.3c-0.2,0-0.4,0.2-0.4,0.5c0,0.1,0,0.2,0,0.2
		c-0.1,0-0.2,0-0.3,0C192.8,26.1,192.8,26.2,192.7,26.2z M194.4,19.9c-0.2-0.2-0.5-0.3-0.7-0.1c-0.1,0.1-0.2,0.1-0.4,0.2
		c0.2-0.3,0.4-0.6,0.6-0.8c1.4,0.1,2.7,0.2,4.1,0.3c-1.8,1.3-4.2,2.4-5.6,3c0.1-0.3,0.1-0.7,0.2-1c0.6-0.2,1.1-0.5,1.6-0.8
		C194.5,20.4,194.6,20.1,194.4,19.9z M190.4,28.4L190.4,28.4C190.4,28.4,190.4,28.4,190.4,28.4C190.4,28.4,190.4,28.4,190.4,28.4z
		 M190.7,18.9c0.7,0.1,1.3,0.1,2,0.1c-0.4,0.5-0.6,1-0.9,1.5c-0.4,0.1-0.7,0.2-1.1,0.3c-0.1,0-0.2,0-0.2,0.1
		C190.6,20.3,190.7,19.6,190.7,18.9z M202,23.3c-0.2-0.1-0.3,0-0.5,0.1c-1.7,1.4-4.2,2.7-5.9,3.4c0-0.3,0.1-0.6,0.1-0.9
		c0.4-0.2,0.8-0.4,1.2-0.6c0.2-0.2,0.3-0.5,0.1-0.7c-0.2-0.2-0.5-0.3-0.7-0.1c-0.2,0.1-0.3,0.2-0.5,0.3c0.1-0.3,0.1-0.6,0.2-0.9
		c2.2-0.8,4.2-2,6-3.6c0,1.7-0.1,2.9-0.1,3C202,23.2,202,23.3,202,23.3z M195.5,32.6L195.5,32.6C195.5,32.6,195.5,32.6,195.5,32.6
		C195.5,32.6,195.5,32.6,195.5,32.6z M195.8,30.5c-0.1-0.9-0.2-1.7-0.1-2.6c0.3-0.1,0.7-0.3,1.1-0.5c-0.3,0.9-0.3,1.9-0.2,2.9
		C196.3,30.3,196,30.4,195.8,30.5z M193.6,26.4L193.6,26.4L193.6,26.4c0.4-0.1,0.8-0.1,1.1-0.2c0,0.3,0,0.7-0.1,1
		c-0.4,0.1-0.6,0.2-0.6,0.2c0,0,0,0,0,0c-0.1,0-0.2,0.1-0.2,0.2c-0.1-0.4-0.2-0.8-0.3-1.2c0,0,0,0,0,0
		C193.5,26.4,193.5,26.4,193.6,26.4z M193.9,28.3c0.1,0,0.2,0.1,0.3,0.1h0c0.1,0,0.1,0,0.2,0c0,0,0.1,0,0.3-0.1
		c0,0.8,0.1,1.7,0.2,2.5c-0.2,0-0.3,0.1-0.5,0.1C194.2,30,194.1,29.1,193.9,28.3z M197.7,69.7L197.7,69.7
		C197.7,69.7,197.7,69.7,197.7,69.7C197.7,69.7,197.7,69.7,197.7,69.7z M212.4,34.8c-3.3,6.8-7.1,14.5-6,27.2c0,0,0,0.1,0,0.1
		c0,0,0,0,0,0c0.1,0.5-0.1,1-0.4,1.4c-1.1,1.4-3.8,2.3-7.4,3.1c-0.6-6-1.5-23.9,4.9-34.3c5.2-1.9,9.6-4.3,12.9-7
		C215.5,28.5,214.1,31.5,212.4,34.8z M206.9,21.9c0,0-0.1-0.2-0.2-0.6c1-0.2,2-0.6,2.9-1.1c0.6,0,1.1,0.1,1.7,0.1
		c-2.2,1.2-4.4,2-4.5,2c0,0-0.1,0-0.1,0.1C206.9,22.3,207,22.1,206.9,21.9z M206.6,20c0.3,0,0.7,0,1,0.1c-0.3,0.1-0.7,0.2-1,0.3
		C206.6,20.2,206.6,20.1,206.6,20z M204.6,24.1L204.6,24.1C204.6,24.1,204.6,24.1,204.6,24.1C204.6,24.1,204.6,24.1,204.6,24.1z
		 M203.7,19.8c0.1,1.3,0.2,2.6,0.4,3.9c0,0.1,0.1,0.2,0.2,0.3c-1.7,1.5-3.7,2.6-5.8,3.4c-0.2,0.1-0.3,0.3-0.3,0.5
		c0,0.3,0.2,0.5,0.5,0.5h0c0.1,0,0.1,0,0.2,0c2.4-0.9,4.7-2.3,6.6-4c0.2-0.2,0.2-0.5,0-0.7c-0.1-0.1-0.2-0.1-0.3-0.2
		c-0.2-1.2-0.3-2.4-0.4-3.6c0.3,0,0.5,0,0.8,0.1c0.1,1.3,0.4,2.2,0.5,2.3c0.1,0.2,0.3,0.3,0.5,0.3l0,0c0.1,0,0.1,0,0.2,0
		c0,0,0.1,0,0.1-0.1c-0.1,0.1-0.1,0.2-0.1,0.3c0,0.3,0.2,0.5,0.5,0.5h0c0.1,0,0.1,0,0.2,0c0.2-0.1,3.2-1.2,5.9-2.8
		c0.6,0.1,1.2,0.1,1.7,0.1c-1.1,0.7-2.2,1.2-3.4,1.7c-0.3,0.1-0.4,0.4-0.3,0.6c0.1,0.2,0.3,0.3,0.5,0.3h0c0.1,0,0.1,0,0.2,0
		c0.5-0.2,0.9-0.4,1.3-0.6c-3.8,2.9-9.1,5.4-15.5,7.3c-0.1-0.9,0-1.9,0.3-2.7c0-0.1,0-0.2,0-0.4c1.5-0.7,3.1-1.7,4.4-2.7
		c0.1-0.1,0.2-0.3,0.2-0.5c0,0,0.1,0,0.1,0h0.1l0,0c0.2,0,0.5-0.2,0.5-0.4c0-0.1,0.2-1.6,0.2-3.5C203.4,19.8,203.5,19.8,203.7,19.8z
		 M188.3,28.1L188.3,28.1C188.3,28.1,188.3,28.1,188.3,28.1C188.3,28.1,188.3,28.1,188.3,28.1z M182.5,27.4L182.5,27.4
		c0.1,0,0.1,0,0.2,0c1.9-0.7,3.7-1.7,5.3-2.9c0,1.8-0.1,3-0.1,3c0,0,0,0,0,0c0,0,0,0.1,0,0.1c-2.2,1.8-5.8,3.3-6.9,3.7
		c0-0.3,0-0.7,0.1-1c0.9-0.2,1.7-0.6,2.5-1.1c0,0,0,0,0,0c0.2-0.2,0.3-0.5,0.1-0.7c0,0,0,0,0,0c-0.2-0.2-0.5-0.3-0.7-0.1
		c-0.5,0.3-1.1,0.6-1.7,0.8c0,0,0-0.1,0-0.1c0.1-0.3,0-0.5-0.3-0.6c-0.3-0.1-0.5,0-0.6,0.3c-0.1,0.2-0.1,0.5-0.2,0.7
		c0,0-0.1,0-0.1,0c-0.2,0-0.4,0.2-0.4,0.5c0,0.2,0.1,0.4,0.3,0.5c-0.1,0.7-0.1,1.5,0.1,2.2c0,0.2,0.3,0.4,0.5,0.4l0,0
		c0,0,0.1,0,0.1,0c0,0,0,0,0,0c0.3-0.1,0.4-0.3,0.4-0.6c0,0,0-0.1,0-0.1c0.8-0.3,5.1-1.9,7.7-4.2c0.2-0.1,0.2-0.4,0.1-0.6
		c0-0.2,0.2-1.8,0.1-4c0.1-0.1,0.2-0.2,0.3-0.3c0.2-0.2,0.2-0.5,0-0.7c-0.1-0.1-0.3-0.2-0.4-0.1c-0.1-0.9-0.2-1.8-0.4-2.7l1.3-0.6
		c-0.5,5,0.2,8.8,0.2,8.8c0,0.2,0.2,0.3,0.3,0.4c-1.6,1.3-3.4,2.3-5.3,3c-0.3,0.1-0.4,0.4-0.3,0.6c0.1,0.2,0.3,0.3,0.5,0.3l0,0
		c0.1,0,0.1,0,0.2,0c2.4-0.9,4.7-2.3,6.6-4c0.2-0.2,0.2-0.5,0-0.7s-0.5-0.2-0.7,0c-0.1,0.1-0.2,0.2-0.3,0.2c0,0,0,0,0-0.1
		c0-0.1-0.5-2.5-0.4-6.1c0.1,0.1,0.2,0.1,0.3,0.1l0,0c0,0,0,0,0.1,0c0.2,0,0.4-0.1,0.6-0.1c-0.1,0.4-0.1,0.7-0.2,1.1c0,0,0,0,0,0
		c0,0,0,0,0,0c-0.3,0.1-0.4,0.4-0.3,0.6c0,0.1,0.2,0.2,0.3,0.3c0,1.6,0.4,2.7,0.5,2.8c0.1,0.2,0.3,0.3,0.5,0.3c0.1,0,0.1,0,0.2,0
		c0,0,0.1,0,0.1-0.1c0.4,1.4,0.7,2.8,0.8,4.3c-4.3,1-9,1.8-14,2.4c-0.4-2.1-0.4-4.3-0.1-6.5c1.6-0.6,4.8-2,6.8-3.8
		c0.2-0.2,0.2-0.5,0.1-0.7s-0.5-0.2-0.7-0.1c-1.7,1.5-4.3,2.7-5.9,3.4c0.1-0.3,0.1-0.6,0.2-0.9c0,0,0,0,0,0c0,0,0-0.1,0-0.1
		c0.4-0.2,0.8-0.4,1.2-0.6c0.2-0.1,0.3-0.4,0.2-0.6l6.5-3.3c0.2,1,0.3,2,0.4,2.9c-1.7,1.4-3.5,2.5-5.5,3.2c-0.2,0.1-0.3,0.3-0.3,0.5
		C182,27.2,182.2,27.4,182.5,27.4z M162.2,33.1c0.1,0.3,0.1,0.6,0.2,0.9c0,0,0,0.1,0.1,0.1c-0.8,0-1.5,0-2.3,0l0.6-0.3
		c0.1,0.1,0.2,0.2,0.4,0.2l0,0h0c0,0,0,0,0,0c0.3,0,0.5-0.2,0.5-0.5c0-0.1,0-0.1,0-0.2L162.2,33.1z M150.9,43.9
		c0.1,5.3-0.1,10.6-0.3,16c-5.3,1.9-12.5,4.9-20.2,8.4c-0.2,0.1-0.3,0.3-0.3,0.5c0,0.3,0.2,0.5,0.5,0.5c0.1,0,0.1,0,0.2,0
		c9.5-4.3,16-6.9,19.7-8.3c-0.2,3.1-0.4,6.3-0.7,9.4l-16.3,12.9c0,0,0,0,0,0c-0.4,0.3-0.6,0.7-0.7,1.1c-3.8,0.2-7.6,0.7-11.3,1.4
		c-7.3,1.4-14.7,2.2-22.1,2.2c-8.7,0-12.2-2.5-15.6-4.8c-2.1-1.6-4.5-2.9-7-3.7C71,78,62.2,79,58.2,79.6c2.1-2.1,6.6-5.2,18.3-6
		c15.4-1.1,24-5.6,28.6-9.2c3.8-3.1,14.2-9.2,21.9-10.2c6.4-0.9,18.2-6.8,22-11.3C149.6,43.3,150.2,43.6,150.9,43.9z M142.9,27.4
		c0.4,4.9,0.6,8.2,1.2,9.9c0.7,1.8,1.9,3.3,3.3,4.5c-3,3.4-13.7,9.5-20.7,10.4c-7.8,1.1-18.3,7-22.9,10.7
		c-4.3,3.5-12.6,7.8-27.5,8.8c-14.9,1-18.9,5.8-20.7,7.8c-0.1,0.2-0.2,0.3-0.3,0.4c-0.2,0.3-0.3,0.7-0.2,1c0,0.1,2.7,8.3,3.7,12.9
		c0.5,2.5,0.8,3.9,1,4.7c-4.9,1.4-8.7,2.2-10.7,2.7c0,0,0,0,0,0c-0.3-5.5-6.4-18.5-8.9-23.6l23.5-10.2c6.1-2,22.8-7.4,38.1-12.8
		c0,1.7,0.7,3.3,1.8,4.6c0.1,0.1,0.2,0.1,0.3,0.1c0.1,0,0.3,0,0.4-0.1c0,0,0,0,0,0c0.2-0.2,0.2-0.5,0-0.7c-1-1.2-1.6-2.7-1.5-4.2
		c10.7-3.8,20.6-7.6,25.8-10.3c0,0,0,0,0,0c0.5-0.3,0.7-0.9,0.4-1.3c0,0,0,0,0,0c-0.3-0.5-0.9-0.7-1.3-0.4
		c-4.9,2.5-14.4,6.2-24.7,9.9c0.2-2.4,0.2-4.8-0.1-7.2c0,0,0,0,0,0c0-0.3-0.3-0.5-0.6-0.4c-0.3,0-0.5,0.3-0.4,0.6
		c0.3,2.5,0.3,4.9,0.1,7.4c-13.8,4.9-28.8,9.8-36.3,12.3c1.3-3.5,4.2-12.3,4.2-17.9c0-0.5,0-1.1-0.1-1.7c7.7-1.4,36.6-7.1,58.6-17.3
		c0,0,0,0,0,0c0.2-0.1,0.4-0.4,0.2-0.7c-0.1-0.2-0.4-0.4-0.7-0.2c-21.9,10.2-50.7,15.8-58.3,17.2c-0.9-4.5-3.8-9.7-6-13.7
		c-0.7-1.3-1.5-2.7-1.9-3.6c2.6-0.9,10.5-1.7,18.2-2.5c5.9-0.6,12.6-1.3,19.6-2.2c13.3-1.9,26.2-6,38.2-12c1.9,4.1,4.4,9.6,4.8,11.3
		C142.5,22.4,142.7,24.9,142.9,27.4z M44.1,62L44.1,62C44.1,62,44.1,62,44.1,62C44.1,62,44.1,62,44.1,62z M42.5,23.5
		c4.2,1.6,9.3,3.3,15.4,4.7c0.5,1,1.2,2.3,2.1,4c2.3,4.2,5.8,10.4,5.8,14.4c0,4.9-2.7,12.9-3.9,16.3c-5.3-1.1-10.6-2.1-15.9-2.9
		C51.1,50.5,45.2,31.3,42.5,23.5z M59.2,28.4L59.2,28.4C59.2,28.4,59.2,28.4,59.2,28.4C59.2,28.4,59.2,28.4,59.2,28.4z M60.9,68.1
		L60.9,68.1C60.9,68.1,60.9,68.1,60.9,68.1C60.9,68.1,60.9,68.1,60.9,68.1z M68.5,21c0-0.2,0.3-2.5,0.1-5.2c0.2-0.1,0.4-0.3,0.6-0.4
		c0,1.9,0.1,3.9,0.4,5.8c-0.4,0.1-0.9,0.1-1.3,0.2C68.4,21.3,68.5,21.2,68.5,21z M68.9,12.4c-0.2-0.2-0.5-0.2-0.7-0.1
		c0,0-0.1,0.1-0.1,0.1c-0.2-0.6-0.4-1.3-0.7-1.9c0.8,0,1.6-0.1,2.4-0.1c-0.2,1.2-0.4,2.5-0.4,3.7c-0.3,0.2-0.5,0.4-0.8,0.5
		c-0.1-0.4-0.1-0.8-0.2-1.2c0.2-0.1,0.4-0.3,0.5-0.4C69,12.9,69,12.6,68.9,12.4z M71.5,20c0.1,0.2,0.3,0.3,0.5,0.3l0,0
		c0.1,0,0.1,0,0.2,0c0.1,0,0.2-0.1,0.3-0.3c0,0,0,0,0,0c0.2-0.1,5.1-1.8,7.8-4.2c0,0,0,0,0.1-0.1c0.2-0.2,0.2-0.5,0-0.7
		s-0.5-0.2-0.7,0c-2.4,2.1-6.5,3.6-7.3,4c-0.1-0.3-0.1-0.6-0.2-1c1.1-0.2,2.1-0.6,3-1.2c0.2-0.2,0.3-0.5,0.1-0.7c0,0,0,0,0,0
		c-0.2-0.2-0.5-0.3-0.7-0.1c-0.8,0.5-1.6,0.8-2.5,1c0-1.4,0.4-3.2,1.9-4.8c0,0,0,0,0,0c0.2-0.2,0.2-0.4,0.1-0.6c0-0.1,0.1-0.2,0-0.3
		c-0.1-0.3-0.1-0.7-0.2-1c0.3,0,0.5,0,0.8,0c0.1,0.2,0.2,0.3,0.4,0.3c0,0,0.1,0,0.1,0c0,0,0,0,0,0c0.2,0,0.3-0.2,0.3-0.3
		c2.5-0.1,5.1-0.2,7.6-0.3c-2.7,2-6.7,3.4-6.7,3.4c-0.2,0.1-0.3,0.3-0.3,0.5c0,0.3,0.2,0.5,0.5,0.5l0,0c0.1,0,0.1,0,0.2,0
		c0.2-0.1,4.8-1.7,7.6-4c-0.1,0.5-0.2,1-0.3,1.5c-1,0.6-2.1,1.1-3.2,1.5c-0.2,0.1-0.3,0.3-0.3,0.5c0,0.3,0.2,0.5,0.5,0.5l0,0
		c0.1,0,0.1,0,0.2,0c0.1-0.1,0.3-0.1,0.4-0.2c0.2,0.6,0.3,1.2,0.4,1.8c-1.7,1.4-3.6,2.5-5.6,3.3c-0.2,0.1-0.3,0.3-0.3,0.5
		c0,0.3,0.2,0.5,0.5,0.5l0,0c0.1,0,0.1,0,0.2,0c2-0.7,3.8-1.8,5.5-3.1c0.1,0.7,0.2,1.4,0.2,2.1c0,0.3,0.2,0.5,0.5,0.5v0h0
		c0,0,0,0,0,0c0.3,0,0.5-0.2,0.5-0.5c0-0.9-0.2-1.9-0.3-2.8c0.1-0.1,0.1-0.1,0.2-0.2c0.2-0.2,0.2-0.5,0-0.7
		c-0.1-0.1-0.3-0.2-0.4-0.1c-0.1-0.5-0.2-1-0.4-1.5c0,0,0,0,0,0c0.4-0.2,0.9-0.4,1.3-0.7c-0.2,2.2-0.2,4.4,0.3,6.5
		c0,0.1,0.1,0.1,0.1,0.1c-1.7,0.2-3.4,0.4-5,0.5c-3.4,0.4-6.3,0.7-8.8,0.9c-0.3-2.1-0.4-4.3-0.3-6.4c0.6-0.4,1.1-0.8,1.6-1.3
		C70.3,16.5,71.5,19.8,71.5,20z M73.6,11.9L73.6,11.9C73.6,11.9,73.6,11.9,73.6,11.9C73.6,11.9,73.6,11.9,73.6,11.9z M86.3,9.7
		c0,0.1,0.1,0.3,0.1,0.4c-0.3,0.3-0.7,0.5-1,0.7c0-0.2,0.1-0.4,0.1-0.6c0,0,0,0,0,0c0-0.2,0-0.4-0.2-0.5C85.6,9.8,85.9,9.7,86.3,9.7
		z M84.8,19.9L84.8,19.9C84.8,19.9,84.8,19.9,84.8,19.9C84.8,19.9,84.8,19.9,84.8,19.9z M103.4,17.6L103.4,17.6
		C103.4,17.6,103.4,17.6,103.4,17.6C103.4,17.6,103.4,17.6,103.4,17.6z M129.8,9c0.1,0,0.2,0,0.3,0c-0.2,0.1-0.5,0.2-0.8,0.3
		C129.5,9.2,129.6,9.1,129.8,9z M105.6,9.3c0,0.3,0.2,0.5,0.5,0.5l0,0h0c0.3,0,0.5-0.2,0.5-0.5c0,0,0-0.1,0-0.1c0.2,0,0.4,0,0.6,0
		c0,0.2,0.1,0.4,0.1,0.6c0.1,0.2,0.3,0.4,0.5,0.4c0,0,0.1,0,0.1,0c0,0,0,0,0,0c0.3-0.1,0.4-0.3,0.4-0.6c0-0.1,0-0.2-0.1-0.4
		c2.4,0,4.8-0.1,7.1-0.1c0,0.4,0.1,0.8,0.1,1.2c0,0.3,0.2,0.5,0.5,0.5l0,0h0c0.3,0,0.5-0.2,0.5-0.5c0-0.4-0.1-0.8-0.1-1.2
		c0.2,0,0.3,0,0.5,0c0.1,0.6,0.2,1.1,0.3,1.7c0,0.1,0,0.1,0.1,0.1c0,0,0-0.1-0.1-0.1c-0.2-0.2-0.5-0.2-0.7,0
		c-1.8,1.6-3.9,2.9-6.2,3.8c0,0,0,0,0,0c-0.3,0.1-0.4,0.4-0.3,0.6c0.1,0.2,0.3,0.3,0.5,0.3l0,0c0.1,0,0.1,0,0.2,0
		c2.4-0.9,4.6-2.3,6.6-4c0.2-0.2,0.2-0.4,0.1-0.6c0.1,0.1,0.2,0.2,0.4,0.2c0,0,0.1,0,0.1,0c0,0,0,0,0,0c0.3-0.1,0.4-0.3,0.4-0.6
		c-0.1-0.5-0.2-1-0.2-1.4c0.3,0,0.5,0,0.8,0c0,0.1,0,0.2,0,0.3c0.1,0.2,0.3,0.4,0.5,0.4c0,0,0.1,0,0.1,0c0,0,0,0,0,0
		c0.3-0.1,0.4-0.3,0.4-0.6c0,0,0,0,0-0.1c0.2,0,0.4,0,0.6,0c0.1,0.1,0.2,0.1,0.4,0.1l0,0c0,0,0,0,0.1,0c0.2,0,0.4-0.1,0.6-0.1
		c0.8,0,1.6,0,2.5,0c-1.5,0.7-2.7,1.1-2.7,1.1c-0.2,0.1-0.3,0.3-0.3,0.5c0,0.3,0.2,0.5,0.5,0.5l0,0c0.1,0,0.1,0,0.2,0
		c0.1,0,2.4-0.8,4.6-2.1c0.6,0,1.3,0,1.9,0c-0.8,0.4-1.6,0.8-2.4,1.1c-0.2,0.1-0.3,0.3-0.3,0.5c0,0.2,0.1,0.3,0.2,0.4
		c-5.8,2.2-13.2,4.7-21.4,6.2c0,0,0-0.1,0-0.1c-0.5-2.6-0.5-5.2,0-7.8C104.4,9.2,105,9.2,105.6,9.3C105.6,9.2,105.6,9.3,105.6,9.3z
		 M88.6,14.5c0.1,0.2,0.3,0.4,0.5,0.4c0,0,0.1,0,0.1,0c0.3-0.1,0.4-0.3,0.4-0.6c-0.3-1.5-0.4-3.1-0.4-4.6c0.4,0,0.7,0,1.1,0
		c-0.3,1.1-0.4,2.3-0.2,3.5c0.1,0.2,0.3,0.4,0.5,0.4c0,0,0.1,0,0.1,0c0,0,0,0,0,0c0.3-0.1,0.4-0.3,0.4-0.6c-0.2-1.1-0.1-2.2,0.2-3.3
		c0.2,0,0.4,0,0.5,0c0,0.1,0,0.1,0,0.2c0,0.2,0.2,0.4,0.5,0.4h0h0.1c0.8-0.1,1.6-0.4,2.4-0.7c0.7,0,1.3,0,2-0.1
		c-2.1,1.1-4,1.8-4,1.8c-0.2,0.1-0.4,0.3-0.4,0.5c0,0.3,0.3,0.5,0.5,0.5l0,0c0.1,0,0.1,0,0.2,0c0.2-0.1,3.2-1.1,5.8-2.8
		c0.7,0,1.3,0,2,0c-1.2,0.7-2.4,1.4-3.7,1.9c-0.3,0.1-0.4,0.4-0.3,0.6c0.1,0.2,0.3,0.3,0.5,0.3l0,0c0.1,0,0.1,0,0.2,0
		c1.9-0.7,3.6-1.7,5.2-2.9c0,0,0,0,0,0c-0.5,2.6-0.5,5.4,0.1,8c0,0,0,0,0,0c-1.3,0.2-2.7,0.4-4.1,0.6c-4.7,0.6-9.3,1.1-13.6,1.6
		c0-0.1,0.1-0.2,0-0.3c-0.5-2.3-0.5-4.6-0.2-6.9c0.5-0.3,1-0.7,1.5-1c0.2,0.9,0.3,1.7,0.3,2.6c0,0-0.1-0.1-0.2-0.1c0,0,0,0,0,0
		c-0.3-0.1-0.5,0-0.6,0.3c-0.4,1.3-0.5,2.6-0.3,3.9c0,0.2,0.3,0.4,0.5,0.4c0,0,0.1,0,0.1,0c0.3-0.1,0.4-0.3,0.4-0.6
		c-0.2-1.1-0.1-2.3,0.3-3.4c0,0,0,0,0,0c0,0,0,0,0-0.1c0.1,0.1,0.2,0.1,0.3,0.1l0,0h0c0.3,0,0.5-0.2,0.5-0.5
		c-0.1-1.2-0.2-2.3-0.5-3.5c0.2-0.1,0.3-0.2,0.5-0.4c0.1-0.1,0.2-0.3,0.1-0.5c0,0,0.1,0,0.1,0C88.1,11.3,88.3,12.9,88.6,14.5z
		 M71.5,11c0,0.3,0.2,0.5,0.5,0.5l0,0h0c0.3,0,0.5-0.2,0.5-0.5c0-0.2,0-0.5-0.1-0.7c0.2,0,0.3,0,0.5,0c0.1,0.4,0.1,0.8,0.2,1.3
		c0,0,0,0.1,0,0.1c-0.4,0.4-0.7,0.8-1,1.3c0-0.1,0-0.2-0.1-0.3c-0.2-0.2-0.5-0.2-0.7,0c-0.3,0.3-0.6,0.5-1,0.8c0.1-1,0.2-2,0.4-3
		c0.2,0,0.4,0,0.7,0C71.5,10.6,71.5,10.8,71.5,11z M53.2,16C53.2,16,53.2,16,53.2,16c-0.3,0.3-0.6,0.5-1,0.8
		C52.1,15.9,52,15,52,14.1c0.2-0.1,0.4-0.2,0.8-0.3C52.9,15,53.2,15.9,53.2,16z M52.8,11.8c0,0.3-0.1,0.6-0.1,0.9
		c-0.3,0.1-0.6,0.2-0.8,0.3c0-0.3,0-0.6,0-1C52.2,12,52.5,11.9,52.8,11.8z M53.9,11.4c0.6,0,1.2-0.1,1.8-0.1c-0.7,0.4-1.3,0.7-2,1
		C53.8,12,53.9,11.7,53.9,11.4z M49.3,11.8c0.2,2,0.1,3.7,0,4.5c-0.1,0-0.3,0-0.4,0.1C48,17,47,17.3,46,17.5c-0.3,0-0.5,0.3-0.4,0.6
		c0,0.2,0.2,0.4,0.5,0.4h0.1c1.1-0.2,2.2-0.6,3.2-1.2c0.1,0.1,0.2,0.1,0.3,0.2c0,0,0,0,0.1,0l0,0c0.2,0,0.5-0.2,0.5-0.4
		c0-0.2,0.3-2.5,0.1-5.3c0.1,0,0.1,0,0.2,0c0,0,0,0.1,0,0.1c0,0.3,0.2,0.5,0.5,0.5c0,1.7,0.1,3.4,0.4,5c-2.3,1.3-4.8,2.2-4.8,2.2
		c-0.2,0.1-0.4,0.3-0.4,0.5c0,0.3,0.3,0.5,0.5,0.5l0,0c0.1,0,0.1,0,0.2,0c0.2-0.1,5.1-1.8,7.8-4.2c0.2-0.2,0.2-0.5,0-0.7
		c0,0,0,0,0,0c-0.2-0.2-0.4-0.2-0.6-0.1c-0.1-0.3-0.3-1.1-0.3-2.1c1.2-0.5,2.8-1.3,4.2-2.2c0.7,0,1.4-0.1,2.1-0.1
		c-1.3,0.9-2.7,1.7-4.2,2.2c-0.2,0.1-0.3,0.3-0.3,0.5c0,0.3,0.2,0.5,0.5,0.5l0,0c0.1,0,0.1,0,0.2,0c2.1-0.8,4-1.9,5.7-3.3
		c1.4-0.1,2.9-0.2,4.3-0.3c0.4,0.8,0.7,1.6,0.9,2.5c-2.7,1.9-6.4,3.2-6.5,3.2c0,0,0,0,0,0c-0.3,0.1-0.4,0.4-0.3,0.6
		c0.1,0.2,0.3,0.3,0.5,0.3l0,0c0.1,0,0.1,0,0.2,0c0.2-0.1,3.6-1.3,6.4-3.1c0.1,0.4,0.1,0.7,0.2,1c-0.8,0.4-1.6,0.8-2.4,1.1
		c0,0,0,0,0,0c-0.3,0.1-0.4,0.4-0.3,0.6c0.1,0.2,0.3,0.3,0.5,0.3l0,0c0.1,0,0.1,0,0.2,0c0.7-0.3,1.5-0.6,2.2-1
		c0.2,2.5-0.1,4.5-0.1,4.6c0,0,0,0,0,0c0,0.2,0.1,0.4,0.3,0.5c-2.1,0.3-3.9,0.6-5.3,0.8c1.6-0.8,3-1.8,4.3-3c0.2-0.2,0.2-0.5,0-0.7
		s-0.5-0.2-0.7,0c-1.8,1.6-3.9,2.9-6.2,3.8c-0.3,0.1-0.4,0.4-0.3,0.6c0,0,0,0.1,0.1,0.1c-0.8,0.3-1.3,0.7-1.8,1.1
		c-8.7-2.1-15.3-4.7-19.9-6.8c0.5-0.2,5.1-1.9,7.8-4.2c0.2-0.2,0.2-0.5,0.1-0.7s-0.5-0.2-0.7-0.1c-2.6,2.3-7.5,4-7.5,4c0,0,0,0,0,0
		c-0.2,0.1-0.4,0.3-0.3,0.6c-0.6-0.3-1.2-0.6-1.8-0.9c0.2-0.1,0.4-0.3,0.3-0.6c-0.1-0.6-0.2-1.3-0.3-2c0.2,0,0.5-0.1,0.8-0.1
		c0,0.3,0.1,0.6,0.1,0.9c0,0.2,0.2,0.3,0.3,0.4c0,0.1,0,0.1,0,0.2c0,0.3,0.2,0.5,0.5,0.5h0.1c1.2-0.2,2.3-0.6,3.3-1.3
		c0.2-0.2,0.3-0.5,0.1-0.7c-0.2-0.2-0.5-0.3-0.7-0.1c-0.8,0.5-1.7,0.8-2.6,1c0-0.1,0-0.1,0-0.2c0-0.3-0.1-0.6-0.1-0.9
		C40.6,12.7,44.6,12.2,49.3,11.8z M35.5,16.1L35.5,16.1C35.5,16.1,35.5,16.1,35.5,16.1C35.5,16.1,35.5,16.1,35.5,16.1z M37.1,14.7
		L37.1,14.7C37.1,14.7,37.1,14.7,37.1,14.7C37.1,14.7,37.1,14.7,37.1,14.7z M34.7,13.7c0.1,0.7,0.2,1.3,0.3,2
		c-0.2-0.1-0.5-0.2-0.7-0.4c0,0,0-0.1,0-0.1c0-0.5-0.1-0.9-0.1-1.4C34.4,13.8,34.6,13.8,34.7,13.7z M33.3,14.8
		c-0.3-0.2-0.6-0.3-0.8-0.5c0.2-0.1,0.5-0.2,0.8-0.2C33.3,14.3,33.3,14.6,33.3,14.8z M33.7,21.5c-0.4-0.8-0.7-1.7-1.1-2.5
		c1.9,1,4.3,2.2,7.3,3.5c2.3,6.2,9.7,28.2,3.9,37.2c-1.6-0.2-3.1-0.4-4.7-0.6c0.7-1.9,1.1-4.6,1.3-8.1c0.3-4,0.1-8.1-0.4-12.1
		C38.7,32.8,35.9,26.5,33.7,21.5z M31.8,63.5c2.6-0.4,3.6-0.6,4.1-0.7c0.1,0,0.2-0.1,0.3-0.1c6.8,0.8,13.6,1.9,20.3,3.2l-20,8.7
		c0,0-0.1,0-0.1,0.1c-0.4,0.2-0.8,0.6-0.9,1c-4.8-0.6-9.6-0.8-14.4-0.5c-1.1,0-2.1,0.1-2.9,0.1c-1,0.1-1.9-0.1-2.7-0.6c0,0,0,0,0,0
		c-0.5-0.3-0.9-0.7-1.2-1.2c-0.9-1.1-2-2-3.3-2.7c-1.7-0.8-3.5-1.4-5.4-1.6C8.3,67.9,15.4,66,31.8,63.5z M31.8,103.7
		c0.1,1.2,0.4,2.6,1.4,3.6c0.4,3.6-0.2,9.7-0.4,12.1c-8.7-0.8-18.6-5.2-22.8-7.2c0.2-2.7,0.6-6.1,1.1-10.2c0.1-0.7,0.1-1.2,0.2-1.6
		C16.2,101.6,23.8,103.1,31.8,103.7z M19.8,134c-2,0-2.5-0.4-2.5-4.2c0-3.4-2.7-4.4-4.5-5c-1-0.3-1.9-0.8-2.8-1.4
		c-0.3-0.6-0.7-2.7-0.2-9c5,2.4,15.7,6.9,24.9,7.2c3.2,0.2,6.4,0.6,9.6,1.2c1.4,5.4,1.4,13.8,1.3,17.7c-3.7-1-7.5-2-10.8-2.9
		C26.2,135.2,21.6,134,19.8,134z M84.2,143.8c-5.5,0.2-13,0.4-19.2,0.4c-3.7,0-11-1.6-18.4-3.5c0.1-3.7,0.1-12.1-1.2-17.8
		c2.1,0.4,4.2,0.9,6.3,1.6c4.4,1.1,8.5,2.2,12.4,2.2c10.5,0,25.1,0.9,26.5,1.8c0,0,0.1,0.1,0.1,0.1c-0.9,3.4-0.2,5.2,0.2,5.8
		c0.2,0.8,0.3,1.7,0.3,2.5c0,1.3,0.2,2.6,0.4,3.9c0.2,1,0.7,1.9,1.2,2.6c-0.3,0-0.5,0-0.7,0C90.5,143.6,87.7,143.7,84.2,143.8z
		 M95.6,145.8C95.6,145.8,95.6,145.8,95.6,145.8C95.6,145.8,95.6,145.8,95.6,145.8L95.6,145.8z M130.3,143.6
		c-13.1,1.9-26.6,0.8-33.8,0.3c-0.2,0-0.4,0-0.6,0c-1.2-0.7-2.1-1.9-2.5-3.2c-0.2-1.2-0.3-2.4-0.3-3.7c0.1-1.2-0.1-2.3-0.5-3.4
		c-0.3-0.6-0.5-2.1,0-4.3c2.1,0.2,5.9,0,12.4-0.7c2.6-0.3,4.9-0.5,6-0.5c5.8,0,28.6,0.2,33.9,1c4,0.6,7,1.2,8.4,1.5
		c-0.2,5.5-2.6,10.2-4,12.5C143.5,141.9,133.8,143.1,130.3,143.6z M151.4,143.7c1.4-2.5,3.5-6.9,3.9-12.2l2.2,1.3
		c0.6,3.1,1.7,10.2,1.1,12.6c-0.4,1.3-1.1,2.4-2,3.3c-0.5,0-0.8,0.1-1,0.1c0,0-0.1,0-0.1,0c-0.2-0.3-0.3-0.6-0.4-0.9
		c-0.4-1.2-1-2.3-1.9-3.2C152.8,144.3,152.1,143.9,151.4,143.7z M155.6,151.8C155.6,151.8,155.6,151.8,155.6,151.8
		C155.6,151.8,155.6,151.9,155.6,151.8L155.6,151.8z M199.6,141.9c-12.5,3.6-32,5.8-40.2,6.7c0.5-0.8,0.9-1.7,1.2-2.6
		c0.7-2.9-0.4-10-0.9-12.8c5.8-0.4,31.7-2.1,38.4-3.9c3.5-0.9,4.4-1.6,5.4-2.4c0.5-0.4,1-0.8,2-1.2c-0.3,3.1-0.7,9.9-0.1,14.6
		C203.5,140.8,201.6,141.3,199.6,141.9z M206.5,142.9C206.5,142.9,206.5,142.9,206.5,142.9C206.5,142.9,206.5,142.9,206.5,142.9
		L206.5,142.9z M226.6,131.8c-1.2,1.1-5.3,3.5-19.4,7.8c-0.5-5,0.1-12.5,0.3-14.7c1-0.3,2.2-0.7,3.8-1.1c7.2-1.8,12.2-3.9,14.9-5.2
		C226.7,123.8,227.3,130.4,226.6,131.8z M225.9,116.1c0,0.1,0,0.3,0,0.4c-2.1,1-6.2,2.9-12.1,4.6c0.1-2.4,0.4-4.7,0.9-7
		c0.8-5,1-7,0.3-7.7c-0.3-0.3-0.5-0.8-0.7-1.3c4.1-1.1,7.9-2.4,11.3-3.9c-0.4,1.4-0.6,3.1-0.6,4.9
		C225,108.5,225.4,112.2,225.9,116.1z"/>
	<path d="M79.7,10.3c-0.2-0.2-0.5-0.3-0.7-0.1c-0.9,0.6-1.9,0.9-2.9,1.1c-0.3,0-0.5,0.3-0.5,0.5c0,0.3,0.3,0.5,0.5,0.5l0,0
		c0,0,0,0,0.1,0c1.2-0.2,2.3-0.6,3.3-1.3C79.8,10.8,79.8,10.5,79.7,10.3z"/>
	<polygon points="103.9,59.1 103.9,59.1 103.8,59.1 	"/>
	<path d="M166.8,33.6L166.8,33.6c0.1,0,0.1,0,0.2,0c0.2-0.1,5.1-1.8,7.8-4.2c0.2-0.2,0.2-0.5,0-0.7c0,0,0,0,0,0
		c-0.2-0.2-0.5-0.2-0.7,0c-2.6,2.3-7.5,4-7.5,4c-0.2,0.1-0.4,0.3-0.4,0.5C166.3,33.4,166.5,33.6,166.8,33.6z"/>
	<path d="M55.3,22.8c0,0.3,0.2,0.5,0.5,0.5l0,0c0.1,0,0.1,0,0.2,0c0.2-0.1,5.1-1.8,7.8-4.2c0,0,0,0,0,0c0.2-0.2,0.2-0.5,0-0.7
		c-0.2-0.2-0.5-0.2-0.7-0.1c-2.6,2.3-7.5,4-7.5,4C55.4,22.4,55.3,22.6,55.3,22.8z"/>
	<polygon points="86.3,18.4 86.3,18.4 86.3,18.4 	"/>
	<polygon points="164.4,38.3 164.4,38.3 164.4,38.3 	"/>
	<polygon points="90.6,13.5 90.6,13.5 90.6,13.5 	"/>
	<path d="M101.2,16.8c0,0.3,0.2,0.5,0.5,0.5v0h0c0,0,0,0,0,0c0.3,0,0.5-0.2,0.5-0.5c-0.1-1.8-0.4-3.6-0.9-5.3
		c-0.1-0.3-0.4-0.4-0.6-0.3c-0.3,0.1-0.4,0.4-0.3,0.6C100.9,13.4,101.1,15.1,101.2,16.8z"/>
	<path d="M93.2,17.7c0,0.3,0.3,0.5,0.5,0.5l0,0c0.1,0,0.1,0,0.2,0c2.4-0.9,4.7-2.3,6.6-4c0.2-0.2,0.2-0.5,0-0.7s-0.5-0.2-0.7,0
		c-1.8,1.6-3.9,2.9-6.2,3.8C93.4,17.3,93.2,17.5,93.2,17.7z"/>
	<path d="M88.7,16.2L88.7,16.2L88.7,16.2c1.3-0.2,2.4-0.6,3.4-1.3c0,0,0,0,0,0c0.2-0.2,0.3-0.5,0.1-0.7c0,0,0,0,0,0
		c-0.2-0.2-0.5-0.3-0.7-0.1c-0.9,0.6-1.9,0.9-2.9,1.1c-0.3,0-0.5,0.3-0.4,0.6C88.2,16,88.4,16.2,88.7,16.2z"/>
	<polygon points="89.1,14.9 89.1,14.9 89.1,14.9 	"/>
	<path d="M60.2,15.4L60.2,15.4c1.3-0.2,2.4-0.6,3.4-1.3c0.2-0.2,0.3-0.5,0.1-0.7c-0.2-0.2-0.5-0.3-0.7-0.1c-0.9,0.5-1.9,0.9-2.9,1.1
		c-0.2,0-0.4,0.2-0.4,0.5C59.7,15.1,59.9,15.4,60.2,15.4z"/>
	<path d="M104.9,16.2c0,0,0.1,0,0.1,0c0,0,0,0,0,0c0.3-0.1,0.4-0.3,0.4-0.6c0-0.2,0-0.3-0.1-0.5c0.1,0.2,0.2,0.3,0.5,0.3l0,0
		c0.1,0,0.1,0,0.2,0c0.2-0.1,5.1-1.8,7.8-4.2c0,0,0,0,0,0c0.2-0.2,0.2-0.5,0-0.7c-0.2-0.2-0.5-0.2-0.7-0.1c-2.6,2.3-7.5,4-7.5,4
		c-0.2,0.1-0.3,0.2-0.3,0.4c0-0.5,0-1,0-1.4c1.2-0.2,2.3-0.6,3.2-1.2c0,0,0,0,0,0c0.2-0.2,0.3-0.5,0.1-0.7c0,0,0,0,0,0
		c-0.2-0.2-0.5-0.3-0.7-0.1c-0.8,0.5-1.6,0.8-2.4,1c0-0.1,0-0.1,0.1-0.2c0.1-0.3-0.1-0.5-0.3-0.6c0,0,0,0,0,0
		c-0.3-0.1-0.5,0-0.6,0.3c-0.4,1.3-0.5,2.6-0.3,3.9C104.5,16.1,104.7,16.2,104.9,16.2z"/>
	<polygon points="75.2,10.5 75.2,10.5 75.2,10.5 	"/>
	<polygon points="104.9,16.2 104.9,16.2 104.9,16.2 	"/>
	<polygon points="156.6,103.2 156.6,103.2 156.6,103.2 	"/>
	<polygon points="146.9,105.1 146.8,105.1 146.8,105.1 	"/>
	<path d="M41.9,17c0.1,0.2,0.3,0.3,0.5,0.3l0,0c0.1,0,0.1,0,0.2,0c2.4-0.9,4.7-2.3,6.6-4c0.2-0.2,0.2-0.5,0-0.7s-0.5-0.2-0.7,0
		c-1.8,1.6-3.9,2.9-6.2,3.8C42,16.4,41.8,16.7,41.9,17z"/>
	<path d="M55.1,20.4c-0.3,0-0.5,0.3-0.5,0.5c0,0.3,0.3,0.5,0.5,0.5l0,0c0,0,0,0,0.1,0c1.2-0.2,2.3-0.6,3.3-1.3c0,0,0,0,0,0
		c0.2-0.2,0.3-0.5,0.1-0.7c0,0,0,0,0,0c-0.2-0.2-0.5-0.3-0.7-0.1C57.1,19.8,56.1,20.2,55.1,20.4z"/>
	<polygon points="175.1,28.5 175.1,28.5 175.1,28.5 	"/>
	<path d="M51.2,20.4L51.2,20.4c0.1,0,0.1,0,0.2,0c2.4-0.9,4.7-2.3,6.6-4c0.2-0.2,0.2-0.5,0-0.7s-0.5-0.2-0.7,0
		c-1.8,1.6-3.9,2.9-6.2,3.8c-0.2,0.1-0.3,0.3-0.3,0.5C50.6,20.2,50.9,20.4,51.2,20.4z"/>
	<path d="M88.8,17.8c0.1,0.2,0.3,0.3,0.5,0.3l0,0c0.1,0,0.1,0,0.2,0c0.2-0.1,5.1-1.8,7.8-4.2c0.2-0.2,0.2-0.5,0.1-0.7
		s-0.5-0.2-0.7-0.1c-2.6,2.3-7.5,4-7.5,4C88.9,17.3,88.7,17.6,88.8,17.8z"/>
</g>
</svg>
