<?xml version="1.0" encoding="utf-8"?>
<!-- Generator: Adobe Illustrator 17.0.0, SVG Export Plug-In . SVG Version: 6.00 Build 0)  -->
<!DOCTYPE svg PUBLIC "-//W3C//DTD SVG 1.1//EN" "http://www.w3.org/Graphics/SVG/1.1/DTD/svg11.dtd">
<svg version="1.1" id="Слой_1" xmlns="http://www.w3.org/2000/svg" xmlns:xlink="http://www.w3.org/1999/xlink" x="0px" y="0px"
	 width="252.033px" height="206.617px" viewBox="0 0 252.033 206.617" enable-background="new 0 0 252.033 206.617"
	 xml:space="preserve">
<g>
	<g>
		<path fill="#161616" d="M241.489,190.086c-1.002,0-1.867-0.752-1.984-1.772l-0.087-0.764c-0.476-4.143-0.925-8.057-0.925-10.555
			c0-7.882,4.698-11.167,4.898-11.303c0.326-0.222,0.712-0.342,1.107-0.346c1.277-0.012,2.715-0.157,3.534-0.339v-24.9
			c-0.973-0.186-2.692-0.342-4.14-0.473c-3.747-0.34-8.879-0.805-13.323-2.324c-8.121-2.775-10.006-3.587-10.082-3.62
			c-0.689-0.3-1.153-0.962-1.198-1.713c-0.461-7.592-0.833-16.675-0.313-20.782c-4.502-1.113-21.185-2.145-28.285-2.145
			c-1.104,0-2-0.896-2-2s0.896-2,2-2c3.437,0,10.914,0.304,17.479,0.813c13.505,1.047,14.132,2.114,14.738,3.146
			c0.391,0.665,0.417,1.458,0.079,2.142c-0.465,1.589-0.253,10.958,0.221,19.311c1.274,0.481,3.834,1.415,8.656,3.063
			c3.989,1.364,8.647,1.786,12.39,2.125c4.852,0.44,7.779,0.706,7.779,3.385v26.952c0,2.143-2.159,3.213-6.778,3.346
			c-0.842,0.813-2.762,3.157-2.762,7.662c0,2.27,0.437,6.072,0.898,10.099l0.088,0.765c0.125,1.098-0.662,2.089-1.76,2.215
			C241.642,190.082,241.565,190.086,241.489,190.086z"/>
	</g>
	<g>
		<path fill="#161616" d="M8.275,185.627c-0.053,0-0.106-0.002-0.16-0.006c-1.101-0.088-1.923-1.051-1.836-2.152
			c0.342-4.316,0.872-8.696,1.189-11.313c0.115-0.953,0.225-1.859,0.259-2.224c-0.142-0.173-0.662-0.51-1.603-0.51
			c-0.72,0-1.399-0.295-1.912-0.829c-1.354-1.414-1.465-4.424-1.201-10.636c0.046-1.104,0.981-1.964,2.083-1.913
			c1.104,0.047,1.96,0.979,1.913,2.083c-0.063,1.497-0.243,5.7,0.069,7.355c2.677,0.348,4.659,2.141,4.659,4.366
			c0,0.324-0.066,0.887-0.297,2.788c-0.313,2.586-0.837,6.913-1.173,11.147C10.184,184.832,9.309,185.627,8.275,185.627z"/>
	</g>
	<g>
		<path fill="#161616" d="M167.606,182.835c-2.119,0-3.659-1.335-4.563-2.605c-4.535,0.104-20.922,0.466-27.559,0.466
			c-4.814,0-13.952-0.645-21.294-1.163c-4.427-0.313-8.25-0.582-9.407-0.582c-0.647,0-0.735,0.069-1.225,0.456
			c-1.216,0.96-2.613,1.821-6.302,1.821c-2.282,0-8.179-0.883-16.341-2.104c-12.92-1.934-30.615-4.582-40.805-4.582
			c-16.544,0-33.818-4.986-34.545-5.198c-1.06-0.31-1.668-1.42-1.359-2.479c0.31-1.061,1.416-1.671,2.48-1.36
			c0.173,0.051,17.466,5.038,33.425,5.038c10.488,0,28.353,2.674,41.397,4.626c7.386,1.105,13.765,2.061,15.749,2.061
			c2.606,0,3.197-0.467,3.824-0.961c0.704-0.556,1.668-1.316,3.703-1.316c1.297,0,5,0.262,9.688,0.592
			c7.28,0.514,16.34,1.153,21.013,1.153c7.654,0,28.435-0.486,28.644-0.491c0.807-0.05,1.561,0.458,1.883,1.207l0,0
			c0.001-0.001,0.688,1.424,1.595,1.424c2.106,0,22.317-1.807,34.4-3.813c6.333-1.052,13.106-2.898,19.657-4.683
			c8.126-2.215,15.801-4.306,22.654-4.983c1.113-0.111,2.079,0.694,2.188,1.793c0.108,1.1-0.694,2.079-1.793,2.188
			c-6.521,0.645-14.038,2.693-21.997,4.862c-6.647,1.811-13.521,3.684-20.054,4.769
			C190.655,180.962,170.242,182.835,167.606,182.835z"/>
	</g>
	<g>
		<path fill="#161616" d="M189.904,140.964c-2.223,0-3.696-1.266-4.771-2.189c-0.297-0.255-0.736-0.632-0.945-0.732
			c-0.563,0.013-2.802,0.141-5.371,0.286c-8.474,0.481-24.247,1.377-33.813,1.377c-9.229,0-25.632-1.646-35.432-2.629
			c-3.109-0.312-6.063-0.608-7.001-0.662c-0.75,1.23-1.919,2.339-5.073,2.339c-0.785,0-1.996-0.07-3.6-0.21
			c-1.101-0.095-1.915-1.064-1.82-2.165c0.095-1.102,1.058-1.928,2.166-1.819c1.855,0.16,2.793,0.194,3.254,0.194
			c1.227,0,1.525-0.219,1.528-0.221c0.03-0.029,0.111-0.167,0.164-0.259c0.327-0.559,1.092-1.868,3.152-1.868
			c0.711,0,2.979,0.225,7.629,0.69c9.726,0.977,26.003,2.609,35.033,2.609c9.452,0,25.151-0.892,33.586-1.37
			c3.583-0.204,5.188-0.294,5.676-0.294c1.495,0,2.592,0.942,3.474,1.699c0.886,0.762,1.474,1.224,2.165,1.224
			c2.375,0,15.799-2.188,21.438-3.494c5.272-1.221,8.896-3.317,8.933-3.339c0.954-0.557,2.178-0.236,2.735,0.715
			c0.559,0.951,0.241,2.175-0.709,2.734c-0.167,0.099-4.153,2.419-10.057,3.786C206.483,138.701,192.844,140.964,189.904,140.964z"
			/>
	</g>
	<g>
		<path fill="#161616" d="M155.28,110.606c-8.586,0-16.929-0.279-24.614-0.843c-1.102-0.081-1.929-1.039-1.848-2.141
			c0.081-1.102,1.028-1.942,2.141-1.848c18.02,1.322,39.725,1.061,59.553-0.715c1.1-0.1,2.072,0.714,2.171,1.814
			c0.099,1.1-0.714,2.072-1.813,2.17C179.283,110.081,167.054,110.606,155.28,110.606z"/>
	</g>
	<g>
		<path fill="#161616" d="M189.905,139.964c-0.322,0-0.639-0.155-0.832-0.443c-0.307-0.459-0.185-1.08,0.274-1.388
			c1.791-1.2,0.738-11.06-1.264-19.506c-0.063-0.266-0.015-0.547,0.135-0.776c0.149-0.229,0.386-0.388,0.655-0.438
			c0.156-0.029,3.98-0.713,17.156-0.713c9.415,0,9.915-1.659,10.317-2.992c0.178-0.587,0.378-1.253,0.961-1.836
			c1.868-1.868,3.448-2.498,3.515-2.524c0.511-0.199,1.094,0.053,1.295,0.568c0.2,0.513-0.052,1.091-0.563,1.293
			c-0.022,0.009-1.292,0.536-2.833,2.077c-0.217,0.217-0.312,0.506-0.46,1c-0.755,2.501-2.135,4.415-12.232,4.415
			c-9.294,0-13.892,0.349-15.751,0.547c1.21,5.36,3.677,18.205,0.182,20.548C190.29,139.909,190.096,139.964,189.905,139.964z"/>
	</g>
	<g>
		<path fill="#161616" d="M127.746,122.667c-13.603,0-21.637-1.781-25.499-2.638c-0.945-0.21-1.761-0.391-2.025-0.391
			c-0.733,0-1.51,0.288-2.331,0.593c-0.72,0.267-1.463,0.542-2.291,0.68c-0.746,0.123-1.672,0.276-3.861,0.129
			c-0.551-0.038-0.967-0.515-0.93-1.065c0.037-0.552,0.504-0.973,1.065-0.93c1.955,0.131,2.723,0.006,3.398-0.106
			c0.638-0.106,1.262-0.337,1.922-0.582c0.951-0.353,1.934-0.717,3.026-0.717c0.483,0,1.185,0.156,2.458,0.438
			c3.792,0.841,11.682,2.59,25.065,2.59c6.018,0,9.012-0.154,10.501-0.305c0.001-0.031,0.002-0.062,0.006-0.093
			c0.055-0.509,0.483-0.894,0.994-0.894c0.002,0,0.003,0,0.005,0c0,0,19.213,0.092,20.276,0.092c13.334,0,18.184-0.999,21.393-1.66
			c2.576-0.53,4.277-0.88,8.255-0.404c0.548,0.065,0.939,0.563,0.874,1.112c-0.066,0.548-0.543,0.947-1.112,0.874
			c-3.654-0.438-5.145-0.131-7.613,0.378c-3.288,0.678-8.258,1.701-21.796,1.701c-0.855,0-13.452-0.06-18.354-0.083
			C140.861,122.193,139.198,122.667,127.746,122.667z"/>
	</g>
	<g>
		<path fill="#161616" d="M97.497,137.753c-0.434,0-0.833-0.284-0.96-0.722c-0.086-0.297-2.1-7.369-2.1-17.106c0-0.553,0.448-1,1-1
			s1,0.447,1,1c0,9.456,2.001,16.48,2.021,16.55c0.154,0.531-0.152,1.085-0.683,1.239C97.682,137.74,97.588,137.753,97.497,137.753z
			"/>
	</g>
	<g>
		<path fill="#161616" d="M102.341,135.405c-0.667,0-1.275-0.284-1.761-0.822c-2.573-2.854-1.579-13.868-1.353-16.047
			c0.057-0.549,0.537-0.947,1.098-0.892c0.549,0.057,0.948,0.548,0.892,1.098c-0.486,4.704-0.686,12.8,0.849,14.501
			c0.146,0.162,0.23,0.162,0.275,0.162c0.552,0,1,0.447,1,1S102.894,135.405,102.341,135.405z"/>
	</g>
	<g>
		<path fill="#161616" d="M217.616,134.584c-0.319,0-0.634-0.152-0.827-0.437c-2.087-3.06-1.561-17.018-1.494-18.6
			c0.023-0.552,0.508-0.966,1.041-0.957c0.552,0.023,0.98,0.489,0.957,1.041c-0.241,5.719-0.143,15.495,1.148,17.389
			c0.312,0.456,0.193,1.078-0.263,1.39C218.005,134.527,217.81,134.584,217.616,134.584z"/>
	</g>
	<g>
		<path fill="#161616" d="M144.333,159.042c-0.651,0-1.215-0.02-1.654-0.063c-2.568-0.259-4.67-2.057-5.488-2.856
			c-1.905,0.169-9.29,0.756-20.004,0.756c-9.541,0-11.815-1.165-13.32-1.936c-0.458-0.235-0.761-0.391-1.196-0.463
			c-1.328-0.226-5.004,0.404-7.435,0.818c-1.509,0.257-2.701,0.46-3.373,0.497c-1.06,0.07-3.875-0.411-8.759-1.247
			c-3.254-0.558-6.941-1.189-10.065-1.607l-2.304-0.305c-3.908-0.513-8.337-1.094-13.356-1.993
			c-0.544-0.098-0.905-0.617-0.808-1.161c0.098-0.543,0.618-0.904,1.161-0.808c4.974,0.892,9.378,1.469,13.264,1.979l2.31,0.305
			c3.16,0.424,6.867,1.058,10.137,1.618c3.65,0.625,7.425,1.253,8.311,1.223c0.558-0.031,1.815-0.246,3.147-0.473
			c3.647-0.621,6.56-1.076,8.101-0.819c0.741,0.124,1.245,0.382,1.778,0.655c1.334,0.684,3.35,1.716,12.408,1.716
			c12.344,0,20.21-0.783,20.288-0.791c0.32-0.028,0.637,0.092,0.85,0.333c0.02,0.021,2.096,2.321,4.554,2.568
			c2.437,0.246,9.63-0.388,13.087-0.692l1.38-0.119c3.32-0.281,13.532-0.772,23.21-0.684c3.883,0.034,7.705,0.259,11.076,0.457
			c5.408,0.318,10.077,0.592,13.447,0.054c4.43-0.709,7.797-1.355,9.025-1.598c0.414-0.714,1.296-1.551,2.899-1.858
			c0.521-0.1,1.371-0.228,2.419-0.386c3.011-0.453,8.05-1.213,10.996-2.235l0.467-0.162c4.388-1.516,14.661-5.065,18.286-11.236
			c0.28-0.475,0.894-0.637,1.369-0.355c0.476,0.28,0.635,0.893,0.355,1.369c-3.999,6.807-14.762,10.525-19.357,12.113l-0.464,0.16
			c-3.122,1.084-8.076,1.831-11.354,2.324c-1.015,0.153-1.837,0.276-2.341,0.373c-1.353,0.259-1.593,0.993-1.602,1.024
			c-0.107,0.35-0.409,0.654-0.768,0.728c-0.039,0.008-3.978,0.812-9.615,1.714c-3.587,0.573-8.356,0.292-13.881-0.031
			c-3.512-0.207-7.144-0.421-10.977-0.454c-10.373-0.089-20.506,0.464-23.024,0.676l-1.373,0.119
			C152.986,158.565,147.572,159.042,144.333,159.042z"/>
	</g>
	<g>
		<path fill="#161616" d="M167.605,181.835c-0.521,0-0.96-0.402-0.996-0.93c-0.043-0.606-1.023-14.967,0.785-24.481
			c0.103-0.543,0.625-0.897,1.169-0.796c0.543,0.104,0.899,0.627,0.796,1.169c-1.761,9.263-0.766,23.822-0.756,23.968
			c0.039,0.551-0.376,1.029-0.927,1.067C167.652,181.834,167.628,181.835,167.605,181.835z"/>
	</g>
	<g>
		<path fill="#161616" d="M214.453,175.228c-0.453,0-0.864-0.311-0.973-0.771c-1.631-6.924,0.261-18.829,0.342-19.332
			c0.088-0.545,0.6-0.919,1.146-0.828c0.545,0.088,0.916,0.602,0.828,1.146c-0.02,0.12-1.909,12.018-0.369,18.555
			c0.126,0.538-0.207,1.076-0.744,1.203C214.606,175.22,214.529,175.228,214.453,175.228z"/>
	</g>
	<g>
		<path fill="#161616" d="M164.176,179.203c-0.021,0-0.042-0.001-0.063-0.002c-0.552-0.035-0.971-0.51-0.936-1.061
			c0.121-1.925,1.215-18.888,2.287-21.783c0.191-0.518,0.764-0.784,1.285-0.59c0.518,0.191,0.782,0.767,0.59,1.285
			c-0.733,1.982-1.697,13.772-2.166,21.213C165.14,178.796,164.7,179.203,164.176,179.203z"/>
	</g>
	<g>
		<path fill="#161616" d="M97.25,180.022c-0.415,0-0.796-0.255-0.934-0.671c-0.33-0.998-0.301-5.326-0.119-14.05
			c0.059-2.82,0.115-5.484,0.071-6.064c-0.097-0.646-2.433-2.336-4.9-3.542c-0.497-0.242-0.702-0.842-0.459-1.338
			c0.242-0.495,0.841-0.702,1.337-0.459c1.756,0.858,5.858,3.083,6.016,5.189c0.048,0.645,0.008,2.691-0.066,6.256
			c-0.097,4.637-0.259,12.397,0.021,13.387c0.148,0.523-0.144,1.087-0.664,1.246C97.452,180.008,97.35,180.022,97.25,180.022z"/>
	</g>
	<g>
		<path fill="#161616" d="M104.115,177.995c-0.546,0-0.992-0.438-1-0.986c-0.001-0.078-0.11-7.779-0.7-11.317l-0.193-1.132
			c-0.922-5.365-1.571-9.948-0.167-11.693c0.347-0.43,0.977-0.497,1.406-0.152c0.43,0.347,0.499,0.976,0.152,1.406
			c-0.953,1.185,0.082,7.207,0.58,10.101l0.194,1.143c0.615,3.688,0.723,11.296,0.728,11.618c0.007,0.553-0.435,1.006-0.987,1.014
			C104.125,177.995,104.12,177.995,104.115,177.995z"/>
	</g>
	<g>
		<path fill="#161616" d="M97.266,160.163c-0.284,0-0.567-0.121-0.765-0.354c-0.356-0.422-0.303-1.053,0.118-1.409
			c0.917-0.775,3.325-3.187,3.467-5.01c0.043-0.55,0.524-0.952,1.075-0.919c0.551,0.043,0.962,0.524,0.919,1.075
			c-0.232,2.978-3.769,6.042-4.171,6.382C97.723,160.086,97.494,160.163,97.266,160.163z"/>
	</g>
	<g>
		<path fill="#161616" d="M19.188,171.41c-0.215,0-0.431-0.068-0.614-0.211c-1.241-0.967-1.153-2.416-1.007-4.818
			c0.109-1.794,0.258-4.251,0.043-7.812c-0.285-4.711-0.835-7.953-1.247-9.844c-0.118-0.54,0.225-1.072,0.764-1.19
			c0.54-0.118,1.073,0.226,1.19,0.765c0.426,1.96,0.996,5.311,1.289,10.148c0.223,3.682,0.069,6.209-0.043,8.054
			c-0.118,1.942-0.153,2.813,0.239,3.119c0.436,0.34,0.514,0.968,0.175,1.403C19.78,171.277,19.485,171.41,19.188,171.41z"/>
	</g>
	<g>
		<path fill="#161616" d="M167.843,206.617c-0.359,0-0.713-0.097-1.023-0.281l-4.026-2.397c-1.035-0.205-4.465-0.867-9.393-1.645
			c-5.545-0.876-30.046-1.065-35.814-1.065c-1.792,0-4.232-0.296-6.815-0.608c-2.893-0.351-6.175-0.746-7.519-0.539
			c-0.812,0.125-1.63,0.63-2.422,1.117c-1.227,0.756-3.482,2.146-5.444,0.373c-2.276-0.972-17.172-1.828-27.6-1.828
			c-4.269,0-8.71-1.152-13.412-2.372c-5.197-1.349-11.088-2.877-17.734-3.076c-13.168-0.396-29.188-8.832-29.864-9.19
			c-0.975-0.519-1.346-1.729-0.828-2.705c0.518-0.975,1.728-1.345,2.704-0.828c0.158,0.084,15.88,8.358,28.107,8.726
			c7.095,0.212,13.217,1.801,18.619,3.202c4.641,1.204,8.649,2.244,12.407,2.244c0.266,0,25.916,0.03,29.97,2.614
			c0.274-0.132,0.682-0.383,0.976-0.564c1.024-0.631,2.298-1.416,3.907-1.665c1.891-0.29,5.156,0.103,8.613,0.521
			c2.352,0.285,4.784,0.58,6.334,0.58c0.294,0,29.685,0.048,36.438,1.114c6.022,0.95,9.744,1.711,9.899,1.743
			c0.219,0.045,0.429,0.126,0.621,0.24l3.789,2.256c4.612-0.294,33.703-2.204,40.671-4.026c3.103-0.813,3.783-1.344,4.571-1.96
			c1.587-1.239,3.195-2.236,9.475-3.785c11.036-2.722,17.357-6.411,17.42-6.448c0.948-0.56,2.177-0.249,2.739,0.702
			c0.563,0.95,0.25,2.175-0.698,2.738c-0.274,0.162-6.841,4.016-18.503,6.891c-5.935,1.465-7.016,2.31-7.971,3.055
			c-1.241,0.97-2.399,1.729-6.021,2.677c-7.911,2.07-40.662,4.104-42.052,4.188C167.925,206.616,167.884,206.617,167.843,206.617z"
			/>
	</g>
	<g>
		<path fill="#161616" d="M167.844,205.617c-0.024,0-0.048-0.001-0.072-0.003c-0.551-0.039-0.966-0.518-0.926-1.068
			c0.014-0.191,1.368-19.173,1.243-23.755c-0.015-0.553,0.421-1.012,0.973-1.027c0.538,0.006,1.013,0.42,1.027,0.973
			c0.126,4.681-1.192,23.168-1.249,23.952C168.803,205.215,168.364,205.617,167.844,205.617z"/>
	</g>
	<g>
		<path fill="#161616" d="M163.522,203.045c-0.552,0-1-0.447-1-0.999c-0.004-4.633,0.401-8.189,0.793-11.628
			c0.389-3.415,0.756-6.64,0.756-10.854c0-0.553,0.447-1,1-1s1,0.447,1,1c0,4.328-0.391,7.761-0.769,11.08
			c-0.386,3.384-0.784,6.882-0.78,11.4C164.522,202.597,164.075,203.045,163.522,203.045L163.522,203.045z"/>
	</g>
	<g>
		<path fill="#161616" d="M97.266,201.388c-0.093,0-0.188-0.013-0.282-0.04c-0.53-0.156-0.833-0.712-0.678-1.241
			c0.557-1.897,0.169-4.359-0.173-6.532c-0.183-1.161-0.355-2.258-0.355-3.148c0-0.407-0.021-0.924-0.044-1.514
			c-0.121-3.096-0.305-7.774,1.568-10.256c0.333-0.441,0.958-0.53,1.401-0.195c0.441,0.332,0.528,0.96,0.196,1.4
			c-1.443,1.912-1.27,6.331-1.167,8.973c0.024,0.62,0.045,1.164,0.045,1.592c0,0.734,0.161,1.756,0.331,2.837
			c0.356,2.263,0.799,5.079,0.116,7.406C98.097,201.105,97.698,201.388,97.266,201.388z"/>
	</g>
	<g>
		<path fill="#161616" d="M104.031,199.024c-0.154,0-0.31-0.038-0.458-0.118c-0.409-0.221-0.667-0.528-0.769-0.914
			c-0.164-0.623,0.158-1.138,0.443-1.591c0.345-0.55,0.773-1.234,0.773-2.374c0-2.705,0.083-17.079,0.083-17.079l2,0.012
			c0,0-0.083,14.364-0.083,17.067c0,1.715-0.675,2.793-1.079,3.437c-0.017,0.026-0.033,0.052-0.049,0.076
			c0.16,0.297,0.174,0.665-0.002,0.972C104.705,198.836,104.375,199.024,104.031,199.024z"/>
	</g>
	<g>
		<path fill="#161616" d="M47.718,173.378c-0.041,0-0.082-0.005-0.123-0.015c-0.268-0.067-0.43-0.34-0.363-0.607
			c0.45-1.789-0.325-3.309-1.008-4.649c-0.562-1.102-1.046-2.053-0.791-2.991c0.096-0.353,0.246-2.213-0.443-11.835
			c-0.02-0.275,0.188-0.515,0.463-0.535c0.28-0.023,0.515,0.188,0.534,0.463c0.776,10.832,0.501,11.84,0.411,12.171
			c-0.154,0.565,0.249,1.357,0.716,2.274c0.726,1.423,1.628,3.193,1.087,5.347C48.146,173.227,47.942,173.378,47.718,173.378z"/>
	</g>
	<g>
		<path fill="#161616" d="M137.926,180.156c-0.124,0-0.25-0.039-0.342-0.115c-0.283-0.234-0.254-0.576-0.021-1.482
			c1.196-4.649-0.471-23.244-0.487-23.432c-0.024-0.274,0.178-0.518,0.453-0.543c0.25-0.019,0.518,0.178,0.543,0.453
			c0.061,0.667,1.287,14.367,0.815,21.168c1.404-4.048,3.39-11.398,3.39-18.222c0-0.276,0.224-0.5,0.5-0.5s0.5,0.224,0.5,0.5
			c0,9.87-4.239,21.707-5.13,22.126C138.081,180.142,138.003,180.156,137.926,180.156z"/>
	</g>
	<g>
		<path fill="#161616" d="M228.887,170.81c-0.268,0-0.489-0.212-0.5-0.481c-0.021-0.563-0.498-13.876,1.896-19.649
			c0.106-0.255,0.4-0.378,0.653-0.271c0.255,0.105,0.376,0.398,0.271,0.653c-2.312,5.574-1.826,19.093-1.82,19.229
			c0.01,0.275-0.205,0.508-0.481,0.519C228.9,170.81,228.893,170.81,228.887,170.81z"/>
	</g>
	<g>
		<path fill="#161616" d="M38.656,193.033c-0.235,0-0.445-0.167-0.491-0.407c-0.007-0.036-0.694-3.71-0.788-8.628
			c-0.076-4.021-0.076-4.021-1.32-4.985c-0.224-0.173-0.482-0.373-0.78-0.62c-2.354-1.954-1.518-6.081-1.481-6.256
			c0.057-0.27,0.317-0.442,0.592-0.387c0.27,0.057,0.443,0.321,0.387,0.592c-0.007,0.037-0.747,3.713,1.142,5.281
			c0.288,0.239,0.537,0.432,0.753,0.6c1.562,1.209,1.625,1.425,1.708,5.756c0.091,4.828,0.763,8.426,0.77,8.462
			c0.051,0.271-0.127,0.532-0.398,0.584C38.718,193.03,38.687,193.033,38.656,193.033z"/>
	</g>
	<g>
		<path fill="#161616" d="M35.018,192.7c-0.021,0-0.043-0.001-0.065-0.004c-0.274-0.036-0.467-0.287-0.431-0.562
			c0.012-0.093,1.22-9.406,0.581-14.059c-0.038-0.273,0.153-0.526,0.427-0.563c0.273-0.038,0.525,0.154,0.563,0.427
			c0.658,4.786-0.529,13.938-0.58,14.326C35.48,192.517,35.265,192.7,35.018,192.7z"/>
	</g>
	<g>
		<path fill="#161616" d="M109.719,198.604c-0.1,0-0.202-0.03-0.29-0.093c-0.225-0.16-0.277-0.473-0.117-0.697
			c1.213-1.705,0.947-13.146,0.472-20.422c-0.018-0.275,0.191-0.513,0.466-0.531c0.282-0.02,0.514,0.191,0.532,0.467
			c0.124,1.889,1.153,18.526-0.655,21.066C110.029,198.531,109.875,198.604,109.719,198.604z"/>
	</g>
	<g>
		<path fill="#161616" d="M224.449,194.836c-0.01,0-0.021,0-0.031-0.001c-0.275-0.018-0.485-0.255-0.468-0.53
			c0.011-0.179,1.105-17.892-0.12-22.622c-0.069-0.267,0.092-0.54,0.359-0.609c0.27-0.068,0.54,0.093,0.609,0.359
			c1.265,4.883,0.195,22.2,0.149,22.935C224.931,194.632,224.711,194.836,224.449,194.836z"/>
	</g>
	<g>
		<path fill="#161616" d="M225.931,194.477c-0.271,0-0.494-0.217-0.5-0.49c-0.046-2.233,0.476-5.53,0.979-8.719
			c0.443-2.799,1.05-6.633,0.669-7.184c-1.15-1.056-1.731-5.786-1.836-6.724c-0.03-0.274,0.167-0.521,0.441-0.553
			c0.27-0.028,0.522,0.167,0.553,0.441c0.243,2.177,0.879,5.513,1.532,6.113c0.718,0.66,0.453,2.85-0.371,8.062
			c-0.475,2.999-1.012,6.397-0.968,8.543c0.006,0.275-0.214,0.504-0.49,0.51C225.938,194.477,225.934,194.477,225.931,194.477z"/>
	</g>
	<g>
		<path fill="#161616" d="M184.583,137.075c-0.256,0-0.512-0.098-0.707-0.293c-0.391-0.391-0.391-1.023,0-1.414
			c1.705-1.705,1.247-10.988,0.377-17.035c-0.078-0.547,0.301-1.054,0.848-1.132c0.556-0.079,1.054,0.301,1.133,0.847
			c0.373,2.598,2.084,15.708-0.943,18.734C185.094,136.977,184.838,137.075,184.583,137.075z"/>
	</g>
	<g>
		<path fill="#161616" d="M139.871,138.056c-0.253,0-0.471-0.192-0.496-0.45c-0.684-6.835,0.779-16.613,0.794-16.712
			c0.041-0.272,0.302-0.459,0.569-0.419c0.272,0.041,0.461,0.296,0.419,0.569c-0.015,0.097-1.458,9.753-0.788,16.462
			c0.028,0.274-0.173,0.52-0.447,0.547C139.905,138.055,139.887,138.056,139.871,138.056z"/>
	</g>
	<g>
		<path fill="#161616" d="M7.331,161.402C2.467,161.402,0,152.63,0,135.33c0-12.592,16.883-28.068,30.619-28.068
			c6.293,0,9.99-7.779,14.271-16.787C48.223,83.461,52,75.513,57.824,69.689c6.094-6.094,14.736-9.88,22.554-9.88
			c9.13,0,18.887,5.473,18.887,20.833c0,21.133,29.786,24.911,31.657,25.126c5.619,0.004,9.98,0.326,12.963,0.958
			c1.339,0.283,5.412,1.145,5.412,4.11c0,5.177-14.28,7.106-23.281,7.106c-15.986,0-31.086,0-32.382,2.913
			c-1.016,2.284,0.756,10.193,2.339,15.08c0.073,0.226,0.105,0.462,0.096,0.699c-0.017,0.401-0.489,9.862-7.471,12.645
			c-5.295,2.11-18.427,2.381-29.275,2.381l-1.769-0.001c-2.714,0-4.448,0.755-6.644,1.711c-2.896,1.261-6.18,2.69-12.254,2.69
			c-6.741,0-8.491-3.583-9.769-6.199c-0.988-2.023-1.484-3.039-3.925-3.039c-5.51,0-11.521,8.793-13.372,12.181
			c-0.091,0.167-0.206,0.32-0.341,0.455C9.959,160.748,8.641,161.402,7.331,161.402z M80.378,63.809
			c-6.796,0-14.354,3.337-19.726,8.708c-5.335,5.336-8.956,12.954-12.15,19.675c-4.661,9.807-9.063,19.07-17.883,19.07
			C18.278,111.262,4,125.827,4,135.33c0,14.04,1.988,21.436,3.348,22.068c0.075-0.018,0.367-0.111,0.884-0.588
			c1.321-2.346,8.305-13.989,16.73-13.989c4.939,0,6.431,3.054,7.52,5.283c1.122,2.296,1.932,3.955,6.175,3.955
			c5.241,0,7.995-1.198,10.657-2.358c2.308-1.004,4.693-2.043,8.24-2.043l1.769,0.001c5.573,0,22.533,0,27.794-2.097
			c4.006-1.597,4.794-7.339,4.93-8.773c-0.915-2.893-3.968-13.286-2.067-17.56c2.262-5.085,12.075-5.288,36.036-5.288
			c9.653,0,16.058-1.754,18.443-2.943c-1.557-0.51-5.243-1.23-13.647-1.23c-0.066,0-0.133-0.003-0.199-0.01
			c-0.354-0.036-35.348-3.83-35.348-29.116C95.265,69.945,89.839,63.809,80.378,63.809z"/>
	</g>
	<g>
		<path fill="#161616" d="M83.617,113.642c-0.098,0-0.198-0.015-0.296-0.045c-9.118-2.822-14.348-9.731-14.348-18.955
			c0-8.274,3.444-9.878,7.09-11.575c1.671-0.778,3.4-1.583,4.948-3.13c4.349-4.349,7.231-1.906,9.336-0.121
			c2.063,1.75,3.426,2.906,6.212,0.121c0.391-0.391,1.023-0.391,1.414,0s0.391,1.023,0,1.414c-4.089,4.089-6.88,1.719-8.92-0.01
			c-2.156-1.829-3.582-3.037-6.628,0.01c-1.798,1.798-3.774,2.718-5.518,3.53c-3.445,1.604-5.934,2.762-5.934,9.762
			c0,3.921,1.261,13.43,12.94,17.045c0.527,0.163,0.823,0.723,0.659,1.251C84.438,113.366,84.043,113.642,83.617,113.642z"/>
	</g>
	<g>
		<path fill="#161616" d="M110.623,110.794c-4.655,0-21.545-0.552-29.527-8.293c-2.762-2.679-4.162-5.965-4.162-9.768
			c0-9.272,1.906-10.647,4.114-12.239c0.563-0.406,1.146-0.827,1.727-1.407c0.195-0.195,0.512-0.195,0.707,0s0.195,0.512,0,0.707
			c-0.637,0.637-1.253,1.082-1.849,1.511c-2.066,1.49-3.699,2.667-3.699,11.428c0,3.521,1.298,6.566,3.857,9.049
			c8.807,8.542,29.773,8.007,29.983,7.998c0.282,0.014,0.506,0.209,0.515,0.485c0.009,0.276-0.208,0.506-0.484,0.515
			C111.696,110.783,111.281,110.794,110.623,110.794z"/>
	</g>
	<g>
		<path fill="#161616" d="M93.326,101.61c-0.073,0-0.147-0.016-0.218-0.05c-6.424-3.119-9.681-7.665-9.681-13.511
			c0-4.905,0.505-7.926,1.637-9.796c0.143-0.237,0.453-0.311,0.687-0.169c0.236,0.143,0.312,0.451,0.169,0.687
			c-1.032,1.705-1.493,4.567-1.493,9.278c0,5.431,3.068,9.674,9.118,12.611c0.249,0.121,0.352,0.42,0.231,0.668
			C93.689,101.507,93.511,101.61,93.326,101.61z"/>
	</g>
	<g>
		<path fill="#161616" d="M44.335,138.381c-4.685,0-6.975-2.325-9.188-4.574c-2.048-2.08-3.982-4.045-7.794-4.045
			c-4.457,0-7.479,0.987-10.146,1.858c-2.179,0.712-4.238,1.385-6.685,1.385c-0.276,0-0.5-0.224-0.5-0.5s0.224-0.5,0.5-0.5
			c2.287,0,4.181-0.619,6.374-1.335c2.738-0.895,5.841-1.908,10.457-1.908c4.23,0,6.404,2.208,8.507,4.344
			c2.165,2.198,4.21,4.275,8.476,4.275c4.522,0,8.357-0.932,12.066-1.833c3.475-0.845,6.757-1.643,10.375-1.643
			c2.504,0,4.7,0.59,6.822,1.161c4.135,1.111,7.703,2.07,11.93-2.156c0.195-0.195,0.512-0.195,0.707,0s0.195,0.512,0,0.707
			c-4.635,4.635-8.648,3.555-12.896,2.415c-2.06-0.555-4.19-1.127-6.563-1.127c-3.499,0-6.724,0.784-10.139,1.614
			C52.871,137.435,48.977,138.381,44.335,138.381z"/>
	</g>
	<g>
		<path fill="#161616" d="M53.847,114.566c-2.065,0-4.684-0.831-7.399-1.692c-2.742-0.869-5.577-1.769-7.791-1.769
			c-0.276,0-0.5-0.224-0.5-0.5s0.224-0.5,0.5-0.5c2.369,0,5.279,0.923,8.093,1.815c3.835,1.217,7.802,2.475,9.361,0.915
			c0.062-0.062,0.074-0.094,0.074-0.094c-0.194-0.388-2.493-1.036-4.341-1.556c-4.519-1.273-10.707-3.016-11.731-6.939
			c-0.591-2.265,0.583-4.829,3.592-7.837c0.195-0.195,0.512-0.195,0.707,0s0.195,0.512,0,0.707
			c-2.698,2.698-3.819,5.012-3.332,6.878c0.879,3.369,6.749,5.022,11.034,6.229c3.232,0.911,4.796,1.389,5.038,2.314
			c0.063,0.243,0.057,0.615-0.334,1.006C56.082,114.279,55.06,114.566,53.847,114.566z"/>
	</g>
	<g>
		<path fill="#161616" d="M137.576,102.251c-0.026,0-0.053-0.002-0.078-0.006c-17.512-2.75-24.62-9.678-27.499-15.004
			c-3.459-6.4-2.29-12.742-1.054-15.48c3.389-7.508,10.931-10.11,16.306-8.75c6.648,1.685,9.761,6.616,8.541,13.528
			c-0.347,1.964-1.653,3.941-3.409,5.159c-1.236,0.856-3.29,1.769-6.069,1.255c-3.085-0.573-5.259-2.382-5.816-4.839
			c-0.433-1.911,0.227-3.83,1.681-4.889c1.867-1.359,3.99-0.872,4.887,0.358c0.737,1.012,0.81,2.768-1.411,4.386
			c-0.223,0.162-0.536,0.113-0.699-0.11c-0.163-0.223-0.113-0.536,0.11-0.699c1.357-0.989,1.814-2.134,1.191-2.989
			c-0.613-0.842-2.122-1.135-3.489-0.139c-1.131,0.824-1.639,2.339-1.294,3.859c0.466,2.055,2.344,3.579,5.024,4.077
			c2.439,0.454,4.238-0.345,5.316-1.093c1.545-1.071,2.692-2.8,2.995-4.511c1.134-6.424-1.637-10.822-7.802-12.384
			c-4.982-1.263-11.984,1.18-15.148,8.191c-1.16,2.571-2.251,8.537,1.022,14.594c3.974,7.354,13.232,12.365,26.773,14.491
			c0.273,0.043,0.46,0.299,0.417,0.572C138.03,102.075,137.817,102.251,137.576,102.251z"/>
	</g>
	<g>
		<path fill="#161616" d="M30.619,83.46c-1.554,0-2.818-1.264-2.818-2.818s1.264-2.818,2.818-2.818s2.818,1.264,2.818,2.818
			S32.173,83.46,30.619,83.46z M30.619,79.825c-0.451,0-0.818,0.367-0.818,0.818s0.367,0.818,0.818,0.818s0.818-0.367,0.818-0.818
			S31.07,79.825,30.619,79.825z"/>
	</g>
	<g>
		<path fill="#161616" d="M20.104,85.077c-0.814,0-1.476-0.662-1.476-1.476s0.662-1.476,1.476-1.476s1.476,0.662,1.476,1.476
			S20.917,85.077,20.104,85.077z M20.104,83.125c-0.263,0-0.476,0.213-0.476,0.476s0.213,0.476,0.476,0.476s0.476-0.213,0.476-0.476
			S20.366,83.125,20.104,83.125z"/>
	</g>
	<g>
		<path fill="#161616" d="M6.685,64.645c-0.814,0-1.476-0.662-1.476-1.476s0.662-1.476,1.476-1.476s1.476,0.662,1.476,1.476
			S7.499,64.645,6.685,64.645z M6.685,62.693c-0.263,0-0.476,0.213-0.476,0.476s0.213,0.476,0.476,0.476s0.476-0.213,0.476-0.476
			S6.947,62.693,6.685,62.693z"/>
	</g>
	<g>
		<path fill="#161616" d="M45.091,75.615c-0.814,0-1.476-0.662-1.476-1.476s0.662-1.476,1.476-1.476s1.476,0.662,1.476,1.476
			S45.905,75.615,45.091,75.615z M45.091,73.663c-0.263,0-0.476,0.213-0.476,0.476s0.213,0.476,0.476,0.476s0.476-0.213,0.476-0.476
			S45.354,73.663,45.091,73.663z"/>
	</g>
	<g>
		<path fill="#161616" d="M75.274,72.579c-0.814,0-1.476-0.662-1.476-1.476c0-0.814,0.662-1.476,1.476-1.476
			s1.476,0.662,1.476,1.476C76.75,71.916,76.088,72.579,75.274,72.579z M75.274,70.627c-0.263,0-0.476,0.213-0.476,0.476
			c0,0.262,0.213,0.476,0.476,0.476s0.476-0.213,0.476-0.476C75.75,70.84,75.537,70.627,75.274,70.627z"/>
	</g>
	<g>
		<path fill="#161616" d="M82.951,57.069c-0.814,0-1.476-0.662-1.476-1.476s0.662-1.476,1.476-1.476s1.476,0.662,1.476,1.476
			S83.765,57.069,82.951,57.069z M82.951,55.117c-0.263,0-0.476,0.213-0.476,0.476s0.213,0.476,0.476,0.476s0.476-0.213,0.476-0.476
			S83.213,55.117,82.951,55.117z"/>
	</g>
	<g>
		<path fill="#161616" d="M103.317,64.015c-0.814,0-1.476-0.662-1.476-1.476s0.662-1.476,1.476-1.476s1.476,0.662,1.476,1.476
			S104.131,64.015,103.317,64.015z M103.317,62.063c-0.263,0-0.476,0.213-0.476,0.476s0.213,0.476,0.476,0.476
			s0.476-0.213,0.476-0.476S103.58,62.063,103.317,62.063z"/>
	</g>
	<g>
		<path fill="#161616" d="M120.112,88.933c-0.814,0-1.476-0.662-1.476-1.476c0-0.813,0.662-1.476,1.476-1.476
			s1.476,0.662,1.476,1.476C121.588,88.271,120.926,88.933,120.112,88.933z M120.112,86.981c-0.263,0-0.476,0.213-0.476,0.476
			c0,0.263,0.213,0.476,0.476,0.476s0.476-0.213,0.476-0.476C120.588,87.195,120.375,86.981,120.112,86.981z"/>
	</g>
	<g>
		<path fill="#161616" d="M36.839,65.622c-0.814,0-1.476-0.662-1.476-1.476c0-0.814,0.662-1.476,1.476-1.476
			s1.476,0.662,1.476,1.476C38.315,64.959,37.653,65.622,36.839,65.622z M36.839,63.669c-0.263,0-0.476,0.213-0.476,0.476
			c0,0.263,0.213,0.476,0.476,0.476s0.476-0.213,0.476-0.476C37.315,63.883,37.102,63.669,36.839,63.669z"/>
	</g>
	<g>
		<path fill="#161616" d="M9.737,143.932c-0.813,0-1.476-0.662-1.476-1.477c0-0.813,0.662-1.476,1.476-1.476
			c0.814,0,1.476,0.662,1.476,1.476C11.213,143.269,10.551,143.932,9.737,143.932z M9.737,141.979c-0.262,0-0.476,0.213-0.476,0.476
			s0.213,0.477,0.476,0.477c0.263,0,0.476-0.214,0.476-0.477S10,141.979,9.737,141.979z"/>
	</g>
	<g>
		<path fill="#161616" d="M63.635,143.932c-0.814,0-1.476-0.662-1.476-1.477c0-0.813,0.662-1.476,1.476-1.476
			s1.476,0.662,1.476,1.476C65.111,143.269,64.449,143.932,63.635,143.932z M63.635,141.979c-0.263,0-0.476,0.213-0.476,0.476
			s0.213,0.477,0.476,0.477s0.476-0.214,0.476-0.477S63.897,141.979,63.635,141.979z"/>
	</g>
	<g>
		<path fill="#161616" d="M69.972,121.253c-0.814,0-1.476-0.662-1.476-1.476c0-0.814,0.662-1.476,1.476-1.476
			s1.476,0.662,1.476,1.476C71.448,120.591,70.786,121.253,69.972,121.253z M69.972,119.302c-0.263,0-0.476,0.213-0.476,0.476
			s0.213,0.476,0.476,0.476s0.476-0.213,0.476-0.476S70.235,119.302,69.972,119.302z"/>
	</g>
	<g>
		<path fill="#161616" d="M26.042,120.277c-0.814,0-1.476-0.662-1.476-1.476s0.662-1.476,1.476-1.476s1.476,0.662,1.476,1.476
			S26.856,120.277,26.042,120.277z M26.042,118.325c-0.263,0-0.476,0.213-0.476,0.476s0.213,0.476,0.476,0.476
			s0.476-0.213,0.476-0.476S26.305,118.325,26.042,118.325z"/>
	</g>
	<g>
		<path fill="#161616" d="M33.27,100.296c-0.814,0-1.476-0.662-1.476-1.476s0.662-1.476,1.476-1.476s1.476,0.662,1.476,1.476
			S34.083,100.296,33.27,100.296z M33.27,98.344c-0.263,0-0.476,0.213-0.476,0.476s0.213,0.476,0.476,0.476s0.476-0.213,0.476-0.476
			S33.532,98.344,33.27,98.344z"/>
	</g>
	<g>
		<path fill="#161616" d="M62.659,88.933c-0.814,0-1.476-0.662-1.476-1.476c0-0.813,0.662-1.476,1.476-1.476
			s1.476,0.662,1.476,1.476C64.135,88.271,63.473,88.933,62.659,88.933z M62.659,86.981c-0.263,0-0.476,0.213-0.476,0.476
			c0,0.263,0.213,0.476,0.476,0.476s0.476-0.213,0.476-0.476C63.135,87.195,62.921,86.981,62.659,86.981z"/>
	</g>
	<g>
		<path fill="#161616" d="M55,62.563c-1.554,0-2.817-1.264-2.817-2.818s1.264-2.817,2.817-2.817s2.818,1.264,2.818,2.817
			S56.553,62.563,55,62.563z M55,58.928c-0.451,0-0.817,0.367-0.817,0.817c0,0.451,0.367,0.818,0.817,0.818
			c0.451,0,0.818-0.367,0.818-0.818C55.817,59.294,55.451,58.928,55,58.928z"/>
	</g>
	<g>
		<path fill="#161616" d="M117.318,59.387c-1.554,0-2.818-1.264-2.818-2.817s1.264-2.818,2.818-2.818s2.818,1.264,2.818,2.818
			S118.872,59.387,117.318,59.387z M117.318,55.751c-0.451,0-0.818,0.367-0.818,0.818c0,0.451,0.367,0.817,0.818,0.817
			s0.818-0.367,0.818-0.817C118.136,56.118,117.77,55.751,117.318,55.751z"/>
	</g>
	<g>
		<path fill="#161616" d="M38.657,125.603c-1.554,0-2.818-1.264-2.818-2.817s1.264-2.817,2.818-2.817s2.818,1.264,2.818,2.817
			S40.21,125.603,38.657,125.603z M38.657,121.969c-0.451,0-0.818,0.366-0.818,0.817s0.367,0.817,0.818,0.817
			s0.818-0.366,0.818-0.817S39.108,121.969,38.657,121.969z"/>
	</g>
	<g>
		<path fill="#161616" d="M13.357,101.397c-1.554,0-2.818-1.264-2.818-2.817s1.264-2.818,2.818-2.818s2.818,1.264,2.818,2.818
			S14.911,101.397,13.357,101.397z M13.357,97.762c-0.451,0-0.818,0.367-0.818,0.818c0,0.451,0.367,0.817,0.818,0.817
			s0.818-0.367,0.818-0.817C14.175,98.128,13.809,97.762,13.357,97.762z"/>
	</g>
	<g>
		<path fill="#161616" d="M18.264,70.259c-1.554,0-2.818-1.264-2.818-2.817s1.264-2.818,2.818-2.818s2.818,1.264,2.818,2.818
			S19.818,70.259,18.264,70.259z M18.264,66.623c-0.451,0-0.818,0.367-0.818,0.818c0,0.451,0.367,0.817,0.818,0.817
			s0.818-0.367,0.818-0.817C19.082,66.99,18.715,66.623,18.264,66.623z"/>
	</g>
	<g>
		<path fill="#161616" d="M53.182,100.796c-1.554,0-2.818-1.264-2.818-2.818s1.264-2.818,2.818-2.818S56,96.424,56,97.978
			S54.736,100.796,53.182,100.796z M53.182,97.16c-0.451,0-0.818,0.367-0.818,0.818s0.367,0.818,0.818,0.818
			c0.451,0,0.817-0.367,0.817-0.818S53.633,97.16,53.182,97.16z"/>
	</g>
	<g>
		<g>
			<path fill="#161616" d="M217.707,143.551c-0.233,0-0.441-0.164-0.489-0.402c-0.032-0.161-3.113-16.327,8.013-27.453
				c0.195-0.195,0.512-0.195,0.707,0s0.195,0.512,0,0.707c-10.752,10.752-7.771,26.394-7.739,26.551
				c0.055,0.271-0.121,0.534-0.393,0.588C217.773,143.548,217.74,143.551,217.707,143.551z"/>
		</g>
		<g>
			<path fill="#161616" d="M215.486,143.154c-0.023,0-0.047-0.002-0.07-0.005c-0.273-0.038-0.464-0.291-0.426-0.564
				c0.013-0.091,1.22-9.111-3.174-13.505c-0.195-0.195-0.195-0.512,0-0.707s0.512-0.195,0.707,0
				c4.748,4.748,3.512,13.961,3.457,14.351C215.945,142.974,215.731,143.154,215.486,143.154z"/>
		</g>
		<g>
			<path fill="#161616" d="M219.675,141.914c-0.202,0-0.392-0.123-0.468-0.323c-0.079-0.208-1.894-5.155,1.871-8.921
				c0.195-0.195,0.512-0.195,0.707,0s0.195,0.512,0,0.707c-3.3,3.301-1.712,7.676-1.643,7.86c0.097,0.259-0.033,0.547-0.292,0.645
				C219.793,141.903,219.734,141.914,219.675,141.914z"/>
		</g>
	</g>
	<g>
		<g>
			<path fill="#161616" d="M142.286,150.227c-0.233,0-0.441-0.164-0.489-0.402c-0.032-0.161-3.113-16.327,8.013-27.453
				c0.195-0.195,0.512-0.195,0.707,0s0.195,0.512,0,0.707c-10.752,10.752-7.771,26.394-7.739,26.551
				c0.055,0.271-0.121,0.534-0.393,0.588C142.352,150.224,142.319,150.227,142.286,150.227z"/>
		</g>
		<g>
			<path fill="#161616" d="M140.065,149.83c-0.023,0-0.047-0.002-0.07-0.005c-0.273-0.038-0.464-0.291-0.426-0.564
				c0.013-0.091,1.22-9.111-3.174-13.505c-0.195-0.195-0.195-0.512,0-0.707s0.512-0.195,0.707,0
				c4.748,4.748,3.512,13.961,3.457,14.351C140.524,149.649,140.31,149.83,140.065,149.83z"/>
		</g>
		<g>
			<path fill="#161616" d="M144.254,148.59c-0.202,0-0.392-0.123-0.468-0.323c-0.079-0.208-1.894-5.155,1.871-8.921
				c0.195-0.195,0.512-0.195,0.707,0s0.195,0.512,0,0.707c-3.3,3.301-1.712,7.676-1.643,7.86c0.097,0.259-0.033,0.547-0.292,0.645
				C144.373,148.579,144.313,148.59,144.254,148.59z"/>
		</g>
	</g>
	<g>
		<g>
			<path fill="#161616" d="M162.035,116.382c-0.035,0-0.07-0.004-0.105-0.011c-0.27-0.058-0.442-0.323-0.385-0.593
				c0.022-0.103,2.104-10.339-4.731-18.436c-0.179-0.211-0.151-0.527,0.06-0.705c0.211-0.177,0.526-0.152,0.704,0.059
				c7.16,8.48,4.969,19.183,4.946,19.291C162.472,116.222,162.265,116.382,162.035,116.382z"/>
		</g>
		<g>
			<path fill="#161616" d="M164.255,115.985c-0.245,0-0.459-0.181-0.494-0.43c-0.055-0.39-1.291-9.603,3.458-14.351
				c0.195-0.195,0.512-0.195,0.707,0s0.195,0.512,0,0.707c-4.395,4.394-3.188,13.414-3.175,13.504
				c0.038,0.273-0.152,0.526-0.426,0.565C164.302,115.984,164.279,115.985,164.255,115.985z"/>
		</g>
		<g>
			<path fill="#161616" d="M160.066,114.746c-0.059,0-0.118-0.011-0.176-0.033c-0.259-0.097-0.389-0.385-0.292-0.644
				c0.069-0.185,1.657-4.56-1.643-7.861c-0.195-0.195-0.195-0.512,0-0.707s0.512-0.195,0.707,0c3.765,3.765,1.95,8.712,1.871,8.921
				C160.458,114.622,160.268,114.746,160.066,114.746z"/>
		</g>
	</g>
	<g>
		<g>
			<path fill="#161616" d="M208.283,111.845c-0.219,0-0.42-0.144-0.481-0.365c-0.029-0.104-2.808-10.391,4.333-17.698
				c0.193-0.196,0.509-0.201,0.707-0.008c0.197,0.193,0.201,0.509,0.008,0.707c-6.73,6.887-4.112,16.631-4.085,16.729
				c0.074,0.266-0.081,0.542-0.347,0.616C208.373,111.839,208.327,111.845,208.283,111.845z"/>
		</g>
		<g>
			<path fill="#161616" d="M206.061,111.448c-0.023,0-0.047-0.001-0.07-0.005c-0.273-0.039-0.464-0.292-0.426-0.565
				c0.013-0.09,1.22-9.111-3.175-13.505c-0.195-0.195-0.195-0.512,0-0.707s0.512-0.195,0.707,0
				c4.749,4.749,3.513,13.961,3.458,14.352C206.52,111.267,206.306,111.448,206.061,111.448z"/>
		</g>
		<g>
			<path fill="#161616" d="M210.25,110.208c-0.202,0-0.392-0.123-0.468-0.323c-0.079-0.209-1.894-5.157,1.871-8.922
				c0.195-0.195,0.512-0.195,0.707,0s0.195,0.512,0,0.707c-3.3,3.301-1.712,7.677-1.643,7.861c0.097,0.258-0.033,0.546-0.292,0.644
				C210.369,110.197,210.309,110.208,210.25,110.208z"/>
		</g>
	</g>
	<g>
		<g>
			<path fill="#161616" d="M191.804,113.969c-0.223,0-0.426-0.15-0.483-0.376c-0.047-0.183-1.13-4.545,0.259-9.959
				c0.068-0.267,0.345-0.429,0.608-0.36c0.268,0.069,0.429,0.341,0.36,0.608c-1.322,5.155-0.27,9.421-0.259,9.464
				c0.068,0.268-0.094,0.54-0.361,0.608C191.887,113.964,191.845,113.969,191.804,113.969z"/>
		</g>
		<g>
			<path fill="#161616" d="M190.062,113.575c-0.271,0-0.494-0.217-0.5-0.489c0-0.025-0.064-2.561-0.941-5.363
				c-0.082-0.264,0.064-0.544,0.328-0.626c0.268-0.083,0.545,0.065,0.627,0.328c0.921,2.944,0.984,5.532,0.986,5.641
				c0.006,0.276-0.214,0.504-0.489,0.51C190.069,113.575,190.065,113.575,190.062,113.575z"/>
		</g>
		<g>
			<path fill="#161616" d="M193.439,112.467c-0.229,0-0.436-0.159-0.487-0.392c-0.018-0.08-0.426-1.995,0.308-4.125
				c0.09-0.261,0.377-0.399,0.636-0.31c0.261,0.09,0.399,0.375,0.31,0.635c-0.639,1.854-0.28,3.568-0.276,3.585
				c0.059,0.27-0.112,0.536-0.382,0.595C193.51,112.463,193.474,112.467,193.439,112.467z"/>
		</g>
	</g>
	<g>
		<g>
			<path fill="#161616" d="M173.398,116.744c-0.223,0-0.426-0.15-0.483-0.376c-0.047-0.183-1.13-4.544,0.259-9.959
				c0.068-0.268,0.345-0.428,0.608-0.36c0.268,0.069,0.429,0.341,0.36,0.608c-1.322,5.156-0.27,9.421-0.259,9.464
				c0.068,0.268-0.094,0.54-0.361,0.608C173.481,116.739,173.439,116.744,173.398,116.744z"/>
		</g>
		<g>
			<path fill="#161616" d="M171.656,116.35c-0.271,0-0.494-0.217-0.5-0.489c0-0.025-0.065-2.561-0.941-5.364
				c-0.082-0.263,0.064-0.544,0.328-0.626c0.27-0.083,0.544,0.065,0.627,0.328c0.92,2.944,0.984,5.532,0.986,5.64
				c0.006,0.276-0.213,0.504-0.489,0.511C171.663,116.35,171.659,116.35,171.656,116.35z"/>
		</g>
		<g>
			<path fill="#161616" d="M175.032,115.242c-0.229,0-0.436-0.159-0.487-0.392c-0.018-0.081-0.425-1.996,0.309-4.125
				c0.09-0.261,0.377-0.4,0.636-0.31c0.261,0.09,0.399,0.375,0.31,0.635c-0.639,1.854-0.281,3.569-0.277,3.586
				c0.059,0.27-0.112,0.536-0.382,0.595C175.103,115.238,175.067,115.242,175.032,115.242z"/>
		</g>
	</g>
	<g>
		<g>
			<path fill="#161616" d="M202.359,141.551c-0.224,0-0.427-0.15-0.484-0.376c-0.047-0.184-1.13-4.545,0.259-9.96
				c0.068-0.268,0.346-0.43,0.608-0.36c0.268,0.068,0.429,0.341,0.36,0.608c-1.326,5.17-0.27,9.422-0.259,9.464
				c0.068,0.268-0.093,0.54-0.36,0.608C202.441,141.546,202.4,141.551,202.359,141.551z"/>
		</g>
		<g>
			<path fill="#161616" d="M200.616,141.156c-0.271,0-0.494-0.217-0.5-0.489c0-0.025-0.065-2.561-0.941-5.362
				c-0.082-0.264,0.064-0.544,0.328-0.627c0.269-0.082,0.544,0.065,0.627,0.328c0.92,2.944,0.984,5.531,0.986,5.64
				c0.006,0.276-0.213,0.505-0.489,0.511C200.623,141.156,200.62,141.156,200.616,141.156z"/>
		</g>
		<g>
			<path fill="#161616" d="M203.992,140.049c-0.229,0-0.436-0.159-0.487-0.393c-0.018-0.08-0.425-1.995,0.309-4.126
				c0.09-0.26,0.368-0.4,0.636-0.31c0.261,0.09,0.399,0.374,0.31,0.636c-0.639,1.855-0.281,3.568-0.277,3.586
				c0.059,0.27-0.112,0.536-0.382,0.595C204.063,140.045,204.027,140.049,203.992,140.049z"/>
		</g>
	</g>
	<g>
		<g>
			<path fill="#161616" d="M200.524,149.324c-0.224,0-0.427-0.15-0.484-0.376c-0.047-0.184-1.13-4.545,0.259-9.96
				c0.068-0.267,0.344-0.428,0.608-0.36c0.268,0.068,0.429,0.341,0.36,0.608c-1.326,5.17-0.27,9.422-0.259,9.464
				c0.068,0.268-0.093,0.54-0.36,0.608C200.606,149.319,200.565,149.324,200.524,149.324z"/>
		</g>
		<g>
			<path fill="#161616" d="M198.781,148.93c-0.271,0-0.494-0.217-0.5-0.489c0-0.025-0.064-2.562-0.941-5.363
				c-0.082-0.264,0.064-0.544,0.328-0.627c0.269-0.081,0.544,0.065,0.627,0.328c0.921,2.944,0.984,5.532,0.986,5.641
				c0.006,0.276-0.214,0.505-0.489,0.511C198.788,148.93,198.784,148.93,198.781,148.93z"/>
		</g>
		<g>
			<path fill="#161616" d="M202.159,147.822c-0.23,0-0.437-0.159-0.488-0.393c-0.018-0.08-0.426-1.996,0.308-4.126
				c0.09-0.261,0.376-0.398,0.636-0.31c0.261,0.09,0.399,0.374,0.31,0.636c-0.643,1.866-0.28,3.567-0.276,3.585
				c0.06,0.27-0.111,0.536-0.381,0.596C202.23,147.818,202.194,147.822,202.159,147.822z"/>
		</g>
	</g>
	<g>
		<g>
			<path fill="#161616" d="M215.2,152.776c-0.224,0-0.427-0.15-0.484-0.376c-0.047-0.184-1.13-4.545,0.259-9.96
				c0.068-0.267,0.343-0.43,0.608-0.36c0.268,0.068,0.429,0.341,0.36,0.608c-1.326,5.17-0.27,9.422-0.259,9.464
				c0.068,0.268-0.093,0.54-0.36,0.608C215.282,152.771,215.241,152.776,215.2,152.776z"/>
		</g>
		<g>
			<path fill="#161616" d="M213.457,152.382c-0.271,0-0.494-0.217-0.5-0.489c0-0.025-0.065-2.561-0.942-5.363
				c-0.082-0.264,0.064-0.544,0.328-0.627c0.269-0.081,0.544,0.065,0.627,0.328c0.921,2.944,0.985,5.532,0.987,5.641
				c0.006,0.276-0.213,0.505-0.489,0.511C213.463,152.382,213.459,152.382,213.457,152.382z"/>
		</g>
		<g>
			<path fill="#161616" d="M216.833,151.274c-0.229,0-0.436-0.159-0.487-0.393c-0.018-0.08-0.425-1.996,0.309-4.126
				c0.09-0.261,0.376-0.399,0.636-0.31c0.261,0.09,0.399,0.374,0.31,0.636c-0.639,1.854-0.281,3.569-0.277,3.586
				c0.059,0.27-0.112,0.536-0.382,0.595C216.904,151.27,216.868,151.274,216.833,151.274z"/>
		</g>
	</g>
	<g>
		<g>
			<path fill="#161616" d="M186.425,149.388c-0.223,0-0.426-0.15-0.483-0.376c-0.047-0.184-1.13-4.544,0.259-9.959
				c0.068-0.267,0.346-0.429,0.608-0.36c0.268,0.068,0.429,0.341,0.36,0.608c-1.322,5.155-0.27,9.421-0.259,9.464
				c0.068,0.267-0.094,0.539-0.361,0.607C186.508,149.383,186.466,149.388,186.425,149.388z"/>
		</g>
		<g>
			<path fill="#161616" d="M184.683,148.994c-0.271,0-0.494-0.217-0.5-0.489c0-0.025-0.065-2.562-0.941-5.363
				c-0.082-0.264,0.064-0.544,0.328-0.627c0.268-0.083,0.545,0.065,0.627,0.328c0.92,2.944,0.984,5.532,0.986,5.641
				c0.006,0.276-0.213,0.505-0.489,0.511C184.69,148.994,184.686,148.994,184.683,148.994z"/>
		</g>
		<g>
			<path fill="#161616" d="M188.059,147.886c-0.229,0-0.436-0.159-0.487-0.393c-0.018-0.08-0.425-1.995,0.309-4.125
				c0.09-0.26,0.377-0.399,0.636-0.31c0.261,0.09,0.399,0.374,0.31,0.636c-0.639,1.854-0.281,3.567-0.277,3.585
				c0.059,0.27-0.112,0.536-0.382,0.595C188.13,147.882,188.094,147.886,188.059,147.886z"/>
		</g>
	</g>
	<g>
		<g>
			<path fill="#161616" d="M171.457,147.306c-0.224,0-0.427-0.15-0.484-0.376c-0.047-0.184-1.13-4.545,0.259-9.96
				c0.068-0.267,0.344-0.429,0.608-0.36c0.268,0.068,0.429,0.341,0.36,0.608c-1.326,5.17-0.27,9.422-0.259,9.464
				c0.068,0.268-0.093,0.54-0.36,0.608C171.539,147.301,171.498,147.306,171.457,147.306z"/>
		</g>
		<g>
			<path fill="#161616" d="M169.713,146.911c-0.271,0-0.494-0.217-0.5-0.489c0-0.025-0.064-2.562-0.941-5.363
				c-0.082-0.264,0.064-0.544,0.328-0.627c0.268-0.083,0.544,0.065,0.627,0.328c0.921,2.944,0.984,5.532,0.986,5.641
				c0.006,0.276-0.214,0.505-0.489,0.511C169.72,146.911,169.716,146.911,169.713,146.911z"/>
		</g>
		<g>
			<path fill="#161616" d="M173.091,145.804c-0.23,0-0.437-0.159-0.488-0.393c-0.018-0.08-0.426-1.996,0.308-4.126
				c0.09-0.261,0.376-0.397,0.636-0.31c0.261,0.09,0.399,0.374,0.31,0.636c-0.643,1.866-0.28,3.567-0.276,3.585
				c0.06,0.27-0.111,0.536-0.381,0.596C173.163,145.8,173.126,145.804,173.091,145.804z"/>
		</g>
	</g>
	<g>
		<g>
			<path fill="#161616" d="M160.241,146.52c-0.224,0-0.427-0.15-0.484-0.376c-0.047-0.184-1.13-4.545,0.259-9.96
				c0.068-0.267,0.344-0.428,0.608-0.36c0.268,0.068,0.429,0.341,0.36,0.608c-1.326,5.17-0.27,9.422-0.259,9.464
				c0.068,0.268-0.093,0.54-0.36,0.608C160.323,146.516,160.282,146.52,160.241,146.52z"/>
		</g>
		<g>
			<path fill="#161616" d="M158.498,146.126c-0.271,0-0.494-0.217-0.5-0.489c0-0.025-0.065-2.562-0.941-5.363
				c-0.082-0.264,0.064-0.544,0.328-0.627c0.269-0.083,0.545,0.065,0.627,0.328c0.92,2.944,0.984,5.532,0.986,5.641
				c0.006,0.276-0.213,0.505-0.489,0.511C158.504,146.126,158.5,146.126,158.498,146.126z"/>
		</g>
		<g>
			<path fill="#161616" d="M161.874,145.018c-0.229,0-0.436-0.159-0.487-0.393c-0.018-0.08-0.425-1.996,0.309-4.126
				c0.09-0.26,0.377-0.399,0.636-0.31c0.261,0.09,0.399,0.374,0.31,0.636c-0.639,1.854-0.281,3.569-0.277,3.586
				c0.059,0.27-0.112,0.536-0.382,0.595C161.945,145.015,161.909,145.018,161.874,145.018z"/>
		</g>
	</g>
	<g>
		<g>
			<path fill="#161616" d="M133.985,143.814c-0.224,0-0.427-0.15-0.484-0.376c-0.047-0.184-1.13-4.545,0.259-9.96
				c0.068-0.267,0.346-0.428,0.608-0.36c0.268,0.068,0.429,0.341,0.36,0.608c-1.326,5.17-0.27,9.422-0.259,9.464
				c0.068,0.268-0.093,0.54-0.36,0.608C134.067,143.81,134.026,143.814,133.985,143.814z"/>
		</g>
		<g>
			<path fill="#161616" d="M132.242,143.42c-0.271,0-0.494-0.217-0.5-0.489c0-0.025-0.065-2.561-0.941-5.362
				c-0.083-0.264,0.064-0.544,0.328-0.627c0.264-0.084,0.544,0.064,0.626,0.328c0.921,2.944,0.985,5.531,0.987,5.64
				c0.006,0.276-0.213,0.505-0.489,0.511C132.249,143.42,132.245,143.42,132.242,143.42z"/>
		</g>
		<g>
			<path fill="#161616" d="M135.618,142.312c-0.229,0-0.436-0.159-0.487-0.393c-0.018-0.08-0.425-1.995,0.309-4.126
				c0.09-0.261,0.369-0.399,0.636-0.31c0.261,0.09,0.399,0.374,0.31,0.636c-0.639,1.855-0.281,3.568-0.277,3.586
				c0.059,0.27-0.112,0.536-0.382,0.595C135.689,142.309,135.653,142.312,135.618,142.312z"/>
		</g>
	</g>
	<g>
		<g>
			<path fill="#161616" d="M124.336,149.778c-0.223,0-0.426-0.15-0.484-0.376c-0.047-0.184-1.129-4.545,0.259-9.96
				c0.069-0.268,0.34-0.43,0.608-0.36c0.268,0.068,0.429,0.341,0.36,0.608c-1.326,5.17-0.27,9.422-0.259,9.464
				c0.068,0.268-0.093,0.54-0.36,0.608C124.418,149.773,124.377,149.778,124.336,149.778z"/>
		</g>
		<g>
			<path fill="#161616" d="M122.593,149.384c-0.271,0-0.494-0.217-0.5-0.489c0-0.025-0.065-2.561-0.941-5.363
				c-0.083-0.264,0.064-0.544,0.328-0.627c0.261-0.083,0.543,0.064,0.626,0.328c0.92,2.945,0.984,5.532,0.987,5.641
				c0.006,0.276-0.213,0.505-0.489,0.511C122.6,149.384,122.597,149.384,122.593,149.384z"/>
		</g>
		<g>
			<path fill="#161616" d="M125.97,148.276c-0.229,0-0.436-0.159-0.487-0.393c-0.018-0.08-0.426-1.996,0.308-4.126
				c0.09-0.262,0.375-0.4,0.635-0.31c0.261,0.09,0.4,0.374,0.31,0.636c-0.639,1.854-0.28,3.568-0.277,3.586
				c0.059,0.27-0.112,0.536-0.382,0.595C126.041,148.272,126.005,148.276,125.97,148.276z"/>
		</g>
	</g>
	<g>
		<g>
			<path fill="#161616" d="M108.604,150.711c-0.223,0-0.426-0.15-0.484-0.376c-0.047-0.184-1.129-4.545,0.259-9.96
				c0.069-0.267,0.343-0.431,0.608-0.36c0.268,0.068,0.429,0.341,0.36,0.608c-1.326,5.17-0.27,9.422-0.259,9.464
				c0.068,0.268-0.093,0.54-0.36,0.608C108.687,150.706,108.645,150.711,108.604,150.711z"/>
		</g>
		<g>
			<path fill="#161616" d="M106.861,150.316c-0.271,0-0.494-0.217-0.5-0.489c0-0.025-0.065-2.562-0.941-5.363
				c-0.083-0.264,0.064-0.544,0.328-0.627c0.264-0.084,0.544,0.064,0.626,0.328c0.92,2.944,0.984,5.532,0.987,5.641
				c0.006,0.276-0.213,0.505-0.489,0.511C106.868,150.316,106.865,150.316,106.861,150.316z"/>
		</g>
		<g>
			<path fill="#161616" d="M110.238,149.209c-0.229,0-0.436-0.159-0.487-0.393c-0.018-0.08-0.426-1.996,0.308-4.126
				c0.09-0.261,0.376-0.399,0.635-0.31c0.261,0.09,0.4,0.374,0.31,0.636c-0.639,1.854-0.28,3.568-0.277,3.586
				c0.059,0.27-0.112,0.536-0.382,0.595C110.309,149.205,110.273,149.209,110.238,149.209z"/>
		</g>
	</g>
	<g>
		<g>
			<path fill="#161616" d="M101.196,143.652c-0.223,0-0.426-0.15-0.484-0.376c-0.047-0.184-1.129-4.545,0.259-9.96
				c0.069-0.268,0.343-0.428,0.608-0.36c0.268,0.068,0.429,0.341,0.36,0.608c-1.326,5.17-0.27,9.422-0.259,9.464
				c0.068,0.268-0.093,0.54-0.36,0.608C101.279,143.647,101.237,143.652,101.196,143.652z"/>
		</g>
		<g>
			<path fill="#161616" d="M99.454,143.258c-0.271,0-0.494-0.217-0.5-0.489c0-0.025-0.065-2.562-0.941-5.363
				c-0.083-0.264,0.064-0.544,0.328-0.627c0.265-0.084,0.544,0.064,0.626,0.328c0.92,2.944,0.984,5.532,0.987,5.641
				c0.006,0.276-0.213,0.505-0.489,0.511C99.46,143.258,99.457,143.258,99.454,143.258z"/>
		</g>
		<g>
			<path fill="#161616" d="M102.831,142.15c-0.229,0-0.437-0.159-0.488-0.393c-0.018-0.08-0.426-1.996,0.309-4.126
				c0.09-0.262,0.375-0.399,0.636-0.31s0.399,0.375,0.31,0.636c-0.644,1.867-0.281,3.568-0.277,3.585
				c0.06,0.27-0.111,0.536-0.381,0.596C102.902,142.146,102.866,142.15,102.831,142.15z"/>
		</g>
	</g>
	<g>
		<g>
			<path fill="#161616" d="M162.353,158.199c-0.224,0-0.427-0.15-0.484-0.376c-0.047-0.184-1.13-4.545,0.259-9.96
				c0.068-0.267,0.345-0.428,0.608-0.36c0.268,0.068,0.429,0.341,0.36,0.608c-1.326,5.17-0.27,9.422-0.259,9.464
				c0.068,0.268-0.093,0.54-0.36,0.608C162.435,158.194,162.394,158.199,162.353,158.199z"/>
		</g>
		<g>
			<path fill="#161616" d="M160.61,157.805c-0.271,0-0.494-0.217-0.5-0.489c0-0.025-0.064-2.562-0.941-5.363
				c-0.082-0.264,0.064-0.544,0.328-0.627c0.269-0.081,0.545,0.065,0.627,0.328c0.921,2.944,0.984,5.532,0.986,5.641
				c0.006,0.276-0.214,0.505-0.489,0.511C160.617,157.805,160.613,157.805,160.61,157.805z"/>
		</g>
		<g>
			<path fill="#161616" d="M163.988,156.697c-0.23,0-0.437-0.159-0.488-0.393c-0.018-0.08-0.426-1.996,0.308-4.126
				c0.09-0.26,0.377-0.399,0.636-0.31c0.261,0.09,0.399,0.374,0.31,0.636c-0.643,1.866-0.28,3.567-0.276,3.585
				c0.06,0.27-0.111,0.536-0.381,0.596C164.059,156.693,164.023,156.697,163.988,156.697z"/>
		</g>
	</g>
	<g>
		<g>
			<path fill="#161616" d="M172.044,156.025c-0.223,0-0.426-0.15-0.483-0.376c-0.047-0.184-1.13-4.545,0.259-9.959
				c0.068-0.267,0.344-0.429,0.608-0.36c0.268,0.068,0.429,0.341,0.36,0.608c-1.322,5.154-0.27,9.421-0.259,9.464
				c0.068,0.267-0.094,0.539-0.361,0.607C172.127,156.02,172.085,156.025,172.044,156.025z"/>
		</g>
		<g>
			<path fill="#161616" d="M170.302,155.631c-0.271,0-0.494-0.217-0.5-0.489c0-0.025-0.064-2.561-0.941-5.362
				c-0.082-0.264,0.064-0.544,0.328-0.627c0.268-0.083,0.545,0.065,0.627,0.328c0.921,2.944,0.984,5.531,0.986,5.64
				c0.006,0.276-0.214,0.505-0.489,0.511C170.309,155.631,170.305,155.631,170.302,155.631z"/>
		</g>
		<g>
			<path fill="#161616" d="M173.68,154.523c-0.23,0-0.437-0.159-0.488-0.393c-0.018-0.08-0.426-1.995,0.308-4.125
				c0.09-0.261,0.377-0.397,0.636-0.31c0.261,0.09,0.399,0.374,0.31,0.636c-0.643,1.866-0.28,3.566-0.276,3.584
				c0.06,0.27-0.111,0.536-0.381,0.596C173.751,154.519,173.715,154.523,173.68,154.523z"/>
		</g>
	</g>
	<g>
		<g>
			<path fill="#161616" d="M155.267,116.744c-0.223,0-0.426-0.15-0.483-0.376c-0.047-0.183-1.13-4.544,0.259-9.959
				c0.068-0.268,0.345-0.428,0.608-0.36c0.268,0.069,0.429,0.341,0.36,0.608c-1.322,5.156-0.27,9.421-0.259,9.464
				c0.068,0.268-0.094,0.54-0.361,0.608C155.35,116.739,155.308,116.744,155.267,116.744z"/>
		</g>
		<g>
			<path fill="#161616" d="M153.525,116.35c-0.271,0-0.494-0.217-0.5-0.489c0-0.025-0.065-2.561-0.942-5.363
				c-0.082-0.264,0.064-0.544,0.328-0.626c0.27-0.083,0.544,0.065,0.627,0.328c0.921,2.944,0.985,5.532,0.987,5.641
				c0.006,0.276-0.213,0.504-0.489,0.511C153.532,116.35,153.528,116.35,153.525,116.35z"/>
		</g>
		<g>
			<path fill="#161616" d="M156.901,115.242c-0.229,0-0.436-0.159-0.487-0.392c-0.018-0.081-0.425-1.996,0.309-4.125
				c0.09-0.261,0.377-0.4,0.636-0.31c0.261,0.09,0.399,0.375,0.31,0.635c-0.639,1.854-0.281,3.569-0.277,3.586
				c0.059,0.27-0.112,0.536-0.382,0.595C156.972,115.238,156.936,115.242,156.901,115.242z"/>
		</g>
	</g>
	<g>
		<g>
			<path fill="#161616" d="M181.203,109.339c-0.223,0-0.426-0.15-0.483-0.376c-0.047-0.183-1.13-4.544,0.259-9.959
				c0.068-0.267,0.345-0.43,0.608-0.36c0.268,0.069,0.429,0.341,0.36,0.608c-1.322,5.156-0.27,9.421-0.259,9.464
				c0.068,0.268-0.094,0.54-0.361,0.608C181.286,109.334,181.244,109.339,181.203,109.339z"/>
		</g>
		<g>
			<path fill="#161616" d="M179.46,108.945c-0.271,0-0.494-0.217-0.5-0.489c0-0.025-0.065-2.561-0.941-5.364
				c-0.082-0.263,0.064-0.544,0.328-0.626c0.27-0.083,0.544,0.065,0.627,0.328c0.92,2.944,0.984,5.532,0.986,5.64
				c0.006,0.276-0.213,0.504-0.489,0.511C179.467,108.945,179.463,108.945,179.46,108.945z"/>
		</g>
		<g>
			<path fill="#161616" d="M182.837,107.837c-0.23,0-0.437-0.159-0.488-0.393c-0.018-0.081-0.425-1.995,0.309-4.125
				c0.09-0.261,0.376-0.398,0.636-0.31c0.261,0.09,0.399,0.375,0.31,0.635c-0.643,1.867-0.281,3.568-0.277,3.585
				c0.06,0.27-0.111,0.537-0.381,0.596C182.909,107.833,182.873,107.837,182.837,107.837z"/>
		</g>
	</g>
	<g>
		<g>
			<path fill="#161616" d="M215.857,113.969c-0.223,0-0.426-0.15-0.483-0.376c-0.047-0.183-1.13-4.545,0.259-9.959
				c0.068-0.267,0.344-0.429,0.608-0.36c0.268,0.069,0.429,0.341,0.36,0.608c-1.322,5.155-0.27,9.421-0.259,9.464
				c0.068,0.268-0.094,0.54-0.361,0.608C215.94,113.964,215.898,113.969,215.857,113.969z"/>
		</g>
		<g>
			<path fill="#161616" d="M214.115,113.575c-0.271,0-0.494-0.217-0.5-0.489c0-0.025-0.064-2.561-0.941-5.363
				c-0.082-0.264,0.064-0.544,0.328-0.626c0.269-0.083,0.544,0.065,0.627,0.328c0.921,2.944,0.984,5.532,0.986,5.641
				c0.006,0.276-0.214,0.504-0.489,0.51C214.122,113.575,214.118,113.575,214.115,113.575z"/>
		</g>
		<g>
			<path fill="#161616" d="M217.492,112.467c-0.23,0-0.437-0.159-0.488-0.393c-0.018-0.081-0.425-1.995,0.309-4.125
				c0.09-0.261,0.376-0.399,0.636-0.31c0.261,0.09,0.399,0.375,0.31,0.635c-0.643,1.867-0.281,3.568-0.277,3.585
				c0.06,0.27-0.111,0.537-0.381,0.596C217.563,112.463,217.527,112.467,217.492,112.467z"/>
		</g>
	</g>
	<g>
		<g>
			<path fill="#161616" d="M233.002,139.762c-0.224,0-0.427-0.15-0.484-0.376c-0.047-0.184-1.13-4.545,0.259-9.96
				c0.068-0.267,0.345-0.431,0.608-0.36c0.268,0.068,0.429,0.341,0.36,0.608c-1.326,5.17-0.27,9.422-0.259,9.464
				c0.068,0.268-0.093,0.54-0.36,0.608C233.084,139.757,233.043,139.762,233.002,139.762z"/>
		</g>
		<g>
			<path fill="#161616" d="M231.259,139.367c-0.271,0-0.494-0.217-0.5-0.489c0-0.025-0.064-2.562-0.941-5.363
				c-0.082-0.264,0.064-0.544,0.328-0.627c0.267-0.082,0.544,0.065,0.627,0.328c0.921,2.944,0.984,5.532,0.986,5.641
				c0.006,0.276-0.214,0.505-0.489,0.511C231.266,139.367,231.262,139.367,231.259,139.367z"/>
		</g>
		<g>
			<path fill="#161616" d="M234.637,138.26c-0.23,0-0.437-0.159-0.488-0.393c-0.018-0.08-0.426-1.996,0.308-4.126
				c0.09-0.261,0.377-0.398,0.636-0.31c0.261,0.09,0.399,0.374,0.31,0.636c-0.643,1.866-0.28,3.567-0.276,3.585
				c0.06,0.27-0.111,0.536-0.381,0.596C234.708,138.256,234.672,138.26,234.637,138.26z"/>
		</g>
	</g>
	<g>
		<g>
			<path fill="#161616" d="M228.596,151.129c-0.233,0-0.441-0.164-0.489-0.402c-0.046-0.23-1.118-5.743,0.259-12.6
				c0.055-0.271,0.323-0.445,0.589-0.392c0.271,0.055,0.446,0.318,0.392,0.589c-1.336,6.649-0.27,12.152-0.259,12.207
				c0.054,0.271-0.122,0.534-0.393,0.588C228.662,151.126,228.629,151.129,228.596,151.129z"/>
		</g>
		<g>
			<path fill="#161616" d="M226.375,150.732c-0.023,0-0.047-0.002-0.07-0.005c-0.273-0.038-0.464-0.291-0.426-0.564
				c0.013-0.091,1.22-9.111-3.175-13.505c-0.195-0.195-0.195-0.512,0-0.707s0.512-0.195,0.707,0
				c4.749,4.748,3.513,13.961,3.458,14.351C226.834,150.552,226.621,150.732,226.375,150.732z"/>
		</g>
		<g>
			<path fill="#161616" d="M230.564,149.492c-0.202,0-0.392-0.123-0.468-0.323c-0.079-0.208-1.894-5.155,1.872-8.921
				c0.195-0.195,0.512-0.195,0.707,0s0.195,0.512,0,0.707c-3.301,3.301-1.713,7.676-1.644,7.86c0.097,0.259-0.033,0.547-0.292,0.645
				C230.682,149.481,230.623,149.492,230.564,149.492z"/>
		</g>
	</g>
	<g>
		<g>
			<path fill="#161616" d="M115.623,146.627c-0.233,0-0.442-0.164-0.49-0.402c-0.046-0.23-1.118-5.743,0.259-12.601
				c0.055-0.271,0.316-0.449,0.589-0.392c0.271,0.055,0.446,0.318,0.392,0.589c-1.338,6.662-0.27,12.153-0.259,12.208
				c0.054,0.271-0.121,0.534-0.392,0.588C115.688,146.624,115.655,146.627,115.623,146.627z"/>
		</g>
		<g>
			<path fill="#161616" d="M113.401,146.229c-0.023,0-0.046-0.002-0.07-0.005c-0.273-0.038-0.464-0.291-0.426-0.564
				c0.013-0.091,1.219-9.11-3.175-13.505c-0.195-0.195-0.195-0.512,0-0.707s0.512-0.195,0.707,0
				c4.749,4.749,3.513,13.961,3.458,14.351C113.86,146.049,113.646,146.229,113.401,146.229z"/>
		</g>
		<g>
			<path fill="#161616" d="M117.59,144.99c-0.202,0-0.392-0.123-0.468-0.323c-0.079-0.208-1.893-5.156,1.872-8.922
				c0.195-0.195,0.512-0.195,0.707,0s0.195,0.512,0,0.707c-3.313,3.313-1.66,7.815-1.643,7.861c0.098,0.258-0.032,0.547-0.291,0.645
				C117.709,144.979,117.649,144.99,117.59,144.99z"/>
		</g>
	</g>
	<g>
		<g>
			<path fill="#161616" d="M180.553,141.566c-0.233,0-0.441-0.164-0.489-0.402c-0.046-0.23-1.118-5.743,0.259-12.6
				c0.055-0.271,0.323-0.445,0.589-0.392c0.271,0.055,0.446,0.318,0.392,0.589c-1.336,6.649-0.27,12.152-0.259,12.207
				c0.054,0.271-0.122,0.534-0.393,0.588C180.619,141.563,180.586,141.566,180.553,141.566z"/>
		</g>
		<g>
			<path fill="#161616" d="M178.333,141.17c-0.023,0-0.047-0.002-0.07-0.005c-0.273-0.038-0.464-0.291-0.426-0.564
				c0.013-0.091,1.22-9.111-3.175-13.505c-0.195-0.195-0.195-0.512,0-0.707s0.512-0.195,0.707,0
				c4.749,4.748,3.513,13.961,3.458,14.351C178.792,140.989,178.578,141.17,178.333,141.17z"/>
		</g>
		<g>
			<path fill="#161616" d="M182.522,139.93c-0.202,0-0.392-0.123-0.468-0.323c-0.079-0.208-1.894-5.155,1.871-8.921
				c0.195-0.195,0.512-0.195,0.707,0s0.195,0.512,0,0.707c-3.3,3.301-1.712,7.676-1.643,7.86c0.097,0.259-0.033,0.547-0.292,0.645
				C182.64,139.919,182.581,139.93,182.522,139.93z"/>
		</g>
	</g>
	<g>
		<g>
			<path fill="#161616" d="M161.873,113.946c-0.206,0-0.399-0.129-0.472-0.335c-0.092-0.26,0.046-0.545,0.307-0.637
				c0.051-0.018,5.172-1.829,7.965-4.252c0.209-0.181,0.523-0.159,0.706,0.05c0.181,0.208,0.158,0.524-0.05,0.705
				c-2.939,2.55-8.073,4.365-8.291,4.441C161.983,113.937,161.927,113.946,161.873,113.946z"/>
		</g>
		<g>
			<path fill="#161616" d="M166.607,113.946c-0.206,0-0.398-0.128-0.472-0.333c-0.092-0.26,0.045-0.546,0.305-0.638
				c0.038-0.014,3.816-1.371,6.609-4.009c0.2-0.19,0.517-0.18,0.707,0.02c0.189,0.201,0.181,0.517-0.02,0.707
				c-2.951,2.788-6.801,4.167-6.963,4.225C166.718,113.937,166.663,113.946,166.607,113.946z"/>
		</g>
		<g>
			<path fill="#161616" d="M161.227,111.888c-0.244,0-0.458-0.18-0.494-0.43c-0.039-0.273,0.151-0.526,0.425-0.565
				c0.019-0.002,1.841-0.271,3.103-1.156c0.227-0.157,0.538-0.104,0.696,0.123c0.159,0.227,0.104,0.538-0.122,0.697
				c-1.462,1.023-3.452,1.315-3.536,1.327C161.274,111.887,161.25,111.888,161.227,111.888z"/>
		</g>
	</g>
	<g>
		<g>
			<path fill="#161616" d="M154.413,120.971c-0.206,0-0.399-0.129-0.472-0.335c-0.092-0.261,0.046-0.546,0.307-0.637
				c0.051-0.019,5.172-1.829,7.965-4.252c0.209-0.181,0.523-0.159,0.706,0.05c0.181,0.208,0.158,0.524-0.05,0.705
				c-2.939,2.55-8.073,4.365-8.291,4.441C154.523,120.962,154.467,120.971,154.413,120.971z"/>
		</g>
		<g>
			<path fill="#161616" d="M159.147,120.971c-0.206,0-0.398-0.128-0.472-0.333c-0.092-0.261,0.045-0.546,0.305-0.639
				c0.038-0.013,3.816-1.37,6.609-4.008c0.201-0.19,0.517-0.18,0.707,0.02c0.189,0.201,0.181,0.517-0.02,0.707
				c-2.952,2.788-6.801,4.167-6.964,4.225C159.258,120.962,159.203,120.971,159.147,120.971z"/>
		</g>
		<g>
			<path fill="#161616" d="M153.766,118.913c-0.244,0-0.458-0.18-0.494-0.43c-0.039-0.273,0.151-0.526,0.425-0.565
				c0.019-0.002,1.841-0.271,3.104-1.155c0.227-0.157,0.539-0.105,0.696,0.123c0.159,0.226,0.104,0.538-0.122,0.696
				c-1.463,1.023-3.453,1.314-3.537,1.326C153.813,118.911,153.79,118.913,153.766,118.913z"/>
		</g>
	</g>
	<g>
		<g>
			<path fill="#161616" d="M146.046,115.042c-0.206,0-0.399-0.129-0.472-0.335c-0.092-0.26,0.046-0.546,0.307-0.637
				c0.051-0.018,5.172-1.829,7.965-4.252c0.208-0.182,0.523-0.16,0.706,0.05c0.181,0.208,0.158,0.524-0.05,0.705
				c-2.939,2.551-8.074,4.365-8.291,4.441C146.157,115.033,146.101,115.042,146.046,115.042z"/>
		</g>
		<g>
			<path fill="#161616" d="M150.781,115.042c-0.206,0-0.398-0.128-0.472-0.333c-0.092-0.26,0.045-0.546,0.305-0.638
				c0.038-0.014,3.816-1.371,6.609-4.008c0.201-0.19,0.519-0.181,0.707,0.02c0.189,0.201,0.181,0.517-0.02,0.707
				c-2.952,2.788-6.801,4.167-6.963,4.225C150.892,115.033,150.836,115.042,150.781,115.042z"/>
		</g>
		<g>
			<path fill="#161616" d="M145.401,112.984c-0.244,0-0.458-0.18-0.494-0.43c-0.039-0.273,0.151-0.526,0.425-0.565
				c0.019-0.002,1.841-0.271,3.103-1.155c0.228-0.158,0.538-0.104,0.696,0.123c0.159,0.226,0.104,0.538-0.122,0.696
				c-1.462,1.023-3.452,1.314-3.536,1.326C145.448,112.982,145.424,112.984,145.401,112.984z"/>
		</g>
	</g>
	<g>
		<g>
			<path fill="#161616" d="M136.644,121.086c-0.206,0-0.399-0.129-0.472-0.335c-0.092-0.261,0.046-0.546,0.307-0.637
				c0.051-0.019,5.171-1.829,7.964-4.252c0.208-0.182,0.523-0.159,0.706,0.05c0.181,0.208,0.158,0.524-0.05,0.705
				c-2.939,2.55-8.072,4.365-8.29,4.441C136.754,121.077,136.699,121.086,136.644,121.086z"/>
		</g>
		<g>
			<path fill="#161616" d="M141.378,121.086c-0.206,0-0.398-0.128-0.472-0.333c-0.092-0.261,0.045-0.546,0.305-0.639
				c0.038-0.013,3.815-1.371,6.61-4.009c0.198-0.188,0.518-0.18,0.706,0.021c0.189,0.201,0.181,0.517-0.021,0.707
				c-2.952,2.787-6.8,4.167-6.962,4.225C141.49,121.077,141.434,121.086,141.378,121.086z"/>
		</g>
		<g>
			<path fill="#161616" d="M135.998,119.028c-0.244,0-0.458-0.18-0.494-0.43c-0.038-0.273,0.151-0.526,0.425-0.565
				c0.019-0.002,1.841-0.271,3.103-1.156c0.227-0.157,0.539-0.104,0.696,0.123c0.159,0.227,0.104,0.538-0.122,0.697
				c-1.462,1.023-3.452,1.315-3.536,1.327C136.044,119.026,136.021,119.028,135.998,119.028z"/>
		</g>
	</g>
	<g>
		<g>
			<path fill="#161616" d="M117.119,121.475c-0.207,0-0.4-0.129-0.472-0.335c-0.091-0.261,0.046-0.546,0.306-0.637
				c0.052-0.019,5.172-1.829,7.965-4.252c0.208-0.182,0.524-0.159,0.705,0.05c0.181,0.208,0.159,0.524-0.05,0.705
				c-2.939,2.55-8.073,4.365-8.29,4.441C117.229,121.466,117.174,121.475,117.119,121.475z"/>
		</g>
		<g>
			<path fill="#161616" d="M121.854,121.475c-0.206,0-0.399-0.128-0.471-0.333c-0.092-0.261,0.044-0.546,0.305-0.639
				c0.038-0.013,3.815-1.369,6.609-4.008c0.202-0.19,0.518-0.181,0.707,0.02c0.19,0.201,0.181,0.517-0.02,0.707
				c-2.952,2.789-6.8,4.167-6.963,4.225C121.965,121.466,121.909,121.475,121.854,121.475z"/>
		</g>
		<g>
			<path fill="#161616" d="M116.474,119.417c-0.245,0-0.459-0.181-0.494-0.43c-0.039-0.273,0.151-0.526,0.424-0.565
				c0.018-0.002,1.841-0.271,3.103-1.156c0.226-0.158,0.538-0.103,0.697,0.123c0.158,0.227,0.104,0.538-0.123,0.697
				c-1.461,1.023-3.452,1.314-3.537,1.326C116.521,119.415,116.497,119.417,116.474,119.417z"/>
		</g>
	</g>
	<g>
		<g>
			<path fill="#161616" d="M194.167,112.953c-0.206,0-0.399-0.129-0.472-0.335c-0.092-0.26,0.046-0.545,0.307-0.637
				c0.051-0.018,5.172-1.829,7.965-4.252c0.209-0.181,0.523-0.159,0.706,0.05c0.181,0.208,0.158,0.524-0.05,0.705
				c-2.939,2.55-8.073,4.365-8.291,4.441C194.278,112.944,194.222,112.953,194.167,112.953z"/>
		</g>
		<g>
			<path fill="#161616" d="M198.902,112.953c-0.206,0-0.398-0.128-0.472-0.333c-0.092-0.26,0.045-0.546,0.305-0.638
				c0.038-0.014,3.816-1.371,6.609-4.009c0.201-0.19,0.518-0.18,0.707,0.02c0.189,0.201,0.181,0.517-0.02,0.707
				c-2.951,2.788-6.801,4.167-6.963,4.225C199.013,112.944,198.958,112.953,198.902,112.953z"/>
		</g>
		<g>
			<path fill="#161616" d="M193.522,110.894c-0.244,0-0.458-0.18-0.494-0.43c-0.038-0.273,0.151-0.526,0.425-0.565
				c0.019-0.002,1.841-0.271,3.103-1.155c0.227-0.157,0.538-0.104,0.696,0.123c0.159,0.227,0.104,0.538-0.122,0.697
				c-1.462,1.023-3.452,1.314-3.536,1.326C193.569,110.893,193.545,110.894,193.522,110.894z"/>
		</g>
	</g>
	<g>
		<g>
			<path fill="#161616" d="M203.083,117.643c-0.206,0-0.399-0.129-0.472-0.334c-0.092-0.261,0.046-0.546,0.307-0.637
				c0.051-0.018,5.171-1.829,7.964-4.252c0.208-0.182,0.523-0.159,0.706,0.05c0.181,0.208,0.158,0.524-0.05,0.705
				c-2.939,2.55-8.072,4.365-8.29,4.441C203.193,117.635,203.137,117.643,203.083,117.643z"/>
		</g>
		<g>
			<path fill="#161616" d="M207.816,117.643c-0.206,0-0.398-0.128-0.472-0.333c-0.092-0.26,0.045-0.546,0.305-0.638
				c0.038-0.014,3.816-1.371,6.61-4.009c0.201-0.189,0.52-0.18,0.707,0.021c0.189,0.201,0.181,0.517-0.02,0.707
				c-2.953,2.788-6.802,4.167-6.964,4.225C207.927,117.634,207.872,117.643,207.816,117.643z"/>
		</g>
		<g>
			<path fill="#161616" d="M202.436,115.585c-0.244,0-0.458-0.18-0.494-0.43c-0.038-0.273,0.151-0.526,0.425-0.565
				c0.019-0.002,1.841-0.271,3.103-1.155c0.228-0.158,0.538-0.104,0.696,0.123c0.159,0.227,0.104,0.538-0.122,0.697
				c-1.462,1.023-3.452,1.314-3.536,1.326C202.483,115.583,202.459,115.585,202.436,115.585z"/>
		</g>
	</g>
	<g>
		<g>
			<path fill="#161616" d="M188.16,118.797c-0.206,0-0.399-0.129-0.472-0.334c-0.092-0.261,0.046-0.546,0.307-0.637
				c0.051-0.018,5.171-1.829,7.964-4.252c0.208-0.182,0.523-0.158,0.706,0.05c0.181,0.208,0.158,0.524-0.05,0.705
				c-2.939,2.55-8.072,4.365-8.29,4.441C188.27,118.789,188.214,118.797,188.16,118.797z"/>
		</g>
		<g>
			<path fill="#161616" d="M192.894,118.797c-0.206,0-0.398-0.128-0.472-0.333c-0.092-0.26,0.045-0.546,0.305-0.638
				c0.038-0.014,3.816-1.371,6.609-4.008c0.201-0.189,0.519-0.18,0.707,0.02c0.189,0.201,0.181,0.517-0.02,0.707
				c-2.952,2.788-6.801,4.167-6.963,4.225C193.005,118.788,192.95,118.797,192.894,118.797z"/>
		</g>
		<g>
			<path fill="#161616" d="M187.513,116.739c-0.244,0-0.458-0.18-0.494-0.43c-0.038-0.273,0.151-0.526,0.425-0.565
				c0.019-0.002,1.841-0.271,3.103-1.155c0.228-0.158,0.539-0.104,0.696,0.123c0.159,0.226,0.104,0.538-0.122,0.696
				c-1.462,1.023-3.452,1.314-3.536,1.326C187.56,116.738,187.537,116.739,187.513,116.739z"/>
		</g>
	</g>
	<g>
		<g>
			<path fill="#161616" d="M178.632,114.452c-0.206,0-0.399-0.129-0.472-0.335c-0.092-0.26,0.046-0.545,0.307-0.637
				c0.051-0.018,5.172-1.829,7.965-4.252c0.209-0.181,0.523-0.159,0.706,0.05c0.181,0.208,0.158,0.524-0.05,0.705
				c-2.939,2.55-8.073,4.365-8.291,4.441C178.743,114.443,178.687,114.452,178.632,114.452z"/>
		</g>
		<g>
			<path fill="#161616" d="M183.367,114.452c-0.206,0-0.398-0.128-0.472-0.333c-0.092-0.26,0.045-0.546,0.305-0.638
				c0.038-0.014,3.816-1.371,6.609-4.009c0.2-0.19,0.517-0.181,0.707,0.02c0.189,0.201,0.181,0.517-0.02,0.707
				c-2.951,2.788-6.801,4.167-6.963,4.225C183.478,114.442,183.422,114.452,183.367,114.452z"/>
		</g>
		<g>
			<path fill="#161616" d="M177.987,112.393c-0.244,0-0.458-0.18-0.494-0.43c-0.039-0.273,0.151-0.526,0.425-0.565
				c0.019-0.002,1.841-0.271,3.103-1.156c0.227-0.158,0.538-0.104,0.696,0.123c0.159,0.227,0.104,0.538-0.122,0.697
				c-1.462,1.023-3.452,1.315-3.536,1.327C178.034,112.392,178.01,112.393,177.987,112.393z"/>
		</g>
	</g>
	<g>
		<g>
			<path fill="#161616" d="M169.875,120.651c-0.206,0-0.399-0.129-0.472-0.335c-0.092-0.261,0.046-0.546,0.307-0.637
				c0.051-0.019,5.172-1.83,7.965-4.253c0.208-0.182,0.523-0.158,0.706,0.05c0.181,0.208,0.158,0.524-0.05,0.705
				c-2.939,2.55-8.073,4.365-8.291,4.441C169.986,120.643,169.93,120.651,169.875,120.651z"/>
		</g>
		<g>
			<path fill="#161616" d="M174.61,120.651c-0.206,0-0.398-0.128-0.472-0.333c-0.092-0.261,0.045-0.546,0.305-0.639
				c0.038-0.013,3.816-1.371,6.609-4.009c0.201-0.19,0.517-0.18,0.707,0.02c0.189,0.201,0.181,0.517-0.02,0.707
				c-2.951,2.788-6.801,4.168-6.963,4.226C174.721,120.643,174.666,120.651,174.61,120.651z"/>
		</g>
		<g>
			<path fill="#161616" d="M169.229,118.593c-0.244,0-0.458-0.18-0.494-0.43c-0.039-0.273,0.151-0.526,0.425-0.565
				c0.019-0.002,1.841-0.271,3.103-1.156c0.227-0.158,0.538-0.104,0.696,0.123c0.159,0.227,0.104,0.538-0.122,0.697
				c-1.462,1.023-3.452,1.315-3.536,1.327C169.276,118.591,169.252,118.593,169.229,118.593z"/>
		</g>
	</g>
	<g>
		<g>
			<path fill="#161616" d="M218.876,141.638c-0.206,0-0.399-0.129-0.472-0.335c-0.092-0.261,0.046-0.546,0.307-0.637
				c0.051-0.019,5.171-1.829,7.964-4.253c0.209-0.181,0.523-0.158,0.706,0.05c0.181,0.209,0.158,0.524-0.05,0.706
				c-2.939,2.55-8.072,4.364-8.29,4.44C218.987,141.629,218.931,141.638,218.876,141.638z"/>
		</g>
		<g>
			<path fill="#161616" d="M223.611,141.638c-0.206,0-0.398-0.128-0.472-0.333c-0.092-0.261,0.045-0.546,0.305-0.639
				c0.038-0.013,3.816-1.37,6.609-4.009c0.201-0.19,0.517-0.18,0.707,0.02c0.189,0.201,0.181,0.518-0.02,0.707
				c-2.951,2.788-6.801,4.168-6.963,4.226C223.722,141.629,223.667,141.638,223.611,141.638z"/>
		</g>
		<g>
			<path fill="#161616" d="M218.23,139.579c-0.244,0-0.458-0.18-0.494-0.43c-0.038-0.273,0.151-0.526,0.425-0.565
				c0.019-0.003,1.841-0.271,3.103-1.155c0.227-0.158,0.539-0.104,0.696,0.122c0.159,0.227,0.104,0.538-0.122,0.696
				c-1.462,1.024-3.452,1.315-3.536,1.327C218.277,139.577,218.253,139.579,218.23,139.579z"/>
		</g>
	</g>
	<g>
		<g>
			<path fill="#161616" d="M200.954,153.343c-0.206,0-0.399-0.129-0.472-0.335c-0.092-0.261,0.046-0.546,0.307-0.637
				c0.051-0.019,5.172-1.829,7.965-4.253c0.209-0.181,0.523-0.158,0.706,0.05c0.181,0.209,0.158,0.524-0.05,0.706
				c-2.939,2.55-8.073,4.364-8.291,4.44C201.064,153.334,201.008,153.343,200.954,153.343z"/>
		</g>
		<g>
			<path fill="#161616" d="M205.688,153.343c-0.206,0-0.398-0.128-0.472-0.333c-0.092-0.261,0.045-0.546,0.305-0.639
				c0.038-0.013,3.816-1.369,6.61-4.008c0.201-0.191,0.519-0.181,0.707,0.02c0.189,0.201,0.181,0.518-0.02,0.707
				c-2.953,2.788-6.802,4.167-6.965,4.225C205.799,153.334,205.744,153.343,205.688,153.343z"/>
		</g>
		<g>
			<path fill="#161616" d="M200.308,151.285c-0.244,0-0.458-0.18-0.494-0.43c-0.038-0.273,0.151-0.526,0.425-0.565
				c0.019-0.003,1.841-0.271,3.103-1.155c0.227-0.159,0.538-0.104,0.696,0.122c0.159,0.227,0.104,0.538-0.122,0.696
				c-1.462,1.024-3.452,1.315-3.536,1.327C200.355,151.283,200.332,151.285,200.308,151.285z"/>
		</g>
	</g>
	<g>
		<g>
			<path fill="#161616" d="M188.789,148.534c-0.206,0-0.399-0.129-0.472-0.335c-0.092-0.261,0.046-0.546,0.307-0.637
				c0.051-0.019,5.171-1.829,7.964-4.254c0.208-0.181,0.523-0.157,0.706,0.05c0.181,0.209,0.158,0.524-0.05,0.706
				c-2.939,2.551-8.072,4.365-8.29,4.441C188.899,148.525,188.843,148.534,188.789,148.534z"/>
		</g>
		<g>
			<path fill="#161616" d="M193.523,148.534c-0.206,0-0.398-0.128-0.472-0.333c-0.092-0.261,0.045-0.546,0.305-0.639
				c0.038-0.013,3.815-1.37,6.609-4.009c0.2-0.191,0.519-0.18,0.707,0.02c0.189,0.201,0.181,0.518-0.02,0.707
				c-2.952,2.788-6.801,4.168-6.963,4.226C193.634,148.525,193.579,148.534,193.523,148.534z"/>
		</g>
		<g>
			<path fill="#161616" d="M188.142,146.476c-0.244,0-0.458-0.18-0.494-0.43c-0.038-0.273,0.151-0.526,0.425-0.565
				c0.019-0.003,1.841-0.271,3.103-1.155c0.227-0.159,0.538-0.105,0.696,0.122c0.159,0.227,0.104,0.538-0.122,0.696
				c-1.462,1.024-3.452,1.315-3.536,1.327C188.189,146.474,188.166,146.476,188.142,146.476z"/>
		</g>
	</g>
	<g>
		<g>
			<path fill="#161616" d="M175.313,145.896c-0.206,0-0.399-0.129-0.472-0.335c-0.092-0.261,0.046-0.546,0.307-0.637
				c0.051-0.019,5.172-1.829,7.965-4.253c0.208-0.181,0.523-0.157,0.706,0.05c0.181,0.209,0.158,0.524-0.05,0.706
				c-2.939,2.55-8.073,4.364-8.291,4.44C175.423,145.888,175.368,145.896,175.313,145.896z"/>
		</g>
		<g>
			<path fill="#161616" d="M180.047,145.896c-0.206,0-0.398-0.128-0.472-0.333c-0.092-0.261,0.045-0.546,0.305-0.639
				c0.038-0.013,3.816-1.37,6.609-4.009c0.201-0.191,0.518-0.18,0.707,0.02c0.189,0.201,0.181,0.518-0.02,0.707
				c-2.951,2.788-6.801,4.168-6.963,4.226C180.159,145.888,180.103,145.896,180.047,145.896z"/>
		</g>
		<g>
			<path fill="#161616" d="M174.667,143.838c-0.244,0-0.458-0.18-0.494-0.43c-0.038-0.273,0.151-0.526,0.425-0.565
				c0.019-0.003,1.841-0.271,3.103-1.155c0.226-0.159,0.538-0.104,0.696,0.122c0.159,0.227,0.104,0.538-0.122,0.696
				c-1.462,1.024-3.452,1.315-3.536,1.327C174.714,143.836,174.691,143.838,174.667,143.838z"/>
		</g>
	</g>
	<g>
		<g>
			<path fill="#161616" d="M162.939,144.039c-0.206,0-0.399-0.129-0.472-0.335c-0.092-0.261,0.046-0.546,0.307-0.637
				c0.051-0.019,5.172-1.829,7.965-4.253c0.209-0.181,0.523-0.157,0.706,0.05c0.181,0.209,0.158,0.524-0.05,0.706
				c-2.939,2.55-8.073,4.364-8.291,4.44C163.049,144.03,162.994,144.039,162.939,144.039z"/>
		</g>
		<g>
			<path fill="#161616" d="M167.673,144.039c-0.206,0-0.398-0.128-0.472-0.333c-0.092-0.261,0.045-0.546,0.305-0.639
				c0.038-0.013,3.816-1.37,6.609-4.009c0.201-0.19,0.518-0.18,0.707,0.02c0.189,0.201,0.181,0.518-0.02,0.707
				c-2.951,2.788-6.801,4.168-6.963,4.226C167.785,144.03,167.729,144.039,167.673,144.039z"/>
		</g>
		<g>
			<path fill="#161616" d="M162.292,141.98c-0.244,0-0.458-0.18-0.494-0.43c-0.038-0.273,0.151-0.526,0.425-0.565
				c0.019-0.003,1.841-0.271,3.103-1.155c0.227-0.158,0.539-0.104,0.696,0.122c0.159,0.227,0.104,0.538-0.122,0.696
				c-1.462,1.024-3.452,1.315-3.536,1.327C162.339,141.978,162.316,141.98,162.292,141.98z"/>
		</g>
	</g>
	<g>
		<g>
			<path fill="#161616" d="M186.681,155.517c-0.206,0-0.399-0.129-0.472-0.335c-0.092-0.261,0.046-0.546,0.307-0.637
				c0.051-0.019,5.171-1.829,7.964-4.253c0.209-0.181,0.523-0.157,0.706,0.05c0.181,0.209,0.158,0.524-0.05,0.706
				c-2.939,2.55-8.072,4.364-8.29,4.44C186.792,155.508,186.736,155.517,186.681,155.517z"/>
		</g>
		<g>
			<path fill="#161616" d="M191.416,155.517c-0.206,0-0.398-0.128-0.472-0.333c-0.092-0.261,0.045-0.546,0.305-0.639
				c0.038-0.013,3.816-1.37,6.609-4.008c0.201-0.191,0.52-0.18,0.707,0.02c0.189,0.201,0.181,0.518-0.02,0.707
				c-2.952,2.787-6.801,4.167-6.963,4.225C191.527,155.508,191.471,155.517,191.416,155.517z"/>
		</g>
		<g>
			<path fill="#161616" d="M186.035,153.458c-0.244,0-0.458-0.18-0.494-0.43c-0.038-0.273,0.151-0.526,0.425-0.565
				c0.019-0.003,1.841-0.271,3.103-1.154c0.227-0.159,0.538-0.104,0.696,0.122c0.159,0.227,0.104,0.538-0.122,0.696
				c-1.462,1.023-3.452,1.314-3.536,1.326C186.082,153.456,186.058,153.458,186.035,153.458z"/>
		</g>
	</g>
	<g>
		<g>
			<path fill="#161616" d="M146.75,157.46c-0.206,0-0.399-0.129-0.472-0.335c-0.092-0.261,0.046-0.546,0.307-0.637
				c0.051-0.019,5.171-1.829,7.964-4.253c0.208-0.181,0.523-0.158,0.706,0.05c0.181,0.209,0.158,0.524-0.05,0.706
				c-2.939,2.55-8.072,4.364-8.29,4.44C146.861,157.451,146.805,157.46,146.75,157.46z"/>
		</g>
		<g>
			<path fill="#161616" d="M151.484,157.46c-0.206,0-0.398-0.128-0.472-0.333c-0.092-0.261,0.045-0.546,0.305-0.639
				c0.038-0.013,3.816-1.369,6.61-4.008c0.2-0.191,0.519-0.18,0.707,0.02c0.189,0.201,0.181,0.518-0.02,0.707
				c-2.953,2.788-6.802,4.167-6.965,4.225C151.595,157.451,151.54,157.46,151.484,157.46z"/>
		</g>
		<g>
			<path fill="#161616" d="M146.104,155.401c-0.245,0-0.458-0.181-0.494-0.43c-0.038-0.273,0.151-0.526,0.425-0.565
				c0.019-0.003,1.841-0.271,3.103-1.154c0.227-0.158,0.538-0.104,0.696,0.122c0.159,0.227,0.104,0.538-0.122,0.696
				c-1.462,1.024-3.452,1.314-3.537,1.326C146.151,155.399,146.127,155.401,146.104,155.401z"/>
		</g>
	</g>
	<g>
		<g>
			<path fill="#161616" d="M146,149.852c-0.206,0-0.399-0.129-0.472-0.335c-0.092-0.261,0.046-0.546,0.307-0.637
				c0.051-0.019,5.172-1.829,7.965-4.253c0.209-0.181,0.524-0.158,0.706,0.05c0.181,0.209,0.158,0.524-0.05,0.706
				c-2.939,2.55-8.073,4.364-8.291,4.44C146.11,149.843,146.054,149.852,146,149.852z"/>
		</g>
		<g>
			<path fill="#161616" d="M150.734,149.852c-0.206,0-0.398-0.128-0.472-0.333c-0.092-0.261,0.045-0.546,0.305-0.639
				c0.038-0.013,3.816-1.37,6.609-4.008c0.201-0.19,0.52-0.18,0.707,0.02c0.189,0.201,0.181,0.518-0.02,0.707
				c-2.952,2.787-6.801,4.167-6.963,4.225C150.845,149.843,150.79,149.852,150.734,149.852z"/>
		</g>
		<g>
			<path fill="#161616" d="M145.354,147.793c-0.244,0-0.458-0.18-0.494-0.43c-0.039-0.273,0.151-0.526,0.425-0.565
				c0.019-0.003,1.841-0.271,3.103-1.154c0.227-0.159,0.539-0.104,0.696,0.122c0.159,0.227,0.104,0.538-0.122,0.696
				c-1.462,1.023-3.452,1.314-3.536,1.326C145.401,147.791,145.377,147.793,145.354,147.793z"/>
		</g>
	</g>
	<g>
		<g>
			<path fill="#161616" d="M148.139,142.991c-0.206,0-0.399-0.129-0.472-0.335c-0.092-0.261,0.046-0.546,0.307-0.637
				c0.051-0.019,5.172-1.829,7.965-4.253c0.208-0.181,0.523-0.158,0.706,0.05c0.181,0.209,0.158,0.524-0.05,0.706
				c-2.939,2.55-8.073,4.364-8.291,4.44C148.25,142.982,148.194,142.991,148.139,142.991z"/>
		</g>
		<g>
			<path fill="#161616" d="M152.874,142.991c-0.206,0-0.398-0.128-0.472-0.333c-0.092-0.261,0.045-0.546,0.305-0.639
				c0.038-0.013,3.816-1.37,6.61-4.009c0.201-0.19,0.519-0.18,0.707,0.02c0.189,0.201,0.181,0.518-0.02,0.707
				c-2.953,2.788-6.802,4.168-6.964,4.226C152.985,142.982,152.929,142.991,152.874,142.991z"/>
		</g>
		<g>
			<path fill="#161616" d="M147.494,140.933c-0.244,0-0.458-0.18-0.494-0.43c-0.038-0.273,0.151-0.526,0.425-0.565
				c0.019-0.003,1.841-0.271,3.103-1.154c0.227-0.159,0.538-0.104,0.696,0.122c0.159,0.227,0.104,0.538-0.122,0.696
				c-1.462,1.023-3.452,1.314-3.536,1.326C147.541,140.931,147.517,140.933,147.494,140.933z"/>
		</g>
	</g>
	<g>
		<g>
			<path fill="#161616" d="M131.935,155.632c-0.207,0-0.4-0.129-0.472-0.335c-0.091-0.261,0.046-0.546,0.306-0.637
				c0.052-0.019,5.171-1.829,7.964-4.253c0.208-0.181,0.523-0.157,0.706,0.05c0.181,0.209,0.158,0.524-0.05,0.706
				c-2.939,2.55-8.072,4.364-8.29,4.44C132.045,155.623,131.99,155.632,131.935,155.632z"/>
		</g>
		<g>
			<path fill="#161616" d="M136.669,155.632c-0.206,0-0.398-0.128-0.472-0.333c-0.092-0.261,0.045-0.546,0.305-0.639
				c0.038-0.013,3.816-1.37,6.609-4.009c0.201-0.19,0.517-0.18,0.707,0.02c0.189,0.201,0.181,0.518-0.02,0.707
				c-2.951,2.788-6.801,4.168-6.963,4.226C136.781,155.623,136.725,155.632,136.669,155.632z"/>
		</g>
		<g>
			<path fill="#161616" d="M131.29,153.573c-0.245,0-0.459-0.18-0.494-0.43c-0.039-0.273,0.151-0.526,0.424-0.565
				c0.018-0.003,1.84-0.271,3.102-1.155c0.227-0.158,0.539-0.104,0.696,0.122c0.159,0.227,0.104,0.538-0.122,0.696
				c-1.462,1.024-3.452,1.315-3.536,1.327C131.336,153.571,131.313,153.573,131.29,153.573z"/>
		</g>
	</g>
	<g>
		<g>
			<path fill="#161616" d="M132.58,146.591c-0.206,0-0.4-0.129-0.472-0.335c-0.091-0.261,0.046-0.546,0.307-0.637
				c0.051-0.019,5.172-1.829,7.965-4.253c0.209-0.181,0.523-0.157,0.706,0.05c0.181,0.209,0.158,0.524-0.05,0.706
				c-2.939,2.55-8.073,4.364-8.291,4.44C132.69,146.582,132.634,146.591,132.58,146.591z"/>
		</g>
		<g>
			<path fill="#161616" d="M137.314,146.591c-0.206,0-0.398-0.128-0.472-0.333c-0.092-0.261,0.045-0.546,0.305-0.639
				c0.038-0.013,3.816-1.37,6.61-4.009c0.201-0.19,0.52-0.18,0.707,0.02c0.189,0.201,0.181,0.518-0.02,0.707
				c-2.953,2.788-6.802,4.168-6.964,4.226C137.425,146.582,137.37,146.591,137.314,146.591z"/>
		</g>
		<g>
			<path fill="#161616" d="M131.935,144.532c-0.245,0-0.459-0.18-0.494-0.43c-0.039-0.273,0.151-0.526,0.424-0.565
				c0.018-0.003,1.841-0.271,3.103-1.155c0.227-0.158,0.538-0.104,0.696,0.122c0.159,0.227,0.104,0.538-0.122,0.696
				c-1.462,1.024-3.452,1.315-3.537,1.327C131.981,144.53,131.958,144.532,131.935,144.532z"/>
		</g>
	</g>
	<g>
		<g>
			<path fill="#161616" d="M119.883,152.838c-0.207,0-0.4-0.129-0.472-0.335c-0.091-0.261,0.046-0.546,0.306-0.637
				c0.052-0.019,5.172-1.829,7.965-4.253c0.208-0.181,0.524-0.158,0.705,0.05c0.181,0.209,0.159,0.524-0.05,0.706
				c-2.939,2.55-8.073,4.364-8.29,4.44C119.993,152.829,119.938,152.838,119.883,152.838z"/>
		</g>
		<g>
			<path fill="#161616" d="M124.617,152.838c-0.206,0-0.399-0.128-0.471-0.333c-0.092-0.261,0.044-0.546,0.304-0.639
				c0.038-0.013,3.816-1.37,6.61-4.008c0.202-0.19,0.517-0.181,0.707,0.021c0.189,0.2,0.18,0.517-0.021,0.706
				c-2.952,2.787-6.801,4.167-6.963,4.225C124.728,152.829,124.672,152.838,124.617,152.838z"/>
		</g>
		<g>
			<path fill="#161616" d="M119.237,150.779c-0.245,0-0.459-0.18-0.494-0.43c-0.039-0.273,0.151-0.526,0.424-0.565
				c0.018-0.003,1.841-0.271,3.103-1.155c0.226-0.156,0.539-0.103,0.696,0.123c0.158,0.227,0.103,0.538-0.123,0.697
				c-1.461,1.022-3.452,1.313-3.536,1.325C119.284,150.777,119.26,150.779,119.237,150.779z"/>
		</g>
	</g>
	<g>
		<g>
			<path fill="#161616" d="M104.762,153.573c-0.207,0-0.4-0.129-0.472-0.335c-0.091-0.261,0.046-0.546,0.306-0.637
				c0.052-0.019,5.172-1.829,7.965-4.253c0.208-0.181,0.524-0.158,0.705,0.05c0.181,0.209,0.159,0.524-0.05,0.706
				c-2.939,2.55-8.073,4.364-8.29,4.44C104.872,153.564,104.816,153.573,104.762,153.573z"/>
		</g>
		<g>
			<path fill="#161616" d="M109.496,153.573c-0.206,0-0.399-0.128-0.471-0.333c-0.092-0.261,0.044-0.546,0.305-0.639
				c0.038-0.013,3.815-1.369,6.609-4.008c0.202-0.191,0.517-0.18,0.707,0.02c0.19,0.201,0.181,0.518-0.02,0.707
				c-2.952,2.788-6.8,4.167-6.963,4.225C109.607,153.564,109.551,153.573,109.496,153.573z"/>
		</g>
		<g>
			<path fill="#161616" d="M104.116,151.515c-0.245,0-0.459-0.181-0.494-0.43c-0.039-0.273,0.151-0.526,0.424-0.565
				c0.019-0.003,1.841-0.271,3.103-1.154c0.226-0.159,0.538-0.104,0.697,0.122c0.158,0.227,0.104,0.538-0.123,0.696
				c-1.461,1.024-3.453,1.314-3.537,1.326C104.163,151.513,104.139,151.515,104.116,151.515z"/>
		</g>
	</g>
	<g>
		<g>
			<path fill="#161616" d="M94.715,148.764c-0.207,0-0.4-0.129-0.472-0.335c-0.091-0.261,0.046-0.546,0.306-0.637
				c0.052-0.019,5.172-1.829,7.965-4.253c0.208-0.181,0.524-0.158,0.705,0.05c0.181,0.209,0.159,0.524-0.05,0.706
				c-2.939,2.55-8.073,4.364-8.29,4.44C94.826,148.755,94.77,148.764,94.715,148.764z"/>
		</g>
		<g>
			<path fill="#161616" d="M99.45,148.764c-0.206,0-0.399-0.128-0.471-0.333c-0.092-0.261,0.044-0.546,0.305-0.639
				c0.038-0.013,3.815-1.369,6.609-4.008c0.201-0.191,0.517-0.181,0.707,0.02c0.19,0.201,0.181,0.518-0.02,0.707
				c-2.952,2.788-6.8,4.167-6.963,4.225C99.561,148.755,99.505,148.764,99.45,148.764z"/>
		</g>
		<g>
			<path fill="#161616" d="M94.07,146.706c-0.245,0-0.459-0.18-0.494-0.43c-0.039-0.273,0.151-0.526,0.424-0.565
				c0.018-0.003,1.841-0.271,3.103-1.155c0.227-0.16,0.538-0.104,0.697,0.122c0.158,0.227,0.104,0.538-0.123,0.696
				c-1.461,1.024-3.452,1.315-3.537,1.327C94.117,146.704,94.093,146.706,94.07,146.706z"/>
		</g>
	</g>
	<g>
		<g>
			<path fill="#161616" d="M87.654,155.126c-0.207,0-0.4-0.129-0.472-0.335c-0.091-0.261,0.046-0.546,0.306-0.637
				c0.052-0.019,5.172-1.829,7.965-4.253c0.209-0.181,0.525-0.158,0.705,0.05c0.181,0.209,0.159,0.524-0.05,0.706
				c-2.939,2.55-8.073,4.364-8.29,4.44C87.764,155.117,87.708,155.126,87.654,155.126z"/>
		</g>
		<g>
			<path fill="#161616" d="M92.388,155.126c-0.206,0-0.399-0.128-0.471-0.333c-0.092-0.261,0.044-0.546,0.305-0.639
				c0.038-0.013,3.815-1.369,6.609-4.008c0.201-0.191,0.518-0.181,0.707,0.02c0.19,0.201,0.181,0.518-0.02,0.707
				c-2.952,2.788-6.8,4.167-6.963,4.225C92.5,155.117,92.443,155.126,92.388,155.126z"/>
		</g>
		<g>
			<path fill="#161616" d="M87.008,153.068c-0.245,0-0.459-0.18-0.494-0.43c-0.039-0.273,0.151-0.526,0.424-0.565
				c0.018-0.003,1.841-0.271,3.103-1.155c0.226-0.159,0.538-0.104,0.697,0.122c0.158,0.227,0.104,0.538-0.123,0.696
				c-1.461,1.024-3.452,1.315-3.537,1.327C87.055,153.066,87.031,153.068,87.008,153.068z"/>
		</g>
	</g>
	<g>
		<g>
			<path fill="#161616" d="M119.179,145.129c-0.207,0-0.4-0.129-0.472-0.335c-0.091-0.261,0.046-0.546,0.306-0.637
				c0.052-0.019,5.172-1.829,7.965-4.253c0.209-0.181,0.524-0.157,0.705,0.05c0.181,0.209,0.159,0.524-0.05,0.706
				c-2.939,2.55-8.073,4.364-8.29,4.44C119.29,145.12,119.234,145.129,119.179,145.129z"/>
		</g>
		<g>
			<path fill="#161616" d="M123.914,145.129c-0.206,0-0.398-0.128-0.471-0.333c-0.092-0.261,0.044-0.546,0.304-0.639
				c0.038-0.013,3.816-1.37,6.61-4.009c0.202-0.191,0.518-0.18,0.707,0.02c0.19,0.201,0.181,0.518-0.02,0.707
				c-2.952,2.788-6.8,4.168-6.963,4.226C124.025,145.12,123.969,145.129,123.914,145.129z"/>
		</g>
		<g>
			<path fill="#161616" d="M118.534,143.07c-0.245,0-0.459-0.18-0.494-0.43c-0.039-0.273,0.151-0.526,0.424-0.565
				c0.018-0.003,1.841-0.271,3.103-1.155c0.227-0.159,0.538-0.104,0.697,0.122c0.158,0.227,0.104,0.538-0.123,0.696
				c-1.461,1.024-3.452,1.315-3.537,1.327C118.581,143.068,118.557,143.07,118.534,143.07z"/>
		</g>
	</g>
	<g>
		<g>
			<path fill="#161616" d="M104.762,142.913c-0.207,0-0.4-0.129-0.472-0.335c-0.091-0.261,0.046-0.546,0.306-0.637
				c0.052-0.019,5.172-1.829,7.965-4.253c0.208-0.181,0.524-0.158,0.705,0.05c0.181,0.209,0.159,0.524-0.05,0.706
				c-2.939,2.55-8.073,4.364-8.29,4.44C104.872,142.904,104.816,142.913,104.762,142.913z"/>
		</g>
		<g>
			<path fill="#161616" d="M109.496,142.913c-0.206,0-0.398-0.128-0.471-0.333c-0.092-0.261,0.044-0.546,0.304-0.639
				c0.038-0.013,3.816-1.37,6.61-4.009c0.202-0.19,0.517-0.18,0.707,0.02c0.19,0.201,0.181,0.518-0.02,0.707
				c-2.952,2.788-6.8,4.168-6.963,4.226C109.607,142.904,109.551,142.913,109.496,142.913z"/>
		</g>
		<g>
			<path fill="#161616" d="M104.116,140.854c-0.245,0-0.459-0.18-0.494-0.43c-0.039-0.273,0.151-0.526,0.424-0.565
				c0.018-0.003,1.841-0.271,3.103-1.155c0.226-0.16,0.538-0.104,0.697,0.122c0.158,0.227,0.104,0.538-0.123,0.696
				c-1.461,1.024-3.452,1.315-3.537,1.327C104.163,140.852,104.139,140.854,104.116,140.854z"/>
		</g>
	</g>
	<g>
		<g>
			<path fill="#161616" d="M173.654,153.458c-0.206,0-0.399-0.129-0.472-0.335c-0.092-0.261,0.046-0.546,0.307-0.637
				c0.051-0.019,5.171-1.829,7.964-4.253c0.209-0.181,0.523-0.157,0.706,0.05c0.181,0.209,0.158,0.524-0.05,0.706
				c-2.939,2.55-8.072,4.364-8.29,4.44C173.764,153.449,173.708,153.458,173.654,153.458z"/>
		</g>
		<g>
			<path fill="#161616" d="M178.388,153.458c-0.206,0-0.398-0.128-0.472-0.333c-0.092-0.261,0.045-0.546,0.305-0.639
				c0.038-0.013,3.815-1.369,6.609-4.008c0.201-0.19,0.52-0.18,0.707,0.02c0.189,0.201,0.181,0.518-0.02,0.707
				c-2.953,2.788-6.801,4.167-6.964,4.225C178.5,153.449,178.444,153.458,178.388,153.458z"/>
		</g>
		<g>
			<path fill="#161616" d="M173.007,151.4c-0.244,0-0.458-0.18-0.494-0.43c-0.038-0.273,0.151-0.526,0.425-0.565
				c0.019-0.003,1.841-0.271,3.103-1.155c0.227-0.158,0.538-0.104,0.696,0.122c0.159,0.227,0.104,0.538-0.122,0.696
				c-1.462,1.024-3.452,1.315-3.536,1.327C173.054,151.398,173.031,151.4,173.007,151.4z"/>
		</g>
	</g>
	<g>
		<g>
			<path fill="#161616" d="M159.85,151.898c-0.206,0-0.399-0.129-0.472-0.335c-0.092-0.261,0.046-0.546,0.307-0.637
				c0.051-0.019,5.172-1.829,7.965-4.253c0.209-0.181,0.523-0.158,0.706,0.05c0.181,0.209,0.158,0.524-0.05,0.706
				c-2.939,2.55-8.073,4.364-8.291,4.44C159.96,151.89,159.905,151.898,159.85,151.898z"/>
		</g>
		<g>
			<path fill="#161616" d="M164.584,151.898c-0.206,0-0.398-0.128-0.472-0.333c-0.092-0.261,0.045-0.546,0.305-0.639
				c0.038-0.013,3.816-1.369,6.609-4.008c0.201-0.19,0.517-0.18,0.707,0.02c0.189,0.201,0.181,0.518-0.02,0.707
				c-2.952,2.788-6.801,4.167-6.964,4.225C164.696,151.89,164.64,151.898,164.584,151.898z"/>
		</g>
		<g>
			<path fill="#161616" d="M159.205,149.84c-0.245,0-0.458-0.181-0.494-0.43c-0.038-0.273,0.151-0.526,0.425-0.565
				c0.019-0.003,1.841-0.271,3.103-1.154c0.228-0.159,0.538-0.104,0.696,0.122c0.159,0.227,0.104,0.538-0.122,0.696
				c-1.462,1.024-3.452,1.314-3.537,1.326C159.251,149.838,159.228,149.84,159.205,149.84z"/>
		</g>
	</g>
	<g>
		<g>
			<path fill="#161616" d="M231.598,145.781c-0.206,0-0.399-0.129-0.472-0.335c-0.092-0.261,0.046-0.546,0.307-0.637
				c0.051-0.019,5.171-1.829,7.964-4.253c0.209-0.181,0.523-0.158,0.706,0.05c0.181,0.209,0.158,0.524-0.05,0.706
				c-2.939,2.55-8.072,4.364-8.29,4.44C231.708,145.772,231.653,145.781,231.598,145.781z"/>
		</g>
		<g>
			<path fill="#161616" d="M236.333,145.781c-0.206,0-0.398-0.128-0.472-0.333c-0.092-0.261,0.045-0.546,0.305-0.639
				c0.038-0.013,3.816-1.37,6.609-4.008c0.201-0.19,0.52-0.18,0.707,0.02c0.189,0.201,0.181,0.518-0.02,0.707
				c-2.952,2.787-6.801,4.167-6.963,4.225C236.444,145.772,236.388,145.781,236.333,145.781z"/>
		</g>
		<g>
			<path fill="#161616" d="M230.952,143.723c-0.244,0-0.458-0.18-0.494-0.43c-0.039-0.273,0.151-0.526,0.425-0.565
				c0.019-0.003,1.841-0.271,3.103-1.154c0.227-0.159,0.538-0.104,0.696,0.122c0.159,0.227,0.104,0.538-0.122,0.696
				c-1.462,1.023-3.452,1.314-3.536,1.326C230.999,143.721,230.975,143.723,230.952,143.723z"/>
		</g>
	</g>
	<g>
		<g>
			<path fill="#161616" d="M216.113,149.039c-0.206,0-0.399-0.129-0.472-0.335c-0.092-0.261,0.046-0.546,0.307-0.637
				c0.051-0.019,5.171-1.829,7.966-4.253c0.206-0.181,0.524-0.158,0.705,0.051c0.181,0.208,0.158,0.523-0.051,0.705
				c-2.939,2.55-8.072,4.364-8.29,4.44C216.223,149.03,216.167,149.039,216.113,149.039z"/>
		</g>
		<g>
			<path fill="#161616" d="M220.847,149.039c-0.206,0-0.398-0.128-0.472-0.333c-0.092-0.261,0.045-0.546,0.305-0.639
				c0.038-0.013,3.816-1.37,6.609-4.008c0.201-0.191,0.519-0.18,0.707,0.02c0.189,0.201,0.181,0.518-0.02,0.707
				c-2.952,2.787-6.801,4.167-6.963,4.225C220.958,149.03,220.903,149.039,220.847,149.039z"/>
		</g>
		<g>
			<path fill="#161616" d="M215.466,146.98c-0.244,0-0.458-0.18-0.494-0.43c-0.038-0.273,0.151-0.526,0.425-0.565
				c0.019-0.003,1.841-0.271,3.103-1.154c0.227-0.159,0.538-0.104,0.696,0.122c0.159,0.227,0.104,0.538-0.122,0.696
				c-1.462,1.023-3.452,1.314-3.536,1.326C215.513,146.978,215.49,146.98,215.466,146.98z"/>
		</g>
	</g>
	<g>
		<g>
			<path fill="#161616" d="M204.457,145.551c-0.206,0-0.399-0.129-0.472-0.335c-0.092-0.261,0.046-0.546,0.307-0.637
				c0.051-0.019,5.171-1.829,7.964-4.253c0.209-0.18,0.523-0.158,0.706,0.05c0.181,0.209,0.158,0.524-0.05,0.706
				c-2.939,2.55-8.072,4.364-8.29,4.44C204.567,145.542,204.511,145.551,204.457,145.551z"/>
		</g>
		<g>
			<path fill="#161616" d="M209.19,145.551c-0.206,0-0.398-0.128-0.472-0.333c-0.092-0.261,0.045-0.546,0.305-0.639
				c0.038-0.013,3.816-1.369,6.61-4.008c0.201-0.19,0.52-0.18,0.707,0.02c0.189,0.201,0.181,0.518-0.02,0.707
				c-2.953,2.788-6.802,4.167-6.965,4.225C209.301,145.542,209.246,145.551,209.19,145.551z"/>
		</g>
		<g>
			<path fill="#161616" d="M203.81,143.493c-0.244,0-0.458-0.18-0.494-0.43c-0.038-0.273,0.151-0.526,0.425-0.565
				c0.019-0.003,1.841-0.271,3.103-1.155c0.227-0.159,0.538-0.104,0.696,0.122c0.159,0.227,0.104,0.538-0.122,0.696
				c-1.462,1.024-3.452,1.315-3.536,1.327C203.857,143.491,203.833,143.493,203.81,143.493z"/>
		</g>
	</g>
	<g>
		<g>
			<g>
				<path fill="#161616" d="M184.502,77.326c-13.907,0-25.222-11.314-25.222-25.222s11.314-25.222,25.222-25.222
					s25.222,11.314,25.222,25.222S198.41,77.326,184.502,77.326z M184.502,28.883c-12.805,0-23.222,10.417-23.222,23.222
					s10.417,23.222,23.222,23.222s23.222-10.417,23.222-23.222S197.307,28.883,184.502,28.883z"/>
			</g>
			<g>
				<path fill="#161616" d="M199.037,41.24c-0.146,0-0.29-0.063-0.389-0.186c-2.253-2.782-5.193-4.946-8.505-6.258
					c-0.256-0.102-0.382-0.392-0.28-0.649c0.103-0.256,0.394-0.382,0.649-0.281c3.471,1.375,6.553,3.643,8.913,6.559
					c0.174,0.214,0.141,0.529-0.074,0.703C199.258,41.203,199.147,41.24,199.037,41.24z"/>
			</g>
		</g>
		<g>
			<g>
				<g>
					<path fill="#161616" d="M184.502,91.334c-0.276,0-0.5-0.224-0.5-0.5v-8.518c0-0.276,0.224-0.5,0.5-0.5s0.5,0.224,0.5,0.5v8.518
						C185.002,91.11,184.779,91.334,184.502,91.334z"/>
				</g>
				<g>
					<path fill="#FFFFFF" d="M184.502,104.209c-0.276,0-0.5-0.224-0.5-0.5v-8.518c0-0.276,0.224-0.5,0.5-0.5s0.5,0.224,0.5,0.5
						v8.518C185.002,103.985,184.779,104.209,184.502,104.209z"/>
				</g>
			</g>
			<g>
				<g>
					<path fill="#161616" d="M184.502,9.518c-0.276,0-0.5-0.224-0.5-0.5V0.5c0-0.276,0.224-0.5,0.5-0.5s0.5,0.224,0.5,0.5v8.518
						C185.002,9.294,184.779,9.518,184.502,9.518z"/>
				</g>
				<g>
					<path fill="#161616" d="M184.502,22.393c-0.276,0-0.5-0.224-0.5-0.5v-8.518c0-0.276,0.224-0.5,0.5-0.5s0.5,0.224,0.5,0.5v8.518
						C185.002,22.169,184.779,22.393,184.502,22.393z"/>
				</g>
			</g>
		</g>
		<g>
			<g>
				<g>
					<path fill="#161616" d="M154.291,52.604h-8.518c-0.276,0-0.5-0.224-0.5-0.5s0.224-0.5,0.5-0.5h8.518c0.276,0,0.5,0.224,0.5,0.5
						S154.567,52.604,154.291,52.604z"/>
				</g>
				<g>
					<path fill="#161616" d="M141.416,52.604h-8.518c-0.276,0-0.5-0.224-0.5-0.5s0.224-0.5,0.5-0.5h8.518c0.276,0,0.5,0.224,0.5,0.5
						S141.692,52.604,141.416,52.604z"/>
				</g>
			</g>
			<g>
				<g>
					<path fill="#161616" d="M236.107,52.604h-8.518c-0.276,0-0.5-0.224-0.5-0.5s0.224-0.5,0.5-0.5h8.518c0.276,0,0.5,0.224,0.5,0.5
						S236.383,52.604,236.107,52.604z"/>
				</g>
				<g>
					<path fill="#161616" d="M223.232,52.604h-8.518c-0.276,0-0.5-0.224-0.5-0.5s0.224-0.5,0.5-0.5h8.518c0.276,0,0.5,0.224,0.5,0.5
						S223.508,52.604,223.232,52.604z"/>
				</g>
			</g>
		</g>
		<g>
			<g>
				<g>
					<path fill="#161616" d="M157.117,79.99c-0.128,0-0.256-0.049-0.354-0.146c-0.195-0.195-0.195-0.512,0-0.707l6.022-6.023
						c0.195-0.195,0.512-0.195,0.707,0s0.195,0.512,0,0.707l-6.022,6.023C157.373,79.941,157.245,79.99,157.117,79.99z"/>
				</g>
				<g>
					<path fill="#161616" d="M148.012,89.094c-0.128,0-0.256-0.049-0.354-0.146c-0.195-0.195-0.195-0.512,0-0.707l6.023-6.023
						c0.195-0.195,0.512-0.195,0.707,0s0.195,0.512,0,0.707l-6.023,6.023C148.268,89.045,148.14,89.094,148.012,89.094z"/>
				</g>
			</g>
			<g>
				<g>
					<path fill="#161616" d="M214.969,22.137c-0.128,0-0.256-0.049-0.354-0.146c-0.195-0.195-0.195-0.512,0-0.707l6.022-6.023
						c0.195-0.195,0.512-0.195,0.707,0s0.195,0.512,0,0.707l-6.022,6.023C215.225,22.088,215.097,22.137,214.969,22.137z"/>
				</g>
				<g>
					<path fill="#161616" d="M205.865,31.242c-0.128,0-0.256-0.049-0.354-0.146c-0.195-0.195-0.195-0.512,0-0.707l6.023-6.023
						c0.195-0.195,0.512-0.195,0.707,0s0.195,0.512,0,0.707l-6.023,6.023C206.121,31.193,205.993,31.242,205.865,31.242z"/>
				</g>
			</g>
		</g>
		<g>
			<g>
				<g>
					<path fill="#161616" d="M163.139,31.242c-0.128,0-0.256-0.049-0.354-0.146l-6.022-6.023c-0.195-0.195-0.195-0.512,0-0.707
						s0.512-0.195,0.707,0l6.022,6.023c0.195,0.195,0.195,0.512,0,0.707C163.395,31.193,163.267,31.242,163.139,31.242z"/>
				</g>
				<g>
					<path fill="#161616" d="M154.036,22.137c-0.128,0-0.256-0.049-0.354-0.146l-6.023-6.023c-0.195-0.195-0.195-0.512,0-0.707
						s0.512-0.195,0.707,0l6.023,6.023c0.195,0.195,0.195,0.512,0,0.707C154.292,22.088,154.164,22.137,154.036,22.137z"/>
				</g>
			</g>
			<g>
				<g>
					<path fill="#161616" d="M220.992,89.094c-0.128,0-0.256-0.049-0.354-0.146l-6.022-6.023c-0.195-0.195-0.195-0.512,0-0.707
						s0.512-0.195,0.707,0l6.022,6.023c0.195,0.195,0.195,0.512,0,0.707C221.248,89.045,221.12,89.094,220.992,89.094z"/>
				</g>
				<g>
					<path fill="#161616" d="M211.888,79.99c-0.128,0-0.256-0.049-0.354-0.146l-6.023-6.023c-0.195-0.195-0.195-0.512,0-0.707
						s0.512-0.195,0.707,0l6.023,6.023c0.195,0.195,0.195,0.512,0,0.707C212.144,79.941,212.016,79.99,211.888,79.99z"/>
				</g>
			</g>
		</g>
		<g>
			<g>
				<g>
					<path fill="#161616" d="M168.013,92.412c-0.064,0-0.129-0.012-0.191-0.038c-0.255-0.105-0.376-0.398-0.271-0.653l1.668-4.026
						c0.106-0.256,0.401-0.374,0.653-0.271c0.255,0.105,0.376,0.398,0.271,0.653l-1.668,4.026
						C168.395,92.295,168.209,92.412,168.013,92.412z"/>
				</g>
			</g>
			<g>
				<g>
					<path fill="#161616" d="M199.324,16.823c-0.063,0-0.129-0.012-0.191-0.038c-0.255-0.105-0.376-0.398-0.271-0.653l1.667-4.026
						c0.106-0.254,0.397-0.376,0.653-0.271c0.255,0.105,0.376,0.398,0.271,0.653l-1.667,4.026
						C199.706,16.707,199.52,16.823,199.324,16.823z"/>
				</g>
			</g>
		</g>
		<g>
			<g>
				<g>
					<path fill="#161616" d="M148.721,37.783c-0.063,0-0.129-0.012-0.191-0.038l-4.026-1.667c-0.255-0.105-0.376-0.398-0.271-0.653
						c0.106-0.254,0.397-0.375,0.653-0.271l4.026,1.667c0.255,0.105,0.376,0.398,0.271,0.653
						C149.103,37.667,148.917,37.783,148.721,37.783z"/>
				</g>
			</g>
			<g>
				<g>
					<path fill="#161616" d="M224.309,69.093c-0.064,0-0.129-0.012-0.191-0.038l-4.025-1.667c-0.255-0.105-0.376-0.398-0.271-0.653
						c0.106-0.255,0.4-0.375,0.653-0.271l4.025,1.667c0.255,0.105,0.376,0.398,0.271,0.653
						C224.691,68.977,224.505,69.093,224.309,69.093z"/>
				</g>
			</g>
		</g>
		<g>
			<g>
				<g>
					<path fill="#161616" d="M144.695,69.093c-0.196,0-0.382-0.116-0.462-0.309c-0.105-0.255,0.016-0.548,0.271-0.653l4.026-1.667
						c0.258-0.105,0.548,0.016,0.653,0.271c0.105,0.255-0.016,0.548-0.271,0.653l-4.026,1.667
						C144.824,69.081,144.758,69.093,144.695,69.093z"/>
				</g>
			</g>
			<g>
				<g>
					<path fill="#161616" d="M220.284,37.783c-0.196,0-0.382-0.116-0.462-0.309c-0.105-0.255,0.016-0.548,0.271-0.653l4.025-1.667
						c0.258-0.104,0.548,0.016,0.653,0.271c0.105,0.255-0.016,0.548-0.271,0.653l-4.025,1.667
						C220.413,37.771,220.347,37.783,220.284,37.783z"/>
				</g>
			</g>
		</g>
		<g>
			<g>
				<g>
					<path fill="#161616" d="M169.681,16.823c-0.196,0-0.382-0.116-0.462-0.309l-1.668-4.026c-0.105-0.255,0.016-0.548,0.271-0.653
						c0.257-0.105,0.548,0.016,0.653,0.271l1.668,4.026c0.105,0.255-0.016,0.548-0.271,0.653
						C169.81,16.811,169.746,16.823,169.681,16.823z"/>
				</g>
			</g>
			<g>
				<g>
					<path fill="#161616" d="M200.991,92.412c-0.196,0-0.382-0.116-0.462-0.309l-1.667-4.026c-0.105-0.255,0.016-0.548,0.271-0.653
						c0.258-0.106,0.548,0.017,0.653,0.271l1.667,4.026c0.105,0.255-0.016,0.548-0.271,0.653
						C201.12,92.399,201.054,92.412,200.991,92.412z"/>
				</g>
			</g>
		</g>
	</g>
</g>
</svg>
