<?xml version="1.0" encoding="utf-8"?>
<!-- Generator: Adobe Illustrator 21.0.2, SVG Export Plug-In . SVG Version: 6.00 Build 0)  -->
<svg version="1.1" id="Слой_1" xmlns="http://www.w3.org/2000/svg" xmlns:xlink="http://www.w3.org/1999/xlink" x="0px" y="0px"
	 viewBox="0 0 187.8 152" style="enable-background:new 0 0 187.8 152;" xml:space="preserve">
<g>
	<path d="M167.3,102.8L167.3,102.8c0.1,0,0.2,0,0.3-0.1c0,0,0.7-0.4,1.6-1.1c0.2-0.2,0.3-0.5,0.1-0.7c-0.2-0.2-0.5-0.3-0.7-0.1
		c-0.8,0.6-1.5,1-1.5,1c-0.2,0.1-0.3,0.4-0.2,0.7C166.9,102.7,167.1,102.8,167.3,102.8z"/>
	<polygon points="148,99.5 148,99.5 148,99.5 	"/>
	<path d="M167.9,100L167.9,100c0.1,0,0.1,0,0.2-0.1c0.3-0.1,0.6-0.3,0.8-0.5c0.2-0.2,0.3-0.5,0.1-0.7c-0.2-0.2-0.5-0.3-0.7-0.1
		c-0.2,0.1-0.4,0.3-0.6,0.4c0,0,0,0,0,0c-0.2,0.1-0.3,0.4-0.2,0.7C167.5,99.8,167.7,100,167.9,100z"/>
	<path d="M149.2,98.8C149.2,98.8,149.2,98.7,149.2,98.8c0.2-0.2,0.3-0.5,0.1-0.7c-0.2-0.2-0.5-0.2-0.7-0.1c-0.3,0.2-0.5,0.4-0.8,0.6
		c-0.2,0.1-0.3,0.4-0.2,0.7c0.1,0.2,0.3,0.2,0.4,0.2c0.1,0,0.2,0,0.3-0.1C148.6,99.2,148.9,99,149.2,98.8z"/>
	<path d="M149.5,106.4c-0.3,0.2-0.5,0.4-0.8,0.6c-0.2,0.1-0.3,0.4-0.2,0.7c0.1,0.2,0.3,0.2,0.4,0.2c0.1,0,0.2,0,0.2-0.1
		c0.3-0.2,0.6-0.4,0.9-0.6c0,0,0,0,0.1,0c0.2-0.2,0.2-0.5,0-0.7C150,106.2,149.7,106.2,149.5,106.4z"/>
	<polygon points="148.9,107.9 148.9,107.9 148.9,107.9 	"/>
	<path d="M160.3,98.7L160.3,98.7c0.1,0,0.2,0,0.2-0.1c0.3-0.2,0.6-0.4,0.9-0.6c0,0,0,0,0,0c0.2-0.2,0.2-0.5,0-0.7
		c-0.2-0.2-0.5-0.2-0.7,0c-0.3,0.2-0.5,0.4-0.8,0.6c-0.2,0.1-0.3,0.4-0.2,0.7C160,98.6,160.2,98.7,160.3,98.7z"/>
	<path d="M160.8,96.3L160.8,96.3c0.1,0,0.3-0.1,0.4-0.1c0.3-0.3,0.6-0.6,0.8-0.9c0,0,0,0,0,0c0.2-0.2,0.1-0.5-0.1-0.7
		s-0.5-0.1-0.7,0.1c-0.2,0.3-0.5,0.6-0.8,0.8c-0.2,0.2-0.2,0.5,0,0.7C160.5,96.3,160.6,96.3,160.8,96.3z"/>
	<path d="M159.1,106.4L159.1,106.4c0.1,0,0.2,0,0.2-0.1c0.3-0.2,0.6-0.4,0.9-0.6c0,0,0,0,0,0c0.2-0.2,0.2-0.5,0.1-0.7
		c-0.2-0.2-0.5-0.2-0.7-0.1c-0.3,0.2-0.5,0.4-0.8,0.6c-0.2,0.1-0.2,0.3-0.2,0.4C158.6,106.1,158.9,106.4,159.1,106.4z"/>
	<path d="M152.8,90.6c-0.3,0.2-0.5,0.4-0.8,0.6c-0.2,0.1-0.3,0.4-0.2,0.7c0.1,0.2,0.3,0.2,0.4,0.2l0,0c0.1,0,0.2,0,0.2-0.1
		c0.3-0.2,0.6-0.4,0.9-0.6c0,0,0,0,0.1,0c0.2-0.2,0.2-0.5,0-0.7C153.3,90.5,153,90.5,152.8,90.6z"/>
	<path d="M171.3,100.2L171.3,100.2c0.1,0,0.3-0.1,0.4-0.1c0.3-0.3,0.6-0.6,0.8-0.9c0.2-0.2,0.1-0.5-0.1-0.7
		c-0.2-0.2-0.5-0.1-0.7,0.1c-0.3,0.3-0.5,0.6-0.8,0.9c-0.1,0.1-0.1,0.2-0.1,0.3C170.8,100,171,100.2,171.3,100.2z"/>
	<path d="M170.9,102.6L170.9,102.6c0.1,0,0.2,0,0.2-0.1c0.3-0.2,0.6-0.4,0.9-0.6c0,0,0,0,0.1,0c0.2-0.2,0.2-0.5,0-0.7
		c-0.2-0.2-0.5-0.2-0.7,0c-0.3,0.2-0.5,0.4-0.8,0.6c-0.2,0.1-0.2,0.3-0.2,0.4C170.4,102.4,170.6,102.6,170.9,102.6z"/>
	<path d="M150.4,103.7c-0.2-0.2-0.5-0.1-0.7,0.1c-0.2,0.3-0.5,0.6-0.8,0.8c0,0,0,0,0,0c-0.2,0.2-0.2,0.5,0,0.7
		c0.1,0.1,0.2,0.1,0.4,0.1c0.1,0,0.3-0.1,0.4-0.1c0.3-0.3,0.6-0.6,0.8-0.9c0,0,0,0,0,0C150.7,104.2,150.7,103.9,150.4,103.7
		C150.5,103.7,150.4,103.7,150.4,103.7z"/>
	<polygon points="149.3,105.5 149.3,105.5 149.3,105.5 	"/>
	<path d="M146.5,106.2c-0.5,0.4-1,0.7-1.5,1c-0.2,0.1-0.3,0.4-0.2,0.7c0.1,0.2,0.3,0.2,0.4,0.2c0.1,0,0.2,0,0.3-0.1
		c0,0,0.7-0.4,1.6-1.1c0.2-0.2,0.3-0.5,0.1-0.7C147,106,146.7,106,146.5,106.2z"/>
	<polygon points="145.9,105.3 145.9,105.3 145.9,105.3 	"/>
	<path d="M148.4,97.1c0.1,0,0.3-0.1,0.4-0.1c0.3-0.3,0.6-0.6,0.8-0.9c0.1-0.2,0.1-0.5-0.1-0.6c-0.2-0.2-0.5-0.2-0.7,0
		c-0.2,0.3-0.5,0.6-0.8,0.8c0,0,0,0,0,0c-0.2,0.2-0.2,0.5,0,0.7C148.2,97,148.3,97.1,148.4,97.1z"/>
	<path d="M135.1,98.6L135.1,98.6c0.1,0,0.1,0,0.2-0.1c0.3-0.1,0.6-0.3,0.8-0.5c0.2-0.2,0.3-0.5,0.1-0.7c-0.2-0.2-0.5-0.3-0.7-0.1
		c-0.2,0.1-0.4,0.3-0.6,0.4c0,0,0,0,0,0c-0.2,0.1-0.4,0.4-0.2,0.7C134.7,98.5,134.9,98.6,135.1,98.6z"/>
	<path d="M145,96.8c0.1,0,0.1,0,0.2,0c0.3-0.1,0.6-0.3,0.8-0.5c0,0,0.1,0,0.1-0.1c0.2-0.2,0.2-0.5,0-0.7s-0.5-0.2-0.7,0
		c-0.2,0.1-0.4,0.3-0.6,0.4c-0.2,0.1-0.3,0.3-0.3,0.4C144.5,96.6,144.7,96.8,145,96.8z"/>
	<polygon points="145,96.8 145,96.8 145,96.8 	"/>
	<polygon points="148.4,97.1 148.4,97.1 148.4,97.1 	"/>
	<path d="M145.7,104.3c-0.2,0.1-0.3,0.3-0.3,0.5c0,0.3,0.2,0.5,0.5,0.5c0.1,0,0.1,0,0.2,0c0.3-0.1,0.5-0.3,0.8-0.5
		c0.2-0.2,0.3-0.5,0.1-0.7c0,0,0,0,0,0c-0.2-0.2-0.5-0.3-0.7-0.1C146.1,104.1,145.9,104.2,145.7,104.3z"/>
	<polygon points="179,118.6 179,118.5 179,118.6 	"/>
	<polygon points="101.6,138.1 101.6,138.1 101.6,138.1 101.6,138.1 101.6,138.1 	"/>
	<path d="M148.6,92.3L148.6,92.3c0.1,0,0.2,0,0.3-0.1c0.5-0.3,1.1-0.7,1.6-1.1c0.2-0.2,0.3-0.5,0.1-0.7c-0.2-0.2-0.5-0.3-0.7-0.1
		c-0.5,0.4-1,0.7-1.5,1c-0.2,0.1-0.3,0.4-0.2,0.7C148.3,92.2,148.4,92.3,148.6,92.3z"/>
	<path d="M187.8,101.3c0-0.1,0-0.3-0.1-0.4c0,0,0-0.1-0.1-0.1c0-0.1-0.1-0.1-0.1-0.2c-0.1-0.1-0.2-0.2-0.3-0.2l-33.7-16.5V73.7
		c0-0.6-0.4-1-1-1c-0.3,0-0.5,0.1-0.7,0.3l-18.8-6V52.1l19.6-3.5c0.2,0,0.4-0.2,0.4-0.5v-1.9c0,0,0,0,0,0c0,0,0,0,0-0.1
		c0,0,0-0.1,0-0.1c0,0,0,0,0-0.1c0,0,0-0.1-0.1-0.1c0,0,0,0-0.1,0c0,0-0.1,0-0.1-0.1c0,0,0,0,0,0l-19.6-5.6V16.5
		c2.1-3.7,3.3-7,3.4-7.2c0.1-0.3,0.1-0.7-0.1-0.9l-3-4.2c-0.2-0.3-0.5-0.4-0.9-0.4L116,5.3V2.9c0-0.4-0.3-0.8-0.7-0.9l-5.2-1.9
		C110,0,109.9,0,109.8,0h-5.2c-0.6,0-1,0.4-1,1v5.4L64.2,10c0,0,0,0-0.1,0c-0.1,0-0.2,0-0.3,0.1c0,0,0,0,0,0
		c-0.2,0.1-0.3,0.2-0.4,0.4L44.2,41.7c-0.2,0.4-0.2,0.9,0.1,1.2l2.4,2.4c0,0,0.1,0.1,0.2,0.1c0.5,0.3,1.1,0.2,1.4-0.3l0.6-0.9v29.8
		l-48,9.1c0,0-0.1,0-0.1,0c0,0,0,0-0.1,0c0,0-0.1,0-0.1,0.1c-0.1,0-0.1,0.1-0.2,0.1c-0.1,0-0.1,0.1-0.1,0.2c0,0-0.1,0.1-0.1,0.1
		c0,0,0,0,0,0c0,0,0,0.1,0,0.2C0,84,0,84,0,84.1c0,0.1,0,0.1,0,0.2c0,0.1,0,0.1,0,0.2c0,0,0,0,0,0c0.5,1.4,0.2,9.2-0.1,13.8
		c0,0.4,0.2,0.8,0.5,0.9l3.4,1.9C4,101.6,4,102.3,4,103c0,0,0,0,0,0c0,0,0,0,0,0c-0.1,0.1-0.1,0.3,0,0.4c-0.1,1.7-0.3,3.8-0.5,5.2
		c-0.1,0.4,0.1,0.8,0.5,1l77.1,42.2c0.1,0.1,0.3,0.1,0.5,0.1c0.1,0,0.2,0,0.2,0l101.7-25.8c0.5-0.1,0.8-0.5,0.8-1c0,0-0.2-4.3,0-8
		l2.7-0.7c0.4-0.1,0.8-0.5,0.8-1C187.8,115.4,187.6,105.4,187.8,101.3z M172.4,118.1l13.4-13.4c0,1.9,0,4,0,5.8l-5.6,5.6
		L172.4,118.1z M169.7,120.6L169.7,120.6C169.7,120.6,169.7,120.6,169.7,120.6C169.7,120.6,169.7,120.6,169.7,120.6z M151.1,124.8
		L151.1,124.8C151.1,124.8,151.1,124.8,151.1,124.8C151.1,124.8,151.1,124.8,151.1,124.8z M140.7,127.9L140.7,127.9
		C140.7,127.9,140.7,127.9,140.7,127.9C140.7,127.9,140.7,127.9,140.7,127.9z M131.4,129.9L131.4,129.9
		C131.4,129.9,131.4,129.9,131.4,129.9C131.4,129.9,131.4,129.9,131.4,129.9z M121,133L121,133C121,133,121,133,121,133
		C121,133,121,133,121,133z M116.5,120.1L116.5,120.1C116.5,120.1,116.5,120.1,116.5,120.1C116.5,120.1,116.5,120.1,116.5,120.1z
		 M118.4,128.4L118.4,128.4C118.4,128.4,118.4,128.4,118.4,128.4C118.4,128.4,118.4,128.4,118.4,128.4z M119.3,119.4l9.3-2.3
		l-8.6,8.6C120.3,123.2,120.3,120.8,119.3,119.4z M119.6,127.4l10.9-10.9l7.8-2L122,130.9l-3.6,0.9
		C118.8,130.6,119.3,129.1,119.6,127.4z M140.2,114.1l7.8-2l-16.3,16.3l-7.8,2L140.2,114.1z M149.9,111.6l7.8-2L141.4,126l-7.8,2
		L149.9,111.6z M159.6,109.2l7.8-2l-16.3,16.3l-7.8,2L159.6,109.2z M169.3,106.7l7.8-2l-16.3,16.3l-7.8,2L169.3,106.7z M179,104.3
		l6.8-1.7c0,0.3,0,0.5,0,0.8l-15.3,15.3l-7.8,2L179,104.3z M144.3,111l-32.6-15.5l26.3-6.4c0,0,0,0-0.1,0c-0.2,0.1-0.4,0.3-0.6,0.4
		c0,0,0,0,0,0c-0.2,0.1-0.3,0.4-0.2,0.7c0.1,0.2,0.3,0.3,0.5,0.3l0,0c0.1,0,0.1,0,0.2,0c0.3-0.1,0.6-0.3,0.8-0.5
		c0.2-0.2,0.3-0.5,0.1-0.7c-0.1-0.1-0.2-0.2-0.4-0.2l14.2-3.5l31.5,15.4L144.3,111z M104.4,96.6c0-0.1,0-0.1,0-0.2V76.1l2.7-3.3
		v22.5l-2.7,3.5V96.6z M108.1,71.2C108.1,71.2,108,71.1,108.1,71.2c-0.1-0.1-0.1-0.1-0.1-0.1c0,0-0.1,0-0.1-0.1c0,0,0,0,0,0
		c0,0,0,0,0,0c-0.1,0-0.2,0-0.2,0l-9.6,2c-0.2,0-0.3,0.2-0.4,0.4l1,5.4v-4.8l6.7-1.4l-2.5,3c-0.1,0.1-0.1,0.2-0.1,0.3v19.9l-1,0.2
		l0.1,0.6l0,0l-0.1-0.6l-3.1,0.8V78.7l-1-5.4c0,0,0,0.1,0,0.1v23.4l-1.4,0.3V71.5l1.1-0.2l-0.2-1l-1.5,0.3c-0.2,0-0.4,0.3-0.4,0.5
		v26.4L88,99.2V60.5l7-1.2l0-0.3l0,0l0,0.3l19.1-3.3c0.5,1.9,2.4,5.9,8.4,5.9c1.5,0,2.2,1.3,2.5,2l-8.6,2c-0.2,0.1-0.4,0.3-0.4,0.5
		v14.8c0,0.3,0.2,0.5,0.5,0.5l0,0c0,0,0.1,0,0.1,0l11.7-2.5c0.2,0,0.4-0.3,0.4-0.5v-1.8c0,0,0.1,0.1,0.1,0.1c0,0,0,0,0,0
		c0.1,0.2,0.3,0.4,0.5,0.6c1,0.9,2.3,1.4,3.6,1.5c0,0,0.1,0,0.1,0l18.6-4.5v9.3L109.5,94V68.2c0,0,0-0.1,0-0.1
		c-0.1-0.3-0.3-0.4-0.6-0.4L97,70.3l0.2,1l11.3-2.4v25.4l-0.2,0c-0.1,0-0.1,0-0.1,0.1V71.4C108.1,71.3,108.1,71.2,108.1,71.2z
		 M68.4,11.6l25.1,43.9l-3.1,0.5L66,11.8L68.4,11.6z M129.3,76c-0.5-0.9-0.8-1.8-0.7-2.9c0,0,0,0,0,0V69l12.8,4.1L129.3,76z
		 M127.6,63.2l-1.7,0.4c-0.4-1.2-1.5-2.8-3.5-2.8c-5.5,0-7-3.6-7.5-5.2c0,0,0,0,0.1,0c0.1-0.1,0.1-0.2,0.2-0.2l12.4-2.2V63.2z
		 M127.6,64.2v14L117,80.5V66.7L127.6,64.2z M94.8,58L94.8,58l-0.2-0.8l0,0L94.8,58z M87.4,60.6L87.4,60.6
		C87.4,60.6,87.4,60.5,87.4,60.6C87.4,60.5,87.4,60.6,87.4,60.6z M132.1,67.3C132.1,67.3,132.1,67.3,132.1,67.3
		c0,0.2,0.2,0.4,0.3,0.4l18.3,5.8l-18,4.4c-1,0-2-0.4-2.7-1.1l13.3-3.3c0.2-0.1,0.4-0.2,0.4-0.5c0-0.2-0.1-0.4-0.3-0.5L128.6,68
		v-0.7v-3.7V52.9l3.4-0.6L132.1,67.3C132.1,67.3,132.1,67.3,132.1,67.3z M116.3,54.1c0.3-0.3,0.5-0.7,0.7-1l35-6.3v0.9L116.3,54.1z
		 M117.7,52c1.8-4-0.1-7.2-1.8-9.9c-0.5-0.9-1.1-1.7-1.4-2.6l7.9-1.4l10.1,2.9c0,0,0,0,0,0l18,5.1L117.7,52z M113.8,37.2
		c0-2.9,3.2-5.1,6.9-7.6c0.4-0.2,0.7-0.5,1.1-0.7v8.3l-7.8,1.4C113.9,38.1,113.8,37.6,113.8,37.2z M122.8,37.2v-9.1
		c1.6-1.1,3.1-2.4,4.5-3.7c0.1-0.1,0.2-0.2,0.3-0.3v14.5L122.8,37.2z M132.1,39.9l-3.4-1V23c1.3-1.5,2.4-3.1,3.4-4.8V39.9z
		 M109.8,17.3L109.8,17.3C109.8,17.3,109.8,17.3,109.8,17.3C109.8,17.3,109.8,17.3,109.8,17.3z M105.6,2L105.6,2l3.7,1.5v11.3
		l-3.7-5.1V2z M109.6,2l1.7,0.6l-1.4,0.1L108.2,2H109.6z M110.3,3.7l3.4-0.2l0.3,0.1v2.5c0,0.1,0,0.3,0,0.4c0,0,0,0.1,0,0.1v8.7
		l-3.7,0.4V3.7z M103.8,10.7l4.9,6.7c0.2,0.3,0.5,0.4,0.8,0.4c0,0,0.1,0,0.1,0l5.5-0.6c0.5-0.1,0.9-0.5,0.9-1V7.3l16.1-1.5l2.3,3.3
		c-0.8,2-4,9.4-8.5,13.9c-2,1.8-4.1,3.5-6.4,4.9c-4,2.7-7.8,5.3-7.8,9.3c0,2.1,1.2,4.1,2.3,5.9c1.7,2.8,3.3,5.3,1.5,8.5l-21.1,3.7
		L69.5,11.5l34.1-3.1v1.7C103.6,10.3,103.7,10.5,103.8,10.7z M47.2,43l-1-1l18-29.1l24.4,44l-1,1L65.5,17.8
		c-0.2-0.3-0.5-0.5-0.8-0.5h0c-0.3,0-0.7,0.2-0.8,0.5L47.2,43z M64.5,20.2L86,59.1v39.8l-35.2-17V41.2L64.5,20.2z M48.8,76.1v6.4
		c0,0.3,0.2,0.6,0.4,0.8c-2.1,1.9-4.5,3.3-7.2,4.3c-0.2,0.1-0.3,0.3-0.3,0.5c0,0.3,0.2,0.5,0.5,0.5h0c0.1,0,0.1,0,0.2,0
		c2.8-1,5.3-2.6,7.5-4.6c0.1-0.1,0.1-0.2,0.1-0.3l36.5,17.6c0,0,0,0,0,0c0.1,0.1,0.3,0.1,0.4,0.1c0,0,0,0,0,0c0,0,0,0,0,0
		c0,0,0,0,0,0c0.1,0,0.2,0,0.2,0l0,0c0,0,0,0,0,0l9.2-2.2l6.5,3.4l-0.2-1.2l-4.8-2.5l4.1-1l-0.1-0.4l0,0l0.1,0.4l0.6-0.1v2.5
		c0,0.3,0.2,0.5,0.5,0.5l0,0c0.1,0,0.3-0.1,0.3-0.1c0.1,0.1,0.1,0.2,0.3,0.3c0.1,0,0.1,0,0.2,0v0c0.2,0,0.3-0.1,0.4-0.2l3.6-4.7
		c0.2,0.1,0.4,0.2,0.6,0.2c0.1,0,0.2,0,0.2,0l1.3-0.3l32.7,15.5l-14,3.6l-26.1-13.6l0.2,1.2l24.4,12.7l-11,2.8
		c-3.3,0.2-7.5-1.3-11.1-3l0.4,2.4c3.6,1.6,7.6,2.8,10.9,2.6c0.4-0.1,0.9,0.1,1.2,0.4c0.7,0.9,0.6,2.9,0.2,5.2
		c-3.2,1.4-7.7-0.7-11.3-2.9l0.2,1.3c2.8,1.6,6,3,8.8,3l0,0c0.7,0,1.4-0.1,2.1-0.3c-0.3,1.4-0.7,2.8-1.1,4.1c-0.1,0-0.1,0-0.2,0
		c-2.5,0.2-5.7-0.7-8.7-1.9l0.4,2.3c2.1,0.8,4.2,1.4,6.2,1.5l-5.7,1.4l0.2,1l-0.2-1l-7.2,1.8c-3.4,0-4.7-1.4-6-2.9
		c-1.2-1.3-2.5-2.8-5.2-2.8c-1-0.1-11.8-1.1-18.9,5.3l-10.8-5.9c4.1,0.4,14,1.1,21-2c8.9-3.9,12.7-3.6,16-1.8
		c2.4,1.4,6.4,3.6,10.6,5.2l-0.4-2.3c-1.9-0.8-3.7-1.7-5.4-2.5c0.5-1.3,0.7-2.9,0.8-4.5c0.2,0.1,0.4,0.2,0.6,0.4
		c1,0.6,2,1.2,3.1,1.9l-0.2-1.3c-0.8-0.5-1.6-1-2.4-1.4c-0.4-0.2-0.8-0.5-1.1-0.7c0-1.7-0.2-3.4-0.4-4.6c0.9,0.5,1.9,0.9,2.9,1.4
		l-0.4-2.4c-2.7-1.3-5.1-2.6-6.7-3.5c-4.5-2.5-9.3-2.1-17.8,1.7c-7.8,3.4-19.9,1.9-21.5,1.6l-1.5-0.8c2.9,0,5.8-0.6,8.6-1.6
		c5.4-2.2,7.8-4.8,8-8.6c0.2-3.5-0.5-4.7-3.3-6c-0.8-0.3-1.7-0.6-2.6-0.8c-1.5-0.4-2.2-0.6-2.4-1.2c-0.1-0.3-0.2-0.7-0.1-1
		c0.1-1.2-0.2-2.1-2.3-3.7c-1.8-1.4-3.9-2.3-6.1-2.9c-0.4-0.1-0.7-0.2-1.1-0.3c-1.5-0.7-6.3-1.3-10.3,0c-5.3,1.6-10,6-12.5,9.6
		c-0.6,0.8-1.1,1.7-1.4,2.6l-10.8-5.9c1.9-0.8,5.3-2.3,7.5-4.2c0.2-0.2,0.2-0.5,0.1-0.7s-0.5-0.2-0.7-0.1c-2.4,2.1-6.4,3.8-8,4.4
		L9.6,87.7c1.9-0.8,5.2-2.3,7.3-4.2c0.2-0.2,0.2-0.5,0.1-0.7c0,0,0,0,0,0c-0.2-0.2-0.5-0.2-0.7,0c-2.3,2-6.1,3.6-7.8,4.3l-4.5-2.5
		L48.8,76.1z M27.7,113.5L27.7,113.5C27.7,113.5,27.7,113.5,27.7,113.5C27.7,113.5,27.7,113.5,27.7,113.5z M20.4,109.5L20.4,109.5
		C20.4,109.5,20.4,109.5,20.4,109.5C20.4,109.5,20.4,109.5,20.4,109.5z M13.7,105.8L13.7,105.8C13.7,105.8,13.7,105.8,13.7,105.8
		C13.7,105.8,13.7,105.8,13.7,105.8z M7,102.2L7,102.2C7,102.2,7,102.2,7,102.2C7,102.2,7,102.2,7,102.2z M21.7,96.6l-7.7,7.7
		l-5.8-3.2l7.7-7.7L21.7,96.6z M22.6,97.1l5.8,3.2l-7.7,7.7l-5.8-3.2L22.6,97.1z M29.3,100.8l2.9,1.6c0.1,0.1,0.3,0.1,0.5,0.1
		c0.4,0,0.7-0.2,0.9-0.5c0.1-0.1,0.1-0.3,0.1-0.4c0.1-0.4,0.2-0.9,0.4-1.2c0-0.1,0.1-0.1,0.1-0.2c0,0,0,0,0,0c0.3-0.5,0.6-1,0.9-1.5
		c0.2-0.2,0.5-0.4,0.8-0.5c1.3-0.5,3.2,0.3,4.9,1.1L28,112l-6.4-3.5L29.3,100.8z M63.8,94.9c-0.3,0.4-0.6,0.7-1,1
		c-1.4,0.9-4.3,1.6-10.1,0.3c-0.3-0.1-0.5,0.1-0.6,0.4c0,0,0,0,0,0c-0.1,0.3,0.1,0.5,0.4,0.6c1.9,0.5,3.8,0.7,5.8,0.8l0,0
		c1.8,0.1,3.5-0.3,5.1-1.2c0.2-0.1,0.5-0.3,0.7-0.5c0,0.1,0,0.1,0.1,0.2c0.6,1.8,2.3,2.2,3.9,2.5c0.8,0.2,1.5,0.4,2.3,0.7
		c1.9,0.8,2.3,1.2,2.1,4c-0.1,2.2-1,4.6-6.7,6.9c-4,1.7-9.2,1.5-11.1,1.4h0c-0.4-2.4-1.2-4.8-2.5-6.9c-2.1-3-4.1-5.1-7.2-6.2
		c-0.7-0.3-1.3-0.6-2-0.9c-1.7-1-3.5-1.6-5.4-1.9c2.5-2.8,5.8-5,9.3-6.2c2.9-0.8,6-0.8,8.9-0.1c0.4,0.2,0.9,0.3,1.4,0.4
		c2,0.5,3.8,1.3,5.4,2.5c1.6,1.2,1.5,1.5,1.5,1.9C63.8,94.7,63.8,94.8,63.8,94.9z M101,127.9L101,127.9
		C101,127.9,101,127.9,101,127.9L101,127.9z M98.5,124.4c-4.5-2.5-9.3-2.1-17.8,1.7c-1.5,0.6-3.1,1.1-4.8,1.5
		c-0.7-1.8-0.9-3.7-0.8-5.4c4.6-2.7,12-4.2,17.3-4.2c4.3,0,5.1,0.5,7.1,1.9c0.4,0.3,0.9,0.6,1.5,1c0,1.8-0.1,3.6-0.5,4.8
		C99.8,125.1,99.1,124.7,98.5,124.4z M75.4,129.6L75.4,129.6C75.4,129.6,75.4,129.6,75.4,129.6C75.4,129.6,75.4,129.6,75.4,129.6z
		 M59,127.6c0,0-0.1,0-0.1,0c-0.1,0-0.1,0-0.2,0c-0.2-1.2-0.2-3,0-5.2c2.7,0.7,10.1,2.3,14.4,0.7c0,1.5,0.3,3.1,0.8,4.7
		C66.7,128.8,59.1,127.7,59,127.6z M100.5,114.9c0.2,1.1,0.4,2.8,0.5,4.5c-0.3-0.2-0.6-0.4-0.9-0.6c-2.1-1.4-3.1-2-7.7-2
		c-5.2,0-12.4,1.4-17.2,4c0.2-1.9,0.6-3.4,0.9-4.2c1.9-0.4,3.7-0.9,5.4-1.6c8.9-3.9,12.7-3.6,16-1.8
		C98.4,113.8,99.4,114.3,100.5,114.9z M73.2,122.1c-3.9,1.8-11.7,0.1-14.3-0.6c0.2-1.4,0.4-2.9,0.8-4.5c2.3,0.3,8.3,0.9,14.3,0.1
		C73.6,118.2,73.2,120,73.2,122.1z M41.8,99.7c0.7,0.4,1.4,0.7,2.2,1c1.6,0.6,2.9,1.5,4,2.7l-12.6,12.6l-6.4-3.5L41.8,99.7z
		 M48.6,104.2c0.5,0.6,1,1.3,1.5,2c0.7,1.2,1.3,2.5,1.7,3.8l-9.8,9.8l-5.8-3.2L48.6,104.2z M52.1,111.1c0.1,0.5,0.2,1.1,0.3,1.7
		c0,0.4,0.2,0.8,0.6,1l3.5,1.9l-7.7,7.7l-5.8-3.2L52.1,111.1z M57.4,116.2l0.3,0.2c-0.6,2.6-1.6,7.9-1,11.4l-7.1-3.9L57.4,116.2z
		 M2.3,86l6,3.3l-6.1,6.1C2.3,92.6,2.4,88.6,2.3,86z M1,97.8C1,97.8,1,97.8,1,97.8C1,97.8,1,97.8,1,97.8L1,97.8z M2.1,96.9l7.1-7.1
		L15,93l-7.7,7.7l-2-1.1c0,0-0.1,0-0.1,0L2,97.8C2.1,97.6,2.1,97.3,2.1,96.9z M74.3,142C74.3,142.1,74.3,142,74.3,142
		c0.1,0,0.2,0,0.2,0c0,0,0,0,0,0c0,0,0,0,0.1,0c0,0,0.1,0,0.1,0c0,0,0.1,0,0.1,0c0,0,0,0,0,0c0.1,0,5.5-4,8.7-3.4
		c1.3,0.4,2.4,1.2,3.2,2.2c1.2,1.2,2.6,2.6,4.6,2.6l0,0c0.4,0,0.8-0.1,1.3-0.2c0,0,0,0,0,0c0,0,0,0,0,0l89.7-22.7c0,0.4,0,0.9,0,1.3
		L81.7,147.3L5.9,105.8c0-0.4,0.1-0.8,0.1-1.1L74.3,142z M92.5,143.2L92.5,143.2C92.5,143.2,92.5,143.2,92.5,143.2
		C92.5,143.2,92.5,143.2,92.5,143.2z M81.6,148.3L81.6,148.3C81.6,148.3,81.6,148.3,81.6,148.3C81.6,148.3,81.6,148.3,81.6,148.3z
		 M5.8,106.9l75.4,41.2v1.5L5.6,108.3C5.6,107.9,5.7,107.4,5.8,106.9z M82.1,149.8v-1.6l100.2-25.4c0,0.7,0,1.2,0,1.6L82.1,149.8z
		 M182.3,119.5l-89.9,22.8c0,0,0,0,0,0c-2.2,0.5-3.4-0.7-4.9-2.2c-1-1.2-2.3-2.1-3.8-2.5c-3.2-0.5-8,2.6-9.2,3.4L6,103.6
		c0-0.4,0-0.9,0-1.3l65,35.5c0.1,0.1,0.3,0.1,0.5,0.1h0c0.3,0,0.6-0.1,0.8-0.4c6.5-6.4,17.7-5.2,17.8-5.2c0,0,0.1,0,0.1,0
		c1.9,0,2.7,0.9,3.8,2.2c1.8,2.3,4.6,3.7,7.6,3.6c0,0,0,0,0,0c0,0,0,0,0,0c0,0,0,0,0,0c0.1,0,0.2,0,0.2,0l77.1-19.5c0,0,0.1,0,0.1,0
		c0.1,0,0.2,0,0.3-0.1l3-0.8C182.3,118.3,182.3,118.9,182.3,119.5z M182.1,115.7l3.7-3.7c0,1.1,0,2.1,0,2.7L182.1,115.7z"/>
	<path d="M149.3,89.5L149.3,89.5c0.1,0,0.1,0,0.2,0c0.3-0.1,0.6-0.3,0.8-0.5c0,0,0.1,0,0.1-0.1c0.2-0.2,0.2-0.5,0-0.7
		c-0.2-0.2-0.5-0.2-0.7,0c-0.2,0.1-0.4,0.3-0.6,0.4c-0.2,0.1-0.3,0.3-0.3,0.5C148.8,89.3,149,89.5,149.3,89.5z"/>
	<polygon points="74.5,142.1 74.5,142.1 74.5,142.1 	"/>
	<path d="M141,91.6c-0.5,0.4-0.8,0.6-0.8,0.6c-0.2,0.1-0.2,0.3-0.2,0.4c0,0.3,0.2,0.5,0.5,0.5l0,0c0.1,0,0.2,0,0.2-0.1
		c0.3-0.2,0.6-0.4,0.9-0.6c0,0,0,0,0,0c0.2-0.2,0.2-0.5,0-0.7C141.5,91.4,141.2,91.4,141,91.6z"/>
	<polygon points="145.3,108.1 145.3,108.1 145.3,108.1 	"/>
	<path d="M138.9,97.1c-0.2,0.3-0.5,0.6-0.8,0.9c0,0,0,0,0,0c-0.2,0.2-0.2,0.5,0,0.7c0.1,0.1,0.2,0.1,0.4,0.1c0.1,0,0.3,0,0.4-0.1
		c0.3-0.3,0.6-0.6,0.8-0.9c0.2-0.2,0.1-0.5-0.1-0.7C139.4,96.9,139.1,96.9,138.9,97.1z"/>
	<polygon points="138.5,98.8 138.5,98.8 138.5,98.8 	"/>
	<path d="M141.3,89c-0.2,0.3-0.5,0.6-0.8,0.8c0,0,0,0,0,0c-0.2,0.2-0.2,0.5,0,0.7c0.1,0.1,0.2,0.1,0.4,0.2l0,0
		c0.1,0,0.3-0.1,0.4-0.1c0.3-0.3,0.6-0.6,0.8-0.9c0.2-0.2,0.1-0.5-0.1-0.7S141.5,88.8,141.3,89z"/>
	<path d="M146.3,97.9c-0.2-0.2-0.5-0.3-0.7-0.1c-0.5,0.4-1,0.7-1.5,1c-0.2,0.1-0.3,0.4-0.2,0.7c0.1,0.2,0.3,0.3,0.4,0.2l0,0
		c0.1,0,0.2,0,0.3-0.1c0.5-0.3,1.1-0.7,1.6-1.1C146.4,98.4,146.5,98.1,146.3,97.9z"/>
	<path d="M138.6,99.7c-0.3,0.2-0.5,0.4-0.8,0.6c-0.2,0.1-0.2,0.3-0.2,0.4c0,0.3,0.2,0.5,0.5,0.5l0,0c0.1,0,0.2,0,0.2-0.1
		c0.3-0.2,0.6-0.4,0.9-0.6c0.2-0.2,0.3-0.5,0.1-0.7C139.1,99.6,138.8,99.5,138.6,99.7z"/>
	<path d="M138.7,92.2c0.2-0.2,0.3-0.5,0.1-0.7c-0.2-0.2-0.5-0.3-0.7-0.1c-0.8,0.6-1.5,1-1.5,1c-0.2,0.1-0.2,0.3-0.2,0.4
		c0,0.3,0.2,0.5,0.5,0.5l0,0c0.1,0,0.2,0,0.2-0.1C137.7,92.9,138.2,92.5,138.7,92.2C138.7,92.2,138.7,92.2,138.7,92.2z"/>
	<path d="M127.3,96.3c-0.3,0.2-0.5,0.4-0.8,0.6c-0.2,0.1-0.3,0.4-0.2,0.7c0.1,0.2,0.3,0.3,0.4,0.2h0c0.1,0,0.2,0,0.2-0.1
		c0.3-0.2,0.6-0.4,0.9-0.6c0,0,0,0,0,0c0.2-0.2,0.2-0.5,0.1-0.7C127.9,96.1,127.6,96.1,127.3,96.3z"/>
	<path d="M124.4,96.1c-0.5,0.4-1,0.7-1.5,1c-0.2,0.1-0.3,0.4-0.2,0.7c0.1,0.2,0.3,0.3,0.4,0.2c0.1,0,0.2,0,0.3-0.1
		c0,0,0.7-0.4,1.6-1.1c0.2-0.2,0.3-0.5,0.1-0.7C124.9,96,124.6,95.9,124.4,96.1z"/>
	<path d="M123.8,95.2L123.8,95.2c0.1,0,0.1,0,0.2,0c0.3-0.1,0.6-0.3,0.8-0.5c0,0,0.1,0,0.1-0.1c0.2-0.2,0.2-0.5,0-0.7
		c-0.2-0.2-0.5-0.2-0.7,0c-0.2,0.1-0.4,0.3-0.6,0.4c-0.2,0.1-0.4,0.4-0.2,0.7C123.4,95.1,123.6,95.2,123.8,95.2z"/>
	<path d="M135.6,99.5c-0.5,0.4-1,0.7-1.5,1c-0.2,0.1-0.3,0.4-0.2,0.7c0.1,0.2,0.3,0.3,0.4,0.2l0,0c0.1,0,0.2,0,0.3-0.1
		c0,0,0.7-0.4,1.6-1.1c0.2-0.2,0.3-0.5,0.1-0.7C136.2,99.4,135.9,99.3,135.6,99.5z"/>
	<path d="M127.7,93.7c-0.3,0.3-0.5,0.6-0.8,0.8c0,0,0,0,0,0c-0.2,0.2-0.2,0.5,0,0.7c0.1,0.1,0.2,0.1,0.4,0.1h0c0.1,0,0.3,0,0.4-0.1
		c0.3-0.3,0.6-0.6,0.8-0.9c0,0,0,0,0.1-0.1c0.2-0.2,0.1-0.5-0.1-0.7C128.1,93.4,127.8,93.5,127.7,93.7z"/>
	<path d="M159.6,104L159.6,104c0.1,0,0.3-0.1,0.4-0.1c0.3-0.3,0.6-0.6,0.8-0.9c0.2-0.2,0.1-0.5-0.1-0.7c-0.2-0.2-0.5-0.1-0.7,0.1
		c-0.2,0.3-0.5,0.6-0.8,0.9c-0.1,0.1-0.1,0.2-0.1,0.3C159.1,103.7,159.3,104,159.6,104z"/>
	<path d="M64.1,63.8l-8-3.7c-0.2-0.1-0.3-0.1-0.5,0c-0.1,0.1-0.2,0.2-0.2,0.4v12.5c0,0.2,0.1,0.4,0.3,0.5l4,1.8c0,0,0,0,0,0l4,1.7
		c0.1,0,0.1,0,0.2,0c0.1,0,0.2,0,0.3-0.1c0.1-0.1,0.2-0.3,0.2-0.4V64.3C64.4,64.1,64.3,63.9,64.1,63.8z M63.4,69.8l-3-1.5v-5.1
		l3,1.4V69.8z M56.4,61.4l3,1.4v5.8c0,0,0,0,0,0v5.5l-3-1.3V61.4z M60.4,74.6v-5.1l3,1.5v5L60.4,74.6z"/>
	<path d="M90.5,106.8c-0.3,0.1-0.4,0.4-0.3,0.6c0.1,0.2,0.3,0.3,0.5,0.3c0.1,0,0.1,0,0.2,0c2.8-1,5.3-2.6,7.5-4.6
		c0.2-0.2,0.2-0.5,0-0.7c-0.2-0.2-0.5-0.2-0.7,0C95.6,104.4,93.1,105.8,90.5,106.8C90.5,106.8,90.5,106.8,90.5,106.8z"/>
	<path d="M85.4,106.8c-0.3,0.1-0.4,0.4-0.3,0.6c0.1,0.2,0.3,0.3,0.5,0.3c0.1,0,0.1,0,0.2,0c0.2-0.1,5.8-2.1,9-4.8
		c0.2-0.2,0.2-0.5,0-0.7c0,0,0,0,0,0c-0.2-0.2-0.5-0.2-0.7,0C91,104.9,85.4,106.8,85.4,106.8C85.4,106.8,85.4,106.8,85.4,106.8z"/>
	<path d="M54.3,74.8l10.9,5.2c0.1,0,0.1,0,0.2,0.1c0.1,0,0.2,0,0.3-0.1c0.1-0.1,0.2-0.2,0.2-0.4V62.8c0-0.2-0.1-0.4-0.3-0.5l-10.9-5
		c-0.2-0.1-0.3-0.1-0.5,0c-0.1,0.1-0.2,0.3-0.2,0.4v16.6C54,74.6,54.2,74.8,54.3,74.8z M55,58.6l9.9,4.6v15.7L55,74.1V58.6z"/>
	<polygon points="85.5,107.8 85.5,107.8 85.5,107.8 	"/>
	<path d="M157.3,96.1L157.3,96.1c0.1,0,0.1,0,0.2-0.1c0.3-0.1,0.5-0.3,0.8-0.5c0.2-0.2,0.3-0.5,0.1-0.7c0,0,0,0,0,0
		c-0.2-0.2-0.5-0.2-0.7-0.1c-0.2,0.1-0.4,0.3-0.6,0.4c-0.2,0.1-0.3,0.3-0.3,0.5C156.8,95.9,157.1,96.1,157.3,96.1z"/>
	<path d="M84.8,105.6L84.8,105.6L84.8,105.6c1.4-0.2,2.7-0.7,3.9-1.4c0,0,0,0,0,0c0.2-0.2,0.3-0.5,0.1-0.7c0,0,0,0,0,0
		c-0.2-0.2-0.5-0.3-0.7-0.1c-1,0.6-2.2,1.1-3.4,1.3c-0.2,0-0.4,0.2-0.4,0.5C84.3,105.3,84.5,105.6,84.8,105.6z"/>
	<path d="M31.4,84.8c0.1,0.2,0.3,0.3,0.5,0.3h0c0.1,0,0.1,0,0.2,0c2.8-1,5.3-2.6,7.5-4.6c0,0,0,0,0,0c0.2-0.2,0.2-0.5,0-0.7
		c-0.2-0.2-0.5-0.2-0.7,0c-2.1,1.9-4.5,3.3-7.2,4.3C31.4,84.2,31.3,84.5,31.4,84.8z"/>
	<path d="M26.2,84.6c0,0.3,0.2,0.5,0.5,0.5h0c0.1,0,0.1,0,0.2,0c0.2-0.1,5.8-2.1,9-4.8c0.2-0.2,0.2-0.5,0-0.7
		c-0.2-0.2-0.5-0.2-0.7-0.1c-3,2.6-8.6,4.6-8.7,4.6C26.4,84.2,26.2,84.4,26.2,84.6z"/>
	<path d="M70.8,43.3l-4-1.8c0,0,0,0,0,0l-4-1.8c-0.2-0.1-0.3-0.1-0.5,0c-0.1,0.1-0.2,0.2-0.2,0.4v12.5c0,0.2,0.1,0.4,0.3,0.4l8,3.5
		c0.1,0,0.1,0,0.2,0c0.1,0,0.2,0,0.3-0.1c0.1-0.1,0.2-0.3,0.2-0.4V43.7C71.1,43.5,71,43.3,70.8,43.3z M63.1,40.8l3,1.4v11.3l-3-1.3
		V40.8z M70.1,55.3l-3-1.3V42.7l3,1.4V55.3z"/>
	<path d="M36.6,88.1c0,0.3,0.2,0.5,0.5,0.5c0.1,0,0.1,0,0.2,0c0.2-0.1,5.8-2,9-4.8c0.2-0.2,0.2-0.5,0-0.7c0,0,0,0,0,0
		c-0.2-0.2-0.5-0.2-0.7,0c-3,2.6-8.6,4.6-8.7,4.6C36.7,87.7,36.6,87.9,36.6,88.1z"/>
	<path d="M61,54.2L72,59.5c0.1,0,0.1,0.1,0.2,0.1h0c0.1,0,0.2,0,0.3-0.1c0.1-0.1,0.2-0.3,0.2-0.4V42.2c0-0.2-0.1-0.4-0.3-0.4
		l-10.9-5c-0.2-0.1-0.3-0.1-0.5,0c-0.1,0.1-0.2,0.2-0.2,0.4v16.6C60.8,54,60.9,54.2,61,54.2z M61.8,38l9.9,4.6v15.7l-9.9-4.8V38z"/>
	<path d="M36.3,85.4C36.3,85.4,36.3,85.4,36.3,85.4c-0.3,0-0.5,0.3-0.4,0.6c0,0.2,0.2,0.4,0.5,0.4v0h0.1c1.4-0.2,2.7-0.7,3.8-1.4
		c0,0,0.1,0,0.1-0.1c0.2-0.2,0.2-0.5,0-0.7s-0.5-0.2-0.7,0C38.7,84.8,37.5,85.2,36.3,85.4z"/>
	<polygon points="108.7,134.2 108.7,134.2 108.1,131.3 108.1,131.3 	"/>
	<polygon points="105.2,115 102.9,102.6 102.9,102.6 105.2,115 	"/>
	<polygon points="106.6,122.8 106.6,122.8 105.6,117.4 105.6,117.4 	"/>
	<path d="M105.2,112.5L105.2,112.5c0.1,0,0.2,0,0.3-0.1c0,0,0.7-0.4,1.6-1.1c0.2-0.2,0.3-0.5,0.1-0.7c-0.2-0.2-0.5-0.3-0.7-0.1
		c-0.5,0.4-1,0.7-1.5,1c-0.2,0.1-0.2,0.3-0.2,0.4C104.7,112.3,104.9,112.5,105.2,112.5z"/>
	<polygon points="90.7,107.8 90.7,107.8 90.7,107.8 	"/>
	<path d="M105.9,109.7L105.9,109.7c0.1,0,0.1,0,0.2-0.1c0.3-0.1,0.6-0.3,0.8-0.5c0.2-0.2,0.3-0.5,0.1-0.7c-0.2-0.2-0.5-0.3-0.7-0.1
		c-0.2,0.2-0.4,0.3-0.6,0.4c0,0,0,0,0,0c-0.2,0.1-0.4,0.4-0.2,0.7C105.5,109.6,105.7,109.7,105.9,109.7z"/>
	<polygon points="70.6,56.6 70.6,56.5 70.6,56.6 	"/>
	<polygon points="107.7,128.9 107.7,128.9 106.8,124.1 106.8,124.1 	"/>
	<polygon points="87,101.5 87,101.5 87,101.5 87,101.5 87,101.5 87,101.5 87,101.5 	"/>
	<polygon points="108.5,96.2 108.5,96.2 108.5,96.2 	"/>
	<path d="M109.3,109.9L109.3,109.9c0.1,0,0.3-0.1,0.4-0.1c0.3-0.3,0.6-0.6,0.8-0.9c0.2-0.2,0.1-0.5-0.1-0.7s-0.5-0.1-0.7,0.1
		c-0.2,0.3-0.5,0.6-0.8,0.9c0,0,0,0,0,0c-0.2,0.2-0.2,0.5,0,0.7C109,109.9,109.1,109.9,109.3,109.9z"/>
	<path d="M108.8,112.3L108.8,112.3c0.1,0,0.2,0,0.2-0.1c0.3-0.2,0.6-0.4,0.9-0.6c0.2-0.2,0.3-0.5,0.1-0.7c-0.2-0.2-0.5-0.3-0.7-0.1
		c-0.3,0.2-0.5,0.4-0.8,0.6c-0.2,0.1-0.3,0.4-0.2,0.7C108.5,112.2,108.7,112.3,108.8,112.3z"/>
	<polygon points="102,97.8 102,97.8 102.7,101.3 102.7,101.3 	"/>
	<path d="M31.8,89.4c-2.1,1.9-4.5,3.4-7.2,4.3c-0.2,0.1-0.3,0.3-0.3,0.5c0,0.3,0.2,0.5,0.5,0.5h0c0.1,0,0.1,0,0.2,0
		c2.8-1,5.3-2.6,7.5-4.6c0.2-0.2,0.2-0.5,0-0.7C32.3,89.3,32,89.2,31.8,89.4z"/>
	<path d="M54,90.4c-0.2,0.3-0.5,0.6-0.8,0.8c0,0,0,0,0,0c-0.2,0.2-0.2,0.5,0,0.7c0.1,0.1,0.2,0.1,0.4,0.1l0,0c0.1,0,0.3,0,0.4-0.1
		c0.3-0.3,0.6-0.6,0.8-0.9c0,0,0,0,0,0c0.2-0.2,0.1-0.5-0.1-0.7S54.2,90.2,54,90.4z"/>
	<polygon points="97.2,71.3 97.6,73.3 97.6,73.3 97.2,71.3 	"/>
	<polygon points="95,59.2 95,59.2 97,70.3 97,70.3 	"/>
	<path d="M53.7,93c-0.3,0.2-0.5,0.4-0.8,0.6c-0.2,0.1-0.3,0.4-0.2,0.7c0.1,0.2,0.3,0.2,0.4,0.2l0,0c0.1,0,0.2,0,0.2-0.1
		c0.3-0.2,0.6-0.4,0.9-0.6c0,0,0,0,0,0c0.2-0.2,0.2-0.5,0-0.7C54.3,92.9,54,92.8,53.7,93z"/>
	<path d="M67.5,103.8L67.5,103.8c0.1,0,0.2,0,0.2-0.1c0,0,0.4-0.2,0.9-0.6c0.2-0.2,0.3-0.5,0.1-0.7c-0.2-0.2-0.5-0.3-0.7-0.1
		c-0.5,0.4-0.8,0.6-0.8,0.6c-0.2,0.1-0.3,0.4-0.2,0.7C67.2,103.7,67.3,103.8,67.5,103.8z"/>
	<path d="M64.5,101.2L64.5,101.2c0.1,0,0.1,0,0.2-0.1c0.3-0.1,0.5-0.3,0.8-0.5c0.2-0.2,0.3-0.5,0.1-0.7c-0.2-0.2-0.5-0.3-0.7-0.1
		c-0.2,0.1-0.4,0.3-0.6,0.4c0,0,0,0,0,0c-0.2,0.1-0.4,0.4-0.2,0.7C64.2,101.1,64.4,101.2,64.5,101.2z"/>
	<path d="M63.9,104L63.9,104c0.1,0,0.2,0,0.3-0.1c0,0,0.7-0.4,1.6-1.1c0.2-0.2,0.3-0.5,0.1-0.7c-0.2-0.2-0.5-0.3-0.7-0.1
		c-0.8,0.6-1.5,1-1.5,1c-0.2,0.1-0.2,0.2-0.2,0.4C63.4,103.8,63.6,104,63.9,104z"/>
	<path d="M156.2,103.7L156.2,103.7c0.1,0,0.1,0,0.2-0.1c0.3-0.1,0.6-0.3,0.8-0.5c0.2-0.2,0.3-0.5,0.1-0.7c-0.2-0.2-0.5-0.3-0.7-0.1
		c-0.2,0.1-0.4,0.3-0.6,0.4c0,0,0,0,0,0c-0.2,0.1-0.3,0.4-0.2,0.7C155.8,103.6,156,103.7,156.2,103.7z"/>
	<path d="M155.5,106.6L155.5,106.6c0.1,0,0.2,0,0.2-0.1c0,0,0.7-0.4,1.6-1.1c0.2-0.2,0.3-0.5,0.1-0.7c-0.2-0.2-0.5-0.3-0.7-0.1
		c-0.5,0.4-1,0.7-1.5,1c-0.2,0.1-0.2,0.3-0.2,0.4C155,106.3,155.2,106.6,155.5,106.6z"/>
	<polygon points="132.8,79 132.8,79 132.8,79 	"/>
	<path d="M156.7,98.9L156.7,98.9c0.1,0,0.2,0,0.3-0.1c0.5-0.3,1.1-0.7,1.6-1.1c0.2-0.2,0.3-0.5,0.1-0.7c-0.2-0.2-0.5-0.3-0.7-0.1
		c-0.5,0.4-1,0.7-1.5,1c-0.2,0.1-0.3,0.4-0.2,0.7C156.4,98.8,156.5,98.9,156.7,98.9z"/>
	<polygon points="101.7,95.9 101.7,95.9 98.5,78.7 98.5,78.7 	"/>
	<path d="M152.3,88.9C152.3,88.9,152.3,88.9,152.3,88.9c-0.2,0.2-0.2,0.5,0,0.7c0.1,0.1,0.2,0.1,0.4,0.2l0,0c0.1,0,0.3-0.1,0.4-0.1
		c0.3-0.3,0.6-0.6,0.8-0.9c0,0,0,0,0,0c0.2-0.2,0.1-0.5-0.1-0.7s-0.5-0.1-0.7,0.1C152.9,88.3,152.6,88.6,152.3,88.9z"/>
	<path d="M118.2,79.7L118.2,79.7C118.2,79.7,118.3,79.7,118.2,79.7l8.6-1.8c0.2,0,0.4-0.3,0.4-0.5V65.8c0,0,0-0.1,0-0.1
		c-0.1-0.3-0.3-0.4-0.6-0.4l-8.5,1.9c-0.2,0.1-0.4,0.3-0.4,0.5v11.5c0,0.2,0.1,0.3,0.2,0.4C118,79.6,118.1,79.7,118.2,79.7z
		 M126.2,77l-3.2,0.7V67.1l3.2-0.7V77z M118.7,68.1l3.3-0.7v10.5l-3.3,0.7V68.1z"/>
	<path d="M18.4,92.1c0,0.3,0.3,0.5,0.5,0.5h0c0,0,0,0,0.1,0c1.4-0.2,2.7-0.7,3.8-1.4c0.2-0.2,0.3-0.5,0.1-0.7
		c-0.2-0.2-0.5-0.3-0.7-0.1c-1,0.6-2.2,1.1-3.4,1.3C18.6,91.5,18.4,91.8,18.4,92.1z"/>
	<polygon points="109.5,17.8 109.5,17.8 109.5,17.8 	"/>
	<path d="M11,84.7C11,84.7,11,84.7,11,84.7c0.2-0.2,0.3-0.5,0.1-0.7c0,0,0,0,0,0c-0.2-0.2-0.5-0.3-0.7-0.1c-1,0.6-2.2,1.1-3.4,1.3
		c-0.3,0-0.5,0.3-0.4,0.6c0,0.2,0.2,0.4,0.5,0.4h0c0,0,0,0,0.1,0C8.5,86,9.8,85.5,11,84.7z"/>
	<path d="M12.4,87.9c0,0.3,0.2,0.5,0.5,0.5h0c0.1,0,0.1,0,0.2,0c2.8-1,5.3-2.6,7.5-4.6c0.2-0.2,0.2-0.5,0-0.7
		c-0.2-0.2-0.5-0.2-0.7,0c-2.1,1.9-4.5,3.4-7.2,4.4C12.5,87.5,12.4,87.7,12.4,87.9z"/>
	<path d="M78.1,69.8l-8-3.7c-0.1,0-0.1,0-0.2,0c-0.3,0-0.5,0.2-0.5,0.5v12.5c0,0.2,0.1,0.4,0.3,0.5l8,3.5c0.1,0,0.1,0,0.2,0l0,0
		c0.1,0,0.2,0,0.3-0.1c0.1-0.1,0.2-0.3,0.2-0.4V70.2C78.4,70,78.3,69.9,78.1,69.8z M77.4,81.8l-7-3.1V67.3l7,3.2V81.8z"/>
	<path d="M26,82.9L26,82.9c1.4-0.2,2.7-0.7,3.9-1.4c0,0,0.1,0,0.1-0.1c0.2-0.2,0.2-0.5,0-0.7s-0.5-0.2-0.7,0c-1,0.6-2.2,1.1-3.4,1.3
		c-0.2,0-0.4,0.2-0.4,0.5C25.5,82.6,25.7,82.9,26,82.9z"/>
	<polygon points="32.7,102.5 32.7,102.5 32.7,102.5 	"/>
	<path d="M68,101.4L68,101.4c0.1,0,0.3-0.1,0.4-0.1c0.3-0.3,0.6-0.6,0.8-0.9c0.2-0.2,0.1-0.5-0.1-0.7c-0.2-0.2-0.5-0.1-0.7,0.1
		c-0.2,0.3-0.5,0.6-0.8,0.9c-0.1,0.1-0.1,0.2-0.1,0.3C67.5,101.2,67.7,101.4,68,101.4z"/>
	<path d="M68.3,63.3c-0.1,0.1-0.2,0.3-0.2,0.4v16.6c0,0.2,0.1,0.4,0.3,0.5L79.3,86c0.1,0,0.1,0,0.2,0.1l0,0c0.1,0,0.2,0,0.3-0.1
		c0.1-0.1,0.2-0.2,0.2-0.4V68.7c0-0.2-0.1-0.4-0.3-0.4l-10.9-5C68.6,63.2,68.4,63.2,68.3,63.3z M69.1,64.5l9.9,4.6v15.7L69.1,80
		V64.5z"/>
	<path d="M50.8,92.8c-0.5,0.4-1,0.7-1.5,1c-0.2,0.1-0.3,0.4-0.2,0.7c0.1,0.2,0.3,0.2,0.4,0.2c0.1,0,0.2,0,0.3-0.1
		c0,0,0.7-0.4,1.6-1.1c0.2-0.2,0.3-0.5,0.1-0.7C51.3,92.7,51,92.6,50.8,92.8z"/>
	<polygon points="49.6,94.7 49.6,94.7 49.6,94.7 	"/>
	<path d="M50.2,91.9L50.2,91.9c0.1,0,0.1,0,0.2,0c0.3-0.1,0.5-0.3,0.8-0.5c0.2-0.2,0.3-0.5,0.1-0.7c-0.2-0.2-0.5-0.3-0.7-0.1
		c-0.2,0.1-0.4,0.3-0.6,0.4c0,0,0,0,0,0c-0.2,0.1-0.4,0.4-0.2,0.7C49.8,91.8,50,91.9,50.2,91.9z"/>
</g>
</svg>
