<?xml version="1.0" encoding="utf-8"?>
<!-- Generator: Adobe Illustrator 21.0.2, SVG Export Plug-In . SVG Version: 6.00 Build 0)  -->
<svg version="1.1" id="Слой_1" xmlns="http://www.w3.org/2000/svg" xmlns:xlink="http://www.w3.org/1999/xlink" x="0px" y="0px"
	 viewBox="0 0 194.8 152" style="enable-background:new 0 0 194.8 152;" xml:space="preserve">
<style type="text/css">
	.st0{fill:#161616;}
</style>
<g>
	<g>
		<path class="st0" d="M74.9,118.9c-0.8,0-1.5-0.7-1.5-1.5V99.5c0-0.8,0.7-1.5,1.5-1.5s1.5,0.7,1.5,1.5v17.9
			C76.4,118.2,75.7,118.9,74.9,118.9z"/>
		<path class="st0" d="M68.9,115.7c-0.8,0-1.5-0.7-1.5-1.5V96.5c0-0.8,0.7-1.5,1.5-1.5s1.5,0.7,1.5,1.5v17.7
			C70.4,115,69.7,115.7,68.9,115.7z"/>
		<path class="st0" d="M62.9,112.4c-0.8,0-1.5-0.7-1.5-1.5V93.5c0-0.8,0.7-1.5,1.5-1.5s1.5,0.7,1.5,1.5v17.5
			C64.4,111.8,63.7,112.4,62.9,112.4z"/>
		<path class="st0" d="M56.9,109.2c-0.8,0-1.5-0.7-1.5-1.5V90.5c0-0.8,0.7-1.5,1.5-1.5s1.5,0.7,1.5,1.5v17.2
			C58.4,108.6,57.7,109.2,56.9,109.2z"/>
		<path class="st0" d="M50.9,106c-0.8,0-1.5-0.7-1.5-1.5v-17c0-0.8,0.7-1.5,1.5-1.5s1.5,0.7,1.5,1.5v17
			C52.4,105.3,51.7,106,50.9,106z"/>
		<path class="st0" d="M44.9,102.8c-0.8,0-1.5-0.7-1.5-1.5V84.5c0-0.8,0.7-1.5,1.5-1.5s1.5,0.7,1.5,1.5v16.8
			C46.4,102.1,45.7,102.8,44.9,102.8z"/>
		<path class="st0" d="M38.9,99.6c-0.8,0-1.5-0.7-1.5-1.5V81.5c0-0.8,0.7-1.5,1.5-1.5s1.5,0.7,1.5,1.5v16.6
			C40.4,98.9,39.7,99.6,38.9,99.6z"/>
		<path class="st0" d="M32.9,96.4c-0.8,0-1.5-0.7-1.5-1.5V78.5c0-0.8,0.7-1.5,1.5-1.5s1.5,0.7,1.5,1.5v16.4
			C34.4,95.7,33.7,96.4,32.9,96.4z"/>
		<path class="st0" d="M26.9,93.1c-0.8,0-1.5-0.7-1.5-1.5V75.5c0-0.8,0.7-1.5,1.5-1.5s1.5,0.7,1.5,1.5v16.2
			C28.4,92.5,27.7,93.1,26.9,93.1z"/>
		<path class="st0" d="M20.9,89.9c-0.8,0-1.5-0.7-1.5-1.5v-16c0-0.8,0.7-1.5,1.5-1.5s1.5,0.7,1.5,1.5v16
			C22.4,89.3,21.7,89.9,20.9,89.9z"/>
		<path class="st0" d="M14.9,86.7c-0.8,0-1.5-0.7-1.5-1.5V69.5c0-0.8,0.7-1.5,1.5-1.5s1.5,0.7,1.5,1.5v15.7
			C16.4,86,15.7,86.7,14.9,86.7z"/>
		<path class="st0" d="M8.9,83.5c-0.8,0-1.5-0.7-1.5-1.5V66.5c0-0.8,0.7-1.5,1.5-1.5s1.5,0.7,1.5,1.5V82
			C10.4,82.8,9.7,83.5,8.9,83.5z"/>
	</g>
	<g>
		<path class="st0" d="M159.5,81.8c0.3,0,0.5-0.2,0.5-0.5v-2.5c0-0.2-0.2-0.4-0.4-0.5l-1.7-0.4c-0.3-0.1-0.5,0.1-0.6,0.4
			c-0.1,0.3,0.1,0.5,0.4,0.6l1.3,0.3v2.2C159,81.5,159.2,81.8,159.5,81.8z"/>
		<path class="st0" d="M149.9,82.1c-0.1-0.3-0.3-0.4-0.6-0.4l-5.4,1.4c-0.3,0.1-0.4,0.3-0.4,0.6c0.1,0.2,0.3,0.4,0.5,0.4
			c0,0,0.1,0,0.1,0l5.4-1.4C149.9,82.6,150,82.3,149.9,82.1z"/>
		<path class="st0" d="M147.7,84.9l-2.8,0.7c-0.3,0.1-0.4,0.3-0.4,0.6c0.1,0.2,0.3,0.4,0.5,0.4c0,0,0.1,0,0.1,0l2.8-0.7
			c0.3-0.1,0.4-0.3,0.4-0.6C148.2,85,147.9,84.8,147.7,84.9z"/>
		<path class="st0" d="M112.2,75.4c0,0,0.1,0,0.1,0l9.7-2c0.2,0,0.4-0.3,0.4-0.5V59.7c0-0.2-0.1-0.3-0.2-0.4
			c-0.1-0.1-0.3-0.1-0.4-0.1l-9.7,2.2c-0.2,0.1-0.4,0.3-0.4,0.5v13.1c0,0.2,0.1,0.3,0.2,0.4C112,75.4,112.1,75.4,112.2,75.4z
			 M121.4,72.5l-3.8,0.8V61.2l3.8-0.9V72.5z M112.7,62.3l3.8-0.9v12.1l-3.8,0.8V62.3z"/>
		<path class="st0" d="M123.4,56.7l-13.3,3.1c-0.2,0.1-0.4,0.3-0.4,0.5v16.9c0,0.2,0.1,0.3,0.2,0.4c0.1,0.1,0.2,0.1,0.3,0.1
			c0,0,0.1,0,0.1,0l13.3-2.9c0.2,0,0.4-0.3,0.4-0.5V57.2c0-0.2-0.1-0.3-0.2-0.4C123.7,56.7,123.6,56.7,123.4,56.7z M123,73.9
			l-12.3,2.7V60.7l12.3-2.9V73.9z"/>
		<path class="st0" d="M90.4,61.4l-4.1-1.9c0,0,0,0,0,0l-4.4-2c-0.2-0.1-0.3-0.1-0.5,0c-0.1,0.1-0.2,0.2-0.2,0.4v13.2
			c0,0.2,0.1,0.4,0.3,0.5l8.4,3.7c0.1,0,0.1,0,0.2,0c0.1,0,0.2,0,0.3-0.1c0.1-0.1,0.2-0.2,0.2-0.4V61.9
			C90.7,61.7,90.6,61.5,90.4,61.4z M89.7,67.9l-3.1-1.5v-5.6l3.1,1.4V67.9z M82.2,58.8l3.4,1.6v5.9c0,0-0.1,0.1-0.1,0.1
			c-0.1,0.2,0,0.4,0.1,0.6v5.5l-3.4-1.5V58.8z M86.6,72.8v-5.4l3.1,1.5v5.2L86.6,72.8z"/>
		<path class="st0" d="M80.1,73l11.6,5.6c0.1,0,0.1,0,0.2,0c0.1,0,0.2,0,0.3-0.1c0.1-0.1,0.2-0.3,0.2-0.4V60.3
			c0-0.2-0.1-0.4-0.3-0.5l-11.6-5.3c-0.2-0.1-0.3-0.1-0.5,0c-0.1,0.1-0.2,0.3-0.2,0.4v17.6C79.8,72.8,79.9,72.9,80.1,73z M80.8,55.8
			l10.6,4.9v16.7l-10.6-5.1V55.8z"/>
		<path class="st0" d="M75.6,55.2l-8.4-3.9c-0.2-0.1-0.3-0.1-0.5,0c-0.1,0.1-0.2,0.2-0.2,0.4V65c0,0.2,0.1,0.4,0.3,0.5l8.4,3.7
			c0.1,0,0.1,0,0.2,0c0.1,0,0.2,0,0.3-0.1c0.1-0.1,0.2-0.2,0.2-0.4V55.6C75.8,55.4,75.7,55.2,75.6,55.2z M74.8,61.5l-3.2-1.6v-5.4
			l3.2,1.5V61.5z M67.4,52.5l3.2,1.5V66l-3.2-1.4V52.5z M71.6,66.5V61l3.2,1.6v5.3L71.6,66.5z"/>
		<path class="st0" d="M65.3,66.7l11.6,5.6c0.1,0,0.1,0,0.2,0c0.1,0,0.2,0,0.3-0.1c0.1-0.1,0.2-0.3,0.2-0.4V54
			c0-0.2-0.1-0.4-0.3-0.5l-11.6-5.3c-0.2-0.1-0.3-0.1-0.5,0c-0.1,0.1-0.2,0.3-0.2,0.4v17.6C65,66.5,65.1,66.6,65.3,66.7z M66,49.5
			l10.6,4.8V71L66,66V49.5z"/>
		<path class="st0" d="M73.8,43.6l8.4,3.7c0.1,0,0.1,0,0.2,0c0.1,0,0.2,0,0.3-0.1c0.1-0.1,0.2-0.2,0.2-0.4V33.8
			c0-0.2-0.1-0.4-0.3-0.5l-4.2-1.9c0,0,0,0,0,0l-4.2-1.9c-0.2-0.1-0.3-0.1-0.5,0c-0.1,0.1-0.2,0.2-0.2,0.4v13.2
			C73.5,43.3,73.6,43.5,73.8,43.6z M82,46.1l-3.2-1.4v-12l3.2,1.5V46.1z M74.5,30.7l3.2,1.5v12.1l-3.2-1.4V30.7z"/>
		<path class="st0" d="M194.6,99.5C194.6,99.5,194.6,99.5,194.6,99.5c0-0.2,0-0.3-0.1-0.3c0,0,0-0.1,0-0.1c0-0.1-0.1-0.2-0.1-0.2
			c0,0,0-0.1-0.1-0.1c-0.1-0.1-0.2-0.2-0.3-0.2l-33-16.4c-0.5-0.2-1.1,0-1.3,0.5s0,1.1,0.5,1.3l30.5,15.2l-3.4,0.9l-28.5-14.4v-2.9
			c0,0,0,0,0-0.1c0,0,0-0.1,0-0.1c0,0,0-0.1,0-0.1c0,0,0-0.1-0.1-0.1c0,0-0.1,0-0.1-0.1c0,0,0,0-0.1,0l-0.8-0.4l-0.6-2.4
			c-0.3-1.1-1.3-1.9-2.4-1.7l-1.3,0.2c-1.4,0.2-2.5,1.5-2.5,3l0,3.3l-3.7,3.1l-4.4,1.8c-0.7,0.3-2,0.3-2.7,0l-1.3-0.5
			c0-0.1,0-0.2,0-0.3c0-0.1-0.1-0.3-0.3-0.3v-2.9c0-0.3-0.2-0.5-0.5-0.5s-0.5,0.2-0.5,0.5v3.1l-1.9-0.8l-2.6-2.2l16.7-4.1
			c0.5-0.1,0.9-0.7,0.7-1.2c-0.1-0.3-0.2-0.5-0.5-0.6V52.9c0-0.2-0.1-0.3-0.2-0.4c-0.1-0.1-0.3-0.1-0.4-0.1l-10.9,2.3
			c-0.2,0-0.4,0.3-0.4,0.5v26.7l-1.8,0.4V52.9l14.1-3v20.3c0,0.3,0.2,0.5,0.5,0.5s0.5-0.2,0.5-0.5V49.3c0-0.2-0.1-0.3-0.2-0.4
			c-0.1-0.1-0.3-0.1-0.4-0.1L135.7,52c-0.2,0-0.4,0.3-0.4,0.5v30.1l-3.7,0.9l0-2.9c0-1.6-1.2-3.1-2.7-3.2l-2.5-0.3
			c-1.4-0.2-2.6,0.9-2.9,2.3l-1,6.4l-24.9,6.1V56.1l58.6-10.2v24.9c0,0.6,0.4,1,1,1s1-0.4,1-1V45.5l4.9-0.8c0.2,0,0.4-0.1,0.6-0.3
			l1.9-2c0.1-0.1,0.1-0.2,0.2-0.3c0.1-0.1,0.2-0.2,0.3-0.4c0.1-0.3,0.1-0.7-0.1-1L139.7,3.9c-0.2-0.3-0.6-0.4-0.9-0.4l-13.1,1.2V3.8
			c0-0.4-0.3-0.8-0.7-0.9l-7.5-2.8c-0.1,0-0.2-0.1-0.3-0.1h-7.5c-0.6,0-1,0.4-1,1v5.3l-22,2c0,0-0.1,0-0.1,0l-10.9,1c0,0,0,0-0.1,0
			c-0.1,0-0.2,0-0.3,0.1c0,0,0,0,0,0c-0.1,0.1-0.2,0.1-0.3,0.2c0,0,0,0,0,0.1c0,0,0,0-0.1,0.1L57,38.6c-0.2,0.4-0.2,0.9,0.1,1.2
			l2.2,2.2c0.2,0.2,0.5,0.3,0.8,0.3c0.3,0,0.6-0.2,0.7-0.4l0.4-0.6v28l-28.2,5.4L33,63.3c0.5-0.1,1.1-0.3,1.8-0.7
			c1.4,0.3,2.9,0.8,4.4,1.4c2,0.7,3.8,1.4,5.4,1.4c4.4,0,7.3-0.3,12.4-5.3c0.8-0.8,1.8-2,1.5-3.3c-0.4-1.4-2.1-1.8-3.9-2.2
			c-2-0.4-3.5-0.8-3.5-1.8c0-1.4,0.7-2,2.1-2.9c1.4-1,3.1-2.2,3.1-4.9c0-4.6-0.6-5.6-2.8-7c-0.7-0.4-1.5-0.6-2.4-0.8
			c-2.3-0.5-3.7-1-3.7-3.5c0-1.5-0.5-2.7-1.3-3.5c-1.9-1.9-5.1-1.8-7.5-1.8l-0.6,0c-0.6,0-1.3-1.6-1.8-2.9c-1.1-2.7-2.6-6.3-6.5-6.3
			c-5,0-5.8,5.7-6.2,9c-0.1,1-0.3,2.1-0.4,2.5c-0.3,0.1-1.3-0.4-2-0.7c-1.9-0.8-4.4-1.9-6.6-0.5c-2.4,1.6-1.5,4.4-0.8,6.6
			c0.5,1.6,1,3.2,0.5,4.1c-0.3,0.6-0.5,0.6-1.7,0.4C10.5,40.5,7.9,40,5,44.1c-4.7,6.6,0.2,11.5,4.5,15.8l0.2,0.2
			c1.9,1.9,3.9,2.3,5.7,2.1c0,0.1,0.1,0.2,0.2,0.2c2.2,2.2,4.6,3.4,7,3.7c0.3,1.4,0.9,2.5,1.9,3.4c1.9,1.7,4.6,1.9,6.2,1.9
			c0.1,0,0.2,0,0.3,0l0,3.6l-7.3,1.4L8.8,68.8c-0.5-0.3-1.1-0.1-1.3,0.4c-0.3,0.5-0.1,1.1,0.4,1.3l12.7,6.5l-10,1.9l-1.8-0.9
			c-0.5-0.3-1.1-0.1-1.3,0.4c-0.2,0.4-0.1,0.8,0.1,1.1L1,80.8c0,0-0.1,0-0.1,0c0,0,0,0-0.1,0c0,0,0,0-0.1,0c-0.1,0-0.2,0.1-0.2,0.1
			c0,0-0.1,0-0.1,0.1c-0.1,0.1-0.2,0.2-0.2,0.3c0,0,0,0,0,0c0,0.1-0.1,0.2-0.1,0.2c0,0,0,0,0,0.1c0,0,0,0.1,0,0.1c0,0.1,0,0.2,0,0.3
			c0,0,0,0,0,0.1c0.5,1.5,0.2,9.6-0.1,14.4c0,0.4,0.2,0.8,0.5,0.9l3.5,1.9c0.1,0.5,0.1,1.2,0.1,2c0,0,0,0,0,0
			c-0.1,0.2-0.1,0.3,0,0.5c-0.1,1.8-0.3,3.9-0.6,5.3c-0.1,0.4,0.1,0.8,0.5,1l79.9,43.7c0.1,0.1,0.3,0.1,0.5,0.1c0.1,0,0.2,0,0.2,0
			l105.3-26.7c0.5-0.1,0.8-0.5,0.8-1c0,0-0.2-4.5,0-8.4l2.9-0.7c0.5-0.1,0.8-0.5,0.8-1C194.6,114.1,194.4,103.8,194.6,99.5z
			 M24.5,60.1c3.6-0.3,5.1-2.1,6.4-3.7l0,4.3c-0.8,0.3-1.6,0.7-2.3,1.4c-1.3,1.3-2.7,1.9-4.1,2.1V60.1z M33,55c0-0.1,0-0.2-0.1-0.3
			c1-0.5,2.7-0.9,4.3-0.9c-0.2,3.9-1.6,5.8-2.8,6.8c-0.5-0.1-0.9-0.1-1.4-0.1L33,55z M24.4,31.7c0.3-0.7,0.5-1.8,0.7-3.1
			c0.6-4,1.3-7.3,4.3-7.3c2.4,0,3.4,2.1,4.7,5.1c0.9,2.1,1.7,4.2,3.7,4.2l0.7,0c2,0,4.8,0,6.1,1.2c0.5,0.5,0.8,1.2,0.8,2.1
			c0,0.4,0,0.9,0.1,1.2c-1.6,1.5-3.1,2.3-4.5,2.2c-2.1-0.1-3.8-2.1-5.4-4.1c-1.6-2-3.2-3.8-5.2-3.8c-1.2,0-2.1,1-3,1.9
			c-0.9,0.9-1.7,1.8-2.7,1.8c-0.4,0-0.8-0.1-1.2-0.3C23.8,32.6,24.2,32.3,24.4,31.7z M15.3,31.4c1.3-0.9,3.1-0.1,4.7,0.6
			c0.4,0.2,0.9,0.4,1.3,0.5c1.1,1,2.2,1.5,3.2,1.5c0,0,0,0,0,0c1.5,0,2.5-1.1,3.4-2.1c0.8-0.8,1.5-1.6,2.3-1.6
			c1.5,0,2.9,1.7,4.4,3.5c1.8,2.1,3.6,4.3,6.2,4.4c0.1,0,0.1,0,0.2,0c1.5,0,3-0.7,4.6-2.1c0.9,2.2,3.2,2.7,4.8,3.1
			c0.7,0.2,1.4,0.3,1.8,0.6c1.5,0.9,1.9,1.2,1.9,5.3c0,0.1,0,0.2,0,0.3c-0.9,0.7-2.8,1.7-6.9,1.7c-4.5,0-8.1-3-10.7-5.2
			c-2.1-1.8-3.7-3.1-4.9-2.1c-0.8,0.7-1.3,1.6-1.7,2.5c-0.9,1.8-1.6,3.2-4.7,2.5c-1.5-0.3-2.8-0.2-3.8,0c-2.2,0.3-3.5,0.4-5.4-4.8
			c0.2-1.4-0.3-2.9-0.8-4.2C14.5,33.3,14.2,32.1,15.3,31.4z M11.1,58.7L11,58.5c-1.1-1.1-2.2-2.2-3.1-3.3c1,0.2,2.3,0.3,4.1,0.3
			c2.9,0,4.8-1.3,6.6-2.5c1.9-1.3,3.6-2.5,6.6-2.5c4.9,0,9.4-0.5,9.4-4.2c0-0.3-0.2-0.5-0.5-0.5s-0.5,0.2-0.5,0.5
			c0,1.6-1,3.2-8.4,3.2c-3.3,0-5.3,1.3-7.2,2.6c-1.8,1.2-3.4,2.3-6,2.3c-2.8,0-4.3-0.3-5.1-0.6c-1.9-2.6-2.5-5.3-0.1-8.7
			c2.2-3,3.7-2.8,5.1-2.5c1.1,0.2,2.7,0.5,3.8-1.3c0,0,0,0,0,0c1.9,4.5,3.4,4.6,6,4.3c1-0.1,2.1-0.3,3.5,0c3.9,0.8,4.9-1.3,5.8-3.1
			c0.4-0.8,0.8-1.6,1.4-2.1c0.6-0.5,2,0.7,3.6,2.1c2.7,2.3,6.4,5.5,11.3,5.5c3.1,0,5-0.6,6.3-1.2c-0.4,0.5-1,1-1.7,1.4
			c-1.3,0.9-2.9,2.1-2.9,4.5c0,2.6,2.9,3.2,5.1,3.7c0.8,0.2,2.2,0.5,2.4,0.7c0,0,0,0.4-1,1.3c-4.7,4.7-7.2,4.7-11,4.7
			c-1.2,0-2.9-0.6-4.7-1.3c-1-0.4-2.1-0.8-3.2-1.1c1.2-1.4,2.3-3.6,2.5-7.1c0.3,0.1,0.5,0.1,0.8,0.2c1.1,0.4,1.5,1.2,1.5,2.2
			c0,0.6,0.4,1,1,1s1-0.4,1-1c0-1.9-1-3.4-2.8-4.1c-0.5-0.2-1.1-0.4-1.8-0.5c-0.2-0.2-0.4-0.3-0.7-0.3c-0.2,0-0.4,0.1-0.6,0.2
			c-2.8-0.1-5.8,0.8-7.1,2.1c-0.4,0.4-0.8,0.9-1.2,1.3c-1.4,1.6-2.5,3-5.9,3c-1.9,0-3.6,0.6-5.2,1.2C15.5,60.3,13.5,61,11.1,58.7z
			 M19,61.2c1.1-0.4,2.3-0.8,3.5-1v3.9c-1.7-0.3-3.4-1.2-4.8-2.4C18.2,61.5,18.6,61.4,19,61.2z M25.9,68c-0.6-0.5-0.9-1.1-1.1-1.9
			c2-0.2,3.8-1.1,5.3-2.6c0.3-0.3,0.6-0.5,0.9-0.7l0,6.6C29.7,69.5,27.3,69.3,25.9,68z M178.6,117l14-14c0,2,0,4.2,0,6.1l-5.8,5.8
			L178.6,117z M192.5,100.8c0,0.3,0,0.6,0,0.8l-15.9,15.9l-8.2,2.1l17-17L192.5,100.8z M188.9,120.8L85.3,147l0-1.4l103.6-26.2
			C188.9,119.9,188.9,120.4,188.9,120.8z M6.3,103l78,42.7l0,1.3L6.2,104.2C6.3,103.8,6.3,103.4,6.3,103z M22.7,94.7l-8.1,8.1
			l-6-3.3l8.1-8.1L22.7,94.7z M23.6,95.2l6,3.3l-8.1,8.1l-6-3.3L23.6,95.2z M30.5,99l6.7,3.7l-8.1,8.1l-6.7-3.7L30.5,99z
			 M38.1,103.1l6.7,3.7l-8.1,8.1l-6.7-3.7L38.1,103.1z M45.8,107.3l6,3.3l-8.1,8.1l-6-3.3L45.8,107.3z M52.7,111.1l6,3.3l-8.1,8.1
			l-6-3.3L52.7,111.1z M59.6,114.9l6,3.3l-8.1,8.1l-6-3.3L59.6,114.9z M66.5,118.7l6,3.3l-8.1,8.1l-6-3.3L66.5,118.7z M73.5,122.5
			l6,3.3l-8.1,8.1l-6-3.3L73.5,122.5z M80.4,126.2l3.3,1.8v4.2l-5.4,5.3l-6-3.3L80.4,126.2z M84.7,140.8v-4.9l10.4-10.4l8.2-2.1
			l-17,17L84.7,140.8z M84.7,134.5v-6.4l8.5-2.2L84.7,134.5z M83.7,133.7v1.8c-0.1,0.2-0.1,0.4,0,0.6v4.4l-4.4-2.4L83.7,133.7z
			 M105.1,122.9l8.2-2.1l-17,17l-8.2,2.1L105.1,122.9z M115.2,120.4l8.1-2.1l-17,17l-8.1,2.1L115.2,120.4z M125.2,117.8l8.1-2.1
			l-17,17l-8.2,2.1L125.2,117.8z M135.3,115.3l8.1-2.1l-17,17l-8.1,2.1L135.3,115.3z M145.3,112.7l8.2-2.1l-17,17l-8.2,2.1
			L145.3,112.7z M155.4,110.2l8.1-2.1l-17,17l-8.1,2.1L155.4,110.2z M165.4,107.6l8.2-2.1l-17,17l-8.2,2.1L165.4,107.6z
			 M175.5,105.1l8.1-2.1l-17,17l-8.1,2.1L175.5,105.1z M170.3,104.4l-12.8-6.6l-0.1-2.1c0.4,0,0.9-0.1,0.9-0.1l0.5-0.1l-1-5.4
			c0.4,0.3,0.9,0.6,1.4,0.6h0.8l-1-3.9l26.9,13.6L170.3,104.4z M151.1,94.4l-6.2-3.2l1.5-1c0.5-0.3,0.9-0.9,1-1.5
			c0.6,0.4,1.4,0.4,2,0l1.7-1.2L151.1,94.4z M131.6,87.8l0-0.2l1.7,1.2c0.2,0.2,0.5,0.3,0.9,0.3l-2.6,0.7V87.8z M139.1,55.6l9.9-2.1
			v25.8l-9.9,2.4V55.6z M121.6,91.7l1.1-0.2c0.7-0.1,1.4-0.8,1.5-1.5l0.4-1.6c0,0.5,0,1.6-0.1,3.1L96.7,99L60.2,81.1v-3.3l1.5-0.5
			c0.1,0,0.1,0.1,0.2,0.1L96.3,94c0,0,0,0,0,0c0.1,0.1,0.3,0.1,0.4,0.1c0,0,0,0,0,0c0,0,0,0,0,0c0,0,0,0,0,0c0.1,0,0.2,0,0.2,0
			l25.3-6.2L121.6,91.7z M79.5,10.9l23.1,40.5l-2.7,0.5L77.4,11.1L79.5,10.9z M87,10.2l22.8,39.9l-6.1,1.1L80.6,10.8L87,10.2z
			 M95.8,9.4l22.9,39.1l-7.9,1.4L88.1,10.1L95.8,9.4z M104.3,8.7l24.2,38.2l-8.6,1.5l-22.9-39L104.3,8.7z M133.4,6l23.8,35.7
			l-8.4,1.5l-23-36.5L133.4,6z M138.4,45.1l-12.8-21.6c0.1-0.1,0.1-0.3,0.1-0.5V8.3l22.1,35.1L138.4,45.1z M123.7,4.5V22l-6,0.7v-18
			l5.7-0.3L123.7,4.5z M117,2l4,1.5l-3.7,0.2l-4-1.7H117z M116.7,4.5V22l-6-8.2V2h0.1L116.7,4.5z M115.9,24.4
			c0.2,0.3,0.5,0.4,0.8,0.4c0,0,0.1,0,0.1,0l7.8-0.9l12.6,21.3l-7.8,1.4L112,18.9L115.9,24.4z M163.4,40.6l-5.1,0.9L134.5,5.9
			l3.8-0.3L163.4,40.6z M108.7,13.8l-3.3-5.2l3.3-0.3V13.8z M59.9,39.7L59.1,39l16.6-26.7l22.4,40.6l-0.8,0.8l-20.5-37
			C76.7,16.2,76.4,16,76,16c0,0,0,0,0,0c-0.3,0-0.7,0.2-0.8,0.5L59.9,39.7z M83.7,33v16.2l-10.6-5.1V27.7l10.2,4.7L83.7,33z
			 M75.9,19l6.6,11.9l-9.7-4.4c-0.2-0.1-0.3-0.1-0.5,0c-0.1,0.1-0.2,0.3-0.2,0.4v17.6c0,0.2,0.1,0.4,0.3,0.5L84,50.5
			c0.1,0,0.1,0,0.2,0c0.1,0,0.2,0,0.3-0.1c0.1-0.1,0.2-0.3,0.2-0.4V34.9l11,19.9v36.7L63.3,75.8V38.2L75.9,19z M31.1,77.1l0,3.1
			L26.7,78L31.1,77.1z M10.3,81.1l71,37.2c0.1,0.1,0.3,0.1,0.5,0.1c0.4,0,0.7-0.2,0.9-0.5c0.3-0.5,0.1-1.1-0.4-1.3l-68.7-36l10-1.9
			l7.7,3.9l0,0.6c0,0.6,0.5,1,1,1c0,0,0,0,0,0c0.4,0,0.8-0.3,0.9-0.6l48.2,24.9c0.1,0.1,0.3,0.1,0.5,0.1c0.4,0,0.7-0.2,0.9-0.5
			c0.3-0.5,0.1-1.1-0.4-1.3L33.1,81.3l0-4.6l5.2-1c0,0-0.1,0.1-0.1,0.1c-0.2,0.1-0.4,0.4-0.2,0.7c0.1,0.2,0.3,0.3,0.5,0.3
			c0.1,0,0.1,0,0.2,0c0.3-0.1,0.6-0.3,0.8-0.5c0.2-0.2,0.3-0.5,0.1-0.7c0,0,0,0,0,0l21.8-4.2v4.9l-1.8,0.7c-0.2,0.1-0.3,0.3-0.3,0.5
			v4c0,0.2,0.1,0.4,0.3,0.4l37,18.1c0.1,0,0.1,0.1,0.2,0.1c0,0,0.1,0,0.1,0l27.8-7.3c-0.1,3.5-0.2,8.4-0.3,11.6
			c0,0.3,0.1,0.5,0.3,0.7c0.2,0.2,0.4,0.3,0.6,0.3h1.3l1.8-13l1,12.2c0,0.5,0.5,0.9,1,0.9h1.4V90.8l4-1.1c0.2,0.2,0.4,0.4,0.6,0.6
			l2.3,1.4c0.3,0.2,0.6,0.8,0.6,1.2l-0.4,12.3h1c0.5,0,0.9-0.4,1-0.9l0.7-3.9l0.5,4c0.1,0.5,0.5,0.9,1,0.9h1l-0.2-12.5
			c0-0.3,0.1-0.6,0.3-0.9l7.1,3.7l0.1,9.8h1.2c0.5,0,0.9-0.4,1-0.9l0.8-7.3l0.1,0.1l1.7,8.1h1c0.2,0,0.5-0.1,0.6-0.3
			c0.2-0.2,0.3-0.4,0.2-0.7l-0.4-5.5l11.3,5.8L116.4,118c-0.1,0-0.2,0-0.3,0.1l-1.1,0.3c0.1-0.1,0.3-0.2,0.5-0.4
			c0.2-0.2,0.3-0.5,0.1-0.7c-0.2-0.2-0.5-0.3-0.7-0.1c-0.5,0.4-0.8,0.6-0.8,0.6c-0.2,0.1-0.3,0.4-0.2,0.7c0,0.1,0.1,0.1,0.1,0.1
			l-29.7,7.5L4.2,82.3L10.3,81.1z M2.5,83.6l6.3,3.5l-6.4,6.4C2.5,90.5,2.7,86.3,2.5,83.6z M2.3,95l7.4-7.4l6,3.3l-8.1,8.1l-2.1-1.1
			c0,0-0.1,0-0.1-0.1L2.3,96C2.3,95.7,2.3,95.4,2.3,95z M83.7,142.8c0.1,0.1,0.3,0.1,0.5,0.1c0.1,0,0.2,0,0.2,0l0,1.6l-78-42.7
			c0-0.5,0-0.9,0-1.4L83.7,142.8z M6.1,105.3L84.3,148l0,1.6L5.9,106.8C6,106.4,6,105.9,6.1,105.3z M85.2,149.8l0.1-1.8l103.7-26.3
			c0,0.7,0,1.3,0,1.7L85.2,149.8z M188.9,118.4L85.4,144.6l0.1-1.9l99.9-25.3c0,0,0.1,0,0.1,0c0.1,0,0.3,0,0.4-0.1l3.1-0.8
			C188.9,117.1,188.9,117.7,188.9,118.4z M189.7,114.2C189.7,114.2,189.6,114.2,189.7,114.2l-1.1,0.3l3.9-3.9c0,1.2,0,2.3,0,2.9
			L189.7,114.2z"/>
		<path class="st0" d="M140.3,67.6c-0.5,0-1,0.4-1,1c0,0.5,0.4,1,1,1c0.5,0,1-0.4,1-1C141.3,68.1,140.8,67.6,140.3,67.6z
			 M140.3,68.6C140.3,68.6,140.3,68.6,140.3,68.6l0.5,0L140.3,68.6z"/>
		<path class="st0" d="M44.8,81.9c-0.9,0.6-1.5,1-1.5,1c-0.2,0.1-0.3,0.4-0.2,0.7c0.1,0.2,0.3,0.3,0.4,0.3c0.1,0,0.2,0,0.2-0.1
			c0,0,0.7-0.4,1.6-1.1c0.2-0.2,0.3-0.5,0.1-0.7C45.3,81.7,45,81.7,44.8,81.9z"/>
		<path class="st0" d="M48.2,79.4c-0.3,0.3-0.5,0.6-0.8,0.9c-0.2,0.2-0.2,0.5,0,0.7c0.1,0.1,0.2,0.1,0.4,0.1s0.3,0,0.4-0.1
			c0.3-0.3,0.6-0.6,0.9-1c0.2-0.2,0.1-0.5-0.1-0.7C48.7,79.1,48.3,79.2,48.2,79.4z"/>
		<path class="st0" d="M47.8,82.1c-0.5,0.4-0.8,0.6-0.8,0.6c-0.2,0.1-0.3,0.4-0.2,0.7c0.1,0.2,0.3,0.2,0.4,0.2c0.1,0,0.2,0,0.2-0.1
			c0,0,0.4-0.2,0.9-0.6c0.2-0.2,0.3-0.5,0.1-0.7C48.4,82,48.1,81.9,47.8,82.1z"/>
		<path class="st0" d="M44.2,80.9c0.1,0,0.1,0,0.2,0c0.3-0.1,0.6-0.3,0.8-0.5c0.2-0.2,0.3-0.5,0.1-0.7c-0.2-0.2-0.5-0.3-0.7-0.1
			c-0.2,0.1-0.4,0.3-0.6,0.4c-0.2,0.1-0.4,0.4-0.2,0.7C43.8,80.8,44,80.9,44.2,80.9z"/>
		<path class="st0" d="M39,77.8c-0.9,0.6-1.5,1-1.5,1c-0.2,0.1-0.3,0.4-0.2,0.7c0.1,0.2,0.3,0.3,0.4,0.3c0.1,0,0.2,0,0.2-0.1
			c0,0,0.7-0.4,1.6-1.1c0.2-0.2,0.3-0.5,0.1-0.7C39.5,77.7,39.2,77.6,39,77.8z"/>
		<path class="st0" d="M41.9,77c0.1,0,0.3,0,0.4-0.1c0.3-0.3,0.6-0.6,0.9-1c0.2-0.2,0.1-0.5-0.1-0.7s-0.5-0.1-0.7,0.1
			c-0.3,0.3-0.5,0.6-0.8,0.9c-0.2,0.2-0.2,0.5,0,0.7C41.7,77,41.8,77,41.9,77z"/>
		<path class="st0" d="M42,78c-0.5,0.4-0.8,0.6-0.8,0.6C41,78.7,40.9,79,41,79.3c0.1,0.2,0.3,0.2,0.4,0.2c0.1,0,0.2,0,0.2-0.1
			c0,0,0.4-0.2,0.9-0.6c0.2-0.2,0.3-0.5,0.1-0.7C42.6,77.9,42.3,77.8,42,78z"/>
		<path class="st0" d="M51.5,76.3c-0.2-0.2-0.5-0.3-0.7-0.1c-0.9,0.6-1.5,1-1.5,1c-0.2,0.1-0.3,0.4-0.2,0.7c0.1,0.2,0.3,0.3,0.4,0.3
			c0.1,0,0.2,0,0.2-0.1c0,0,0.7-0.4,1.6-1.1C51.6,76.8,51.7,76.5,51.5,76.3z"/>
		<path class="st0" d="M53.7,75.5c0.1,0,0.3,0,0.4-0.1c0.3-0.3,0.6-0.6,0.9-1c0.2-0.2,0.1-0.5-0.1-0.7c-0.2-0.2-0.5-0.1-0.7,0.1
			c-0.3,0.3-0.5,0.6-0.8,0.9c-0.2,0.2-0.2,0.5,0,0.7C53.5,75.4,53.6,75.5,53.7,75.5z"/>
		<path class="st0" d="M54.6,76.5c-0.2-0.2-0.5-0.3-0.7-0.1C53.4,76.8,53,77,53,77c-0.2,0.1-0.3,0.4-0.2,0.7
			c0.1,0.2,0.3,0.2,0.4,0.2c0.1,0,0.2,0,0.2-0.1c0,0,0.4-0.2,0.9-0.6C54.7,77,54.7,76.7,54.6,76.5z"/>
		<path class="st0" d="M50.2,75.2c0.1,0,0.1,0,0.2,0c0.3-0.1,0.6-0.3,0.8-0.5c0.2-0.2,0.3-0.5,0.1-0.7c-0.2-0.2-0.5-0.3-0.7-0.1
			c-0.2,0.1-0.4,0.3-0.7,0.4c-0.2,0.1-0.4,0.4-0.2,0.7C49.8,75.1,50,75.2,50.2,75.2z"/>
		<path class="st0" d="M52,82.3c-0.9,0.6-1.5,1-1.5,1c-0.2,0.1-0.3,0.4-0.2,0.7c0.1,0.2,0.3,0.3,0.4,0.3c0.1,0,0.2,0,0.2-0.1
			c0,0,0.7-0.4,1.6-1.1c0.2-0.2,0.3-0.5,0.1-0.7C52.6,82.2,52.3,82.2,52,82.3z"/>
		<path class="st0" d="M54.6,81.5c0.1,0.1,0.2,0.1,0.4,0.1s0.3,0,0.4-0.1c0.3-0.3,0.6-0.6,0.9-1c0.2-0.2,0.1-0.5-0.1-0.7
			c-0.2-0.2-0.5-0.1-0.7,0.1c-0.3,0.3-0.5,0.6-0.8,0.9C54.4,80.9,54.4,81.3,54.6,81.5z"/>
		<path class="st0" d="M54.8,84c0,0,0.4-0.2,0.9-0.6c0.2-0.2,0.3-0.5,0.1-0.7c-0.2-0.2-0.5-0.3-0.7-0.1c-0.5,0.4-0.8,0.6-0.8,0.6
			c-0.2,0.1-0.3,0.4-0.2,0.7c0.1,0.2,0.3,0.2,0.4,0.2C54.6,84.1,54.7,84.1,54.8,84z"/>
		<path class="st0" d="M51,81.1c0.1,0.2,0.3,0.3,0.5,0.3c0.1,0,0.1,0,0.2,0c0.3-0.1,0.6-0.3,0.8-0.5c0.2-0.2,0.3-0.5,0.1-0.7
			c-0.2-0.2-0.5-0.3-0.7-0.1c-0.2,0.1-0.4,0.3-0.6,0.4C51,80.5,50.8,80.8,51,81.1z"/>
		<path class="st0" d="M56.1,87.2c-0.9,0.6-1.5,1-1.5,1c-0.2,0.1-0.3,0.4-0.2,0.7c0.1,0.2,0.3,0.3,0.4,0.3c0.1,0,0.2,0,0.2-0.1
			c0,0,0.7-0.4,1.6-1.1c0.2-0.2,0.3-0.5,0.1-0.7C56.6,87.1,56.3,87.1,56.1,87.2z"/>
		<path class="st0" d="M59.4,84.8c-0.3,0.3-0.5,0.6-0.8,0.9c-0.2,0.2-0.2,0.5,0,0.7c0.1,0.1,0.2,0.1,0.4,0.1s0.3,0,0.4-0.1
			c0.3-0.3,0.6-0.6,0.9-1c0.2-0.2,0.1-0.5-0.1-0.7C59.9,84.5,59.6,84.6,59.4,84.8z"/>
		<path class="st0" d="M59.1,87.5c-0.5,0.4-0.8,0.6-0.8,0.6c-0.2,0.1-0.3,0.4-0.2,0.7c0.1,0.2,0.3,0.2,0.4,0.2c0.1,0,0.2,0,0.2-0.1
			c0,0,0.4-0.2,0.9-0.6c0.2-0.2,0.3-0.5,0.1-0.7C59.7,87.3,59.3,87.3,59.1,87.5z"/>
		<path class="st0" d="M55.9,84.9c-0.2,0.1-0.4,0.3-0.7,0.4C55,85.4,54.9,85.7,55,86c0.1,0.2,0.3,0.3,0.5,0.3c0.1,0,0.1,0,0.2,0
			c0.3-0.1,0.6-0.3,0.8-0.5c0.2-0.2,0.3-0.5,0.1-0.7C56.4,84.8,56.1,84.8,55.9,84.9z"/>
		<path class="st0" d="M63.5,88.9c-0.9,0.6-1.5,1-1.5,1c-0.2,0.1-0.3,0.4-0.2,0.7c0.1,0.2,0.3,0.3,0.4,0.3c0.1,0,0.2,0,0.2-0.1
			c0,0,0.7-0.4,1.6-1.1c0.2-0.2,0.3-0.5,0.1-0.7C64,88.8,63.7,88.8,63.5,88.9z"/>
		<path class="st0" d="M66.8,86.5c-0.3,0.3-0.5,0.6-0.8,0.9c-0.2,0.2-0.2,0.5,0,0.7c0.1,0.1,0.2,0.1,0.4,0.1s0.3,0,0.4-0.1
			c0.3-0.3,0.6-0.6,0.9-1c0.2-0.2,0.1-0.5-0.1-0.7C67.3,86.2,67,86.2,66.8,86.5z"/>
		<path class="st0" d="M66.5,89.2c-0.5,0.4-0.8,0.6-0.8,0.6c-0.2,0.1-0.3,0.4-0.2,0.7c0.1,0.2,0.3,0.2,0.4,0.2c0.1,0,0.2,0,0.2-0.1
			c0,0,0.4-0.2,0.9-0.6c0.2-0.2,0.3-0.5,0.1-0.7C67,89,66.7,89,66.5,89.2z"/>
		<path class="st0" d="M62.8,88c0.1,0,0.1,0,0.2,0c0.3-0.1,0.6-0.3,0.8-0.5c0.2-0.2,0.3-0.5,0.1-0.7c-0.2-0.2-0.5-0.3-0.7-0.1
			c-0.2,0.1-0.4,0.3-0.6,0.4c-0.2,0.1-0.4,0.4-0.2,0.7C62.5,87.8,62.7,88,62.8,88z"/>
		<path class="st0" d="M69.9,93.4c-0.9,0.6-1.5,1-1.5,1c-0.2,0.1-0.3,0.4-0.2,0.7c0.1,0.2,0.3,0.3,0.4,0.3c0.1,0,0.2,0,0.2-0.1
			c0,0,0.7-0.4,1.6-1.1c0.2-0.2,0.3-0.5,0.1-0.7C70.4,93.3,70.1,93.2,69.9,93.4z"/>
		<path class="st0" d="M73.3,90.9c-0.3,0.3-0.5,0.6-0.8,0.9c-0.2,0.2-0.2,0.5,0,0.7c0.1,0.1,0.2,0.1,0.4,0.1s0.3,0,0.4-0.1
			c0.3-0.3,0.6-0.6,0.9-1c0.2-0.2,0.1-0.5-0.1-0.7C73.7,90.7,73.4,90.7,73.3,90.9z"/>
		<path class="st0" d="M72.9,93.6c-0.5,0.4-0.8,0.6-0.8,0.6c-0.2,0.1-0.3,0.4-0.2,0.7c0.1,0.2,0.3,0.2,0.4,0.2c0.1,0,0.2,0,0.2-0.1
			c0,0,0.4-0.2,0.9-0.6c0.2-0.2,0.3-0.5,0.1-0.7C73.5,93.5,73.2,93.5,72.9,93.6z"/>
		<path class="st0" d="M69.3,92.4c0.1,0,0.1,0,0.2,0c0.3-0.1,0.6-0.3,0.8-0.5c0.2-0.2,0.3-0.5,0.1-0.7c-0.2-0.2-0.5-0.3-0.7-0.1
			c-0.2,0.1-0.4,0.3-0.6,0.4c-0.2,0.1-0.4,0.4-0.2,0.7C68.9,92.3,69.1,92.4,69.3,92.4z"/>
		<path class="st0" d="M76.8,95.4c-0.9,0.6-1.5,1-1.5,1c-0.2,0.1-0.3,0.4-0.2,0.7c0.1,0.2,0.3,0.3,0.4,0.3c0.1,0,0.2,0,0.2-0.1
			c0,0,0.7-0.4,1.6-1.1c0.2-0.2,0.3-0.5,0.1-0.7C77.3,95.3,77,95.2,76.8,95.4z"/>
		<path class="st0" d="M80.9,92.8c-0.2-0.2-0.5-0.1-0.7,0.1c-0.3,0.3-0.5,0.6-0.8,0.9c-0.2,0.2-0.2,0.5,0,0.7
			c0.1,0.1,0.2,0.1,0.4,0.1s0.3,0,0.4-0.1c0.3-0.3,0.6-0.6,0.9-1C81.1,93.3,81.1,93,80.9,92.8z"/>
		<path class="st0" d="M79.9,95.6C79.4,96,79,96.2,79,96.2c-0.2,0.1-0.3,0.4-0.2,0.7c0.1,0.2,0.3,0.2,0.4,0.2c0.1,0,0.2,0,0.2-0.1
			c0,0,0.4-0.2,0.9-0.6c0.2-0.2,0.3-0.5,0.1-0.7C80.4,95.5,80.1,95.4,79.9,95.6z"/>
		<path class="st0" d="M76.2,94.4c0.1,0,0.1,0,0.2,0c0.3-0.1,0.6-0.3,0.8-0.5c0.2-0.2,0.3-0.5,0.1-0.7c-0.2-0.2-0.5-0.3-0.7-0.1
			c-0.2,0.2-0.4,0.3-0.7,0.4c-0.2,0.1-0.4,0.4-0.2,0.7C75.8,94.3,76,94.4,76.2,94.4z"/>
		<path class="st0" d="M82.8,100.3c-0.9,0.6-1.5,1-1.5,1c-0.2,0.1-0.3,0.4-0.2,0.7c0.1,0.2,0.3,0.3,0.4,0.3c0.1,0,0.2,0,0.2-0.1
			c0,0,0.7-0.4,1.6-1.1c0.2-0.2,0.3-0.5,0.1-0.7C83.4,100.2,83,100.1,82.8,100.3z"/>
		<path class="st0" d="M85.7,99.5c0.1,0,0.3,0,0.4-0.1c0.3-0.3,0.6-0.6,0.9-1c0.2-0.2,0.1-0.5-0.1-0.7c-0.2-0.2-0.5-0.1-0.7,0.1
			c-0.3,0.3-0.5,0.6-0.8,0.9c-0.2,0.2-0.2,0.5,0,0.7C85.5,99.5,85.6,99.5,85.7,99.5z"/>
		<path class="st0" d="M85.3,102c0.1,0,0.2,0,0.2-0.1c0,0,0.4-0.2,0.9-0.6c0.2-0.2,0.3-0.5,0.1-0.7c-0.2-0.2-0.5-0.3-0.7-0.1
			c-0.5,0.4-0.8,0.6-0.8,0.6c-0.2,0.1-0.3,0.4-0.2,0.7C85,101.9,85.1,102,85.3,102z"/>
		<path class="st0" d="M82.2,99.3c0.1,0,0.1,0,0.2,0c0.3-0.1,0.6-0.3,0.8-0.5c0.2-0.2,0.3-0.5,0.1-0.7c-0.2-0.2-0.5-0.3-0.7-0.1
			c-0.2,0.1-0.4,0.3-0.6,0.4c-0.2,0.1-0.4,0.4-0.2,0.7C81.8,99.2,82,99.3,82.2,99.3z"/>
		<path class="st0" d="M88.4,106.9c0.1,0,0.2,0,0.2-0.1c0,0,0.7-0.4,1.6-1.1c0.2-0.2,0.3-0.5,0.1-0.7c-0.2-0.2-0.5-0.3-0.7-0.1
			c-0.9,0.6-1.5,1-1.5,1c-0.2,0.1-0.3,0.4-0.2,0.7C88.1,106.8,88.3,106.9,88.4,106.9z"/>
		<path class="st0" d="M92.6,104.2c0.1,0,0.3,0,0.4-0.1c0.3-0.3,0.6-0.6,0.9-1c0.2-0.2,0.1-0.5-0.1-0.7c-0.2-0.2-0.5-0.1-0.7,0.1
			c-0.3,0.3-0.5,0.6-0.8,0.9c-0.2,0.2-0.2,0.5,0,0.7C92.4,104.1,92.5,104.2,92.6,104.2z"/>
		<path class="st0" d="M92.2,106.6c0.1,0,0.2,0,0.2-0.1c0,0,0.4-0.2,0.9-0.6c0.2-0.2,0.3-0.5,0.1-0.7c-0.2-0.2-0.5-0.3-0.7-0.1
			c-0.5,0.4-0.8,0.6-0.8,0.6c-0.2,0.1-0.3,0.4-0.2,0.7C91.8,106.5,92,106.6,92.2,106.6z"/>
		<path class="st0" d="M89.1,103.9c0.1,0,0.1,0,0.2,0c0.3-0.1,0.6-0.3,0.8-0.5c0.2-0.2,0.3-0.5,0.1-0.7c-0.2-0.2-0.5-0.3-0.7-0.1
			c-0.2,0.1-0.4,0.3-0.6,0.4c-0.2,0.1-0.4,0.4-0.2,0.7C88.7,103.8,88.9,103.9,89.1,103.9z"/>
		<path class="st0" d="M92.5,113.8c-0.2-0.2-0.5-0.3-0.7-0.1c-0.9,0.6-1.5,1-1.5,1c-0.2,0.1-0.3,0.4-0.2,0.7
			c0.1,0.2,0.3,0.3,0.4,0.3c0.1,0,0.2,0,0.2-0.1c0,0,0.7-0.4,1.6-1.1C92.6,114.4,92.7,114,92.5,113.8z"/>
		<path class="st0" d="M94.7,113c0.1,0,0.3,0,0.4-0.1c0.3-0.3,0.6-0.6,0.9-1c0.2-0.2,0.1-0.5-0.1-0.7c-0.2-0.2-0.5-0.1-0.7,0.1
			c-0.3,0.3-0.5,0.6-0.8,0.9c-0.2,0.2-0.2,0.5,0,0.7C94.5,112.9,94.6,113,94.7,113z"/>
		<path class="st0" d="M93.9,115.2c0.1,0.2,0.3,0.2,0.4,0.2c0.1,0,0.2,0,0.2-0.1c0,0,0.4-0.2,0.9-0.6c0.2-0.2,0.3-0.5,0.1-0.7
			c-0.2-0.2-0.5-0.3-0.7-0.1c-0.5,0.4-0.8,0.6-0.8,0.6C93.8,114.7,93.7,115,93.9,115.2z"/>
		<path class="st0" d="M91.2,112.7c0.1,0,0.1,0,0.2,0c0.3-0.1,0.6-0.3,0.8-0.5c0.2-0.2,0.3-0.5,0.1-0.7c-0.2-0.2-0.5-0.3-0.7-0.1
			c-0.2,0.1-0.4,0.3-0.6,0.4c-0.2,0.1-0.4,0.4-0.2,0.7C90.8,112.6,91,112.7,91.2,112.7z"/>
		<path class="st0" d="M99.8,108.4c0.1,0,0.2,0,0.2-0.1c0,0,0.7-0.4,1.6-1.1c0.2-0.2,0.3-0.5,0.1-0.7c-0.2-0.2-0.5-0.3-0.7-0.1
			c-0.9,0.6-1.5,1-1.5,1c-0.2,0.1-0.3,0.4-0.2,0.7C99.5,108.4,99.6,108.4,99.8,108.4z"/>
		<path class="st0" d="M104,105.8c0.1,0,0.3,0,0.4-0.1c0.3-0.3,0.6-0.6,0.9-1c0.2-0.2,0.1-0.5-0.1-0.7c-0.2-0.2-0.5-0.1-0.7,0.1
			c-0.3,0.3-0.5,0.6-0.8,0.9c-0.2,0.2-0.2,0.5,0,0.7C103.8,105.7,103.9,105.8,104,105.8z"/>
		<path class="st0" d="M103.6,108.2c0.1,0,0.2,0,0.2-0.1c0,0,0.4-0.2,0.9-0.6c0.2-0.2,0.3-0.5,0.1-0.7c-0.2-0.2-0.5-0.3-0.7-0.1
			c-0.5,0.4-0.8,0.6-0.8,0.6c-0.2,0.1-0.3,0.4-0.2,0.7C103.2,108.1,103.4,108.2,103.6,108.2z"/>
		<path class="st0" d="M100.5,105.5c0.1,0,0.1,0,0.2,0c0.3-0.1,0.6-0.3,0.8-0.5c0.2-0.2,0.3-0.5,0.1-0.7c-0.2-0.2-0.5-0.3-0.7-0.1
			c-0.2,0.2-0.4,0.3-0.7,0.4c-0.2,0.1-0.4,0.4-0.2,0.7C100.1,105.4,100.3,105.5,100.5,105.5z"/>
		<path class="st0" d="M99.8,116.6c0.1,0,0.2,0,0.2-0.1c0,0,0.7-0.4,1.6-1.1c0.2-0.2,0.3-0.5,0.1-0.7c-0.2-0.2-0.5-0.3-0.7-0.1
			c-0.9,0.6-1.5,1-1.5,1c-0.2,0.1-0.3,0.4-0.2,0.7C99.5,116.6,99.6,116.6,99.8,116.6z"/>
		<path class="st0" d="M104.5,112.2c-0.3,0.3-0.5,0.6-0.8,0.9c-0.2,0.2-0.2,0.5,0,0.7c0.1,0.1,0.2,0.1,0.4,0.1s0.3,0,0.4-0.1
			c0.3-0.3,0.6-0.6,0.9-1c0.2-0.2,0.1-0.5-0.1-0.7C105,112,104.6,112,104.5,112.2z"/>
		<path class="st0" d="M103.6,116.4c0.1,0,0.2,0,0.2-0.1c0,0,0.4-0.2,0.9-0.6c0.2-0.2,0.3-0.5,0.1-0.7c-0.2-0.2-0.5-0.3-0.7-0.1
			c-0.5,0.4-0.8,0.6-0.8,0.6c-0.2,0.1-0.3,0.4-0.2,0.7C103.2,116.3,103.4,116.4,103.6,116.4z"/>
		<path class="st0" d="M100.9,112.4c-0.2,0.1-0.4,0.3-0.6,0.4c-0.2,0.1-0.4,0.4-0.2,0.7c0.1,0.2,0.3,0.3,0.5,0.3c0.1,0,0.1,0,0.2,0
			c0.3-0.1,0.6-0.3,0.8-0.5c0.2-0.2,0.3-0.5,0.1-0.7C101.5,112.2,101.1,112.2,100.9,112.4z"/>
		<path class="st0" d="M108.9,111.1c0.1,0,0.2,0,0.2-0.1c0,0,0.7-0.4,1.6-1.1c0.2-0.2,0.3-0.5,0.1-0.7c-0.2-0.2-0.5-0.3-0.7-0.1
			c-0.9,0.6-1.5,1-1.5,1c-0.2,0.1-0.3,0.4-0.2,0.7C108.5,111,108.7,111.1,108.9,111.1z"/>
		<path class="st0" d="M112.7,108.2c0.1,0.1,0.2,0.1,0.4,0.1s0.3,0,0.4-0.1c0.3-0.3,0.6-0.6,0.9-1c0.2-0.2,0.1-0.5-0.1-0.7
			c-0.2-0.2-0.5-0.1-0.7,0.1c-0.3,0.3-0.5,0.6-0.8,0.9C112.5,107.7,112.5,108,112.7,108.2z"/>
		<path class="st0" d="M113.2,109.3c-0.5,0.4-0.8,0.6-0.8,0.6c-0.2,0.1-0.3,0.4-0.2,0.7c0.1,0.2,0.3,0.2,0.4,0.2
			c0.1,0,0.2,0,0.2-0.1c0,0,0.4-0.2,0.9-0.6c0.2-0.2,0.3-0.5,0.1-0.7C113.7,109.2,113.4,109.2,113.2,109.3z"/>
		<path class="st0" d="M109.5,108.1c0.1,0,0.1,0,0.2,0c0.3-0.1,0.6-0.3,0.8-0.5c0.2-0.2,0.3-0.5,0.1-0.7c-0.2-0.2-0.5-0.3-0.7-0.1
			c-0.2,0.1-0.4,0.3-0.7,0.4c-0.2,0.1-0.4,0.4-0.2,0.7C109.2,108,109.4,108.1,109.5,108.1z"/>
		<path class="st0" d="M119.4,111.8c0.1,0,0.2,0,0.2-0.1c0,0,0.7-0.4,1.6-1.1c0.2-0.2,0.3-0.5,0.1-0.7c-0.2-0.2-0.5-0.3-0.7-0.1
			c-0.9,0.6-1.5,1-1.5,1c-0.2,0.1-0.3,0.4-0.2,0.7C119.1,111.7,119.2,111.8,119.4,111.8z"/>
		<path class="st0" d="M123.6,109.1c0.1,0,0.3,0,0.4-0.1c0.3-0.3,0.6-0.6,0.9-1c0.2-0.2,0.1-0.5-0.1-0.7c-0.2-0.2-0.5-0.1-0.7,0.1
			c-0.3,0.3-0.5,0.6-0.8,0.9c-0.2,0.2-0.2,0.5,0,0.7C123.3,109.1,123.5,109.1,123.6,109.1z"/>
		<path class="st0" d="M123.1,111.6c0.1,0,0.2,0,0.2-0.1c0,0,0.4-0.2,0.9-0.6c0.2-0.2,0.3-0.5,0.1-0.7c-0.2-0.2-0.5-0.3-0.7-0.1
			c-0.5,0.4-0.8,0.6-0.8,0.6c-0.2,0.1-0.3,0.4-0.2,0.7C122.8,111.5,123,111.6,123.1,111.6z"/>
		<path class="st0" d="M120.1,108.9c0.1,0,0.1,0,0.2,0c0.3-0.1,0.6-0.3,0.8-0.5c0.2-0.2,0.3-0.5,0.1-0.7c-0.2-0.2-0.5-0.3-0.7-0.1
			c-0.2,0.1-0.4,0.3-0.6,0.4c-0.2,0.1-0.4,0.4-0.2,0.7C119.7,108.8,119.9,108.9,120.1,108.9z"/>
		<path class="st0" d="M129.4,112.9c0.1,0,0.2,0,0.2-0.1c0,0,0.7-0.4,1.6-1.1c0.2-0.2,0.3-0.5,0.1-0.7c-0.2-0.2-0.5-0.3-0.7-0.1
			c-0.9,0.6-1.5,1-1.5,1c-0.2,0.1-0.3,0.4-0.2,0.7C129.1,112.8,129.3,112.9,129.4,112.9z"/>
		<path class="st0" d="M133.6,110.2c0.1,0,0.3,0,0.4-0.1c0.3-0.3,0.6-0.6,0.9-1c0.2-0.2,0.1-0.5-0.1-0.7c-0.2-0.2-0.5-0.1-0.7,0.1
			c-0.3,0.3-0.5,0.6-0.8,0.9c-0.2,0.2-0.2,0.5,0,0.7C133.4,110.1,133.5,110.2,133.6,110.2z"/>
		<path class="st0" d="M133.2,112.7c0.1,0,0.2,0,0.2-0.1c0,0,0.4-0.2,0.9-0.6c0.2-0.2,0.3-0.5,0.1-0.7c-0.2-0.2-0.5-0.3-0.7-0.1
			c-0.5,0.4-0.8,0.6-0.8,0.6c-0.2,0.1-0.3,0.4-0.2,0.7C132.8,112.6,133,112.7,133.2,112.7z"/>
		<path class="st0" d="M130.1,109.9c0.1,0,0.1,0,0.2,0c0.3-0.1,0.6-0.3,0.8-0.5c0.2-0.2,0.3-0.5,0.1-0.7c-0.2-0.2-0.5-0.3-0.7-0.1
			c-0.2,0.1-0.4,0.3-0.7,0.4c-0.2,0.1-0.4,0.4-0.2,0.7C129.7,109.8,129.9,109.9,130.1,109.9z"/>
		<path class="st0" d="M111.8,117c-0.9,0.6-1.5,1-1.5,1c-0.2,0.1-0.3,0.4-0.2,0.7c0.1,0.2,0.3,0.3,0.4,0.3c0.1,0,0.2,0,0.2-0.1
			c0,0,0.7-0.4,1.6-1.1c0.2-0.2,0.3-0.5,0.1-0.7C112.4,116.8,112.1,116.8,111.8,117z"/>
		<path class="st0" d="M115.2,114.5c-0.3,0.3-0.5,0.6-0.8,0.9c-0.2,0.2-0.2,0.5,0,0.7c0.1,0.1,0.2,0.1,0.4,0.1s0.3,0,0.4-0.1
			c0.3-0.3,0.6-0.6,0.9-1c0.2-0.2,0.1-0.5-0.1-0.7C115.7,114.2,115.4,114.3,115.2,114.5z"/>
		<path class="st0" d="M111.2,116c0.1,0,0.1,0,0.2,0c0.3-0.1,0.6-0.3,0.8-0.5c0.2-0.2,0.3-0.5,0.1-0.7c-0.2-0.2-0.5-0.3-0.7-0.1
			c-0.2,0.1-0.4,0.3-0.6,0.4c-0.2,0.1-0.4,0.4-0.2,0.7C110.8,115.9,111,116,111.2,116z"/>
		<path class="st0" d="M110.6,103.5c0.1,0,0.2,0,0.2-0.1c0,0,0.7-0.4,1.6-1.1c0.2-0.2,0.3-0.5,0.1-0.7c-0.2-0.2-0.5-0.3-0.7-0.1
			c-0.9,0.6-1.5,1-1.5,1c-0.2,0.1-0.3,0.4-0.2,0.7C110.2,103.4,110.4,103.5,110.6,103.5z"/>
		<path class="st0" d="M114.7,100.8c0.1,0,0.3,0,0.4-0.1c0.3-0.3,0.6-0.6,0.9-1c0.2-0.2,0.1-0.5-0.1-0.7c-0.2-0.2-0.5-0.1-0.7,0.1
			c-0.3,0.3-0.5,0.6-0.8,0.9c-0.2,0.2-0.2,0.5,0,0.7C114.5,100.8,114.6,100.8,114.7,100.8z"/>
		<path class="st0" d="M114.3,103.3c0.1,0,0.2,0,0.2-0.1c0,0,0.4-0.2,0.9-0.6c0.2-0.2,0.3-0.5,0.1-0.7c-0.2-0.2-0.5-0.3-0.7-0.1
			c-0.5,0.4-0.8,0.6-0.8,0.6c-0.2,0.1-0.3,0.4-0.2,0.7C114,103.2,114.1,103.3,114.3,103.3z"/>
		<path class="st0" d="M111.2,100.6c0.1,0,0.1,0,0.2,0c0.3-0.1,0.6-0.3,0.8-0.5c0.2-0.2,0.3-0.5,0.1-0.7c-0.2-0.2-0.5-0.3-0.7-0.1
			c-0.2,0.1-0.4,0.3-0.6,0.4c-0.2,0.1-0.4,0.4-0.2,0.7C110.8,100.5,111,100.6,111.2,100.6z"/>
		<path class="st0" d="M145.3,109.8c0.1,0,0.2,0,0.2-0.1c0,0,0.7-0.4,1.6-1.1c0.2-0.2,0.3-0.5,0.1-0.7c-0.2-0.2-0.5-0.3-0.7-0.1
			c-0.9,0.6-1.5,1-1.5,1c-0.2,0.1-0.3,0.4-0.2,0.7C144.9,109.7,145.1,109.8,145.3,109.8z"/>
		<path class="st0" d="M149.5,107.1c0.1,0,0.3,0,0.4-0.1c0.3-0.3,0.6-0.6,0.9-1c0.2-0.2,0.1-0.5-0.1-0.7c-0.2-0.2-0.5-0.1-0.7,0.1
			c-0.3,0.3-0.5,0.6-0.8,0.9c-0.2,0.2-0.2,0.5,0,0.7C149.2,107.1,149.3,107.1,149.5,107.1z"/>
		<path class="st0" d="M149,109.6c0.1,0,0.2,0,0.2-0.1c0,0,0.4-0.2,0.9-0.6c0.2-0.2,0.3-0.5,0.1-0.7c-0.2-0.2-0.5-0.3-0.7-0.1
			c-0.5,0.4-0.8,0.6-0.8,0.6c-0.2,0.1-0.3,0.4-0.2,0.7C148.7,109.5,148.9,109.6,149,109.6z"/>
		<path class="st0" d="M145.9,106.9c0.1,0,0.1,0,0.2,0c0.3-0.1,0.6-0.3,0.8-0.5c0.2-0.2,0.3-0.5,0.1-0.7c-0.2-0.2-0.5-0.3-0.7-0.1
			c-0.2,0.1-0.4,0.3-0.6,0.4c-0.2,0.1-0.4,0.4-0.2,0.7C145.6,106.8,145.7,106.9,145.9,106.9z"/>
		<path class="st0" d="M88,121.3c0.1,0,0.2,0,0.2-0.1c0,0,0.7-0.4,1.6-1.1c0.2-0.2,0.3-0.5,0.1-0.7c-0.2-0.2-0.5-0.3-0.7-0.1
			c-0.9,0.6-1.5,1-1.5,1c-0.2,0.1-0.3,0.4-0.2,0.7C87.7,121.2,87.9,121.3,88,121.3z"/>
		<path class="st0" d="M92.7,116.9c-0.3,0.3-0.5,0.6-0.8,0.9c-0.2,0.2-0.2,0.5,0,0.7c0.1,0.1,0.2,0.1,0.4,0.1s0.3,0,0.4-0.1
			c0.3-0.3,0.6-0.6,0.9-1c0.2-0.2,0.1-0.5-0.1-0.7C93.2,116.6,92.9,116.7,92.7,116.9z"/>
		<path class="st0" d="M92.4,119.6c-0.5,0.4-0.8,0.6-0.8,0.6c-0.2,0.1-0.3,0.4-0.2,0.7c0.1,0.2,0.3,0.2,0.4,0.2c0.1,0,0.2,0,0.2-0.1
			c0,0,0.4-0.2,0.9-0.6c0.2-0.2,0.3-0.5,0.1-0.7C92.9,119.5,92.6,119.4,92.4,119.6z"/>
		<path class="st0" d="M89.1,117c-0.2,0.1-0.4,0.3-0.6,0.4c-0.2,0.1-0.4,0.4-0.2,0.7c0.1,0.2,0.3,0.3,0.5,0.3c0.1,0,0.1,0,0.2,0
			c0.3-0.1,0.6-0.3,0.8-0.5c0.2-0.2,0.3-0.5,0.1-0.7C89.7,116.9,89.4,116.9,89.1,117z"/>
		<path class="st0" d="M82.8,112.7c-0.9,0.6-1.5,1-1.5,1c-0.2,0.1-0.3,0.4-0.2,0.7c0.1,0.2,0.3,0.3,0.4,0.3c0.1,0,0.2,0,0.2-0.1
			c0,0,0.7-0.4,1.6-1.1c0.2-0.2,0.3-0.5,0.1-0.7C83.4,112.6,83,112.6,82.8,112.7z"/>
		<path class="st0" d="M86.2,110.3c-0.3,0.3-0.5,0.6-0.8,0.9c-0.2,0.2-0.2,0.5,0,0.7c0.1,0.1,0.2,0.1,0.4,0.1s0.3,0,0.4-0.1
			c0.3-0.3,0.6-0.6,0.9-1c0.2-0.2,0.1-0.5-0.1-0.7C86.7,110,86.4,110,86.2,110.3z"/>
		<path class="st0" d="M85.3,114.5c0.1,0,0.2,0,0.2-0.1c0,0,0.4-0.2,0.9-0.6c0.2-0.2,0.3-0.5,0.1-0.7c-0.2-0.2-0.5-0.3-0.7-0.1
			c-0.5,0.4-0.8,0.6-0.8,0.6c-0.2,0.1-0.3,0.4-0.2,0.7C85,114.4,85.1,114.5,85.3,114.5z"/>
		<path class="st0" d="M82.2,111.8c0.1,0,0.1,0,0.2,0c0.3-0.1,0.6-0.3,0.8-0.5c0.2-0.2,0.3-0.5,0.1-0.7c-0.2-0.2-0.5-0.3-0.7-0.1
			c-0.2,0.1-0.4,0.3-0.6,0.4c-0.2,0.1-0.4,0.4-0.2,0.7C81.8,111.7,82,111.8,82.2,111.8z"/>
		<path class="st0" d="M129.4,69.8c-0.1-0.1-0.1-0.1-0.2-0.1l-0.3-0.1l-0.3,0.1l-0.1,0.1c-0.2,0.3-0.6,0.6-0.7,0.7
			c-0.2,0.1-0.6,0.2-0.6,0.2c-0.8,0.2-1.3,1-1.2,1.8l0.2,2c0.1,1.1,1,2,2.1,2h0.2c1,0,2-0.9,2.1-2l0.2-1.9c0.1-0.7-0.2-1.9-0.7-2.4
			l-0.1-0.1C129.7,69.8,129.5,69.8,129.4,69.8z"/>
		<path class="st0" d="M158.1,76.8l0.4-0.1l0-0.3c0-0.3-0.2-0.5-0.3-0.6c-0.2-0.2-0.5-0.5-0.7-1.1c-0.4-1.3-1.1-1.3-1.4-1.3
			c-0.2,0-0.4,0-0.6,0.2c0-0.5-0.2-1-0.6-1.4c-0.4-0.4-0.9-0.7-1.5-0.7h-0.3c-0.6,0-1.1,0.2-1.5,0.7c-0.4,0.5-0.6,1.1-0.6,1.8
			l0.1,1.2c0.1,1.1,1,2,2,2h0.2c0.9,0,1.7-0.7,2-1.6c0.1,0.1,0.1,0.2,0.2,0.3C156.2,76.5,157.6,77,158.1,76.8z"/>
		<path class="st0" d="M139.7,84.7c-0.4,0.4-0.6,1-0.5,1.5l0.2,1.1c0.1,1,0.9,1.8,1.9,1.8h0.2c1,0,1.8-0.8,1.9-1.8l0.2-1.1
			c0-0.4-0.1-1-0.5-1.5c-0.3-0.3-0.8-0.7-1.6-0.7C140.5,84,140,84.4,139.7,84.7z"/>
		<path class="st0" d="M14.6,49.7c0,0-1.1,0.9-2.8,0.9c-1.7,0-2.3-0.9-2.4-1c-0.2-0.2-0.5-0.3-0.7-0.1c-0.2,0.2-0.3,0.5-0.1,0.7
			c0,0.1,1,1.4,3.2,1.4c2.2,0,3.4-1.1,3.5-1.1c0.2-0.2,0.2-0.5,0-0.7C15.2,49.5,14.9,49.5,14.6,49.7z"/>
		<path class="st0" d="M46.5,61.4c0.2,0,0.5,0,0.8-0.1c2.2-0.3,3.2-1.6,3.3-1.7c0.2-0.2,0.1-0.5-0.1-0.7c-0.2-0.2-0.5-0.2-0.7,0.1
			c0,0-0.9,1-2.7,1.3c-1.6,0.2-2.4-0.5-2.5-0.6c-0.2-0.2-0.5-0.2-0.7,0c-0.2,0.2-0.2,0.5,0,0.7C43.9,60.5,44.8,61.4,46.5,61.4z"/>
		<path class="st0" d="M46.9,45.2c0.2,0,0.5,0,0.8-0.1c2.2-0.3,3.2-1.6,3.3-1.7c0.2-0.2,0.1-0.5-0.1-0.7c-0.2-0.2-0.5-0.2-0.7,0.1
			c0,0-0.9,1-2.7,1.3c-1.6,0.3-2.4-0.5-2.5-0.6c-0.2-0.2-0.5-0.2-0.7,0c-0.2,0.2-0.2,0.5,0,0.7C44.3,44.3,45.2,45.2,46.9,45.2z"/>
		<path class="st0" d="M21.1,41.8c0.4,0.1,0.7,0.1,1,0.1c0.9,0,1.5-0.3,1.5-0.3c0.2-0.1,0.3-0.4,0.2-0.7c-0.1-0.2-0.4-0.3-0.7-0.2
			c0,0-0.8,0.4-1.8,0.1c-1-0.2-1.2-0.8-1.2-0.9c-0.1-0.3-0.4-0.4-0.6-0.3c-0.3,0.1-0.4,0.4-0.3,0.6C19.2,40.3,19.6,41.4,21.1,41.8z"
			/>
	</g>
</g>
</svg>
