<?xml version="1.0" encoding="utf-8"?>
<!-- Generator: Adobe Illustrator 21.0.2, SVG Export Plug-In . SVG Version: 6.00 Build 0)  -->
<svg version="1.1" id="Слой_1" xmlns="http://www.w3.org/2000/svg" xmlns:xlink="http://www.w3.org/1999/xlink" x="0px" y="0px"
	 viewBox="0 0 194.8 152" style="enable-background:new 0 0 194.8 152;" xml:space="preserve">
<style type="text/css">
	.st0{fill:#161616;}
</style>
<g>
	<g>
		<path class="st0" d="M76.9,119.9c-0.8,0-1.5-0.7-1.5-1.5v-17.9c0-0.8,0.7-1.5,1.5-1.5s1.5,0.7,1.5,1.5v17.9
			C78.4,119.2,77.7,119.9,76.9,119.9z"/>
		<path class="st0" d="M70.9,116.7c-0.8,0-1.5-0.7-1.5-1.5V97.5c0-0.8,0.7-1.5,1.5-1.5s1.5,0.7,1.5,1.5v17.7
			C72.4,116,71.7,116.7,70.9,116.7z"/>
		<path class="st0" d="M64.9,113.4c-0.8,0-1.5-0.7-1.5-1.5V94.5c0-0.8,0.7-1.5,1.5-1.5s1.5,0.7,1.5,1.5v17.5
			C66.4,112.8,65.7,113.4,64.9,113.4z"/>
		<path class="st0" d="M58.9,110.2c-0.8,0-1.5-0.7-1.5-1.5V91.5c0-0.8,0.7-1.5,1.5-1.5s1.5,0.7,1.5,1.5v17.2
			C60.4,109.6,59.7,110.2,58.9,110.2z"/>
		<path class="st0" d="M52.9,107c-0.8,0-1.5-0.7-1.5-1.5v-17c0-0.8,0.7-1.5,1.5-1.5s1.5,0.7,1.5,1.5v17
			C54.4,106.3,53.7,107,52.9,107z"/>
		<path class="st0" d="M46.9,103.8c-0.8,0-1.5-0.7-1.5-1.5V85.5c0-0.8,0.7-1.5,1.5-1.5s1.5,0.7,1.5,1.5v16.8
			C48.4,103.1,47.7,103.8,46.9,103.8z"/>
		<path class="st0" d="M40.9,100.6c-0.8,0-1.5-0.7-1.5-1.5V82.5c0-0.8,0.7-1.5,1.5-1.5s1.5,0.7,1.5,1.5v16.6
			C42.4,99.9,41.7,100.6,40.9,100.6z"/>
		<path class="st0" d="M34.9,97.4c-0.8,0-1.5-0.7-1.5-1.5V79.5c0-0.8,0.7-1.5,1.5-1.5s1.5,0.7,1.5,1.5v16.4
			C36.4,96.7,35.7,97.4,34.9,97.4z"/>
		<path class="st0" d="M28.9,94.1c-0.8,0-1.5-0.7-1.5-1.5V76.5c0-0.8,0.7-1.5,1.5-1.5s1.5,0.7,1.5,1.5v16.2
			C30.4,93.5,29.7,94.1,28.9,94.1z"/>
		<path class="st0" d="M22.9,90.9c-0.8,0-1.5-0.7-1.5-1.5v-16c0-0.8,0.7-1.5,1.5-1.5s1.5,0.7,1.5,1.5v16
			C24.4,90.3,23.7,90.9,22.9,90.9z"/>
		<path class="st0" d="M16.9,87.7c-0.8,0-1.5-0.7-1.5-1.5V70.5c0-0.8,0.7-1.5,1.5-1.5s1.5,0.7,1.5,1.5v15.7
			C18.4,87,17.7,87.7,16.9,87.7z"/>
		<path class="st0" d="M10.9,84.5c-0.8,0-1.5-0.7-1.5-1.5V67.5c0-0.8,0.7-1.5,1.5-1.5s1.5,0.7,1.5,1.5V83
			C12.4,83.8,11.7,84.5,10.9,84.5z"/>
	</g>
	<g>
		<path class="st0" d="M91.9,122c-0.8,0-1.5-0.7-1.5-1.5v-17.9c0-0.8,0.7-1.5,1.5-1.5s1.5,0.7,1.5,1.5v17.9
			C93.4,121.3,92.7,122,91.9,122z"/>
		<path class="st0" d="M100.1,120.1c-0.8,0-1.5-0.7-1.5-1.5v-17.7c0-0.8,0.7-1.5,1.5-1.5s1.5,0.7,1.5,1.5v17.7
			C101.6,119.4,101,120.1,100.1,120.1z"/>
		<path class="st0" d="M108.4,118.1c-0.8,0-1.5-0.7-1.5-1.5V99.2c0-0.8,0.7-1.5,1.5-1.5s1.5,0.7,1.5,1.5v17.5
			C109.9,117.4,109.2,118.1,108.4,118.1z"/>
		<path class="st0" d="M116.6,116.2c-0.8,0-1.5-0.7-1.5-1.5V97.4c0-0.8,0.7-1.5,1.5-1.5s1.5,0.7,1.5,1.5v17.2
			C118.1,115.5,117.5,116.2,116.6,116.2z"/>
		<path class="st0" d="M124.9,114.2c-0.8,0-1.5-0.7-1.5-1.5v-17c0-0.8,0.7-1.5,1.5-1.5s1.5,0.7,1.5,1.5v17
			C126.4,113.5,125.7,114.2,124.9,114.2z"/>
		<path class="st0" d="M133.1,112.3c-0.8,0-1.5-0.7-1.5-1.5V93.9c0-0.8,0.7-1.5,1.5-1.5s1.5,0.7,1.5,1.5v16.8
			C134.6,111.6,133.9,112.3,133.1,112.3z"/>
		<path class="st0" d="M141.4,110.3c-0.8,0-1.5-0.7-1.5-1.5V92.2c0-0.8,0.7-1.5,1.5-1.5s1.5,0.7,1.5,1.5v16.6
			C142.9,109.6,142.2,110.3,141.4,110.3z"/>
		<path class="st0" d="M149.6,108.4c-0.8,0-1.5-0.7-1.5-1.5V90.5c0-0.8,0.7-1.5,1.5-1.5s1.5,0.7,1.5,1.5v16.4
			C151.1,107.7,150.4,108.4,149.6,108.4z"/>
		<path class="st0" d="M157.8,106.4c-0.8,0-1.5-0.7-1.5-1.5V88.7c0-0.8,0.7-1.5,1.5-1.5s1.5,0.7,1.5,1.5v16.2
			C159.3,105.7,158.7,106.4,157.8,106.4z"/>
		<path class="st0" d="M166.1,104.5c-0.8,0-1.5-0.7-1.5-1.5V87c0-0.8,0.7-1.5,1.5-1.5s1.5,0.7,1.5,1.5v16
			C167.6,103.8,166.9,104.5,166.1,104.5z"/>
		<path class="st0" d="M174.3,102.5c-0.8,0-1.5-0.7-1.5-1.5V85.3c0-0.8,0.7-1.5,1.5-1.5s1.5,0.7,1.5,1.5V101
			C175.8,101.8,175.2,102.5,174.3,102.5z"/>
		<path class="st0" d="M182.6,100.6c-0.8,0-1.5-0.7-1.5-1.5V83.5c0-0.8,0.7-1.5,1.5-1.5s1.5,0.7,1.5,1.5v15.5
			C184.1,99.9,183.4,100.6,182.6,100.6z"/>
	</g>
</g>
<g>
	<path class="st0" d="M122.4,60.2l-9.7,2.2c-0.2,0.1-0.4,0.3-0.4,0.5v13.1c0,0.2,0.1,0.3,0.2,0.4c0.1,0.1,0.2,0.1,0.3,0.1
		c0,0,0.1,0,0.1,0l9.7-2c0.2,0,0.4-0.3,0.4-0.5V60.7c0-0.2-0.1-0.3-0.2-0.4C122.7,60.2,122.5,60.2,122.4,60.2z M113.3,63.3l3.8-0.9
		v12.1l-3.8,0.8V63.3z M122,73.5l-3.8,0.8V62.2l3.8-0.9V73.5z"/>
	<path class="st0" d="M110.5,78.6c0.1,0.1,0.2,0.1,0.3,0.1c0,0,0.1,0,0.1,0l13.3-2.9c0.2,0,0.4-0.3,0.4-0.5V58.2
		c0-0.2-0.1-0.3-0.2-0.4c-0.1-0.1-0.3-0.1-0.4-0.1l-13.3,3.1c-0.2,0.1-0.4,0.3-0.4,0.5v16.9C110.3,78.3,110.4,78.5,110.5,78.6z
		 M111.3,61.7l12.3-2.9v16.1l-12.3,2.7V61.7z"/>
	<path class="st0" d="M91,62.4l-4.1-1.9c0,0,0,0,0,0l-4.4-2c-0.2-0.1-0.3-0.1-0.5,0s-0.2,0.2-0.2,0.4v13.2c0,0.2,0.1,0.4,0.3,0.5
		l8.4,3.7c0.1,0,0.1,0,0.2,0c0.1,0,0.2,0,0.3-0.1c0.1-0.1,0.2-0.2,0.2-0.4V62.9C91.3,62.7,91.1,62.5,91,62.4z M90.3,68.9l-3.1-1.5
		v-5.6l3.1,1.4V68.9z M82.8,59.8l3.4,1.6v5.9c0,0-0.1,0.1-0.1,0.1c-0.1,0.2,0,0.4,0.1,0.6v5.5l-3.4-1.5V59.8z M87.2,73.8v-5.4
		l3.1,1.5v5.2L87.2,73.8z"/>
	<path class="st0" d="M80.7,74l11.6,5.6c0.1,0,0.1,0,0.2,0c0.1,0,0.2,0,0.3-0.1c0.1-0.1,0.2-0.3,0.2-0.4V61.3c0-0.2-0.1-0.4-0.3-0.5
		l-11.6-5.3c-0.2-0.1-0.3-0.1-0.5,0c-0.1,0.1-0.2,0.3-0.2,0.4v17.6C80.4,73.7,80.5,73.9,80.7,74z M81.4,56.8L92,61.6v16.7l-10.6-5.1
		V56.8z"/>
	<path class="st0" d="M76.1,56.1l-8.4-3.9c-0.2-0.1-0.3-0.1-0.5,0c-0.1,0.1-0.2,0.2-0.2,0.4v13.2c0,0.2,0.1,0.4,0.3,0.5l8.4,3.7
		c0.1,0,0.1,0,0.2,0c0.1,0,0.2,0,0.3-0.1c0.1-0.1,0.2-0.2,0.2-0.4V56.6C76.4,56.4,76.3,56.2,76.1,56.1z M75.4,62.5l-3.2-1.6v-5.4
		l3.2,1.5V62.5z M68,53.5l3.2,1.5V67L68,65.6V53.5z M72.2,67.5V62l3.2,1.6v5.3L72.2,67.5z"/>
	<path class="st0" d="M65.9,67.7l11.6,5.6c0.1,0,0.1,0,0.2,0c0.1,0,0.2,0,0.3-0.1c0.1-0.1,0.2-0.3,0.2-0.4V55c0-0.2-0.1-0.4-0.3-0.5
		l-11.6-5.3c-0.2-0.1-0.3-0.1-0.5,0s-0.2,0.3-0.2,0.4v17.6C65.6,67.5,65.7,67.6,65.9,67.7z M66.6,50.5l10.6,4.8V72L66.6,67V50.5z"/>
	<path class="st0" d="M74.4,44.6l8.4,3.7c0.1,0,0.1,0,0.2,0c0.1,0,0.2,0,0.3-0.1c0.1-0.1,0.2-0.2,0.2-0.4V34.8
		c0-0.2-0.1-0.4-0.3-0.5L79,32.4c0,0,0,0,0,0l-4.2-1.9c-0.2-0.1-0.3-0.1-0.5,0s-0.2,0.2-0.2,0.4v13.2C74.1,44.3,74.2,44.5,74.4,44.6
		z M82.5,47.1l-3.2-1.4v-12l3.2,1.5V47.1z M75.1,31.7l3.2,1.5v12.1l-3.2-1.4V31.7z"/>
	<path class="st0" d="M195.2,100.5C195.2,100.5,195.2,100.5,195.2,100.5c0-0.2,0-0.2-0.1-0.3c0,0,0-0.1,0-0.1c0-0.1-0.1-0.1-0.1-0.2
		c0,0,0-0.1-0.1-0.1c-0.1-0.1-0.2-0.2-0.3-0.2l-19.4-9.7l9.5-2.2c0.5-0.1,0.9-0.7,0.7-1.2c-0.1-0.5-0.7-0.9-1.2-0.7l-11.8,2.8
		l-11.8-5.9v-2.9c0-0.2-0.2-0.4-0.4-0.5l-1.3-0.3V46.5l4.9-0.8c0.2,0,0.4-0.1,0.6-0.3l1.9-2c0.1-0.1,0.1-0.2,0.2-0.3
		c0.1-0.1,0.2-0.2,0.3-0.4c0.1-0.3,0.1-0.7-0.1-1L140.2,4.9c-0.2-0.3-0.5-0.5-0.9-0.4l-13.1,1.2V4.8c0-0.4-0.3-0.8-0.7-0.9l-7.5-2.8
		C118,1,117.9,1,117.8,1h-7.5c-0.6,0-1,0.4-1,1v5.3l-22,2c0,0-0.1,0-0.1,0l-10.9,1c0,0,0,0,0,0c-0.1,0-0.2,0-0.3,0.1c0,0,0,0-0.1,0
		c-0.1,0.1-0.2,0.1-0.2,0.2c0,0,0,0-0.1,0.1c0,0,0,0-0.1,0.1L57.6,39.6c-0.2,0.4-0.2,0.9,0.1,1.2L60,43c0.2,0.2,0.5,0.3,0.8,0.3
		c0.3,0,0.6-0.2,0.7-0.4l0.4-0.6v28l-37.5,7.1L9.4,69.8c-0.5-0.3-1.1-0.1-1.3,0.4c-0.3,0.5-0.1,1.1,0.4,1.3l12.7,6.5l-10,1.9
		l-1.8-0.9C9,78.8,8.3,79,8.1,79.5c-0.2,0.4-0.1,0.8,0.1,1.1l-6.6,1.3c0,0-0.1,0-0.1,0c0,0,0,0-0.1,0c0,0,0,0-0.1,0
		c-0.1,0-0.2,0.1-0.2,0.1c0,0-0.1,0-0.1,0.1C1,82.2,1,82.2,0.9,82.4c0,0,0,0,0,0.1c0,0.1-0.1,0.1-0.1,0.2c0,0,0,0,0,0.1
		c0,0,0,0.1,0,0.1c0,0.1,0,0.2,0,0.3c0,0,0,0,0,0.1c0.5,1.5,0.2,9.6-0.1,14.4c0,0.4,0.2,0.8,0.5,0.9l3.5,1.9c0.1,0.5,0.1,1.2,0.1,2
		c0,0,0,0,0,0c-0.1,0.2-0.1,0.3,0,0.5c-0.1,1.8-0.3,3.9-0.6,5.3c-0.1,0.4,0.1,0.8,0.5,1l79.9,43.7c0.1,0.1,0.3,0.1,0.5,0.1
		c0.1,0,0.2,0,0.2,0l105.3-26.7c0.5-0.1,0.8-0.5,0.8-1c0,0-0.2-4.5,0-8.4l2.9-0.7c0.5-0.1,0.8-0.5,0.8-1
		C195.2,115.1,195,104.8,195.2,100.5z M179.1,118l14-14c0,2,0,4.2,0,6.1l-5.8,5.8L179.1,118z M189.5,121.8L85.9,148l0-1.4
		l103.6-26.2C189.5,120.9,189.5,121.4,189.5,121.8z M6.9,104l78,42.7l0,1.3L6.8,105.2C6.9,104.8,6.9,104.4,6.9,104z M23.3,95.7
		l-8.1,8.1l-6-3.3l8.1-8.1L23.3,95.7z M24.2,96.2l6,3.3l-8.1,8.1l-6-3.3L24.2,96.2z M31.1,100l6.7,3.7l-8.1,8.1L23,108L31.1,100z
		 M38.7,104.1l6.7,3.7l-8.1,8.1l-6.7-3.7L38.7,104.1z M46.3,108.3l6,3.3l-8.1,8.1l-6-3.3L46.3,108.3z M53.3,112.1l6,3.3l-8.1,8.1
		l-6-3.3L53.3,112.1z M60.2,115.9l6,3.3l-8.1,8.1l-6-3.3L60.2,115.9z M67.1,119.7l6,3.3l-8.1,8.1l-6-3.3L67.1,119.7z M74,123.5
		l6,3.3l-8.1,8.1l-6-3.3L74,123.5z M81,127.2l3.3,1.8v4.2l-5.4,5.4l-6-3.3L81,127.2z M85.3,141.8v-4.9l10.4-10.4l8.1-2.1l-17,17
		L85.3,141.8z M85.3,135.5v-6.4l8.5-2.2L85.3,135.5z M84.3,134.7v1.8c-0.1,0.2-0.1,0.4,0,0.6v4.4l-4.4-2.4L84.3,134.7z M105.7,123.9
		l8.2-2.1l-17,17l-8.2,2.1L105.7,123.9z M115.8,121.4l8.1-2.1l-17,17l-8.1,2.1L115.8,121.4z M125.8,118.8l8.2-2.1l-17,17l-8.2,2.1
		L125.8,118.8z M135.9,116.3l8.1-2.1l-17,17l-8.1,2.1L135.9,116.3z M145.9,113.7l8.2-2.1l-17,17l-8.2,2.1L145.9,113.7z M156,111.2
		l8.1-2.1l-17,17l-8.1,2.1L156,111.2z M166,108.6l8.2-2.1l-17,17l-8.2,2.1L166,108.6z M176,106.1l8.1-2.1l-17,17l-8.1,2.1L176,106.1
		z M186.1,103.6l7-1.8c0,0.3,0,0.6,0,0.8l-15.9,15.9l-8.2,2.1L186.1,103.6z M142.3,87.4l-2.3-1.1l15.2-3.8l2.3,1.1L142.3,87.4z
		 M158.4,84.3v2.2l-15.7,4v-2.2L158.4,84.3z M139.1,89v-2.1l2.7,1.3v2.1L139.1,89z M159.6,82.7c-0.2,0.1-0.3,0.2-0.4,0.4
		c0,0.1,0,0.1-0.1,0.2c0,0,0,0,0,0l-3.7-1.8c0,0,0,0-0.1,0c0,0-0.1,0-0.1,0c0,0-0.1,0-0.1,0c0,0,0,0-0.1,0l-16.7,4.2c0,0,0,0,0,0
		c0,0,0,0-0.1,0c0,0-0.1,0-0.1,0.1c0,0,0,0,0,0c0,0-0.1,0.1-0.1,0.1c0,0,0,0,0,0c0,0,0,0,0,0c0,0,0,0.1,0,0.1c0,0,0,0,0,0.1
		c0,0,0,0,0,0v3.1L97.3,99.9L60.8,82.1v-3.3l1.4-0.5c0.1,0,0.1,0.1,0.2,0.1l34.4,16.6c0,0,0,0,0,0C97,95,97.1,95,97.3,95
		c0,0,0,0,0,0c0,0,0,0,0,0c0,0,0,0,0,0c0.1,0,0.2,0,0.2,0l60.6-14.8c0.2,0,0.4-0.2,0.5-0.3l0.9,0.2V82.7z M80.1,11.9l23.1,40.5
		l-2.7,0.5L78,12.1L80.1,11.9z M87.6,11.2l22.8,39.9l-6.1,1.1L81.2,11.8L87.6,11.2z M96.4,10.4l22.9,39.1l-7.9,1.4L88.7,11.1
		L96.4,10.4z M104.9,9.7L129,47.8l-8.6,1.5l-22.9-39L104.9,9.7z M134,7l23.8,35.7l-8.4,1.5l-23-36.5L134,7z M139,46.1l-12.8-21.6
		c0.1-0.1,0.1-0.3,0.1-0.5V9.3l22.1,35.1L139,46.1z M124.3,5.5V23l-6,0.7v-18l5.7-0.3L124.3,5.5z M117.6,3l4,1.5l-3.7,0.2l-4-1.7
		H117.6z M117.3,5.5V23l-6-8.2V3h0.1L117.3,5.5z M116.5,25.4c0.2,0.3,0.5,0.4,0.8,0.4c0,0,0.1,0,0.1,0l7.8-0.9l12.6,21.3l-7.8,1.4
		l-17.5-27.7L116.5,25.4z M151,79.9l-0.5,0.1V53.9c0-0.2-0.1-0.3-0.2-0.4c-0.1-0.1-0.3-0.1-0.4-0.1l-10.9,2.3
		c-0.2,0-0.4,0.3-0.4,0.5v26.7l-1.8,0.4V53.9l14.1-3V79.9z M149.5,80.3l-9.9,2.4V56.6l9.9-2.1V80.3z M156.9,78.5l-4.9,1.2V50.3
		c0-0.2-0.1-0.3-0.2-0.4c-0.1-0.1-0.3-0.1-0.4-0.1L136.3,53c-0.2,0-0.4,0.3-0.4,0.5v30.1l-37.6,9.2V57.1l58.6-10.2V78.5z M164,41.6
		l-5.1,0.9L135.1,6.9l3.8-0.3L164,41.6z M109.3,14.8L106,9.6l3.3-0.3V14.8z M60.5,40.7L59.7,40l16.6-26.7l22.4,40.6l-0.8,0.8
		l-20.5-37c-0.2-0.3-0.5-0.5-0.8-0.5c0,0,0,0,0,0c-0.3,0-0.7,0.2-0.8,0.5L60.5,40.7z M84.3,34v16.2l-10.6-5.1V28.7l10.2,4.7L84.3,34
		z M76.5,20l6.6,11.9l-9.7-4.4c-0.2-0.1-0.3-0.1-0.5,0c-0.1,0.1-0.2,0.3-0.2,0.4v17.6c0,0.2,0.1,0.4,0.3,0.5l11.6,5.6
		c0.1,0,0.1,0,0.2,0c0.1,0,0.2,0,0.3-0.1c0.1-0.1,0.2-0.3,0.2-0.4V35.9l11,19.9v36.7L63.9,76.8V39.2L76.5,20z M10.9,82.1l71,37.2
		c0.1,0.1,0.3,0.1,0.5,0.1c0.4,0,0.7-0.2,0.9-0.5c0.3-0.5,0.1-1.1-0.4-1.3l-68.7-36l10-1.9l57.8,29.8c0.1,0.1,0.3,0.1,0.5,0.1
		c0.4,0,0.7-0.2,0.9-0.5c0.3-0.5,0.1-1.1-0.4-1.3L27.3,79l11.6-2.2c0,0-0.1,0.1-0.1,0.1c-0.2,0.1-0.4,0.4-0.2,0.7
		c0.1,0.2,0.3,0.3,0.5,0.3c0.1,0,0.1,0,0.2,0c0.3-0.1,0.6-0.3,0.8-0.5c0.2-0.2,0.3-0.5,0.1-0.7c0,0,0,0,0,0l21.8-4.2v4.9l-1.8,0.7
		c-0.2,0.1-0.3,0.3-0.3,0.5v4c0,0.2,0.1,0.4,0.3,0.4l37,18.1c0.1,0,0.1,0.1,0.2,0.1c0,0,0.1,0,0.1,0L138.8,90l3.2,1.6
		c0.1,0,0.1,0.1,0.2,0.1c0,0,0,0,0,0c0,0,0,0,0,0c0,0,0.1,0,0.1,0l16.7-4.2c0.2-0.1,0.4-0.3,0.4-0.5v-2.3l0.5-0.1l9.5,4.7
		l-83.1,19.4c-0.5,0.1-0.9,0.7-0.7,1.2c0.1,0.5,0.5,0.8,1,0.8c0.1,0,0.2,0,0.2,0l85.4-19.9l9.9,4.9l-95.8,22.9
		c-0.5,0.1-0.9,0.7-0.7,1.2c0.1,0.5,0.5,0.8,1,0.8c0.1,0,0.2,0,0.2,0l98-23.4c0,0,0.1,0,0.1-0.1l6.5,3.2L117,119
		c-0.1,0-0.2,0-0.3,0.1l-31.8,8.1L4.7,83.3L10.9,82.1z M3.1,84.6l6.3,3.5L3,94.5C3.1,91.5,3.3,87.3,3.1,84.6z M2.9,96l7.4-7.4l6,3.3
		l-8.1,8.1l-2.1-1.1c0,0-0.1,0-0.1-0.1L2.8,97C2.9,96.7,2.9,96.4,2.9,96z M84.3,143.8c0.1,0.1,0.3,0.1,0.5,0.1c0.1,0,0.1,0,0.2,0
		l0,1.6L7,102.9c0-0.5,0-0.9,0-1.4L84.3,143.8z M6.7,106.3L84.8,149l0,1.6L6.5,107.8C6.6,107.4,6.6,106.9,6.7,106.3z M85.8,150.8
		l0.1-1.8l103.7-26.3c0,0.7,0,1.3,0,1.7L85.8,150.8z M189.5,119.4L85.9,145.6l0.1-1.9l99.9-25.3c0,0,0.1,0,0.1,0
		c0.1,0,0.3,0,0.4-0.1l3.1-0.8C189.5,118.1,189.5,118.7,189.5,119.4z M189.2,115.5l3.9-3.9c0,1.2,0,2.3,0,2.9L189.2,115.5z"/>
	<path class="st0" d="M140.9,70.6c0.5,0,1-0.4,1-1c0-0.5-0.4-1-1-1s-1,0.4-1,1C139.9,70.2,140.3,70.6,140.9,70.6z M141.3,69.6
		l-0.5,0c0,0,0,0,0,0H141.3z"/>
	<path class="st0" d="M45.4,82.9c-0.9,0.6-1.5,1-1.5,1c-0.2,0.1-0.3,0.4-0.2,0.7c0.1,0.2,0.3,0.3,0.4,0.3c0.1,0,0.2,0,0.2-0.1
		c0,0,0.7-0.4,1.6-1.1c0.2-0.2,0.3-0.5,0.1-0.7C45.9,82.7,45.6,82.7,45.4,82.9z"/>
	<path class="st0" d="M48.7,80.4c-0.3,0.3-0.5,0.6-0.8,0.9c-0.2,0.2-0.2,0.5,0,0.7c0.1,0.1,0.2,0.1,0.4,0.1s0.3,0,0.4-0.1
		c0.3-0.3,0.6-0.6,0.9-1c0.2-0.2,0.1-0.5-0.1-0.7C49.2,80.1,48.9,80.2,48.7,80.4z"/>
	<path class="st0" d="M48.4,83.1c-0.5,0.4-0.8,0.6-0.8,0.6c-0.2,0.1-0.3,0.4-0.2,0.7c0.1,0.2,0.3,0.2,0.4,0.2c0.1,0,0.2,0,0.2-0.1
		c0,0,0.4-0.2,0.9-0.6c0.2-0.2,0.3-0.5,0.1-0.7C49,83,48.7,82.9,48.4,83.1z"/>
	<path class="st0" d="M44.8,81.9c0.1,0,0.1,0,0.2,0c0.3-0.1,0.6-0.3,0.8-0.5c0.2-0.2,0.3-0.5,0.1-0.7c-0.2-0.2-0.5-0.3-0.7-0.1
		c-0.2,0.1-0.4,0.3-0.6,0.4c-0.2,0.1-0.4,0.4-0.2,0.7C44.4,81.8,44.6,81.9,44.8,81.9z"/>
	<path class="st0" d="M39.6,78.8c-0.9,0.6-1.5,1-1.5,1c-0.2,0.1-0.3,0.4-0.2,0.7c0.1,0.2,0.3,0.3,0.4,0.3c0.1,0,0.2,0,0.2-0.1
		c0,0,0.7-0.4,1.6-1.1c0.2-0.2,0.3-0.5,0.1-0.7C40.1,78.6,39.8,78.6,39.6,78.8z"/>
	<path class="st0" d="M42.5,78c0.1,0,0.3,0,0.4-0.1c0.3-0.3,0.6-0.6,0.9-1c0.2-0.2,0.1-0.5-0.1-0.7c-0.2-0.2-0.5-0.1-0.7,0.1
		c-0.3,0.3-0.5,0.6-0.8,0.9c-0.2,0.2-0.2,0.5,0,0.7C42.2,78,42.4,78,42.5,78z"/>
	<path class="st0" d="M42.6,79c-0.5,0.4-0.8,0.6-0.8,0.6c-0.2,0.1-0.3,0.4-0.2,0.7c0.1,0.2,0.3,0.2,0.4,0.2c0.1,0,0.2,0,0.3-0.1
		c0,0,0.4-0.2,0.9-0.6c0.2-0.2,0.3-0.5,0.1-0.7C43.2,78.9,42.9,78.8,42.6,79z"/>
	<path class="st0" d="M52.1,77.3c-0.2-0.2-0.5-0.3-0.7-0.1c-0.9,0.6-1.5,1-1.5,1c-0.2,0.1-0.3,0.4-0.2,0.7c0.1,0.2,0.3,0.3,0.4,0.3
		c0.1,0,0.2,0,0.2-0.1c0,0,0.7-0.4,1.6-1.1C52.2,77.8,52.2,77.5,52.1,77.3z"/>
	<path class="st0" d="M54.3,76.5c0.1,0,0.3,0,0.4-0.1c0.3-0.3,0.6-0.6,0.9-1c0.2-0.2,0.1-0.5-0.1-0.7c-0.2-0.2-0.5-0.1-0.7,0.1
		c-0.3,0.3-0.5,0.6-0.8,0.9c-0.2,0.2-0.2,0.5,0,0.7C54,76.4,54.2,76.5,54.3,76.5z"/>
	<path class="st0" d="M55.1,77.5c-0.2-0.2-0.5-0.3-0.7-0.1c-0.5,0.4-0.8,0.6-0.8,0.6c-0.2,0.1-0.3,0.4-0.2,0.7
		c0.1,0.2,0.3,0.2,0.4,0.2c0.1,0,0.2,0,0.3-0.1c0,0,0.4-0.2,0.9-0.6C55.3,78,55.3,77.7,55.1,77.5z"/>
	<path class="st0" d="M50.8,76.2c0.1,0,0.1,0,0.2,0c0.3-0.1,0.6-0.3,0.8-0.5c0.2-0.2,0.3-0.5,0.1-0.7c-0.2-0.2-0.5-0.3-0.7-0.1
		c-0.2,0.1-0.4,0.3-0.7,0.4c-0.2,0.1-0.4,0.4-0.2,0.7C50.4,76.1,50.6,76.2,50.8,76.2z"/>
	<path class="st0" d="M52.6,83.3c-0.9,0.6-1.5,1-1.5,1c-0.2,0.1-0.3,0.4-0.2,0.7c0.1,0.2,0.3,0.3,0.4,0.3c0.1,0,0.2,0,0.2-0.1
		c0,0,0.7-0.4,1.6-1.1c0.2-0.2,0.3-0.5,0.1-0.7S52.8,83.2,52.6,83.3z"/>
	<path class="st0" d="M55.2,82.5c0.1,0.1,0.2,0.1,0.4,0.1s0.3,0,0.4-0.1c0.3-0.3,0.6-0.6,0.9-1c0.2-0.2,0.1-0.5-0.1-0.7
		c-0.2-0.2-0.5-0.1-0.7,0.1c-0.3,0.3-0.5,0.6-0.8,0.9C55,81.9,55,82.3,55.2,82.5z"/>
	<path class="st0" d="M55.3,85c0,0,0.4-0.2,0.9-0.6c0.2-0.2,0.3-0.5,0.1-0.7s-0.5-0.3-0.7-0.1c-0.5,0.4-0.8,0.6-0.8,0.6
		c-0.2,0.1-0.3,0.4-0.2,0.7c0.1,0.2,0.3,0.2,0.4,0.2C55.2,85.1,55.3,85.1,55.3,85z"/>
	<path class="st0" d="M51.6,82.1c0.1,0.2,0.3,0.3,0.5,0.3c0.1,0,0.1,0,0.2,0c0.3-0.1,0.6-0.3,0.8-0.5c0.2-0.2,0.3-0.5,0.1-0.7
		c-0.2-0.2-0.5-0.3-0.7-0.1c-0.2,0.1-0.4,0.3-0.6,0.4C51.5,81.5,51.4,81.8,51.6,82.1z"/>
	<path class="st0" d="M56.7,88.2c-0.9,0.6-1.5,1-1.5,1c-0.2,0.1-0.3,0.4-0.2,0.7c0.1,0.2,0.3,0.3,0.4,0.3c0.1,0,0.2,0,0.2-0.1
		c0,0,0.7-0.4,1.6-1.1c0.2-0.2,0.3-0.5,0.1-0.7C57.2,88.1,56.9,88.1,56.7,88.2z"/>
	<path class="st0" d="M60,85.8c-0.3,0.3-0.5,0.6-0.8,0.9c-0.2,0.2-0.2,0.5,0,0.7c0.1,0.1,0.2,0.1,0.4,0.1s0.3,0,0.4-0.1
		c0.3-0.3,0.6-0.6,0.9-1c0.2-0.2,0.1-0.5-0.1-0.7C60.5,85.5,60.2,85.6,60,85.8z"/>
	<path class="st0" d="M59.7,88.5c-0.5,0.4-0.8,0.6-0.8,0.6c-0.2,0.1-0.3,0.4-0.2,0.7c0.1,0.2,0.3,0.2,0.4,0.2c0.1,0,0.2,0,0.2-0.1
		c0,0,0.4-0.2,0.9-0.6c0.2-0.2,0.3-0.5,0.1-0.7C60.2,88.3,59.9,88.3,59.7,88.5z"/>
	<path class="st0" d="M56.5,85.9c-0.2,0.1-0.4,0.3-0.7,0.4c-0.2,0.1-0.4,0.4-0.2,0.7c0.1,0.2,0.3,0.3,0.5,0.3c0.1,0,0.1,0,0.2,0
		c0.3-0.1,0.6-0.3,0.8-0.5c0.2-0.2,0.3-0.5,0.1-0.7C57,85.8,56.7,85.8,56.5,85.9z"/>
	<path class="st0" d="M64,89.9c-0.9,0.6-1.5,1-1.5,1c-0.2,0.1-0.3,0.4-0.2,0.7c0.1,0.2,0.3,0.3,0.4,0.3c0.1,0,0.2,0,0.2-0.1
		c0,0,0.7-0.4,1.6-1.1c0.2-0.2,0.3-0.5,0.1-0.7C64.6,89.8,64.3,89.8,64,89.9z"/>
	<path class="st0" d="M67.4,87.4c-0.3,0.3-0.5,0.6-0.8,0.9c-0.2,0.2-0.2,0.5,0,0.7c0.1,0.1,0.2,0.1,0.4,0.1s0.3,0,0.4-0.1
		c0.3-0.3,0.6-0.6,0.9-1c0.2-0.2,0.1-0.5-0.1-0.7C67.9,87.2,67.6,87.2,67.4,87.4z"/>
	<path class="st0" d="M67.1,90.2c-0.5,0.4-0.8,0.6-0.8,0.6c-0.2,0.1-0.3,0.4-0.2,0.7c0.1,0.2,0.3,0.2,0.4,0.2c0.1,0,0.2,0,0.2-0.1
		c0,0,0.4-0.2,0.9-0.6c0.2-0.2,0.3-0.5,0.1-0.7S67.3,90,67.1,90.2z"/>
	<path class="st0" d="M63.4,88.9c0.1,0,0.1,0,0.2,0c0.3-0.1,0.6-0.3,0.8-0.5c0.2-0.2,0.3-0.5,0.1-0.7c-0.2-0.2-0.5-0.3-0.7-0.1
		c-0.2,0.1-0.4,0.3-0.6,0.4c-0.2,0.1-0.4,0.4-0.2,0.7C63.1,88.8,63.2,88.9,63.4,88.9z"/>
	<path class="st0" d="M70.5,94.4c-0.9,0.6-1.5,1-1.5,1c-0.2,0.1-0.3,0.4-0.2,0.7c0.1,0.2,0.3,0.3,0.4,0.3c0.1,0,0.2,0,0.2-0.1
		c0,0,0.7-0.4,1.6-1.1c0.2-0.2,0.3-0.5,0.1-0.7C71,94.3,70.7,94.2,70.5,94.4z"/>
	<path class="st0" d="M73.8,91.9c-0.3,0.3-0.5,0.6-0.8,0.9c-0.2,0.2-0.2,0.5,0,0.7c0.1,0.1,0.2,0.1,0.4,0.1s0.3,0,0.4-0.1
		c0.3-0.3,0.6-0.6,0.9-1c0.2-0.2,0.1-0.5-0.1-0.7C74.3,91.7,74,91.7,73.8,91.9z"/>
	<path class="st0" d="M73.5,94.6c-0.5,0.4-0.8,0.6-0.8,0.6c-0.2,0.1-0.3,0.4-0.2,0.7c0.1,0.2,0.3,0.2,0.4,0.2c0.1,0,0.2,0,0.2-0.1
		c0,0,0.4-0.2,0.9-0.6c0.2-0.2,0.3-0.5,0.1-0.7C74.1,94.5,73.7,94.5,73.5,94.6z"/>
	<path class="st0" d="M69.9,93.4c0.1,0,0.1,0,0.2,0c0.3-0.1,0.6-0.3,0.8-0.5c0.2-0.2,0.3-0.5,0.1-0.7c-0.2-0.2-0.5-0.3-0.7-0.1
		c-0.2,0.2-0.4,0.3-0.6,0.4c-0.2,0.1-0.4,0.4-0.2,0.7C69.5,93.3,69.7,93.4,69.9,93.4z"/>
	<path class="st0" d="M77.4,96.4c-0.9,0.6-1.5,1-1.5,1c-0.2,0.1-0.3,0.4-0.2,0.7c0.1,0.2,0.3,0.3,0.4,0.3c0.1,0,0.2,0,0.2-0.1
		c0,0,0.7-0.4,1.6-1.1c0.2-0.2,0.3-0.5,0.1-0.7C77.9,96.3,77.6,96.2,77.4,96.4z"/>
	<path class="st0" d="M81.5,93.8c-0.2-0.2-0.5-0.1-0.7,0.1c-0.3,0.3-0.5,0.6-0.8,0.9c-0.2,0.2-0.2,0.5,0,0.7
		c0.1,0.1,0.2,0.1,0.4,0.1s0.3,0,0.4-0.1c0.3-0.3,0.6-0.6,0.9-1C81.7,94.3,81.7,94,81.5,93.8z"/>
	<path class="st0" d="M80.5,96.6c-0.5,0.4-0.8,0.6-0.8,0.6c-0.2,0.1-0.3,0.4-0.2,0.7c0.1,0.2,0.3,0.2,0.4,0.2c0.1,0,0.2,0,0.2-0.1
		c0,0,0.4-0.2,0.9-0.6c0.2-0.2,0.3-0.5,0.1-0.7C81,96.5,80.7,96.4,80.5,96.6z"/>
	<path class="st0" d="M76.8,95.4c0.1,0,0.1,0,0.2,0c0.3-0.1,0.6-0.3,0.8-0.5c0.2-0.2,0.3-0.5,0.1-0.7s-0.5-0.3-0.7-0.1
		c-0.2,0.1-0.4,0.3-0.6,0.4c-0.2,0.1-0.4,0.4-0.2,0.7C76.4,95.3,76.6,95.4,76.8,95.4z"/>
	<path class="st0" d="M83.4,101.3c-0.9,0.6-1.5,1-1.5,1c-0.2,0.1-0.3,0.4-0.2,0.7c0.1,0.2,0.3,0.3,0.4,0.3c0.1,0,0.2,0,0.2-0.1
		c0,0,0.7-0.4,1.6-1.1c0.2-0.2,0.3-0.5,0.1-0.7C83.9,101.2,83.6,101.1,83.4,101.3z"/>
	<path class="st0" d="M86.3,100.5c0.1,0,0.3,0,0.4-0.1c0.3-0.3,0.6-0.6,0.9-1c0.2-0.2,0.1-0.5-0.1-0.7c-0.2-0.2-0.5-0.1-0.7,0.1
		c-0.3,0.3-0.5,0.6-0.8,0.9c-0.2,0.2-0.2,0.5,0,0.7C86.1,100.5,86.2,100.5,86.3,100.5z"/>
	<path class="st0" d="M85.9,103c0.1,0,0.2,0,0.2-0.1c0,0,0.4-0.2,0.9-0.6c0.2-0.2,0.3-0.5,0.1-0.7c-0.2-0.2-0.5-0.3-0.7-0.1
		c-0.5,0.4-0.8,0.6-0.8,0.6c-0.2,0.1-0.3,0.4-0.2,0.7C85.5,102.9,85.7,103,85.9,103z"/>
	<path class="st0" d="M82.8,100.3c0.1,0,0.1,0,0.2,0c0.3-0.1,0.6-0.3,0.8-0.5c0.2-0.2,0.3-0.5,0.1-0.7c-0.2-0.2-0.5-0.3-0.7-0.1
		c-0.2,0.1-0.4,0.3-0.6,0.4c-0.2,0.1-0.4,0.4-0.2,0.7C82.4,100.2,82.6,100.3,82.8,100.3z"/>
	<path class="st0" d="M83.4,113.7c-0.9,0.6-1.5,1-1.5,1c-0.2,0.1-0.3,0.4-0.2,0.7c0.1,0.2,0.3,0.3,0.4,0.3c0.1,0,0.2,0,0.2-0.1
		c0,0,0.7-0.4,1.6-1.1c0.2-0.2,0.3-0.5,0.1-0.7C83.9,113.6,83.6,113.6,83.4,113.7z"/>
	<path class="st0" d="M86.3,113c0.1,0,0.3,0,0.4-0.1c0.3-0.3,0.6-0.6,0.9-1c0.2-0.2,0.1-0.5-0.1-0.7c-0.2-0.2-0.5-0.1-0.7,0.1
		c-0.3,0.3-0.5,0.6-0.8,0.9c-0.2,0.2-0.2,0.5,0,0.7C86.1,112.9,86.2,113,86.3,113z"/>
	<path class="st0" d="M85.9,115.5c0.1,0,0.2,0,0.2-0.1c0,0,0.4-0.2,0.9-0.6c0.2-0.2,0.3-0.5,0.1-0.7c-0.2-0.2-0.5-0.3-0.7-0.1
		c-0.5,0.4-0.8,0.6-0.8,0.6c-0.2,0.1-0.3,0.4-0.2,0.7C85.5,115.4,85.7,115.5,85.9,115.5z"/>
	<path class="st0" d="M82.8,112.8c0.1,0,0.1,0,0.2,0c0.3-0.1,0.6-0.3,0.8-0.5c0.2-0.2,0.3-0.5,0.1-0.7c-0.2-0.2-0.5-0.3-0.7-0.1
		c-0.2,0.1-0.4,0.3-0.6,0.4c-0.2,0.1-0.4,0.4-0.2,0.7C82.4,112.6,82.6,112.8,82.8,112.8z"/>
</g>
</svg>
