<svg xmlns="http://www.w3.org/2000/svg" width="145.718" height="145.69" viewBox="0 0 145.718 145.69">
  <metadata><?xpacket begin="﻿" id="W5M0MpCehiHzreSzNTczkc9d"?>
<x:xmpmeta xmlns:x="adobe:ns:meta/" x:xmptk="Adobe XMP Core 5.6-c138 79.159824, 2016/09/14-01:09:01        ">
   <rdf:RDF xmlns:rdf="http://www.w3.org/1999/02/22-rdf-syntax-ns#">
      <rdf:Description rdf:about=""/>
   </rdf:RDF>
</x:xmpmeta>
                                                                                                    
                                                                                                    
                                                                                                    
                                                                                                    
                                                                                                    
                                                                                                    
                                                                                                    
                                                                                                    
                                                                                                    
                                                                                                    
                                                                                                    
                                                                                                    
                                                                                                    
                                                                                                    
                                                                                                    
                                                                                                    
                                                                                                    
                                                                                                    
                                                                                                    
                                                                                                    
                           
<?xpacket end="w"?></metadata>
<defs>
    <style>
      .cls-1 {
        fill-rule: evenodd;
      }
    </style>
  </defs>
  <path id="Фигура_1178" data-name="Фигура 1178" class="cls-1" d="M634.47,1832.69a0.421,0.421,0,0,1-.256-0.09,0.442,0.442,0,0,1-.11-0.62l5.907-8.45a0.435,0.435,0,0,1,.624-0.11,0.442,0.442,0,0,1,.11.62l-5.906,8.45A0.444,0.444,0,0,1,634.47,1832.69Zm-5.516-1.93a0.478,0.478,0,0,1-.257-0.08,0.457,0.457,0,0,1-.111-0.63l3.03-4.34a0.45,0.45,0,1,1,.735.52l-3.029,4.34A0.461,0.461,0,0,1,628.954,1830.76Zm-2.156-4.56a0.483,0.483,0,0,1-.257-0.08,0.454,0.454,0,0,1-.11-0.63l3.394-4.85a0.436,0.436,0,0,1,.625-0.11,0.442,0.442,0,0,1,.11.62l-3.394,4.86A0.458,0.458,0,0,1,626.8,1826.2Zm-2.02-4.75a0.41,0.41,0,0,1-.257-0.08,0.454,0.454,0,0,1-.111-0.63l2.907-4.15a0.437,0.437,0,0,1,.626-0.11,0.443,0.443,0,0,1,.11.62l-2.907,4.16A0.434,0.434,0,0,1,624.778,1821.45Zm-1.67-4.16a0.417,0.417,0,0,1-.258-0.08,0.443,0.443,0,0,1-.108-0.62l2.938-4.21a0.45,0.45,0,1,1,.735.52l-2.939,4.2A0.432,0.432,0,0,1,623.108,1817.29Zm-1.684-4.13a0.424,0.424,0,0,1-.258-0.09,0.444,0.444,0,0,1-.11-0.62l2.986-4.27a0.436,0.436,0,0,1,.625-0.11,0.442,0.442,0,0,1,.111.62l-2.987,4.27A0.441,0.441,0,0,1,621.424,1813.16Zm-2.028-3.65a0.482,0.482,0,0,1-.256-0.08,0.458,0.458,0,0,1-.111-0.63l3.376-4.83a0.451,0.451,0,0,1,.736.52l-3.377,4.83A0.458,0.458,0,0,1,619.4,1809.51Zm-1.448-4.48a0.41,0.41,0,0,1-.257-0.08,0.452,0.452,0,0,1-.11-0.63l2.834-4.05a0.451,0.451,0,0,1,.736.52l-2.835,4.05A0.434,0.434,0,0,1,617.948,1805.03Zm-2.014-3.67a0.414,0.414,0,0,1-.257-0.08,0.443,0.443,0,0,1-.11-0.62l3.021-4.33a0.451,0.451,0,0,1,.736.52l-3.022,4.32A0.431,0.431,0,0,1,615.934,1801.36Zm-1.545-4.33a0.483,0.483,0,0,1-.257-0.08,0.457,0.457,0,0,1-.111-0.63l2.756-3.94a0.45,0.45,0,1,1,.735.52l-2.755,3.94A0.458,0.458,0,0,1,614.389,1797.03Zm-1.654-4.18a0.425,0.425,0,0,1-.257-0.09,0.442,0.442,0,0,1-.109-0.62l2.769-3.97a0.45,0.45,0,1,1,.735.52l-2.77,3.96A0.441,0.441,0,0,1,612.735,1792.85Zm-1.715-4.1a0.41,0.41,0,0,1-.257-0.08,0.453,0.453,0,0,1-.11-0.63l2.848-4.07a0.453,0.453,0,0,1,.625-0.11,0.443,0.443,0,0,1,.11.62l-2.848,4.08A0.435,0.435,0,0,1,611.02,1788.75Zm-2.079-3.57a0.488,0.488,0,0,1-.257-0.08,0.456,0.456,0,0,1-.109-0.63l2.8-4.02a0.45,0.45,0,1,1,.735.52l-2.805,4.02A0.46,0.46,0,0,1,608.941,1785.18Zm-1.666-4.17a0.405,0.405,0,0,1-.256-0.08,0.444,0.444,0,0,1-.112-0.62l3.035-4.34a0.436,0.436,0,0,1,.625-0.11,0.443,0.443,0,0,1,.11.62l-3.034,4.34A0.432,0.432,0,0,1,607.275,1781.01Zm-1.652-4.18a0.48,0.48,0,0,1-.257-0.08,0.454,0.454,0,0,1-.111-0.63l2.6-3.72a0.45,0.45,0,1,1,.735.52l-2.6,3.72A0.461,0.461,0,0,1,605.623,1776.83Zm-1.539-4.35a0.412,0.412,0,0,1-.257-0.08,0.444,0.444,0,0,1-.111-0.62l2.355-3.37a0.436,0.436,0,0,1,.625-0.11,0.443,0.443,0,0,1,.111.62l-2.356,3.37A0.43,0.43,0,0,1,604.084,1772.48Zm-1.638-4.2a0.486,0.486,0,0,1-.257-0.08,0.457,0.457,0,0,1-.11-0.63l2.21-3.16a0.436,0.436,0,0,1,.625-0.11,0.442,0.442,0,0,1,.111.62l-2.211,3.17A0.458,0.458,0,0,1,602.446,1768.28Zm-1.839-3.92a0.411,0.411,0,0,1-.258-0.08,0.443,0.443,0,0,1-.11-0.62l2.267-3.25a0.451,0.451,0,0,1,.737.52l-2.269,3.24A0.432,0.432,0,0,1,600.607,1764.36Zm-1.8-3.97a0.482,0.482,0,0,1-.256-0.08,0.454,0.454,0,0,1-.111-0.63l2.286-3.27a0.451,0.451,0,0,1,.736.52l-2.286,3.27A0.462,0.462,0,0,1,598.8,1760.39Zm-1.939-3.77a0.477,0.477,0,0,1-.256-0.08,0.457,0.457,0,0,1-.112-0.63l2.469-3.53a0.437,0.437,0,0,1,.626-0.11,0.442,0.442,0,0,1,.11.62l-2.469,3.54A0.46,0.46,0,0,1,596.866,1756.62Zm-1.579-4.29a0.477,0.477,0,0,1-.256-0.08,0.456,0.456,0,0,1-.111-0.63l2.24-3.2a0.437,0.437,0,0,1,.626-0.11,0.443,0.443,0,0,1,.11.62l-2.241,3.21A0.458,0.458,0,0,1,595.287,1752.33Zm-1.637-4.21a0.41,0.41,0,0,1-.257-0.08,0.443,0.443,0,0,1-.111-0.62l2.241-3.21a0.45,0.45,0,1,1,.735.52l-2.241,3.2A0.43,0.43,0,0,1,593.65,1748.12Zm-1.765-3.53a0.482,0.482,0,0,1-.256-0.08,0.454,0.454,0,0,1-.111-0.63l2.241-3.2a0.436,0.436,0,0,1,.625-0.11,0.443,0.443,0,0,1,.111.62l-2.241,3.21A0.46,0.46,0,0,1,591.885,1744.59Zm50.642,84.47a0.412,0.412,0,0,1-.257-0.08,0.452,0.452,0,0,1-.109-0.63l5.886-8.42a0.451,0.451,0,1,1,.736.52l-5.887,8.42A0.46,0.46,0,0,1,642.527,1829.06Zm8.059-3.62a0.484,0.484,0,0,1-.258-0.08,0.458,0.458,0,0,1-.111-0.63l5.867-8.39a0.436,0.436,0,0,1,.625-0.11,0.442,0.442,0,0,1,.111.62l-5.867,8.4A0.458,0.458,0,0,1,650.586,1825.44Zm8.056-3.63a0.409,0.409,0,0,1-.256-0.08,0.442,0.442,0,0,1-.111-0.62l6.123-8.76a0.436,0.436,0,0,1,.625-0.11,0.444,0.444,0,0,1,.111.62l-6.124,8.76A0.432,0.432,0,0,1,658.642,1821.81Zm8.058-3.62a0.489,0.489,0,0,1-.258-0.08,0.457,0.457,0,0,1-.11-0.63l5.827-8.34a0.45,0.45,0,0,1,.735.52l-5.827,8.34A0.456,0.456,0,0,1,666.7,1818.19Zm7.788-3.51a0.41,0.41,0,0,1-.257-0.08,0.443,0.443,0,0,1-.111-0.62l5.827-8.34a0.45,0.45,0,1,1,.735.52l-5.826,8.33A0.435,0.435,0,0,1,674.488,1814.68Zm7.787-3.5a0.409,0.409,0,0,1-.256-0.08,0.452,0.452,0,0,1-.11-0.63l5.786-8.28a0.451,0.451,0,1,1,.736.52l-5.787,8.28A0.434,0.434,0,0,1,682.275,1811.18Zm7.789-3.5a0.489,0.489,0,0,1-.258-0.08,0.456,0.456,0,0,1-.109-0.63l5.777-8.27a0.451,0.451,0,1,1,.736.52l-5.778,8.27A0.458,0.458,0,0,1,690.064,1807.68Zm7.325-2.84a0.483,0.483,0,0,1-.257-0.08,0.456,0.456,0,0,1-.111-0.63l6.212-8.89a0.45,0.45,0,1,1,.735.52l-6.211,8.89A0.461,0.461,0,0,1,697.389,1804.84Zm8.251-4.17a0.408,0.408,0,0,1-.257-0.08,0.453,0.453,0,0,1-.111-0.63l5.729-8.19a0.437,0.437,0,0,1,.626-0.11,0.443,0.443,0,0,1,.11.62l-5.729,8.2A0.46,0.46,0,0,1,705.64,1800.67Zm7.524-3.12a0.418,0.418,0,0,1-.256-0.09,0.442,0.442,0,0,1-.111-0.62l5.972-8.55a0.451,0.451,0,1,1,.736.52l-5.972,8.54A0.445,0.445,0,0,1,713.164,1797.55Zm7.888-3.65a0.48,0.48,0,0,1-.257-0.08,0.453,0.453,0,0,1-.11-0.63l5.854-8.37a0.436,0.436,0,0,1,.625-0.11,0.443,0.443,0,0,1,.11.62l-5.854,8.38A0.461,0.461,0,0,1,721.052,1793.9Zm6.761-3.13a0.408,0.408,0,0,1-.257-0.08,0.442,0.442,0,0,1-.111-0.62l5.752-8.23a0.448,0.448,0,0,1,.736.51l-5.753,8.23A0.43,0.43,0,0,1,727.813,1790.77Zm-95.246,37.41a0.9,0.9,0,0,1-.322-0.06,0.936,0.936,0,0,1-.5-0.47l-41.574-93.27a0.913,0.913,0,0,1-.017-0.7,0.933,0.933,0,0,1,.481-0.5l101.784-43.88a0.882,0.882,0,0,1,1.168.45l42.138,91.37a0.889,0.889,0,0,1-.448,1.19L632.932,1828.1A0.926,0.926,0,0,1,632.567,1828.18Zm-40.384-93.7,40.837,91.61,100.7-45.05-41.389-89.75Zm103.079,60.96a0.9,0.9,0,0,1-.365-1.72l4.1-1.83a0.9,0.9,0,1,1,.733,1.64l-4.1,1.83A0.8,0.8,0,0,1,695.262,1795.44Zm-51.926,23.23a0.9,0.9,0,0,1-.366-1.72l8.653-3.87a0.9,0.9,0,1,1,.732,1.64l-8.654,3.87A0.794,0.794,0,0,1,643.336,1818.67Zm12.981-5.81a0.885,0.885,0,0,1-.82-0.53,0.907,0.907,0,0,1,.453-1.19l8.655-3.87a0.9,0.9,0,0,1,.733,1.64l-8.655,3.88A0.944,0.944,0,0,1,656.317,1812.86Zm12.982-5.8a0.9,0.9,0,0,1-.367-1.72l8.655-3.88a0.9,0.9,0,0,1,.733,1.65l-8.655,3.87A0.954,0.954,0,0,1,669.3,1807.06Zm12.983-5.81a0.9,0.9,0,0,1-.367-1.72l8.655-3.87a0.89,0.89,0,0,1,1.184.45,0.9,0.9,0,0,1-.453,1.19l-8.654,3.87A0.95,0.95,0,0,1,682.282,1801.25Zm-47.373,21.19a0.9,0.9,0,0,1-.819-0.53l-1.831-4.11a0.9,0.9,0,1,1,1.64-.73l1.464,3.28,3.279-1.46a0.891,0.891,0,0,1,1.185.45,0.9,0.9,0,0,1-.453,1.19l-4.1,1.83A0.8,0.8,0,0,1,634.909,1822.44Zm-3.591-8.06a0.886,0.886,0,0,1-.82-0.53l-3.522-7.9a0.9,0.9,0,1,1,1.639-.73l3.523,7.9a0.906,0.906,0,0,1-.454,1.19A0.938,0.938,0,0,1,631.318,1814.38Zm-5.284-11.85a0.9,0.9,0,0,1-.819-0.53l-3.523-7.9a0.9,0.9,0,0,1,1.64-.74l3.523,7.9a0.9,0.9,0,0,1-.455,1.19A0.792,0.792,0,0,1,626.034,1802.53Zm-5.282-11.85a0.9,0.9,0,0,1-.821-0.54l-3.522-7.9a0.9,0.9,0,1,1,1.64-.73l3.521,7.9a0.9,0.9,0,0,1-.453,1.19A0.95,0.95,0,0,1,620.752,1790.68Zm-5.284-11.86a0.886,0.886,0,0,1-.82-0.53l-3.523-7.9a0.9,0.9,0,1,1,1.64-.73l3.523,7.9a0.908,0.908,0,0,1-.454,1.19A0.941,0.941,0,0,1,615.468,1778.82Zm-5.284-11.85a0.9,0.9,0,0,1-.819-0.53l-3.523-7.9a0.9,0.9,0,0,1,1.639-.74l3.523,7.9a0.9,0.9,0,0,1-.454,1.19A0.792,0.792,0,0,1,610.184,1766.97Zm-5.283-11.85a0.9,0.9,0,0,1-.82-0.54l-3.522-7.9a0.9,0.9,0,1,1,1.639-.73l3.522,7.9a0.9,0.9,0,0,1-.453,1.19A0.958,0.958,0,0,1,604.9,1755.12Zm-5.284-11.86a0.884,0.884,0,0,1-.819-0.53l-1.831-4.1a0.9,0.9,0,0,1,.455-1.19,0.89,0.89,0,0,1,1.184.45l1.831,4.11a0.891,0.891,0,0,1-.454,1.18A0.8,0.8,0,0,1,599.617,1743.26Zm30.918,91.65a0.75,0.75,0,0,1-.325-0.07,0.872,0.872,0,0,1-.5-0.48l-39.544-92.44a0.877,0.877,0,0,1-.072-0.35v-7.56a0.9,0.9,0,1,1,1.795,0v7.38L631,1832.81l102.213-45.98,0.809-5.47a0.9,0.9,0,1,1,1.776.27l-0.882,5.95a0.883,0.883,0,0,1-.519.69L630.9,1834.83A0.945,0.945,0,0,1,630.535,1834.91Zm75.943-70.52a1.352,1.352,0,0,1-.561-2.58l7.783-3.57-25.938-56.17-62.173,26.91,2.574,5.87a1.348,1.348,0,0,1-2.466,1.09l-3.118-7.12a1.355,1.355,0,0,1,.7-1.78l64.62-27.97a1.349,1.349,0,0,1,1.757.67l27.058,58.6a1.368,1.368,0,0,1,.04,1.04,1.355,1.355,0,0,1-.7.75l-9.014,4.13A1.25,1.25,0,0,1,706.478,1764.39Zm-66.248,2.72a1.348,1.348,0,0,1-1.233-.8l-6.879-15.71a1.347,1.347,0,1,1,2.467-1.08l6.878,15.7a1.35,1.35,0,0,1-.692,1.78A1.291,1.291,0,0,1,640.23,1767.11Zm10.076,23.01a1.329,1.329,0,0,1-.479-0.09,1.311,1.311,0,0,1-.753-0.71l-3.007-6.87a1.346,1.346,0,1,1,2.466-1.08l2.457,5.61,44.032-20.18a1.351,1.351,0,0,1,1.12,2.46L650.866,1790A1.359,1.359,0,0,1,650.306,1790.12Zm43.16-55.41a1.351,1.351,0,0,1-.535-2.59l8.552-3.7a1.35,1.35,0,0,1,1.067,2.48L694,1734.6A1.432,1.432,0,0,1,693.466,1734.71ZM637.4,1758.98a1.351,1.351,0,0,1-.535-2.59l44.114-19.09a1.345,1.345,0,1,1,1.067,2.47l-44.114,19.1A1.435,1.435,0,0,1,637.4,1758.98Zm30.764-37.46a0.338,0.338,0,0,1-.309-0.21,0.333,0.333,0,0,1,.175-0.44l25.183-10.9a0.338,0.338,0,0,1,.267.62l-25.183,10.9A0.314,0.314,0,0,1,668.161,1721.52Zm15.914,52.44a1.35,1.35,0,0,1-1.224-.78l-4.2-9.09a1.346,1.346,0,1,1,2.444-1.13l4.2,9.08a1.347,1.347,0,0,1-.657,1.79A1.27,1.27,0,0,1,684.075,1773.96Zm20.984,21.23a0.345,0.345,0,0,1-.306-0.2l-11.88-25.73a0.34,0.34,0,0,1,.163-0.45,0.347,0.347,0,0,1,.448.17l11.88,25.73a0.342,0.342,0,0,1-.165.45A0.349,0.349,0,0,1,705.059,1795.19Zm15.481-7.26a0.337,0.337,0,0,1-.306-0.19l-11.88-25.73a0.341,0.341,0,0,1,.165-0.45,0.336,0.336,0,0,1,.446.17l11.88,25.73a0.331,0.331,0,0,1-.164.44A0.238,0.238,0,0,1,720.54,1787.93Zm-45.188-32.86a1.35,1.35,0,0,1-1.223-.78l-4.728-10.24a1.348,1.348,0,0,1,2.444-1.14l4.728,10.24a1.347,1.347,0,0,1-.657,1.79A1.267,1.267,0,0,1,675.352,1755.07Zm-7.191-33.55a0.344,0.344,0,0,1-.3-0.2l-4.486-9.71a0.34,0.34,0,0,1,.164-0.45,0.332,0.332,0,0,1,.446.16l4.486,9.72a0.34,0.34,0,0,1-.164.45A0.347,0.347,0,0,1,668.161,1721.52Zm2.561-1.11a0.33,0.33,0,0,1-.306-0.2l-4.59-9.94a0.326,0.326,0,0,1,.165-0.44,0.333,0.333,0,0,1,.447.16l4.589,9.94a0.34,0.34,0,0,1-.165.45A0.349,0.349,0,0,1,670.722,1720.41Zm2.56-1.11a0.331,0.331,0,0,1-.306-0.2l-4.693-10.16a0.342,0.342,0,0,1,.165-0.45,0.337,0.337,0,0,1,.447.17l4.692,10.16a0.339,0.339,0,0,1-.163.45A0.355,0.355,0,0,1,673.282,1719.3Zm2.562-1.11a0.337,0.337,0,0,1-.306-0.19l-4.8-10.39a0.341,0.341,0,0,1,.164-0.45,0.333,0.333,0,0,1,.447.16l4.8,10.39a0.341,0.341,0,0,1-.164.45A0.354,0.354,0,0,1,675.844,1718.19Zm2.561-1.11a0.336,0.336,0,0,1-.306-0.19l-4.9-10.62a0.337,0.337,0,0,1,.612-0.28l4.9,10.61a0.342,0.342,0,0,1-.164.45A0.35,0.35,0,0,1,678.405,1717.08Zm2.56-1.11a0.339,0.339,0,0,1-.306-0.19l-5-10.84a0.336,0.336,0,1,1,.611-0.28l5,10.84a0.332,0.332,0,0,1-.165.44A0.35,0.35,0,0,1,680.965,1715.97Zm2.354-1.01a0.347,0.347,0,0,1-.306-0.2l-4.747-10.28a0.337,0.337,0,1,1,.612-0.28l4.746,10.28a0.326,0.326,0,0,1-.164.44A0.249,0.249,0,0,1,683.319,1714.96Zm2.349-1.03a0.342,0.342,0,0,1-.306-0.2l-4.484-9.71a0.336,0.336,0,1,1,.61-0.28l4.059,8.78,2.556-12.28a0.343,0.343,0,0,1,.4-0.26,0.339,0.339,0,0,1,.26.4L686,1713.66a0.348,0.348,0,0,1-.291.27h-0.039Zm-36.131,75.93a0.346,0.346,0,0,1-.308-0.2l-26.143-59.44a0.336,0.336,0,0,1,.616-0.27l26.143,59.44A0.338,0.338,0,0,1,649.537,1789.86Zm1.434-2.05a0.345,0.345,0,0,1-.308-0.2l-26.145-59.44a0.337,0.337,0,1,1,.618-0.27l26.143,59.44A0.338,0.338,0,0,1,650.971,1787.81Zm42.013-54.42a0.639,0.639,0,0,1-.135-0.02l-11.729-3.73a0.446,0.446,0,0,1-.293-0.56,0.455,0.455,0,0,1,.564-0.3l11.729,3.73A0.451,0.451,0,0,1,692.984,1733.39Zm-5.931,24.35a0.648,0.648,0,0,1-.136-0.02L675.188,1754a0.457,0.457,0,0,1-.292-0.57,0.449,0.449,0,0,1,.564-0.29l11.729,3.72a0.46,0.46,0,0,1,.293.57A0.451,0.451,0,0,1,687.053,1757.74Zm15.987,17.52a0.638,0.638,0,0,1-.136-0.02,0.456,0.456,0,0,1-.292-0.57l3.718-11.75a0.449,0.449,0,0,1,.856.27l-3.719,11.75A0.455,0.455,0,0,1,703.04,1775.26Zm-72.5,59.2a0.479,0.479,0,0,1-.116-0.02,0.449,0.449,0,0,1-.318-0.55l2.031-7.61a0.448,0.448,0,1,1,.866.23l-2.029,7.61A0.457,0.457,0,0,1,630.536,1834.46Z" transform="translate(-590.094 -1689.22)"/>
</svg>
