<?xml version="1.0" encoding="utf-8"?>
<!-- Generator: Adobe Illustrator 21.0.2, SVG Export Plug-In . SVG Version: 6.00 Build 0)  -->
<svg version="1.1" id="Слой_1" xmlns="http://www.w3.org/2000/svg" xmlns:xlink="http://www.w3.org/1999/xlink" x="0px" y="0px"
	 viewBox="0 0 238 152.9" style="enable-background:new 0 0 238 152.9;" xml:space="preserve">
<style type="text/css">
	.st0{fill:#161616;}
</style>
<g>
	<path class="st0" d="M85.7,144c2.5,0.1,5.3,0.2,8.4,0.2c2.7,0,5.2,0,7.5-0.1c0.2,0,0.3-0.2,0.3-0.4c0-0.2-0.2-0.3-0.4-0.3
		c-2.3,0.1-4.8,0.1-7.5,0.1c-3,0-5.8-0.1-8.3-0.2c-0.2,0-0.4,0.1-0.4,0.3C85.4,143.9,85.5,144,85.7,144z"/>
	<ellipse class="st0" cx="99.2" cy="20.9" rx="1.7" ry="2.3"/>
	<path class="st0" d="M88.3,112.3c0,0-2-1.2-2-6.2c0-5,6.2-9.6,6.2-9.6s6.2,4.6,6.2,9.6c0,5-2,6.2-2,6.2s9.4-2.6,9.4-12.5
		c0-10-13.7-21.8-13.7-21.8S78.9,89.8,78.9,99.8C78.9,109.8,88.3,112.3,88.3,112.3z"/>
	<path class="st0" d="M219.5,123.7c-0.4-0.4-1-0.4-1.4-0.4c-0.2-0.1-0.5-0.4-0.7-0.6c-0.5-0.5-1-1-1.5-1.3c-0.9-0.5-2-0.9-2.8-1.1
		c-0.2-0.1-0.3-0.1-0.4-0.1c-0.1-0.1-0.3-0.3-0.5-0.5c-0.6-0.6-1.2-1.3-2.2-1.6c-0.9-0.3-1.8-0.4-2.2-0.4c-0.3-0.2-0.9-0.6-1.4-0.8
		c0,0-4.5-1.8-9-4.8c-3.6-2.3-6.8-4.6-7.7-5.2c-0.3-1.3-0.5-2.2-0.5-2.5c0-0.7-0.3-1.4-0.6-2c-0.2-0.5-0.4-1.1-0.4-1.4
		c0-0.2,0-0.5,0-0.9c0.1-1.8,0.3-5.2-0.5-7.3c-0.6-1.7-1.2-2.1-2-2.3c0,0-0.1,0-0.1,0c0,0,0,0-0.1-0.1c-0.6-0.8-1-2.2-1.3-4
		l-0.1-0.7c-0.3-1.7-0.6-3.7-1.2-5.1c-0.2-0.6-0.4-1.5-0.5-2.3c-0.2-1.2-0.3-2.2-0.8-2.9c-0.7-0.9-1.3-2.4-1.3-2.8
		c0-0.9-0.7-2.2-0.9-2.6c-0.1-0.2-0.3-0.4-0.5-0.4c-0.2-0.1-4.6-1.6-6.2-2c-0.8-0.2-1.5-0.3-2.1-0.4c0.5-1.9,1-3.6,1-3.6
		c0.1-0.4-0.1-0.8-0.4-1c0,0-0.2-0.1-0.4-0.4c0-0.1-0.1-0.3-0.2-0.5c-0.2-0.6-0.4-1.3-0.9-1.7c-0.7-0.7-2.2-1-2.4-1.1
		c-0.1,0-0.1,0-0.2,0c-0.1,0-6.5-0.5-9.1-0.7c-1.6-0.2-3.3-0.9-4.7-1.4c-0.9-0.4-1.6-0.6-2.1-0.7c-1.2-0.2-3,0-3.1,0
		c-0.4,0-0.7,0.3-0.8,0.7c0,0-1,4.6-1.3,5.8c-0.1,0.4-0.3,1.2-0.5,2.4c-0.5,2.6-1.3,6.8-2.7,12.7c-1.1,0.9-3.6,3-4,3.5
		c-0.3,0.4-0.8,0.7-1,0.7c-1,0-2.9,1.5-3.3,2.8c-0.1,0.3-0.3,0.5-1.2,0.7c-0.8,0.1-1.5,0.9-2.3,1.6c-0.3,0.3-0.6,0.6-0.9,0.9
		c-0.4,0.4-1.2,1-1.8,1.5V63.1c1.2-0.5,2-1.7,2-3c0-1.4-0.8-2.5-2-3v-4.8c0-7-3.9-13.1-9.7-16.2l0-26.2c0,0,0,0,0-0.1
		c0,0,0-0.1,0-0.1l0-2.9c-0.1-1-0.9-2.6-2.8-2.6c-0.7,0-1.3,0.2-1.8,0.5c-2,1.1-8.8,2-15.9,2c-3.9,0-7.2-0.1-9.1-0.2c0,0,0,0,0,0
		c0.5-0.5,0.5-1.3,0.5-2.2l0-0.3c0-1.2-0.7-2.5-1.8-2.5c-2.4,0-10.8,1.1-13,2c-2.5,1.1-2.4,3.4-2.4,3.5v5.7c0,0.6,0.2,0.9,0.5,1.2
		c0.1,0.2,0.3,0.4,0.6,0.8c0.6,1,0.7,2,0.7,2.8c0,0.1,0,0.4,0,0.8c0.1,8.7-0.1,11-0.3,11.6c-0.4,0.4-0.8,0.5-0.8,0.5
		c-0.4,0.1-0.7,0.5-0.7,0.9v3.4c-7.2,2.5-12.4,9.3-12.4,17.4V57c-1.2,0.5-2,1.7-2,3c0,1.3,0.8,2.5,2,3V64c-1.2,0-2.9,0-5.5,0
		c-5,0-6.8,0-7.5,0.2c-0.1,0-0.1,0-0.1,0c-0.3,0.1-0.3,0.2-0.3,0.4v3.3c0,0.4,0,0.6,3.6,0.6V69c0,0,0,0,0,0l-12,0.2c0,0,0-0.1,0-0.1
		V65c0-0.5,0-0.7-4.9-0.7c-4.9,0-4.9,0.2-4.9,0.7v4.2c0,0.1,0,0.2,0,0.3l-7.6,0.1c-1.7,0-3.1,1.4-3.1,3.1v73.5
		c0,0.9,0.3,1.7,0.9,2.2c0.6,0.6,1.3,0.9,2.2,0.9l7.8,1.6c0.4,0.2,0.8,0.2,1.2,0.2c0,0,0.1,0,0.1,0l36.9-1c0,0,0,0,0,0
		c1.7,0,3.1-1.4,3.1-3.1v-2.4c1.3,0.5,3,0.9,5,1.2c5.3,0.9,14.7,1,18.1,1c0.7,0,1.2,0,1.3,0c0.1,0,8.1,0.1,14.6-0.4l18.1,5.7
		c0.1,0,0.2,0,0.3,0c0.2,0,0.3,0,0.5-0.1l4.3-2.6c0,0,0,0,0,0c-0.1,0.3-0.1,0.6,0,0.8c0.1,0.3,0.4,0.5,0.7,0.5
		c0.1,0,3.1,0.7,4.6,0.8l0.8,0.1c1.8,0.2,5.2,0.5,9.7,0.5h8.7c1,0,2.1-1.8,2.1-2.6c0-0.4,0-1-0.1-1.6l0-0.6c0-0.3,0.1-0.8,0.1-1.3
		c0.1-0.4,0.1-0.9,0.2-1.4c0.1-1.2-0.4-2-0.7-2.5c-0.1-0.1-0.1-0.2-0.1-0.2c-0.2-0.5-0.4-3.5-0.4-4.5c0-0.2,0.1-0.6,0.3-1
		c0.2-0.5,0.4-1.1,0.4-1.7c0-0.4,0-0.6,0-0.9c0-0.5-0.1-1.3,0.1-3.4c0.8-0.5,2.7-1.8,4.1-2.7c0.3,0.9,0.5,1.6,0.6,1.9
		c1.5,4.6,1.8,6.4,1.8,7c0,0.7-0.1,2.1-0.2,3.5c-0.1,1.9-0.2,3-0.2,3.5c0.1,0.9,1.4,2.8,2.4,4.4c0.2,0.2,0.4,0.4,0.7,0.4
		c0.1,0,2.5,0.2,5.5,0.2c1.5,0,3.2-0.1,4.9-0.2c4.4-0.5,8.8-1.4,11.4-2.5c2.2-0.9,8.6-3.3,8.7-3.3c0.4-0.2,0.7-0.6,0.6-1.1
		c-0.3-1.7-1-5-1.5-7.8c1.2,0.7,2.7,1.5,3.2,1.7c0.5,0.2,6.9,3.5,10.8,5.5c0.1,0.1,0.3,0.1,0.4,0.1c0.2,0,0.4-0.1,0.6-0.2l5.1-4.2
		c0.2-0.1,0.3-0.3,0.3-0.5c0.8-3.1,2.5-10.5,2.5-11.4C220,124.4,219.8,124,219.5,123.7z M210.7,138.3c-0.1-0.1-0.3-0.6-0.2-1.8
		c0.3-0.4,1.1-1.8,1.2-3.2c0-0.6,0-1-0.1-1.3c-0.1-0.5-0.1-0.6,0.4-1c0.2-0.2,0.2-0.5,0-0.7c-0.2-0.2-0.5-0.2-0.7,0
		c-0.9,0.8-0.9,1.2-0.7,1.9c0.1,0.3,0.1,0.6,0.1,1.1c-0.1,1.4-1.1,2.8-1.1,2.9c0,0.1-0.1,0.1-0.1,0.2c-0.1,0.9,0,1.6,0.1,2
		c-0.2-0.1-0.5-0.2-0.7-0.4c0.1-0.1,0.1-0.1,0.2-0.2c0.2-0.5-0.1-0.9-0.4-1.4c-0.1-0.2-0.5-0.7-0.4-0.8c0.1-0.2-0.1-0.5-0.3-0.6
		c-0.2-0.1-0.5,0-0.6,0.3c-0.2,0.6,0.2,1.2,0.5,1.7c0.1,0.1,0.2,0.2,0.2,0.4c0,0-0.1,0-0.1,0c-0.2,0-0.4,0-0.6-0.1
		c-0.7-0.3-1.3-0.7-2-1c0.2,0,0.4-0.1,0.5-0.2c0.3-0.2,0.8-0.6,1-1.4c0.2-1,0.4-1.1,0.5-1.1c0.2-0.1,0.5-0.2,0.8-0.6
		c0.1-0.1,0.3-0.4,0.2-0.7c-0.1-0.3-0.4-0.4-0.7-0.5c-0.4-0.1-0.7-0.2-0.7-1c0.1-0.8,0.7-1.2,1.7-1.6c0.5-0.2,1-0.4,1.3-0.8
		c0.1,0,0.1,0.1,0.2,0.1c-1,0.4-2.1,1.3-2.1,2.2c0,0.3,0.2,0.5,0.5,0.5c0.3,0,0.5-0.2,0.5-0.5c0-0.5,1.3-1.4,2.1-1.5
		c0.8,0.6,1.8,1.3,2.6,1.8c-0.1,0.2-0.2,0.3-0.2,0.5c-0.1,0.2-0.2,0.4-0.4,0.6c-0.4,0.5-1,1.2-1.4,2.5
		C211.5,135.5,211.1,137.2,210.7,138.3z M203.2,134.9c0.4-0.1,0.7-0.2,0.9-0.4c0.8-0.5,1.3-1.2,1.3-1.9c0-0.4-0.2-0.7-0.3-0.8
		c-0.4-0.3-0.9-0.2-1.4,0c-0.1,0-0.2,0.1-0.3,0.1c0-0.2-0.1-0.5-0.4-0.5c-0.3-0.1-0.5,0.1-0.6,0.3c0,0.2-0.2,0.6,0.2,1
		c0.3,0.3,0.9,0.2,1.3,0.1c0.1,0,0.4-0.1,0.5-0.1c0,0.4-0.3,0.8-0.8,1.1c-0.6,0.3-1.5,0.5-2.2,0c-0.8-0.5-0.9-0.7-1-0.8
		c0-0.1,0.1-0.3,0.3-0.5c0.1-0.1,0.3-0.2,0.5-0.3c0.6-0.2,1.4-0.6,1.9-1.9c0.2-0.6,0.3-1.1,0.4-1.5c0.2-1,0.3-1.2,1-1.3
		c1.3-0.2,1.8-0.8,2-1.4c1.1,0.8,2.1,1.5,2.6,1.7c-0.2,0.2-0.5,0.3-0.8,0.5c-0.9,0.4-2.1,1-2.2,2.4c-0.1,1.3,0.6,1.7,1.1,1.9
		c0,0-0.1,0-0.1,0.1c-0.6,0.2-0.9,0.5-1.1,1.8c-0.1,0.4-0.2,0.6-0.5,0.7c-0.5,0.3-1.2,0-1.5-0.1c-0.1,0-0.2-0.1-0.4,0
		c-0.1,0-0.1,0.1-0.2,0.1C203.5,135.1,203.4,135,203.2,134.9z M198.4,131.1c-0.2-0.1-0.5,0-0.6,0.3c-0.1,0.2-0.2,0.4-0.3,0.6
		c-0.1,0-0.1-0.1-0.2-0.1c0.2-1.5,0.6-2.6,1.1-3.1c0.3-0.3,0.6-0.4,1-0.3c0.3,0,0.7,0.1,0.9,0.4c0.2,0.3,0.1,0.7,0.1,0.8
		c-0.1,0.2,0.1,0.5,0.3,0.6c0.2,0.1,0.5,0,0.6-0.3l0.1-0.2c0.1-0.1,0.1-0.2,0.1-0.2c0.4-0.3,0.4-0.5,0.3-2.6c0-0.9-0.1-1.5-0.2-2.1
		c-0.1-1.3-0.1-1.4,0.2-1.4c0.3-0.1,0.6-0.1,0.9-0.2c0.8,0.6,1.9,1.3,2.9,2c0.1,0,0.1,0.1,0.2,0.1c0,0.6-0.2,1-1.3,1.1
		c-1.4,0.2-1.6,1.1-1.8,2c-0.1,0.4-0.2,0.9-0.4,1.4c-0.4,1-0.8,1.2-1.3,1.4c-0.3,0.1-0.7,0.3-1,0.7c-0.3,0.4-0.5,0.8-0.4,1.3
		c-0.4-0.2-0.9-0.5-1.4-0.7c0.2-0.3,0.3-0.5,0.4-0.7C198.8,131.4,198.6,131.2,198.4,131.1z M191.6,110.4c0.2,0.1,0.4,0.2,0.6,0.4
		c0,0-0.1,0.1-0.1,0.1c-0.2,0.2-0.3,0.2-0.5,0.2c-0.2,0-0.4-0.1-0.6-0.1C191.2,110.9,191.5,110.8,191.6,110.4z M196.1,113.4
		c0.1,0.4-0.5,1.4-1.1,1.9c-0.3,0.2-0.5,0.3-0.7,0.4c-0.5,0.2-0.9,0.4-1,1.4c0,0.4-0.1,0.7-0.2,1c-0.2-0.6-0.5-1.2-0.6-1.6
		c0,0,0-0.1,0-0.1c0.3-0.1,0.5-0.2,0.7-0.5c0.1-0.2,0-0.5-0.2-0.6c-0.2-0.1-0.5,0-0.6,0.2c0,0-0.1,0-0.2,0c-0.2-0.5-0.3-1-0.5-1.5
		c0.1-0.2,0.3-0.4,0.6-0.5c0.3-0.1,0.6-0.3,0.9-0.6c0.1-0.2,0.3-0.3,0.5-0.5c0.1-0.1,0.2-0.2,0.3-0.3
		C194.6,112.5,195.3,113,196.1,113.4z M198.5,119.4c0.3-0.2,0.5-0.2,0.7-0.3c0.6-0.2,0.7-0.5,0.6-1.1c0-0.2,0.1-0.6,0.3-1
		c0.1-0.4,0.3-0.7,0.3-1.1c0.2,0.1,0.5,0.2,0.7,0.4c0,0-0.1,0.1-0.1,0.1c-0.4,0.4-0.6,1-0.5,2c0,0.3,0.3,0.5,0.5,0.4
		c0.3,0,0.4-0.3,0.4-0.5c-0.1-0.6,0-1,0.2-1.1c0.2-0.1,0.5-0.2,0.8-0.1c0.6,0.3,1.2,0.6,1.7,0.8c-0.2,0.2-0.5,0.3-0.8,0.6
		c-0.6,0.4-0.6,1.4-0.4,2.8c0,0.3,0.1,0.5,0.1,0.7c0,0.1,0,0.2,0,0.2c-1.1-0.8-1.4-0.8-2.3-0.8c-0.3,0-0.8,0-1.6,0
		c-0.4,0-0.8-0.1-1.2-0.3C197.7,120.4,197.8,119.8,198.5,119.4z M205.3,118.4c-0.3,0.2-0.4,0.5-0.5,1c0,0.3,0,0.7,0,0.9
		c0,0.7,0,1.1-0.2,1.1c-0.3,0-0.4,0.3-0.4,0.5c0,0.3,0.3,0.4,0.5,0.4c1-0.1,1-1.1,1-2.1c0-0.3,0-0.6,0-0.9c0-0.2,0.1-0.3,0.2-0.3
		c0.1-0.1,0.3-0.1,0.6-0.1c0.1,0.1,0.3,0.2,0.3,0.2c0.1,0.1,0.3,0.2,0.5,0.2c0,0,0.3,0,0.6,0.1c0.2,0.1,0.2,0.4,0.1,0.6
		c-0.1,0.4-0.4,0.8-1,0.8c-0.4,0-0.7,0.2-0.9,0.4c-0.5,0.6-0.5,1.8-0.4,2.8c-0.8-0.5-1.5-1.1-2.2-1.5c0.1-0.2,0.2-0.4,0.2-0.8
		c0-0.2,0-0.5-0.1-0.8c0-0.4-0.2-1.6,0-1.9c0.5-0.3,1-0.6,1.3-0.9C205.1,118.3,205.2,118.3,205.3,118.4z M200.7,124.9
		c0.1,0.5,0.1,1.2,0.2,2c0,0.3,0,0.7,0,1c-0.3-0.3-0.8-0.5-1.4-0.5c-0.7-0.1-1.3,0.1-1.7,0.5c-0.6,0.5-1,1.4-1.3,2.6
		c0-0.3-0.1-0.6-0.1-0.8c0-0.3-0.1-0.8-0.1-1.3c0.3-0.1,0.6-0.4,0.7-0.7c0.3-0.4,0.5-0.8,1.1-0.9c0.4,0,0.9-0.1,1.1-0.5
		c0.2-0.4,0-0.7-0.2-1c-0.2-0.3-0.4-0.6-0.4-1.1c0-0.3-0.3-0.4-0.5-0.4c-0.3,0-0.4,0.3-0.4,0.5c0.1,0.6,0.4,1.1,0.6,1.5
		c0,0,0,0.1,0.1,0.1c-0.1,0-0.1,0-0.2,0c-1,0.1-1.5,0.9-1.8,1.3c0,0.1-0.1,0.1-0.1,0.2c0,0-0.1-0.1-0.1-0.1
		c-0.1-0.3-0.2-0.7-0.3-1.1c0-0.6,0.2-1.1,0.4-1.4c0.1-0.1,0.1-0.2,0.2-0.3c0.7-0.9,1.3-1.8,1.4-2.6c0.4,0.1,0.7,0.2,1,0.2
		c0.8,0,1.3,0,1.7,0c0.5,0,0.7,0,1.1,0.3C200.5,122.7,200.6,123.6,200.7,124.9z M196.9,121.7c0.1,0.6-0.9,1.8-1.3,2.3
		c-0.1,0.1-0.2,0.3-0.3,0.4c0,0-0.1,0.1-0.1,0.2c-0.2-0.6-0.4-1.2-0.6-1.8c0,0,0.1,0,0.1,0c0.4,0,0.6-0.1,0.8-0.3
		c0.3-0.3,0.2-0.8,0.1-1.2C196.1,121.3,196.5,121.5,196.9,121.7z M194.6,120.4c0,0.2,0.1,0.4,0.2,0.6c0.1,0.2,0.2,0.6,0.2,0.7
		c0,0,0,0-0.2,0c-0.1,0-0.3-0.1-0.4-0.1c-0.2-0.6-0.4-1.1-0.6-1.7C194,120.1,194.3,120.3,194.6,120.4z M191.5,112.1
		c0.6,0,0.9-0.2,1.2-0.4c0.1-0.1,0.2-0.2,0.4-0.2c0.1,0,0.1,0.1,0.2,0.1c-0.1,0.1-0.1,0.1-0.2,0.2c-0.2,0.2-0.4,0.4-0.5,0.5
		c-0.2,0.2-0.4,0.3-0.6,0.4c-0.2,0.1-0.3,0.2-0.5,0.3c-0.1-0.3-0.2-0.6-0.3-0.9C191.2,112.1,191.3,112.1,191.5,112.1z M194.5,129.8
		c0,0.2,0,0.6,0.1,1c-0.3-1-0.7-1.9-0.7-2.6c0-0.4-0.4-2.2-1-4.8C193.8,126.1,194.5,128.8,194.5,129.8z M214,122.9
		c0.2-0.1,0.3-0.1,0.5-0.2c0.1,0.1,0.3,0.1,0.4,0.2c0.3,0.2,0.6,0.4,0.9,0.7c-0.1,0.1-0.1,0.1-0.1,0.2c-0.3,0.4-0.4,0.4-0.6,0.3
		c-0.2-0.1-0.4-0.2-0.5-0.3c-0.8-0.4-1.2-0.3-2.1,0.7c-0.4,0.4-0.6,0.6-0.7,0.8c-0.4,0.4-0.4,0.6-0.4,1.3c0,0.4,0.1,0.7,0.1,1
		c0,0.1,0,0.2,0,0.2c-0.3-0.2-0.7-0.4-0.9-0.6c0.2-0.9,0.3-1.5,1.2-3c0.5-0.7,0.6-0.8,0.7-0.8c0.2,0,0.5,0,0.9-0.2
		C213.5,123.1,213.8,123,214,122.9z M214.3,130c-0.6-0.4-1.3-0.9-2.1-1.5c0.2-0.3,0.1-0.6,0-1c0-0.2-0.1-0.5-0.1-0.8
		c0-0.2,0-0.4,0-0.5c0,0,0.1-0.1,0.1-0.1c0.2-0.1,0.4-0.4,0.8-0.9c0.4-0.5,0.6-0.6,0.6-0.6c0,0,0.2,0.1,0.3,0.1
		c0.2,0.1,0.4,0.2,0.7,0.3c0.8,0.3,1.3-0.3,1.6-0.6c0,0,0.1-0.1,0.1-0.1c0.1,0.1,0.1,0.1,0.2,0.2c-0.1,0.2-0.4,0.6-0.9,1.1
		c-0.1,0.1-0.2,0.3-0.3,0.3c-0.2,0.2-0.1,0.5,0.1,0.7c0.2,0.2,0.5,0.1,0.7-0.1c0.1-0.1,0.2-0.2,0.3-0.3c0.4-0.4,0.7-0.8,1-1.2
		c0.1,0,0.2,0.1,0.3,0.1c-0.3,0.4-0.8,0.9-1,1.1c-0.2,0.2-0.4,0.4-0.5,0.5C216.1,127.1,215.1,128.7,214.3,130z M209.8,120
		c-0.2,0-0.4,0.1-0.5,0.2c-0.1,0.1-0.3,0.4-0.2,0.9c0.2,0.5,0.4,0.9,0.5,1.1c0.1,0.1,0.2,0.3,0.2,0.3c0,0,0,0-0.1,0.1
		c-0.2,0.2-0.2,0.5,0,0.7c0.2,0.2,0.5,0.2,0.7,0.1c0.7-0.6,0.4-1.1,0.2-1.6c-0.1-0.2-0.3-0.5-0.4-0.9c0.2,0,0.5,0.1,1,0.2
		c0.3,0.3,0.6,0.6,1,0.7c0.1,0,0.3,0.1,0.5,0.2c0.2,0.1,0.5,0.2,0.7,0.2c-0.2,0.1-0.3,0.1-0.5,0.2c-0.1,0.1-0.2,0.1-0.3,0.1
		c-0.6-0.1-0.9,0.2-1.6,1.3c-0.9,1.5-1.1,2.2-1.3,3c-0.6-0.3-1.7-1.1-2.8-1.9c0-0.2,0-0.3,0-0.5c-0.1-0.7-0.2-2,0.1-2.4
		c0,0,0.1-0.1,0.2-0.1c1,0,1.7-0.8,1.9-1.5c0.1-0.2,0.1-0.4,0-0.6c0.1,0,0.3,0.1,0.4,0.1C209.6,119.9,209.7,119.9,209.8,120z
		 M197.6,114.4c-0.4,0.2-0.6,0.6-0.8,1.5c-0.1,0.3,0.1,0.5,0.3,0.6c0.3,0.1,0.5-0.1,0.6-0.3c0.2-0.7,0.3-0.9,0.3-0.9
		c0,0,0.2,0,0.3,0c0.2,0,0.6,0.1,1,0.1c0.1,0,0.1,0.1,0.2,0.1c0,0.3-0.2,0.9-0.3,1.3c-0.2,0.5-0.3,1-0.3,1.3c0,0,0,0.1,0,0.1
		c-0.2,0-0.5,0.1-0.8,0.4c-0.7,0.4-1.1,1.2-1.2,2.1c-1-0.5-2-1.1-2.8-1.7c0.1-0.5,0.3-1,0.3-1.7c0-0.4,0-0.4,0.4-0.6
		c0.2-0.1,0.6-0.2,1-0.6c0.6-0.5,1.1-1.3,1.3-2.1C197.2,114.1,197.4,114.3,197.6,114.4z M190.8,109.9c0,0,0,0.1,0,0.1
		c0,0.1,0,0.1,0,0.1c0,0-0.1,0.1-0.2,0.1c-0.1-0.2-0.1-0.4-0.2-0.6C190.5,109.7,190.6,109.8,190.8,109.9z M186,93.2
		c0.5,1.4,0.5,3.5,0.4,5.2c-0.4-1.1-0.9-2.4-1.2-3.4c-0.3-1.1-0.6-2.3-0.9-3.3c0.3,0.3,0.7,0.4,0.9,0.4
		C185.4,92.1,185.6,92.1,186,93.2z M177.9,70.8c0.3,0.6,0.5,1.2,0.5,1.4c0,1,1,3,1.7,3.9c0.2,0.3,0.4,1.3,0.5,2c0.1,1,0.3,2,0.6,2.8
		c0.5,1.2,0.8,3.2,1,4.7l0.1,0.7c0.2,1.1,0.6,3,1.4,4.3c0.3,1.2,0.7,3,1.1,4.4c0.4,1.4,1,3.2,1.6,4.5c0,0.1,0,0.1,0,0.2
		c0,0.5-0.1,0.8-0.1,1.1c0,0.7,0.3,1.4,0.6,2.1c0.2,0.5,0.4,1.1,0.4,1.5c0.1,1.3,2.2,10,3.5,13c0.2,0.4,0.4,1,0.6,1.5
		c1.2,4.9,2.1,8.7,2.1,9.3c0,0.8,0.4,2,0.8,3.1c0.3,1,0.7,2,0.7,2.6c0,0.4,0.2,1.2,0.4,2.1c0.4,2.1,0.8,4.2,1,5.3
		c-1.2-0.2-2.8-0.4-3.1-0.4c-0.4,0-2.9-0.2-3.8-0.3c-0.2,0-0.4,0-0.7,0c0.2-2-0.8-4.2-1.7-6.1c-0.3-0.6-0.5-1.2-0.8-1.7
		c-0.6-1.5-0.5-2.1-0.3-3.4c0.1-0.7,0.2-1.6,0.3-3c0.2-4-1.5-7.9-3.3-9.7c-1.6-1.6-1.4-3.1-1-6.2l0.1-0.8c0.4-3.1,0.2-5-0.9-7.1
		c0,0,0,0,0,0c-0.4-0.9-0.6-1.7-0.9-2.8c-0.4-1.3-0.8-3-1.7-5.8c-1.1-3.3-1.7-7-2.1-9.4c-0.2-1.4-0.4-2.4-0.6-2.9
		c-0.5-1.3-1.2-3.9-1.2-5.3c0-1-0.5-1.9-1-2.8c-0.2-0.4-0.5-0.8-0.7-1.3c-0.4-0.9-0.8-2.3-1-3.2c0,0,0,0,0.1,0
		C173.4,69.3,176.8,70.4,177.9,70.8z M171.6,68.9c0.2,0.9,0.6,2.4,1.1,3.5c0.2,0.5,0.5,0.9,0.7,1.3c0.5,0.9,1,1.7,1,2.6
		c0,1.4,0.8,4.1,1.2,5.5c0.2,0.5,0.3,1.5,0.5,2.8c0.4,2.5,1,6.2,2.1,9.5c0.9,2.8,1.4,4.4,1.7,5.7c0.1,0.4,0.2,0.7,0.3,1c0,0,0,0,0,0
		c-2-2.8-4.7-11.3-4.7-11.4c0-0.1-0.2-0.2-0.3-0.2c-0.1,0-0.2,0.2-0.2,0.3c0.1,0.4,2.7,8.7,4.8,11.5c1.9,2.8,2.4,4.8,1.9,8.5
		l-0.1,0.8c-0.4,3.2-0.7,4.9,1.1,6.6c1.7,1.7,3.4,5.5,3.2,9.4c-0.1,1.3-0.2,2.2-0.3,2.9c-0.2,1.3-0.3,2,0.3,3.6
		c0.2,0.6,0.5,1.1,0.8,1.7c0.9,1.9,1.8,4,1.6,5.9c-0.5,0-1,0.1-1.3,0.3c-0.2,0-0.7-0.2-1.1-0.3c-0.3-0.1-0.5-0.2-0.8-0.2
		c-0.8-1.6-0.8-6.5-0.8-8.2c0-1.8-1-3.3-1.8-4.3c-0.2-0.3-0.4-0.5-0.5-0.7c-0.3-0.5-0.3-2.2-0.2-3.7c0-1.2,0.1-2.5,0-3.5
		c-0.2-1.3-0.7-2.3-1.3-3.4c-0.5-0.9-1-1.8-1.3-3c-0.7-2.6-0.6-7.5-0.6-7.6c0-0.1-0.1-0.2-0.2-0.2c-0.1,0-0.2,0.1-0.2,0.2
		c0,0.2-0.2,5,0.6,7.7c0.3,1.3,0.9,2.2,1.3,3.1c0.6,1,1.1,2,1.2,3.2c0.1,1,0.1,2.2,0,3.4c0,1.8-0.1,3.4,0.3,4
		c0.1,0.2,0.3,0.5,0.5,0.7c0.7,1,1.7,2.3,1.7,4c0,3,0.1,6.5,0.8,8.1c0,0,0,0,0,0c-0.3,0-0.9-0.5-1.3-0.9c-0.3-0.7-0.3-2.2-0.4-3.6
		c-0.1-2.1-0.1-4.3-1-5.3c-1.2-1.3-1.6-5.9-1.7-7.8c0-1.9-1.3-5.7-2.4-7.8c-0.6-1.2-1.1-3.7-1.5-6.2c-0.3-1.7-0.6-3.4-0.9-4.7
		c-0.9-3.5-1-9.4-1-9.5c0-0.7-1.1-2.6-2.7-5.4c-0.6-1-1.2-2-1.4-2.5c-0.5-1.1-2.1-5.5-2.8-7.5c0-0.2,0.1-0.4,0.1-0.6
		c0.7-3,1.6-6.5,1.8-7.8c0.4,0.8,0.9,1.8,1.4,2.9c0.7,1.5,0.8,2.2,0.9,2.9c0.1,0.5,0.1,1,0.4,1.7c0.7,1.8,1.8,5.1,1.9,6.3
		c0,0.1,0.1,0.2,0.2,0.2c0,0,0,0,0,0c0.1,0,0.2-0.1,0.2-0.3c-0.1-1.5-1.8-5.9-2-6.4c-0.2-0.7-0.3-1.1-0.4-1.6
		c-0.1-0.8-0.2-1.6-0.9-3.1c-0.7-1.4-1.3-2.6-1.7-3.4c0.1-0.4,0.2-0.9,0.3-1.4C170.5,68.7,171,68.8,171.6,68.9z M174.1,144
		c-0.1-0.3-0.3-0.8-0.4-1.2c-0.1-0.4-0.1-0.9-0.1-1.5c0-0.6-0.1-1.4-0.2-2.1c-0.2-1.5-0.7-2.5-0.7-2.5c-0.1-0.1-0.2-0.2-0.3-0.1
		c-0.1,0.1-0.2,0.2-0.1,0.3c0,0,0.5,0.9,0.7,2.4c0.1,0.7,0.1,1.5,0.2,2.1c0,0.6,0,1.1,0.1,1.5c0.1,0.5,0.3,0.9,0.4,1.3
		c-0.8,0.3-1.2,0.6-1.8,1l-0.4,0.3c-0.4,0.3-1.6,0.8-2.7,1.2c-0.5-0.6-1.3-2.6-2.2-9l0-0.2c0-0.1,0-0.1,0-0.2c0-0.1,0-0.3,0-0.4
		c0-1.5-1.1-5-1.9-7.6c-0.1-0.3-0.3-1-0.6-2c0-0.2,0-0.3,0-0.4c0-0.8-0.5-2.7-1-4.6c-0.5-2-1-4.2-1-5c0-1-0.6-2.6-1-3.6
		c0.4-1.4,0.8-2.7,1.2-4c0.1,0.4,0.2,0.9,0.2,1.5c0.1,1.1,0.4,2.2,0.6,3.1c0.2,0.7,0.4,1.4,0.4,1.9c0,1.2,1.2,3.9,1.3,4
		c0,0.1,0.1,0.1,0.2,0.1c0,0,0.1,0,0.1,0c0.1-0.1,0.2-0.2,0.1-0.3c0,0-1.2-2.8-1.2-3.8c0-0.5-0.2-1.2-0.4-2c-0.3-0.9-0.6-2-0.6-3
		c-0.1-0.9-0.3-1.7-0.5-2.2c0-0.1,0-0.1,0.1-0.2c0.3-1,0.6-1.9,0.9-2.8c0.4,1,0.8,2.1,0.8,2.9c0,1.4,0.2,5.6,1.1,8.3
		c0.3,0.9,0.9,2.3,1.5,3.8c1,2.3,2.1,5,2.2,6c0,0.1,0.1,0.2,0.2,0.2c0,0,0,0,0,0c0.1,0,0.2-0.1,0.2-0.3c-0.2-1.1-1.2-3.7-2.3-6.2
		c-0.6-1.5-1.2-2.9-1.5-3.8c-0.9-2.5-1.1-6.7-1.1-8.1c0-1.1-0.6-2.6-1.1-3.7c0.2-0.6,0.3-1.1,0.4-1.6c0.1-0.5,0.2-1,0.3-1.5
		c0.8,1.8,1.9,4.6,1.9,6.2c0.1,2.7,1.3,7.1,1.6,7.9c0,0.1,0.1,0.2,0.2,0.2c0,0,0.1,0,0.1,0c0.1,0,0.2-0.2,0.1-0.3
		c-0.3-0.8-1.5-5.2-1.5-7.7c0-1.9-1.4-5.3-2.2-7.1c0.3-1.4,0.5-2.7,0.6-3.9c0.6,2.2,1.5,5.2,2.2,7.2c0.4,1.3,0.9,2.3,1.3,3.2
		c0.6,1.4,1.1,2.5,1.1,3.7c0,0.1,0.1,0.2,0.2,0.2c0.1,0,0.2-0.1,0.2-0.2c0-1.3-0.5-2.4-1.1-3.9c-0.4-0.9-0.8-1.9-1.3-3.2
		c-0.8-2.4-1.9-6.2-2.5-8.3c0.1-0.8,0.2-1.4,0.2-1.9c0-0.1,0-0.2,0-0.3c0.3,0.5,0.6,1.5,0.7,2.3c0,0.2,0,0.5,0.1,0.8
		c0.1,0.4,0.1,0.5,0.3,0.5c0,0,0,0,0,0c0.1,0,0.2-0.1,0.2-0.1c0-0.1,0-0.6-0.1-1.3c0-0.6,0-1.2,0-1.7c0-0.3,0-0.6,0-1
		c0-0.8-0.6-1.8-1-2.4c0-0.4,0.1-0.9,0.1-1.3c0.7,1.2,1.3,2.7,1.4,4.1l0,0.4c0.1,2.8,0.2,3.1,0.5,5.8c0.2,1.7,0.8,2.9,1.3,3.8
		c0.3,0.6,0.5,1,0.6,1.4l0.1,1.1c0,0.1,0.1,0.2,0.2,0.2c0,0,0,0,0,0c0.1,0,0.2-0.1,0.2-0.3l-0.1-1.1c0-0.5-0.3-1-0.6-1.6
		c-0.5-0.9-1-2-1.3-3.7c-0.3-2.7-0.4-2.9-0.5-5.8l0-0.4c-0.1-1.8-1-3.7-1.8-4.9c0.1-0.9,0.2-1.8,0.3-2.6c0.6,0.5,1.2,1.4,1.3,2.4
		c0.1,1,0.4,2.4,0.7,3.7c0.3,1.5,0.6,2.9,0.7,3.7c0.1,1,0.4,2.1,0.8,3.3c0.2,0.7,0.4,1.3,0.6,2c0.1,0.4,0.3,1,0.5,1.7
		c0.8,2.9,2.4,8.3,2.2,11.4c0,0.1,0.1,0.2,0.2,0.2c0,0,0,0,0,0c0.1,0,0.2-0.1,0.2-0.2c0.1-3.1-1.4-8.6-2.2-11.5
		c-0.2-0.8-0.4-1.3-0.5-1.7c-0.2-0.7-0.4-1.3-0.6-2c-0.3-1.1-0.7-2.2-0.8-3.2c-0.1-0.8-0.4-2.3-0.7-3.8c-0.3-1.3-0.6-2.6-0.7-3.6
		c-0.2-1.4-1.1-2.4-1.7-3c0.1-0.7,0.2-1.3,0.3-1.8c0.6,0.7,1.3,1.8,1.5,2.6c0.2,1.2,0.8,3.5,1.4,4.5c0.6,0.9,1.3,2.2,1.3,3.1
		c0,0.1,0.1,0.2,0.2,0.2c0.1,0,0.2-0.1,0.2-0.2c0-1-0.7-2.4-1.3-3.4c-0.5-0.8-1.1-2.8-1.4-4.3c-0.2-1-1.2-2.3-1.8-3.1
		c0.1-0.3,0.1-0.6,0.2-0.8c0.1-0.4,0.2-0.9,0.3-1.4c0.8,2.2,1.9,5.3,2.4,6.2c0.2,0.5,0.8,1.5,1.4,2.5c0.9,1.5,2.6,4.4,2.6,4.9
		c0,0.2,0,6.1,1,9.7c0.3,1.3,0.6,3,0.9,4.6c0.4,2.6,0.9,5.1,1.6,6.5c1,2,2.3,5.6,2.3,7.4c0,1.6,0.5,6.7,1.9,8.4
		c0.6,0.7,0.7,2.8,0.8,4.7c0,1.4,0.1,2.8,0.4,3.7c-0.2,0.2-0.4,0.4-0.7,0.4c-0.3,0.1-1.2,0.5-2.1,1c-0.1-0.5-0.2-1.3-0.3-1.9
		c-0.1-0.6-0.4-1.2-0.7-1.7c-0.2-0.4-0.4-0.7-0.5-1.1c-0.1-0.4,0-0.8,0.1-1.3c0.1-0.4,0.2-0.9,0.2-1.5c0-1-0.7-2.3-1.2-3.3
		c-0.2-0.3-0.3-0.6-0.4-0.9c-0.8-1.9-1.2-3.9-1.5-5.6c-0.1-0.7-0.3-1.5-0.4-2.1c-0.1-0.3-0.3-0.4-0.6-0.4c-0.3,0.1-0.4,0.3-0.4,0.6
		c0.1,0.6,0.3,1.3,0.4,2c0.3,1.8,0.7,3.8,1.5,5.8c0.1,0.2,0.3,0.6,0.5,0.9c0.5,0.9,1.1,2,1.1,2.8c0,0.5-0.1,0.9-0.2,1.3
		c-0.1,0.6-0.2,1.1-0.1,1.7c0.1,0.5,0.4,0.9,0.6,1.3c0.3,0.5,0.5,0.9,0.6,1.3c0.1,0.7,0.3,1.8,0.4,2.3c-0.7,0.4-1.4,0.9-1.8,1.3
		c-0.3,0.3-0.7,0.5-1,0.7c-0.2-0.9-0.7-2.7-0.7-3.8c0-0.7-0.3-1.6-0.6-2.7c-0.3-1.2-0.7-2.6-0.7-3.6c0-0.9-0.5-1.8-0.9-2.8
		c-0.6-1.1-1.2-2.3-1-3.6c0.3-2.5-2.4-7.9-2.5-8.1c-0.1-0.1-0.2-0.2-0.3-0.1c-0.1,0.1-0.2,0.2-0.1,0.3c0,0.1,2.7,5.6,2.4,7.9
		c-0.1,1.4,0.5,2.7,1.1,3.8c0.5,0.9,0.9,1.8,0.9,2.6c0,1.1,0.4,2.5,0.7,3.7c0.3,1,0.5,2,0.5,2.6c0,1.1,0.5,3,0.7,3.9
		c-0.3,0.1-0.6,0.2-0.9,0.3C174.4,143.9,174.2,143.9,174.1,144z M168.3,60.9c0.1,0.1,0.3,0.6,0.4,0.9c0,0.1,0.1,0.2,0.1,0.3
		c-0.1,0.4-0.3,0.6-0.4,0.8c0,0-0.1,0-0.1,0c-0.2,0-0.5-0.1-0.7,0c0.2-0.8,0.4-1.5,0.6-2.1C168.2,60.8,168.3,60.8,168.3,60.9z
		 M169.5,63.2c-0.2,0.6-0.4,1.5-0.7,2.5c-0.2-0.2-0.4-0.3-0.6-0.4c-0.4-0.2-0.7-0.3-0.7-1.1c0-0.4,0.1-0.5,0.1-0.5
		c0.1,0,0.2,0,0.3,0c0.3,0.1,0.6,0.1,0.9-0.1C169,63.6,169.2,63.4,169.5,63.2C169.4,63.2,169.4,63.2,169.5,63.2z M156.6,145.8
		c0,0,0,0.1,0,0.1c-1-0.3-2.1,0.4-3,1l-0.4,0.3c-0.1,0-0.2-0.2-0.2-0.3c-0.2-0.3-0.5-0.7-1-0.7c0,0-0.1,0-0.1,0c0-0.4-0.1-0.7-0.2-1
		l-0.1-0.3c0,0,0-0.1,0-0.1c0.2,0.1,0.3,0.2,0.5,0.2c0.4,0.2,0.9,0.5,1,0.6c0.6,0.6,1.4,0.2,2-0.1c0.5-0.2,1-0.5,1.5-0.4
		c0.1,0,0.2,0.1,0.2,0.1C156.6,145.5,156.6,145.6,156.6,145.8z M151.8,147.2c0.1,0.1,0.2,0.2,0.2,0.3c0.2,0.3,0.7,1,1.5,0.5l0.4-0.3
		c0.8-0.5,1.7-1.1,2.2-0.9c0,0,0.1,0,0.1,0c0,0.2,0,0.4,0,0.6l0,0.2c-1,0.1-1.7,0.8-2.2,1.3c-0.7,0.7-0.8,0.7-0.9,0.5
		c-0.4-0.3-0.9-0.5-1.3-0.7C151.9,148.3,151.9,147.7,151.8,147.2z M156.6,144.3c-0.8-0.2-1.5,0.1-2.1,0.4c-0.3,0.2-0.8,0.4-0.9,0.3
		c-0.3-0.3-0.7-0.5-1.2-0.8c-0.3-0.2-0.8-0.4-1.2-0.7c-0.1-0.3-0.1-0.7-0.2-1c0.4-0.3,0.8-0.2,1.5,0.1c0.5,0.2,0.9,0.3,1.4,0.3
		c0.4,0,1.3-0.1,2-0.5c0,0.2,0.1,0.4,0.2,0.5c0.1,0.1,0.1,0.2,0.2,0.3C156.5,143.6,156.7,143.9,156.6,144.3
		C156.7,144.3,156.7,144.3,156.6,144.3z M153,139.8c0,0-0.1,0-0.3,0c-0.8,0-1.7-0.3-2.3-0.8c-0.1-0.6-0.1-1.1-0.2-1.6
		c0.3-0.5,0.8-0.5,1.7-0.5c0.7,0,1.4,0,2-0.5c0.8-0.7,1.8-0.9,2.1-0.8c0,0.1-0.1,0.2-0.1,0.3c-0.2,0.5-0.4,1.1-0.4,1.6
		c0,0,0,0.2,0,0.5c-0.4-0.1-0.8-0.2-1.3,0c-1.3,0.3-1.3,1.2-1.3,1.6C152.9,139.7,152.9,139.8,153,139.8z M150.2,134
		c0.4,0.4,0.9,0.7,1.2,0.9c0.6,0.3,1.4,0.1,2.3-0.1c0.8-0.2,1.8-0.5,2.4-0.3c0,0,0,0,0.1,0c0,0.1,0,0.1,0,0.2c-0.7-0.2-2,0.1-3,1.1
		c-0.2,0.2-0.7,0.2-1.3,0.2c-0.5,0-1.2,0-1.8,0.3C150.1,135.4,150.2,134.7,150.2,134z M156.3,129.9c0,0.1,0,0.2,0,0.3
		c-0.7,0.1-1.6,0.5-2.9,1.1c-0.2,0.1-0.7-0.2-1-0.4c-0.6-0.3-1.1-0.6-1.7-0.5c0.1-1,0.2-2.1,0.4-3.2c0.2,0.1,0.5,0.1,0.8,0
		c0.3-0.1,0.5,0,0.7,0.1c0.4,0.3,0.7,1.2,0.8,2.3c0,0.4,0,0.8,0.4,0.9c0.4,0.1,0.6-0.2,0.7-0.5c0.4-0.6,0.8-1.2,1.7-1.2
		c0.1,0,0.1,0,0.2,0C156.4,129.3,156.3,129.6,156.3,129.9z M150.6,131.6c0-0.2,0.1-0.3,0.2-0.3c0.2-0.1,0.7,0.2,1.1,0.4
		c0.6,0.3,1.3,0.7,1.9,0.4c1.1-0.5,1.8-0.8,2.4-0.9c-0.1,1.1-0.1,1.8-0.1,2.3c-0.9-0.2-1.8,0.1-2.7,0.3c-0.6,0.2-1.4,0.4-1.6,0.2
		C150.8,133.5,150.2,132.9,150.6,131.6z M156.5,128.1c-0.1,0-0.2,0-0.3,0c-0.9,0-1.6,0.4-2,0.9c-0.1-0.8-0.4-1.8-1.1-2.3
		c-0.4-0.3-0.9-0.4-1.5-0.3c-0.2,0-0.4,0-0.5,0c0-0.2,0.1-0.4,0.1-0.7c0.3-0.1,0.5-0.1,0.9,0c0.4,0.1,0.8,0.1,1.5,0.1
		c0.4,0,0.4,0.1,0.6,0.4c0.1,0.3,0.3,0.9,1,0.9c0.1,0,0.3,0,0.5,0c0.3,0,0.6,0.1,1,0C156.6,127.4,156.5,127.8,156.5,128.1z
		 M156.9,124.4c-0.5-0.2-0.8-0.3-0.9-1c-0.2-1.3-1.4-1.4-2.2-1.4c-0.3,0-0.7,0-0.8-0.1c0,0,0-0.1,0.2-0.6c0.2-0.4,0.4-0.6,0.7-0.7
		c0.5-0.1,1.2,0.3,1.8,0.7c0.6,0.4,1.1,0.7,1.6,0.6c0.1,0,0.1,0,0.2-0.1C157.3,122.7,157.1,123.6,156.9,124.4
		C157,124.4,156.9,124.4,156.9,124.4z M153.6,115.8c0.2,0.1,0.4,0.2,0.5,0.3c0.5,0.4,1.1,0.9,1.7,0.7c0.5-0.1,1-0.4,1.4-0.6
		c0.5-0.2,0.9-0.5,1.2-0.4c-0.2,0.9-0.3,1.8-0.5,2.8c-0.4-0.1-0.8-0.3-1.2-0.4c-0.7-0.2-1.8-0.6-2-0.9c-0.3-0.6-0.8-0.8-1.2-0.8
		C153.5,116.3,153.6,116,153.6,115.8z M159,113.6c-0.2,0-0.4-0.1-0.6-0.1c-0.4,0-0.7,0-1,0c-1.6-0.1-1.8-0.1-1.9-0.7
		c-0.1-0.6-0.3-0.9-0.5-1.2c0,0,0-0.1-0.1-0.1c0,0,0,0,0.1,0c0.3-0.2,0.5-0.2,0.9-0.2c0.4,0,0.8,0,1.6-0.2c0.7-0.1,1.2,0.1,1.7,0.2
		c0.1,0,0.2,0.1,0.3,0.1C159.3,112.1,159.1,112.9,159,113.6z M159.7,119.4c0.3,0.9,0.6,1.9,0.9,3c-0.5,0.3-1,0.6-1.5,1
		C159.3,122,159.5,120.7,159.7,119.4z M160.7,107.8c-0.1,0.3-0.2,0.7-0.3,1.1c-0.1-0.1-0.1-0.1-0.2-0.2c-0.3-0.3-0.6-0.7-0.8-1.2
		c-0.2-0.4-0.4-0.6-0.6-0.6c-0.5-0.2-1.1,0.1-1.6,0.5c-0.3,0.2-0.7,0.4-0.9,0.4c0,0,0,0-0.1-0.1c-0.3-0.5,0.1-1.2,0.3-1.3
		c0.4-0.5,0.9-0.7,1.2-0.7c0.2,0.1,0.6,0.3,1,0.5c0.8,0.5,1.6,0.9,2.2,0.8C160.8,107.3,160.7,107.6,160.7,107.8z M161.6,104.8
		c-0.3-0.8-1.1-1.3-1.8-1.7c-0.8-0.5-1.2-0.7-1.1-1.1c0.1-0.4,0.2-0.5,0.2-0.6c0.1-0.1,0.4,0,0.7,0c0.3,0.1,0.7,0.1,1.1,0.1l0.3,0
		c0.5,0,1,0,1.4-0.1c-0.1,0.5-0.2,1-0.3,1.4C162,103.5,161.8,104.1,161.6,104.8z M158.8,98c0.1,0.2,0.2,0.5,0.3,0.7
		c0.2,1,1.5,1,2.5,0.9c0.4,0,0.9,0,1.2,0.1c0,0.2-0.1,0.5-0.1,0.7c-0.3,0.2-1,0.2-1.6,0.2l-0.3,0c-0.3,0-0.6-0.1-0.9-0.1
		c-0.5-0.1-1-0.2-1.4,0.1C158.5,99.7,158.6,98.8,158.8,98z M159.4,96c0.4,0,0.6,0.4,0.9,0.9c0.2,0.4,0.4,0.8,0.8,0.9
		c0.1,0,0.4,0,0.6-0.1c0.4-0.3,0.7-0.9,1-1.5c0.2-0.3,0.4-0.9,0.5-1c0,0,0.1,0,0.1,0c-0.1,1-0.3,2.2-0.5,3.6
		c-0.4-0.1-0.9-0.1-1.4-0.1c-0.5,0-1.4,0.1-1.5-0.2c-0.1-0.4-0.3-0.9-0.5-1.3c-0.1-0.2-0.2-0.4-0.3-0.6
		C159.3,96.4,159.3,96.2,159.4,96z M160.2,93c0.2,0.1,0.5,0.3,0.7,0.6c0.7,0.9,1.5,0.7,2.1,0.5c0.2-0.1,0.4-0.1,0.5-0.1
		c0,0.1,0,0.1,0,0.2c0,0,0,0,0,0c-0.8-0.2-1.2,0.7-1.6,1.5c-0.2,0.4-0.4,0.8-0.6,1c-0.1-0.1-0.1-0.2-0.2-0.3
		c-0.3-0.5-0.7-1.1-1.4-1.3C160,94.4,160.1,93.7,160.2,93z M162.7,93.2c-0.5,0.2-0.8,0.2-1.1-0.2c-0.5-0.6-0.9-0.8-1.3-1
		c0.4-0.6,1.1-1.4,2.1-2.2c0,0.2,0,0.4,0,0.6c0,0.7,0.1,1.2,0.5,1.5c0.1,0.1,0.4,0.1,0.7,0c0,0,0,0,0,0c0,0.4-0.1,0.8-0.1,1.2
		C163.3,93.1,163,93.2,162.7,93.2z M165.6,91.7c0.3,0.5,0.6,1.2,0.6,1.6c0,0.3,0,0.6,0,0.9c0,0,0,0,0,0c-0.2-0.5-0.4-0.9-0.6-1.1
		c0,0-0.1-0.1-0.1-0.1C165.5,92.7,165.6,92.3,165.6,91.7z M161.8,85.1c0,0,0.1-0.1,0.1-0.1c0.2-0.2,0.3-0.1,0.8,0.4
		c0.3,0.3,0.6,0.6,1.1,0.6c0.2,0,0.4-0.1,0.6-0.2c0,0.2-0.1,0.5-0.1,0.7c-0.8-0.1-1.5,0.4-2,0.8c-0.2,0.1-0.5,0.4-0.5,0.4
		c-0.2-0.2-0.3-0.6-0.4-1C161.6,86.1,161.7,85.6,161.8,85.1z M162.4,82.8c0.1,0.1,0.2,0.1,0.3,0.1c0.4,0.1,0.6-0.3,0.8-0.6
		c0.1-0.1,0.3-0.5,0.4-0.5c0,0,0,0,0.1,0.1c0.7,0.7,0.7,2.3-0.1,3.1c0,0-0.1,0.1-0.1,0.1c-0.1,0-0.3-0.2-0.4-0.3
		c-0.3-0.3-0.7-0.8-1.4-0.7C162.2,83.5,162.3,83.2,162.4,82.8z M165.5,74.4c0.5,0.3,1.1,0.6,1.2,0.9c0,0.1,0,0.1-0.1,0.2
		c-0.1,0-0.4,0-0.6,0c-0.3,0-0.6,0-0.9,0C165.3,75.1,165.4,74.7,165.5,74.4z M165,76.7c0.1-0.2,0.3-0.3,1-0.2c0.1,0,0.3,0,0.4,0
		c-0.1,0.3-0.2,0.7-0.2,1c-0.3-0.4-0.7-0.6-1-0.6C165.1,76.8,165,76.8,165,76.7C165,76.7,165,76.7,165,76.7z M165.1,81.8
		c-0.1-0.2-0.3-0.5-0.5-0.6c-0.3-0.3-0.7-0.3-0.9-0.3c-0.3,0-0.5,0.2-0.7,0.4c0.1-0.4,0.2-0.9,0.5-1.2c0.1-0.1,0.3-0.4,0.5-0.4
		c0.2,0,0.4,0,0.6,0c0.4,0,0.7,0,1-0.1C165.4,80.4,165.2,81.2,165.1,81.8z M166.9,74.1c-0.3-0.3-0.7-0.5-1.1-0.6
		c-0.1,0-0.1-0.1-0.2-0.1c0-0.2,0-0.3,0.1-0.4c0.2,0,0.4,0,0.6,0c0.3,0,0.6,0,0.9-0.1C167.1,73.2,167,73.7,166.9,74.1z M167.4,70.6
		c-0.3,0-0.4,0-0.4-0.3l-0.1-0.3c-0.1-0.3-0.3-1.1-0.4-1.7c0-0.1,0-0.2,0.1-0.3c0.2,0.6,0.4,1.1,0.8,1.3c0.1,0.1,0.4,0.1,0.6,0
		c-0.1,0.5-0.2,0.9-0.2,1.2c0,0,0,0.1,0,0.2C167.6,70.6,167.5,70.6,167.4,70.6z M167,65.5c0.2,0.4,0.6,0.6,0.9,0.7
		c0.3,0.1,0.4,0.2,0.5,0.4c0.1,0.2,0.1,0.4,0.1,0.7c0,0.1,0,0.1,0,0.2c-0.1,0.4-0.4,0.7-0.7,0.8c-0.1-0.2-0.2-0.5-0.3-0.8
		c-0.1-0.5-0.3-0.9-0.6-1.2C166.8,66.1,166.9,65.8,167,65.5z M166.1,70.7c0.3,0.8,0.9,0.8,1.2,0.9c0,0,0,0,0,0c0,0,0,0.1,0,0.1
		c0,0.2-0.2,0.3-1,0.3c-0.1,0-0.3,0-0.4,0C165.9,71.6,166,71.2,166.1,70.7z M164,78.3c0.1-0.3,0.2-0.5,0.3-0.8
		c0.2,0.1,0.4,0.2,0.5,0.2c0.4,0.1,0.5,0.2,0.5,0.4c0,0.4-0.1,0.5-0.1,0.5c-0.1,0-0.4,0-0.6,0c-0.2,0-0.4,0-0.6,0
		c-0.1,0-0.1,0-0.2,0C163.9,78.6,164,78.5,164,78.3z M161,88.2C161,88.2,161,88.2,161,88.2c0.1,0,0.1,0.1,0.2,0.1
		c0.6,0.6,1.3,0,1.8-0.3c0.5-0.4,0.9-0.7,1.2-0.6c-0.1,1-0.2,1.9-0.3,2.8c-0.1,0.2-0.2,0.4-0.4,0.5c0-0.1,0-0.3,0-0.4
		c0-0.7-0.1-1.4-0.5-1.6c-0.2-0.1-0.5-0.1-0.8,0.2c-0.6,0.5-1.2,1-1.6,1.5C160.6,89.8,160.8,89.1,161,88.2z M158,102.9
		c0.3,0.4,0.8,0.7,1.3,1c0.9,0.5,1.5,1,1.5,1.8c0,0.3-0.1,0.4-0.1,0.4c-0.2,0.1-1.2-0.5-1.6-0.7c-0.5-0.3-0.9-0.5-1.3-0.6
		c-0.2,0-0.4,0-0.6,0C157.6,104.2,157.9,103.7,158,102.9z M155.5,108.3c0.2,0.2,0.4,0.3,0.5,0.4c0.5,0.1,1.1-0.2,1.6-0.5
		c0.2-0.1,0.7-0.4,0.8-0.4c0,0,0,0,0,0.1c0.2,0.6,0.6,1.1,0.9,1.4c0.3,0.3,0.5,0.6,0.5,0.8c0,0.1-0.1,0.3-0.1,0.4
		c-0.1,0-0.2-0.1-0.2-0.1c-0.5-0.2-1.2-0.5-2.2-0.3c-0.7,0.1-1.2,0.2-1.5,0.2c-0.4,0-0.7,0-1,0.2c0.1-0.2,0.1-0.4,0.2-0.7
		C155.2,109.2,155.4,108.7,155.5,108.3z M154.4,112.4c0.1,0.2,0.1,0.3,0.2,0.6c0.2,1.4,1.3,1.4,2.8,1.4c0.3,0,0.6,0,1,0
		c0.2,0,0.3,0,0.4,0.1c0,0.1-0.1,0.3-0.1,0.4c-0.6-0.1-1.3,0.2-1.9,0.5c-0.4,0.2-0.8,0.4-1.1,0.5c-0.2,0.1-0.6-0.2-0.9-0.5
		c-0.3-0.2-0.6-0.4-0.9-0.6c0-0.2,0.1-0.3,0.1-0.5C154.1,113.8,154.2,113.1,154.4,112.4z M152.5,119.8c0.3-0.9,0.5-1.7,0.7-2.3
		c0.4,0,0.5,0.1,0.6,0.3c0.3,0.7,1.4,1.1,2.6,1.4c0.4,0.1,1,0.3,1.4,0.5c-0.1,0.4-0.1,0.8-0.2,1.2c-0.2,0.1-0.3,0.1-0.6,0.2
		c-0.1,0-0.6-0.3-0.9-0.5c-0.7-0.5-1.6-1-2.5-0.8c-0.5,0.1-1,0.5-1.3,1.1c-0.1,0.1-0.1,0.2-0.2,0.3
		C152.3,120.7,152.4,120.2,152.5,119.8z M152.1,122.3c0.3,0.5,0.9,0.6,1.6,0.6c1,0.1,1.3,0.2,1.4,0.6c0.2,1.3,1.1,1.6,1.6,1.8
		c0.1,0,0.2,0.1,0.2,0.1c0,0.2-0.1,0.5-0.1,0.7c-0.3,0.1-0.7,0-1,0c-0.2,0-0.4,0-0.6,0c0,0-0.1-0.1-0.1-0.2
		c-0.1-0.4-0.3-1.2-1.5-1.1c-0.6,0-1,0-1.3-0.1c-0.3,0-0.6-0.1-0.9,0c0.2-1,0.4-1.9,0.6-2.9C152,122,152,122.2,152.1,122.3z
		 M152.7,140.8c1.2,0,1.2-0.8,1.2-1.1c0-0.4,0-0.5,0.6-0.7c0.3-0.1,0.6-0.1,0.8,0.1c0.1,0.1,0.2,0.2,0.3,0.4c0,0.7,0.1,1.4,0.2,2
		c-0.3,0.3-1,0.5-1.9,0.6c-0.3,0-0.7-0.1-1-0.2c-0.6-0.2-1.3-0.5-2-0.2c-0.1-0.4-0.1-0.8-0.2-1.2C151.3,140.6,152,140.8,152.7,140.8
		z M152,149.9c0.2,0.1,0.5,0.2,0.6,0.4c0,0,0.1,0,0.1,0.1H152C152,150.2,152,150,152,149.9z M154.9,149.7c0.5-0.5,0.9-0.9,1.6-1
		c0,0.3,0,0.7,0,0.9c0,0.2-0.3,0.6-0.5,0.8h-1.8C154.5,150.1,154.7,149.9,154.9,149.7z M159,124c0.6-0.4,1.2-0.8,1.8-1.1
		c0.1,0.5,0.3,0.9,0.4,1.4c-0.8,0.5-1.7,1.2-2.5,1.8C158.8,125.3,158.9,124.6,159,124z M160.5,115.4c0.1-0.4,0.2-0.8,0.3-1.1
		c0.4,0.9,0.7,2,0.7,2.8c0,0.9,0.5,3,1,5.1c0,0.1,0,0.1,0.1,0.2C161.7,119.3,160.8,116.2,160.5,115.4z M183,140.4
		c0.3,0.2,0.7,0.6,1.1,0.7c-0.2,0.2-0.5,0.4-0.7,0.6c-0.6,0.7-2.1,0.3-3-0.1c0.7-0.4,1.3-0.7,1.6-0.7
		C182.4,140.8,182.7,140.6,183,140.4z M177.5,143.5c0.5-0.4,1.4-1,2.3-1.5c0.1,0.1,1.4,0.6,2.5,0.6c0.5,0,1.1-0.1,1.4-0.5
		c0.4-0.4,0.8-0.7,1.1-0.8c0.2,0,0.7,0.2,1,0.3c0.9,0.3,1.6,0.5,1.9,0.1c0.1,0,0.2-0.1,0.3-0.1c-0.7,0.8-2.4,1.4-3.2,1.4
		c-0.7,0-0.8,0.1-1.3,0.3c-0.3,0.1-0.8,0.3-1.7,0.6c-1.4,0.5-3.6,0.2-5,0C177.1,143.8,177.3,143.7,177.5,143.5z M126.5,145.1
		c0-1.1-0.8-1.2-1.2-1.2c-0.1,0-0.1,0-0.2,0c0.3-0.4,1.2-1.1,3.1-2.4c1.9-1.2,3.6-2,4.7-2.5c0,0.1,0,0.2,0,0.3
		c-2.1,0.9-4.4,2.5-4.6,2.6c-0.1,0.1-0.1,0.2-0.1,0.3c0,0.1,0.1,0.1,0.2,0.1c0,0,0.1,0,0.1,0c0,0,2.2-1.5,4.2-2.4
		c-0.1,0.9-0.1,1.5-0.1,1.8C130.6,142.4,127.8,144.3,126.5,145.1z M118.2,147.3c0-1.5,0.3-3.1,0.9-4.4c0.1-0.1,0-0.3-0.1-0.3
		c-0.1-0.1-0.3,0-0.3,0.1c-0.6,1.4-0.9,3-0.9,4.6c0,0,0,0,0,0l-1.1-0.4c0,0,0,0,0-0.1c0-4.3,2-8.1,5-9.6c0.1,0,0.1,0.1,0.1,0.1
		c0,0.2,0,0.3,0,0.5c-0.1,0.5-0.1,1,0.3,1.7c0.3,0.4,0.7,0.5,1,0.6c0.3,0.1,0.3,0.1,0.4,0.3c0,0.3,0,0.5,0,0.8
		c-2.1,1.2-3.5,3.8-3.6,6.8l-1.6-0.5C118.2,147.4,118.2,147.3,118.2,147.3z M133.2,135.3c-2.7,1.6-7.2,4-7.2,4.1
		c-0.1,0.1-0.2,0.2-0.1,0.3c0,0.1,0.1,0.1,0.2,0.1c0,0,0.1,0,0.1,0c0,0,4.2-2.3,6.9-3.9c-0.1,0.9-0.2,1.7-0.2,2.5
		c-1,0.5-2.9,1.4-5,2.7c-1.8,1.1-2.7,1.9-3.1,2.3c0,0,0-0.1,0-0.1c0-0.4,0-0.9-0.4-1.2c-0.1-0.1-0.1-0.6-0.1-1c0-0.3,0-0.5,0-0.8
		c-0.1-0.9-0.7-1.1-1.1-1.2c-0.2,0-0.3-0.1-0.3-0.1c1.5-0.9,7.3-4.2,10.5-5.9C133.3,133.8,133.3,134.6,133.2,135.3z M123.4,141.7
		c0,0.5,0.1,0.9,0.5,1.2c0,0.1,0,0.3,0,0.4c0,0.3,0,0.8,0.3,1.1c-1.1,0.9-1.9,2.5-1.9,4.3l-2-0.6
		C120.3,145.4,121.6,142.9,123.4,141.7z M124.6,144.7c0.2,0.1,0.4,0.1,0.6,0.1c0.1,0,0.3,0,0.3,0.1c0,0,0,0.1,0,0.1
		c-1.3,0.8-2.1,2.3-2.2,4l-0.6-0.2C122.7,147.1,123.5,145.6,124.6,144.7z M125.5,145.6c0,0.2,0,0.3,0,0.5c0,0.4-0.1,0.8,0.1,1.3
		c0.1,0.2,0.2,0.5,0.3,0.7c0.1,0.3,0.3,0.7,0.3,0.9c0,0.2,0.1,0.6,0.2,1l-2.4-0.8C123.9,147.7,124.5,146.4,125.5,145.6z M133.9,128
		c-0.1,0.9-0.3,2.6-0.5,4.5c-3.1,1.7-9.3,5.3-10.8,6.1c-0.1-0.2,0-0.4,0-0.7c0-0.2,0.1-0.4,0.1-0.6c0-0.7-0.5-0.9-0.8-1
		c0,0-0.1,0-0.1,0c0.7-0.5,2.4-1.5,4.9-2.8c2-1.1,2.3-1.5,2.7-2c0.3-0.4,0.6-0.8,1.8-1.7c1.2-0.9,2.1-1.4,2.7-1.9
		C133.9,128,133.9,128,133.9,128z M134.4,123.9c-2.9,1.4-5.4,3.5-5.4,3.6c-0.1,0.1-0.1,0.2,0,0.3c0,0.1,0.1,0.1,0.2,0.1
		c0.1,0,0.1,0,0.2-0.1c0,0,2.3-2,5.1-3.4c-0.1,1.1-0.2,2.1-0.3,2.8c-0.6,0.4-1.6,1.1-3,2.1c-1.3,0.9-1.6,1.4-1.9,1.8
		c-0.4,0.5-0.6,0.9-2.6,1.9c-2.5,1.3-4.2,2.4-5,2.9c-0.1-0.4-0.3-0.7-0.3-1.1c0-0.8-0.7-1.8-1.1-2.2c-0.1-0.2-0.5-1-0.8-2
		c0.1-0.1,0.3-0.3,0.4-0.4c0.1-0.1,0.2-0.2,0.2-0.2c0.3-0.2,2-0.7,3-1.1c0.5-0.2,1-0.3,1.3-0.4c0.9-0.3,2-0.7,2.8-0.9l0.9-0.3
		c0.5-0.2,1.4-0.8,3.4-2.4c0.6-0.5,1.3-1,1.5-1.1c0.3-0.1,1.1-0.7,1.8-1.2C134.5,123.1,134.5,123.5,134.4,123.9z M19.4,72.7
		c0-0.4,0.2-0.7,0.5-0.9l7.4,0.8c-0.4,0.5-0.7,1.2-0.7,2v21.3l-7.1-1.2V72.7z M59.5,67.6c-0.5,0-1.2,0-1.9,0v-2.4c0.7,0,1.4,0,1.9,0
		V67.6z M59.9,68.6v1.1l-1.1-0.1c0,0-0.1,0-0.1,0v-0.9C59.2,68.6,59.6,68.6,59.9,68.6z M36.6,71.2C36.6,71.2,36.7,71.2,36.6,71.2
		C36.7,71.2,36.7,71.2,36.6,71.2l8.7-0.2L36.6,71.2C36.6,71.2,36.6,71.2,36.6,71.2z M35.7,70.6c-0.4,0.1-1.3,0.1-2.6,0.1
		c-1.3,0-2.2-0.1-2.6-0.1v-0.8c0.7,0,1.5,0,2.6,0c1.1,0,2,0,2.6,0V70.6z M29.6,71.3c0,0.1,0.1,0.1,0.2,0.2l-0.2,0
		c-0.5,0-0.9,0.1-1.3,0.3l-3.3-0.4l4.5-0.1C29.5,71.3,29.5,71.3,29.6,71.3z M28.4,74.6c0-0.7,0.5-1.2,1.2-1.2l36.9-1c0,0,0,0,0,0
		c0.3,0,0.6,0.1,0.9,0.3c0.2,0.2,0.4,0.5,0.4,0.9v21.7L28.4,96V74.6z M61.3,61.5c-0.1,0-0.2-0.1-0.3-0.1c-0.7-0.1-1.2-0.7-1.2-1.4
		c0-0.7,0.5-1.3,1.2-1.4c0.1,0,0.2,0,0.2-0.1c0.5,0,18.2-0.5,32.8-0.5c14.4,0,32,0.5,32.8,0.5c0.1,0,0.2,0.1,0.2,0.1
		c0.7,0.1,1.2,0.7,1.2,1.4c0,0.7-0.5,1.3-1.2,1.4c-0.1,0-0.2,0-0.3,0.1c-1,0-17.5-0.5-32.8-0.5C78.5,61,62.2,61.5,61.3,61.5z
		 M132.4,87.8C132.4,87.7,132.4,87.7,132.4,87.8c0.4-0.4,0.9-0.6,1.1-0.5c0,0,0.1,0,0.2,0.2c0,0.2-0.1,0.5-0.3,0.9
		c-0.2,0.3-0.4,0.8-0.6,1.4c-0.5,0.2-1.1,0.5-1.5,0.6c-0.2,0.1-0.4,0.1-0.6,0.2c0.1-0.2,0.3-0.3,0.5-0.4c0.6-0.2,1.1-0.8,1.3-1.6
		C132.5,88.4,132.4,88.1,132.4,87.8z M135.3,116.3c-1,0.6-3.4,2-3.9,2.3c-0.2,0.1-0.6,0.4-1.2,0.7c-0.1-0.4-0.2-0.7-0.4-1
		c1.3-0.9,3.9-2.7,5.8-4.3C135.5,114.7,135.4,115.5,135.3,116.3z M135.9,110.2c0,0.3-0.1,0.6-0.1,0.9c-1.6,1.8-6,4.8-7.5,5.8
		c0,0-0.1,0-0.1-0.1v-1.6c1-0.8,3.5-2.8,5-3.8c1-0.6,2-1.2,2.7-1.5C135.9,110.1,135.9,110.1,135.9,110.2z M132.9,121.3
		c-0.2,0-0.4-0.1-0.6-0.2c-0.3-0.1-0.7-0.3-1.1-0.3c0.7-0.4,1.2-0.7,1.2-0.7c0.1-0.1,0.3-0.2,0.6-0.4c0,0.3,0,0.6-0.1,0.9
		C133,120.9,133,121.1,132.9,121.3z M130,121.5c-0.3,0.4-0.5,0.9-0.8,1.4c-0.4,0.7-0.8,1.5-1.1,1.9c-0.1,0.1-0.1,0.1-0.1,0.1
		c-0.1,0-0.5-0.6-0.7-1.9C128.1,122.6,129.1,122,130,121.5z M125.5,123.9c-0.3,0.8-0.6,1.7-1,2.2c-0.2,0.2-0.3,0.3-0.3,0.3
		c-0.1,0-0.3-0.3-0.5-0.5c-0.2-0.2-0.3-0.4-0.6-0.6c0.6-0.4,1.4-1,1.6-1C124.9,124.1,125.2,124.1,125.5,123.9z M119.2,127.2
		c0.2-0.1,0.4-0.1,0.7-0.2c-0.2,0.3-0.3,0.5-0.5,0.7C119.3,127.5,119.3,127.3,119.2,127.2z M120.9,127c0.1-0.2,0.2-0.4,0.4-0.6
		c0.5-0.2,0.8-0.4,1.1-0.6c0.2,0.1,0.4,0.4,0.5,0.6c0.1,0.1,0.2,0.3,0.3,0.4c-0.3,0.1-0.6,0.2-0.9,0.3c-0.7,0.2-1.3,0.4-1.8,0.6
		C120.7,127.5,120.8,127.3,120.9,127z M126.5,124c0.1,0.5,0.4,1.1,0.7,1.5l-0.8,0.3c-0.2,0.1-0.5,0.2-0.7,0.2
		C126,125.4,126.2,124.6,126.5,124z M130.1,123.4c0.3-0.6,0.7-1.3,0.9-1.6c0.1-0.1,0.7,0.1,1,0.2c0,0-0.1,0-0.1,0
		C131.6,122.2,131.2,122.5,130.1,123.4C130.1,123.4,130.1,123.4,130.1,123.4C130.1,123.4,130.1,123.4,130.1,123.4z M133.9,120.7
		c0-0.8,0.1-1.3,0.5-1.7c0,0,0,0,0.1-0.1c0.2-0.1,0.3-0.2,0.5-0.3l-0.2,1.5C134.5,120.3,134.2,120.5,133.9,120.7
		C133.9,120.7,133.9,120.7,133.9,120.7z M136.6,105c0-0.1,0-0.2,0-0.2C136.6,104.9,136.6,105,136.6,105z M136,109.5
		c-0.8,0.3-1.9,0.9-3,1.6c-1.4,0.9-3.6,2.7-4.8,3.6v-2c1.1-1,3-2.6,4.3-3.4c0.6-0.4,1.3-0.7,1.9-0.9c0.7-0.3,1.4-0.6,1.9-1
		C136.2,108.1,136.1,108.8,136,109.5z M129.3,91.2c0.1-0.1,0.2-0.3,0.2-0.4c0,0.1,0,0.1,0,0.2c0,0.1,0,0.1,0,0.2
		C129.5,91.2,129.4,91.3,129.3,91.2c0,0.1-0.1,0.2-0.2,0.3C129.2,91.4,129.3,91.3,129.3,91.2z M126.9,118.5c0.1,0,0.2,0,0.3,0
		c0.6,0.1,1.1,0.7,1.1,1.3c0,0.2,0,0.3-0.1,0.4c0,0,0,0,0,0c-0.7,0.4-1.5,0.8-2.1,1.1c-0.1,0-0.1,0-0.2,0c-3,0.4-12.2,1.3-31.8,1.3
		c-11,0-19.2-0.4-24.3-0.7v-2.8c5,0.3,13,0.7,24.3,0.7C115.6,119.9,126.9,118.5,126.9,118.5z M74.4,141.2c1.3,1.5,6.1,1.6,10.6,1.5
		c0.3,0,0.6,0,0.7,0c0.3,0,0.6-0.1,0.9-0.4c0.8-0.9,0.9-3.1,1-4.1h13c0,1,0.1,3.3,1,4.1c0.2,0.3,0.6,0.4,0.9,0.4c0.2,0,0.4,0,0.7,0
		c0.5,0,1.3,0,2.1,0c0.8,0,1.7,0,2.6-0.1c-0.1,0.7-0.1,1.4,0,2c-6.3,0.4-13.6,0.4-13.7,0.4c-0.1,0-12.8,0.1-19.1-0.9
		c-2.2-0.4-4-0.9-5.3-1.4v-0.8c0.5,0.2,1.2,0.5,2.2,0.7c0,0,0.1,0,0.1,0c0.2,0,0.3-0.1,0.3-0.3c0-0.2-0.1-0.4-0.3-0.4
		c-1.2-0.3-1.9-0.6-2.4-0.8v-4.1c1.3,0.2,2.6,0.3,3.2,0.4C73,138.1,73.2,139.8,74.4,141.2z M109.3,136.4c-0.5,0.5-0.6,1.5-0.6,3.1
		l0,0.2c0,0.2-0.1,0.6-0.4,1.3c-2,0.1-4,0.1-5.2,0.1c-0.3,0-0.6,0-0.7,0c-0.2,0-0.3,0.1-0.4,0.2c-0.4-0.8-0.5-2.6-0.5-3.6
		c0-0.1,0-0.3-0.1-0.3c-0.1-0.1-0.2-0.1-0.3-0.1h-14c-0.1,0-0.3,0.1-0.3,0.1c-0.1,0.1-0.1,0.2-0.1,0.3c0,1.1-0.1,2.8-0.5,3.6
		c-0.1-0.1-0.2-0.2-0.4-0.2c-0.2,0-0.4,0-0.7,0c-5.8,0.1-9.1-0.3-9.9-1.2c-0.1-0.2-0.3-0.2-0.5-0.1c-0.7-1.4-0.7-2.9-0.7-2.9
		c0-0.3-0.2-0.5-0.4-0.5c0,0-1.9-0.2-3.8-0.5v-13c5.2,0.3,13.3,0.7,24.3,0.7c15.8,0,24.9-0.6,29.4-1c-1,0.6-2.2,1.5-2.3,1.6
		c-0.4,0.3-2.9,1.3-3.6,1.3c-1.9,0-3.2,2.9-3.3,2.9c-0.2,0.4-1.5,1.5-1.8,1.6c-1.2,0.3-1.9,3.3-1.9,3.8
		C110.6,134.4,109.6,136.1,109.3,136.4z M116.1,129.3c0.1-0.1,0.1-0.3,0.2-0.4c0,0.4,0,0.8,0,1c0,0,0,0,0,0
		c-0.2,0.1-0.5,0.1-0.8,0.2C115.8,129.8,116,129.5,116.1,129.3z M117.3,129.7c0-0.8,0.1-1.7,0.4-2.1c0,0,0.1-0.1,0.1-0.1
		c0.1,0,0.2,0,0.4,0c0.2,0,0.2,0.1,0.3,0.4c0,0.2,0.1,0.5,0.3,0.7c-0.2,0.1-0.3,0.3-0.4,0.4C118,129.2,117.8,129.4,117.3,129.7
		C117.3,129.7,117.3,129.7,117.3,129.7z M139.7,90.1c-0.3,1.1-0.5,2.1-0.7,3l-6.6,5.6c-0.1,0.1-0.1,0.2,0,0.3c0,0.1,0.1,0.1,0.2,0.1
		c0.1,0,0.1,0,0.2-0.1l6.1-5.2c-0.2,0.7-0.3,1.4-0.5,1.9c0,0.2-0.1,0.4-0.1,0.6c-0.8,0.5-1.9,1.4-2.9,2.6c-1.8,2-4.3,3.6-4.3,3.7
		c-0.1,0.1-0.1,0.2-0.1,0.3c0,0.1,0.1,0.1,0.2,0.1c0,0,0.1,0,0.1,0c0.1-0.1,2.6-1.7,4.4-3.7c0.8-1,1.7-1.7,2.4-2.2
		c-0.3,1.4-0.6,3.2-1,5.1c-0.1,0-0.1,0-0.2,0c-0.3,0-0.6,0.1-0.9,0.3c-0.1,0.1-0.2,0.2-0.4,0.3c-0.4,0.2-1,0.6-1.8,1.7
		c-1,1.5-3.2,2.5-3.2,2.5c-0.1,0.1-0.2,0.2-0.1,0.3c0,0.1,0.1,0.1,0.2,0.1c0,0,0.1,0,0.1,0c0.1,0,2.4-1.1,3.4-2.7
		c0.7-1.1,1.2-1.3,1.6-1.6c0.2-0.1,0.3-0.2,0.5-0.3c0.1-0.1,0.4-0.1,0.6-0.2c0,0,0,0,0.1,0c0,0.1,0,0.2,0,0.2
		c-0.1,0.1-0.3,0.2-0.5,0.3c-0.9,0.5-1,0.9-1.1,1.4c-0.1,0.3-0.2,0.7-0.5,1.3c-0.9,1.4-4.2,2.6-4.2,2.6c-0.1,0-0.2,0.2-0.1,0.3
		c0,0.1,0.1,0.2,0.2,0.2c0,0,0.1,0,0.1,0c0.1-0.1,3.4-1.3,4.4-2.8c0.4-0.6,0.5-1.1,0.6-1.5c0.1-0.5,0.2-0.7,0.9-1.1
		c0.1,0,0.1,0,0.1-0.1c0,0.1,0,0.2-0.1,0.4c-0.5,0.4-0.7,0.8-0.7,1.4c0,0.2,0.2,0.4,0.3,0.6c0,0.2-0.1,0.5-0.1,0.7
		c-0.5,0.7-1.3,1-2.2,1.4c-0.6,0.3-1.3,0.5-1.9,1c-1.2,0.8-2.9,2.2-4.1,3.2V94.9c0.6-0.5,1.9-1.7,2.4-2.2c0.2-0.1,0.8-0.4,1.2-0.5
		c1.1-0.4,2.3-0.9,2.9-1.7c0.3-0.4,1-0.8,1.6-1.1c0.4-0.2,0.9-0.5,1.3-0.8l0.7-0.6c0.6-0.5,1.6-1.3,2.2-1.8
		C140.3,87.7,140,88.9,139.7,90.1z M138.7,84.5c0.2-0.6,0.4-1.2,0.4-1.7c0,0,0,0,0,0c0.3-0.2,0.6-0.4,0.9-0.7c0,0.4,0.1,0.7,0.1,1.1
		c0.1,0.4,0.1,0.7,0.1,0.9c0,0,0,0.1-0.1,0.2c-0.3,0.2-0.9,0.6-1.7,1.3C138.4,85.2,138.6,84.8,138.7,84.5z M141.2,83.6
		C141.2,83.7,141.1,83.7,141.2,83.6c-0.1-0.2-0.1-0.4-0.2-0.6c-0.1-0.6-0.2-1.3-0.1-1.9c0.3-0.3,0.7-0.6,1.1-1
		C141.7,81.4,141.4,82.6,141.2,83.6z M137.7,83.2c0.1,0,0.2,0,0.3,0c-0.1,0.3-0.2,0.7-0.3,1c-0.3,0.8-0.5,1.5-0.2,2c0,0,0,0,0,0
		c-0.1,0.1-0.3,0.2-0.4,0.3l-0.7,0.6c-0.1,0.1-0.2,0.1-0.3,0.2c0.1-0.3,0.2-0.6,0.2-0.8c0.1-0.3,0.2-0.6,0.2-0.9
		c0.1-0.6,0-0.9-0.2-1.2c0,0,0,0-0.1-0.1C136.7,83.9,137.5,83.2,137.7,83.2z M135.6,85.7c0,0.2-0.1,0.3-0.1,0.5
		c-0.2,0.6-0.3,1.2-0.4,1.7c-0.3,0.1-0.5,0.3-0.8,0.5c0.2-0.4,0.2-0.7,0.2-1c-0.1-0.3-0.2-0.6-0.5-0.8
		C134.6,86.4,135.2,86.2,135.6,85.7z M131.2,88.7c0.1-0.1,0.1-0.1,0.2-0.2c-0.1,0.4-0.3,0.7-0.6,0.8c-0.7,0.2-1.1,0.8-1.2,1.4
		c0-0.2,0-0.4,0-0.6C130.2,89.6,130.8,89.1,131.2,88.7z M109.8,33.9h-4.6c0,0,0,0,0,0c-0.2,0-0.4-0.2-0.7-0.5c1.9,0,5.2-0.1,7.4-0.2
		c1.8-0.1,3.5-0.2,4.7-0.8v2.9C114.5,34.3,112.2,33.9,109.8,33.9z M114.1,8.9c-0.2,0.1-0.5,0.1-0.7,0.2c-0.8,0.2-1.8,0.5-3.3,0.7
		c-3.1,0.5-6.2,0.6-7.4,0.6V9.2c0-0.1-0.1-0.3-0.2-0.4c0,0-0.2-0.1-0.5-0.3c4.1-0.2,8.3-0.6,10.9-1.4C113,7.8,113.3,8.5,114.1,8.9z
		 M102.4,29.2c-0.1-0.3-0.3-0.5-0.6-0.6c-0.1,0-1.4-0.4-3.4-0.6v-2.8c0.2,0,0.4,0,0.6,0l1.1,0.1c0.3,0,0.5-0.2,0.5-0.4
		c0-0.2-0.1-0.3-0.2-0.4c1.1-0.6,1.8-1.9,1.8-3.5c0-2.1-1.3-3.8-3-3.8c0,0,0,0,0,0l-0.7,0.1v-0.3c0.1-0.1,0.3-0.6,1-0.8
		c0.5-0.1,1.5-0.2,2.8-0.2c1.5,0,3.4-0.1,5.6-0.3c4-0.4,6-0.7,7-1l0.1,0c0.4-0.1,1.2-0.3,1.7,0v16.4c-0.7,0.7-2.2,0.9-4.7,1
		c-2.5,0.2-6.3,0.2-8,0.2C103.3,31.5,102.8,30.4,102.4,29.2z M90,9.3c0.1-0.1,0.8-0.5,3.4-0.3v1.6c-0.3,0-0.6-0.1-0.9-0.1
		c-0.7-0.1-1.4-0.2-1.9-0.2c-0.3,0-0.5,0-0.6,0L90,9.3z M94.6,27.7c-1.1,0-2.1,0-3,0.1v-2.5c1.4-0.1,3.7-0.2,5.8-0.2v2.7
		C96.6,27.8,95.6,27.7,94.6,27.7z M101.2,20.9c0,1.1-0.5,2.1-1.2,2.6c-0.2,0.1-0.5,0.2-0.7,0.2c-1.2,0-2.2-1.2-2.2-2.7
		s1-2.7,2.2-2.7c0.3,0,0.5,0.1,0.8,0.2C100.7,18.8,101.2,19.8,101.2,20.9z M94.3,23.9l-0.2-2.2l0.1,0c0.1,0.9,0.5,1.7,1.1,2.3
		L94.3,23.9z M96.5,20.9c0,1.3,0.6,2.4,1.5,2.9l-0.9,0.1c-1.1,0-2.1-1.3-2.1-2.8s0.9-2.8,2.1-2.8l0.6,0C97,18.8,96.5,19.8,96.5,20.9
		z M91.6,15.5c0.5-0.1,1.5-0.3,2.9-0.3c1.4,0,2.4,0.2,2.9,0.3v0.4c-0.6-0.1-1.5-0.3-2.9-0.3c-1.4,0-2.3,0.1-2.9,0.3V15.5z
		 M94.5,14.8c-1.4,0-2.3,0.1-2.9,0.3v-2.9c0.5-0.1,1.4-0.3,2.9-0.3c1.4,0,2.4,0.2,2.9,0.3V15C96.8,14.9,95.9,14.8,94.5,14.8z
		 M90.9,11.4h-0.2c0,0,0,0,0,0c0,0,0,0,0,0C90.7,11.3,90.8,11.3,90.9,11.4C90.9,11.3,90.9,11.4,90.9,11.4z M91.6,16.4
		c0.5-0.1,1.5-0.3,2.9-0.3c1.4,0,2.4,0.2,2.9,0.3v0.9l-0.3,0c-1.6,0-2.8,1.5-3,3.4l-0.6,0c0,0-0.1,0-0.1,0c0,0,0,0,0,0l0,0
		c0,0,0,0,0,0l-1.8,0.5V16.4z M93.1,21.8l0.2,2.2l-2.8,0.5v-2L93.1,21.8z M89,11.1C89,11.1,89,11.1,89,11.1l-0.1,0
		c-0.3,0-0.5,0-0.7,0.1V9.6c0.2,0,0.6,0,0.8,0L89,11.1C89,11.1,89,11.1,89,11.1z M88.2,12.3h2.5v9.1l-0.7,0.2
		c-0.2,0.1-0.4,0.2-0.4,0.5V25c0,0,0,0,0,0c0,0,0,0,0,0c0,0,0,0,0,0.1c0,0,0,0.1,0,0.1c0,0,0,0.1,0.1,0.1c0,0,0,0,0,0.1
		c0,0,0.1,0,0.1,0.1c0,0,0,0,0.1,0c0.1,0,0.1,0,0.2,0c0,0,0,0,0,0h0c0,0,0,0,0,0c0,0,0,0,0,0c0,0,0.2,0,0.6,0v2.5
		c-1,0.1-1.8,0.2-2.5,0.3L88.2,12.3z M116.6,13.6c-0.7-0.2-1.5,0-1.9,0.1l-0.1,0c-0.9,0.2-2.9,0.5-6.8,0.9c-2.2,0.2-4.1,0.3-5.6,0.3
		c-1.4,0-2.4,0.1-3,0.2c-0.3,0.1-0.5,0.2-0.7,0.3v-3.2c0.5,0,1.4,0,2,0l0.5,0c0.9,0,1.3,0,1.5-0.2c0,0,0.1-0.1,0.1-0.2
		c0.1-0.1,0.2-0.2,0.2-0.3v-0.7c1.2,0,4.4-0.1,7.5-0.6c1.5-0.3,2.6-0.5,3.3-0.7c0.7-0.2,1.2-0.3,1.7-0.3c0.2,0,0.3,0,0.5,0
		c0,0,0.1,0,0.1,0c0.1,0,0.2,0,0.3,0.1c0,0,0,0,0.1,0c0.2,0.1,0.4,0.2,0.4,0.5V13.6z M101.7,11.1c-0.3,0-0.7,0-1.2,0l-0.3,0
		c-0.1,0-0.1,0-0.2,0c0,0,0,0,0,0l0-1.6c0.9-0.2,1.4-0.1,1.7,0V11.1z M98,8.6c0.3,0,0.5,0,0.8,0c0.1,0,0.2,0.1,0.2,0.1v1.7
		c-0.1,0-0.2,0-0.3,0l-0.2,0c-0.2,0-0.9,0-2,0.1c-0.7,0.1-1.5,0.1-2.1,0.1V9c0.8-0.2,1.5-0.3,2.1-0.4C97,8.6,97.5,8.6,98,8.6z
		 M89.3,8.7c-0.3,0-0.7-0.1-1.1-0.1V8.4c0.4,0,0.8,0,1.4,0.1C89.5,8.5,89.4,8.6,89.3,8.7z M88.2,33.9l0-3.7c1.2-0.2,3.7-0.5,6.4-0.5
		c2.8,0,5.2,0.5,6.1,0.7c0.3,0.9,1,2.4,1.8,3.5H88.2z M116.6,6.9v0.6c-0.3-0.1-0.6-0.1-0.9-0.1c-0.9,0-0.9-0.3-0.9-0.4
		c0-0.4,0.1-0.8,0.9-0.8C116.4,6.1,116.5,6.7,116.6,6.9z M76,18.5c0-0.4,0-0.6,0-0.8c0-1.1-0.1-2.5-1-3.9c-0.3-0.5-0.5-0.8-0.7-1
		c0,0,0,0-0.1-0.1c0.6-0.3,1.5-0.6,3-1c2.6-0.6,4.2-0.1,4.8,0.6c0.5,0.6,0.5,2,0.5,3.6v10.3c0,2.3-0.6,3.1-2.7,3.3
		c-1.6,0.2-3,0.4-4.1,0.6C75.9,29,76.1,26.1,76,18.5z M74.2,32.1c0.3-0.2,0.6-0.4,1-0.8c1.2-0.3,2.7-0.5,4.7-0.8
		c2.6-0.3,3.6-1.5,3.6-4.3V16c0-1.8,0-3.4-0.7-4.2c-0.5-0.6-2-1.8-5.7-0.9c-1.3,0.3-2.2,0.6-2.8,0.9l0-4.7c0,0-0.1-1.1,1.3-1.6
		c1.5-0.6,7.6-1.5,10.8-1.8c0,0.1,0,0.2,0,0.3v30h-8c-1.4,0-2.8,0.2-4.1,0.5V32.1z M73.6,36.5C73.6,36.5,73.6,36.4,73.6,36.5
		c1.6-0.5,3.1-0.7,4.8-0.7h31.5c9.1,0,16.5,7.4,16.5,16.5v5.4c-3.3-0.1-19.1-0.5-32.2-0.5c-13.2,0-29,0.4-32.2,0.5v-5.4
		C61.8,44.8,66.8,38.5,73.6,36.5z M61.8,62.5c3.1-0.1,18-0.5,32.2-0.5c14.1,0,29.1,0.4,32.2,0.5v55.1c0,0,0,0,0,0.1
		c-2.4,0.3-13.4,1.3-32.2,1.3c-11.4,0-19.4-0.3-24.3-0.7V73.6c0-0.9-0.3-1.7-0.9-2.2c-0.6-0.6-1.3-0.9-2.1-0.9c0,0,0,0,0,0l-4.8-0.6
		v-1.5c0.5-0.1,0.5-0.3,0.5-0.5v-3.3c0-0.2,0-0.3-0.3-0.4c0,0-0.1,0-0.1,0c0,0-0.1,0-0.1,0V62.5z M56.6,65.3v2.4c-0.7,0-1.4,0-2.2,0
		c-0.8,0-1.5,0-2.2,0v-2.4c0.7,0,1.4,0,2.2,0C55.2,65.3,56,65.3,56.6,65.3z M49.3,67.6v-2.3c0.5,0,1.2,0,1.9,0v2.4
		C50.5,67.6,49.9,67.6,49.3,67.6z M47.4,65.2c0.2,0,0.6,0,0.9,0.1v2.3c-0.4,0-0.7,0-0.9,0V65.2z M54.4,68.6c1.4,0,2.5,0,3.4,0v1.6
		c-0.5,0.1-1.7,0.2-3.4,0.2c-1.7,0-2.9-0.1-3.4-0.2v-1.6C51.9,68.6,53,68.6,54.4,68.6z M37,65.6v3.2c-0.6,0.1-1.9,0.1-4,0.1
		c-2,0-3.4-0.1-4-0.1v-3.2c0.7,0.1,1.9,0.1,4,0.1C35.2,65.7,36.3,65.6,37,65.6z M20.7,147.4c-0.3,0-0.7-0.1-0.9-0.3
		c-0.2-0.2-0.4-0.5-0.4-0.9V95.6l7.1,1.2v51.3c0,0.2,0,0.4,0.1,0.6l-5.7-1.2C20.8,147.4,20.8,147.4,20.7,147.4z M66.6,148.3
		L66.6,148.3l-36.8,1l-0.7-0.1c-0.1-0.1-0.2-0.1-0.3-0.2c-0.2-0.2-0.4-0.5-0.4-0.9V96.9l39.4-0.8v50.9
		C67.8,147.8,67.3,148.3,66.6,148.3z M110.6,143c0.2-0.3,0.5-0.9,1-4.9c0-0.2,0.3-0.5,0.6-0.9c0.3-0.3,0.6-0.7,0.9-1.2
		c0.5-0.8,0.6-1.5,0.8-2.1c0.1-0.4,0.1-0.7,0.3-1.1c0.2-0.5,2-0.9,2.7-1.1c0.5-0.1,0.9-0.2,1.2-0.3c0.2-0.1,0.4-0.2,0.5-0.2
		c0.3,0.8,0.7,1.8,0.9,2.1c0.4,0.4,0.8,1.2,0.8,1.6c0,0.6,0.2,1.1,0.4,1.5l0.1,0.2c0.1,0.2,0.2,0.3,0.3,0.4c-3,1.7-4.9,5.5-5,9.8
		l-5.7-1.8C110.4,144.1,110.5,143.3,110.6,143z M127.3,150c-0.1-0.5-0.2-0.9-0.2-1c0-0.4-0.2-0.8-0.4-1.3c-0.1-0.2-0.2-0.4-0.2-0.6
		c-0.1-0.3-0.1-0.5,0-0.9c0-0.1,0-0.3,0-0.5c1-0.7,4-2.7,6.2-3.6c0.1,0.4,0.3,0.9,0.4,1.3c0,0,0,0,0,0c-2.1,0.9-4.4,2.6-4.5,2.7
		c-0.1,0.1-0.1,0.2-0.1,0.3c0,0.1,0.1,0.1,0.2,0.1c0,0,0.1,0,0.1,0c0,0,2.3-1.7,4.4-2.6c0.1,0.4,0.3,0.7,0.3,1.1
		c0,0.3-0.2,0.8-0.4,1.5L127.3,150z M142.3,150.1c0.6-1.8,1.9-5.4,2.8-8.3c0.1-0.3-0.1-0.5-0.3-0.6c-0.3-0.1-0.5,0.1-0.6,0.3
		c-1,3-2.3,6.8-2.8,8.5c-1-0.1-1.9-0.2-2.6-0.2c0.7-1.8,2.1-5.7,2.1-8.3c0-2-0.4-2.7-1-3.6c-0.2-0.4-0.5-0.8-0.7-1.4
		c-0.5-1.2-0.2-4.1,1-8.7c1.9-7.6,2.3-9.6,2.5-12.6c0-0.3-0.2-0.5-0.4-0.5c-0.3,0-0.5,0.2-0.5,0.4c-0.3,2.9-0.6,4.9-2.5,12.4
		c-1.6,6.4-1.4,8.4-1,9.3c0.3,0.6,0.6,1.1,0.8,1.5c0.5,0.8,0.9,1.4,0.8,3.1c-0.1,2.6-1.5,6.6-2.2,8.2l-0.4,0c-0.1,0-0.2,0-0.4,0
		c0.6-0.8,1.2-2,1.1-3.7c-0.1-2-0.4-2.7-0.8-3.5c-0.2-0.4-0.4-0.8-0.6-1.5c-0.1-0.4-0.3-0.8-0.4-1c-0.4-1-0.7-1.5-0.1-6.2
		c0.5-3.8,1.3-7.2,1.8-9.6c0.3-1.4,0.6-2.5,0.7-3.2c0-0.1-0.1-0.2-0.2-0.3c-0.1,0-0.2,0.1-0.3,0.2c-0.1,0.7-0.3,1.8-0.6,3.2
		c-0.6,2.5-1.3,5.8-1.8,9.7c-0.6,4.8-0.4,5.4,0.1,6.4c0.1,0.3,0.3,0.6,0.4,1c0.2,0.7,0.4,1.1,0.6,1.5c0.4,0.8,0.7,1.4,0.8,3.4
		c0.1,1.7-0.6,2.9-1.2,3.6c-0.7-0.1-1.6-0.3-2.3-0.4c0.6-1.4,1.4-3.4,1.4-4.3c0-0.8-0.3-1.6-0.6-2.3c-0.2-0.4-0.3-0.8-0.3-1
		c0-0.8,0.9-10.7,1.2-13.3c0.3-2.5,1.7-14.2,2-17.9c0.3-3.6,1.7-11.3,2.4-14.2c0.3-1.3,0.7-3.1,1.3-5.7c0.6-2.8,1.5-6.5,2.7-11.5
		c1.6-6.7,2.5-11.6,3-14.3c0.2-1.1,0.4-1.9,0.5-2.3c0.2-1,0.9-3.9,1.2-5.2c0.6,0,1.3,0,1.9,0c0.3,0.1,1,0.3,1.7,0.6
		c0.3,0.1,0.7,0.3,1.1,0.4c-1,5-4,14.9-4,15c0,0.1,0,0.3,0.2,0.3c0,0,0,0,0.1,0c0.1,0,0.2-0.1,0.2-0.2c0-0.1,3-9.9,4-14.9
		c0.6,0.2,1.3,0.4,1.9,0.6c-0.6,3.1-1.7,6.7-2.9,10.6c-0.8,2.5-1.5,5.2-2.2,7.8c-1.8,6.9-4.7,21.4-4.7,21.5c0,0.1,0.1,0.3,0.2,0.3
		c0,0,0,0,0,0c0.1,0,0.2-0.1,0.2-0.2c0-0.1,2.9-14.6,4.7-21.5c0.7-2.6,1.5-5.2,2.2-7.8c1.2-3.9,2.2-7.5,2.9-10.6
		c0.4,0.1,0.9,0.2,1.3,0.2c0.5,0.1,1.1,0.1,1.8,0.2c-1.3,5.1-7.2,28.5-9.1,39.3c-0.7,3.8-1.2,6.9-1.6,9.5c-1,5.7-1.6,9.5-2.7,15.2
		c-1.6,8.1-3.8,17.2-3.8,17.2c-0.1,0.3,0.1,0.5,0.3,0.6c0,0,0.1,0,0.1,0c0.2,0,0.4-0.1,0.5-0.4c0-0.1,2.3-9.2,3.8-17.3
		c1.1-5.6,1.7-9.4,2.7-15.2c0.4-2.6,1-5.7,1.6-9.5c1.9-10.9,7.9-34.6,9.1-39.4c2.2,0.2,4.6,0.4,5.8,0.4c-1,3.4-2.1,10.3-2.3,12.4
		c-0.2,1.4-0.9,3.2-1.6,4.9c-0.4,1-0.9,2.1-1.2,3.1c-0.5,1.5-0.7,2.5-1,3.6c-0.2,1-0.5,2-0.9,3.4c-0.5,1.6-0.6,2.9-0.8,4
		c-0.1,1.2-0.3,2.3-0.7,3.4c-0.8,1.9-1,3.6-1.3,5.4c-0.1,0.6-0.2,1.3-0.3,1.9c-0.2,1-0.4,1.4-0.9,2.1c-0.6,0.9-1.3,2.1-2.1,4.9
		c-0.6,2.1-0.9,3.4-1.1,4.6c-0.3,1.6-0.6,2.8-1.4,5.3c-1.1,3.6-1.6,7.6-2,11.2c-0.1,1-0.2,1.9-0.3,2.8c-0.6,4.2,0.8,10.1,1.3,12.1
		l0.1,0.3c0.1,0.5,0.2,1.4,0.3,2.4c-0.1,0.2-0.1,0.4,0,0.6c0,0.1,0.1,0.1,0.1,0.1c0,0.6,0.1,1.1,0.1,1.5h-2.5
		C145.6,150.3,143.8,150.2,142.3,150.1z M158.4,128.1c0.1-0.5,0.1-0.9,0.2-1.4c0.7-0.6,1.8-1.5,2.7-2c0.1,0.5,0.3,0.9,0.4,1.3
		C160.8,126.6,159.5,127.4,158.4,128.1z M166.2,143.6c0-0.3,0.1-1.9,0.2-3.2c0-0.3,0-0.7,0.1-1c0.6,3.8,1.3,6.2,2,7.3
		c-0.1,0-0.2,0-0.3,0C167.2,145.4,166.3,144,166.2,143.6z M188.5,144.3c-1.9,0.8-5.8,1.8-10.9,2.3c-2.4,0.2-5,0.2-6.9,0.2
		c0.6-0.3,1.1-0.5,1.3-0.7l0.4-0.3c0.6-0.4,0.9-0.7,1.8-0.9c0.2-0.1,0.4-0.1,0.5-0.1c0.5-0.1,1-0.2,1.4-0.5c0.7,0.1,2.1,0.4,3.5,0.4
		c0.8,0,1.7-0.1,2.3-0.3c0.9-0.3,1.4-0.5,1.7-0.7c0.4-0.2,0.5-0.2,1.1-0.2c1,0,3.2-0.8,3.8-2c0.3,0,0.5,0,0.8,0
		c0.3,0,3.4,0.3,3.9,0.3c0.1,0,0.6,0.1,1.3,0.1C192.5,142.7,189.8,143.8,188.5,144.3z M215.7,135.5l-2.8,2.3c0.3-1,0.6-2.1,0.8-2.9
		c0.2-0.9,0.6-1.3,1-1.8c0.3-0.3,0.6-0.6,0.8-1.1c0.2-0.5,1.2-2.1,1.8-3.2C216.8,130.8,216.2,133.2,215.7,135.5z"/>
	<path class="st0" d="M182.8,121.4c0.1,0.3,0.3,0.5,0.4,0.8c0.3,0.5,0.6,0.9,0.5,2c-0.1,1.8-0.2,4.1,0,4.8c0.1,0.2,0.2,0.4,0.5,0.4
		c0,0,0.1,0,0.1,0c0.3-0.1,0.4-0.3,0.3-0.6c-0.1-0.4-0.1-2.2,0-4.5c0.1-1.4-0.3-2-0.7-2.6c-0.1-0.2-0.3-0.4-0.4-0.7
		c-0.4-1-1.3-3.6-1.3-3.6c-0.1-0.3-0.3-0.4-0.6-0.3c-0.3,0.1-0.4,0.3-0.3,0.6C181.5,117.8,182.3,120.3,182.8,121.4z"/>
	<path class="st0" d="M177.8,125.8c0.1,0.2,0.1,0.5,0.2,0.7c0.1,0.4,0.3,0.8,0.5,1.2c0.2,0.5,0.5,0.9,0.5,1.4c0,1.1,0.3,1.9,0.9,2.6
		c0.1,0.1,0.2,0.2,0.3,0.3c0.3,0.4,0.4,0.4,0.4,1.2c0,0.2,0,0.4,0,0.7c0,1,0,2.3,0.2,3.3c0,0.1,0.1,0.2,0.2,0.2c0,0,0,0,0.1,0
		c0.1,0,0.2-0.2,0.2-0.3c-0.3-1-0.2-2.2-0.2-3.2c0-0.2,0-0.5,0-0.7c0-0.9-0.1-1.1-0.5-1.5c-0.1-0.1-0.2-0.2-0.2-0.3
		c-0.5-0.6-0.7-1.4-0.8-2.3c0-0.6-0.3-1.1-0.5-1.6c-0.2-0.3-0.4-0.7-0.5-1.1c-0.1-0.2-0.1-0.4-0.2-0.7c-0.3-1-0.6-2.2-0.6-3.2
		c0-1.3-0.6-4.9-0.7-5c0-0.1-0.1-0.2-0.3-0.2c-0.1,0-0.2,0.1-0.2,0.3c0,0,0.7,3.7,0.7,4.9C177.2,123.6,177.5,124.8,177.8,125.8z"/>
	<path class="st0" d="M24.8,80l-1.5-0.3v-2c0-0.3-0.2-0.5-0.5-0.5c-0.3,0-0.5,0.2-0.5,0.5v1.9l-1.1-0.2c-0.3-0.1-0.5,0.1-0.6,0.4
		c0,0.3,0.1,0.5,0.4,0.5l1.3,0.2v1.8c0,0.3,0.2,0.5,0.5,0.5c0.3,0,0.5-0.2,0.5-0.5v-1.7l1.4,0.2c0,0,0.1,0,0.1,0
		c0.2,0,0.4-0.2,0.5-0.4C25.3,80.3,25.1,80.1,24.8,80z"/>
	<path class="st0" d="M24.8,141.8l-3.6-0.6c-0.3-0.1-0.5,0.1-0.6,0.4c0,0.3,0.1,0.5,0.4,0.5l3.6,0.6c0,0,0.1,0,0.1,0
		c0.2,0,0.4-0.2,0.5-0.4C25.3,142.1,25.1,141.8,24.8,141.8z"/>
	<polygon class="st0" points="49.3,97.8 41.8,112.9 48.4,112.9 46.7,123.8 54.4,109.8 47.4,109.8 	"/>
</g>
</svg>
