<svg xmlns="http://www.w3.org/2000/svg" width="177.53" height="113.59" viewBox="0 0 177.53 113.59">
  <metadata><?xpacket begin="﻿" id="W5M0MpCehiHzreSzNTczkc9d"?>
<x:xmpmeta xmlns:x="adobe:ns:meta/" x:xmptk="Adobe XMP Core 5.6-c138 79.159824, 2016/09/14-01:09:01        ">
   <rdf:RDF xmlns:rdf="http://www.w3.org/1999/02/22-rdf-syntax-ns#">
      <rdf:Description rdf:about=""/>
   </rdf:RDF>
</x:xmpmeta>
                                                                                                    
                                                                                                    
                                                                                                    
                                                                                                    
                                                                                                    
                                                                                                    
                                                                                                    
                                                                                                    
                                                                                                    
                                                                                                    
                                                                                                    
                                                                                                    
                                                                                                    
                                                                                                    
                                                                                                    
                                                                                                    
                                                                                                    
                                                                                                    
                                                                                                    
                                                                                                    
                           
<?xpacket end="w"?></metadata>
<defs>
    <style>
      .cls-1 {
        fill-rule: evenodd;
      }
    </style>
  </defs>
  <path id="Фигура_1178" data-name="Фигура 1178" class="cls-1" d="M1166.73,2089.78a0.794,0.794,0,0,1-.58-0.25c-2.85-3.02-17.81-12.64-40.03-25.76-14.37-8.47-22.67-23.2-22.76-23.35a0.8,0.8,0,0,1,.11-0.92,0.779,0.779,0,0,1,.91-0.2,114.263,114.263,0,0,0,15.1,5.18,25.128,25.128,0,0,0,4.64.57,0.8,0.8,0,0,1,.76.83,0.773,0.773,0,0,1-.83.77,27.353,27.353,0,0,1-4.93-.6,100.542,100.542,0,0,1-13.08-4.34c2.8,4.29,10.09,14.31,20.89,20.68,10.53,6.21,35.19,20.97,40.12,25.77,3.27-.13,28.84-1.39,45.33-8.88,17.56-7.97,25.63-14.95,25.71-15.02a0.8,0.8,0,0,1,.84-0.13c0.07,0.03,6.98,2.89,13.32,1.62,5.31-1.06,19.95-6.05,25.4-7.93-4.34-1.67-14.9-5.72-25.48-9.9a0.8,0.8,0,1,1,.58-1.49c13.71,5.41,27.39,10.62,27.52,10.67a0.8,0.8,0,0,1,.52.76,0.81,0.81,0,0,1-.54.75c-0.85.3-21.03,7.38-27.68,8.71-5.93,1.19-12.08-.88-13.8-1.53-1.79,1.47-9.85,7.74-25.73,14.95-17.84,8.1-46.01,9.03-46.29,9.04h-0.02Zm71.89-24.51a0.425,0.425,0,0,1-.11-0.02c-0.23-.06-23.8-6.56-44.72-13.44a193.978,193.978,0,0,1-23.38-9.44,0.4,0.4,0,0,1-.19-0.54,0.392,0.392,0,0,1,.53-0.18,193.206,193.206,0,0,0,23.3,9.39c20.89,6.88,44.44,13.37,44.68,13.44A0.4,0.4,0,0,1,1238.62,2065.27Zm-62.3,19.56a0.341,0.341,0,0,1-.19-0.07c-0.14-.12-14.28-11.73-27.01-17.26-12.82-5.57-26.72-18.01-26.86-18.13a0.318,0.318,0,0,1-.08-0.33,0.311,0.311,0,0,1,.28-0.2s0.77-.01,2.18-0.05a0.308,0.308,0,0,1,.31.29,0.289,0.289,0,0,1-.29.31c-0.59.02-1.06,0.03-1.42,0.04,2.76,2.4,14.87,12.63,26.12,17.52,12.28,5.33,25.85,16.28,27.07,17.27,1.42-.04,16.35-0.66,30.12-6.83a94.013,94.013,0,0,0,23.67-15.06,0.33,0.33,0,0,1,.27-0.07,45.5,45.5,0,0,0,17.75.01,84.386,84.386,0,0,0,16.53-5.3c-2.97-1.02-14.7-5.06-25.76-9.18a0.293,0.293,0,0,1-.18-0.38,0.3,0.3,0,0,1,.39-0.18c12.72,4.73,26.32,9.36,26.46,9.41a0.318,0.318,0,0,1,.2.27,0.3,0.3,0,0,1-.17.29,84,84,0,0,1-17.35,5.66,46.369,46.369,0,0,1-17.85.02,95.522,95.522,0,0,1-23.71,15.06c-14.52,6.5-30.31,6.88-30.47,6.89h-0.01Zm-40.61-35.89a0.3,0.3,0,0,1-.01-0.6c2.83-.14,5.76-0.32,8.7-0.51a32.744,32.744,0,0,0,13.01-3.63,0.32,0.32,0,0,1,.41.13,0.31,0.31,0,0,1-.13.41,33.558,33.558,0,0,1-13.25,3.69c-2.94.19-5.87,0.37-8.71,0.51h-0.02Zm54.18,19.4a0.8,0.8,0,0,1-.45-0.14c-0.03-.02-2.26-1.55-8.47-5.6-6.14-4.02-27.11-11.55-27.32-11.62a0.8,0.8,0,0,1,.03-1.52c7.21-2.32,11.06-5.11,13.01-7.04a0.794,0.794,0,0,1,1.13.01,0.8,0.8,0,0,1,0,1.13c-1.87,1.85-5.34,4.43-11.49,6.68,5.57,2.05,20.34,7.63,25.52,11.01,5.05,3.3,7.48,4.94,8.23,5.45,1.4-.24,7.54-1.48,10.95-5.69,3.62-4.47,3.4-6.21,3.4-6.23a0.744,0.744,0,0,1,.22-0.78,0.806,0.806,0,0,1,.83-0.15,22.521,22.521,0,0,0,9.46.84,28.6,28.6,0,0,0,3.94-.85,0.8,0.8,0,1,1,.44,1.54,29.045,29.045,0,0,1-4.17.9,24.418,24.418,0,0,1-9.21-.62c-0.26,1.18-1.11,3.2-3.67,6.36-4.25,5.26-11.95,6.27-12.28,6.31A0.34,0.34,0,0,1,1189.89,2068.34Zm-13.57-25.85c-1.38,0-2.62-.02-3.7-0.08a0.8,0.8,0,0,1-.76-0.84,0.81,0.81,0,0,1,.84-0.76c2.05,0.1,4.68.1,7.81,0.01a16.324,16.324,0,0,0,3.87-.63,0.8,0.8,0,0,1,.43,1.55,17.382,17.382,0,0,1-4.25.68C1179.03,2042.47,1177.61,2042.49,1176.32,2042.49Zm51.77,9.49a0.787,0.787,0,0,1-.72-0.46,0.8,0.8,0,0,1,.38-1.07c0.74-.35,1.4-0.68,1.86-0.93a9.056,9.056,0,0,0,1-.65,0.8,0.8,0,0,1,.96,1.28,8.383,8.383,0,0,1-1.19.77c-0.48.27-1.17,0.62-1.95,0.98A0.681,0.681,0,0,1,1228.09,2051.98Zm-55.85,5.81a0.416,0.416,0,0,1-.4-0.33,0.407,0.407,0,0,1,.33-0.47c0.07-.01,7.03-1.3,9.05-3.4a15.9,15.9,0,0,0,3.08-5.59,0.414,0.414,0,0,1,.45-0.28c0.09,0.02,8.11,1.35,13.74.01a19.072,19.072,0,0,0,4.06-1.59,0.409,0.409,0,0,1,.54.17,0.4,0.4,0,0,1-.18.54,19.64,19.64,0,0,1-4.23,1.66c-5.19,1.24-12.09.31-13.72,0.06a15.863,15.863,0,0,1-3.17,5.57c-2.2,2.29-9.18,3.59-9.48,3.64C1172.28,2057.78,1172.26,2057.79,1172.24,2057.79Zm43.45-2a0.249,0.249,0,0,1-.08-0.01c-3.33-.73-6.46-1.56-9.3-2.46a0.4,0.4,0,0,1,.24-0.77c2.82,0.9,5.92,1.72,9.23,2.45a0.4,0.4,0,0,1,.31.47A0.407,0.407,0,0,1,1215.69,2055.79Zm-14.5-4.35a0.4,0.4,0,0,1-.15-0.03,30.8,30.8,0,0,1-5.12-2.54,0.4,0.4,0,0,1-.1-0.56,0.391,0.391,0,0,1,.55-0.11,29.837,29.837,0,0,0,4.98,2.47,0.406,0.406,0,0,1,.22.52A0.411,0.411,0,0,1,1201.19,2051.44Zm0-.34a0.193,0.193,0,0,1-.19-0.17,0.2,0.2,0,0,1,.16-0.23l6.53-1.11a0.2,0.2,0,0,1,.23.16,0.2,0.2,0,0,1-.16.23l-6.53,1.12h-0.04Zm26.11,6.21h-0.03a0.21,0.21,0,0,1-.17-0.23l0.79-5.93a0.21,0.21,0,0,1,.23-0.17,0.188,0.188,0,0,1,.17.22l-0.79,5.94A0.2,0.2,0,0,1,1227.3,2057.31Zm-49.32,25.37a0.4,0.4,0,0,1-.01-0.8c0.08,0,8.26-.3,13.93-2.18a0.4,0.4,0,0,1,.51.25,0.408,0.408,0,0,1-.26.51c-5.78,1.92-14.07,2.22-14.15,2.22h-0.02Zm-3.74-3.41a0.4,0.4,0,0,1-.01-0.8,69.61,69.61,0,0,0,10.14-1.19,0.4,0.4,0,0,1,.16.78,69.864,69.864,0,0,1-10.27,1.21h-0.02Zm12.45-1.77a0.4,0.4,0,0,1-.1-0.79,43.89,43.89,0,0,0,8.2-3,0.39,0.39,0,0,1,.54.16,0.4,0.4,0,0,1-.16.54,44.391,44.391,0,0,1-8.38,3.08A0.375,0.375,0,0,1,1186.69,2077.5Zm-10.93,3.61a0.4,0.4,0,0,1-.4-0.39,0.389,0.389,0,0,1,.39-0.41c0.08-.01,8.25-0.3,13.92-2.18a0.4,0.4,0,1,1,.25.76c-5.78,1.92-14.07,2.22-14.15,2.22h-0.01Zm15.63-2.94a0.393,0.393,0,0,1-.38-0.29,0.411,0.411,0,0,1,.27-0.5,12.076,12.076,0,0,0,2.79-1.14,0.39,0.39,0,0,1,.56.08,0.4,0.4,0,0,1-.09.56,12.752,12.752,0,0,1-3.04,1.27A0.2,0.2,0,0,1,1191.39,2078.17Zm-63.86-81.13a0.4,0.4,0,0,1-.03-0.8c0.37-.03,37.23-2.91,42.85-3.58,2.37-.28,4.06-0.54,5.42-0.75a29.352,29.352,0,0,1,4.67-.48,36.086,36.086,0,0,1,5.49.68,19.282,19.282,0,0,0,2.21.33c1.01,0,40.87,3.21,42.56,3.35a0.4,0.4,0,0,1,.37.43,0.4,0.4,0,0,1-.43.37c-14.36-1.16-41.72-3.35-42.5-3.35a19.184,19.184,0,0,1-2.35-.34,34.606,34.606,0,0,0-5.35-.67,28.221,28.221,0,0,0-4.55.48c-1.36.21-3.06,0.47-5.45,0.75-5.63.66-42.51,3.55-42.88,3.58h-0.03Zm1.61-.23a0.29,0.29,0,0,1-.29-0.23l-0.94-4.43a0.306,0.306,0,0,1,.22-0.36c0.22-.06,22.24-5.96,27.31-7.55,5.13-1.61,17.65-4.76,23.6-6.03s11.36-2,11.41-2.01a0.309,0.309,0,0,1,.34.25l2.67,16.71a0.3,0.3,0,0,1-.6.09l-2.62-16.41c-1.19.17-5.92,0.86-11.08,1.96-5.94,1.27-18.42,4.41-23.54,6.02-4.77,1.49-24.49,6.79-27.06,7.48l0.88,4.15a0.313,0.313,0,0,1-.23.36h-0.07Zm99.09-.44a0.3,0.3,0,0,1-.3-0.25l-3.27-18.24c-2.79.38-24.86,3.45-27.61,3.97-2.94.56-5.52,0.96-5.55,0.97a0.3,0.3,0,0,1-.09-0.6c0.03,0,2.6-.4,5.52-0.96,2.95-.55,27.68-3.98,27.93-4.02a0.309,0.309,0,0,1,.34.25l3.32,18.53a0.3,0.3,0,0,1-.24.35h-0.05Zm0.6,51.11c-0.02,0-.03-0.01-0.05-0.01l-42.75-7.55a0.3,0.3,0,0,1-.25-0.27c-0.04-.61-1.16-14.69-1.25-16.73l-1.7-.26a0.32,0.32,0,0,1-.26-0.31c0.01-.16.49-16.03,0.65-20.16a25.753,25.753,0,0,1,1.3-7.32,0.289,0.289,0,0,1,.38-0.18,0.293,0.293,0,0,1,.18.38,25.776,25.776,0,0,0-1.26,7.14c-0.15,3.83-.57,17.78-0.64,19.89l43.74,6.73c-0.06-2.92-.44-21.51.01-24.67a29.927,29.927,0,0,1,1.14-5.27,0.278,0.278,0,0,1,.32-0.2,0.308,0.308,0,0,1,.26.28c0.01,0.19.96,18.64,0.96,32.46,0,13.86-.47,15.75-0.49,15.82A0.307,0.307,0,0,1,1228.83,2047.48Zm-42.47-8.11,42.23,7.46c0.11-.87.42-4.18,0.42-15.4,0-11.2-.63-25.46-0.87-30.53-0.19.84-.42,1.97-0.62,3.35-0.47,3.31,0,24.71.01,24.93a0.3,0.3,0,0,1-.11.23,0.29,0.29,0,0,1-.24.07l-42.04-6.47C1185.25,2025.25,1186.22,2037.52,1186.36,2039.37Zm41.47-30.08a2.808,2.808,0,0,1-.92-0.19,0.3,0.3,0,1,1,.24-0.56,1.362,1.362,0,0,0,1.06.05,0.733,0.733,0,0,0,.24-0.65,0.3,0.3,0,0,1,.3-0.3,0.3,0.3,0,0,1,.3.3,1.271,1.271,0,0,1-.51,1.15A1.238,1.238,0,0,1,1227.83,2009.29Zm-2.5-10.42h0c-6.71-.09-38.29-3.66-38.61-3.7a0.2,0.2,0,0,1-.18-0.22,0.208,0.208,0,0,1,.22-0.18c0.32,0.04,31.88,3.61,38.57,3.7A0.2,0.2,0,1,1,1225.33,1998.87Zm-98.28,52.1a3.855,3.855,0,0,1-2.58-.88,4.4,4.4,0,0,1-1.15-3.87c0.51-5.64,1.1-25.64,1-29.33-0.03-.9-0.08-2.51-0.15-4.46-0.35-10.42-.51-15.84-0.35-16.53a3.53,3.53,0,0,1,4.35-2.45,0.8,0.8,0,0,1-.32,1.57,1.939,1.939,0,0,0-2.47,1.23c-0.13.85,0.21,10.79,0.39,16.13,0.07,1.95.12,3.56,0.15,4.47,0.1,3.71-.49,23.84-1.01,29.52a2.913,2.913,0,0,0,.62,2.51,2.6,2.6,0,0,0,2.04.44c0.47-.08,46.01-8.69,48.17-9.11a23.527,23.527,0,0,1,7.78-.25c1.03,0.15,45.2,8.29,48.39,8.89a1.109,1.109,0,0,0,1.05-.2c0.7-.63.74-2.32,0.69-2.87l0.16-43.6a48.011,48.011,0,0,0-.52-7.86,21.387,21.387,0,0,0-5.28-.84,0.8,0.8,0,0,1,.11-1.6c6.03,0.41,6.44,1.32,6.59,1.67,0.61,1.34.69,7.42,0.7,8.63l-0.16,43.54c0.03,0.23.19,2.85-1.22,4.12a2.668,2.668,0,0,1-2.42.59c-3.18-.6-47.29-8.74-48.31-8.88a21.374,21.374,0,0,0-7.26.24c-2.16.41-47.7,9.02-48.16,9.11A4.174,4.174,0,0,1,1127.05,2050.97Zm106.31-56.61h0Zm-103.74,10.36a0.3,0.3,0,0,1-.3-0.3v-1.41a2.56,2.56,0,0,1,.59-1.64,2.722,2.722,0,0,1,1.58-.77l38.66-3.66a1.815,1.815,0,0,1,1.29.57,2.268,2.268,0,0,1,.43,1.23v1.69a0.3,0.3,0,0,1-.3.3,0.3,0.3,0,0,1-.3-0.3v-1.68h0a1.669,1.669,0,0,0-.31-0.87,1.117,1.117,0,0,0-.78-0.34l-38.63,3.66a2.152,2.152,0,0,0-1.2.58,1.949,1.949,0,0,0-.43,1.22v1.42A0.3,0.3,0,0,1,1129.62,2004.72Zm1.27,0.52a4.35,4.35,0,0,1-2.29-.49,0.41,0.41,0,0,1-.11-0.56,0.4,0.4,0,0,1,.55-0.11,4.556,4.556,0,0,0,2.55.32c1.94-.17,37.48-3.93,37.84-3.97a20.858,20.858,0,0,0,3.28-.51,0.41,0.41,0,0,1,.54.19,0.4,0.4,0,0,1-.19.54,20.872,20.872,0,0,1-3.54.58c-0.36.04-35.91,3.8-37.86,3.97C1131.38,2005.22,1131.13,2005.24,1130.89,2005.24Zm-0.76,5.26a0.3,0.3,0,0,1-.3-0.3v-1.4a2.545,2.545,0,0,1,.59-1.64,2.678,2.678,0,0,1,1.58-.77l38.66-3.66a1.775,1.775,0,0,1,1.29.56,2.313,2.313,0,0,1,.43,1.24v1.69a0.3,0.3,0,1,1-.6,0v-1.68h0a1.714,1.714,0,0,0-.3-0.87,1.149,1.149,0,0,0-.79-0.34l-38.63,3.65a2.318,2.318,0,0,0-1.2.58,2.059,2.059,0,0,0-.43,1.23v1.41A0.3,0.3,0,0,1,1130.13,2010.5Zm1.27,0.52a4.409,4.409,0,0,1-2.29-.48,0.414,0.414,0,0,1-.11-0.56,0.4,0.4,0,0,1,.55-0.11,4.618,4.618,0,0,0,2.55.32c1.95-.17,37.49-3.93,37.85-3.97a21.277,21.277,0,0,0,3.28-.51,0.4,0.4,0,0,1,.34.72,19.965,19.965,0,0,1-3.54.59c-0.36.03-35.91,3.8-37.85,3.97C1131.89,2011.01,1131.64,2011.02,1131.4,2011.02Zm-0.56,5.8a0.3,0.3,0,0,1-.3-0.3v-1.41a2.552,2.552,0,0,1,.58-1.63,2.7,2.7,0,0,1,1.58-.77l38.67-3.66a1.757,1.757,0,0,1,1.28.56,2.368,2.368,0,0,1,.44,1.24v1.69a0.3,0.3,0,0,1-.3.3,0.3,0.3,0,0,1-.3-0.3v-1.68h0a1.669,1.669,0,0,0-.31-0.87,1.12,1.12,0,0,0-.79-0.34l-38.62,3.66a2.154,2.154,0,0,0-1.2.57,1.986,1.986,0,0,0-.43,1.23v1.41A0.3,0.3,0,0,1,1130.84,2016.82Zm1.27,0.52a4.369,4.369,0,0,1-2.29-.48,0.414,0.414,0,0,1-.11-0.56,0.4,0.4,0,0,1,.55-0.11,4.556,4.556,0,0,0,2.55.32c1.94-.17,37.48-3.93,37.84-3.97a20.858,20.858,0,0,0,3.28-.51,0.4,0.4,0,0,1,.54.19,0.4,0.4,0,0,1-.19.53,20.071,20.071,0,0,1-3.55.59c-0.35.03-35.9,3.8-37.85,3.97C1132.6,2017.33,1132.34,2017.34,1132.11,2017.34Zm-5.23-17.85a0.2,0.2,0,0,1-.2-0.18,0.21,0.21,0,0,1,.19-0.22c0.23-.02,23.82-2.07,32.42-2.78l6.68-.54c4.97-.39,8.57-0.68,11.01-1a31.337,31.337,0,0,1,6.9,0,0.219,0.219,0,0,1,.17.23,0.21,0.21,0,0,1-.23.17,29.642,29.642,0,0,0-6.79,0c-2.45.32-6.05,0.61-11.03,1l-6.68.54c-8.6.72-32.18,2.76-32.42,2.78h-0.02Zm49.09,40c-0.01,0-.01,0-0.01-0.01a0.189,0.189,0,0,1-.19-0.21c0.01-.21,1.34-21.31,1.34-29.07a0.194,0.194,0,0,1,.2-0.2,0.2,0.2,0,0,1,.2.2c0,7.77-1.33,28.88-1.34,29.1A0.214,0.214,0,0,1,1175.97,2039.49Zm10.92-46.71-2.98-15.25,0.39-.07,2.98,15.24Zm4.03,0.29-2.9-16.17,0.4-.07,2.89,16.17Zm-6.35-14.71a0.1,0.1,0,0,1-.06-0.18l1.72-1.17a0.1,0.1,0,0,1,.14.03,0.11,0.11,0,0,1-.03.14l-1.72,1.16A0.065,0.065,0,0,1,1184.57,1978.36Zm0.17,1.04a0.1,0.1,0,0,1-.06-0.18l3.52-2.39a0.1,0.1,0,0,1,.14.03,0.089,0.089,0,0,1-.03.13l-3.52,2.4A0.075,0.075,0,0,1,1184.74,1979.4Zm0.17,1.05a0.089,0.089,0,0,1-.08-0.05,0.1,0.1,0,0,1,.02-0.14l3.52-2.39a0.1,0.1,0,0,1,.14.03,0.108,0.108,0,0,1-.02.14l-3.53,2.39A0.076,0.076,0,0,1,1184.91,1980.45Zm0.17,1.04a0.1,0.1,0,0,1-.08-0.05,0.1,0.1,0,0,1,.02-0.13l3.52-2.4a0.1,0.1,0,0,1,.14.03,0.106,0.106,0,0,1-.02.14l-3.52,2.39A0.142,0.142,0,0,1,1185.08,1981.49Zm0.17,1.04a0.091,0.091,0,0,1-.08-0.04,0.1,0.1,0,0,1,.03-0.14l3.52-2.39a0.109,0.109,0,0,1,.14.02,0.108,0.108,0,0,1-.03.14l-3.52,2.39A0.073,0.073,0,0,1,1185.25,1982.53Zm0.17,1.04a0.091,0.091,0,0,1-.08-0.04,0.1,0.1,0,0,1,.03-0.14l3.52-2.39a0.1,0.1,0,0,1,.14.03,0.089,0.089,0,0,1-.03.13l-3.52,2.4A0.127,0.127,0,0,1,1185.42,1983.57Zm0.18,1.05a0.105,0.105,0,0,1-.09-0.05,0.1,0.1,0,0,1,.03-0.14l3.52-2.39a0.1,0.1,0,0,1,.14.03,0.1,0.1,0,0,1-.03.14l-3.52,2.39A0.169,0.169,0,0,1,1185.6,1984.62Zm0.17,1.04a0.105,0.105,0,0,1-.09-0.05,0.1,0.1,0,0,1,.03-0.13l3.52-2.4a0.1,0.1,0,0,1,.11.17l-3.52,2.39A0.076,0.076,0,0,1,1185.77,1985.66Zm0.17,1.04a0.091,0.091,0,0,1-.08-0.04,0.1,0.1,0,0,1,.02-0.14l3.52-2.39a0.1,0.1,0,1,1,.12.16l-3.52,2.39A0.073,0.073,0,0,1,1185.94,1986.7Zm0.17,1.04a0.091,0.091,0,0,1-.08-0.04,0.106,0.106,0,0,1,.02-0.14l3.52-2.39a0.1,0.1,0,0,1,.12.17l-3.52,2.39A0.127,0.127,0,0,1,1186.11,1987.74Zm0.17,1.05a0.1,0.1,0,0,1-.08-0.05,0.1,0.1,0,0,1,.03-0.14l3.52-2.39a0.1,0.1,0,0,1,.14.03,0.1,0.1,0,0,1-.03.14l-3.52,2.39A0.142,0.142,0,0,1,1186.28,1988.79Zm0.17,1.04a0.123,0.123,0,0,1-.08-0.04,0.1,0.1,0,0,1,.03-0.14l3.52-2.4a0.11,0.11,0,0,1,.14.03,0.1,0.1,0,0,1-.03.14l-3.52,2.39A0.142,0.142,0,0,1,1186.45,1989.83Zm0.18,1.04a0.1,0.1,0,0,1-.06-0.18l3.52-2.39a0.106,0.106,0,0,1,.14.02,0.1,0.1,0,0,1-.03.14l-3.52,2.4A0.09,0.09,0,0,1,1186.63,1990.87Zm0.17,1.04a0.1,0.1,0,0,1-.06-0.18l3.52-2.39a0.1,0.1,0,0,1,.14.03,0.1,0.1,0,0,1-.03.14l-3.52,2.39A0.075,0.075,0,0,1,1186.8,1991.91Zm0.17,1.05a0.1,0.1,0,0,1-.08-0.05,0.109,0.109,0,0,1,.02-0.14l3.52-2.39a0.1,0.1,0,0,1,.14.03,0.106,0.106,0,0,1-.02.14l-3.52,2.39A0.142,0.142,0,0,1,1186.97,1992.96Zm1.7,0a0.1,0.1,0,0,1-.05-0.19l1.98-1.35a0.108,0.108,0,0,1,.14.03,0.1,0.1,0,0,1-.02.14l-1.99,1.35A0.107,0.107,0,0,1,1188.67,1992.96Zm32.93,2.63-3.22-16.83,0.39-.08,3.22,16.83Zm3.96,0.25-3.16-17.86,0.4-.07,3.16,17.86Zm-6.52-16.18a0.091,0.091,0,0,1-.08-0.04,0.108,0.108,0,0,1,.02-0.14l1.66-1.32a0.1,0.1,0,0,1,.13.15l-1.67,1.33A0.107,0.107,0,0,1,1219.04,1979.66Zm0.19,1.15a0.091,0.091,0,0,1-.08-0.04,0.1,0.1,0,0,1,.02-0.14l3.41-2.71a0.1,0.1,0,1,1,.12.16l-3.41,2.71A0.107,0.107,0,0,1,1219.23,1980.81Zm0.19,1.15a0.091,0.091,0,0,1-.08-0.04,0.1,0.1,0,0,1,.02-0.14l3.4-2.71a0.121,0.121,0,0,1,.15.02,0.108,0.108,0,0,1-.02.14l-3.41,2.71A0.142,0.142,0,0,1,1219.42,1981.96Zm0.19,1.15a0.091,0.091,0,0,1-.08-0.04,0.1,0.1,0,0,1,.02-0.14l3.4-2.7a0.1,0.1,0,1,1,.13.15l-3.41,2.71A0.073,0.073,0,0,1,1219.61,1983.11Zm0.19,1.15a0.114,0.114,0,0,1-.08-0.03,0.1,0.1,0,0,1,.01-0.14l3.41-2.71a0.1,0.1,0,0,1,.13.15l-3.41,2.71A0.073,0.073,0,0,1,1219.8,1984.26Zm0.19,1.16a0.123,0.123,0,0,1-.08-0.04,0.1,0.1,0,0,1,.01-0.14l3.41-2.71a0.1,0.1,0,0,1,.14.01,0.109,0.109,0,0,1-.01.15l-3.41,2.7A0.086,0.086,0,0,1,1219.99,1985.42Zm0.18,1.15a0.127,0.127,0,0,1-.07-0.04,0.1,0.1,0,0,1,.01-0.14l3.41-2.71a0.1,0.1,0,0,1,.14.02,0.091,0.091,0,0,1-.02.14l-3.4,2.71A0.145,0.145,0,0,1,1220.17,1986.57Zm0.19,1.15a0.067,0.067,0,0,1-.07-0.04,0.1,0.1,0,0,1,.01-0.14l3.41-2.71a0.1,0.1,0,1,1,.12.16l-3.4,2.71A0.145,0.145,0,0,1,1220.36,1987.72Zm0.19,1.15a0.091,0.091,0,0,1-.08-0.04,0.109,0.109,0,0,1,.02-0.14l3.41-2.71a0.1,0.1,0,1,1,.12.16l-3.41,2.71A0.107,0.107,0,0,1,1220.55,1988.87Zm0.19,1.15a0.091,0.091,0,0,1-.08-0.04,0.109,0.109,0,0,1,.02-0.14l3.41-2.71a0.109,0.109,0,0,1,.14.02,0.108,0.108,0,0,1-.02.14l-3.41,2.71A0.142,0.142,0,0,1,1220.74,1990.02Zm0.19,1.15a0.114,0.114,0,0,1-.08-0.03,0.11,0.11,0,0,1,.02-0.15l3.4-2.7a0.109,0.109,0,0,1,.15.01,0.108,0.108,0,0,1-.02.14l-3.41,2.71A0.073,0.073,0,0,1,1220.93,1991.17Zm0.19,1.16a0.123,0.123,0,0,1-.08-0.04,0.1,0.1,0,0,1,.02-0.14l3.4-2.71a0.1,0.1,0,0,1,.13.15l-3.41,2.71A0.086,0.086,0,0,1,1221.12,1992.33Zm0.19,1.15a0.123,0.123,0,0,1-.08-0.04,0.1,0.1,0,0,1,.02-0.14l3.4-2.71a0.1,0.1,0,0,1,.14.01,0.109,0.109,0,0,1-.01.15l-3.41,2.7A0.086,0.086,0,0,1,1221.31,1993.48Zm0.19,1.15a0.123,0.123,0,0,1-.08-0.04,0.1,0.1,0,0,1,.01-0.14l3.41-2.71a0.1,0.1,0,0,1,.13.16l-3.41,2.71A0.142,0.142,0,0,1,1221.5,1994.63Zm0.18,1.15a0.087,0.087,0,0,1-.07-0.04,0.1,0.1,0,0,1,.01-0.14l3.41-2.71a0.108,0.108,0,0,1,.14.02,0.1,0.1,0,0,1-.02.14l-3.4,2.71A0.145,0.145,0,0,1,1221.68,1995.78Zm1.68-.03a0.091,0.091,0,0,1-.08-0.04,0.1,0.1,0,0,1,.02-0.14l1.92-1.53a0.108,0.108,0,0,1,.14.02,0.1,0.1,0,0,1-.02.14l-1.92,1.53A0.142,0.142,0,0,1,1223.36,1995.75Zm-25.47-10.57-0.07-.01,0.06-.17,0.5-.62,0.15-.14,0.08,0.03-0.11.16-0.15.21-0.09.11-0.08.1-0.09.11-0.09.09Zm0-.62-0.06-.04,0.09-.06Zm0.17,1-0.07-.05,0.11-.15,0.17-.21,0.25-.33,0.26-.32,0.1-.1,0.13-.14,0.06,0.01-0.05.1-0.11.18-0.09.12-0.52.65-0.1.09Zm0.33,0.22-0.07-.05,0.06-.13,0.14-.17,0.35-.45,0.09-.11,0.09-.11,0.18-.21,0.1-.11,0.08-.1,0.15-.16,0.03,0.09-0.13.19-0.08.11-0.26.34-0.35.43-0.09.09-0.08.11-0.1.1Zm0.32,6.3,0.01-.08,0.08-.04v0.09Zm0.03-.64-0.02-.01,0.06-.13,0.08-.11,0.09-.08,0.11-.09-0.05.14-0.08.11-0.07.09Zm0.08-5.56-0.09-.06,0.09-.14,0.14-.19,0.78-.95,0.09-.11,0.18-.2,0.14-.13,0.06-.03-0.03.06-0.08.15-0.08.11-0.16.2-0.15.21-0.16.2-0.09.1-0.09.11-0.26.3-0.17.19Zm0.1,5.93,0.07-.14,0.06-.12,0.08-.09,0.08-.1,0.11-.08,0.11-.11,0.02,0.01-0.08.13-0.08.11-0.16.2-0.09.08Zm0.14-5.73,0.06-.14,0.15-.21,0.09-.11,0.08-.12,0.55-.67,0.1-.11,0.08-.1,0.16-.23,0.1-.09,0.1,0.05-0.08.12-0.17.22-0.25.32-0.09.1-0.17.22-0.09.09-0.17.21-0.07.1-0.07.12-0.18.18Zm0.23,0.47-0.12-.07,0.17-.23,0.17-.21,0.09-.1,0.52-.65,0.09-.1,0.09-.12,0.08-.11,0.15-.22,0.08-.1,0.16-.11-0.03.21-0.18.23-0.1.11-0.09.09-0.09.11-0.09.1-0.07.11-0.09.1-0.58.75Zm-0.12,5.55,0.01-.05h0.03l0.01,0.04Zm0.11-4.98-0.06-.05,0.1-.15,0.42-.53,0.07-.11,0.44-.54,0.08-.12,0.17-.19,0.26-.27,0.04,0.02-0.05.11-0.06.11-0.08.11-0.94,1.17-0.08.12-0.17.21Zm0.01,0.54,0.02-.1,0.12-.17,0.09-.11,0.08-.12,0.17-.23,0.09-.11,0.08-.12,0.18-.21,0.3-.33,0.08-.14,0.1-.12,0.17-.18,0.09-.07,0.05,0.03-0.06.16-0.07.09-0.26.29-0.26.32-0.31.45-0.1.12-0.1.09-0.09.11-0.11.1-0.09.11-0.11.12Zm0.05,0.52,0.08-.16,0.08-.1,0.08-.1,0.84-1.08,0.26-.33,0.09-.08,0.14-.15,0.06,0.08-0.23.31-0.17.24-0.18.21-0.68.83-0.08.11-0.18.18Zm0.18,4.16-0.04-.04,0.09-.15,0.08-.11,0.08-.11,0.18-.2,0.1-.11,0.17-.22,0.08-.12,0.13-.17,0.14-.07-0.05.22-0.18.22-0.09.08-0.1.1-0.18.19-0.16.2-0.07.11-0.12.14Zm-0.02-3.72,0.07-.14,0.07-.1,0.22-.32,0.26-.33,0.36-.43,0.17-.22,0.08-.11,0.13-.16,0.12-.12,0.07,0.08-0.14.17-0.32.43-0.08.11-0.17.22-0.08.1-0.08.1-0.09.11-0.09.09-0.09.11-0.1.1-0.08.09-0.1.1Zm0.05,0.56,0.04-.13,0.07-.11,0.18-.19,0.08-.12,0.08-.11,0.08-.12,0.18-.21,0.27-.33,0.24-.3,0.08-.09,0.08-.1,0.12-.14,0.05,0.02-0.07.16-0.08.12-0.09.1-0.17.22-0.1.11-0.09.11-0.07.12-0.09.11-0.1.11-0.08.12-0.1.1-0.19.19-0.13.19-0.07.09Zm0.09,1.78-0.07-.04,0.12-.17,0.1-.09,0.13-.07-0.07.14-0.08.1Zm0.13,0.49-0.06-.03,0.08-.15,0.18-.24,0.1-.09,0.12-.11v0.03l-0.05.14-0.08.12-0.1.11-0.09.1Zm0.23-1.55-0.05-.04,0.08-.06,0.08-.14,0.06-.1,0.1-.12,0.07,0.03-0.11.15-0.08.08-0.11.13Zm0.02-.63-0.06-.04,0.07-.1,0.08-.11,0.08-.11,0.09-.1,0.12-.13,0.05,0.04-0.11.16-0.07.11-0.08.09Zm-0.03,3.07-0.02-.04,0.05-.03v0.03Zm0.27-.29-0.06-.02,0.07-.17,0.06-.12,0.23-.33,0.09-.11,0.09-.09,0.2-.2,0.11-.08,0.1-.09,0.15-.19,0.03,0.01-0.14.2-0.07.11-0.08.12-0.14.21-0.07.12-0.17.21-0.1.09-0.2.19Zm0.31-2.27-0.02-.03,0.09-.12,0.11-.1,0.02-.03-0.01.04Zm0.06-1.29-0.06-.04,0.29-.37,0.13-.14,0.03,0.05-0.08.15-0.07.12-0.1.12Zm-0.03,2.44,0.03-.07,0.09-.1,0.13-.17,0.06-.12,0.08-.09,0.09-.1,0.11-.12,0.04,0.04-0.11.15-0.08.13-0.1.11-0.17.21-0.12.11Zm0,1.23,0.03-.09,0.15-.15,0.17-.22,0.06-.12,0.08-.12,0.26-.32,0.08-.1,0.18-.2,0.09-.09,0.11-.07-0.14.24-0.08.11-0.08.1-0.08.12-0.09.1-0.07.11-0.1.09-0.09.1-0.1.1-0.16.21-0.14.17Zm0.1-3.16-0.02-.03,0.08-.15,0.07-.11,0.09-.1,0.11-.11h0.06v0.03l-0.08.13-0.09.12-0.09.11Zm0.1,1.08,0.02-.04,0.04-.03,0.07-.15,0.15-.21,0.12-.07-0.04.11-0.17.22-0.11.1-0.04.05Zm0.16-.77-0.04-.04,0.04-.06,0.03,0.02Zm0.11,2.88,0.04-.1,0.13-.14,0.1-.16,0.15-.12,0.07-.12,0.3-.43,0.25-.31,0.13-.13,0.06,0.06-0.11.16-0.08.12-0.09.11-0.2.22-0.17.24-0.08.11-0.15.15-0.13.13-0.09.08-0.05.09Zm0.54-.03,0.04-.18,0.16-.2,0.18-.19,0.07-.11,0.34-.42,0.16-.19,0.08,0.09-0.16.19-0.17.22-0.16.21-0.08.11-0.09.11-0.08.09-0.21.24Zm0.61-.06-0.1-.05,0.03-.09,0.11-.12,0.09-.1,0.1-.11,0.09-.1,0.18-.22,0.12-.12h0.03l-0.07.15-0.15.21-0.08.1-0.09.09-0.16.2Zm0.49-.1,0.04-.11,0.11-.12-0.02.14Zm1.06-5.84-0.04.01,0.01-.03,0.03-.04,0.06-.05Zm0.14,0.44-0.1.07,0.05-.12,0.07-.1,0.09-.1,0.12-.21,0.18-.22,0.1-.11,0.08-.1,0.19-.22,0.1-.11,0.17-.22,0.18-.24,0.18-.18,0.08-.11,0.07-.09,0.1-.09,0.16-.21,0.08-.12,0.07-.11,0.1-.11,0.16-.21,0.08-.1,0.11-.12,0.04,0.03-0.07.14-0.09.1-0.16.22-0.17.21-0.1.11-0.18.19-0.15.22-0.09.09-0.15.21-0.07.1-0.09.11-0.17.21-0.16.22-0.19.23-0.08.12-0.2.22-0.16.22-0.08.09Zm0.03-.63-0.11.08,0.07-.17,0.16-.22,0.93-1.17,0.23-.31,0.09-.11,0.09-.09,0.1-.09,0.13-.09-0.09.14-0.08.11-0.08.1-0.08.12-0.08.11-0.17.2-0.08.11-0.17.23-0.07.11-0.09.11-0.38.41-0.17.21Zm-0.02-.63-0.08.06,0.04-.1,0.12-.18,0.25-.31,0.08-.1,0.34-.42,0.12-.13,0.05,0.04-0.11.16-0.09.12-0.2.22-0.25.36-0.12.1Zm0.03,1.8,0.01-.02v0.02l-0.05.04-0.02.01Zm1.83-2.25-0.13.1-0.06.14-0.12.16-0.08.11-0.08.09-0.17.19-0.07.11-0.09.12-0.07.11-0.09.1-0.17.21-0.08.11-0.08.11-0.09.09-0.09.11-0.1.1-0.15.19-0.1.08,0.05-.12,0.16-.22,0.79-1,0.15-.17,0.13-.16,0.06-.1,0.09-.1,0.15-.14,0.09-.13,0.11-.16,0.07-.11,0.08-.09,0.08-.1,0.16-.2,0.08-.12,0.09-.1,0.17-.22,0.09-.09,0.16-.19,0.15-.21,0.15-.1-0.08.16-0.18.23-0.17.24-0.19.22-0.28.34-0.18.21Zm-1.59,3.22-0.11.11-0.03.04-0.05.03,0.03-.05,0.05-.03,0.07-.13,0.06-.12,0.06-.11,0.09-.1,0.1-.09,0.15-.21,0.12-.1-0.04.14-0.17.23-0.07.1-0.16.2Zm1.36-2.43h0.07l-0.14.2-0.08.11-0.25.35-0.26.32-0.1.11-0.09.12-0.19.22-0.08.12-0.1.11-0.13.15-0.07.06-0.03-.05,0.08-.15,0.16-.22,0.34-.42,0.17-.2,0.17-.22,0.09-.1,0.18-.21,0.17-.2Zm-1.2,2.87-0.12.13-0.06-.04,0.1-.13,0.07-.12,0.15-.21,0.09-.11,0.1-.1,0.18-.18,0.29-.43,0.27-.29,0.1-.11,0.03-.04,0.05-.01-0.02.05-0.06.03-0.02.11-0.07.12-0.16.19-0.17.22-0.18.2-0.16.22-0.15.21Zm1.16-.99,0.08,0.04-0.13.16-0.09.12-0.1.11-0.08.11-0.09.12-0.17.23-0.35.43-0.15.18-0.08.06-0.03-.04,0.06-.13,0.09-.09,0.17-.21,0.08-.1,0.08-.11,0.08-.11,0.09-.1,0.07-.1,0.09-.11,0.09-.1,0.08-.11,0.09-.09Zm-0.99,2.02-0.13.13-0.03-.05,0.1-.15,0.14-.24,0.09-.12,0.08-.09,0.12-.1,0.15-.2,0.1-.1,0.36-.45,0.05,0.03-0.1.15-0.1.11-0.15.2-0.08.11-0.16.22-0.08.11-0.26.33Zm0.09,0.46-0.06.08-0.07.06,0.03-.07,0.04-.1Zm0.44-.04,0.07,0.04-0.17.21-0.12.17-0.09.09-0.08.07,0.03-.12,0.08-.09,0.14-.17,0.09-.11Zm0.16-.67-0.08.13-0.18.22-0.21.21-0.05-.05,0.08-.16,0.1-.13,0.19-.2,0.49-.61,0.12-.09-0.02.14-0.17.19-0.18.23Zm-0.16-2.28-0.13.13-0.04-.06,0.11-.15,0.15-.21,0.26-.29,0.15-.1-0.09.14-0.07.12-0.07.12Zm-0.09,3.74,0.08-.07-0.05.08-0.09.08Zm0.1-6.85-0.08.06-0.01-.09,0.07-.05Zm0.17-.25-0.02-.01,0.04-.04Zm0.41,6.36-0.31.34h-0.05l0.09-.18,0.09-.1,0.08-.13,0.09-.1,0.13-.13,0.04,0.03-0.07.15Zm-0.09-.69,0.13-.06-0.08.17-0.1.12-0.1-.03,0.06-.12Zm0.11,1.14,0.07-.05v0.08l-0.09.09-0.05.01,0.02-.05Zm0.06-2.47-0.04.04v-0.06l0.04-.02v0.04Zm-0.04,1.27,0.08-.15,0.04,0.02-0.06.06Zm0.17,1.54,0.1-.04-0.05.12-0.08.02Zm0.09-.6h-0.06l0.03-.07h0.05Zm0.11,1.01,0.06-.03-0.02.06-0.05.02Zm0.32-6.65,0.13-.16,0.08,0.1-0.16.18-0.18.18-0.08.09-0.03.02,0.02-.04,0.05-.09,0.12-.18Zm-0.02,5.64,0.09-.06-0.03.12-0.1.06Zm0.16,1.02,0.12-.06-0.03.12-0.07.1-0.12.07-0.03-.02,0.03-.06Zm0.16-.62-0.08.08-0.1-.06,0.06-.12,0.09-.1,0.1-.09,0.12-.12,0.06,0.05-0.1.14Zm0.39-6.88,0.1-.1,0.13-.15,0.09-.12,0.05,0.05-0.07.11-0.14.15-0.08.12-0.26.33-0.09.16-0.07.04-0.05-.04,0.04-.09,0.12-.15,0.07-.11Zm-0.01,6.97-0.07.12-0.09.11-0.12.11-0.05-.03,0.08-.15,0.07-.13,0.09-.09,0.19-.2,0.08-.12,0.12-.09,0.13-.12-0.08.17-0.07.12-0.1.1Zm0.39-6.82,0.07-.09,0.08-.08,0.12-.14,0.06,0.04-0.1.14-0.08.1-0.23.25-0.18.31-0.18.19-0.1.09-0.11.1-0.04-.02,0.08-.14,0.07-.12,0.09-.11,0.09-.09,0.1-.09,0.14-.15Zm-0.21,7.1,0.06-.02v0.06l-0.08.08-0.06.05-0.03.05-0.03.02,0.02-.04,0.04-.04,0.03-.06Zm0.51-.58-0.09.15-0.09.12-0.14.15-0.05-.03,0.11-.14,0.06-.1,0.09-.09Zm-0.1-6.06-0.14.2-0.09.09,0.04-.12,0.14-.22,0.2-.22,0.09-.11,0.09-.1,0.24-.31,0.12-.07-0.07.13-0.09.12-0.07.1-0.18.22-0.08.1Zm0.3,0.31-0.09.1-0.08.11-0.1.13-0.05-.04,0.09-.15,0.08-.1,0.08-.11,0.1-.1,0.11-.11,0.03-.08,0.08,0.04Zm-0.16,6.24,0.11-.06-0.01.03-0.05.1-0.1.06Zm0.27-5.78-0.16.11,0.06-.15,0.08-.08,0.13-.14,0.13-.17,0.07,0.06Zm-0.15,5.71h0.02l-0.01.01h-0.02Zm0.2-.27,0.03-.03,0.01,0.04-0.1.13-0.12.13,0.04-.18Zm-0.07.62,0.12-.07-0.01.09-0.08.12-0.09.01Zm1.94-3.63,0.07,0.06-0.12.13-0.17.22-0.08.1-0.08.11-0.17.22-0.07.1-0.26.33-0.09.1-0.1.11-0.09.09-0.08.11-0.17.23-0.28.34-0.13.12-0.05-.01,0.1-.16,0.1-.11,0.17-.19,0.13-.22,0.09-.12,0.07-.1,0.09-.11,0.09-.1,0.61-.76,0.29-.33Zm-1.55-2.38,0.12-.13,0.04-.07,0.04,0.04-0.04.07-0.09.15-0.1.13-0.1.1-0.14.13-0.04-.03,0.11-.16,0.08-.12Zm-0.15,1.49-0.05.09-0.02.01,0.01-.03,0.05-.08,0.07-.12,0.12-.18,0.07-.12,0.09-.11,0.1-.11,0.13-.12,0.03,0.03-0.04.11-0.14.18-0.19.19-0.13.17Zm1.01,2.55-0.27.34-0.1.09-0.19.21-0.3.43-0.14.14-0.08-.06,0.09-.14,0.16-.17,0.09-.09,0.07-.11,0.09-.1,0.07-.1,0.13-.22,0.09-.08,0.17-.2,0.09-.12,0.17-.22,0.3-.33,0.12-.14,0.06-.02-0.03.07-0.09.13-0.17.23-0.09.11Zm-0.3-4.18,0.13-.17,0.1,0.06-0.12.17-0.08.11-0.37.41-0.08.11-0.14.23-0.12.08-0.04.06-0.05.01,0.01-.05,0.06-.04,0.08-.13,0.06-.11,0.07-.12,0.08-.09,0.17-.21,0.08-.1,0.09-.11Zm-0.67,5.81,0.11-.04-0.05.12-0.1.05Zm1.2-5.24,0.17-.17,0.07,0.07-0.14.25-0.08.1-0.09.08-0.18.18-0.09.1-0.51.63-0.18.22-0.14.13-0.03-.06,0.12-.17,0.19-.22,0.09-.1,0.1-.11,0.08-.11,0.17-.21,0.25-.33,0.07-.1Zm-1.13-1.58v0.03l-0.05.04v-0.06Zm1.5,3.01,0.11-.12,0.04,0.03-0.09.17-0.08.13-0.07.12-0.1.11-0.21.22-0.15.23-0.07.1-0.09.11-0.35.39-0.16.14-0.05.15-0.09.1-0.11.1-0.06-.03,0.06-.15,0.08-.09,0.19-.18,0.07-.12,0.17-.24,0.09-.11,0.28-.32,0.08-.11,0.08-.13,0.08-.1,0.08-.11Zm-1.52,1.3,0.05,0.02-0.05.04v-0.06Zm1.41-2.41,0.08,0.06-0.16.22-0.09.11-0.26.31-0.35.43-0.17.23-0.1.11-0.23.29-0.1.06v-0.05l0.17-.24,0.17-.22,0.61-.75,0.08-.1Zm0.08,0.53,0.07,0.05-0.08.16-0.09.11-0.08.12-0.09.11-0.1.11-0.2.21-0.27.35-0.08.12-0.1.11-0.09.11-0.14.15h-0.09l0.06-.15,0.15-.2,0.26-.3,0.18-.21,0.08-.1,0.08-.11,0.08-.11,0.24-.31,0.09-.09Zm-1.23-2.66-0.09.08v-0.11l0.14-.1Zm0.06,0.55-0.15.11,0.08-.17,0.16-.15,0.08-.05-0.04.08Zm0.24,5.76,0.06,0.05-0.09.12-0.1.11-0.15.19-0.1.05,0.06-.11,0.14-.18,0.07-.13Zm-0.1-5.27-0.14.04,0.06-.15,0.09-.07,0.11-.06-0.03.14Zm0.07,5.89,0.14-.1-0.05.16-0.13.1Zm-0.03-6.64h-0.01l0.01-.01v0.01Zm0.07-.06-0.07.05,0.02-.08,0.04-.04Zm0.31,1.29,0.18-.19,0.13-.1,0.04,0.04-0.09.14-0.07.1-0.06.11-0.09.09-0.19.16-0.1.14-0.07-.05,0.13-.11,0.13-.21Zm0.82,3.37,0.04,0.04-0.08.16-0.07.12-0.35.43-0.1.11-0.07.11-0.17.19-0.12.05-0.01-.05,0.09-.15,0.08-.1,0.08-.12,0.08-.11,0.18-.22,0.19-.23,0.13-.17Zm-0.18.83,0.11-.07-0.04.13-0.17.19-0.06.1-0.17.19-0.13.1,0.07-.14,0.06-.12,0.09-.11,0.1-.08Zm-0.33,1.06,0.05-.03-0.01.04-0.04.04v-0.05Zm0.41-.52,0.04-.02-0.04.03-0.02.04Zm1.62-4.77-0.04.01,0.01-.04,0.03-.04,0.06-.04Zm0.15,0.44-0.11.07,0.05-.12,0.08-.1,0.09-.1,0.12-.21,0.17-.22,0.1-.11,0.09-.11,0.18-.21,0.1-.11,0.18-.22,0.18-.24,0.18-.18,0.07-.11,0.08-.1,0.1-.08,0.16-.22,0.07-.11,0.08-.11,0.1-.11,0.16-.22,0.07-.09,0.11-.12,0.04,0.03-0.07.14-0.08.1-0.17.21-0.17.22-0.1.11-0.17.19-0.15.22-0.09.09-0.15.2-0.08.11-0.08.11-0.18.2-0.16.23-0.18.23-0.09.12-0.2.22-0.16.22-0.07.09Zm0.03-.64-0.12.09,0.07-.17,0.16-.23,0.93-1.16,0.24-.31,0.09-.11,0.08-.09,0.1-.09,0.13-.09-0.08.13-0.09.11-0.08.11-0.08.12-0.07.11-0.18.2-0.07.11-0.18.23-0.07.11-0.09.1-0.37.41-0.17.22Zm-0.03-.63-0.07.06,0.04-.09,0.11-.18,0.25-.31,0.09-.1,0.33-.42,0.12-.14,0.06,0.05-0.12.16-0.09.12-0.19.22-0.26.36-0.11.1Zm0.03,1.8,0.01-.01v0.01l-0.04.05-0.02.01Zm1.84-2.25-0.14.1-0.06.15-0.12.16-0.07.11-0.09.09-0.16.19-0.08.11-0.08.12-0.08.11-0.09.09-0.17.22-0.07.11-0.09.1-0.09.1-0.08.11-0.1.1-0.16.19-0.1.08,0.05-.13,0.16-.21,0.79-1,0.15-.17,0.13-.16,0.07-.11,0.08-.09,0.15-.14,0.1-.14,0.1-.16,0.08-.1,0.07-.1,0.09-.09,0.15-.21,0.09-.12,0.08-.09,0.18-.22,0.08-.09,0.17-.2,0.15-.2,0.15-.1-0.08.16-0.19.23-0.17.24-0.18.22-0.29.34-0.17.21Zm-1.6,3.23-0.11.11-0.03.04-0.05.03,0.03-.05,0.05-.03,0.07-.14,0.06-.11,0.07-.11,0.08-.11,0.1-.08,0.15-.22,0.13-.1-0.05.15-0.17.22-0.06.11-0.16.2Zm1.36-2.44,0.08,0.01-0.14.2-0.09.11-0.24.35-0.26.32-0.1.11-0.1.12-0.18.22-0.09.12-0.1.11-0.13.15-0.07.06-0.03-.05,0.08-.16,0.17-.21,0.33-.42,0.18-.21,0.17-.21,0.09-.1,0.17-.22,0.18-.19Zm-1.2,2.88-0.12.13-0.05-.04,0.1-.13,0.07-.12,0.15-.22,0.08-.11,0.1-.09,0.18-.18,0.3-.43,0.26-.29,0.1-.11,0.03-.04,0.05-.02-0.02.05-0.06.04-0.02.11-0.06.12-0.16.19-0.18.22-0.17.2-0.16.21-0.15.22Zm1.16-1,0.08,0.05-0.13.16-0.08.12-0.1.11-0.09.11-0.09.12-0.17.23-0.34.43-0.16.18-0.08.05-0.02-.03,0.05-.13,0.09-.1,0.18-.2,0.07-.11,0.09-.11,0.07-.1,0.09-.1,0.08-.11,0.08-.1,0.09-.1,0.09-.11,0.09-.09Zm-0.98,2.03-0.14.12-0.03-.04,0.1-.15,0.14-.24,0.09-.12,0.09-.09,0.11-.1,0.15-.21,0.1-.09,0.36-.45,0.05,0.03-0.09.15-0.1.11-0.15.2-0.09.11-0.16.21-0.07.12-0.26.33Zm0.09,0.46-0.07.08-0.07.05,0.03-.06,0.04-.1Zm0.43-.04,0.07,0.04-0.16.21-0.13.17-0.09.08-0.08.07,0.04-.11,0.07-.1,0.15-.16,0.08-.11Zm0.17-.67-0.09.13-0.17.22-0.21.21-0.06-.05,0.08-.17,0.1-.12,0.2-.21,0.49-.61,0.11-.08-0.02.14-0.17.19-0.18.23Zm-0.17-2.28-0.12.12-0.04-.05,0.1-.15,0.15-.21,0.27-.29,0.15-.1-0.1.14-0.06.12-0.07.12Zm-0.08,3.74,0.08-.07-0.06.08-0.08.08Zm0.1-6.85-0.08.06-0.01-.09,0.06-.06Zm0.17-.26h-0.03l0.04-.05Zm0.4,6.37-0.31.34-0.05-.01,0.09-.17,0.09-.11,0.09-.12,0.08-.11,0.14-.12,0.04,0.03-0.07.15Zm-0.09-.7,0.13-.05-0.08.17-0.1.12-0.1-.04,0.06-.11Zm0.12,1.15,0.06-.06v0.09l-0.09.08-0.05.02,0.02-.05Zm0.05-2.48-0.04.05,0.01-.07,0.03-.01v0.03Zm-0.04,1.28,0.08-.16,0.04,0.02-0.05.07Zm0.17,1.54,0.11-.04-0.05.12-0.09.02Zm0.09-.61-0.06.01,0.03-.08,0.05,0.01Zm0.12,1.02,0.05-.03-0.01.06-0.05.02Zm0.31-6.65,0.13-.17,0.09,0.11-0.17.17-0.18.18-0.07.1-0.04.02,0.02-.04,0.05-.1,0.12-.17Zm-0.02,5.64,0.09-.06-0.02.11-0.11.06Zm0.16,1.02,0.12-.06-0.02.12-0.08.1-0.11.07-0.03-.02,0.03-.06Zm0.17-.63-0.09.09-0.09-.07,0.06-.11,0.08-.1,0.1-.1,0.13-.11,0.05,0.05-0.09.14Zm0.39-6.88,0.1-.09,0.13-.15,0.08-.12,0.06,0.05-0.08.11-0.14.15-0.07.12-0.26.32-0.1.16-0.06.05-0.06-.05,0.04-.09,0.12-.15,0.07-.1Zm-0.01,6.98-0.08.12-0.08.11-0.13.11-0.05-.03,0.09-.15,0.07-.13,0.08-.09,0.19-.2,0.09-.12,0.11-.1,0.14-.11-0.08.17-0.08.12-0.1.1Zm0.38-6.82,0.08-.09,0.07-.09,0.13-.13,0.05,0.04-0.1.13-0.07.11-0.23.25-0.19.3-0.18.2-0.1.09-0.11.1-0.04-.02,0.08-.14,0.08-.12,0.08-.11,0.09-.1,0.1-.08,0.15-.15Zm-0.2,7.1,0.06-.02-0.01.06-0.08.08-0.05.04-0.03.06-0.04.01,0.02-.04,0.04-.04,0.04-.05Zm0.5-.58-0.08.15-0.1.12-0.13.15-0.05-.03,0.1-.14,0.07-.1,0.09-.09Zm-0.1-6.06-0.14.2-0.09.09,0.04-.12,0.15-.23,0.19-.22,0.09-.1,0.09-.1,0.25-.31,0.11-.08-0.07.14-0.08.12-0.08.1-0.17.22-0.09.1Zm0.31,0.31-0.09.1-0.09.11-0.1.13-0.05-.04,0.1-.15,0.07-.11,0.09-.11,0.1-.09,0.11-.11,0.03-.08,0.07,0.04Zm-0.17,6.24,0.12-.06-0.01.03-0.05.1-0.11.06Zm0.28-5.78-0.16.1,0.05-.14,0.08-.08,0.13-.14,0.13-.17,0.07,0.06Zm-0.15,5.7h0.01l-0.01.02h-0.01Zm0.19-.26,0.04-.03v0.03l-0.1.14-0.12.12,0.04-.17Zm-0.06.62,0.11-.07v0.08l-0.09.12-0.08.01Zm1.94-3.63,0.06,0.05-0.12.14-0.17.22-0.07.1-0.09.11-0.16.22-0.08.1-0.26.33-0.08.09-0.1.11-0.09.1-0.09.11-0.17.23-0.27.34-0.14.12-0.05-.02,0.11-.16,0.1-.11,0.16-.19,0.14-.21,0.08-.12,0.08-.11,0.09-.11,0.08-.09,0.61-.76,0.3-.33Zm-1.56-2.38,0.12-.13,0.04-.08,0.04,0.05-0.04.06-0.09.16-0.1.12-0.1.11-0.13.13-0.04-.03,0.1-.16,0.09-.12Zm-0.14,1.49-0.06.08-0.02.02,0.01-.03,0.05-.08,0.08-.12,0.11-.18,0.07-.12,0.09-.11,0.1-.11,0.13-.13,0.03,0.04-0.03.11-0.14.18-0.19.19-0.13.16Zm1,2.54-0.27.34-0.1.1-0.18.21-0.3.42-0.15.14-0.08-.05,0.1-.15,0.15-.16,0.09-.1,0.07-.1,0.09-.1,0.08-.11,0.12-.21,0.09-.08,0.18-.21,0.08-.12,0.17-.21,0.3-.33,0.12-.14,0.06-.02-0.03.07-0.08.13-0.18.23-0.08.11Zm-0.3-4.17,0.13-.18,0.11,0.07-0.13.17-0.08.11-0.37.41-0.07.11-0.15.22-0.11.09-0.05.05-0.04.02v-0.05l0.06-.04,0.08-.14,0.06-.1,0.08-.12,0.07-.1,0.18-.2,0.07-.11,0.09-.1Zm-0.66,5.81,0.1-.05-0.04.13-0.11.05Zm1.2-5.24,0.16-.17,0.07,0.07-0.13.25-0.09.09-0.09.09-0.18.18-0.08.09-0.51.64-0.19.22-0.13.13-0.03-.06,0.11-.18,0.2-.22,0.09-.09,0.1-.11,0.07-.11,0.17-.22,0.25-.32,0.08-.11Zm-1.14-1.58v0.03l-0.04.04-0.01-.06Zm1.5,3.01,0.11-.12,0.04,0.03-0.09.17-0.07.13-0.07.12-0.1.11-0.21.22-0.15.22-0.08.11-0.08.11-0.35.38-0.16.15-0.06.15-0.09.1-0.11.09-0.05-.03,0.06-.14,0.07-.09,0.19-.19,0.07-.11,0.18-.24,0.08-.11,0.29-.32,0.07-.12,0.09-.12,0.07-.11,0.09-.1Zm-1.52,1.3,0.05,0.02-0.04.04Zm1.41-2.41,0.08,0.06-0.16.22-0.08.11-0.27.31-0.34.43-0.17.23-0.1.11-0.23.28-0.1.06-0.01-.04,0.17-.24,0.17-.22,0.61-.75,0.09-.11Zm0.09,0.53,0.06,0.04-0.08.17-0.08.11-0.09.12-0.09.11-0.1.11-0.19.2-0.27.36-0.09.12-0.1.11-0.09.11-0.14.15-0.09-.01,0.06-.14,0.15-.2,0.27-.3,0.17-.22,0.09-.09,0.07-.11,0.09-.11,0.24-.31,0.08-.09Zm-1.23-2.67-0.09.09v-0.11l0.13-.1Zm0.06,0.55-0.15.12,0.08-.17,0.15-.15,0.09-.05-0.05.08Zm0.24,5.77,0.05,0.05-0.08.12-0.1.11-0.15.19-0.11.05,0.06-.12,0.14-.17,0.07-.13Zm-0.1-5.28-0.15.04,0.06-.14,0.09-.07,0.12-.06-0.04.14Zm0.07,5.9,0.13-.11-0.04.17-0.14.1Zm-0.03-6.64h-0.01l0.01-.01v0.01Zm0.07-.06-0.07.05,0.01-.08,0.05-.04Zm0.31,1.29,0.18-.19,0.12-.1,0.04,0.04-0.08.13-0.08.11-0.06.11-0.09.09-0.19.16-0.1.13-0.06-.04,0.12-.11,0.14-.21Zm0.81,3.36,0.05,0.05-0.09.16-0.07.11-0.35.44-0.09.11-0.08.11-0.16.19-0.12.05-0.02-.05,0.1-.15,0.07-.1,0.09-.13,0.07-.1,0.19-.22,0.18-.23,0.13-.18Zm-0.18.84,0.12-.08-0.05.13-0.16.19-0.06.11-0.18.19-0.13.1,0.08-.14,0.06-.12,0.08-.11,0.1-.08Zm-0.32,1.06,0.04-.03-0.01.04-0.04.04Zm0.41-.53,0.03-.01-0.03.02-0.02.04Zm-48.72-6.05-0.05-.02,0.07-.11,0.22-.33,0.06,0.05-0.08.13-0.16.19Zm0.09,0.54-0.04-.03,0.07-.16,0.31-.48,0.27-.35,0.12-.15,0.04,0.04-0.06.15-0.07.13-0.06.11-0.15.22-0.16.21-0.06.11-0.08.1Zm0.15,0.54-0.08.01,0.01-.07,0.16-.27,0.16-.24,0.06-.11,0.07-.13,0.31-.46,0.08-.1,0.09-.12,0.08-.12,0.08-.1,0.11-.16,0.05,0.04-0.09.16-0.23.37-0.15.25-0.23.35-0.25.32-0.13.23Zm0.05,0.58-0.05-.05,0.11-.17,0.07-.12,0.15-.25,0.45-.68,0.24-.33,0.22-.34,0.14-.23,0.24-.33,0.06,0.04-0.06.13-0.07.12-0.07.12-0.91,1.37-0.08.1-0.08.12-0.08.1-0.07.12Zm0.18,0.42-0.08.12-0.02.03v-0.04l0.03-.13,0.13-.21,0.06-.12,0.16-.23,0.06-.11,0.31-.45,1.22-1.84,0.1,0.07-0.17.23-0.23.34-0.46.68-0.16.22-0.07.12-0.07.11-0.08.11-0.14.23-0.07.12-0.07.11-0.29.43Zm0.29,0.98-0.12.15-0.04-.05,0.08-.16,0.07-.12,0.3-.46,0.16-.25,0.07-.11,0.34-.45,0.12-.14,0.05-.05,0.02,0.02-0.07.15-0.08.13-0.21.35-0.23.35-0.16.22-0.21.32Zm1.62-3.33,0.24-.36,0.07-.12,0.09-.12,0.15-.13,0.05-.07,0.04,0.02-0.03.07-0.06.15-0.07.12-0.24.32-0.08.12-0.4.58-0.53.8-0.07.12-0.16.22-0.46.67-0.08.11-0.14.27-0.1-.08,0.17-.25,0.31-.49,0.17-.24,0.16-.23,0.08-.12,0.08-.1,0.14-.23,0.45-.69,0.15-.22Zm-1.41,3.72-0.11.16-0.06.02-0.02-.03,0.07-.15,0.28-.46,0.23-.34,0.16-.21,0.08-.12,0.08-.1,0.11-.18,0.09-.09,0.06,0.04-0.1.17-0.54.82Zm0.24,0.33-0.08-.04,0.08-.17,0.13-.22,0.66-1,0.18-.22,0.08,0.03-0.06.14-0.06.11-0.07.13-0.16.23-0.16.23-0.15.22-0.13.23-0.15.19Zm0.04,1.9,0.08-.08,0.03-.03,0.01,0.04-0.08.12-0.09.05Zm0.31,0.38-0.08.1-0.12.15-0.06-.04,0.09-.16,0.16-.23,0.13-.19,0.09-.07-0.01.13-0.14.19Zm0.46-.15,0.03,0.07-0.08.15-0.28.39-0.03-.01-0.02-.03,0.07-.17,0.07-.12,0.1-.12Zm-0.02-2.58-0.13.16-0.1-.07,0.12-.18,0.09-.12,0.24-.38,0.09-.11,0.3-.45,0.13-.13,0.03,0.06-0.09.18-0.08.12-0.15.25-0.15.23-0.17.22Zm-0.11,3.45,0.12-.08-0.06.12Zm0.37-.41-0.07-.04,0.09-.18,0.08-.13,0.16-.22,0.07-.1,0.12-.08-0.02.15-0.08.1-0.22.33Zm0-2.81-0.07-.03,0.09-.18,0.16-.24,0.08-.11,0.08-.11,0.13-.22,0.07-.12,0.08-.1,0.2-.23,0.14-.21,0.09-.07-0.02.11-0.14.21-0.33.56-0.08.11-0.07.11-0.08.11-0.22.29Zm-0.04,2.06,0.06-.16,0.13-.08-0.01.09-0.09.12Zm0.86-6.26,0.15-.23,0.08-.11,0.14-.13,0.05-.01-0.02.07-0.09.17-0.06.11-0.31.46-0.06.13-0.17.23-0.08.13-0.27.36-0.13.15-0.05-.03,0.1-.16,0.07-.11,0.13-.23,0.08-.12,0.16-.21,0.06-.12,0.15-.24Zm-0.69,7.35,0.12-.08-0.04.14-0.13.09Zm0.54-.6-0.17.23-0.1.15-0.09-.04,0.09-.15,0.06-.11,0.08-.11,0.07-.1,0.06-.11,0.1-.12,0.04,0.01v0.07l-0.06.16Zm-0.22.79,0.12-.09-0.03.15-0.12.07Zm0-3.37-0.03-.04,0.08-.17,0.06-.12,0.24-.35,0.33-.49,0.09-.12,0.14-.16,0.09-.08,0.03,0.04-0.09.17-0.07.14-0.14.24-0.22.33-0.08.1-0.08.12-0.08.1-0.09.11-0.12.15Zm0.3-3.35,0.6-.91,0.3-.42,0.09-.08,0.03,0.02-0.03.09-0.12.2-0.07.13-0.54.81-0.09.12-0.07.11-0.15.24-0.13-.07Zm-0.04,6.44-0.03-.03,0.08-.15,0.09-.12,0.07-.13,0.09-.12,0.09-.13,0.1-.12,0.04,0.03-0.09.17-0.15.26-0.07.11-0.09.12-0.1.12Zm0.25,0.24,0.13-.1-0.07.16-0.06.12-0.11.14-0.05-.05,0.07-.15Zm0.01-3.38-0.06.01,0.08-.18,0.05-.12,0.15-.23,0.09-.1,0.08-.11,0.08-.11,0.09-.12,0.26-.39,0.06-.08,0.06,0.02-0.07.16-0.13.22-0.14.22-0.07.12-0.08.1-0.23.34-0.08.12Zm0.7,2.49-0.16.23-0.08.1-0.07.12-0.16.21-0.11.13,0.03-.11,0.11-.18,0.14-.24,0.07-.12,0.08-.13,0.15-.23,0.17-.18,0.08-.07-0.06.12-0.06.12Zm0.15-6.7,0.07-.12,0.08-.11,0.07-.11,0.15-.16,0.07,0.05-0.05.13-0.12.16-0.09.11-0.07.11-0.1.11-0.15.23-0.22.36-0.07.11-0.09.12-0.12.16-0.09.05v-0.05l0.07-.17,0.08-.11,0.06-.12,0.08-.1,0.22-.32,0.14-.23Zm-0.42,4.25-0.04-.03,0.06-.15,0.07-.1,0.14-.22,0.06-.11,0.22-.33,0.16-.21,0.19-.23,0.06,0.03-0.08.17-0.07.11-0.08.1-0.06.12-0.14.21-0.08.11-0.16.23-0.14.23Zm-0.02,3.39,0.14-.1-0.04.16-0.11.12Zm0.79-7.51,0.17-.24,0.13-.17,0.09-.06,0.02,0.06-0.07.15-0.14.24-0.15.23-0.09.12-0.23.35-0.09.1-0.13.17-0.08-.05,0.11-.18,0.21-.37,0.09-.12,0.08-.11Zm0.1,6.36-0.09.12-0.23.34-0.16.24-0.09.15-0.07-.02,0.08-.19,0.18-.25,0.06-.12,0.31-.46,0.12-.2,0.12-.15,0.08-.1,0.13-.1-0.05.15-0.06.1-0.1.18-0.15.19Zm-0.49,1.26,0.03,0.04-0.05.04-0.03.02,0.02-.03Zm0-3.36-0.04-.03,0.08-.16,0.06-.12,0.16-.22,0.51-.78,0.13-.16,0.08,0.04-0.1.17-0.16.2-0.08.13-0.13.26-0.08.13-0.09.12-0.09.1-0.09.12-0.1.17Zm0.17,3.08,0.13-.08-0.03.04-0.05.14-0.1.06Zm0.22-.26,0.04-.06,0.01,0.07-0.07.09-0.07.08,0.04-.1Zm0.03-2.71-0.1-.05,0.14-.23,0.08-.12,0.25-.34,0.07-.11,0.21-.34,0.08-.11,0.12-.1h0.04l-0.05.12-0.05.11-0.15.22-0.16.23-0.07.13-0.15.24-0.08.13Zm0.37-4.23,0.11-.12,0.05,0.01-0.08.16-0.07.13-0.07.11-0.16.24-0.11.13-0.06-.02,0.09-.17,0.08-.12,0.06-.12Zm0.77,3.05,0.07,0.04-0.04.09-0.11.17-0.25.34-0.08.12-0.09.12-0.14.23-0.07.11-0.08.1-0.06.12-0.15.2-0.11.06,0.15-.27,0.07-.11,0.18-.24,0.1-.18,0.27-.41,0.08-.1Zm-1.01,3.66,0.06-.05-0.03.05-0.02.03Zm1-2.98,0.09-.04,0.01,0.11-0.13.12-0.12.2-0.06.13-0.07.11-0.09.12-0.31.45-0.06.11-0.08.12-0.09.15-0.07-.02,0.06-.19,0.18-.2,0.13-.25,0.18-.22,0.05-.14,0.07-.12,0.11-.11,0.13-.17Zm-0.75,2.63-0.06.15-0.13.15,0.06-.19Zm1.44-1.49-0.06.17-0.05.14-0.06.12-0.07.13-0.18.21-0.08.12-0.09.11-0.46.7-0.13.17-0.08.11-0.07-.04,0.08-.15,0.13-.23,0.08-.13,0.08-.1,0.09-.12,0.07-.11,0.09-.12,0.16-.23,0.13-.26,0.09-.11,0.1-.13,0.09-.11,0.1-.15Zm-0.33-.36,0.09-.08,0.1,0.05-0.09.2-0.07.1-0.17.21-0.08.1-0.53.79-0.08.15-0.05.11-0.11.04,0.01-.14,0.16-.2,0.07-.13,0.07-.13,0.09-.1,0.16-.21,0.06-.13,0.23-.34,0.06-.13Zm-0.86.85-0.12.12,0.06-.16,0.1-.25,0.08-.1,0.11-.08,0.09-.16,0.1-.2,0.15-.25,0.07-.12,0.18-.23,0.12-.11,0.01,0.17-0.15.24-0.07.12-0.08.11-0.08.1-0.14.21-0.15.17-0.06.11-0.06.11-0.08.1Zm-0.06,2.03,0.05-.03,0.01,0.06-0.06.02v-0.05Zm0.4-.63,0.12-.13-0.04.17-0.07.14-0.15.19-0.1.1,0.03-.14,0.15-.2Zm0.77-1.14,0.07,0.01-0.11.17-0.07.13-0.07.11-0.07.13-0.15.23-0.14.18-0.11.05,0.08-.16,0.08-.12,0.06-.12,0.08-.13,0.08-.11,0.08-.12,0.08-.1Zm-0.45-2.05,0.06-.08,0.04-.09,0.04,0.03-0.05.06-0.04.07Zm1.46-2.49-0.03.01v-0.03l0.03-.05,0.06-.04Zm0.09-.84-0.08.07,0.03-.09,0.1-.2,0.22-.33,0.08-.1,0.3-.45,0.11-.15,0.05,0.04-0.1.17-0.07.13-0.18.23-0.22.39-0.11.11Zm0.07,0.63-0.1.1,0.05-.18,0.14-.24,0.82-1.24,0.21-.33,0.08-.12,0.08-.1,0.09-.09,0.12-.1-0.07.14-0.08.11-0.06.12-0.08.12-0.06.12-0.16.22-0.06.11-0.16.24-0.06.12-0.08.11-0.33.44-0.16.23Zm0.03,0.63-0.1.08,0.04-.12,0.06-.11,0.08-.1,0.11-.23,0.15-.23,0.09-.11,0.08-.12,0.16-.23,0.09-.12,0.16-.23,0.16-.26,0.16-.19,0.06-.12,0.07-.1,0.09-.09,0.15-.23,0.06-.13,0.06-.11,0.09-.12,0.14-.23,0.07-.1,0.1-.13,0.04,0.03-0.06.15-0.07.1-0.15.23-0.15.23-0.09.12-0.16.21-0.13.22-0.08.11-0.13.21-0.06.11-0.08.12-0.16.22-0.13.24-0.17.24-0.07.13-0.18.24-0.14.23-0.07.1Zm0.08,0.54,0.01-.02v0.01l-0.04.05-0.02.02Zm1.63-2.41-0.13.11-0.04.15-0.11.17-0.06.12-0.08.1-0.15.2-0.06.12-0.08.12-0.06.12-0.08.1-0.15.23-0.07.11-0.07.12-0.08.1-0.08.12-0.09.1-0.14.21-0.09.09,0.03-.13,0.15-.23,0.7-1.07,0.13-.17,0.12-.18,0.05-.11,0.08-.1,0.13-.15,0.09-.15,0.09-.16,0.06-.12,0.07-.1,0.08-.1,0.13-.22,0.08-.12,0.08-.11,0.15-.23,0.08-.1,0.15-.21,0.13-.21,0.14-.12-0.07.17-0.16.24-0.15.26-0.17.23-0.25.37-0.15.23Zm-1.3,3.35-0.1.12-0.03.05-0.05.03,0.03-.05,0.04-.04,0.06-.14,0.05-.12,0.06-.11,0.07-.11,0.1-.1,0.13-.23,0.11-.1-0.03.14-0.15.24-0.05.11-0.15.22Zm1.14-2.54h0.07l-0.12.21-0.08.11-0.21.37-0.23.35-0.09.12-0.09.13-0.16.23-0.07.13-0.09.12-0.12.16-0.06.06-0.04-.04,0.07-.17,0.14-.23,0.3-.44,0.15-.22,0.16-.23,0.08-.11,0.15-.23,0.16-.2Zm-0.95,2.97-0.1.14-0.06-.03,0.08-.15,0.06-.12,0.13-.23,0.08-.11,0.09-.11,0.16-.19,0.26-.46,0.24-.31,0.09-.12,0.03-.04,0.04-.02-0.01.05-0.06.04-0.01.11-0.05.13-0.15.2-0.15.23-0.16.22-0.14.23-0.13.23Zm1.07-1.09,0.08,0.03-0.11.17-0.08.13-0.08.12-0.08.11-0.08.13-0.15.25-0.3.46-0.14.19-0.08.06-0.03-.03,0.05-.13,0.08-.11,0.16-.22,0.06-.11,0.08-.12,0.06-.11,0.08-.1,0.07-.12,0.07-.11,0.08-.1,0.08-.12,0.08-.1Zm-0.8,2.1-0.12.13-0.04-.04,0.08-.15,0.13-.25,0.07-.13,0.08-.1,0.11-.11,0.13-.22,0.09-.1,0.32-.48,0.05,0.03-0.08.15-0.09.12-0.13.21-0.08.12-0.14.23-0.06.12-0.23.35Zm0.04-5.67-0.07.07-0.02-.09,0.06-.06Zm0.09,6.12-0.06.08-0.06.07,0.02-.07,0.03-.11Zm0.17-3.02-0.11.14-0.05-.05,0.09-.16,0.13-.23,0.24-.31,0.14-.11-0.08.15-0.05.12-0.06.13Zm-0.11-3.36-0.03-.01,0.04-.05Zm0.47,5.62-0.07.14-0.15.23-0.2.23-0.05-.04,0.06-.18,0.09-.13,0.18-.22,0.43-.65,0.1-.1v0.14l-0.15.21-0.16.24Zm-0.1.68,0.07,0.04-0.14.22-0.12.18-0.08.09-0.07.08,0.03-.12,0.06-.1,0.13-.18,0.08-.11Zm-0.02.79,0.08-.07-0.05.08-0.08.09Zm0.61-.79-0.28.37-0.05-.01,0.08-.18,0.07-.11,0.08-.13,0.08-.11,0.12-.14,0.04,0.03-0.06.15Zm-0.15-.69,0.12-.06-0.06.18-0.09.13-0.1-.03,0.05-.12Zm0.05-1.33-0.04.04v-0.06l0.04-.02v0.04Zm0.07,1.27,0.07-.16,0.04,0.01-0.05.08Zm0.09,1.2,0.07-.07v0.09l-0.08.09-0.05.02,0.02-.05Zm0.19-5.95,0.11-.17,0.1,0.09-0.15.2-0.16.19-0.07.1-0.03.02,0.01-.04,0.05-.09,0.1-.19Zm0.07,5.66-0.06.01,0.02-.08h0.05Zm-0.04.61,0.1-.05-0.04.12-0.08.03Zm0.24,0.39,0.05-.04-0.01.07-0.05.02Zm0.35-7.56,0.09-.1,0.12-.16,0.07-.13,0.06,0.05-0.07.11-0.12.17-0.07.12-0.23.35-0.08.16-0.06.05-0.06-.03,0.03-.1,0.11-.16,0.06-.11Zm0.38,0.13,0.07-.1,0.07-.09,0.11-.15,0.06,0.04-0.09.14-0.06.11-0.21.27-0.16.32-0.16.21-0.09.1-0.11.11-0.04-.01,0.07-.16,0.06-.12,0.08-.12,0.08-.1,0.09-.1,0.13-.16Zm-0.53,6.4,0.09-.07-0.01.12-0.1.07Zm0.25,1,0.11-.07-0.01.12-0.07.1-0.1.09-0.03-.02,0.02-.07Zm0.11-.64-0.08.09-0.1-.05,0.05-.12,0.08-.11,0.09-.1,0.12-.13,0.05,0.04-0.08.16Zm0.39,0.06-0.06.13-0.08.11-0.11.13-0.06-.03,0.07-.15,0.06-.14,0.08-.1,0.17-.21,0.08-.13,0.1-.11,0.13-.12-0.07.17-0.06.13-0.09.1Zm0.02-6.38-0.12.21-0.08.09,0.03-.12,0.12-.24,0.18-.23,0.08-.12,0.08-.1,0.22-.33,0.11-.09-0.06.14-0.08.13-0.06.11-0.16.23-0.08.1Zm0.33,0.28-0.08.1-0.07.12-0.09.14-0.06-.04,0.09-.15,0.06-.11,0.08-.12,0.09-.11,0.1-.12,0.02-.08,0.08,0.04Zm-0.15,6.36,0.06-.02v0.06l-0.07.09-0.05.05-0.03.05-0.03.02,0.02-.04,0.04-.04,0.02-.06Zm0.45-.61-0.07.15-0.08.13-0.12.16-0.06-.03,0.1-.14,0.05-.11,0.08-.09Zm-0.14-5.3-0.16.11,0.05-.14,0.07-.09,0.12-.15,0.11-.19,0.08,0.06Zm0.36,0.01,0.11-.13,0.03-.09,0.05,0.04-0.04.07-0.08.17-0.08.13-0.09.12-0.12.14-0.05-.03,0.1-.17,0.07-.13Zm-0.14-1.14v0.03l-0.04.04-0.01-.06Zm0.01,6.91,0.11-.07-0.01.02-0.04.11-0.1.07Zm0.68-5.96,0.11-.18,0.11,0.05-0.11.19-0.07.11-0.33.44-0.06.12-0.13.23-0.11.1-0.04.06-0.04.02v-0.05l0.05-.05,0.08-.14,0.05-.11,0.06-.12,0.07-.11,0.15-.21,0.07-.12,0.08-.11Zm-0.56,1.69-0.05.09-0.02.01,0.01-.02,0.04-.09,0.07-.12,0.09-.2,0.07-.12,0.07-.12,0.09-.11,0.13-.14,0.03,0.03-0.03.12-0.12.18-0.18.21-0.11.18Zm0,4.18h0.01l-0.01.01-0.01.01Zm0.09-7.07-0.08.09-0.01-.11,0.13-.12Zm0.08,6.79,0.03-.03v0.03l-0.08.15-0.11.13,0.03-.18Zm0.03-6.25-0.14.13,0.07-.18,0.14-.17,0.08-.05-0.04.08Zm0.94,1.19,0.15-.18,0.08,0.06-0.11.26-0.08.1-0.09.09-0.16.2-0.08.1-0.45.68-0.16.23-0.13.14-0.03-.06,0.1-.18,0.18-.24,0.08-.1,0.08-.12,0.07-.11,0.15-.23,0.22-.35,0.07-.11Zm-0.99,5.69,0.11-.09,0.01,0.09-0.08.13-0.08.01Zm1.62-3.79,0.07,0.04-0.11.15-0.15.23-0.07.12-0.07.11-0.14.23-0.07.11-0.23.35-0.08.1-0.09.12-0.08.1-0.07.12-0.15.24-0.24.36-0.13.14-0.05-.01,0.09-.17,0.09-.12,0.15-.2,0.12-.23,0.07-.12,0.06-.12,0.08-.11,0.08-.11,0.54-.81,0.26-.35Zm-0.35-1.61,0.09,0.06-0.14.23-0.08.11-0.23.34-0.31.46-0.15.24-0.09.12-0.2.3-0.1.07-0.01-.05,0.15-.25,0.15-.23,0.54-.8,0.08-.11Zm-1.19,2.53,0.05,0.01-0.04.05Zm0.15-3.54-0.14.06,0.05-.15,0.09-.08,0.11-.07-0.03.14Zm0.85,4.33-0.25.36-0.09.1-0.16.23-0.26.45-0.14.15-0.08-.05,0.08-.15,0.14-.18,0.08-.1,0.06-.11,0.09-.11,0.06-.11,0.1-.22,0.09-.09,0.15-.22,0.08-.13,0.15-.23,0.27-.36,0.11-.14,0.05-.03-0.02.07-0.07.14-0.15.24-0.08.12Zm0.4-2.22,0.1-.14,0.04,0.03-0.07.18-0.06.14-0.07.12-0.09.12-0.19.24-0.12.24-0.07.11-0.08.12-0.31.41-0.15.16-0.04.15-0.08.11-0.1.1-0.06-.02,0.05-.15,0.07-.1,0.17-.2,0.06-.12,0.15-.26,0.08-.11,0.25-.34,0.07-.13,0.07-.12,0.07-.12,0.07-.11Zm-1.27-2.85h-0.01l0.01-.01v0.01Zm0.06-.06-0.06.05,0.01-.08,0.04-.05Zm1.13,2.33,0.07,0.04-0.06.18-0.08.11-0.07.13-0.08.11-0.09.12-0.18.23-0.24.37-0.07.13-0.09.11-0.08.12-0.13.16-0.08.01,0.04-.15,0.13-.21,0.24-.32,0.15-.24,0.08-.1,0.07-.11,0.07-.12,0.21-.33,0.08-.1Zm-1.14,4.51,0.1-.05-0.04.13-0.1.06Zm0.44-5.59,0.16-.21,0.11-.11,0.05,0.04-0.07.14-0.07.11-0.05.12-0.08.1-0.18.17-0.08.15-0.07-.04,0.11-.12,0.12-.23Zm0.1,4.8,0.06,0.05-0.08.12-0.09.12-0.13.2-0.1.06,0.05-.12,0.12-.19,0.06-.13Zm0.02,0.62,0.13-.12-0.03.17-0.13.12Zm0.99-2.14,0.04,0.04-0.07.17-0.06.12-0.31.46-0.08.12-0.07.11-0.15.21-0.11.06-0.02-.05,0.08-.15,0.07-.11,0.07-.13,0.07-.12,0.16-.23,0.16-.24,0.12-.19Zm-0.11.85,0.11-.09-0.04.14-0.14.2-0.06.11-0.16.21-0.11.11,0.06-.15,0.05-.12,0.07-.12,0.1-.09Zm-0.23,1.08,0.04-.03v0.04l-0.04.04v-0.05Zm0.36-.56,0.03-.02-0.03.03-0.01.05Zm60.4,35.98a60.626,60.626,0,0,1-8.75-.58,0.4,0.4,0,0,1,.12-0.79,60.415,60.415,0,0,0,8.63.57c8.54,0,13.99-1.46,13.99-2.46s-5.45-2.46-13.99-2.46a60.122,60.122,0,0,0-8.61.57,0.4,0.4,0,0,1-.46-0.33,0.406,0.406,0,0,1,.34-0.46,60.336,60.336,0,0,1,8.73-.58c5.94,0,14.79.87,14.79,3.26S1249.13,2023.09,1243.19,2023.09Zm0,1.83a60.526,60.526,0,0,1-8.75-.58,0.406,0.406,0,0,1-.34-0.46,0.392,0.392,0,0,1,.46-0.33,60.211,60.211,0,0,0,8.63.57c8.54,0,13.99-1.46,13.99-2.46v-1.83a0.4,0.4,0,0,1,.8,0v1.83C1257.98,2024.05,1249.13,2024.92,1243.19,2024.92Zm0,1.4a58.876,58.876,0,0,1-8.98-.62,0.388,0.388,0,0,1-.33-0.45,0.4,0.4,0,0,1,.46-0.34,58.459,58.459,0,0,0,8.85.61c8.54,0,13.99-1.46,13.99-2.46a0.608,0.608,0,0,0-.28-0.38,0.4,0.4,0,0,1-.07-0.57,0.409,0.409,0,0,1,.57-0.06,1.332,1.332,0,0,1,.58,1.01C1257.98,2025.45,1249.13,2026.32,1243.19,2026.32Zm0,1.83a60.57,60.57,0,0,1-8.76-.58,0.412,0.412,0,0,1-.34-0.46,0.4,0.4,0,0,1,.45-0.34,59.087,59.087,0,0,0,8.65.58c8.54,0,13.99-1.46,13.99-2.46v-1.83a0.4,0.4,0,0,1,.8,0v1.83C1257.98,2027.28,1249.13,2028.15,1243.19,2028.15Zm0,1.4a61.016,61.016,0,0,1-8.77-.58,0.4,0.4,0,1,1,.12-0.8,59.185,59.185,0,0,0,8.65.58c8.54,0,13.99-1.46,13.99-2.46a0.608,0.608,0,0,0-.28-0.38,0.4,0.4,0,0,1-.07-0.57,0.409,0.409,0,0,1,.57-0.06,1.317,1.317,0,0,1,.58,1.01C1257.98,2028.68,1249.13,2029.55,1243.19,2029.55Zm0,1.83a59.47,59.47,0,0,1-8.78-.59,0.4,0.4,0,0,1,.12-0.79,59.23,59.23,0,0,0,8.66.58c8.54,0,13.99-1.46,13.99-2.46v-1.83a0.4,0.4,0,0,1,.8,0v1.83C1257.98,2030.51,1249.13,2031.38,1243.19,2031.38Zm0,1.4a59.373,59.373,0,0,1-8.78-.59,0.4,0.4,0,0,1-.34-0.45,0.406,0.406,0,0,1,.46-0.34,59.131,59.131,0,0,0,8.66.58c8.54,0,13.99-1.46,13.99-2.46a0.585,0.585,0,0,0-.28-0.38,0.4,0.4,0,0,1-.07-0.57,0.409,0.409,0,0,1,.57-0.06,1.3,1.3,0,0,1,.58,1.01C1257.98,2031.91,1249.13,2032.78,1243.19,2032.78Zm0,1.83a59.514,59.514,0,0,1-8.79-.59,0.4,0.4,0,0,1,.12-0.79,59.274,59.274,0,0,0,8.67.58c8.54,0,13.99-1.46,13.99-2.46v-1.83a0.4,0.4,0,1,1,.8,0v1.83C1257.98,2033.74,1249.13,2034.61,1243.19,2034.61Zm0,1.4a59.514,59.514,0,0,1-8.79-.59,0.406,0.406,0,0,1-.34-0.46,0.4,0.4,0,0,1,.46-0.33,59.274,59.274,0,0,0,8.67.58c8.54,0,13.99-1.46,13.99-2.46a0.622,0.622,0,0,0-.28-0.39,0.389,0.389,0,0,1-.07-0.56,0.409,0.409,0,0,1,.57-0.06,1.3,1.3,0,0,1,.58,1.01C1257.98,2035.14,1249.13,2036.01,1243.19,2036.01Zm0,1.83a59.753,59.753,0,0,1-8.8-.59,0.406,0.406,0,0,1-.34-0.46,0.4,0.4,0,0,1,.46-0.33,59.516,59.516,0,0,0,8.68.58c8.54,0,13.99-1.46,13.99-2.46v-1.83a0.4,0.4,0,1,1,.8,0v1.83C1257.98,2036.97,1249.13,2037.84,1243.19,2037.84Zm0,1.4a59.8,59.8,0,0,1-8.81-.59,0.407,0.407,0,0,1-.33-0.46,0.387,0.387,0,0,1,.46-0.33,59.319,59.319,0,0,0,8.68.58c8.54,0,13.99-1.46,13.99-2.46a0.622,0.622,0,0,0-.28-0.39,0.389,0.389,0,0,1-.07-0.56,0.409,0.409,0,0,1,.57-0.06,1.3,1.3,0,0,1,.58,1.01C1257.98,2038.37,1249.13,2039.24,1243.19,2039.24Zm0,1.83a61.1,61.1,0,0,1-8.81-.59,0.412,0.412,0,0,1-.34-0.46,0.4,0.4,0,0,1,.46-0.34,59.467,59.467,0,0,0,8.69.59c8.54,0,13.99-1.46,13.99-2.46v-1.83a0.4,0.4,0,1,1,.8,0v1.83C1257.98,2040.2,1249.13,2041.07,1243.19,2041.07Zm0,1.4a64.331,64.331,0,0,1-7.8-.45c-0.36-.05-0.71-0.1-1.04-0.15a0.4,0.4,0,1,1,.12-0.79c0.33,0.05.67,0.1,1.02,0.14a62.631,62.631,0,0,0,7.7.45c8.54,0,13.99-1.46,13.99-2.46a0.622,0.622,0,0,0-.28-0.39,0.39,0.39,0,0,1-.07-0.56,0.409,0.409,0,0,1,.57-0.06,1.3,1.3,0,0,1,.58,1.01C1257.98,2041.6,1249.13,2042.47,1243.19,2042.47Zm0,1.83a59.85,59.85,0,0,1-8.82-.6,0.4,0.4,0,1,1,.12-0.79,59.611,59.611,0,0,0,8.7.59c8.54,0,13.99-1.46,13.99-2.46v-1.83a0.4,0.4,0,1,1,.8,0v1.83C1257.98,2043.43,1249.13,2044.3,1243.19,2044.3Zm0,1.4a59.893,59.893,0,0,1-8.83-.6,0.4,0.4,0,0,1,.12-0.79,59.654,59.654,0,0,0,8.71.59c8.54,0,13.99-1.46,13.99-2.46a0.622,0.622,0,0,0-.28-0.39,0.39,0.39,0,0,1-.07-0.56,0.42,0.42,0,0,1,.57-0.07,1.334,1.334,0,0,1,.58,1.02C1257.98,2044.83,1249.13,2045.7,1243.19,2045.7Zm0,1.83a60.147,60.147,0,0,1-8.71-.58,0.407,0.407,0,0,1-.33-0.46,0.4,0.4,0,0,1,.45-0.33,59.931,59.931,0,0,0,8.59.57c8.54,0,13.99-1.46,13.99-2.46v-1.83a0.4,0.4,0,1,1,.8,0v1.83C1257.98,2046.66,1249.13,2047.53,1243.19,2047.53Zm0.08,0.4a60.771,60.771,0,0,1-8.76-.58,0.807,0.807,0,0,1-.69-0.8l-0.04-24.43,0.02-4.58a0.8,0.8,0,0,1,.68-0.79,61.207,61.207,0,0,1,8.79-.58c1.55,0,15.19.1,15.19,3.66v1.83a1.384,1.384,0,0,0,0,1.4v1.83a1.384,1.384,0,0,0,0,1.4v1.83a1.384,1.384,0,0,0,0,1.4v1.83a1.42,1.42,0,0,1-.19.7,1.394,1.394,0,0,1,.19.7v1.83a1.42,1.42,0,0,1-.19.7,1.394,1.394,0,0,1,.19.7v1.83a1.42,1.42,0,0,1-.19.7,1.394,1.394,0,0,1,.19.7v1.83a1.42,1.42,0,0,1-.19.7,1.394,1.394,0,0,1,.19.7v1.83C1258.46,2047.83,1244.82,2047.93,1243.27,2047.93Zm-7.85-2.07a62.512,62.512,0,0,0,7.85.46c8.32,0,13.2-1.36,13.6-2.13l-0.01-1.72a0.34,0.34,0,0,1-.1-0.08,0.673,0.673,0,0,1-.28-0.36,0.789,0.789,0,0,1,.24-0.92,0.519,0.519,0,0,0,.15-0.15l-0.01-1.72a0.34,0.34,0,0,1-.1-0.08,0.673,0.673,0,0,1-.28-0.36,0.789,0.789,0,0,1,.24-0.92,0.519,0.519,0,0,0,.15-0.15l-0.01-1.72a0.448,0.448,0,0,1-.1-0.07,0.736,0.736,0,0,1-.28-0.37,0.789,0.789,0,0,1,.24-0.92,0.519,0.519,0,0,0,.15-0.15l-0.01-1.72a0.241,0.241,0,0,1-.1-0.07,0.756,0.756,0,0,1-.28-0.36,0.8,0.8,0,0,1,.24-0.93,0.519,0.519,0,0,0,.15-0.15l-0.01-1.72a0.241,0.241,0,0,1-.1-0.07,0.756,0.756,0,0,1-.28-0.36,0.8,0.8,0,0,1,.24-0.93,0.407,0.407,0,0,0,.15-0.15l-0.01-1.72a0.2,0.2,0,0,1-.1-0.07,0.811,0.811,0,0,1-.04-1.29,0.407,0.407,0,0,0,.15-0.15l-0.01-1.72a0.241,0.241,0,0,1-.1-0.07,0.712,0.712,0,0,1-.28-0.36,0.8,0.8,0,0,1,.24-0.93,0.619,0.619,0,0,0,.15-0.14l-0.01-1.76c-0.39-.69-5.27-2.06-13.59-2.06a62.617,62.617,0,0,0-7.87.47l-0.02,3.88Zm0.52-21.75h-0.4v-1.83h0.4v1.83Zm1.29,0h-0.4v-1.83h0.4v1.83Zm1.29,0h-0.4v-1.83h0.4v1.83Zm1.29,0h-0.4v-1.83h0.4v1.83Zm1.29,0.3h-0.4v-1.82h0.4v1.82Zm1.29,0h-0.4v-1.82h0.4v1.82Zm1.29,0.11h-0.4v-1.83h0.4v1.83Zm1.29-.11h-0.4v-1.82h0.4v1.82Zm1.29,0h-0.4v-1.82h0.4v1.82Zm1.29-.3h-0.4v-1.83h0.4v1.83Zm1.29,0h-0.4v-1.83h0.4v1.83Zm1.29,0h-0.4v-1.83h0.4v1.83Zm1.29,0h-0.4v-1.83h0.4v1.83Zm1.29,0h-0.4v-1.83h0.4v1.83Zm1.29-.5h-0.4v-1.83h0.4v1.83Zm1.29-.33h-0.4v-1.83h0.4v1.83Zm1.29-.46h-0.4v-1.83h0.4v1.83Zm-20.64,4.52h-0.4v-1.83h0.4v1.83Zm1.29,0h-0.4v-1.83h0.4v1.83Zm1.29,0h-0.4v-1.83h0.4v1.83Zm1.29,0h-0.4v-1.83h0.4v1.83Zm1.29,0.3h-0.4v-1.82h0.4v1.82Zm1.29,0h-0.4v-1.82h0.4v1.82Zm1.29,0.11h-0.4v-1.83h0.4v1.83Zm1.29-.11h-0.4v-1.82h0.4v1.82Zm1.29,0h-0.4v-1.82h0.4v1.82Zm1.29-.3h-0.4v-1.83h0.4v1.83Zm1.29,0h-0.4v-1.83h0.4v1.83Zm1.29,0h-0.4v-1.83h0.4v1.83Zm1.29,0h-0.4v-1.83h0.4v1.83Zm1.29,0h-0.4v-1.83h0.4v1.83Zm1.29-.5h-0.4v-1.83h0.4v1.83Zm1.29-.33h-0.4v-1.83h0.4v1.83Zm1.29-.46h-0.4v-1.83h0.4v1.83Zm-20.64,4.52h-0.4v-1.83h0.4v1.83Zm1.29,0h-0.4v-1.83h0.4v1.83Zm1.29,0h-0.4v-1.83h0.4v1.83Zm1.29,0h-0.4v-1.83h0.4v1.83Zm1.29,0.3h-0.4v-1.83h0.4v1.83Zm1.29,0h-0.4v-1.83h0.4v1.83Zm1.29,0.11h-0.4v-1.83h0.4v1.83Zm1.29-.11h-0.4v-1.83h0.4v1.83Zm1.29,0h-0.4v-1.83h0.4v1.83Zm1.29-.3h-0.4v-1.83h0.4v1.83Zm1.29,0h-0.4v-1.83h0.4v1.83Zm1.29,0h-0.4v-1.83h0.4v1.83Zm1.29,0h-0.4v-1.83h0.4v1.83Zm1.29,0h-0.4v-1.83h0.4v1.83Zm1.29-.5h-0.4v-1.83h0.4v1.83Zm1.29-.33h-0.4v-1.83h0.4v1.83Zm1.29-.46h-0.4v-1.83h0.4v1.83Zm-20.64,4.52h-0.4v-1.83h0.4v1.83Zm1.29,0h-0.4v-1.83h0.4v1.83Zm1.29,0h-0.4v-1.83h0.4v1.83Zm1.29,0h-0.4v-1.83h0.4v1.83Zm1.29,0.3h-0.4v-1.83h0.4v1.83Zm1.29,0h-0.4v-1.83h0.4v1.83Zm1.29,0.11h-0.4v-1.83h0.4v1.83Zm1.29-.11h-0.4v-1.83h0.4v1.83Zm1.29,0h-0.4v-1.83h0.4v1.83Zm1.29-.3h-0.4v-1.83h0.4v1.83Zm1.29,0h-0.4v-1.83h0.4v1.83Zm1.29,0h-0.4v-1.83h0.4v1.83Zm1.29,0h-0.4v-1.83h0.4v1.83Zm1.29,0h-0.4v-1.83h0.4v1.83Zm1.29-.5h-0.4v-1.83h0.4v1.83Zm1.29-.33h-0.4v-1.83h0.4v1.83Zm1.29-.46h-0.4v-1.83h0.4v1.83Zm-20.64,4.52h-0.4v-1.83h0.4v1.83Zm1.29,0h-0.4v-1.83h0.4v1.83Zm1.29,0h-0.4v-1.83h0.4v1.83Zm1.29,0h-0.4v-1.83h0.4v1.83Zm1.29,0.3h-0.4v-1.83h0.4v1.83Zm1.29,0h-0.4v-1.83h0.4v1.83Zm1.29,0.11h-0.4v-1.83h0.4v1.83Zm1.29-.11h-0.4v-1.83h0.4v1.83Zm1.29,0h-0.4v-1.83h0.4v1.83Zm1.29-.3h-0.4v-1.83h0.4v1.83Zm1.29,0h-0.4v-1.83h0.4v1.83Zm1.29,0h-0.4v-1.83h0.4v1.83Zm1.29,0h-0.4v-1.83h0.4v1.83Zm1.29,0h-0.4v-1.83h0.4v1.83Zm1.29-.51h-0.4v-1.82h0.4v1.82Zm1.29-.32h-0.4v-1.83h0.4v1.83Zm1.29-.47h-0.4v-1.82h0.4v1.82Zm-20.64,4.53h-0.4v-1.83h0.4v1.83Zm1.29,0h-0.4v-1.83h0.4v1.83Zm1.29,0h-0.4v-1.83h0.4v1.83Zm1.29,0h-0.4v-1.83h0.4v1.83Zm1.29,0.3h-0.4v-1.83h0.4v1.83Zm1.29,0h-0.4v-1.83h0.4v1.83Zm1.29,0.11h-0.4v-1.83h0.4v1.83Zm1.29-.11h-0.4v-1.83h0.4v1.83Zm1.29,0h-0.4v-1.83h0.4v1.83Zm1.29-.3h-0.4v-1.83h0.4v1.83Zm1.29,0h-0.4v-1.83h0.4v1.83Zm1.29,0h-0.4v-1.83h0.4v1.83Zm1.29,0h-0.4v-1.83h0.4v1.83Zm1.29,0h-0.4v-1.83h0.4v1.83Zm1.29-.51h-0.4v-1.83h0.4v1.83Zm1.29-.33h-0.4v-1.83h0.4v1.83Zm1.29-.46h-0.4v-1.82h0.4v1.82Zm-20.64,4.52h-0.4v-1.82h0.4v1.82Zm1.29,0h-0.4v-1.82h0.4v1.82Zm1.29,0h-0.4v-1.82h0.4v1.82Zm1.29,0h-0.4v-1.82h0.4v1.82Zm1.29,0.31h-0.4v-1.83h0.4v1.83Zm1.29,0h-0.4v-1.83h0.4v1.83Zm1.29,0.11h-0.4v-1.83h0.4v1.83Zm1.29-.11h-0.4v-1.83h0.4v1.83Zm1.29,0h-0.4v-1.83h0.4v1.83Zm1.29-.31h-0.4v-1.82h0.4v1.82Zm1.29,0h-0.4v-1.82h0.4v1.82Zm1.29,0h-0.4v-1.82h0.4v1.82Zm1.29,0h-0.4v-1.82h0.4v1.82Zm1.29,0h-0.4v-1.82h0.4v1.82Zm1.29-.5h-0.4v-1.83h0.4v1.83Zm1.29-.33h-0.4v-1.83h0.4v1.83Zm1.29-.46h-0.4v-1.83h0.4v1.83Zm-20.64,4.52h-0.4v-1.83h0.4v1.83Zm1.29,0h-0.4v-1.83h0.4v1.83Zm1.29,0h-0.4v-1.83h0.4v1.83Zm1.29,0h-0.4v-1.83h0.4v1.83Zm1.29,0.31h-0.4v-1.83h0.4v1.83Zm1.29,0h-0.4v-1.83h0.4v1.83Zm1.29,0.11h-0.4v-1.83h0.4v1.83Zm1.29-.11h-0.4v-1.83h0.4v1.83Zm1.29,0h-0.4v-1.83h0.4v1.83Zm1.29-.31h-0.4v-1.83h0.4v1.83Zm1.29,0h-0.4v-1.83h0.4v1.83Zm1.29,0h-0.4v-1.83h0.4v1.83Zm1.29,0h-0.4v-1.83h0.4v1.83Zm1.29,0h-0.4v-1.83h0.4v1.83Zm1.29-.5h-0.4v-1.83h0.4v1.83Zm1.29-.33h-0.4v-1.83h0.4v1.83Zm1.29-.46h-0.4v-1.83h0.4v1.83Z" transform="translate(-1103.25 -1976.19)"/>
</svg>
